G04 #@! TF.FileFunction,Copper,L2,Bot,Signal*
%FSLAX46Y46*%
G04 Gerber Fmt 4.6, Leading zero omitted, Abs format (unit mm)*
G04 Created by KiCad (PCBNEW 4.0.7) date 02/09/18 11:12:53*
%MOMM*%
%LPD*%
G01*
G04 APERTURE LIST*
%ADD10C,0.100000*%
%ADD11C,0.762000*%
%ADD12C,1.440000*%
%ADD13C,2.000000*%
%ADD14C,1.700000*%
%ADD15R,1.250000X1.500000*%
%ADD16R,1.500000X1.250000*%
%ADD17R,1.300000X1.500000*%
%ADD18R,1.500000X1.300000*%
%ADD19C,1.520000*%
%ADD20R,1.520000X1.520000*%
%ADD21C,1.460000*%
%ADD22C,0.900000*%
%ADD23C,0.508000*%
%ADD24C,0.254000*%
%ADD25C,0.961000*%
%ADD26C,0.152400*%
G04 APERTURE END LIST*
D10*
D11*
X99060000Y-53340000D03*
X104140000Y-53340000D03*
X109220000Y-53340000D03*
X114300000Y-53340000D03*
X104140000Y-43180000D03*
X99060000Y-43180000D03*
X58420000Y-43180000D03*
X43180000Y-53340000D03*
X38100000Y-48260000D03*
X88900000Y-73660000D03*
X88900000Y-38100000D03*
X88900000Y-33020000D03*
X93980000Y-38100000D03*
X104140000Y-38100000D03*
X99060000Y-38100000D03*
X58420000Y-38100000D03*
X99060000Y-68580000D03*
X109220000Y-68580000D03*
X104140000Y-68580000D03*
X99060000Y-73660000D03*
X104140000Y-73660000D03*
X109220000Y-73660000D03*
X58420000Y-78740000D03*
X53340000Y-78740000D03*
X48260000Y-78740000D03*
X43180000Y-78740000D03*
X43180000Y-73660000D03*
X48260000Y-73660000D03*
X53340000Y-73660000D03*
X58420000Y-73660000D03*
X63500000Y-73660000D03*
X63500000Y-78740000D03*
X68580000Y-73660000D03*
X68580000Y-78740000D03*
X78740000Y-78740000D03*
X78740000Y-73660000D03*
X83820000Y-73660000D03*
X83820000Y-78740000D03*
X88900000Y-83820000D03*
X93980000Y-83820000D03*
X99060000Y-83820000D03*
X104140000Y-83820000D03*
X109220000Y-83820000D03*
X114300000Y-83820000D03*
X119380000Y-73660000D03*
X119380000Y-68580000D03*
X119380000Y-63500000D03*
X119380000Y-58420000D03*
X119380000Y-53340000D03*
X93980000Y-43180000D03*
X119380000Y-43180000D03*
X119380000Y-48260000D03*
X68580000Y-63500000D03*
X63500000Y-63500000D03*
X58420000Y-63500000D03*
X38100000Y-63500000D03*
X43180000Y-63500000D03*
X53340000Y-63500000D03*
X48260000Y-63500000D03*
D12*
X65405000Y-57079000D03*
X67945000Y-57079000D03*
X70485000Y-57079000D03*
D11*
X38100000Y-38100000D03*
D13*
X37747000Y-65659000D03*
X37800000Y-59250000D03*
D14*
X44058000Y-59210000D03*
X44058000Y-61750000D03*
X44058000Y-56670000D03*
D15*
X113576000Y-58597000D03*
X113576000Y-61097000D03*
D16*
X65298000Y-34788000D03*
X67798000Y-34788000D03*
D12*
X50094000Y-48621000D03*
X47554000Y-48621000D03*
X45014000Y-48621000D03*
D17*
X65451000Y-50486000D03*
X65451000Y-53186000D03*
D18*
X62749000Y-38420000D03*
X65449000Y-38420000D03*
X70519000Y-32512000D03*
X67819000Y-32512000D03*
X72330000Y-50516000D03*
X75030000Y-50516000D03*
D13*
X37859000Y-53365000D03*
X89330000Y-42590000D03*
X97008000Y-36190000D03*
D19*
X57132000Y-47001000D03*
X59672000Y-47001000D03*
D20*
X54592000Y-47001000D03*
D21*
X69898000Y-45396000D03*
X72438000Y-45396000D03*
X74978000Y-45396000D03*
X77518000Y-45396000D03*
X80058000Y-45396000D03*
X82598000Y-45396000D03*
X85138000Y-45396000D03*
X69898000Y-53156000D03*
X72438000Y-53156000D03*
X74978000Y-53156000D03*
X77518000Y-53156000D03*
X80058000Y-53156000D03*
X82598000Y-53156000D03*
X85138000Y-53156000D03*
D13*
X70752000Y-68504000D03*
X68212000Y-68504000D03*
X65672000Y-68504000D03*
X63132000Y-68504000D03*
X60592000Y-68504000D03*
X58052000Y-68504000D03*
X55512000Y-68504000D03*
X52972000Y-68504000D03*
X50432000Y-68504000D03*
X47892000Y-68504000D03*
X45352000Y-68504000D03*
X42812000Y-68504000D03*
X40272000Y-68504000D03*
X37732000Y-68504000D03*
X37732000Y-71044000D03*
X37732000Y-73584000D03*
X37732000Y-76124000D03*
X37732000Y-78664000D03*
X37732000Y-81204000D03*
X37732000Y-83744000D03*
X40272000Y-83744000D03*
X42812000Y-83744000D03*
X45352000Y-83744000D03*
X47892000Y-83744000D03*
X50432000Y-83744000D03*
X52972000Y-83744000D03*
X55512000Y-83744000D03*
X58052000Y-83744000D03*
X60592000Y-83744000D03*
X63132000Y-83744000D03*
X65672000Y-83744000D03*
X68212000Y-83744000D03*
X70752000Y-83744000D03*
X68212000Y-81204000D03*
X63132000Y-81204000D03*
X60592000Y-81204000D03*
X58052000Y-81204000D03*
D11*
X88900000Y-48260000D03*
X83820000Y-48260000D03*
X78740000Y-48260000D03*
X73660000Y-48260000D03*
X114300000Y-43180000D03*
X114300000Y-38100000D03*
X114300000Y-33020000D03*
X109220000Y-33020000D03*
X104140000Y-33020000D03*
X99060000Y-33020000D03*
X63500000Y-33020000D03*
X58420000Y-33020000D03*
X53340000Y-33020000D03*
X48260000Y-33020000D03*
X43180000Y-33020000D03*
X38100000Y-33020000D03*
X38100000Y-43180000D03*
X43180000Y-38100000D03*
X48260000Y-38100000D03*
X53340000Y-38100000D03*
X43180000Y-43180000D03*
X48260000Y-43180000D03*
X53340000Y-43180000D03*
X53340000Y-53340000D03*
X48260000Y-53340000D03*
X73660000Y-33020000D03*
X78740000Y-33020000D03*
X114219000Y-48280000D03*
X63500000Y-53340000D03*
D16*
X72527000Y-34801000D03*
X75027000Y-34801000D03*
D11*
X101323000Y-77175000D03*
X101323000Y-78108000D03*
X101323000Y-79041000D03*
X102433000Y-77175000D03*
X100213000Y-77175000D03*
X109877000Y-78776000D03*
X113548000Y-64150000D03*
X62751000Y-40817000D03*
X72520000Y-37826000D03*
D22*
X81971000Y-40660000D03*
X84348000Y-34503000D03*
D11*
X73914000Y-41194000D03*
X104465000Y-64435000D03*
X89692000Y-65674000D03*
X105644000Y-60818000D03*
X88473000Y-65573000D03*
X100995000Y-66721000D03*
X96896000Y-66721000D03*
X89957000Y-68031000D03*
X75916000Y-68011000D03*
D23*
X109877000Y-78776000D02*
X109934000Y-78776000D01*
D24*
X113576000Y-58597000D02*
X80419000Y-58597000D01*
X80419000Y-58597000D02*
X74978000Y-53156000D01*
X113576000Y-64122000D02*
X113576000Y-61097000D01*
X113548000Y-64150000D02*
X113576000Y-64122000D01*
X65449000Y-38420000D02*
X65449000Y-34939000D01*
X65449000Y-34939000D02*
X65298000Y-34788000D01*
X72330000Y-50516000D02*
X65481000Y-50516000D01*
X65481000Y-50516000D02*
X65451000Y-50486000D01*
X65501000Y-50536000D02*
X65451000Y-50486000D01*
X65330000Y-34820000D02*
X65298000Y-34788000D01*
X65451000Y-50486000D02*
X65451000Y-38508000D01*
X65451000Y-38508000D02*
X65330000Y-38387000D01*
X67819000Y-32512000D02*
X67819000Y-34767000D01*
X67819000Y-34767000D02*
X67798000Y-34788000D01*
X67798000Y-34788000D02*
X67798000Y-43296000D01*
X67798000Y-43296000D02*
X69898000Y-45396000D01*
D25*
X62749000Y-40815000D02*
X62749000Y-38420000D01*
X62751000Y-40817000D02*
X62749000Y-40815000D01*
X72527000Y-37819000D02*
X72527000Y-34801000D01*
X72520000Y-37826000D02*
X72527000Y-37819000D01*
D24*
X80058000Y-45396000D02*
X80058000Y-42573000D01*
X80058000Y-42573000D02*
X81971000Y-40660000D01*
X85138000Y-45396000D02*
X85138000Y-35293000D01*
X85138000Y-35293000D02*
X84348000Y-34503000D01*
X67945000Y-57079000D02*
X68515000Y-57079000D01*
X68515000Y-57079000D02*
X72438000Y-53156000D01*
X65405000Y-57079000D02*
X65405000Y-53232000D01*
X65405000Y-53232000D02*
X65481000Y-53156000D01*
X65481000Y-53156000D02*
X69898000Y-53156000D01*
X65151000Y-52958000D02*
X65126000Y-52933000D01*
X72438000Y-45396000D02*
X72438000Y-42670000D01*
X72438000Y-42670000D02*
X73914000Y-41194000D01*
X72438000Y-45396000D02*
X72438000Y-44932000D01*
X72438000Y-45396000D02*
X72438000Y-45112000D01*
X70519000Y-32512000D02*
X70519000Y-43477000D01*
X70519000Y-43477000D02*
X72438000Y-45396000D01*
X104465000Y-64435000D02*
X102108000Y-62078000D01*
X102108000Y-62078000D02*
X91541000Y-62078000D01*
X91541000Y-62078000D02*
X89692000Y-63927000D01*
X89692000Y-63927000D02*
X89692000Y-65674000D01*
X90403000Y-60818000D02*
X105644000Y-60818000D01*
X88453000Y-62768000D02*
X90403000Y-60818000D01*
X88453000Y-65553000D02*
X88453000Y-62768000D01*
X88473000Y-65573000D02*
X88453000Y-65553000D01*
X96896000Y-66721000D02*
X100995000Y-66721000D01*
X89937000Y-68011000D02*
X75916000Y-68011000D01*
X89957000Y-68031000D02*
X89937000Y-68011000D01*
X74978000Y-45396000D02*
X74978000Y-34850000D01*
X74978000Y-34850000D02*
X75027000Y-34801000D01*
X75030000Y-50516000D02*
X75030000Y-45448000D01*
X75030000Y-45448000D02*
X74978000Y-45396000D01*
D26*
G36*
X66473355Y-31862000D02*
X66473355Y-33162000D01*
X66514091Y-33378492D01*
X66642037Y-33577326D01*
X66757120Y-33655959D01*
X66632674Y-33736037D01*
X66547597Y-33860551D01*
X66474963Y-33747674D01*
X66279739Y-33614283D01*
X66048000Y-33567355D01*
X64548000Y-33567355D01*
X64331508Y-33608091D01*
X64132674Y-33736037D01*
X63999283Y-33931261D01*
X63952355Y-34163000D01*
X63952355Y-35413000D01*
X63993091Y-35629492D01*
X64121037Y-35828326D01*
X64316261Y-35961717D01*
X64548000Y-36008645D01*
X64737800Y-36008645D01*
X64737800Y-37174355D01*
X64699000Y-37174355D01*
X64482508Y-37215091D01*
X64283674Y-37343037D01*
X64150283Y-37538261D01*
X64103355Y-37770000D01*
X64103355Y-39070000D01*
X64144091Y-39286492D01*
X64272037Y-39485326D01*
X64467261Y-39618717D01*
X64699000Y-39665645D01*
X64739800Y-39665645D01*
X64739800Y-49151871D01*
X64584508Y-49181091D01*
X64385674Y-49309037D01*
X64252283Y-49504261D01*
X64205355Y-49736000D01*
X64205355Y-51236000D01*
X64246091Y-51452492D01*
X64374037Y-51651326D01*
X64569261Y-51784717D01*
X64801000Y-51831645D01*
X66101000Y-51831645D01*
X66317492Y-51790909D01*
X66516326Y-51662963D01*
X66649717Y-51467739D01*
X66696645Y-51236000D01*
X66696645Y-51227200D01*
X70995871Y-51227200D01*
X71025091Y-51382492D01*
X71153037Y-51581326D01*
X71348261Y-51714717D01*
X71580000Y-51761645D01*
X73080000Y-51761645D01*
X73296492Y-51720909D01*
X73495326Y-51592963D01*
X73628717Y-51397739D01*
X73675645Y-51166000D01*
X73675645Y-49866000D01*
X73634909Y-49649508D01*
X73506963Y-49450674D01*
X73311739Y-49317283D01*
X73080000Y-49270355D01*
X71580000Y-49270355D01*
X71363508Y-49311091D01*
X71164674Y-49439037D01*
X71031283Y-49634261D01*
X70996748Y-49804800D01*
X66696645Y-49804800D01*
X66696645Y-49736000D01*
X66655909Y-49519508D01*
X66527963Y-49320674D01*
X66332739Y-49187283D01*
X66162200Y-49152748D01*
X66162200Y-39665645D01*
X66199000Y-39665645D01*
X66415492Y-39624909D01*
X66614326Y-39496963D01*
X66747717Y-39301739D01*
X66794645Y-39070000D01*
X66794645Y-37770000D01*
X66753909Y-37553508D01*
X66625963Y-37354674D01*
X66430739Y-37221283D01*
X66199000Y-37174355D01*
X66160200Y-37174355D01*
X66160200Y-35987533D01*
X66264492Y-35967909D01*
X66463326Y-35839963D01*
X66548403Y-35715449D01*
X66621037Y-35828326D01*
X66816261Y-35961717D01*
X67048000Y-36008645D01*
X67086800Y-36008645D01*
X67086800Y-43296000D01*
X67140937Y-43568165D01*
X67295106Y-43798894D01*
X68597415Y-45101204D01*
X68584028Y-45133443D01*
X68583572Y-45656264D01*
X68783226Y-46139462D01*
X69152593Y-46509475D01*
X69635443Y-46709972D01*
X70158264Y-46710428D01*
X70641462Y-46510774D01*
X71011475Y-46141407D01*
X71168138Y-45764121D01*
X71323226Y-46139462D01*
X71692593Y-46509475D01*
X72175443Y-46709972D01*
X72698264Y-46710428D01*
X73181462Y-46510774D01*
X73551475Y-46141407D01*
X73708138Y-45764121D01*
X73863226Y-46139462D01*
X74232593Y-46509475D01*
X74318800Y-46545271D01*
X74318800Y-49270355D01*
X74280000Y-49270355D01*
X74063508Y-49311091D01*
X73864674Y-49439037D01*
X73731283Y-49634261D01*
X73684355Y-49866000D01*
X73684355Y-51166000D01*
X73725091Y-51382492D01*
X73853037Y-51581326D01*
X74048261Y-51714717D01*
X74280000Y-51761645D01*
X75780000Y-51761645D01*
X75996492Y-51720909D01*
X76195326Y-51592963D01*
X76328717Y-51397739D01*
X76375645Y-51166000D01*
X76375645Y-49866000D01*
X76334909Y-49649508D01*
X76206963Y-49450674D01*
X76011739Y-49317283D01*
X75780000Y-49270355D01*
X75741200Y-49270355D01*
X75741200Y-46491070D01*
X76091475Y-46141407D01*
X76291972Y-45658557D01*
X76291973Y-45656264D01*
X78743572Y-45656264D01*
X78943226Y-46139462D01*
X79312593Y-46509475D01*
X79795443Y-46709972D01*
X80318264Y-46710428D01*
X80801462Y-46510774D01*
X81171475Y-46141407D01*
X81328138Y-45764121D01*
X81483226Y-46139462D01*
X81852593Y-46509475D01*
X82335443Y-46709972D01*
X82858264Y-46710428D01*
X83341462Y-46510774D01*
X83711475Y-46141407D01*
X83868138Y-45764121D01*
X84023226Y-46139462D01*
X84392593Y-46509475D01*
X84875443Y-46709972D01*
X85398264Y-46710428D01*
X85881462Y-46510774D01*
X86251475Y-46141407D01*
X86451972Y-45658557D01*
X86452428Y-45135736D01*
X86252774Y-44652538D01*
X85883407Y-44282525D01*
X85849200Y-44268321D01*
X85849200Y-42903734D01*
X87745526Y-42903734D01*
X87986198Y-43486205D01*
X88431451Y-43932236D01*
X89013501Y-44173924D01*
X89643734Y-44174474D01*
X90226205Y-43933802D01*
X90672236Y-43488549D01*
X90913924Y-42906499D01*
X90914474Y-42276266D01*
X90673802Y-41693795D01*
X90228549Y-41247764D01*
X89646499Y-41006076D01*
X89016266Y-41005526D01*
X88433795Y-41246198D01*
X87987764Y-41691451D01*
X87746076Y-42273501D01*
X87745526Y-42903734D01*
X85849200Y-42903734D01*
X85849200Y-36503734D01*
X95423526Y-36503734D01*
X95664198Y-37086205D01*
X96109451Y-37532236D01*
X96691501Y-37773924D01*
X97321734Y-37774474D01*
X97904205Y-37533802D01*
X98350236Y-37088549D01*
X98591924Y-36506499D01*
X98592474Y-35876266D01*
X98351802Y-35293795D01*
X97906549Y-34847764D01*
X97324499Y-34606076D01*
X96694266Y-34605526D01*
X96111795Y-34846198D01*
X95665764Y-35291451D01*
X95424076Y-35873501D01*
X95423526Y-36503734D01*
X85849200Y-36503734D01*
X85849200Y-35293000D01*
X85795063Y-35020836D01*
X85740382Y-34939000D01*
X85640895Y-34790106D01*
X85382176Y-34531387D01*
X85382379Y-34298187D01*
X85225263Y-33917938D01*
X84934592Y-33626759D01*
X84554618Y-33468980D01*
X84143187Y-33468621D01*
X83762938Y-33625737D01*
X83471759Y-33916408D01*
X83313980Y-34296382D01*
X83313621Y-34707813D01*
X83470737Y-35088062D01*
X83761408Y-35379241D01*
X84141382Y-35537020D01*
X84376436Y-35537225D01*
X84426800Y-35587589D01*
X84426800Y-44267896D01*
X84394538Y-44281226D01*
X84024525Y-44650593D01*
X83867862Y-45027879D01*
X83712774Y-44652538D01*
X83343407Y-44282525D01*
X82860557Y-44082028D01*
X82337736Y-44081572D01*
X81854538Y-44281226D01*
X81484525Y-44650593D01*
X81327862Y-45027879D01*
X81172774Y-44652538D01*
X80803407Y-44282525D01*
X80769200Y-44268321D01*
X80769200Y-42867588D01*
X81942613Y-41694176D01*
X82175813Y-41694379D01*
X82556062Y-41537263D01*
X82847241Y-41246592D01*
X83005020Y-40866618D01*
X83005379Y-40455187D01*
X82848263Y-40074938D01*
X82557592Y-39783759D01*
X82177618Y-39625980D01*
X81766187Y-39625621D01*
X81385938Y-39782737D01*
X81094759Y-40073408D01*
X80936980Y-40453382D01*
X80936775Y-40688436D01*
X79555106Y-42070106D01*
X79400937Y-42300835D01*
X79381642Y-42397836D01*
X79346800Y-42573000D01*
X79346800Y-44267896D01*
X79314538Y-44281226D01*
X78944525Y-44650593D01*
X78744028Y-45133443D01*
X78743572Y-45656264D01*
X76291973Y-45656264D01*
X76292428Y-45135736D01*
X76092774Y-44652538D01*
X75723407Y-44282525D01*
X75689200Y-44268321D01*
X75689200Y-36021645D01*
X75777000Y-36021645D01*
X75993492Y-35980909D01*
X76192326Y-35852963D01*
X76325717Y-35657739D01*
X76372645Y-35426000D01*
X76372645Y-34176000D01*
X76331909Y-33959508D01*
X76203963Y-33760674D01*
X76008739Y-33627283D01*
X75777000Y-33580355D01*
X74277000Y-33580355D01*
X74060508Y-33621091D01*
X73861674Y-33749037D01*
X73776597Y-33873551D01*
X73703963Y-33760674D01*
X73508739Y-33627283D01*
X73277000Y-33580355D01*
X71777000Y-33580355D01*
X71664933Y-33601442D01*
X71684326Y-33588963D01*
X71817717Y-33393739D01*
X71864645Y-33162000D01*
X71864645Y-31862000D01*
X71836270Y-31711200D01*
X120288800Y-31711200D01*
X120288800Y-85288800D01*
X71161752Y-85288800D01*
X71648205Y-85087802D01*
X72094236Y-84642549D01*
X72335924Y-84060499D01*
X72336474Y-83430266D01*
X72095802Y-82847795D01*
X71650549Y-82401764D01*
X71068499Y-82160076D01*
X70438266Y-82159526D01*
X69855795Y-82400198D01*
X69481738Y-82773602D01*
X69182398Y-82473738D01*
X69554236Y-82102549D01*
X69795924Y-81520499D01*
X69796474Y-80890266D01*
X69555802Y-80307795D01*
X69110549Y-79861764D01*
X68528499Y-79620076D01*
X67898266Y-79619526D01*
X67315795Y-79860198D01*
X66869764Y-80305451D01*
X66628076Y-80887501D01*
X66627526Y-81517734D01*
X66868198Y-82100205D01*
X67241602Y-82474262D01*
X66941738Y-82773602D01*
X66570549Y-82401764D01*
X65988499Y-82160076D01*
X65358266Y-82159526D01*
X64775795Y-82400198D01*
X64401738Y-82773602D01*
X64102398Y-82473738D01*
X64474236Y-82102549D01*
X64715924Y-81520499D01*
X64716474Y-80890266D01*
X64475802Y-80307795D01*
X64030549Y-79861764D01*
X63448499Y-79620076D01*
X62818266Y-79619526D01*
X62235795Y-79860198D01*
X61861738Y-80233602D01*
X61490549Y-79861764D01*
X60908499Y-79620076D01*
X60278266Y-79619526D01*
X59695795Y-79860198D01*
X59321738Y-80233602D01*
X58950549Y-79861764D01*
X58368499Y-79620076D01*
X57738266Y-79619526D01*
X57155795Y-79860198D01*
X56709764Y-80305451D01*
X56468076Y-80887501D01*
X56467526Y-81517734D01*
X56708198Y-82100205D01*
X57081602Y-82474262D01*
X56781738Y-82773602D01*
X56410549Y-82401764D01*
X55828499Y-82160076D01*
X55198266Y-82159526D01*
X54615795Y-82400198D01*
X54241738Y-82773602D01*
X53870549Y-82401764D01*
X53288499Y-82160076D01*
X52658266Y-82159526D01*
X52075795Y-82400198D01*
X51701738Y-82773602D01*
X51330549Y-82401764D01*
X50748499Y-82160076D01*
X50118266Y-82159526D01*
X49535795Y-82400198D01*
X49161738Y-82773602D01*
X48790549Y-82401764D01*
X48208499Y-82160076D01*
X47578266Y-82159526D01*
X46995795Y-82400198D01*
X46621738Y-82773602D01*
X46250549Y-82401764D01*
X45668499Y-82160076D01*
X45038266Y-82159526D01*
X44455795Y-82400198D01*
X44081738Y-82773602D01*
X43710549Y-82401764D01*
X43128499Y-82160076D01*
X42498266Y-82159526D01*
X41915795Y-82400198D01*
X41541738Y-82773602D01*
X41170549Y-82401764D01*
X40588499Y-82160076D01*
X39958266Y-82159526D01*
X39375795Y-82400198D01*
X39001738Y-82773602D01*
X38702398Y-82473738D01*
X39074236Y-82102549D01*
X39315924Y-81520499D01*
X39316474Y-80890266D01*
X39075802Y-80307795D01*
X38702398Y-79933738D01*
X39074236Y-79562549D01*
X39315924Y-78980499D01*
X39316474Y-78350266D01*
X39075802Y-77767795D01*
X38630549Y-77321764D01*
X38048499Y-77080076D01*
X37418266Y-77079526D01*
X36835795Y-77320198D01*
X36389764Y-77765451D01*
X36148076Y-78347501D01*
X36147526Y-78977734D01*
X36388198Y-79560205D01*
X36761602Y-79934262D01*
X36389764Y-80305451D01*
X36148076Y-80887501D01*
X36147526Y-81517734D01*
X36388198Y-82100205D01*
X36761602Y-82474262D01*
X36389764Y-82845451D01*
X36148076Y-83427501D01*
X36147526Y-84057734D01*
X36388198Y-84640205D01*
X36833451Y-85086236D01*
X37321280Y-85288800D01*
X35711200Y-85288800D01*
X35711200Y-68817734D01*
X36147526Y-68817734D01*
X36388198Y-69400205D01*
X36761602Y-69774262D01*
X36389764Y-70145451D01*
X36148076Y-70727501D01*
X36147526Y-71357734D01*
X36388198Y-71940205D01*
X36761602Y-72314262D01*
X36389764Y-72685451D01*
X36148076Y-73267501D01*
X36147526Y-73897734D01*
X36388198Y-74480205D01*
X36833451Y-74926236D01*
X37415501Y-75167924D01*
X38045734Y-75168474D01*
X38628205Y-74927802D01*
X39074236Y-74482549D01*
X39315924Y-73900499D01*
X39316474Y-73270266D01*
X39075802Y-72687795D01*
X38702398Y-72313738D01*
X39074236Y-71942549D01*
X39315924Y-71360499D01*
X39316474Y-70730266D01*
X39075802Y-70147795D01*
X38702398Y-69773738D01*
X39002262Y-69474398D01*
X39373451Y-69846236D01*
X39955501Y-70087924D01*
X40585734Y-70088474D01*
X41168205Y-69847802D01*
X41542262Y-69474398D01*
X41913451Y-69846236D01*
X42495501Y-70087924D01*
X43125734Y-70088474D01*
X43708205Y-69847802D01*
X44082262Y-69474398D01*
X44453451Y-69846236D01*
X45035501Y-70087924D01*
X45665734Y-70088474D01*
X46248205Y-69847802D01*
X46622262Y-69474398D01*
X46993451Y-69846236D01*
X47575501Y-70087924D01*
X48205734Y-70088474D01*
X48788205Y-69847802D01*
X49162262Y-69474398D01*
X49533451Y-69846236D01*
X50115501Y-70087924D01*
X50745734Y-70088474D01*
X51328205Y-69847802D01*
X51702262Y-69474398D01*
X52073451Y-69846236D01*
X52655501Y-70087924D01*
X53285734Y-70088474D01*
X53868205Y-69847802D01*
X54242262Y-69474398D01*
X54613451Y-69846236D01*
X55195501Y-70087924D01*
X55825734Y-70088474D01*
X56408205Y-69847802D01*
X56782262Y-69474398D01*
X57153451Y-69846236D01*
X57735501Y-70087924D01*
X58365734Y-70088474D01*
X58948205Y-69847802D01*
X59322262Y-69474398D01*
X59693451Y-69846236D01*
X60275501Y-70087924D01*
X60905734Y-70088474D01*
X61488205Y-69847802D01*
X61862262Y-69474398D01*
X62233451Y-69846236D01*
X62815501Y-70087924D01*
X63445734Y-70088474D01*
X64028205Y-69847802D01*
X64402262Y-69474398D01*
X64773451Y-69846236D01*
X65355501Y-70087924D01*
X65985734Y-70088474D01*
X66568205Y-69847802D01*
X66942262Y-69474398D01*
X67313451Y-69846236D01*
X67895501Y-70087924D01*
X68525734Y-70088474D01*
X69108205Y-69847802D01*
X69554236Y-69402549D01*
X69795924Y-68820499D01*
X69796463Y-68202148D01*
X74950633Y-68202148D01*
X75097266Y-68557027D01*
X75368544Y-68828779D01*
X75723168Y-68976032D01*
X76107148Y-68976367D01*
X76462027Y-68829734D01*
X76569749Y-68722200D01*
X89283186Y-68722200D01*
X89409544Y-68848779D01*
X89764168Y-68996032D01*
X90148148Y-68996367D01*
X90503027Y-68849734D01*
X90774779Y-68578456D01*
X90922032Y-68223832D01*
X90922367Y-67839852D01*
X90775734Y-67484973D01*
X90504456Y-67213221D01*
X90149832Y-67065968D01*
X89765852Y-67065633D01*
X89410973Y-67212266D01*
X89323286Y-67299800D01*
X76569849Y-67299800D01*
X76463456Y-67193221D01*
X76108832Y-67045968D01*
X75724852Y-67045633D01*
X75369973Y-67192266D01*
X75098221Y-67463544D01*
X74950968Y-67818168D01*
X74950633Y-68202148D01*
X69796463Y-68202148D01*
X69796474Y-68190266D01*
X69555802Y-67607795D01*
X69110549Y-67161764D01*
X68528499Y-66920076D01*
X67898266Y-66919526D01*
X67315795Y-67160198D01*
X66941738Y-67533602D01*
X66570549Y-67161764D01*
X65988499Y-66920076D01*
X65358266Y-66919526D01*
X64775795Y-67160198D01*
X64401738Y-67533602D01*
X64030549Y-67161764D01*
X63448499Y-66920076D01*
X62818266Y-66919526D01*
X62235795Y-67160198D01*
X61861738Y-67533602D01*
X61490549Y-67161764D01*
X60908499Y-66920076D01*
X60278266Y-66919526D01*
X59695795Y-67160198D01*
X59321738Y-67533602D01*
X58950549Y-67161764D01*
X58368499Y-66920076D01*
X57738266Y-66919526D01*
X57155795Y-67160198D01*
X56781738Y-67533602D01*
X56410549Y-67161764D01*
X55828499Y-66920076D01*
X55198266Y-66919526D01*
X54615795Y-67160198D01*
X54241738Y-67533602D01*
X53870549Y-67161764D01*
X53288499Y-66920076D01*
X52658266Y-66919526D01*
X52075795Y-67160198D01*
X51701738Y-67533602D01*
X51330549Y-67161764D01*
X50748499Y-66920076D01*
X50118266Y-66919526D01*
X49535795Y-67160198D01*
X49161738Y-67533602D01*
X48790549Y-67161764D01*
X48208499Y-66920076D01*
X47578266Y-66919526D01*
X46995795Y-67160198D01*
X46621738Y-67533602D01*
X46250549Y-67161764D01*
X45668499Y-66920076D01*
X45038266Y-66919526D01*
X44455795Y-67160198D01*
X44081738Y-67533602D01*
X43710549Y-67161764D01*
X43128499Y-66920076D01*
X42498266Y-66919526D01*
X41915795Y-67160198D01*
X41541738Y-67533602D01*
X41170549Y-67161764D01*
X40588499Y-66920076D01*
X39958266Y-66919526D01*
X39375795Y-67160198D01*
X39001738Y-67533602D01*
X38630549Y-67161764D01*
X38444977Y-67084708D01*
X38643205Y-67002802D01*
X38734017Y-66912148D01*
X95930633Y-66912148D01*
X96077266Y-67267027D01*
X96348544Y-67538779D01*
X96703168Y-67686032D01*
X97087148Y-67686367D01*
X97442027Y-67539734D01*
X97549749Y-67432200D01*
X100341151Y-67432200D01*
X100447544Y-67538779D01*
X100802168Y-67686032D01*
X101186148Y-67686367D01*
X101541027Y-67539734D01*
X101812779Y-67268456D01*
X101960032Y-66913832D01*
X101960367Y-66529852D01*
X101813734Y-66174973D01*
X101542456Y-65903221D01*
X101187832Y-65755968D01*
X100803852Y-65755633D01*
X100448973Y-65902266D01*
X100341251Y-66009800D01*
X97549849Y-66009800D01*
X97443456Y-65903221D01*
X97088832Y-65755968D01*
X96704852Y-65755633D01*
X96349973Y-65902266D01*
X96078221Y-66173544D01*
X95930968Y-66528168D01*
X95930633Y-66912148D01*
X38734017Y-66912148D01*
X39089236Y-66557549D01*
X39330924Y-65975499D01*
X39331108Y-65764148D01*
X87507633Y-65764148D01*
X87654266Y-66119027D01*
X87925544Y-66390779D01*
X88280168Y-66538032D01*
X88664148Y-66538367D01*
X89019027Y-66391734D01*
X89031873Y-66378911D01*
X89144544Y-66491779D01*
X89499168Y-66639032D01*
X89883148Y-66639367D01*
X90238027Y-66492734D01*
X90509779Y-66221456D01*
X90657032Y-65866832D01*
X90657367Y-65482852D01*
X90510734Y-65127973D01*
X90403200Y-65020251D01*
X90403200Y-64221588D01*
X91835588Y-62789200D01*
X101813412Y-62789200D01*
X103499764Y-64475553D01*
X103499633Y-64626148D01*
X103646266Y-64981027D01*
X103917544Y-65252779D01*
X104272168Y-65400032D01*
X104656148Y-65400367D01*
X105011027Y-65253734D01*
X105282779Y-64982456D01*
X105430032Y-64627832D01*
X105430367Y-64243852D01*
X105283734Y-63888973D01*
X105012456Y-63617221D01*
X104657832Y-63469968D01*
X104505624Y-63469835D01*
X102610894Y-61575106D01*
X102542191Y-61529200D01*
X104990151Y-61529200D01*
X105096544Y-61635779D01*
X105451168Y-61783032D01*
X105835148Y-61783367D01*
X106190027Y-61636734D01*
X106461779Y-61365456D01*
X106609032Y-61010832D01*
X106609367Y-60626852D01*
X106462734Y-60271973D01*
X106191456Y-60000221D01*
X105836832Y-59852968D01*
X105452852Y-59852633D01*
X105097973Y-59999266D01*
X104990251Y-60106800D01*
X90403000Y-60106800D01*
X90130836Y-60160937D01*
X90130834Y-60160938D01*
X90130835Y-60160938D01*
X89900105Y-60315106D01*
X87950106Y-62265106D01*
X87795937Y-62495835D01*
X87795937Y-62495836D01*
X87741800Y-62768000D01*
X87741800Y-64939116D01*
X87655221Y-65025544D01*
X87507968Y-65380168D01*
X87507633Y-65764148D01*
X39331108Y-65764148D01*
X39331474Y-65345266D01*
X39090802Y-64762795D01*
X38645549Y-64316764D01*
X38063499Y-64075076D01*
X37433266Y-64074526D01*
X36850795Y-64315198D01*
X36404764Y-64760451D01*
X36163076Y-65342501D01*
X36162526Y-65972734D01*
X36403198Y-66555205D01*
X36848451Y-67001236D01*
X37034023Y-67078292D01*
X36835795Y-67160198D01*
X36389764Y-67605451D01*
X36148076Y-68187501D01*
X36147526Y-68817734D01*
X35711200Y-68817734D01*
X35711200Y-59563734D01*
X36215526Y-59563734D01*
X36456198Y-60146205D01*
X36901451Y-60592236D01*
X37483501Y-60833924D01*
X38113734Y-60834474D01*
X38696205Y-60593802D01*
X39142236Y-60148549D01*
X39383924Y-59566499D01*
X39384474Y-58936266D01*
X39143802Y-58353795D01*
X38698549Y-57907764D01*
X38116499Y-57666076D01*
X37486266Y-57665526D01*
X36903795Y-57906198D01*
X36457764Y-58351451D01*
X36216076Y-58933501D01*
X36215526Y-59563734D01*
X35711200Y-59563734D01*
X35711200Y-56954029D01*
X42623551Y-56954029D01*
X42841435Y-57481348D01*
X43244530Y-57885147D01*
X43376303Y-57939864D01*
X43246652Y-57993435D01*
X42842853Y-58396530D01*
X42624049Y-58923468D01*
X42623551Y-59494029D01*
X42841435Y-60021348D01*
X43244530Y-60425147D01*
X43376303Y-60479864D01*
X43246652Y-60533435D01*
X42842853Y-60936530D01*
X42624049Y-61463468D01*
X42623551Y-62034029D01*
X42841435Y-62561348D01*
X43244530Y-62965147D01*
X43771468Y-63183951D01*
X44342029Y-63184449D01*
X44869348Y-62966565D01*
X45273147Y-62563470D01*
X45491951Y-62036532D01*
X45492449Y-61465971D01*
X45274565Y-60938652D01*
X44871470Y-60534853D01*
X44739697Y-60480136D01*
X44869348Y-60426565D01*
X45273147Y-60023470D01*
X45491951Y-59496532D01*
X45492449Y-58925971D01*
X45274565Y-58398652D01*
X44871470Y-57994853D01*
X44739697Y-57940136D01*
X44869348Y-57886565D01*
X45273147Y-57483470D01*
X45333849Y-57337283D01*
X64100574Y-57337283D01*
X64298708Y-57816805D01*
X64665265Y-58184002D01*
X65144440Y-58382973D01*
X65663283Y-58383426D01*
X66142805Y-58185292D01*
X66510002Y-57818735D01*
X66675161Y-57420989D01*
X66838708Y-57816805D01*
X67205265Y-58184002D01*
X67684440Y-58382973D01*
X68203283Y-58383426D01*
X68682805Y-58185292D01*
X69050002Y-57818735D01*
X69215161Y-57420989D01*
X69378708Y-57816805D01*
X69745265Y-58184002D01*
X70224440Y-58382973D01*
X70743283Y-58383426D01*
X71222805Y-58185292D01*
X71590002Y-57818735D01*
X71788973Y-57339560D01*
X71789426Y-56820717D01*
X71591292Y-56341195D01*
X71224735Y-55973998D01*
X70801523Y-55798265D01*
X72143203Y-54456585D01*
X72175443Y-54469972D01*
X72698264Y-54470428D01*
X73181462Y-54270774D01*
X73551475Y-53901407D01*
X73708138Y-53524121D01*
X73863226Y-53899462D01*
X74232593Y-54269475D01*
X74715443Y-54469972D01*
X75238264Y-54470428D01*
X75272496Y-54456284D01*
X79916106Y-59099894D01*
X80146835Y-59254063D01*
X80419000Y-59308200D01*
X112355355Y-59308200D01*
X112355355Y-59347000D01*
X112396091Y-59563492D01*
X112524037Y-59762326D01*
X112648551Y-59847403D01*
X112535674Y-59920037D01*
X112402283Y-60115261D01*
X112355355Y-60347000D01*
X112355355Y-61847000D01*
X112396091Y-62063492D01*
X112524037Y-62262326D01*
X112719261Y-62395717D01*
X112864800Y-62425189D01*
X112864800Y-63468200D01*
X112730221Y-63602544D01*
X112582968Y-63957168D01*
X112582633Y-64341148D01*
X112729266Y-64696027D01*
X113000544Y-64967779D01*
X113355168Y-65115032D01*
X113739148Y-65115367D01*
X114094027Y-64968734D01*
X114365779Y-64697456D01*
X114513032Y-64342832D01*
X114513367Y-63958852D01*
X114366734Y-63603973D01*
X114287200Y-63524300D01*
X114287200Y-62426425D01*
X114417492Y-62401909D01*
X114616326Y-62273963D01*
X114749717Y-62078739D01*
X114796645Y-61847000D01*
X114796645Y-60347000D01*
X114755909Y-60130508D01*
X114627963Y-59931674D01*
X114503449Y-59846597D01*
X114616326Y-59773963D01*
X114749717Y-59578739D01*
X114796645Y-59347000D01*
X114796645Y-57847000D01*
X114755909Y-57630508D01*
X114627963Y-57431674D01*
X114432739Y-57298283D01*
X114201000Y-57251355D01*
X112951000Y-57251355D01*
X112734508Y-57292091D01*
X112535674Y-57420037D01*
X112402283Y-57615261D01*
X112355355Y-57847000D01*
X112355355Y-57885800D01*
X80713588Y-57885800D01*
X77297797Y-54470009D01*
X77778264Y-54470428D01*
X78261462Y-54270774D01*
X78631475Y-53901407D01*
X78788138Y-53524121D01*
X78943226Y-53899462D01*
X79312593Y-54269475D01*
X79795443Y-54469972D01*
X80318264Y-54470428D01*
X80801462Y-54270774D01*
X81171475Y-53901407D01*
X81328138Y-53524121D01*
X81483226Y-53899462D01*
X81852593Y-54269475D01*
X82335443Y-54469972D01*
X82858264Y-54470428D01*
X83341462Y-54270774D01*
X83711475Y-53901407D01*
X83868138Y-53524121D01*
X84023226Y-53899462D01*
X84392593Y-54269475D01*
X84875443Y-54469972D01*
X85398264Y-54470428D01*
X85881462Y-54270774D01*
X86251475Y-53901407D01*
X86451972Y-53418557D01*
X86452428Y-52895736D01*
X86252774Y-52412538D01*
X85883407Y-52042525D01*
X85400557Y-51842028D01*
X84877736Y-51841572D01*
X84394538Y-52041226D01*
X84024525Y-52410593D01*
X83867862Y-52787879D01*
X83712774Y-52412538D01*
X83343407Y-52042525D01*
X82860557Y-51842028D01*
X82337736Y-51841572D01*
X81854538Y-52041226D01*
X81484525Y-52410593D01*
X81327862Y-52787879D01*
X81172774Y-52412538D01*
X80803407Y-52042525D01*
X80320557Y-51842028D01*
X79797736Y-51841572D01*
X79314538Y-52041226D01*
X78944525Y-52410593D01*
X78787862Y-52787879D01*
X78632774Y-52412538D01*
X78263407Y-52042525D01*
X77780557Y-51842028D01*
X77257736Y-51841572D01*
X76774538Y-52041226D01*
X76404525Y-52410593D01*
X76247862Y-52787879D01*
X76092774Y-52412538D01*
X75723407Y-52042525D01*
X75240557Y-51842028D01*
X74717736Y-51841572D01*
X74234538Y-52041226D01*
X73864525Y-52410593D01*
X73707862Y-52787879D01*
X73552774Y-52412538D01*
X73183407Y-52042525D01*
X72700557Y-51842028D01*
X72177736Y-51841572D01*
X71694538Y-52041226D01*
X71324525Y-52410593D01*
X71167862Y-52787879D01*
X71012774Y-52412538D01*
X70643407Y-52042525D01*
X70160557Y-51842028D01*
X69637736Y-51841572D01*
X69154538Y-52041226D01*
X68784525Y-52410593D01*
X68770321Y-52444800D01*
X66696645Y-52444800D01*
X66696645Y-52436000D01*
X66655909Y-52219508D01*
X66527963Y-52020674D01*
X66332739Y-51887283D01*
X66101000Y-51840355D01*
X64801000Y-51840355D01*
X64584508Y-51881091D01*
X64385674Y-52009037D01*
X64252283Y-52204261D01*
X64205355Y-52436000D01*
X64205355Y-53936000D01*
X64246091Y-54152492D01*
X64374037Y-54351326D01*
X64569261Y-54484717D01*
X64693800Y-54509937D01*
X64693800Y-55961715D01*
X64667195Y-55972708D01*
X64299998Y-56339265D01*
X64101027Y-56818440D01*
X64100574Y-57337283D01*
X45333849Y-57337283D01*
X45491951Y-56956532D01*
X45492449Y-56385971D01*
X45274565Y-55858652D01*
X44871470Y-55454853D01*
X44344532Y-55236049D01*
X43773971Y-55235551D01*
X43246652Y-55453435D01*
X42842853Y-55856530D01*
X42624049Y-56383468D01*
X42623551Y-56954029D01*
X35711200Y-56954029D01*
X35711200Y-48879283D01*
X43709574Y-48879283D01*
X43907708Y-49358805D01*
X44274265Y-49726002D01*
X44753440Y-49924973D01*
X45272283Y-49925426D01*
X45751805Y-49727292D01*
X46119002Y-49360735D01*
X46317973Y-48881560D01*
X46317974Y-48879283D01*
X48789574Y-48879283D01*
X48987708Y-49358805D01*
X49354265Y-49726002D01*
X49833440Y-49924973D01*
X50352283Y-49925426D01*
X50831805Y-49727292D01*
X51199002Y-49360735D01*
X51397973Y-48881560D01*
X51398426Y-48362717D01*
X51200292Y-47883195D01*
X50833735Y-47515998D01*
X50354560Y-47317027D01*
X49835717Y-47316574D01*
X49356195Y-47514708D01*
X48988998Y-47881265D01*
X48790027Y-48360440D01*
X48789574Y-48879283D01*
X46317974Y-48879283D01*
X46318426Y-48362717D01*
X46120292Y-47883195D01*
X45753735Y-47515998D01*
X45274560Y-47317027D01*
X44755717Y-47316574D01*
X44276195Y-47514708D01*
X43908998Y-47881265D01*
X43710027Y-48360440D01*
X43709574Y-48879283D01*
X35711200Y-48879283D01*
X35711200Y-47267205D01*
X55787568Y-47267205D01*
X55991779Y-47761433D01*
X56369578Y-48139892D01*
X56863449Y-48344966D01*
X57398205Y-48345432D01*
X57892433Y-48141221D01*
X58270892Y-47763422D01*
X58402070Y-47447513D01*
X58531779Y-47761433D01*
X58909578Y-48139892D01*
X59403449Y-48344966D01*
X59938205Y-48345432D01*
X60432433Y-48141221D01*
X60810892Y-47763422D01*
X61015966Y-47269551D01*
X61016432Y-46734795D01*
X60812221Y-46240567D01*
X60434422Y-45862108D01*
X59940551Y-45657034D01*
X59405795Y-45656568D01*
X58911567Y-45860779D01*
X58533108Y-46238578D01*
X58401930Y-46554487D01*
X58272221Y-46240567D01*
X57894422Y-45862108D01*
X57400551Y-45657034D01*
X56865795Y-45656568D01*
X56371567Y-45860779D01*
X55993108Y-46238578D01*
X55788034Y-46732449D01*
X55787568Y-47267205D01*
X35711200Y-47267205D01*
X35711200Y-37770000D01*
X61403355Y-37770000D01*
X61403355Y-39070000D01*
X61444091Y-39286492D01*
X61572037Y-39485326D01*
X61684300Y-39562032D01*
X61684300Y-40814995D01*
X61684299Y-40815000D01*
X61765345Y-41222443D01*
X61996143Y-41567857D01*
X61998143Y-41569856D01*
X62343556Y-41800655D01*
X62751000Y-41881700D01*
X63158443Y-41800655D01*
X63503856Y-41569856D01*
X63734655Y-41224443D01*
X63815700Y-40817000D01*
X63813700Y-40806945D01*
X63813700Y-39561714D01*
X63914326Y-39496963D01*
X64047717Y-39301739D01*
X64094645Y-39070000D01*
X64094645Y-37770000D01*
X64053909Y-37553508D01*
X63925963Y-37354674D01*
X63730739Y-37221283D01*
X63499000Y-37174355D01*
X61999000Y-37174355D01*
X61782508Y-37215091D01*
X61583674Y-37343037D01*
X61450283Y-37538261D01*
X61403355Y-37770000D01*
X35711200Y-37770000D01*
X35711200Y-31711200D01*
X66503893Y-31711200D01*
X66473355Y-31862000D01*
X66473355Y-31862000D01*
G37*
X66473355Y-31862000D02*
X66473355Y-33162000D01*
X66514091Y-33378492D01*
X66642037Y-33577326D01*
X66757120Y-33655959D01*
X66632674Y-33736037D01*
X66547597Y-33860551D01*
X66474963Y-33747674D01*
X66279739Y-33614283D01*
X66048000Y-33567355D01*
X64548000Y-33567355D01*
X64331508Y-33608091D01*
X64132674Y-33736037D01*
X63999283Y-33931261D01*
X63952355Y-34163000D01*
X63952355Y-35413000D01*
X63993091Y-35629492D01*
X64121037Y-35828326D01*
X64316261Y-35961717D01*
X64548000Y-36008645D01*
X64737800Y-36008645D01*
X64737800Y-37174355D01*
X64699000Y-37174355D01*
X64482508Y-37215091D01*
X64283674Y-37343037D01*
X64150283Y-37538261D01*
X64103355Y-37770000D01*
X64103355Y-39070000D01*
X64144091Y-39286492D01*
X64272037Y-39485326D01*
X64467261Y-39618717D01*
X64699000Y-39665645D01*
X64739800Y-39665645D01*
X64739800Y-49151871D01*
X64584508Y-49181091D01*
X64385674Y-49309037D01*
X64252283Y-49504261D01*
X64205355Y-49736000D01*
X64205355Y-51236000D01*
X64246091Y-51452492D01*
X64374037Y-51651326D01*
X64569261Y-51784717D01*
X64801000Y-51831645D01*
X66101000Y-51831645D01*
X66317492Y-51790909D01*
X66516326Y-51662963D01*
X66649717Y-51467739D01*
X66696645Y-51236000D01*
X66696645Y-51227200D01*
X70995871Y-51227200D01*
X71025091Y-51382492D01*
X71153037Y-51581326D01*
X71348261Y-51714717D01*
X71580000Y-51761645D01*
X73080000Y-51761645D01*
X73296492Y-51720909D01*
X73495326Y-51592963D01*
X73628717Y-51397739D01*
X73675645Y-51166000D01*
X73675645Y-49866000D01*
X73634909Y-49649508D01*
X73506963Y-49450674D01*
X73311739Y-49317283D01*
X73080000Y-49270355D01*
X71580000Y-49270355D01*
X71363508Y-49311091D01*
X71164674Y-49439037D01*
X71031283Y-49634261D01*
X70996748Y-49804800D01*
X66696645Y-49804800D01*
X66696645Y-49736000D01*
X66655909Y-49519508D01*
X66527963Y-49320674D01*
X66332739Y-49187283D01*
X66162200Y-49152748D01*
X66162200Y-39665645D01*
X66199000Y-39665645D01*
X66415492Y-39624909D01*
X66614326Y-39496963D01*
X66747717Y-39301739D01*
X66794645Y-39070000D01*
X66794645Y-37770000D01*
X66753909Y-37553508D01*
X66625963Y-37354674D01*
X66430739Y-37221283D01*
X66199000Y-37174355D01*
X66160200Y-37174355D01*
X66160200Y-35987533D01*
X66264492Y-35967909D01*
X66463326Y-35839963D01*
X66548403Y-35715449D01*
X66621037Y-35828326D01*
X66816261Y-35961717D01*
X67048000Y-36008645D01*
X67086800Y-36008645D01*
X67086800Y-43296000D01*
X67140937Y-43568165D01*
X67295106Y-43798894D01*
X68597415Y-45101204D01*
X68584028Y-45133443D01*
X68583572Y-45656264D01*
X68783226Y-46139462D01*
X69152593Y-46509475D01*
X69635443Y-46709972D01*
X70158264Y-46710428D01*
X70641462Y-46510774D01*
X71011475Y-46141407D01*
X71168138Y-45764121D01*
X71323226Y-46139462D01*
X71692593Y-46509475D01*
X72175443Y-46709972D01*
X72698264Y-46710428D01*
X73181462Y-46510774D01*
X73551475Y-46141407D01*
X73708138Y-45764121D01*
X73863226Y-46139462D01*
X74232593Y-46509475D01*
X74318800Y-46545271D01*
X74318800Y-49270355D01*
X74280000Y-49270355D01*
X74063508Y-49311091D01*
X73864674Y-49439037D01*
X73731283Y-49634261D01*
X73684355Y-49866000D01*
X73684355Y-51166000D01*
X73725091Y-51382492D01*
X73853037Y-51581326D01*
X74048261Y-51714717D01*
X74280000Y-51761645D01*
X75780000Y-51761645D01*
X75996492Y-51720909D01*
X76195326Y-51592963D01*
X76328717Y-51397739D01*
X76375645Y-51166000D01*
X76375645Y-49866000D01*
X76334909Y-49649508D01*
X76206963Y-49450674D01*
X76011739Y-49317283D01*
X75780000Y-49270355D01*
X75741200Y-49270355D01*
X75741200Y-46491070D01*
X76091475Y-46141407D01*
X76291972Y-45658557D01*
X76291973Y-45656264D01*
X78743572Y-45656264D01*
X78943226Y-46139462D01*
X79312593Y-46509475D01*
X79795443Y-46709972D01*
X80318264Y-46710428D01*
X80801462Y-46510774D01*
X81171475Y-46141407D01*
X81328138Y-45764121D01*
X81483226Y-46139462D01*
X81852593Y-46509475D01*
X82335443Y-46709972D01*
X82858264Y-46710428D01*
X83341462Y-46510774D01*
X83711475Y-46141407D01*
X83868138Y-45764121D01*
X84023226Y-46139462D01*
X84392593Y-46509475D01*
X84875443Y-46709972D01*
X85398264Y-46710428D01*
X85881462Y-46510774D01*
X86251475Y-46141407D01*
X86451972Y-45658557D01*
X86452428Y-45135736D01*
X86252774Y-44652538D01*
X85883407Y-44282525D01*
X85849200Y-44268321D01*
X85849200Y-42903734D01*
X87745526Y-42903734D01*
X87986198Y-43486205D01*
X88431451Y-43932236D01*
X89013501Y-44173924D01*
X89643734Y-44174474D01*
X90226205Y-43933802D01*
X90672236Y-43488549D01*
X90913924Y-42906499D01*
X90914474Y-42276266D01*
X90673802Y-41693795D01*
X90228549Y-41247764D01*
X89646499Y-41006076D01*
X89016266Y-41005526D01*
X88433795Y-41246198D01*
X87987764Y-41691451D01*
X87746076Y-42273501D01*
X87745526Y-42903734D01*
X85849200Y-42903734D01*
X85849200Y-36503734D01*
X95423526Y-36503734D01*
X95664198Y-37086205D01*
X96109451Y-37532236D01*
X96691501Y-37773924D01*
X97321734Y-37774474D01*
X97904205Y-37533802D01*
X98350236Y-37088549D01*
X98591924Y-36506499D01*
X98592474Y-35876266D01*
X98351802Y-35293795D01*
X97906549Y-34847764D01*
X97324499Y-34606076D01*
X96694266Y-34605526D01*
X96111795Y-34846198D01*
X95665764Y-35291451D01*
X95424076Y-35873501D01*
X95423526Y-36503734D01*
X85849200Y-36503734D01*
X85849200Y-35293000D01*
X85795063Y-35020836D01*
X85740382Y-34939000D01*
X85640895Y-34790106D01*
X85382176Y-34531387D01*
X85382379Y-34298187D01*
X85225263Y-33917938D01*
X84934592Y-33626759D01*
X84554618Y-33468980D01*
X84143187Y-33468621D01*
X83762938Y-33625737D01*
X83471759Y-33916408D01*
X83313980Y-34296382D01*
X83313621Y-34707813D01*
X83470737Y-35088062D01*
X83761408Y-35379241D01*
X84141382Y-35537020D01*
X84376436Y-35537225D01*
X84426800Y-35587589D01*
X84426800Y-44267896D01*
X84394538Y-44281226D01*
X84024525Y-44650593D01*
X83867862Y-45027879D01*
X83712774Y-44652538D01*
X83343407Y-44282525D01*
X82860557Y-44082028D01*
X82337736Y-44081572D01*
X81854538Y-44281226D01*
X81484525Y-44650593D01*
X81327862Y-45027879D01*
X81172774Y-44652538D01*
X80803407Y-44282525D01*
X80769200Y-44268321D01*
X80769200Y-42867588D01*
X81942613Y-41694176D01*
X82175813Y-41694379D01*
X82556062Y-41537263D01*
X82847241Y-41246592D01*
X83005020Y-40866618D01*
X83005379Y-40455187D01*
X82848263Y-40074938D01*
X82557592Y-39783759D01*
X82177618Y-39625980D01*
X81766187Y-39625621D01*
X81385938Y-39782737D01*
X81094759Y-40073408D01*
X80936980Y-40453382D01*
X80936775Y-40688436D01*
X79555106Y-42070106D01*
X79400937Y-42300835D01*
X79381642Y-42397836D01*
X79346800Y-42573000D01*
X79346800Y-44267896D01*
X79314538Y-44281226D01*
X78944525Y-44650593D01*
X78744028Y-45133443D01*
X78743572Y-45656264D01*
X76291973Y-45656264D01*
X76292428Y-45135736D01*
X76092774Y-44652538D01*
X75723407Y-44282525D01*
X75689200Y-44268321D01*
X75689200Y-36021645D01*
X75777000Y-36021645D01*
X75993492Y-35980909D01*
X76192326Y-35852963D01*
X76325717Y-35657739D01*
X76372645Y-35426000D01*
X76372645Y-34176000D01*
X76331909Y-33959508D01*
X76203963Y-33760674D01*
X76008739Y-33627283D01*
X75777000Y-33580355D01*
X74277000Y-33580355D01*
X74060508Y-33621091D01*
X73861674Y-33749037D01*
X73776597Y-33873551D01*
X73703963Y-33760674D01*
X73508739Y-33627283D01*
X73277000Y-33580355D01*
X71777000Y-33580355D01*
X71664933Y-33601442D01*
X71684326Y-33588963D01*
X71817717Y-33393739D01*
X71864645Y-33162000D01*
X71864645Y-31862000D01*
X71836270Y-31711200D01*
X120288800Y-31711200D01*
X120288800Y-85288800D01*
X71161752Y-85288800D01*
X71648205Y-85087802D01*
X72094236Y-84642549D01*
X72335924Y-84060499D01*
X72336474Y-83430266D01*
X72095802Y-82847795D01*
X71650549Y-82401764D01*
X71068499Y-82160076D01*
X70438266Y-82159526D01*
X69855795Y-82400198D01*
X69481738Y-82773602D01*
X69182398Y-82473738D01*
X69554236Y-82102549D01*
X69795924Y-81520499D01*
X69796474Y-80890266D01*
X69555802Y-80307795D01*
X69110549Y-79861764D01*
X68528499Y-79620076D01*
X67898266Y-79619526D01*
X67315795Y-79860198D01*
X66869764Y-80305451D01*
X66628076Y-80887501D01*
X66627526Y-81517734D01*
X66868198Y-82100205D01*
X67241602Y-82474262D01*
X66941738Y-82773602D01*
X66570549Y-82401764D01*
X65988499Y-82160076D01*
X65358266Y-82159526D01*
X64775795Y-82400198D01*
X64401738Y-82773602D01*
X64102398Y-82473738D01*
X64474236Y-82102549D01*
X64715924Y-81520499D01*
X64716474Y-80890266D01*
X64475802Y-80307795D01*
X64030549Y-79861764D01*
X63448499Y-79620076D01*
X62818266Y-79619526D01*
X62235795Y-79860198D01*
X61861738Y-80233602D01*
X61490549Y-79861764D01*
X60908499Y-79620076D01*
X60278266Y-79619526D01*
X59695795Y-79860198D01*
X59321738Y-80233602D01*
X58950549Y-79861764D01*
X58368499Y-79620076D01*
X57738266Y-79619526D01*
X57155795Y-79860198D01*
X56709764Y-80305451D01*
X56468076Y-80887501D01*
X56467526Y-81517734D01*
X56708198Y-82100205D01*
X57081602Y-82474262D01*
X56781738Y-82773602D01*
X56410549Y-82401764D01*
X55828499Y-82160076D01*
X55198266Y-82159526D01*
X54615795Y-82400198D01*
X54241738Y-82773602D01*
X53870549Y-82401764D01*
X53288499Y-82160076D01*
X52658266Y-82159526D01*
X52075795Y-82400198D01*
X51701738Y-82773602D01*
X51330549Y-82401764D01*
X50748499Y-82160076D01*
X50118266Y-82159526D01*
X49535795Y-82400198D01*
X49161738Y-82773602D01*
X48790549Y-82401764D01*
X48208499Y-82160076D01*
X47578266Y-82159526D01*
X46995795Y-82400198D01*
X46621738Y-82773602D01*
X46250549Y-82401764D01*
X45668499Y-82160076D01*
X45038266Y-82159526D01*
X44455795Y-82400198D01*
X44081738Y-82773602D01*
X43710549Y-82401764D01*
X43128499Y-82160076D01*
X42498266Y-82159526D01*
X41915795Y-82400198D01*
X41541738Y-82773602D01*
X41170549Y-82401764D01*
X40588499Y-82160076D01*
X39958266Y-82159526D01*
X39375795Y-82400198D01*
X39001738Y-82773602D01*
X38702398Y-82473738D01*
X39074236Y-82102549D01*
X39315924Y-81520499D01*
X39316474Y-80890266D01*
X39075802Y-80307795D01*
X38702398Y-79933738D01*
X39074236Y-79562549D01*
X39315924Y-78980499D01*
X39316474Y-78350266D01*
X39075802Y-77767795D01*
X38630549Y-77321764D01*
X38048499Y-77080076D01*
X37418266Y-77079526D01*
X36835795Y-77320198D01*
X36389764Y-77765451D01*
X36148076Y-78347501D01*
X36147526Y-78977734D01*
X36388198Y-79560205D01*
X36761602Y-79934262D01*
X36389764Y-80305451D01*
X36148076Y-80887501D01*
X36147526Y-81517734D01*
X36388198Y-82100205D01*
X36761602Y-82474262D01*
X36389764Y-82845451D01*
X36148076Y-83427501D01*
X36147526Y-84057734D01*
X36388198Y-84640205D01*
X36833451Y-85086236D01*
X37321280Y-85288800D01*
X35711200Y-85288800D01*
X35711200Y-68817734D01*
X36147526Y-68817734D01*
X36388198Y-69400205D01*
X36761602Y-69774262D01*
X36389764Y-70145451D01*
X36148076Y-70727501D01*
X36147526Y-71357734D01*
X36388198Y-71940205D01*
X36761602Y-72314262D01*
X36389764Y-72685451D01*
X36148076Y-73267501D01*
X36147526Y-73897734D01*
X36388198Y-74480205D01*
X36833451Y-74926236D01*
X37415501Y-75167924D01*
X38045734Y-75168474D01*
X38628205Y-74927802D01*
X39074236Y-74482549D01*
X39315924Y-73900499D01*
X39316474Y-73270266D01*
X39075802Y-72687795D01*
X38702398Y-72313738D01*
X39074236Y-71942549D01*
X39315924Y-71360499D01*
X39316474Y-70730266D01*
X39075802Y-70147795D01*
X38702398Y-69773738D01*
X39002262Y-69474398D01*
X39373451Y-69846236D01*
X39955501Y-70087924D01*
X40585734Y-70088474D01*
X41168205Y-69847802D01*
X41542262Y-69474398D01*
X41913451Y-69846236D01*
X42495501Y-70087924D01*
X43125734Y-70088474D01*
X43708205Y-69847802D01*
X44082262Y-69474398D01*
X44453451Y-69846236D01*
X45035501Y-70087924D01*
X45665734Y-70088474D01*
X46248205Y-69847802D01*
X46622262Y-69474398D01*
X46993451Y-69846236D01*
X47575501Y-70087924D01*
X48205734Y-70088474D01*
X48788205Y-69847802D01*
X49162262Y-69474398D01*
X49533451Y-69846236D01*
X50115501Y-70087924D01*
X50745734Y-70088474D01*
X51328205Y-69847802D01*
X51702262Y-69474398D01*
X52073451Y-69846236D01*
X52655501Y-70087924D01*
X53285734Y-70088474D01*
X53868205Y-69847802D01*
X54242262Y-69474398D01*
X54613451Y-69846236D01*
X55195501Y-70087924D01*
X55825734Y-70088474D01*
X56408205Y-69847802D01*
X56782262Y-69474398D01*
X57153451Y-69846236D01*
X57735501Y-70087924D01*
X58365734Y-70088474D01*
X58948205Y-69847802D01*
X59322262Y-69474398D01*
X59693451Y-69846236D01*
X60275501Y-70087924D01*
X60905734Y-70088474D01*
X61488205Y-69847802D01*
X61862262Y-69474398D01*
X62233451Y-69846236D01*
X62815501Y-70087924D01*
X63445734Y-70088474D01*
X64028205Y-69847802D01*
X64402262Y-69474398D01*
X64773451Y-69846236D01*
X65355501Y-70087924D01*
X65985734Y-70088474D01*
X66568205Y-69847802D01*
X66942262Y-69474398D01*
X67313451Y-69846236D01*
X67895501Y-70087924D01*
X68525734Y-70088474D01*
X69108205Y-69847802D01*
X69554236Y-69402549D01*
X69795924Y-68820499D01*
X69796463Y-68202148D01*
X74950633Y-68202148D01*
X75097266Y-68557027D01*
X75368544Y-68828779D01*
X75723168Y-68976032D01*
X76107148Y-68976367D01*
X76462027Y-68829734D01*
X76569749Y-68722200D01*
X89283186Y-68722200D01*
X89409544Y-68848779D01*
X89764168Y-68996032D01*
X90148148Y-68996367D01*
X90503027Y-68849734D01*
X90774779Y-68578456D01*
X90922032Y-68223832D01*
X90922367Y-67839852D01*
X90775734Y-67484973D01*
X90504456Y-67213221D01*
X90149832Y-67065968D01*
X89765852Y-67065633D01*
X89410973Y-67212266D01*
X89323286Y-67299800D01*
X76569849Y-67299800D01*
X76463456Y-67193221D01*
X76108832Y-67045968D01*
X75724852Y-67045633D01*
X75369973Y-67192266D01*
X75098221Y-67463544D01*
X74950968Y-67818168D01*
X74950633Y-68202148D01*
X69796463Y-68202148D01*
X69796474Y-68190266D01*
X69555802Y-67607795D01*
X69110549Y-67161764D01*
X68528499Y-66920076D01*
X67898266Y-66919526D01*
X67315795Y-67160198D01*
X66941738Y-67533602D01*
X66570549Y-67161764D01*
X65988499Y-66920076D01*
X65358266Y-66919526D01*
X64775795Y-67160198D01*
X64401738Y-67533602D01*
X64030549Y-67161764D01*
X63448499Y-66920076D01*
X62818266Y-66919526D01*
X62235795Y-67160198D01*
X61861738Y-67533602D01*
X61490549Y-67161764D01*
X60908499Y-66920076D01*
X60278266Y-66919526D01*
X59695795Y-67160198D01*
X59321738Y-67533602D01*
X58950549Y-67161764D01*
X58368499Y-66920076D01*
X57738266Y-66919526D01*
X57155795Y-67160198D01*
X56781738Y-67533602D01*
X56410549Y-67161764D01*
X55828499Y-66920076D01*
X55198266Y-66919526D01*
X54615795Y-67160198D01*
X54241738Y-67533602D01*
X53870549Y-67161764D01*
X53288499Y-66920076D01*
X52658266Y-66919526D01*
X52075795Y-67160198D01*
X51701738Y-67533602D01*
X51330549Y-67161764D01*
X50748499Y-66920076D01*
X50118266Y-66919526D01*
X49535795Y-67160198D01*
X49161738Y-67533602D01*
X48790549Y-67161764D01*
X48208499Y-66920076D01*
X47578266Y-66919526D01*
X46995795Y-67160198D01*
X46621738Y-67533602D01*
X46250549Y-67161764D01*
X45668499Y-66920076D01*
X45038266Y-66919526D01*
X44455795Y-67160198D01*
X44081738Y-67533602D01*
X43710549Y-67161764D01*
X43128499Y-66920076D01*
X42498266Y-66919526D01*
X41915795Y-67160198D01*
X41541738Y-67533602D01*
X41170549Y-67161764D01*
X40588499Y-66920076D01*
X39958266Y-66919526D01*
X39375795Y-67160198D01*
X39001738Y-67533602D01*
X38630549Y-67161764D01*
X38444977Y-67084708D01*
X38643205Y-67002802D01*
X38734017Y-66912148D01*
X95930633Y-66912148D01*
X96077266Y-67267027D01*
X96348544Y-67538779D01*
X96703168Y-67686032D01*
X97087148Y-67686367D01*
X97442027Y-67539734D01*
X97549749Y-67432200D01*
X100341151Y-67432200D01*
X100447544Y-67538779D01*
X100802168Y-67686032D01*
X101186148Y-67686367D01*
X101541027Y-67539734D01*
X101812779Y-67268456D01*
X101960032Y-66913832D01*
X101960367Y-66529852D01*
X101813734Y-66174973D01*
X101542456Y-65903221D01*
X101187832Y-65755968D01*
X100803852Y-65755633D01*
X100448973Y-65902266D01*
X100341251Y-66009800D01*
X97549849Y-66009800D01*
X97443456Y-65903221D01*
X97088832Y-65755968D01*
X96704852Y-65755633D01*
X96349973Y-65902266D01*
X96078221Y-66173544D01*
X95930968Y-66528168D01*
X95930633Y-66912148D01*
X38734017Y-66912148D01*
X39089236Y-66557549D01*
X39330924Y-65975499D01*
X39331108Y-65764148D01*
X87507633Y-65764148D01*
X87654266Y-66119027D01*
X87925544Y-66390779D01*
X88280168Y-66538032D01*
X88664148Y-66538367D01*
X89019027Y-66391734D01*
X89031873Y-66378911D01*
X89144544Y-66491779D01*
X89499168Y-66639032D01*
X89883148Y-66639367D01*
X90238027Y-66492734D01*
X90509779Y-66221456D01*
X90657032Y-65866832D01*
X90657367Y-65482852D01*
X90510734Y-65127973D01*
X90403200Y-65020251D01*
X90403200Y-64221588D01*
X91835588Y-62789200D01*
X101813412Y-62789200D01*
X103499764Y-64475553D01*
X103499633Y-64626148D01*
X103646266Y-64981027D01*
X103917544Y-65252779D01*
X104272168Y-65400032D01*
X104656148Y-65400367D01*
X105011027Y-65253734D01*
X105282779Y-64982456D01*
X105430032Y-64627832D01*
X105430367Y-64243852D01*
X105283734Y-63888973D01*
X105012456Y-63617221D01*
X104657832Y-63469968D01*
X104505624Y-63469835D01*
X102610894Y-61575106D01*
X102542191Y-61529200D01*
X104990151Y-61529200D01*
X105096544Y-61635779D01*
X105451168Y-61783032D01*
X105835148Y-61783367D01*
X106190027Y-61636734D01*
X106461779Y-61365456D01*
X106609032Y-61010832D01*
X106609367Y-60626852D01*
X106462734Y-60271973D01*
X106191456Y-60000221D01*
X105836832Y-59852968D01*
X105452852Y-59852633D01*
X105097973Y-59999266D01*
X104990251Y-60106800D01*
X90403000Y-60106800D01*
X90130836Y-60160937D01*
X90130834Y-60160938D01*
X90130835Y-60160938D01*
X89900105Y-60315106D01*
X87950106Y-62265106D01*
X87795937Y-62495835D01*
X87795937Y-62495836D01*
X87741800Y-62768000D01*
X87741800Y-64939116D01*
X87655221Y-65025544D01*
X87507968Y-65380168D01*
X87507633Y-65764148D01*
X39331108Y-65764148D01*
X39331474Y-65345266D01*
X39090802Y-64762795D01*
X38645549Y-64316764D01*
X38063499Y-64075076D01*
X37433266Y-64074526D01*
X36850795Y-64315198D01*
X36404764Y-64760451D01*
X36163076Y-65342501D01*
X36162526Y-65972734D01*
X36403198Y-66555205D01*
X36848451Y-67001236D01*
X37034023Y-67078292D01*
X36835795Y-67160198D01*
X36389764Y-67605451D01*
X36148076Y-68187501D01*
X36147526Y-68817734D01*
X35711200Y-68817734D01*
X35711200Y-59563734D01*
X36215526Y-59563734D01*
X36456198Y-60146205D01*
X36901451Y-60592236D01*
X37483501Y-60833924D01*
X38113734Y-60834474D01*
X38696205Y-60593802D01*
X39142236Y-60148549D01*
X39383924Y-59566499D01*
X39384474Y-58936266D01*
X39143802Y-58353795D01*
X38698549Y-57907764D01*
X38116499Y-57666076D01*
X37486266Y-57665526D01*
X36903795Y-57906198D01*
X36457764Y-58351451D01*
X36216076Y-58933501D01*
X36215526Y-59563734D01*
X35711200Y-59563734D01*
X35711200Y-56954029D01*
X42623551Y-56954029D01*
X42841435Y-57481348D01*
X43244530Y-57885147D01*
X43376303Y-57939864D01*
X43246652Y-57993435D01*
X42842853Y-58396530D01*
X42624049Y-58923468D01*
X42623551Y-59494029D01*
X42841435Y-60021348D01*
X43244530Y-60425147D01*
X43376303Y-60479864D01*
X43246652Y-60533435D01*
X42842853Y-60936530D01*
X42624049Y-61463468D01*
X42623551Y-62034029D01*
X42841435Y-62561348D01*
X43244530Y-62965147D01*
X43771468Y-63183951D01*
X44342029Y-63184449D01*
X44869348Y-62966565D01*
X45273147Y-62563470D01*
X45491951Y-62036532D01*
X45492449Y-61465971D01*
X45274565Y-60938652D01*
X44871470Y-60534853D01*
X44739697Y-60480136D01*
X44869348Y-60426565D01*
X45273147Y-60023470D01*
X45491951Y-59496532D01*
X45492449Y-58925971D01*
X45274565Y-58398652D01*
X44871470Y-57994853D01*
X44739697Y-57940136D01*
X44869348Y-57886565D01*
X45273147Y-57483470D01*
X45333849Y-57337283D01*
X64100574Y-57337283D01*
X64298708Y-57816805D01*
X64665265Y-58184002D01*
X65144440Y-58382973D01*
X65663283Y-58383426D01*
X66142805Y-58185292D01*
X66510002Y-57818735D01*
X66675161Y-57420989D01*
X66838708Y-57816805D01*
X67205265Y-58184002D01*
X67684440Y-58382973D01*
X68203283Y-58383426D01*
X68682805Y-58185292D01*
X69050002Y-57818735D01*
X69215161Y-57420989D01*
X69378708Y-57816805D01*
X69745265Y-58184002D01*
X70224440Y-58382973D01*
X70743283Y-58383426D01*
X71222805Y-58185292D01*
X71590002Y-57818735D01*
X71788973Y-57339560D01*
X71789426Y-56820717D01*
X71591292Y-56341195D01*
X71224735Y-55973998D01*
X70801523Y-55798265D01*
X72143203Y-54456585D01*
X72175443Y-54469972D01*
X72698264Y-54470428D01*
X73181462Y-54270774D01*
X73551475Y-53901407D01*
X73708138Y-53524121D01*
X73863226Y-53899462D01*
X74232593Y-54269475D01*
X74715443Y-54469972D01*
X75238264Y-54470428D01*
X75272496Y-54456284D01*
X79916106Y-59099894D01*
X80146835Y-59254063D01*
X80419000Y-59308200D01*
X112355355Y-59308200D01*
X112355355Y-59347000D01*
X112396091Y-59563492D01*
X112524037Y-59762326D01*
X112648551Y-59847403D01*
X112535674Y-59920037D01*
X112402283Y-60115261D01*
X112355355Y-60347000D01*
X112355355Y-61847000D01*
X112396091Y-62063492D01*
X112524037Y-62262326D01*
X112719261Y-62395717D01*
X112864800Y-62425189D01*
X112864800Y-63468200D01*
X112730221Y-63602544D01*
X112582968Y-63957168D01*
X112582633Y-64341148D01*
X112729266Y-64696027D01*
X113000544Y-64967779D01*
X113355168Y-65115032D01*
X113739148Y-65115367D01*
X114094027Y-64968734D01*
X114365779Y-64697456D01*
X114513032Y-64342832D01*
X114513367Y-63958852D01*
X114366734Y-63603973D01*
X114287200Y-63524300D01*
X114287200Y-62426425D01*
X114417492Y-62401909D01*
X114616326Y-62273963D01*
X114749717Y-62078739D01*
X114796645Y-61847000D01*
X114796645Y-60347000D01*
X114755909Y-60130508D01*
X114627963Y-59931674D01*
X114503449Y-59846597D01*
X114616326Y-59773963D01*
X114749717Y-59578739D01*
X114796645Y-59347000D01*
X114796645Y-57847000D01*
X114755909Y-57630508D01*
X114627963Y-57431674D01*
X114432739Y-57298283D01*
X114201000Y-57251355D01*
X112951000Y-57251355D01*
X112734508Y-57292091D01*
X112535674Y-57420037D01*
X112402283Y-57615261D01*
X112355355Y-57847000D01*
X112355355Y-57885800D01*
X80713588Y-57885800D01*
X77297797Y-54470009D01*
X77778264Y-54470428D01*
X78261462Y-54270774D01*
X78631475Y-53901407D01*
X78788138Y-53524121D01*
X78943226Y-53899462D01*
X79312593Y-54269475D01*
X79795443Y-54469972D01*
X80318264Y-54470428D01*
X80801462Y-54270774D01*
X81171475Y-53901407D01*
X81328138Y-53524121D01*
X81483226Y-53899462D01*
X81852593Y-54269475D01*
X82335443Y-54469972D01*
X82858264Y-54470428D01*
X83341462Y-54270774D01*
X83711475Y-53901407D01*
X83868138Y-53524121D01*
X84023226Y-53899462D01*
X84392593Y-54269475D01*
X84875443Y-54469972D01*
X85398264Y-54470428D01*
X85881462Y-54270774D01*
X86251475Y-53901407D01*
X86451972Y-53418557D01*
X86452428Y-52895736D01*
X86252774Y-52412538D01*
X85883407Y-52042525D01*
X85400557Y-51842028D01*
X84877736Y-51841572D01*
X84394538Y-52041226D01*
X84024525Y-52410593D01*
X83867862Y-52787879D01*
X83712774Y-52412538D01*
X83343407Y-52042525D01*
X82860557Y-51842028D01*
X82337736Y-51841572D01*
X81854538Y-52041226D01*
X81484525Y-52410593D01*
X81327862Y-52787879D01*
X81172774Y-52412538D01*
X80803407Y-52042525D01*
X80320557Y-51842028D01*
X79797736Y-51841572D01*
X79314538Y-52041226D01*
X78944525Y-52410593D01*
X78787862Y-52787879D01*
X78632774Y-52412538D01*
X78263407Y-52042525D01*
X77780557Y-51842028D01*
X77257736Y-51841572D01*
X76774538Y-52041226D01*
X76404525Y-52410593D01*
X76247862Y-52787879D01*
X76092774Y-52412538D01*
X75723407Y-52042525D01*
X75240557Y-51842028D01*
X74717736Y-51841572D01*
X74234538Y-52041226D01*
X73864525Y-52410593D01*
X73707862Y-52787879D01*
X73552774Y-52412538D01*
X73183407Y-52042525D01*
X72700557Y-51842028D01*
X72177736Y-51841572D01*
X71694538Y-52041226D01*
X71324525Y-52410593D01*
X71167862Y-52787879D01*
X71012774Y-52412538D01*
X70643407Y-52042525D01*
X70160557Y-51842028D01*
X69637736Y-51841572D01*
X69154538Y-52041226D01*
X68784525Y-52410593D01*
X68770321Y-52444800D01*
X66696645Y-52444800D01*
X66696645Y-52436000D01*
X66655909Y-52219508D01*
X66527963Y-52020674D01*
X66332739Y-51887283D01*
X66101000Y-51840355D01*
X64801000Y-51840355D01*
X64584508Y-51881091D01*
X64385674Y-52009037D01*
X64252283Y-52204261D01*
X64205355Y-52436000D01*
X64205355Y-53936000D01*
X64246091Y-54152492D01*
X64374037Y-54351326D01*
X64569261Y-54484717D01*
X64693800Y-54509937D01*
X64693800Y-55961715D01*
X64667195Y-55972708D01*
X64299998Y-56339265D01*
X64101027Y-56818440D01*
X64100574Y-57337283D01*
X45333849Y-57337283D01*
X45491951Y-56956532D01*
X45492449Y-56385971D01*
X45274565Y-55858652D01*
X44871470Y-55454853D01*
X44344532Y-55236049D01*
X43773971Y-55235551D01*
X43246652Y-55453435D01*
X42842853Y-55856530D01*
X42624049Y-56383468D01*
X42623551Y-56954029D01*
X35711200Y-56954029D01*
X35711200Y-48879283D01*
X43709574Y-48879283D01*
X43907708Y-49358805D01*
X44274265Y-49726002D01*
X44753440Y-49924973D01*
X45272283Y-49925426D01*
X45751805Y-49727292D01*
X46119002Y-49360735D01*
X46317973Y-48881560D01*
X46317974Y-48879283D01*
X48789574Y-48879283D01*
X48987708Y-49358805D01*
X49354265Y-49726002D01*
X49833440Y-49924973D01*
X50352283Y-49925426D01*
X50831805Y-49727292D01*
X51199002Y-49360735D01*
X51397973Y-48881560D01*
X51398426Y-48362717D01*
X51200292Y-47883195D01*
X50833735Y-47515998D01*
X50354560Y-47317027D01*
X49835717Y-47316574D01*
X49356195Y-47514708D01*
X48988998Y-47881265D01*
X48790027Y-48360440D01*
X48789574Y-48879283D01*
X46317974Y-48879283D01*
X46318426Y-48362717D01*
X46120292Y-47883195D01*
X45753735Y-47515998D01*
X45274560Y-47317027D01*
X44755717Y-47316574D01*
X44276195Y-47514708D01*
X43908998Y-47881265D01*
X43710027Y-48360440D01*
X43709574Y-48879283D01*
X35711200Y-48879283D01*
X35711200Y-47267205D01*
X55787568Y-47267205D01*
X55991779Y-47761433D01*
X56369578Y-48139892D01*
X56863449Y-48344966D01*
X57398205Y-48345432D01*
X57892433Y-48141221D01*
X58270892Y-47763422D01*
X58402070Y-47447513D01*
X58531779Y-47761433D01*
X58909578Y-48139892D01*
X59403449Y-48344966D01*
X59938205Y-48345432D01*
X60432433Y-48141221D01*
X60810892Y-47763422D01*
X61015966Y-47269551D01*
X61016432Y-46734795D01*
X60812221Y-46240567D01*
X60434422Y-45862108D01*
X59940551Y-45657034D01*
X59405795Y-45656568D01*
X58911567Y-45860779D01*
X58533108Y-46238578D01*
X58401930Y-46554487D01*
X58272221Y-46240567D01*
X57894422Y-45862108D01*
X57400551Y-45657034D01*
X56865795Y-45656568D01*
X56371567Y-45860779D01*
X55993108Y-46238578D01*
X55788034Y-46732449D01*
X55787568Y-47267205D01*
X35711200Y-47267205D01*
X35711200Y-37770000D01*
X61403355Y-37770000D01*
X61403355Y-39070000D01*
X61444091Y-39286492D01*
X61572037Y-39485326D01*
X61684300Y-39562032D01*
X61684300Y-40814995D01*
X61684299Y-40815000D01*
X61765345Y-41222443D01*
X61996143Y-41567857D01*
X61998143Y-41569856D01*
X62343556Y-41800655D01*
X62751000Y-41881700D01*
X63158443Y-41800655D01*
X63503856Y-41569856D01*
X63734655Y-41224443D01*
X63815700Y-40817000D01*
X63813700Y-40806945D01*
X63813700Y-39561714D01*
X63914326Y-39496963D01*
X64047717Y-39301739D01*
X64094645Y-39070000D01*
X64094645Y-37770000D01*
X64053909Y-37553508D01*
X63925963Y-37354674D01*
X63730739Y-37221283D01*
X63499000Y-37174355D01*
X61999000Y-37174355D01*
X61782508Y-37215091D01*
X61583674Y-37343037D01*
X61450283Y-37538261D01*
X61403355Y-37770000D01*
X35711200Y-37770000D01*
X35711200Y-31711200D01*
X66503893Y-31711200D01*
X66473355Y-31862000D01*
M02*
