G04 #@! TF.FileFunction,Copper,L2,Bot,Signal*
%FSLAX46Y46*%
G04 Gerber Fmt 4.6, Leading zero omitted, Abs format (unit mm)*
G04 Created by KiCad (PCBNEW 4.0.7) date 02/08/18 21:06:53*
%MOMM*%
%LPD*%
G01*
G04 APERTURE LIST*
%ADD10C,0.100000*%
%ADD11C,0.762000*%
%ADD12C,1.440000*%
%ADD13C,2.000000*%
%ADD14C,1.700000*%
%ADD15R,1.250000X1.500000*%
%ADD16R,1.500000X1.250000*%
%ADD17R,1.300000X1.500000*%
%ADD18R,1.500000X1.300000*%
%ADD19C,1.520000*%
%ADD20R,1.520000X1.520000*%
%ADD21C,1.460000*%
%ADD22C,0.900000*%
%ADD23C,0.508000*%
%ADD24C,0.254000*%
%ADD25C,0.960514*%
%ADD26C,0.152400*%
G04 APERTURE END LIST*
D10*
D11*
X58420000Y-38100000D03*
X114300000Y-63500000D03*
X99060000Y-68580000D03*
X109220000Y-68580000D03*
X104140000Y-68580000D03*
X99060000Y-73660000D03*
X104140000Y-73660000D03*
X109220000Y-73660000D03*
X58420000Y-78740000D03*
X53340000Y-78740000D03*
X48260000Y-78740000D03*
X43180000Y-78740000D03*
X38100000Y-78740000D03*
X38100000Y-73660000D03*
X43180000Y-73660000D03*
X48260000Y-73660000D03*
X53340000Y-73660000D03*
X58420000Y-73660000D03*
X63500000Y-73660000D03*
X63500000Y-78740000D03*
X68580000Y-73660000D03*
X68580000Y-78740000D03*
X78740000Y-78740000D03*
X78740000Y-73660000D03*
X83820000Y-73660000D03*
X83820000Y-78740000D03*
X88900000Y-83820000D03*
X93980000Y-83820000D03*
X99060000Y-83820000D03*
X104140000Y-83820000D03*
X109220000Y-83820000D03*
X114300000Y-83820000D03*
X119380000Y-73660000D03*
X119380000Y-68580000D03*
X119380000Y-63500000D03*
X119380000Y-58420000D03*
X119380000Y-53340000D03*
X93980000Y-43180000D03*
X119380000Y-43180000D03*
X119380000Y-48260000D03*
X68580000Y-63500000D03*
X63500000Y-63500000D03*
X58420000Y-63500000D03*
X38100000Y-63500000D03*
X43180000Y-63500000D03*
X53340000Y-63500000D03*
X48260000Y-63500000D03*
D12*
X65405000Y-57079000D03*
X67945000Y-57079000D03*
X70485000Y-57079000D03*
D11*
X38100000Y-38100000D03*
D13*
X37968000Y-54089000D03*
X37800000Y-59250000D03*
D14*
X44058000Y-59210000D03*
X44058000Y-56670000D03*
X44058000Y-61750000D03*
D15*
X113574000Y-53490000D03*
X113574000Y-55990000D03*
D16*
X65298000Y-34788000D03*
X67798000Y-34788000D03*
D12*
X50094000Y-48621000D03*
X47554000Y-48621000D03*
X45014000Y-48621000D03*
D17*
X65451000Y-50486000D03*
X65451000Y-53186000D03*
D18*
X62630000Y-38387000D03*
X65330000Y-38387000D03*
X70519000Y-32512000D03*
X67819000Y-32512000D03*
X72330000Y-50516000D03*
X75030000Y-50516000D03*
D13*
X37940000Y-48613000D03*
X89330000Y-42590000D03*
X99715000Y-37269000D03*
D19*
X57132000Y-47001000D03*
X59672000Y-47001000D03*
D20*
X54592000Y-47001000D03*
D21*
X69898000Y-45396000D03*
X72438000Y-45396000D03*
X74978000Y-45396000D03*
X77518000Y-45396000D03*
X80058000Y-45396000D03*
X82598000Y-45396000D03*
X85138000Y-45396000D03*
X69898000Y-53156000D03*
X72438000Y-53156000D03*
X74978000Y-53156000D03*
X77518000Y-53156000D03*
X80058000Y-53156000D03*
X82598000Y-53156000D03*
X85138000Y-53156000D03*
D13*
X37683000Y-83896000D03*
X40223000Y-83896000D03*
X42763000Y-83896000D03*
X45303000Y-83896000D03*
X47843000Y-83896000D03*
X50383000Y-83896000D03*
X52923000Y-83896000D03*
X55463000Y-83896000D03*
X58003000Y-83896000D03*
X60543000Y-83896000D03*
X63083000Y-83896000D03*
X65623000Y-83896000D03*
X68163000Y-83896000D03*
X70703000Y-83896000D03*
X70703000Y-81356000D03*
X70703000Y-78816000D03*
X70703000Y-76276000D03*
X70703000Y-73736000D03*
X70703000Y-71196000D03*
X70703000Y-68656000D03*
X68163000Y-68656000D03*
X65623000Y-68656000D03*
X63083000Y-68656000D03*
X60543000Y-68656000D03*
X58003000Y-68656000D03*
X55463000Y-68656000D03*
X52923000Y-68656000D03*
X50383000Y-68656000D03*
X47843000Y-68656000D03*
X45303000Y-68656000D03*
X42763000Y-68656000D03*
X40223000Y-68656000D03*
X37683000Y-68656000D03*
X40223000Y-71196000D03*
X45303000Y-71196000D03*
X47843000Y-71196000D03*
X50383000Y-71196000D03*
D11*
X88900000Y-48260000D03*
X83820000Y-48260000D03*
X78740000Y-48260000D03*
X73660000Y-48260000D03*
X114300000Y-43180000D03*
X114300000Y-38100000D03*
X114300000Y-33020000D03*
X109220000Y-33020000D03*
X104140000Y-33020000D03*
X99060000Y-33020000D03*
X93980000Y-33020000D03*
X63500000Y-33020000D03*
X58420000Y-33020000D03*
X53340000Y-33020000D03*
X48260000Y-33020000D03*
X43180000Y-33020000D03*
X38100000Y-33020000D03*
X38100000Y-43180000D03*
X43180000Y-38100000D03*
X48260000Y-38100000D03*
X53340000Y-38100000D03*
X43180000Y-43180000D03*
X48260000Y-43180000D03*
X53340000Y-43180000D03*
X53340000Y-53340000D03*
X48260000Y-53340000D03*
X73660000Y-33020000D03*
X78740000Y-33020000D03*
X114300000Y-48260000D03*
X63500000Y-53340000D03*
X101199000Y-77170000D03*
X101199000Y-78103000D03*
X101199000Y-79036000D03*
X102309000Y-77170000D03*
X100089000Y-77170000D03*
X109877000Y-78776000D03*
X113589000Y-58054000D03*
X59558000Y-42631000D03*
D22*
X81971000Y-40660000D03*
X84348000Y-34503000D03*
X76440000Y-40930000D03*
D11*
X104465000Y-64435000D03*
X89692000Y-65674000D03*
X100995000Y-66721000D03*
X96896000Y-66721000D03*
X75916000Y-68011000D03*
X89957000Y-68031000D03*
X46800000Y-56690000D03*
D23*
X109877000Y-78776000D02*
X109934000Y-78776000D01*
D24*
X113574000Y-53490000D02*
X88658000Y-53490000D01*
X76815000Y-51319000D02*
X74978000Y-53156000D01*
X86487000Y-51319000D02*
X76815000Y-51319000D01*
X88658000Y-53490000D02*
X86487000Y-51319000D01*
X113574000Y-58039000D02*
X113574000Y-55990000D01*
X113589000Y-58054000D02*
X113574000Y-58039000D01*
X72330000Y-50516000D02*
X65481000Y-50516000D01*
X65481000Y-50516000D02*
X65451000Y-50486000D01*
X65501000Y-50536000D02*
X65451000Y-50486000D01*
X65330000Y-38387000D02*
X65330000Y-34820000D01*
X65330000Y-34820000D02*
X65298000Y-34788000D01*
X65451000Y-50486000D02*
X65451000Y-38508000D01*
X65451000Y-38508000D02*
X65330000Y-38387000D01*
X67819000Y-32512000D02*
X67819000Y-34767000D01*
X67819000Y-34767000D02*
X67798000Y-34788000D01*
X67798000Y-34788000D02*
X67798000Y-43296000D01*
X67798000Y-43296000D02*
X69898000Y-45396000D01*
D25*
X62630000Y-38387000D02*
X62630000Y-39559000D01*
X62630000Y-39559000D02*
X59558000Y-42631000D01*
D24*
X80058000Y-45396000D02*
X80058000Y-42573000D01*
X80058000Y-42573000D02*
X81971000Y-40660000D01*
X85138000Y-45396000D02*
X85138000Y-35293000D01*
X85138000Y-35293000D02*
X84348000Y-34503000D01*
X67945000Y-57079000D02*
X68515000Y-57079000D01*
X68515000Y-57079000D02*
X72438000Y-53156000D01*
X65405000Y-57079000D02*
X65405000Y-53232000D01*
X65405000Y-53232000D02*
X65481000Y-53156000D01*
X65481000Y-53156000D02*
X69898000Y-53156000D01*
X65151000Y-52958000D02*
X65126000Y-52933000D01*
X72438000Y-45396000D02*
X72438000Y-44932000D01*
X72438000Y-44932000D02*
X76440000Y-40930000D01*
X72438000Y-45396000D02*
X72438000Y-45112000D01*
X70519000Y-32512000D02*
X70519000Y-43477000D01*
X70519000Y-43477000D02*
X72438000Y-45396000D01*
X75030000Y-50516000D02*
X75030000Y-45448000D01*
X75030000Y-45448000D02*
X74978000Y-45396000D01*
X104465000Y-64435000D02*
X102108000Y-62078000D01*
X102108000Y-62078000D02*
X91541000Y-62078000D01*
X91541000Y-62078000D02*
X89692000Y-63927000D01*
X89692000Y-63927000D02*
X89692000Y-65674000D01*
X96896000Y-66721000D02*
X100995000Y-66721000D01*
X89937000Y-68011000D02*
X75916000Y-68011000D01*
X89957000Y-68031000D02*
X89937000Y-68011000D01*
X46020000Y-59788000D02*
X44058000Y-61750000D01*
X46020000Y-57470000D02*
X46020000Y-59788000D01*
X46800000Y-56690000D02*
X46020000Y-57470000D01*
D26*
G36*
X66473355Y-31862000D02*
X66473355Y-33162000D01*
X66514091Y-33378492D01*
X66642037Y-33577326D01*
X66757120Y-33655959D01*
X66632674Y-33736037D01*
X66547597Y-33860551D01*
X66474963Y-33747674D01*
X66279739Y-33614283D01*
X66048000Y-33567355D01*
X64548000Y-33567355D01*
X64331508Y-33608091D01*
X64132674Y-33736037D01*
X63999283Y-33931261D01*
X63952355Y-34163000D01*
X63952355Y-35413000D01*
X63993091Y-35629492D01*
X64121037Y-35828326D01*
X64316261Y-35961717D01*
X64548000Y-36008645D01*
X64618800Y-36008645D01*
X64618800Y-37141355D01*
X64580000Y-37141355D01*
X64363508Y-37182091D01*
X64164674Y-37310037D01*
X64031283Y-37505261D01*
X63984355Y-37737000D01*
X63984355Y-39037000D01*
X64025091Y-39253492D01*
X64153037Y-39452326D01*
X64348261Y-39585717D01*
X64580000Y-39632645D01*
X64739800Y-39632645D01*
X64739800Y-49151871D01*
X64584508Y-49181091D01*
X64385674Y-49309037D01*
X64252283Y-49504261D01*
X64205355Y-49736000D01*
X64205355Y-51236000D01*
X64246091Y-51452492D01*
X64374037Y-51651326D01*
X64569261Y-51784717D01*
X64801000Y-51831645D01*
X66101000Y-51831645D01*
X66317492Y-51790909D01*
X66516326Y-51662963D01*
X66649717Y-51467739D01*
X66696645Y-51236000D01*
X66696645Y-51227200D01*
X70995871Y-51227200D01*
X71025091Y-51382492D01*
X71153037Y-51581326D01*
X71348261Y-51714717D01*
X71580000Y-51761645D01*
X73080000Y-51761645D01*
X73296492Y-51720909D01*
X73495326Y-51592963D01*
X73628717Y-51397739D01*
X73675645Y-51166000D01*
X73675645Y-49866000D01*
X73634909Y-49649508D01*
X73506963Y-49450674D01*
X73311739Y-49317283D01*
X73080000Y-49270355D01*
X71580000Y-49270355D01*
X71363508Y-49311091D01*
X71164674Y-49439037D01*
X71031283Y-49634261D01*
X70996748Y-49804800D01*
X66696645Y-49804800D01*
X66696645Y-49736000D01*
X66655909Y-49519508D01*
X66527963Y-49320674D01*
X66332739Y-49187283D01*
X66162200Y-49152748D01*
X66162200Y-39617178D01*
X66296492Y-39591909D01*
X66495326Y-39463963D01*
X66628717Y-39268739D01*
X66675645Y-39037000D01*
X66675645Y-37737000D01*
X66634909Y-37520508D01*
X66506963Y-37321674D01*
X66311739Y-37188283D01*
X66080000Y-37141355D01*
X66041200Y-37141355D01*
X66041200Y-36008645D01*
X66048000Y-36008645D01*
X66264492Y-35967909D01*
X66463326Y-35839963D01*
X66548403Y-35715449D01*
X66621037Y-35828326D01*
X66816261Y-35961717D01*
X67048000Y-36008645D01*
X67086800Y-36008645D01*
X67086800Y-43296000D01*
X67140937Y-43568165D01*
X67295106Y-43798894D01*
X68597415Y-45101204D01*
X68584028Y-45133443D01*
X68583572Y-45656264D01*
X68783226Y-46139462D01*
X69152593Y-46509475D01*
X69635443Y-46709972D01*
X70158264Y-46710428D01*
X70641462Y-46510774D01*
X71011475Y-46141407D01*
X71168138Y-45764121D01*
X71323226Y-46139462D01*
X71692593Y-46509475D01*
X72175443Y-46709972D01*
X72698264Y-46710428D01*
X73181462Y-46510774D01*
X73551475Y-46141407D01*
X73708138Y-45764121D01*
X73863226Y-46139462D01*
X74232593Y-46509475D01*
X74318800Y-46545271D01*
X74318800Y-49270355D01*
X74280000Y-49270355D01*
X74063508Y-49311091D01*
X73864674Y-49439037D01*
X73731283Y-49634261D01*
X73684355Y-49866000D01*
X73684355Y-51166000D01*
X73725091Y-51382492D01*
X73853037Y-51581326D01*
X74048261Y-51714717D01*
X74280000Y-51761645D01*
X75366567Y-51761645D01*
X75272797Y-51855415D01*
X75240557Y-51842028D01*
X74717736Y-51841572D01*
X74234538Y-52041226D01*
X73864525Y-52410593D01*
X73707862Y-52787879D01*
X73552774Y-52412538D01*
X73183407Y-52042525D01*
X72700557Y-51842028D01*
X72177736Y-51841572D01*
X71694538Y-52041226D01*
X71324525Y-52410593D01*
X71167862Y-52787879D01*
X71012774Y-52412538D01*
X70643407Y-52042525D01*
X70160557Y-51842028D01*
X69637736Y-51841572D01*
X69154538Y-52041226D01*
X68784525Y-52410593D01*
X68770321Y-52444800D01*
X66696645Y-52444800D01*
X66696645Y-52436000D01*
X66655909Y-52219508D01*
X66527963Y-52020674D01*
X66332739Y-51887283D01*
X66101000Y-51840355D01*
X64801000Y-51840355D01*
X64584508Y-51881091D01*
X64385674Y-52009037D01*
X64252283Y-52204261D01*
X64205355Y-52436000D01*
X64205355Y-53936000D01*
X64246091Y-54152492D01*
X64374037Y-54351326D01*
X64569261Y-54484717D01*
X64693800Y-54509937D01*
X64693800Y-55961715D01*
X64667195Y-55972708D01*
X64299998Y-56339265D01*
X64101027Y-56818440D01*
X64100574Y-57337283D01*
X64298708Y-57816805D01*
X64665265Y-58184002D01*
X65144440Y-58382973D01*
X65663283Y-58383426D01*
X66142805Y-58185292D01*
X66510002Y-57818735D01*
X66675161Y-57420989D01*
X66838708Y-57816805D01*
X67205265Y-58184002D01*
X67684440Y-58382973D01*
X68203283Y-58383426D01*
X68682805Y-58185292D01*
X69050002Y-57818735D01*
X69215161Y-57420989D01*
X69378708Y-57816805D01*
X69745265Y-58184002D01*
X70224440Y-58382973D01*
X70743283Y-58383426D01*
X71222805Y-58185292D01*
X71590002Y-57818735D01*
X71788973Y-57339560D01*
X71789426Y-56820717D01*
X71591292Y-56341195D01*
X71224735Y-55973998D01*
X70801523Y-55798265D01*
X72143203Y-54456585D01*
X72175443Y-54469972D01*
X72698264Y-54470428D01*
X73181462Y-54270774D01*
X73551475Y-53901407D01*
X73708138Y-53524121D01*
X73863226Y-53899462D01*
X74232593Y-54269475D01*
X74715443Y-54469972D01*
X75238264Y-54470428D01*
X75721462Y-54270774D01*
X76091475Y-53901407D01*
X76248138Y-53524121D01*
X76403226Y-53899462D01*
X76772593Y-54269475D01*
X77255443Y-54469972D01*
X77778264Y-54470428D01*
X78261462Y-54270774D01*
X78631475Y-53901407D01*
X78788138Y-53524121D01*
X78943226Y-53899462D01*
X79312593Y-54269475D01*
X79795443Y-54469972D01*
X80318264Y-54470428D01*
X80801462Y-54270774D01*
X81171475Y-53901407D01*
X81328138Y-53524121D01*
X81483226Y-53899462D01*
X81852593Y-54269475D01*
X82335443Y-54469972D01*
X82858264Y-54470428D01*
X83341462Y-54270774D01*
X83711475Y-53901407D01*
X83868138Y-53524121D01*
X84023226Y-53899462D01*
X84392593Y-54269475D01*
X84875443Y-54469972D01*
X85398264Y-54470428D01*
X85881462Y-54270774D01*
X86251475Y-53901407D01*
X86451972Y-53418557D01*
X86452428Y-52895736D01*
X86252774Y-52412538D01*
X85883407Y-52042525D01*
X85853725Y-52030200D01*
X86192412Y-52030200D01*
X88155106Y-53992895D01*
X88385836Y-54147063D01*
X88658000Y-54201200D01*
X112353355Y-54201200D01*
X112353355Y-54240000D01*
X112394091Y-54456492D01*
X112522037Y-54655326D01*
X112646551Y-54740403D01*
X112533674Y-54813037D01*
X112400283Y-55008261D01*
X112353355Y-55240000D01*
X112353355Y-56740000D01*
X112394091Y-56956492D01*
X112522037Y-57155326D01*
X112717261Y-57288717D01*
X112862800Y-57318189D01*
X112862800Y-57415125D01*
X112771221Y-57506544D01*
X112623968Y-57861168D01*
X112623633Y-58245148D01*
X112770266Y-58600027D01*
X113041544Y-58871779D01*
X113396168Y-59019032D01*
X113780148Y-59019367D01*
X114135027Y-58872734D01*
X114406779Y-58601456D01*
X114554032Y-58246832D01*
X114554367Y-57862852D01*
X114407734Y-57507973D01*
X114285200Y-57385225D01*
X114285200Y-57319425D01*
X114415492Y-57294909D01*
X114614326Y-57166963D01*
X114747717Y-56971739D01*
X114794645Y-56740000D01*
X114794645Y-55240000D01*
X114753909Y-55023508D01*
X114625963Y-54824674D01*
X114501449Y-54739597D01*
X114614326Y-54666963D01*
X114747717Y-54471739D01*
X114794645Y-54240000D01*
X114794645Y-52740000D01*
X114753909Y-52523508D01*
X114625963Y-52324674D01*
X114430739Y-52191283D01*
X114199000Y-52144355D01*
X112949000Y-52144355D01*
X112732508Y-52185091D01*
X112533674Y-52313037D01*
X112400283Y-52508261D01*
X112353355Y-52740000D01*
X112353355Y-52778800D01*
X88952589Y-52778800D01*
X86989894Y-50816106D01*
X86759165Y-50661937D01*
X86487000Y-50607800D01*
X76815000Y-50607800D01*
X76542836Y-50661937D01*
X76542834Y-50661938D01*
X76542835Y-50661938D01*
X76375645Y-50773650D01*
X76375645Y-49866000D01*
X76334909Y-49649508D01*
X76206963Y-49450674D01*
X76011739Y-49317283D01*
X75780000Y-49270355D01*
X75741200Y-49270355D01*
X75741200Y-46491070D01*
X76091475Y-46141407D01*
X76291972Y-45658557D01*
X76291973Y-45656264D01*
X78743572Y-45656264D01*
X78943226Y-46139462D01*
X79312593Y-46509475D01*
X79795443Y-46709972D01*
X80318264Y-46710428D01*
X80801462Y-46510774D01*
X81171475Y-46141407D01*
X81328138Y-45764121D01*
X81483226Y-46139462D01*
X81852593Y-46509475D01*
X82335443Y-46709972D01*
X82858264Y-46710428D01*
X83341462Y-46510774D01*
X83711475Y-46141407D01*
X83868138Y-45764121D01*
X84023226Y-46139462D01*
X84392593Y-46509475D01*
X84875443Y-46709972D01*
X85398264Y-46710428D01*
X85881462Y-46510774D01*
X86251475Y-46141407D01*
X86451972Y-45658557D01*
X86452428Y-45135736D01*
X86252774Y-44652538D01*
X85883407Y-44282525D01*
X85849200Y-44268321D01*
X85849200Y-42903734D01*
X87745526Y-42903734D01*
X87986198Y-43486205D01*
X88431451Y-43932236D01*
X89013501Y-44173924D01*
X89643734Y-44174474D01*
X90226205Y-43933802D01*
X90672236Y-43488549D01*
X90913924Y-42906499D01*
X90914474Y-42276266D01*
X90673802Y-41693795D01*
X90228549Y-41247764D01*
X89646499Y-41006076D01*
X89016266Y-41005526D01*
X88433795Y-41246198D01*
X87987764Y-41691451D01*
X87746076Y-42273501D01*
X87745526Y-42903734D01*
X85849200Y-42903734D01*
X85849200Y-37582734D01*
X98130526Y-37582734D01*
X98371198Y-38165205D01*
X98816451Y-38611236D01*
X99398501Y-38852924D01*
X100028734Y-38853474D01*
X100611205Y-38612802D01*
X101057236Y-38167549D01*
X101298924Y-37585499D01*
X101299474Y-36955266D01*
X101058802Y-36372795D01*
X100613549Y-35926764D01*
X100031499Y-35685076D01*
X99401266Y-35684526D01*
X98818795Y-35925198D01*
X98372764Y-36370451D01*
X98131076Y-36952501D01*
X98130526Y-37582734D01*
X85849200Y-37582734D01*
X85849200Y-35293000D01*
X85795063Y-35020836D01*
X85660869Y-34820000D01*
X85640895Y-34790106D01*
X85382176Y-34531387D01*
X85382379Y-34298187D01*
X85225263Y-33917938D01*
X84934592Y-33626759D01*
X84554618Y-33468980D01*
X84143187Y-33468621D01*
X83762938Y-33625737D01*
X83471759Y-33916408D01*
X83313980Y-34296382D01*
X83313621Y-34707813D01*
X83470737Y-35088062D01*
X83761408Y-35379241D01*
X84141382Y-35537020D01*
X84376436Y-35537225D01*
X84426800Y-35587589D01*
X84426800Y-44267896D01*
X84394538Y-44281226D01*
X84024525Y-44650593D01*
X83867862Y-45027879D01*
X83712774Y-44652538D01*
X83343407Y-44282525D01*
X82860557Y-44082028D01*
X82337736Y-44081572D01*
X81854538Y-44281226D01*
X81484525Y-44650593D01*
X81327862Y-45027879D01*
X81172774Y-44652538D01*
X80803407Y-44282525D01*
X80769200Y-44268321D01*
X80769200Y-42867588D01*
X81942613Y-41694176D01*
X82175813Y-41694379D01*
X82556062Y-41537263D01*
X82847241Y-41246592D01*
X83005020Y-40866618D01*
X83005379Y-40455187D01*
X82848263Y-40074938D01*
X82557592Y-39783759D01*
X82177618Y-39625980D01*
X81766187Y-39625621D01*
X81385938Y-39782737D01*
X81094759Y-40073408D01*
X80936980Y-40453382D01*
X80936775Y-40688436D01*
X79555106Y-42070106D01*
X79400937Y-42300835D01*
X79400937Y-42300836D01*
X79346800Y-42573000D01*
X79346800Y-44267896D01*
X79314538Y-44281226D01*
X78944525Y-44650593D01*
X78744028Y-45133443D01*
X78743572Y-45656264D01*
X76291973Y-45656264D01*
X76292428Y-45135736D01*
X76092774Y-44652538D01*
X75723407Y-44282525D01*
X75240557Y-44082028D01*
X74717736Y-44081572D01*
X74234538Y-44281226D01*
X73864525Y-44650593D01*
X73707862Y-45027879D01*
X73602618Y-44773170D01*
X76411613Y-41964176D01*
X76644813Y-41964379D01*
X77025062Y-41807263D01*
X77316241Y-41516592D01*
X77474020Y-41136618D01*
X77474379Y-40725187D01*
X77317263Y-40344938D01*
X77026592Y-40053759D01*
X76646618Y-39895980D01*
X76235187Y-39895621D01*
X75854938Y-40052737D01*
X75563759Y-40343408D01*
X75405980Y-40723382D01*
X75405775Y-40958436D01*
X72282548Y-44081663D01*
X72177736Y-44081572D01*
X72143504Y-44095716D01*
X71230200Y-43182412D01*
X71230200Y-33757645D01*
X71269000Y-33757645D01*
X71485492Y-33716909D01*
X71684326Y-33588963D01*
X71817717Y-33393739D01*
X71864645Y-33162000D01*
X71864645Y-31862000D01*
X71836270Y-31711200D01*
X120288800Y-31711200D01*
X120288800Y-85288800D01*
X71480621Y-85288800D01*
X71599205Y-85239802D01*
X72045236Y-84794549D01*
X72286924Y-84212499D01*
X72287474Y-83582266D01*
X72046802Y-82999795D01*
X71673398Y-82625738D01*
X72045236Y-82254549D01*
X72286924Y-81672499D01*
X72287474Y-81042266D01*
X72046802Y-80459795D01*
X71673398Y-80085738D01*
X72045236Y-79714549D01*
X72286924Y-79132499D01*
X72287474Y-78502266D01*
X72046802Y-77919795D01*
X71601549Y-77473764D01*
X71330340Y-77361148D01*
X99123633Y-77361148D01*
X99270266Y-77716027D01*
X99541544Y-77987779D01*
X99896168Y-78135032D01*
X100233772Y-78135327D01*
X100233633Y-78294148D01*
X100347505Y-78569740D01*
X100233968Y-78843168D01*
X100233633Y-79227148D01*
X100380266Y-79582027D01*
X100651544Y-79853779D01*
X101006168Y-80001032D01*
X101390148Y-80001367D01*
X101745027Y-79854734D01*
X102016779Y-79583456D01*
X102164032Y-79228832D01*
X102164367Y-78844852D01*
X102050495Y-78569260D01*
X102164032Y-78295832D01*
X102164172Y-78135074D01*
X102500148Y-78135367D01*
X102855027Y-77988734D01*
X103126779Y-77717456D01*
X103274032Y-77362832D01*
X103274367Y-76978852D01*
X103127734Y-76623973D01*
X102856456Y-76352221D01*
X102501832Y-76204968D01*
X102117852Y-76204633D01*
X101762973Y-76351266D01*
X101754223Y-76360001D01*
X101746456Y-76352221D01*
X101391832Y-76204968D01*
X101007852Y-76204633D01*
X100652973Y-76351266D01*
X100644223Y-76360001D01*
X100636456Y-76352221D01*
X100281832Y-76204968D01*
X99897852Y-76204633D01*
X99542973Y-76351266D01*
X99271221Y-76622544D01*
X99123968Y-76977168D01*
X99123633Y-77361148D01*
X71330340Y-77361148D01*
X71019499Y-77232076D01*
X70389266Y-77231526D01*
X69806795Y-77472198D01*
X69360764Y-77917451D01*
X69119076Y-78499501D01*
X69118526Y-79129734D01*
X69359198Y-79712205D01*
X69732602Y-80086262D01*
X69360764Y-80457451D01*
X69119076Y-81039501D01*
X69118526Y-81669734D01*
X69359198Y-82252205D01*
X69732602Y-82626262D01*
X69432738Y-82925602D01*
X69061549Y-82553764D01*
X68479499Y-82312076D01*
X67849266Y-82311526D01*
X67266795Y-82552198D01*
X66892738Y-82925602D01*
X66521549Y-82553764D01*
X65939499Y-82312076D01*
X65309266Y-82311526D01*
X64726795Y-82552198D01*
X64352738Y-82925602D01*
X63981549Y-82553764D01*
X63399499Y-82312076D01*
X62769266Y-82311526D01*
X62186795Y-82552198D01*
X61812738Y-82925602D01*
X61441549Y-82553764D01*
X60859499Y-82312076D01*
X60229266Y-82311526D01*
X59646795Y-82552198D01*
X59272738Y-82925602D01*
X58901549Y-82553764D01*
X58319499Y-82312076D01*
X57689266Y-82311526D01*
X57106795Y-82552198D01*
X56732738Y-82925602D01*
X56361549Y-82553764D01*
X55779499Y-82312076D01*
X55149266Y-82311526D01*
X54566795Y-82552198D01*
X54192738Y-82925602D01*
X53821549Y-82553764D01*
X53239499Y-82312076D01*
X52609266Y-82311526D01*
X52026795Y-82552198D01*
X51652738Y-82925602D01*
X51281549Y-82553764D01*
X50699499Y-82312076D01*
X50069266Y-82311526D01*
X49486795Y-82552198D01*
X49112738Y-82925602D01*
X48741549Y-82553764D01*
X48159499Y-82312076D01*
X47529266Y-82311526D01*
X46946795Y-82552198D01*
X46572738Y-82925602D01*
X46201549Y-82553764D01*
X45619499Y-82312076D01*
X44989266Y-82311526D01*
X44406795Y-82552198D01*
X44032738Y-82925602D01*
X43661549Y-82553764D01*
X43079499Y-82312076D01*
X42449266Y-82311526D01*
X41866795Y-82552198D01*
X41492738Y-82925602D01*
X41121549Y-82553764D01*
X40539499Y-82312076D01*
X39909266Y-82311526D01*
X39326795Y-82552198D01*
X38880764Y-82997451D01*
X38639076Y-83579501D01*
X38638526Y-84209734D01*
X38879198Y-84792205D01*
X39324451Y-85238236D01*
X39446223Y-85288800D01*
X35711200Y-85288800D01*
X35711200Y-68969734D01*
X36098526Y-68969734D01*
X36339198Y-69552205D01*
X36784451Y-69998236D01*
X37366501Y-70239924D01*
X37996734Y-70240474D01*
X38579205Y-69999802D01*
X38953262Y-69626398D01*
X39252602Y-69926262D01*
X38880764Y-70297451D01*
X38639076Y-70879501D01*
X38638526Y-71509734D01*
X38879198Y-72092205D01*
X39324451Y-72538236D01*
X39906501Y-72779924D01*
X40536734Y-72780474D01*
X41119205Y-72539802D01*
X41565236Y-72094549D01*
X41806924Y-71512499D01*
X41807474Y-70882266D01*
X41566802Y-70299795D01*
X41193398Y-69925738D01*
X41493262Y-69626398D01*
X41864451Y-69998236D01*
X42446501Y-70239924D01*
X43076734Y-70240474D01*
X43659205Y-69999802D01*
X44033262Y-69626398D01*
X44332602Y-69926262D01*
X43960764Y-70297451D01*
X43719076Y-70879501D01*
X43718526Y-71509734D01*
X43959198Y-72092205D01*
X44404451Y-72538236D01*
X44986501Y-72779924D01*
X45616734Y-72780474D01*
X46199205Y-72539802D01*
X46573262Y-72166398D01*
X46944451Y-72538236D01*
X47526501Y-72779924D01*
X48156734Y-72780474D01*
X48739205Y-72539802D01*
X49113262Y-72166398D01*
X49484451Y-72538236D01*
X50066501Y-72779924D01*
X50696734Y-72780474D01*
X51279205Y-72539802D01*
X51725236Y-72094549D01*
X51966924Y-71512499D01*
X51967474Y-70882266D01*
X51726802Y-70299795D01*
X51353398Y-69925738D01*
X51653262Y-69626398D01*
X52024451Y-69998236D01*
X52606501Y-70239924D01*
X53236734Y-70240474D01*
X53819205Y-69999802D01*
X54193262Y-69626398D01*
X54564451Y-69998236D01*
X55146501Y-70239924D01*
X55776734Y-70240474D01*
X56359205Y-69999802D01*
X56733262Y-69626398D01*
X57104451Y-69998236D01*
X57686501Y-70239924D01*
X58316734Y-70240474D01*
X58899205Y-69999802D01*
X59273262Y-69626398D01*
X59644451Y-69998236D01*
X60226501Y-70239924D01*
X60856734Y-70240474D01*
X61439205Y-69999802D01*
X61813262Y-69626398D01*
X62184451Y-69998236D01*
X62766501Y-70239924D01*
X63396734Y-70240474D01*
X63979205Y-69999802D01*
X64353262Y-69626398D01*
X64724451Y-69998236D01*
X65306501Y-70239924D01*
X65936734Y-70240474D01*
X66519205Y-69999802D01*
X66893262Y-69626398D01*
X67264451Y-69998236D01*
X67846501Y-70239924D01*
X68476734Y-70240474D01*
X69059205Y-69999802D01*
X69433262Y-69626398D01*
X69732602Y-69926262D01*
X69360764Y-70297451D01*
X69119076Y-70879501D01*
X69118526Y-71509734D01*
X69359198Y-72092205D01*
X69732602Y-72466262D01*
X69360764Y-72837451D01*
X69119076Y-73419501D01*
X69118526Y-74049734D01*
X69359198Y-74632205D01*
X69804451Y-75078236D01*
X70386501Y-75319924D01*
X71016734Y-75320474D01*
X71599205Y-75079802D01*
X72045236Y-74634549D01*
X72286924Y-74052499D01*
X72287474Y-73422266D01*
X72046802Y-72839795D01*
X71673398Y-72465738D01*
X72045236Y-72094549D01*
X72286924Y-71512499D01*
X72287474Y-70882266D01*
X72046802Y-70299795D01*
X71673398Y-69925738D01*
X72045236Y-69554549D01*
X72286924Y-68972499D01*
X72287474Y-68342266D01*
X72229579Y-68202148D01*
X74950633Y-68202148D01*
X75097266Y-68557027D01*
X75368544Y-68828779D01*
X75723168Y-68976032D01*
X76107148Y-68976367D01*
X76462027Y-68829734D01*
X76569749Y-68722200D01*
X89283186Y-68722200D01*
X89409544Y-68848779D01*
X89764168Y-68996032D01*
X90148148Y-68996367D01*
X90503027Y-68849734D01*
X90774779Y-68578456D01*
X90922032Y-68223832D01*
X90922367Y-67839852D01*
X90775734Y-67484973D01*
X90504456Y-67213221D01*
X90149832Y-67065968D01*
X89765852Y-67065633D01*
X89410973Y-67212266D01*
X89323286Y-67299800D01*
X76569849Y-67299800D01*
X76463456Y-67193221D01*
X76108832Y-67045968D01*
X75724852Y-67045633D01*
X75369973Y-67192266D01*
X75098221Y-67463544D01*
X74950968Y-67818168D01*
X74950633Y-68202148D01*
X72229579Y-68202148D01*
X72046802Y-67759795D01*
X71601549Y-67313764D01*
X71019499Y-67072076D01*
X70389266Y-67071526D01*
X69806795Y-67312198D01*
X69432738Y-67685602D01*
X69061549Y-67313764D01*
X68479499Y-67072076D01*
X67849266Y-67071526D01*
X67266795Y-67312198D01*
X66892738Y-67685602D01*
X66521549Y-67313764D01*
X65939499Y-67072076D01*
X65309266Y-67071526D01*
X64726795Y-67312198D01*
X64352738Y-67685602D01*
X63981549Y-67313764D01*
X63399499Y-67072076D01*
X62769266Y-67071526D01*
X62186795Y-67312198D01*
X61812738Y-67685602D01*
X61441549Y-67313764D01*
X60859499Y-67072076D01*
X60229266Y-67071526D01*
X59646795Y-67312198D01*
X59272738Y-67685602D01*
X58901549Y-67313764D01*
X58319499Y-67072076D01*
X57689266Y-67071526D01*
X57106795Y-67312198D01*
X56732738Y-67685602D01*
X56361549Y-67313764D01*
X55779499Y-67072076D01*
X55149266Y-67071526D01*
X54566795Y-67312198D01*
X54192738Y-67685602D01*
X53821549Y-67313764D01*
X53239499Y-67072076D01*
X52609266Y-67071526D01*
X52026795Y-67312198D01*
X51652738Y-67685602D01*
X51281549Y-67313764D01*
X50699499Y-67072076D01*
X50069266Y-67071526D01*
X49486795Y-67312198D01*
X49112738Y-67685602D01*
X48741549Y-67313764D01*
X48159499Y-67072076D01*
X47529266Y-67071526D01*
X46946795Y-67312198D01*
X46572738Y-67685602D01*
X46201549Y-67313764D01*
X45619499Y-67072076D01*
X44989266Y-67071526D01*
X44406795Y-67312198D01*
X44032738Y-67685602D01*
X43661549Y-67313764D01*
X43079499Y-67072076D01*
X42449266Y-67071526D01*
X41866795Y-67312198D01*
X41492738Y-67685602D01*
X41121549Y-67313764D01*
X40539499Y-67072076D01*
X39909266Y-67071526D01*
X39326795Y-67312198D01*
X38952738Y-67685602D01*
X38581549Y-67313764D01*
X37999499Y-67072076D01*
X37369266Y-67071526D01*
X36786795Y-67312198D01*
X36340764Y-67757451D01*
X36099076Y-68339501D01*
X36098526Y-68969734D01*
X35711200Y-68969734D01*
X35711200Y-66912148D01*
X95930633Y-66912148D01*
X96077266Y-67267027D01*
X96348544Y-67538779D01*
X96703168Y-67686032D01*
X97087148Y-67686367D01*
X97442027Y-67539734D01*
X97549749Y-67432200D01*
X100341151Y-67432200D01*
X100447544Y-67538779D01*
X100802168Y-67686032D01*
X101186148Y-67686367D01*
X101541027Y-67539734D01*
X101812779Y-67268456D01*
X101960032Y-66913832D01*
X101960367Y-66529852D01*
X101813734Y-66174973D01*
X101542456Y-65903221D01*
X101187832Y-65755968D01*
X100803852Y-65755633D01*
X100448973Y-65902266D01*
X100341251Y-66009800D01*
X97549849Y-66009800D01*
X97443456Y-65903221D01*
X97088832Y-65755968D01*
X96704852Y-65755633D01*
X96349973Y-65902266D01*
X96078221Y-66173544D01*
X95930968Y-66528168D01*
X95930633Y-66912148D01*
X35711200Y-66912148D01*
X35711200Y-65865148D01*
X88726633Y-65865148D01*
X88873266Y-66220027D01*
X89144544Y-66491779D01*
X89499168Y-66639032D01*
X89883148Y-66639367D01*
X90238027Y-66492734D01*
X90509779Y-66221456D01*
X90657032Y-65866832D01*
X90657367Y-65482852D01*
X90510734Y-65127973D01*
X90403200Y-65020251D01*
X90403200Y-64221588D01*
X91835588Y-62789200D01*
X101813412Y-62789200D01*
X103499764Y-64475553D01*
X103499633Y-64626148D01*
X103646266Y-64981027D01*
X103917544Y-65252779D01*
X104272168Y-65400032D01*
X104656148Y-65400367D01*
X105011027Y-65253734D01*
X105282779Y-64982456D01*
X105430032Y-64627832D01*
X105430367Y-64243852D01*
X105283734Y-63888973D01*
X105012456Y-63617221D01*
X104657832Y-63469968D01*
X104505624Y-63469835D01*
X102610894Y-61575106D01*
X102380165Y-61420937D01*
X102108000Y-61366800D01*
X91541000Y-61366800D01*
X91268835Y-61420937D01*
X91038106Y-61575106D01*
X89189106Y-63424106D01*
X89034937Y-63654835D01*
X89034937Y-63654836D01*
X88980800Y-63927000D01*
X88980800Y-65020151D01*
X88874221Y-65126544D01*
X88726968Y-65481168D01*
X88726633Y-65865148D01*
X35711200Y-65865148D01*
X35711200Y-59563734D01*
X36215526Y-59563734D01*
X36456198Y-60146205D01*
X36901451Y-60592236D01*
X37483501Y-60833924D01*
X38113734Y-60834474D01*
X38696205Y-60593802D01*
X39142236Y-60148549D01*
X39383924Y-59566499D01*
X39384474Y-58936266D01*
X39143802Y-58353795D01*
X38698549Y-57907764D01*
X38116499Y-57666076D01*
X37486266Y-57665526D01*
X36903795Y-57906198D01*
X36457764Y-58351451D01*
X36216076Y-58933501D01*
X36215526Y-59563734D01*
X35711200Y-59563734D01*
X35711200Y-56954029D01*
X42623551Y-56954029D01*
X42841435Y-57481348D01*
X43244530Y-57885147D01*
X43376303Y-57939864D01*
X43246652Y-57993435D01*
X42842853Y-58396530D01*
X42624049Y-58923468D01*
X42623551Y-59494029D01*
X42841435Y-60021348D01*
X43244530Y-60425147D01*
X43376303Y-60479864D01*
X43246652Y-60533435D01*
X42842853Y-60936530D01*
X42624049Y-61463468D01*
X42623551Y-62034029D01*
X42841435Y-62561348D01*
X43244530Y-62965147D01*
X43771468Y-63183951D01*
X44342029Y-63184449D01*
X44869348Y-62966565D01*
X45273147Y-62563470D01*
X45491951Y-62036532D01*
X45492449Y-61465971D01*
X45450161Y-61363627D01*
X46522894Y-60290894D01*
X46677063Y-60060165D01*
X46731200Y-59788000D01*
X46731200Y-57764588D01*
X46840553Y-57655236D01*
X46991148Y-57655367D01*
X47346027Y-57508734D01*
X47617779Y-57237456D01*
X47765032Y-56882832D01*
X47765367Y-56498852D01*
X47618734Y-56143973D01*
X47347456Y-55872221D01*
X46992832Y-55724968D01*
X46608852Y-55724633D01*
X46253973Y-55871266D01*
X45982221Y-56142544D01*
X45834968Y-56497168D01*
X45834835Y-56649376D01*
X45517106Y-56967106D01*
X45439058Y-57083913D01*
X45491951Y-56956532D01*
X45492449Y-56385971D01*
X45274565Y-55858652D01*
X44871470Y-55454853D01*
X44344532Y-55236049D01*
X43773971Y-55235551D01*
X43246652Y-55453435D01*
X42842853Y-55856530D01*
X42624049Y-56383468D01*
X42623551Y-56954029D01*
X35711200Y-56954029D01*
X35711200Y-54402734D01*
X36383526Y-54402734D01*
X36624198Y-54985205D01*
X37069451Y-55431236D01*
X37651501Y-55672924D01*
X38281734Y-55673474D01*
X38864205Y-55432802D01*
X39310236Y-54987549D01*
X39551924Y-54405499D01*
X39552474Y-53775266D01*
X39311802Y-53192795D01*
X38866549Y-52746764D01*
X38284499Y-52505076D01*
X37654266Y-52504526D01*
X37071795Y-52745198D01*
X36625764Y-53190451D01*
X36384076Y-53772501D01*
X36383526Y-54402734D01*
X35711200Y-54402734D01*
X35711200Y-48879283D01*
X43709574Y-48879283D01*
X43907708Y-49358805D01*
X44274265Y-49726002D01*
X44753440Y-49924973D01*
X45272283Y-49925426D01*
X45751805Y-49727292D01*
X46119002Y-49360735D01*
X46317973Y-48881560D01*
X46317974Y-48879283D01*
X48789574Y-48879283D01*
X48987708Y-49358805D01*
X49354265Y-49726002D01*
X49833440Y-49924973D01*
X50352283Y-49925426D01*
X50831805Y-49727292D01*
X51199002Y-49360735D01*
X51397973Y-48881560D01*
X51398426Y-48362717D01*
X51200292Y-47883195D01*
X50833735Y-47515998D01*
X50354560Y-47317027D01*
X49835717Y-47316574D01*
X49356195Y-47514708D01*
X48988998Y-47881265D01*
X48790027Y-48360440D01*
X48789574Y-48879283D01*
X46317974Y-48879283D01*
X46318426Y-48362717D01*
X46120292Y-47883195D01*
X45753735Y-47515998D01*
X45274560Y-47317027D01*
X44755717Y-47316574D01*
X44276195Y-47514708D01*
X43908998Y-47881265D01*
X43710027Y-48360440D01*
X43709574Y-48879283D01*
X35711200Y-48879283D01*
X35711200Y-46241000D01*
X53236355Y-46241000D01*
X53236355Y-47761000D01*
X53277091Y-47977492D01*
X53405037Y-48176326D01*
X53600261Y-48309717D01*
X53832000Y-48356645D01*
X55352000Y-48356645D01*
X55568492Y-48315909D01*
X55767326Y-48187963D01*
X55900717Y-47992739D01*
X55947645Y-47761000D01*
X55947645Y-47654621D01*
X55991779Y-47761433D01*
X56369578Y-48139892D01*
X56863449Y-48344966D01*
X57398205Y-48345432D01*
X57892433Y-48141221D01*
X58270892Y-47763422D01*
X58475966Y-47269551D01*
X58476432Y-46734795D01*
X58272221Y-46240567D01*
X57894422Y-45862108D01*
X57400551Y-45657034D01*
X56865795Y-45656568D01*
X56371567Y-45860779D01*
X55993108Y-46238578D01*
X55947645Y-46348065D01*
X55947645Y-46241000D01*
X55906909Y-46024508D01*
X55778963Y-45825674D01*
X55583739Y-45692283D01*
X55352000Y-45645355D01*
X53832000Y-45645355D01*
X53615508Y-45686091D01*
X53416674Y-45814037D01*
X53283283Y-46009261D01*
X53236355Y-46241000D01*
X35711200Y-46241000D01*
X35711200Y-42631000D01*
X58493543Y-42631000D01*
X58574570Y-43038350D01*
X58805315Y-43383685D01*
X59150650Y-43614430D01*
X59558000Y-43695457D01*
X59965350Y-43614430D01*
X60310685Y-43383685D01*
X63382685Y-40311685D01*
X63613430Y-39966350D01*
X63694457Y-39559000D01*
X63694457Y-39528870D01*
X63795326Y-39463963D01*
X63928717Y-39268739D01*
X63975645Y-39037000D01*
X63975645Y-37737000D01*
X63934909Y-37520508D01*
X63806963Y-37321674D01*
X63611739Y-37188283D01*
X63380000Y-37141355D01*
X61880000Y-37141355D01*
X61663508Y-37182091D01*
X61464674Y-37310037D01*
X61331283Y-37505261D01*
X61284355Y-37737000D01*
X61284355Y-39037000D01*
X61325091Y-39253492D01*
X61366221Y-39317409D01*
X58805315Y-41878315D01*
X58574570Y-42223650D01*
X58493543Y-42631000D01*
X35711200Y-42631000D01*
X35711200Y-31711200D01*
X66503893Y-31711200D01*
X66473355Y-31862000D01*
X66473355Y-31862000D01*
G37*
X66473355Y-31862000D02*
X66473355Y-33162000D01*
X66514091Y-33378492D01*
X66642037Y-33577326D01*
X66757120Y-33655959D01*
X66632674Y-33736037D01*
X66547597Y-33860551D01*
X66474963Y-33747674D01*
X66279739Y-33614283D01*
X66048000Y-33567355D01*
X64548000Y-33567355D01*
X64331508Y-33608091D01*
X64132674Y-33736037D01*
X63999283Y-33931261D01*
X63952355Y-34163000D01*
X63952355Y-35413000D01*
X63993091Y-35629492D01*
X64121037Y-35828326D01*
X64316261Y-35961717D01*
X64548000Y-36008645D01*
X64618800Y-36008645D01*
X64618800Y-37141355D01*
X64580000Y-37141355D01*
X64363508Y-37182091D01*
X64164674Y-37310037D01*
X64031283Y-37505261D01*
X63984355Y-37737000D01*
X63984355Y-39037000D01*
X64025091Y-39253492D01*
X64153037Y-39452326D01*
X64348261Y-39585717D01*
X64580000Y-39632645D01*
X64739800Y-39632645D01*
X64739800Y-49151871D01*
X64584508Y-49181091D01*
X64385674Y-49309037D01*
X64252283Y-49504261D01*
X64205355Y-49736000D01*
X64205355Y-51236000D01*
X64246091Y-51452492D01*
X64374037Y-51651326D01*
X64569261Y-51784717D01*
X64801000Y-51831645D01*
X66101000Y-51831645D01*
X66317492Y-51790909D01*
X66516326Y-51662963D01*
X66649717Y-51467739D01*
X66696645Y-51236000D01*
X66696645Y-51227200D01*
X70995871Y-51227200D01*
X71025091Y-51382492D01*
X71153037Y-51581326D01*
X71348261Y-51714717D01*
X71580000Y-51761645D01*
X73080000Y-51761645D01*
X73296492Y-51720909D01*
X73495326Y-51592963D01*
X73628717Y-51397739D01*
X73675645Y-51166000D01*
X73675645Y-49866000D01*
X73634909Y-49649508D01*
X73506963Y-49450674D01*
X73311739Y-49317283D01*
X73080000Y-49270355D01*
X71580000Y-49270355D01*
X71363508Y-49311091D01*
X71164674Y-49439037D01*
X71031283Y-49634261D01*
X70996748Y-49804800D01*
X66696645Y-49804800D01*
X66696645Y-49736000D01*
X66655909Y-49519508D01*
X66527963Y-49320674D01*
X66332739Y-49187283D01*
X66162200Y-49152748D01*
X66162200Y-39617178D01*
X66296492Y-39591909D01*
X66495326Y-39463963D01*
X66628717Y-39268739D01*
X66675645Y-39037000D01*
X66675645Y-37737000D01*
X66634909Y-37520508D01*
X66506963Y-37321674D01*
X66311739Y-37188283D01*
X66080000Y-37141355D01*
X66041200Y-37141355D01*
X66041200Y-36008645D01*
X66048000Y-36008645D01*
X66264492Y-35967909D01*
X66463326Y-35839963D01*
X66548403Y-35715449D01*
X66621037Y-35828326D01*
X66816261Y-35961717D01*
X67048000Y-36008645D01*
X67086800Y-36008645D01*
X67086800Y-43296000D01*
X67140937Y-43568165D01*
X67295106Y-43798894D01*
X68597415Y-45101204D01*
X68584028Y-45133443D01*
X68583572Y-45656264D01*
X68783226Y-46139462D01*
X69152593Y-46509475D01*
X69635443Y-46709972D01*
X70158264Y-46710428D01*
X70641462Y-46510774D01*
X71011475Y-46141407D01*
X71168138Y-45764121D01*
X71323226Y-46139462D01*
X71692593Y-46509475D01*
X72175443Y-46709972D01*
X72698264Y-46710428D01*
X73181462Y-46510774D01*
X73551475Y-46141407D01*
X73708138Y-45764121D01*
X73863226Y-46139462D01*
X74232593Y-46509475D01*
X74318800Y-46545271D01*
X74318800Y-49270355D01*
X74280000Y-49270355D01*
X74063508Y-49311091D01*
X73864674Y-49439037D01*
X73731283Y-49634261D01*
X73684355Y-49866000D01*
X73684355Y-51166000D01*
X73725091Y-51382492D01*
X73853037Y-51581326D01*
X74048261Y-51714717D01*
X74280000Y-51761645D01*
X75366567Y-51761645D01*
X75272797Y-51855415D01*
X75240557Y-51842028D01*
X74717736Y-51841572D01*
X74234538Y-52041226D01*
X73864525Y-52410593D01*
X73707862Y-52787879D01*
X73552774Y-52412538D01*
X73183407Y-52042525D01*
X72700557Y-51842028D01*
X72177736Y-51841572D01*
X71694538Y-52041226D01*
X71324525Y-52410593D01*
X71167862Y-52787879D01*
X71012774Y-52412538D01*
X70643407Y-52042525D01*
X70160557Y-51842028D01*
X69637736Y-51841572D01*
X69154538Y-52041226D01*
X68784525Y-52410593D01*
X68770321Y-52444800D01*
X66696645Y-52444800D01*
X66696645Y-52436000D01*
X66655909Y-52219508D01*
X66527963Y-52020674D01*
X66332739Y-51887283D01*
X66101000Y-51840355D01*
X64801000Y-51840355D01*
X64584508Y-51881091D01*
X64385674Y-52009037D01*
X64252283Y-52204261D01*
X64205355Y-52436000D01*
X64205355Y-53936000D01*
X64246091Y-54152492D01*
X64374037Y-54351326D01*
X64569261Y-54484717D01*
X64693800Y-54509937D01*
X64693800Y-55961715D01*
X64667195Y-55972708D01*
X64299998Y-56339265D01*
X64101027Y-56818440D01*
X64100574Y-57337283D01*
X64298708Y-57816805D01*
X64665265Y-58184002D01*
X65144440Y-58382973D01*
X65663283Y-58383426D01*
X66142805Y-58185292D01*
X66510002Y-57818735D01*
X66675161Y-57420989D01*
X66838708Y-57816805D01*
X67205265Y-58184002D01*
X67684440Y-58382973D01*
X68203283Y-58383426D01*
X68682805Y-58185292D01*
X69050002Y-57818735D01*
X69215161Y-57420989D01*
X69378708Y-57816805D01*
X69745265Y-58184002D01*
X70224440Y-58382973D01*
X70743283Y-58383426D01*
X71222805Y-58185292D01*
X71590002Y-57818735D01*
X71788973Y-57339560D01*
X71789426Y-56820717D01*
X71591292Y-56341195D01*
X71224735Y-55973998D01*
X70801523Y-55798265D01*
X72143203Y-54456585D01*
X72175443Y-54469972D01*
X72698264Y-54470428D01*
X73181462Y-54270774D01*
X73551475Y-53901407D01*
X73708138Y-53524121D01*
X73863226Y-53899462D01*
X74232593Y-54269475D01*
X74715443Y-54469972D01*
X75238264Y-54470428D01*
X75721462Y-54270774D01*
X76091475Y-53901407D01*
X76248138Y-53524121D01*
X76403226Y-53899462D01*
X76772593Y-54269475D01*
X77255443Y-54469972D01*
X77778264Y-54470428D01*
X78261462Y-54270774D01*
X78631475Y-53901407D01*
X78788138Y-53524121D01*
X78943226Y-53899462D01*
X79312593Y-54269475D01*
X79795443Y-54469972D01*
X80318264Y-54470428D01*
X80801462Y-54270774D01*
X81171475Y-53901407D01*
X81328138Y-53524121D01*
X81483226Y-53899462D01*
X81852593Y-54269475D01*
X82335443Y-54469972D01*
X82858264Y-54470428D01*
X83341462Y-54270774D01*
X83711475Y-53901407D01*
X83868138Y-53524121D01*
X84023226Y-53899462D01*
X84392593Y-54269475D01*
X84875443Y-54469972D01*
X85398264Y-54470428D01*
X85881462Y-54270774D01*
X86251475Y-53901407D01*
X86451972Y-53418557D01*
X86452428Y-52895736D01*
X86252774Y-52412538D01*
X85883407Y-52042525D01*
X85853725Y-52030200D01*
X86192412Y-52030200D01*
X88155106Y-53992895D01*
X88385836Y-54147063D01*
X88658000Y-54201200D01*
X112353355Y-54201200D01*
X112353355Y-54240000D01*
X112394091Y-54456492D01*
X112522037Y-54655326D01*
X112646551Y-54740403D01*
X112533674Y-54813037D01*
X112400283Y-55008261D01*
X112353355Y-55240000D01*
X112353355Y-56740000D01*
X112394091Y-56956492D01*
X112522037Y-57155326D01*
X112717261Y-57288717D01*
X112862800Y-57318189D01*
X112862800Y-57415125D01*
X112771221Y-57506544D01*
X112623968Y-57861168D01*
X112623633Y-58245148D01*
X112770266Y-58600027D01*
X113041544Y-58871779D01*
X113396168Y-59019032D01*
X113780148Y-59019367D01*
X114135027Y-58872734D01*
X114406779Y-58601456D01*
X114554032Y-58246832D01*
X114554367Y-57862852D01*
X114407734Y-57507973D01*
X114285200Y-57385225D01*
X114285200Y-57319425D01*
X114415492Y-57294909D01*
X114614326Y-57166963D01*
X114747717Y-56971739D01*
X114794645Y-56740000D01*
X114794645Y-55240000D01*
X114753909Y-55023508D01*
X114625963Y-54824674D01*
X114501449Y-54739597D01*
X114614326Y-54666963D01*
X114747717Y-54471739D01*
X114794645Y-54240000D01*
X114794645Y-52740000D01*
X114753909Y-52523508D01*
X114625963Y-52324674D01*
X114430739Y-52191283D01*
X114199000Y-52144355D01*
X112949000Y-52144355D01*
X112732508Y-52185091D01*
X112533674Y-52313037D01*
X112400283Y-52508261D01*
X112353355Y-52740000D01*
X112353355Y-52778800D01*
X88952589Y-52778800D01*
X86989894Y-50816106D01*
X86759165Y-50661937D01*
X86487000Y-50607800D01*
X76815000Y-50607800D01*
X76542836Y-50661937D01*
X76542834Y-50661938D01*
X76542835Y-50661938D01*
X76375645Y-50773650D01*
X76375645Y-49866000D01*
X76334909Y-49649508D01*
X76206963Y-49450674D01*
X76011739Y-49317283D01*
X75780000Y-49270355D01*
X75741200Y-49270355D01*
X75741200Y-46491070D01*
X76091475Y-46141407D01*
X76291972Y-45658557D01*
X76291973Y-45656264D01*
X78743572Y-45656264D01*
X78943226Y-46139462D01*
X79312593Y-46509475D01*
X79795443Y-46709972D01*
X80318264Y-46710428D01*
X80801462Y-46510774D01*
X81171475Y-46141407D01*
X81328138Y-45764121D01*
X81483226Y-46139462D01*
X81852593Y-46509475D01*
X82335443Y-46709972D01*
X82858264Y-46710428D01*
X83341462Y-46510774D01*
X83711475Y-46141407D01*
X83868138Y-45764121D01*
X84023226Y-46139462D01*
X84392593Y-46509475D01*
X84875443Y-46709972D01*
X85398264Y-46710428D01*
X85881462Y-46510774D01*
X86251475Y-46141407D01*
X86451972Y-45658557D01*
X86452428Y-45135736D01*
X86252774Y-44652538D01*
X85883407Y-44282525D01*
X85849200Y-44268321D01*
X85849200Y-42903734D01*
X87745526Y-42903734D01*
X87986198Y-43486205D01*
X88431451Y-43932236D01*
X89013501Y-44173924D01*
X89643734Y-44174474D01*
X90226205Y-43933802D01*
X90672236Y-43488549D01*
X90913924Y-42906499D01*
X90914474Y-42276266D01*
X90673802Y-41693795D01*
X90228549Y-41247764D01*
X89646499Y-41006076D01*
X89016266Y-41005526D01*
X88433795Y-41246198D01*
X87987764Y-41691451D01*
X87746076Y-42273501D01*
X87745526Y-42903734D01*
X85849200Y-42903734D01*
X85849200Y-37582734D01*
X98130526Y-37582734D01*
X98371198Y-38165205D01*
X98816451Y-38611236D01*
X99398501Y-38852924D01*
X100028734Y-38853474D01*
X100611205Y-38612802D01*
X101057236Y-38167549D01*
X101298924Y-37585499D01*
X101299474Y-36955266D01*
X101058802Y-36372795D01*
X100613549Y-35926764D01*
X100031499Y-35685076D01*
X99401266Y-35684526D01*
X98818795Y-35925198D01*
X98372764Y-36370451D01*
X98131076Y-36952501D01*
X98130526Y-37582734D01*
X85849200Y-37582734D01*
X85849200Y-35293000D01*
X85795063Y-35020836D01*
X85660869Y-34820000D01*
X85640895Y-34790106D01*
X85382176Y-34531387D01*
X85382379Y-34298187D01*
X85225263Y-33917938D01*
X84934592Y-33626759D01*
X84554618Y-33468980D01*
X84143187Y-33468621D01*
X83762938Y-33625737D01*
X83471759Y-33916408D01*
X83313980Y-34296382D01*
X83313621Y-34707813D01*
X83470737Y-35088062D01*
X83761408Y-35379241D01*
X84141382Y-35537020D01*
X84376436Y-35537225D01*
X84426800Y-35587589D01*
X84426800Y-44267896D01*
X84394538Y-44281226D01*
X84024525Y-44650593D01*
X83867862Y-45027879D01*
X83712774Y-44652538D01*
X83343407Y-44282525D01*
X82860557Y-44082028D01*
X82337736Y-44081572D01*
X81854538Y-44281226D01*
X81484525Y-44650593D01*
X81327862Y-45027879D01*
X81172774Y-44652538D01*
X80803407Y-44282525D01*
X80769200Y-44268321D01*
X80769200Y-42867588D01*
X81942613Y-41694176D01*
X82175813Y-41694379D01*
X82556062Y-41537263D01*
X82847241Y-41246592D01*
X83005020Y-40866618D01*
X83005379Y-40455187D01*
X82848263Y-40074938D01*
X82557592Y-39783759D01*
X82177618Y-39625980D01*
X81766187Y-39625621D01*
X81385938Y-39782737D01*
X81094759Y-40073408D01*
X80936980Y-40453382D01*
X80936775Y-40688436D01*
X79555106Y-42070106D01*
X79400937Y-42300835D01*
X79400937Y-42300836D01*
X79346800Y-42573000D01*
X79346800Y-44267896D01*
X79314538Y-44281226D01*
X78944525Y-44650593D01*
X78744028Y-45133443D01*
X78743572Y-45656264D01*
X76291973Y-45656264D01*
X76292428Y-45135736D01*
X76092774Y-44652538D01*
X75723407Y-44282525D01*
X75240557Y-44082028D01*
X74717736Y-44081572D01*
X74234538Y-44281226D01*
X73864525Y-44650593D01*
X73707862Y-45027879D01*
X73602618Y-44773170D01*
X76411613Y-41964176D01*
X76644813Y-41964379D01*
X77025062Y-41807263D01*
X77316241Y-41516592D01*
X77474020Y-41136618D01*
X77474379Y-40725187D01*
X77317263Y-40344938D01*
X77026592Y-40053759D01*
X76646618Y-39895980D01*
X76235187Y-39895621D01*
X75854938Y-40052737D01*
X75563759Y-40343408D01*
X75405980Y-40723382D01*
X75405775Y-40958436D01*
X72282548Y-44081663D01*
X72177736Y-44081572D01*
X72143504Y-44095716D01*
X71230200Y-43182412D01*
X71230200Y-33757645D01*
X71269000Y-33757645D01*
X71485492Y-33716909D01*
X71684326Y-33588963D01*
X71817717Y-33393739D01*
X71864645Y-33162000D01*
X71864645Y-31862000D01*
X71836270Y-31711200D01*
X120288800Y-31711200D01*
X120288800Y-85288800D01*
X71480621Y-85288800D01*
X71599205Y-85239802D01*
X72045236Y-84794549D01*
X72286924Y-84212499D01*
X72287474Y-83582266D01*
X72046802Y-82999795D01*
X71673398Y-82625738D01*
X72045236Y-82254549D01*
X72286924Y-81672499D01*
X72287474Y-81042266D01*
X72046802Y-80459795D01*
X71673398Y-80085738D01*
X72045236Y-79714549D01*
X72286924Y-79132499D01*
X72287474Y-78502266D01*
X72046802Y-77919795D01*
X71601549Y-77473764D01*
X71330340Y-77361148D01*
X99123633Y-77361148D01*
X99270266Y-77716027D01*
X99541544Y-77987779D01*
X99896168Y-78135032D01*
X100233772Y-78135327D01*
X100233633Y-78294148D01*
X100347505Y-78569740D01*
X100233968Y-78843168D01*
X100233633Y-79227148D01*
X100380266Y-79582027D01*
X100651544Y-79853779D01*
X101006168Y-80001032D01*
X101390148Y-80001367D01*
X101745027Y-79854734D01*
X102016779Y-79583456D01*
X102164032Y-79228832D01*
X102164367Y-78844852D01*
X102050495Y-78569260D01*
X102164032Y-78295832D01*
X102164172Y-78135074D01*
X102500148Y-78135367D01*
X102855027Y-77988734D01*
X103126779Y-77717456D01*
X103274032Y-77362832D01*
X103274367Y-76978852D01*
X103127734Y-76623973D01*
X102856456Y-76352221D01*
X102501832Y-76204968D01*
X102117852Y-76204633D01*
X101762973Y-76351266D01*
X101754223Y-76360001D01*
X101746456Y-76352221D01*
X101391832Y-76204968D01*
X101007852Y-76204633D01*
X100652973Y-76351266D01*
X100644223Y-76360001D01*
X100636456Y-76352221D01*
X100281832Y-76204968D01*
X99897852Y-76204633D01*
X99542973Y-76351266D01*
X99271221Y-76622544D01*
X99123968Y-76977168D01*
X99123633Y-77361148D01*
X71330340Y-77361148D01*
X71019499Y-77232076D01*
X70389266Y-77231526D01*
X69806795Y-77472198D01*
X69360764Y-77917451D01*
X69119076Y-78499501D01*
X69118526Y-79129734D01*
X69359198Y-79712205D01*
X69732602Y-80086262D01*
X69360764Y-80457451D01*
X69119076Y-81039501D01*
X69118526Y-81669734D01*
X69359198Y-82252205D01*
X69732602Y-82626262D01*
X69432738Y-82925602D01*
X69061549Y-82553764D01*
X68479499Y-82312076D01*
X67849266Y-82311526D01*
X67266795Y-82552198D01*
X66892738Y-82925602D01*
X66521549Y-82553764D01*
X65939499Y-82312076D01*
X65309266Y-82311526D01*
X64726795Y-82552198D01*
X64352738Y-82925602D01*
X63981549Y-82553764D01*
X63399499Y-82312076D01*
X62769266Y-82311526D01*
X62186795Y-82552198D01*
X61812738Y-82925602D01*
X61441549Y-82553764D01*
X60859499Y-82312076D01*
X60229266Y-82311526D01*
X59646795Y-82552198D01*
X59272738Y-82925602D01*
X58901549Y-82553764D01*
X58319499Y-82312076D01*
X57689266Y-82311526D01*
X57106795Y-82552198D01*
X56732738Y-82925602D01*
X56361549Y-82553764D01*
X55779499Y-82312076D01*
X55149266Y-82311526D01*
X54566795Y-82552198D01*
X54192738Y-82925602D01*
X53821549Y-82553764D01*
X53239499Y-82312076D01*
X52609266Y-82311526D01*
X52026795Y-82552198D01*
X51652738Y-82925602D01*
X51281549Y-82553764D01*
X50699499Y-82312076D01*
X50069266Y-82311526D01*
X49486795Y-82552198D01*
X49112738Y-82925602D01*
X48741549Y-82553764D01*
X48159499Y-82312076D01*
X47529266Y-82311526D01*
X46946795Y-82552198D01*
X46572738Y-82925602D01*
X46201549Y-82553764D01*
X45619499Y-82312076D01*
X44989266Y-82311526D01*
X44406795Y-82552198D01*
X44032738Y-82925602D01*
X43661549Y-82553764D01*
X43079499Y-82312076D01*
X42449266Y-82311526D01*
X41866795Y-82552198D01*
X41492738Y-82925602D01*
X41121549Y-82553764D01*
X40539499Y-82312076D01*
X39909266Y-82311526D01*
X39326795Y-82552198D01*
X38880764Y-82997451D01*
X38639076Y-83579501D01*
X38638526Y-84209734D01*
X38879198Y-84792205D01*
X39324451Y-85238236D01*
X39446223Y-85288800D01*
X35711200Y-85288800D01*
X35711200Y-68969734D01*
X36098526Y-68969734D01*
X36339198Y-69552205D01*
X36784451Y-69998236D01*
X37366501Y-70239924D01*
X37996734Y-70240474D01*
X38579205Y-69999802D01*
X38953262Y-69626398D01*
X39252602Y-69926262D01*
X38880764Y-70297451D01*
X38639076Y-70879501D01*
X38638526Y-71509734D01*
X38879198Y-72092205D01*
X39324451Y-72538236D01*
X39906501Y-72779924D01*
X40536734Y-72780474D01*
X41119205Y-72539802D01*
X41565236Y-72094549D01*
X41806924Y-71512499D01*
X41807474Y-70882266D01*
X41566802Y-70299795D01*
X41193398Y-69925738D01*
X41493262Y-69626398D01*
X41864451Y-69998236D01*
X42446501Y-70239924D01*
X43076734Y-70240474D01*
X43659205Y-69999802D01*
X44033262Y-69626398D01*
X44332602Y-69926262D01*
X43960764Y-70297451D01*
X43719076Y-70879501D01*
X43718526Y-71509734D01*
X43959198Y-72092205D01*
X44404451Y-72538236D01*
X44986501Y-72779924D01*
X45616734Y-72780474D01*
X46199205Y-72539802D01*
X46573262Y-72166398D01*
X46944451Y-72538236D01*
X47526501Y-72779924D01*
X48156734Y-72780474D01*
X48739205Y-72539802D01*
X49113262Y-72166398D01*
X49484451Y-72538236D01*
X50066501Y-72779924D01*
X50696734Y-72780474D01*
X51279205Y-72539802D01*
X51725236Y-72094549D01*
X51966924Y-71512499D01*
X51967474Y-70882266D01*
X51726802Y-70299795D01*
X51353398Y-69925738D01*
X51653262Y-69626398D01*
X52024451Y-69998236D01*
X52606501Y-70239924D01*
X53236734Y-70240474D01*
X53819205Y-69999802D01*
X54193262Y-69626398D01*
X54564451Y-69998236D01*
X55146501Y-70239924D01*
X55776734Y-70240474D01*
X56359205Y-69999802D01*
X56733262Y-69626398D01*
X57104451Y-69998236D01*
X57686501Y-70239924D01*
X58316734Y-70240474D01*
X58899205Y-69999802D01*
X59273262Y-69626398D01*
X59644451Y-69998236D01*
X60226501Y-70239924D01*
X60856734Y-70240474D01*
X61439205Y-69999802D01*
X61813262Y-69626398D01*
X62184451Y-69998236D01*
X62766501Y-70239924D01*
X63396734Y-70240474D01*
X63979205Y-69999802D01*
X64353262Y-69626398D01*
X64724451Y-69998236D01*
X65306501Y-70239924D01*
X65936734Y-70240474D01*
X66519205Y-69999802D01*
X66893262Y-69626398D01*
X67264451Y-69998236D01*
X67846501Y-70239924D01*
X68476734Y-70240474D01*
X69059205Y-69999802D01*
X69433262Y-69626398D01*
X69732602Y-69926262D01*
X69360764Y-70297451D01*
X69119076Y-70879501D01*
X69118526Y-71509734D01*
X69359198Y-72092205D01*
X69732602Y-72466262D01*
X69360764Y-72837451D01*
X69119076Y-73419501D01*
X69118526Y-74049734D01*
X69359198Y-74632205D01*
X69804451Y-75078236D01*
X70386501Y-75319924D01*
X71016734Y-75320474D01*
X71599205Y-75079802D01*
X72045236Y-74634549D01*
X72286924Y-74052499D01*
X72287474Y-73422266D01*
X72046802Y-72839795D01*
X71673398Y-72465738D01*
X72045236Y-72094549D01*
X72286924Y-71512499D01*
X72287474Y-70882266D01*
X72046802Y-70299795D01*
X71673398Y-69925738D01*
X72045236Y-69554549D01*
X72286924Y-68972499D01*
X72287474Y-68342266D01*
X72229579Y-68202148D01*
X74950633Y-68202148D01*
X75097266Y-68557027D01*
X75368544Y-68828779D01*
X75723168Y-68976032D01*
X76107148Y-68976367D01*
X76462027Y-68829734D01*
X76569749Y-68722200D01*
X89283186Y-68722200D01*
X89409544Y-68848779D01*
X89764168Y-68996032D01*
X90148148Y-68996367D01*
X90503027Y-68849734D01*
X90774779Y-68578456D01*
X90922032Y-68223832D01*
X90922367Y-67839852D01*
X90775734Y-67484973D01*
X90504456Y-67213221D01*
X90149832Y-67065968D01*
X89765852Y-67065633D01*
X89410973Y-67212266D01*
X89323286Y-67299800D01*
X76569849Y-67299800D01*
X76463456Y-67193221D01*
X76108832Y-67045968D01*
X75724852Y-67045633D01*
X75369973Y-67192266D01*
X75098221Y-67463544D01*
X74950968Y-67818168D01*
X74950633Y-68202148D01*
X72229579Y-68202148D01*
X72046802Y-67759795D01*
X71601549Y-67313764D01*
X71019499Y-67072076D01*
X70389266Y-67071526D01*
X69806795Y-67312198D01*
X69432738Y-67685602D01*
X69061549Y-67313764D01*
X68479499Y-67072076D01*
X67849266Y-67071526D01*
X67266795Y-67312198D01*
X66892738Y-67685602D01*
X66521549Y-67313764D01*
X65939499Y-67072076D01*
X65309266Y-67071526D01*
X64726795Y-67312198D01*
X64352738Y-67685602D01*
X63981549Y-67313764D01*
X63399499Y-67072076D01*
X62769266Y-67071526D01*
X62186795Y-67312198D01*
X61812738Y-67685602D01*
X61441549Y-67313764D01*
X60859499Y-67072076D01*
X60229266Y-67071526D01*
X59646795Y-67312198D01*
X59272738Y-67685602D01*
X58901549Y-67313764D01*
X58319499Y-67072076D01*
X57689266Y-67071526D01*
X57106795Y-67312198D01*
X56732738Y-67685602D01*
X56361549Y-67313764D01*
X55779499Y-67072076D01*
X55149266Y-67071526D01*
X54566795Y-67312198D01*
X54192738Y-67685602D01*
X53821549Y-67313764D01*
X53239499Y-67072076D01*
X52609266Y-67071526D01*
X52026795Y-67312198D01*
X51652738Y-67685602D01*
X51281549Y-67313764D01*
X50699499Y-67072076D01*
X50069266Y-67071526D01*
X49486795Y-67312198D01*
X49112738Y-67685602D01*
X48741549Y-67313764D01*
X48159499Y-67072076D01*
X47529266Y-67071526D01*
X46946795Y-67312198D01*
X46572738Y-67685602D01*
X46201549Y-67313764D01*
X45619499Y-67072076D01*
X44989266Y-67071526D01*
X44406795Y-67312198D01*
X44032738Y-67685602D01*
X43661549Y-67313764D01*
X43079499Y-67072076D01*
X42449266Y-67071526D01*
X41866795Y-67312198D01*
X41492738Y-67685602D01*
X41121549Y-67313764D01*
X40539499Y-67072076D01*
X39909266Y-67071526D01*
X39326795Y-67312198D01*
X38952738Y-67685602D01*
X38581549Y-67313764D01*
X37999499Y-67072076D01*
X37369266Y-67071526D01*
X36786795Y-67312198D01*
X36340764Y-67757451D01*
X36099076Y-68339501D01*
X36098526Y-68969734D01*
X35711200Y-68969734D01*
X35711200Y-66912148D01*
X95930633Y-66912148D01*
X96077266Y-67267027D01*
X96348544Y-67538779D01*
X96703168Y-67686032D01*
X97087148Y-67686367D01*
X97442027Y-67539734D01*
X97549749Y-67432200D01*
X100341151Y-67432200D01*
X100447544Y-67538779D01*
X100802168Y-67686032D01*
X101186148Y-67686367D01*
X101541027Y-67539734D01*
X101812779Y-67268456D01*
X101960032Y-66913832D01*
X101960367Y-66529852D01*
X101813734Y-66174973D01*
X101542456Y-65903221D01*
X101187832Y-65755968D01*
X100803852Y-65755633D01*
X100448973Y-65902266D01*
X100341251Y-66009800D01*
X97549849Y-66009800D01*
X97443456Y-65903221D01*
X97088832Y-65755968D01*
X96704852Y-65755633D01*
X96349973Y-65902266D01*
X96078221Y-66173544D01*
X95930968Y-66528168D01*
X95930633Y-66912148D01*
X35711200Y-66912148D01*
X35711200Y-65865148D01*
X88726633Y-65865148D01*
X88873266Y-66220027D01*
X89144544Y-66491779D01*
X89499168Y-66639032D01*
X89883148Y-66639367D01*
X90238027Y-66492734D01*
X90509779Y-66221456D01*
X90657032Y-65866832D01*
X90657367Y-65482852D01*
X90510734Y-65127973D01*
X90403200Y-65020251D01*
X90403200Y-64221588D01*
X91835588Y-62789200D01*
X101813412Y-62789200D01*
X103499764Y-64475553D01*
X103499633Y-64626148D01*
X103646266Y-64981027D01*
X103917544Y-65252779D01*
X104272168Y-65400032D01*
X104656148Y-65400367D01*
X105011027Y-65253734D01*
X105282779Y-64982456D01*
X105430032Y-64627832D01*
X105430367Y-64243852D01*
X105283734Y-63888973D01*
X105012456Y-63617221D01*
X104657832Y-63469968D01*
X104505624Y-63469835D01*
X102610894Y-61575106D01*
X102380165Y-61420937D01*
X102108000Y-61366800D01*
X91541000Y-61366800D01*
X91268835Y-61420937D01*
X91038106Y-61575106D01*
X89189106Y-63424106D01*
X89034937Y-63654835D01*
X89034937Y-63654836D01*
X88980800Y-63927000D01*
X88980800Y-65020151D01*
X88874221Y-65126544D01*
X88726968Y-65481168D01*
X88726633Y-65865148D01*
X35711200Y-65865148D01*
X35711200Y-59563734D01*
X36215526Y-59563734D01*
X36456198Y-60146205D01*
X36901451Y-60592236D01*
X37483501Y-60833924D01*
X38113734Y-60834474D01*
X38696205Y-60593802D01*
X39142236Y-60148549D01*
X39383924Y-59566499D01*
X39384474Y-58936266D01*
X39143802Y-58353795D01*
X38698549Y-57907764D01*
X38116499Y-57666076D01*
X37486266Y-57665526D01*
X36903795Y-57906198D01*
X36457764Y-58351451D01*
X36216076Y-58933501D01*
X36215526Y-59563734D01*
X35711200Y-59563734D01*
X35711200Y-56954029D01*
X42623551Y-56954029D01*
X42841435Y-57481348D01*
X43244530Y-57885147D01*
X43376303Y-57939864D01*
X43246652Y-57993435D01*
X42842853Y-58396530D01*
X42624049Y-58923468D01*
X42623551Y-59494029D01*
X42841435Y-60021348D01*
X43244530Y-60425147D01*
X43376303Y-60479864D01*
X43246652Y-60533435D01*
X42842853Y-60936530D01*
X42624049Y-61463468D01*
X42623551Y-62034029D01*
X42841435Y-62561348D01*
X43244530Y-62965147D01*
X43771468Y-63183951D01*
X44342029Y-63184449D01*
X44869348Y-62966565D01*
X45273147Y-62563470D01*
X45491951Y-62036532D01*
X45492449Y-61465971D01*
X45450161Y-61363627D01*
X46522894Y-60290894D01*
X46677063Y-60060165D01*
X46731200Y-59788000D01*
X46731200Y-57764588D01*
X46840553Y-57655236D01*
X46991148Y-57655367D01*
X47346027Y-57508734D01*
X47617779Y-57237456D01*
X47765032Y-56882832D01*
X47765367Y-56498852D01*
X47618734Y-56143973D01*
X47347456Y-55872221D01*
X46992832Y-55724968D01*
X46608852Y-55724633D01*
X46253973Y-55871266D01*
X45982221Y-56142544D01*
X45834968Y-56497168D01*
X45834835Y-56649376D01*
X45517106Y-56967106D01*
X45439058Y-57083913D01*
X45491951Y-56956532D01*
X45492449Y-56385971D01*
X45274565Y-55858652D01*
X44871470Y-55454853D01*
X44344532Y-55236049D01*
X43773971Y-55235551D01*
X43246652Y-55453435D01*
X42842853Y-55856530D01*
X42624049Y-56383468D01*
X42623551Y-56954029D01*
X35711200Y-56954029D01*
X35711200Y-54402734D01*
X36383526Y-54402734D01*
X36624198Y-54985205D01*
X37069451Y-55431236D01*
X37651501Y-55672924D01*
X38281734Y-55673474D01*
X38864205Y-55432802D01*
X39310236Y-54987549D01*
X39551924Y-54405499D01*
X39552474Y-53775266D01*
X39311802Y-53192795D01*
X38866549Y-52746764D01*
X38284499Y-52505076D01*
X37654266Y-52504526D01*
X37071795Y-52745198D01*
X36625764Y-53190451D01*
X36384076Y-53772501D01*
X36383526Y-54402734D01*
X35711200Y-54402734D01*
X35711200Y-48879283D01*
X43709574Y-48879283D01*
X43907708Y-49358805D01*
X44274265Y-49726002D01*
X44753440Y-49924973D01*
X45272283Y-49925426D01*
X45751805Y-49727292D01*
X46119002Y-49360735D01*
X46317973Y-48881560D01*
X46317974Y-48879283D01*
X48789574Y-48879283D01*
X48987708Y-49358805D01*
X49354265Y-49726002D01*
X49833440Y-49924973D01*
X50352283Y-49925426D01*
X50831805Y-49727292D01*
X51199002Y-49360735D01*
X51397973Y-48881560D01*
X51398426Y-48362717D01*
X51200292Y-47883195D01*
X50833735Y-47515998D01*
X50354560Y-47317027D01*
X49835717Y-47316574D01*
X49356195Y-47514708D01*
X48988998Y-47881265D01*
X48790027Y-48360440D01*
X48789574Y-48879283D01*
X46317974Y-48879283D01*
X46318426Y-48362717D01*
X46120292Y-47883195D01*
X45753735Y-47515998D01*
X45274560Y-47317027D01*
X44755717Y-47316574D01*
X44276195Y-47514708D01*
X43908998Y-47881265D01*
X43710027Y-48360440D01*
X43709574Y-48879283D01*
X35711200Y-48879283D01*
X35711200Y-46241000D01*
X53236355Y-46241000D01*
X53236355Y-47761000D01*
X53277091Y-47977492D01*
X53405037Y-48176326D01*
X53600261Y-48309717D01*
X53832000Y-48356645D01*
X55352000Y-48356645D01*
X55568492Y-48315909D01*
X55767326Y-48187963D01*
X55900717Y-47992739D01*
X55947645Y-47761000D01*
X55947645Y-47654621D01*
X55991779Y-47761433D01*
X56369578Y-48139892D01*
X56863449Y-48344966D01*
X57398205Y-48345432D01*
X57892433Y-48141221D01*
X58270892Y-47763422D01*
X58475966Y-47269551D01*
X58476432Y-46734795D01*
X58272221Y-46240567D01*
X57894422Y-45862108D01*
X57400551Y-45657034D01*
X56865795Y-45656568D01*
X56371567Y-45860779D01*
X55993108Y-46238578D01*
X55947645Y-46348065D01*
X55947645Y-46241000D01*
X55906909Y-46024508D01*
X55778963Y-45825674D01*
X55583739Y-45692283D01*
X55352000Y-45645355D01*
X53832000Y-45645355D01*
X53615508Y-45686091D01*
X53416674Y-45814037D01*
X53283283Y-46009261D01*
X53236355Y-46241000D01*
X35711200Y-46241000D01*
X35711200Y-42631000D01*
X58493543Y-42631000D01*
X58574570Y-43038350D01*
X58805315Y-43383685D01*
X59150650Y-43614430D01*
X59558000Y-43695457D01*
X59965350Y-43614430D01*
X60310685Y-43383685D01*
X63382685Y-40311685D01*
X63613430Y-39966350D01*
X63694457Y-39559000D01*
X63694457Y-39528870D01*
X63795326Y-39463963D01*
X63928717Y-39268739D01*
X63975645Y-39037000D01*
X63975645Y-37737000D01*
X63934909Y-37520508D01*
X63806963Y-37321674D01*
X63611739Y-37188283D01*
X63380000Y-37141355D01*
X61880000Y-37141355D01*
X61663508Y-37182091D01*
X61464674Y-37310037D01*
X61331283Y-37505261D01*
X61284355Y-37737000D01*
X61284355Y-39037000D01*
X61325091Y-39253492D01*
X61366221Y-39317409D01*
X58805315Y-41878315D01*
X58574570Y-42223650D01*
X58493543Y-42631000D01*
X35711200Y-42631000D01*
X35711200Y-31711200D01*
X66503893Y-31711200D01*
X66473355Y-31862000D01*
M02*
