G04 #@! TF.FileFunction,Soldermask,Bot*
%FSLAX46Y46*%
G04 Gerber Fmt 4.6, Leading zero omitted, Abs format (unit mm)*
G04 Created by KiCad (PCBNEW 4.0.7) date 02/08/18 13:58:32*
%MOMM*%
%LPD*%
G01*
G04 APERTURE LIST*
%ADD10C,0.100000*%
%ADD11C,1.840000*%
%ADD12C,2.400000*%
%ADD13C,2.100000*%
%ADD14R,1.650000X1.900000*%
%ADD15R,1.900000X1.650000*%
%ADD16R,1.700000X1.900000*%
%ADD17R,1.900000X1.700000*%
%ADD18C,1.920000*%
%ADD19R,1.920000X1.920000*%
%ADD20C,1.860000*%
%ADD21C,1.162000*%
G04 APERTURE END LIST*
D10*
D11*
X65405000Y-57079000D03*
X67945000Y-57079000D03*
X70485000Y-57079000D03*
D12*
X37968000Y-54089000D03*
X37800000Y-59250000D03*
D13*
X44058000Y-59210000D03*
X44058000Y-56670000D03*
X44058000Y-61750000D03*
D14*
X113574000Y-53490000D03*
X113574000Y-55990000D03*
D15*
X65298000Y-34788000D03*
X67798000Y-34788000D03*
D11*
X50094000Y-48621000D03*
X47554000Y-48621000D03*
X45014000Y-48621000D03*
D16*
X65451000Y-50486000D03*
X65451000Y-53186000D03*
D17*
X62630000Y-38387000D03*
X65330000Y-38387000D03*
X70519000Y-32512000D03*
X67819000Y-32512000D03*
X72330000Y-50516000D03*
X75030000Y-50516000D03*
D12*
X37940000Y-48613000D03*
X57054000Y-38114000D03*
X99715000Y-37269000D03*
D18*
X57132000Y-47001000D03*
X59672000Y-47001000D03*
D19*
X54592000Y-47001000D03*
D20*
X69898000Y-45396000D03*
X72438000Y-45396000D03*
X74978000Y-45396000D03*
X77518000Y-45396000D03*
X80058000Y-45396000D03*
X82598000Y-45396000D03*
X85138000Y-45396000D03*
X69898000Y-53156000D03*
X72438000Y-53156000D03*
X74978000Y-53156000D03*
X77518000Y-53156000D03*
X80058000Y-53156000D03*
X82598000Y-53156000D03*
X85138000Y-53156000D03*
D12*
X37379000Y-81280000D03*
X39919000Y-81280000D03*
X42459000Y-81280000D03*
X44999000Y-81280000D03*
X47539000Y-81280000D03*
X50079000Y-81280000D03*
X52619000Y-81280000D03*
X55159000Y-81280000D03*
X57699000Y-81280000D03*
X60239000Y-81280000D03*
X62779000Y-81280000D03*
X65319000Y-81280000D03*
X67859000Y-81280000D03*
X70399000Y-81280000D03*
X70399000Y-78740000D03*
X70399000Y-76200000D03*
X70399000Y-73660000D03*
X70399000Y-71120000D03*
X70399000Y-68580000D03*
X70399000Y-66040000D03*
X67859000Y-66040000D03*
X65319000Y-66040000D03*
X62779000Y-66040000D03*
X60239000Y-66040000D03*
X57699000Y-66040000D03*
X55159000Y-66040000D03*
X52619000Y-66040000D03*
X50079000Y-66040000D03*
X47539000Y-66040000D03*
X44999000Y-66040000D03*
X42459000Y-66040000D03*
X39919000Y-66040000D03*
X37379000Y-66040000D03*
X39919000Y-68580000D03*
X44999000Y-68580000D03*
X47539000Y-68580000D03*
X50079000Y-68580000D03*
D21*
X101620000Y-68470000D03*
X101620000Y-69403000D03*
X101620000Y-70336000D03*
X102730000Y-68470000D03*
X100510000Y-68470000D03*
M02*
