G04 #@! TF.FileFunction,Soldermask,Bot*
%FSLAX46Y46*%
G04 Gerber Fmt 4.6, Leading zero omitted, Abs format (unit mm)*
G04 Created by KiCad (PCBNEW 4.0.7) date 02/10/18 23:58:03*
%MOMM*%
%LPD*%
G01*
G04 APERTURE LIST*
%ADD10C,0.100000*%
%ADD11C,1.860000*%
%ADD12C,1.840000*%
%ADD13C,1.920000*%
%ADD14R,1.920000X1.920000*%
%ADD15C,2.400000*%
%ADD16C,1.543000*%
%ADD17C,2.100000*%
G04 APERTURE END LIST*
D10*
D11*
X72070000Y-47174000D03*
X74610000Y-47174000D03*
X77150000Y-47174000D03*
X79690000Y-47174000D03*
X82230000Y-47174000D03*
X84770000Y-47174000D03*
X87310000Y-47174000D03*
X72070000Y-54934000D03*
X74610000Y-54934000D03*
X77150000Y-54934000D03*
X79690000Y-54934000D03*
X82230000Y-54934000D03*
X84770000Y-54934000D03*
X87310000Y-54934000D03*
D12*
X86233000Y-37312600D03*
X86233000Y-39852600D03*
X86233000Y-42392600D03*
X38481000Y-35636200D03*
X41021000Y-35636200D03*
X43561000Y-35636200D03*
D13*
X50800000Y-50038000D03*
X53340000Y-50038000D03*
D14*
X48260000Y-50038000D03*
D15*
X47625000Y-77470000D03*
X50165000Y-77470000D03*
X52705000Y-77470000D03*
X55245000Y-77470000D03*
X57785000Y-77470000D03*
X60325000Y-77470000D03*
X62865000Y-77470000D03*
X65405000Y-77470000D03*
X67945000Y-77470000D03*
X70485000Y-77470000D03*
X73025000Y-77470000D03*
X75565000Y-77470000D03*
X78105000Y-77470000D03*
X80645000Y-77470000D03*
X80645000Y-74930000D03*
X80645000Y-72390000D03*
X80645000Y-69850000D03*
X80645000Y-67310000D03*
X80645000Y-64770000D03*
X80645000Y-62230000D03*
X78105000Y-62230000D03*
X75565000Y-62230000D03*
X73025000Y-62230000D03*
X70485000Y-62230000D03*
X67945000Y-62230000D03*
X65405000Y-62230000D03*
X62865000Y-62230000D03*
X60325000Y-62230000D03*
X57785000Y-62230000D03*
X55245000Y-62230000D03*
X52705000Y-62230000D03*
X50165000Y-62230000D03*
X47625000Y-62230000D03*
X50165000Y-64770000D03*
X55245000Y-64770000D03*
X57785000Y-64770000D03*
X60325000Y-64770000D03*
D16*
X86182200Y-33401000D03*
X48260000Y-38227000D03*
X52197000Y-38227000D03*
X44577000Y-46990000D03*
X75920600Y-43916600D03*
X82372200Y-34671000D03*
X128397000Y-57150000D03*
X67310000Y-40386000D03*
D17*
X41021000Y-42240200D03*
X43561000Y-42240200D03*
X38481000Y-42240200D03*
M02*
