G04 #@! TF.FileFunction,Soldermask,Bot*
%FSLAX46Y46*%
G04 Gerber Fmt 4.6, Leading zero omitted, Abs format (unit mm)*
G04 Created by KiCad (PCBNEW 4.0.7) date 02/09/18 13:06:50*
%MOMM*%
%LPD*%
G01*
G04 APERTURE LIST*
%ADD10C,0.100000*%
%ADD11C,1.840000*%
%ADD12C,2.100000*%
%ADD13R,1.650000X1.900000*%
%ADD14R,1.900000X1.650000*%
%ADD15R,1.700000X1.900000*%
%ADD16R,1.900000X1.700000*%
%ADD17C,1.920000*%
%ADD18R,1.920000X1.920000*%
%ADD19C,1.860000*%
%ADD20C,2.400000*%
%ADD21C,1.543000*%
G04 APERTURE END LIST*
D10*
D11*
X65405000Y-57079000D03*
X67945000Y-57079000D03*
X70485000Y-57079000D03*
D12*
X44058000Y-59210000D03*
X44058000Y-61750000D03*
X44058000Y-56670000D03*
D13*
X113576000Y-58597000D03*
X113576000Y-61097000D03*
D14*
X65298000Y-34788000D03*
X67798000Y-34788000D03*
D11*
X50094000Y-48621000D03*
X47554000Y-48621000D03*
X45014000Y-48621000D03*
D15*
X65451000Y-50486000D03*
X65451000Y-53186000D03*
D16*
X62749000Y-38420000D03*
X65449000Y-38420000D03*
X70519000Y-32512000D03*
X67819000Y-32512000D03*
X72330000Y-50516000D03*
X75030000Y-50516000D03*
D17*
X57132000Y-47001000D03*
X59672000Y-47001000D03*
D18*
X54592000Y-47001000D03*
D19*
X69898000Y-45396000D03*
X72438000Y-45396000D03*
X74978000Y-45396000D03*
X77518000Y-45396000D03*
X80058000Y-45396000D03*
X82598000Y-45396000D03*
X85138000Y-45396000D03*
X69898000Y-53156000D03*
X72438000Y-53156000D03*
X74978000Y-53156000D03*
X77518000Y-53156000D03*
X80058000Y-53156000D03*
X82598000Y-53156000D03*
X85138000Y-53156000D03*
D20*
X70752000Y-68504000D03*
X68212000Y-68504000D03*
X65672000Y-68504000D03*
X63132000Y-68504000D03*
X60592000Y-68504000D03*
X58052000Y-68504000D03*
X55512000Y-68504000D03*
X52972000Y-68504000D03*
X50432000Y-68504000D03*
X47892000Y-68504000D03*
X45352000Y-68504000D03*
X42812000Y-68504000D03*
X40272000Y-68504000D03*
X37732000Y-68504000D03*
X37732000Y-71044000D03*
X37732000Y-73584000D03*
X37732000Y-76124000D03*
X37732000Y-78664000D03*
X37732000Y-81204000D03*
X37732000Y-83744000D03*
X40272000Y-83744000D03*
X42812000Y-83744000D03*
X45352000Y-83744000D03*
X47892000Y-83744000D03*
X50432000Y-83744000D03*
X52972000Y-83744000D03*
X55512000Y-83744000D03*
X58052000Y-83744000D03*
X60592000Y-83744000D03*
X63132000Y-83744000D03*
X65672000Y-83744000D03*
X68212000Y-83744000D03*
X70752000Y-83744000D03*
X68212000Y-81204000D03*
X63132000Y-81204000D03*
X60592000Y-81204000D03*
X58052000Y-81204000D03*
D14*
X72527000Y-34801000D03*
X75027000Y-34801000D03*
D21*
X64755000Y-32507000D03*
X60853000Y-57089000D03*
X38019000Y-65654000D03*
X37937000Y-54478000D03*
X37917000Y-59253000D03*
X89154000Y-42622000D03*
X96961000Y-35764000D03*
X89672000Y-81595000D03*
X116073000Y-57958000D03*
X106562000Y-68946000D03*
X102588000Y-81633000D03*
X117043000Y-71266000D03*
X115900000Y-64221000D03*
X107737000Y-75509000D03*
M02*
