G04 #@! TF.FileFunction,Copper,L2,Bot,Signal*
%FSLAX46Y46*%
G04 Gerber Fmt 4.6, Leading zero omitted, Abs format (unit mm)*
G04 Created by KiCad (PCBNEW 4.0.7) date 02/11/18 18:53:05*
%MOMM*%
%LPD*%
G01*
G04 APERTURE LIST*
%ADD10C,0.100000*%
%ADD11C,0.762000*%
%ADD12C,2.000000*%
%ADD13C,1.460000*%
%ADD14C,1.440000*%
%ADD15C,1.520000*%
%ADD16R,1.520000X1.520000*%
%ADD17C,1.143000*%
%ADD18C,1.700000*%
%ADD19R,1.400000X4.500000*%
%ADD20C,2.540000*%
%ADD21C,0.572000*%
%ADD22C,0.572381*%
%ADD23C,0.152400*%
G04 APERTURE END LIST*
D10*
D11*
X55687000Y-64725000D03*
X57687000Y-64725000D03*
X59687000Y-64725000D03*
X61687000Y-64725000D03*
X75687000Y-77925000D03*
X75687000Y-75725000D03*
X75687000Y-73525000D03*
X75687000Y-71325000D03*
X75687000Y-69125000D03*
X75687000Y-66925000D03*
X75687000Y-62525000D03*
X77687000Y-77925000D03*
X77687000Y-75725000D03*
X77687000Y-73525000D03*
X77687000Y-71325000D03*
X77687000Y-69125000D03*
X77687000Y-66925000D03*
X77687000Y-62525000D03*
X77687000Y-60325000D03*
X81687000Y-77925000D03*
X81687000Y-75725000D03*
X81687000Y-73525000D03*
X81687000Y-71325000D03*
X81687000Y-69125000D03*
X81687000Y-64725000D03*
X81687000Y-62525000D03*
X79687000Y-77925000D03*
X79687000Y-75725000D03*
X79687000Y-73525000D03*
X79687000Y-71325000D03*
X79687000Y-69125000D03*
X79687000Y-66925000D03*
X79687000Y-62525000D03*
X127687000Y-60366000D03*
X127687000Y-58166000D03*
X125687000Y-73525000D03*
X125687000Y-71325000D03*
X127687000Y-73525000D03*
X127687000Y-71325000D03*
X45687000Y-64725000D03*
D12*
X40925000Y-77470000D03*
X43465000Y-77470000D03*
X46005000Y-77470000D03*
X48545000Y-77470000D03*
X51085000Y-77470000D03*
X53625000Y-77470000D03*
X56165000Y-77470000D03*
X58705000Y-77470000D03*
X61245000Y-77470000D03*
X63785000Y-77470000D03*
X66325000Y-77470000D03*
X68865000Y-77470000D03*
X71405000Y-77470000D03*
X73945000Y-77470000D03*
X73945000Y-74930000D03*
X73945000Y-72390000D03*
X73945000Y-69850000D03*
X73945000Y-67310000D03*
X73945000Y-64770000D03*
X73945000Y-62230000D03*
X71405000Y-62230000D03*
X68865000Y-62230000D03*
X66325000Y-62230000D03*
X63785000Y-62230000D03*
X61245000Y-62230000D03*
X58705000Y-62230000D03*
X56165000Y-62230000D03*
X53625000Y-62230000D03*
X51085000Y-62230000D03*
X48545000Y-62230000D03*
X46005000Y-62230000D03*
X43465000Y-62230000D03*
X40925000Y-62230000D03*
X43465000Y-64770000D03*
X48545000Y-64770000D03*
X51085000Y-64770000D03*
X53625000Y-64770000D03*
D11*
X45687000Y-60325000D03*
X127687000Y-36166000D03*
X125687000Y-36166000D03*
X127687000Y-33966000D03*
X125687000Y-33966000D03*
X91687000Y-36166000D03*
X91687000Y-33966000D03*
X100770600Y-42191600D03*
X99043400Y-43410800D03*
X118652200Y-42191600D03*
X116874200Y-43360000D03*
X113411000Y-70942200D03*
X123737800Y-65065000D03*
X121705800Y-63795000D03*
X113286200Y-66893800D03*
X98503400Y-69992600D03*
X119737800Y-63795000D03*
X113309400Y-68859400D03*
X123598600Y-40022800D03*
X119941000Y-39972000D03*
X117096200Y-48166400D03*
X117096200Y-45016800D03*
X92786200Y-45491400D03*
X110769400Y-45389800D03*
X110820200Y-42595800D03*
X110769400Y-39852600D03*
X99286200Y-48131200D03*
X99337000Y-44829200D03*
X101826200Y-44727600D03*
X102537400Y-47166000D03*
X110363000Y-37465000D03*
X108483400Y-37465000D03*
X92938600Y-42341800D03*
X94462600Y-42341800D03*
X95769800Y-40093200D03*
X93687000Y-40093200D03*
X75687000Y-55966000D03*
X83687000Y-38366000D03*
X83687000Y-36166000D03*
X81687000Y-36166000D03*
X87687000Y-44966000D03*
X87687000Y-42766000D03*
X87687000Y-40566000D03*
X87687000Y-38366000D03*
X87687000Y-36166000D03*
X87687000Y-33966000D03*
X89687000Y-47166000D03*
X47687000Y-44966000D03*
X69687000Y-53766000D03*
X75687000Y-49366000D03*
D13*
X72070000Y-47174000D03*
X74610000Y-47174000D03*
X77150000Y-47174000D03*
X79690000Y-47174000D03*
X82230000Y-47174000D03*
X84770000Y-47174000D03*
X87310000Y-47174000D03*
X72070000Y-54934000D03*
X74610000Y-54934000D03*
X77150000Y-54934000D03*
X79690000Y-54934000D03*
X82230000Y-54934000D03*
X84770000Y-54934000D03*
X87310000Y-54934000D03*
D11*
X73687000Y-49366000D03*
X73731000Y-45004000D03*
X93687000Y-47166000D03*
X109687000Y-49366000D03*
X113687000Y-55966000D03*
X119687000Y-62525000D03*
X123687000Y-62525000D03*
X121687000Y-62525000D03*
X103687000Y-71325000D03*
X103687000Y-66925000D03*
X103687000Y-69125000D03*
X116052600Y-65049400D03*
X115687000Y-62525000D03*
X97687000Y-71325000D03*
X95687000Y-71325000D03*
X87687000Y-73525000D03*
X89687000Y-73525000D03*
X91687000Y-73525000D03*
X93687000Y-73525000D03*
X95687000Y-73525000D03*
X95687000Y-66925000D03*
X97687000Y-66925000D03*
X95687000Y-64725000D03*
X97687000Y-64725000D03*
X95687000Y-62525000D03*
X97687000Y-62525000D03*
X89687000Y-62525000D03*
X87687000Y-62525000D03*
X83687000Y-71325000D03*
X85687000Y-71325000D03*
X83687000Y-69125000D03*
X85687000Y-69125000D03*
X83687000Y-64725000D03*
X85687000Y-64725000D03*
X95687000Y-55966000D03*
X89687000Y-55966000D03*
X101687000Y-55966000D03*
X107687000Y-55966000D03*
X119687000Y-55966000D03*
X117687000Y-40566000D03*
X99687000Y-40566000D03*
X89687000Y-44966000D03*
X89687000Y-42766000D03*
X89687000Y-40566000D03*
X89687000Y-38366000D03*
X89687000Y-36166000D03*
X93687000Y-51566000D03*
X93687000Y-49366000D03*
X89687000Y-53766000D03*
X89687000Y-49366000D03*
X87687000Y-49366000D03*
X85687000Y-49366000D03*
X83687000Y-49366000D03*
X81687000Y-49366000D03*
X101687000Y-49366000D03*
X101687000Y-53766000D03*
X101687000Y-51566000D03*
X101687000Y-38366000D03*
X99687000Y-38366000D03*
X97687000Y-38366000D03*
X95687000Y-38366000D03*
X127687000Y-75725000D03*
X125687000Y-75725000D03*
X127687000Y-69125000D03*
X125687000Y-69125000D03*
X127687000Y-38366000D03*
X125687000Y-38366000D03*
X127687000Y-31766000D03*
X125687000Y-31766000D03*
X55687000Y-33966000D03*
X57687000Y-33966000D03*
X53687000Y-33966000D03*
X51687000Y-33966000D03*
X53687000Y-36166000D03*
X51687000Y-36166000D03*
X51687000Y-42766000D03*
X53687000Y-40566000D03*
X51687000Y-40566000D03*
X39687000Y-38366000D03*
X41687000Y-38366000D03*
X43687000Y-38366000D03*
X45687000Y-38366000D03*
X45687000Y-36166000D03*
X47687000Y-36166000D03*
X37687000Y-33966000D03*
X39687000Y-33966000D03*
X41687000Y-33966000D03*
X43687000Y-33966000D03*
X45687000Y-33966000D03*
X47687000Y-33966000D03*
X39687000Y-40566000D03*
X41687000Y-40566000D03*
X43687000Y-40566000D03*
X45687000Y-40566000D03*
X39687000Y-44966000D03*
X43687000Y-44966000D03*
X45687000Y-44966000D03*
X47687000Y-47166000D03*
X49687000Y-47166000D03*
X49687000Y-44966000D03*
X49687000Y-42766000D03*
X49687000Y-40566000D03*
X49687000Y-36166000D03*
X49687000Y-33966000D03*
X91687000Y-51566000D03*
X89687000Y-51566000D03*
X87687000Y-51566000D03*
X85687000Y-51566000D03*
X83687000Y-51566000D03*
X81687000Y-51566000D03*
X79687000Y-51566000D03*
X57687000Y-53766000D03*
X71687000Y-51566000D03*
X67687000Y-51566000D03*
X57687000Y-51566000D03*
X37687000Y-31766000D03*
X39687000Y-31766000D03*
X41687000Y-31766000D03*
X43687000Y-31766000D03*
X45687000Y-31766000D03*
X47687000Y-31766000D03*
X49687000Y-31766000D03*
X51687000Y-31766000D03*
X53687000Y-31766000D03*
X55687000Y-31766000D03*
X57687000Y-31766000D03*
X59687000Y-31766000D03*
X61687000Y-31766000D03*
X63687000Y-31766000D03*
X65687000Y-31766000D03*
X67687000Y-31766000D03*
X69687000Y-31766000D03*
X71687000Y-31766000D03*
X73687000Y-31766000D03*
X75687000Y-31766000D03*
X77687000Y-31766000D03*
X79687000Y-31766000D03*
X81687000Y-31766000D03*
X83687000Y-31766000D03*
X85687000Y-31766000D03*
X87687000Y-31766000D03*
X71704000Y-45011000D03*
X67673000Y-45072000D03*
X59687000Y-42766000D03*
X57687000Y-42766000D03*
X65687000Y-42766000D03*
X63687000Y-42766000D03*
X55687000Y-51566000D03*
X55687000Y-53766000D03*
X55687000Y-55966000D03*
X53687000Y-51566000D03*
X53687000Y-53766000D03*
X53687000Y-55966000D03*
X47687000Y-51566000D03*
X47687000Y-53766000D03*
X47687000Y-55966000D03*
X45687000Y-55966000D03*
X45687000Y-53766000D03*
X45687000Y-51566000D03*
X43687000Y-55966000D03*
X43687000Y-53766000D03*
X43687000Y-51566000D03*
X39687000Y-51566000D03*
X39687000Y-53766000D03*
X39687000Y-55966000D03*
X45687000Y-49366000D03*
X43687000Y-49366000D03*
X37687000Y-49366000D03*
X37687000Y-51566000D03*
X37687000Y-53766000D03*
X37687000Y-55966000D03*
X107687000Y-40566000D03*
X105687000Y-40566000D03*
X107687000Y-42766000D03*
X105687000Y-42766000D03*
X107687000Y-44966000D03*
X105687000Y-44966000D03*
X107687000Y-47166000D03*
X105687000Y-47166000D03*
X105687000Y-49366000D03*
X105687000Y-51566000D03*
X105687000Y-53766000D03*
X107687000Y-53766000D03*
X107687000Y-51566000D03*
X107687000Y-49366000D03*
X111687000Y-51566000D03*
X111687000Y-49366000D03*
X95687000Y-36166000D03*
X97687000Y-36166000D03*
X99687000Y-36166000D03*
X101687000Y-36166000D03*
X103687000Y-36166000D03*
X105687000Y-36166000D03*
X107687000Y-36166000D03*
X109687000Y-36166000D03*
X111687000Y-36166000D03*
X113687000Y-36166000D03*
X115687000Y-36166000D03*
X117687000Y-36166000D03*
X119687000Y-36166000D03*
X121687000Y-36166000D03*
X123687000Y-36166000D03*
X119687000Y-42766000D03*
X119687000Y-44966000D03*
X111687000Y-55966000D03*
X117687000Y-49366000D03*
X119687000Y-49366000D03*
X117687000Y-51566000D03*
X119687000Y-51566000D03*
X117687000Y-53766000D03*
X119687000Y-53766000D03*
X115687000Y-38366000D03*
X117687000Y-38366000D03*
X119687000Y-38366000D03*
X121687000Y-38366000D03*
X89687000Y-33966000D03*
X95687000Y-33966000D03*
X97687000Y-33966000D03*
X99687000Y-33966000D03*
X101687000Y-33966000D03*
X103687000Y-33966000D03*
X105687000Y-33966000D03*
X107687000Y-33966000D03*
X109687000Y-33966000D03*
X111687000Y-33966000D03*
X113687000Y-33966000D03*
X115687000Y-33966000D03*
X117687000Y-33966000D03*
X119687000Y-33966000D03*
X121687000Y-33966000D03*
X123687000Y-33966000D03*
X89687000Y-31766000D03*
X91687000Y-31766000D03*
X95687000Y-31766000D03*
X97687000Y-31766000D03*
X99687000Y-31766000D03*
X101687000Y-31766000D03*
X103687000Y-31766000D03*
X105687000Y-31766000D03*
X107687000Y-31766000D03*
X109687000Y-31766000D03*
X111687000Y-31766000D03*
X113687000Y-31766000D03*
X115687000Y-31766000D03*
X117687000Y-31766000D03*
X119687000Y-31766000D03*
X121687000Y-31766000D03*
X123687000Y-31766000D03*
X123687000Y-38366000D03*
X123687000Y-42766000D03*
X123687000Y-44966000D03*
X123687000Y-47166000D03*
X123687000Y-49366000D03*
X123687000Y-51566000D03*
X123687000Y-53766000D03*
X127687000Y-40566000D03*
X127687000Y-42766000D03*
X127687000Y-44966000D03*
X127687000Y-47166000D03*
X127687000Y-49366000D03*
X127687000Y-51566000D03*
X127687000Y-53766000D03*
X127687000Y-55966000D03*
X123687000Y-55966000D03*
X117687000Y-55966000D03*
X125687000Y-66925000D03*
X123687000Y-66925000D03*
X121687000Y-66925000D03*
X119687000Y-66925000D03*
X117687000Y-66925000D03*
X117687000Y-62525000D03*
X113687000Y-62525000D03*
X111687000Y-66925000D03*
X111687000Y-64725000D03*
X111687000Y-62525000D03*
X103687000Y-64725000D03*
X103687000Y-62525000D03*
X99687000Y-66925000D03*
X99687000Y-64725000D03*
X99687000Y-62525000D03*
X101687000Y-62525000D03*
X101687000Y-64725000D03*
X121687000Y-69125000D03*
X115698000Y-70991000D03*
X101687000Y-66925000D03*
X101687000Y-69125000D03*
X105687000Y-66925000D03*
X105687000Y-69125000D03*
X111687000Y-69125000D03*
X115687000Y-69125000D03*
X121687000Y-69125000D03*
X115687000Y-73525000D03*
X113687000Y-73525000D03*
X111687000Y-73525000D03*
X109687000Y-73525000D03*
X107687000Y-73525000D03*
X105687000Y-73525000D03*
X103687000Y-73525000D03*
X101687000Y-73525000D03*
X99687000Y-73525000D03*
X97687000Y-73525000D03*
X127687000Y-77925000D03*
X125687000Y-77925000D03*
X123687000Y-77925000D03*
X121687000Y-77925000D03*
X119687000Y-77925000D03*
X117687000Y-77925000D03*
X115687000Y-77925000D03*
X113687000Y-77925000D03*
X111687000Y-77925000D03*
X109687000Y-77925000D03*
X107687000Y-77925000D03*
X105687000Y-77925000D03*
X103687000Y-77925000D03*
X101687000Y-77925000D03*
X99687000Y-77925000D03*
X97687000Y-77925000D03*
X95687000Y-77925000D03*
X93687000Y-77925000D03*
X91687000Y-77925000D03*
X89687000Y-77925000D03*
X121687000Y-75725000D03*
X115687000Y-75725000D03*
X113687000Y-75725000D03*
X111687000Y-75725000D03*
X109687000Y-75725000D03*
X107687000Y-75725000D03*
X105687000Y-75725000D03*
X103687000Y-75725000D03*
X101687000Y-75725000D03*
X99687000Y-75725000D03*
X97687000Y-75725000D03*
X95687000Y-75725000D03*
X93687000Y-75725000D03*
X91687000Y-75725000D03*
X89687000Y-75725000D03*
X85687000Y-73525000D03*
X83687000Y-73525000D03*
X85687000Y-62525000D03*
X83687000Y-62525000D03*
X93687000Y-71325000D03*
X91687000Y-71325000D03*
X89687000Y-71325000D03*
X93687000Y-69125000D03*
X91687000Y-69125000D03*
X89687000Y-69125000D03*
X93687000Y-66925000D03*
X91687000Y-66925000D03*
X89687000Y-66925000D03*
X93687000Y-64725000D03*
X91687000Y-64725000D03*
X89687000Y-64725000D03*
X83687000Y-77925000D03*
X85687000Y-77925000D03*
X83687000Y-75725000D03*
X85687000Y-75725000D03*
X87687000Y-77925000D03*
X87687000Y-75725000D03*
X87687000Y-71325000D03*
X87687000Y-69125000D03*
X87687000Y-66925000D03*
X87687000Y-64725000D03*
X71687000Y-64725000D03*
X69687000Y-64725000D03*
X67687000Y-64725000D03*
X65687000Y-64725000D03*
X63687000Y-64725000D03*
X71687000Y-75725000D03*
X69687000Y-75725000D03*
X67687000Y-75725000D03*
X65687000Y-75725000D03*
X63687000Y-75725000D03*
X61687000Y-75725000D03*
X59687000Y-75725000D03*
X57687000Y-75725000D03*
X55687000Y-75725000D03*
X53687000Y-75725000D03*
X51687000Y-75725000D03*
X49687000Y-75725000D03*
X47687000Y-75725000D03*
X45687000Y-75725000D03*
X43687000Y-75725000D03*
X41687000Y-75725000D03*
X39687000Y-75725000D03*
X71687000Y-73525000D03*
X69687000Y-73525000D03*
X67687000Y-73525000D03*
X65687000Y-73525000D03*
X63687000Y-73525000D03*
X61687000Y-73525000D03*
X59687000Y-73525000D03*
X57687000Y-73525000D03*
X55687000Y-73525000D03*
X53687000Y-73525000D03*
X51687000Y-73525000D03*
X49687000Y-73525000D03*
X47687000Y-73525000D03*
X45687000Y-73525000D03*
X43687000Y-73525000D03*
X41687000Y-73525000D03*
X39687000Y-73525000D03*
X71687000Y-71325000D03*
X69687000Y-71325000D03*
X67687000Y-71325000D03*
X65687000Y-71325000D03*
X63687000Y-71325000D03*
X61687000Y-71325000D03*
X59687000Y-71325000D03*
X57687000Y-71325000D03*
X55687000Y-71325000D03*
X53687000Y-71325000D03*
X51687000Y-71325000D03*
X49687000Y-71325000D03*
X47687000Y-71325000D03*
X45687000Y-71325000D03*
X43687000Y-71325000D03*
X41687000Y-71325000D03*
X39687000Y-71325000D03*
X71687000Y-69125000D03*
X69687000Y-69125000D03*
X67687000Y-69125000D03*
X65687000Y-69125000D03*
X63687000Y-69125000D03*
X61687000Y-69125000D03*
X59687000Y-69125000D03*
X57687000Y-69125000D03*
X55687000Y-69125000D03*
X53687000Y-69125000D03*
X51687000Y-69125000D03*
X49687000Y-69125000D03*
X47687000Y-69125000D03*
X45687000Y-69125000D03*
X43687000Y-69125000D03*
X41687000Y-69125000D03*
X39687000Y-69125000D03*
X71687000Y-66925000D03*
X69687000Y-66925000D03*
X67687000Y-66925000D03*
X65687000Y-66925000D03*
X63687000Y-66925000D03*
X61687000Y-66925000D03*
X59687000Y-66925000D03*
X57687000Y-66925000D03*
X55687000Y-66925000D03*
X53687000Y-66925000D03*
X51687000Y-66925000D03*
X49687000Y-66925000D03*
X47687000Y-66925000D03*
X45687000Y-66925000D03*
X43687000Y-66925000D03*
X41687000Y-66925000D03*
X39687000Y-66925000D03*
X37687000Y-77925000D03*
X37687000Y-75725000D03*
X37687000Y-73525000D03*
X37687000Y-71325000D03*
X37687000Y-69125000D03*
X37687000Y-66925000D03*
X41687000Y-64725000D03*
X39687000Y-64725000D03*
X37687000Y-64725000D03*
X37687000Y-62525000D03*
X121687000Y-60325000D03*
X123687000Y-60325000D03*
X119687000Y-60325000D03*
X117687000Y-60325000D03*
X115687000Y-60325000D03*
X113687000Y-60325000D03*
X111687000Y-60325000D03*
X109687000Y-60325000D03*
X107687000Y-60325000D03*
X103687000Y-60325000D03*
X101687000Y-60325000D03*
X99687000Y-60325000D03*
X97687000Y-60325000D03*
X95687000Y-60325000D03*
X93687000Y-60325000D03*
X87687000Y-60325000D03*
X85687000Y-60325000D03*
X83687000Y-60325000D03*
X81687000Y-60325000D03*
X79687000Y-60325000D03*
X75687000Y-60325000D03*
X73687000Y-60325000D03*
X71687000Y-60325000D03*
X69687000Y-60325000D03*
X67687000Y-60325000D03*
X65687000Y-60325000D03*
X63687000Y-60325000D03*
X61687000Y-60325000D03*
X59687000Y-60325000D03*
X57687000Y-60325000D03*
X55687000Y-60325000D03*
X53687000Y-60325000D03*
X51687000Y-60325000D03*
X49687000Y-60325000D03*
X47687000Y-60325000D03*
X39687000Y-60325000D03*
X37687000Y-60325000D03*
X123687000Y-58166000D03*
X121687000Y-58166000D03*
X117687000Y-58039000D03*
X115687000Y-58039000D03*
X111687000Y-58039000D03*
X109687000Y-58039000D03*
X105664000Y-58039000D03*
X103632000Y-58039000D03*
X99695000Y-58039000D03*
X93687000Y-58039000D03*
X87687000Y-58039000D03*
X85687000Y-58039000D03*
X83687000Y-58039000D03*
X81687000Y-58039000D03*
X79687000Y-58039000D03*
X73687000Y-58102500D03*
X71687000Y-58102500D03*
X69687000Y-58102500D03*
X67687000Y-58102500D03*
X65687000Y-58102500D03*
X63687000Y-58102500D03*
X61687000Y-58102500D03*
X59687000Y-58102500D03*
X57687000Y-58039000D03*
X55687000Y-58039000D03*
X53687000Y-58039000D03*
X51687000Y-58039000D03*
X47687000Y-58039000D03*
X45687000Y-58039000D03*
X39687000Y-58166000D03*
X37687000Y-58166000D03*
D14*
X86106000Y-37338000D03*
X86106000Y-39878000D03*
X86106000Y-42418000D03*
X38481000Y-35636200D03*
X41021000Y-35636200D03*
X43561000Y-35636200D03*
D15*
X50800000Y-50038000D03*
X53340000Y-50038000D03*
D16*
X48260000Y-50038000D03*
D17*
X86106000Y-33401000D03*
X48260000Y-38227000D03*
X52197000Y-38227000D03*
X44577000Y-46990000D03*
X75920600Y-43916600D03*
X82372200Y-34671000D03*
X76708000Y-76898500D03*
X67310000Y-40386000D03*
D18*
X41021000Y-42240200D03*
X43561000Y-42240200D03*
X38481000Y-42240200D03*
D11*
X108458000Y-69596000D03*
X108458000Y-70529000D03*
X108458000Y-71462000D03*
X109568000Y-69596000D03*
X107348000Y-69596000D03*
D19*
X96501000Y-33238000D03*
X90951000Y-33238000D03*
D17*
X79375000Y-65151000D03*
D20*
X118618000Y-69596000D03*
X123698000Y-69596000D03*
X123698000Y-74676000D03*
X118618000Y-74676000D03*
X121158000Y-72136000D03*
D11*
X68072000Y-52959000D03*
D21*
X76708000Y-76898500D02*
X76708000Y-55376000D01*
X76708000Y-55376000D02*
X77150000Y-54934000D01*
X77216000Y-55000000D02*
X77150000Y-54934000D01*
D22*
X67310000Y-40386000D02*
X67310000Y-42414000D01*
X67310000Y-42414000D02*
X72070000Y-47174000D01*
X68072000Y-52959000D02*
X72070000Y-48961000D01*
X72070000Y-48961000D02*
X72070000Y-47174000D01*
X86233000Y-39852600D02*
X86233000Y-40157400D01*
X86233000Y-40157400D02*
X80949800Y-45440600D01*
X74656800Y-54934000D02*
X80949800Y-48641000D01*
X80949800Y-48641000D02*
X80949800Y-45440600D01*
X74610000Y-54934000D02*
X74656800Y-54934000D01*
X74610000Y-54934000D02*
X74610000Y-54930000D01*
X86233000Y-37312600D02*
X86233000Y-37617400D01*
X86233000Y-37617400D02*
X78409800Y-45440600D01*
X78409800Y-48488600D02*
X78409800Y-45440600D01*
X72070000Y-54828400D02*
X78409800Y-48488600D01*
X72070000Y-54934000D02*
X72070000Y-54828400D01*
X72070000Y-54934000D02*
X72066000Y-54934000D01*
X74610000Y-47174000D02*
X74111000Y-47174000D01*
D23*
G36*
X129619000Y-79119000D02*
X36381000Y-79119000D01*
X36381000Y-77718342D01*
X42210783Y-77718342D01*
X42401291Y-78179406D01*
X42753739Y-78532469D01*
X43214470Y-78723782D01*
X43713342Y-78724217D01*
X44174406Y-78533709D01*
X44527469Y-78181261D01*
X44718782Y-77720530D01*
X44718783Y-77718342D01*
X44750783Y-77718342D01*
X44941291Y-78179406D01*
X45293739Y-78532469D01*
X45754470Y-78723782D01*
X46253342Y-78724217D01*
X46714406Y-78533709D01*
X47067469Y-78181261D01*
X47258782Y-77720530D01*
X47258783Y-77718342D01*
X47290783Y-77718342D01*
X47481291Y-78179406D01*
X47833739Y-78532469D01*
X48294470Y-78723782D01*
X48793342Y-78724217D01*
X49254406Y-78533709D01*
X49607469Y-78181261D01*
X49798782Y-77720530D01*
X49798783Y-77718342D01*
X49830783Y-77718342D01*
X50021291Y-78179406D01*
X50373739Y-78532469D01*
X50834470Y-78723782D01*
X51333342Y-78724217D01*
X51794406Y-78533709D01*
X52147469Y-78181261D01*
X52338782Y-77720530D01*
X52338783Y-77718342D01*
X52370783Y-77718342D01*
X52561291Y-78179406D01*
X52913739Y-78532469D01*
X53374470Y-78723782D01*
X53873342Y-78724217D01*
X54334406Y-78533709D01*
X54687469Y-78181261D01*
X54878782Y-77720530D01*
X54878783Y-77718342D01*
X54910783Y-77718342D01*
X55101291Y-78179406D01*
X55453739Y-78532469D01*
X55914470Y-78723782D01*
X56413342Y-78724217D01*
X56874406Y-78533709D01*
X57227469Y-78181261D01*
X57418782Y-77720530D01*
X57418783Y-77718342D01*
X57450783Y-77718342D01*
X57641291Y-78179406D01*
X57993739Y-78532469D01*
X58454470Y-78723782D01*
X58953342Y-78724217D01*
X59414406Y-78533709D01*
X59767469Y-78181261D01*
X59958782Y-77720530D01*
X59958783Y-77718342D01*
X59990783Y-77718342D01*
X60181291Y-78179406D01*
X60533739Y-78532469D01*
X60994470Y-78723782D01*
X61493342Y-78724217D01*
X61954406Y-78533709D01*
X62307469Y-78181261D01*
X62498782Y-77720530D01*
X62498783Y-77718342D01*
X62530783Y-77718342D01*
X62721291Y-78179406D01*
X63073739Y-78532469D01*
X63534470Y-78723782D01*
X64033342Y-78724217D01*
X64494406Y-78533709D01*
X64847469Y-78181261D01*
X65038782Y-77720530D01*
X65038783Y-77718342D01*
X65070783Y-77718342D01*
X65261291Y-78179406D01*
X65613739Y-78532469D01*
X66074470Y-78723782D01*
X66573342Y-78724217D01*
X67034406Y-78533709D01*
X67387469Y-78181261D01*
X67578782Y-77720530D01*
X67578783Y-77718342D01*
X67610783Y-77718342D01*
X67801291Y-78179406D01*
X68153739Y-78532469D01*
X68614470Y-78723782D01*
X69113342Y-78724217D01*
X69574406Y-78533709D01*
X69927469Y-78181261D01*
X70118782Y-77720530D01*
X70118783Y-77718342D01*
X70150783Y-77718342D01*
X70341291Y-78179406D01*
X70693739Y-78532469D01*
X71154470Y-78723782D01*
X71653342Y-78724217D01*
X72114406Y-78533709D01*
X72467469Y-78181261D01*
X72658782Y-77720530D01*
X72658783Y-77718342D01*
X72690783Y-77718342D01*
X72881291Y-78179406D01*
X73233739Y-78532469D01*
X73694470Y-78723782D01*
X74193342Y-78724217D01*
X74654406Y-78533709D01*
X75007469Y-78181261D01*
X75198782Y-77720530D01*
X75199217Y-77221658D01*
X75133241Y-77061982D01*
X75882357Y-77061982D01*
X76007767Y-77365498D01*
X76239781Y-77597917D01*
X76543077Y-77723857D01*
X76871482Y-77724143D01*
X77174998Y-77598733D01*
X77407417Y-77366719D01*
X77533357Y-77063423D01*
X77533643Y-76735018D01*
X77408233Y-76431502D01*
X77248000Y-76270989D01*
X77248000Y-72437812D01*
X119633736Y-72437812D01*
X119865262Y-72998149D01*
X120293596Y-73427231D01*
X120853528Y-73659735D01*
X121459812Y-73660264D01*
X122020149Y-73428738D01*
X122449231Y-73000404D01*
X122681735Y-72440472D01*
X122682264Y-71834188D01*
X122450738Y-71273851D01*
X122022404Y-70844769D01*
X121462472Y-70612265D01*
X120856188Y-70611736D01*
X120295851Y-70843262D01*
X119866769Y-71271596D01*
X119634265Y-71831528D01*
X119633736Y-72437812D01*
X77248000Y-72437812D01*
X77248000Y-65314482D01*
X78549357Y-65314482D01*
X78674767Y-65617998D01*
X78906781Y-65850417D01*
X79210077Y-65976357D01*
X79538482Y-65976643D01*
X79841998Y-65851233D01*
X80074417Y-65619219D01*
X80200357Y-65315923D01*
X80200643Y-64987518D01*
X80075233Y-64684002D01*
X79843219Y-64451583D01*
X79539923Y-64325643D01*
X79211518Y-64325357D01*
X78908002Y-64450767D01*
X78675583Y-64682781D01*
X78549643Y-64986077D01*
X78549357Y-65314482D01*
X77248000Y-65314482D01*
X77248000Y-55918086D01*
X77344871Y-55918171D01*
X77706663Y-55768681D01*
X77983708Y-55492119D01*
X78133829Y-55130588D01*
X78133830Y-55128871D01*
X78705829Y-55128871D01*
X78855319Y-55490663D01*
X79131881Y-55767708D01*
X79493412Y-55917829D01*
X79884871Y-55918171D01*
X80246663Y-55768681D01*
X80523708Y-55492119D01*
X80673829Y-55130588D01*
X80673830Y-55128871D01*
X81245829Y-55128871D01*
X81395319Y-55490663D01*
X81671881Y-55767708D01*
X82033412Y-55917829D01*
X82424871Y-55918171D01*
X82786663Y-55768681D01*
X83063708Y-55492119D01*
X83213829Y-55130588D01*
X83213830Y-55128871D01*
X83785829Y-55128871D01*
X83935319Y-55490663D01*
X84211881Y-55767708D01*
X84573412Y-55917829D01*
X84964871Y-55918171D01*
X85326663Y-55768681D01*
X85603708Y-55492119D01*
X85753829Y-55130588D01*
X85753830Y-55128871D01*
X86325829Y-55128871D01*
X86475319Y-55490663D01*
X86751881Y-55767708D01*
X87113412Y-55917829D01*
X87504871Y-55918171D01*
X87866663Y-55768681D01*
X88143708Y-55492119D01*
X88293829Y-55130588D01*
X88294171Y-54739129D01*
X88144681Y-54377337D01*
X87868119Y-54100292D01*
X87506588Y-53950171D01*
X87115129Y-53949829D01*
X86753337Y-54099319D01*
X86476292Y-54375881D01*
X86326171Y-54737412D01*
X86325829Y-55128871D01*
X85753830Y-55128871D01*
X85754171Y-54739129D01*
X85604681Y-54377337D01*
X85328119Y-54100292D01*
X84966588Y-53950171D01*
X84575129Y-53949829D01*
X84213337Y-54099319D01*
X83936292Y-54375881D01*
X83786171Y-54737412D01*
X83785829Y-55128871D01*
X83213830Y-55128871D01*
X83214171Y-54739129D01*
X83064681Y-54377337D01*
X82788119Y-54100292D01*
X82426588Y-53950171D01*
X82035129Y-53949829D01*
X81673337Y-54099319D01*
X81396292Y-54375881D01*
X81246171Y-54737412D01*
X81245829Y-55128871D01*
X80673830Y-55128871D01*
X80674171Y-54739129D01*
X80524681Y-54377337D01*
X80248119Y-54100292D01*
X79886588Y-53950171D01*
X79495129Y-53949829D01*
X79133337Y-54099319D01*
X78856292Y-54375881D01*
X78706171Y-54737412D01*
X78705829Y-55128871D01*
X78133830Y-55128871D01*
X78134171Y-54739129D01*
X77984681Y-54377337D01*
X77708119Y-54100292D01*
X77346588Y-53950171D01*
X76955129Y-53949829D01*
X76593337Y-54099319D01*
X76316292Y-54375881D01*
X76166171Y-54737412D01*
X76165829Y-55128871D01*
X76200477Y-55212726D01*
X76168000Y-55376000D01*
X76168000Y-76271142D01*
X76008583Y-76430281D01*
X75882643Y-76733577D01*
X75882357Y-77061982D01*
X75133241Y-77061982D01*
X75008709Y-76760594D01*
X74656261Y-76407531D01*
X74195530Y-76216218D01*
X73696658Y-76215783D01*
X73235594Y-76406291D01*
X72882531Y-76758739D01*
X72691218Y-77219470D01*
X72690783Y-77718342D01*
X72658783Y-77718342D01*
X72659217Y-77221658D01*
X72468709Y-76760594D01*
X72116261Y-76407531D01*
X71655530Y-76216218D01*
X71156658Y-76215783D01*
X70695594Y-76406291D01*
X70342531Y-76758739D01*
X70151218Y-77219470D01*
X70150783Y-77718342D01*
X70118783Y-77718342D01*
X70119217Y-77221658D01*
X69928709Y-76760594D01*
X69576261Y-76407531D01*
X69115530Y-76216218D01*
X68616658Y-76215783D01*
X68155594Y-76406291D01*
X67802531Y-76758739D01*
X67611218Y-77219470D01*
X67610783Y-77718342D01*
X67578783Y-77718342D01*
X67579217Y-77221658D01*
X67388709Y-76760594D01*
X67036261Y-76407531D01*
X66575530Y-76216218D01*
X66076658Y-76215783D01*
X65615594Y-76406291D01*
X65262531Y-76758739D01*
X65071218Y-77219470D01*
X65070783Y-77718342D01*
X65038783Y-77718342D01*
X65039217Y-77221658D01*
X64848709Y-76760594D01*
X64496261Y-76407531D01*
X64035530Y-76216218D01*
X63536658Y-76215783D01*
X63075594Y-76406291D01*
X62722531Y-76758739D01*
X62531218Y-77219470D01*
X62530783Y-77718342D01*
X62498783Y-77718342D01*
X62499217Y-77221658D01*
X62308709Y-76760594D01*
X61956261Y-76407531D01*
X61495530Y-76216218D01*
X60996658Y-76215783D01*
X60535594Y-76406291D01*
X60182531Y-76758739D01*
X59991218Y-77219470D01*
X59990783Y-77718342D01*
X59958783Y-77718342D01*
X59959217Y-77221658D01*
X59768709Y-76760594D01*
X59416261Y-76407531D01*
X58955530Y-76216218D01*
X58456658Y-76215783D01*
X57995594Y-76406291D01*
X57642531Y-76758739D01*
X57451218Y-77219470D01*
X57450783Y-77718342D01*
X57418783Y-77718342D01*
X57419217Y-77221658D01*
X57228709Y-76760594D01*
X56876261Y-76407531D01*
X56415530Y-76216218D01*
X55916658Y-76215783D01*
X55455594Y-76406291D01*
X55102531Y-76758739D01*
X54911218Y-77219470D01*
X54910783Y-77718342D01*
X54878783Y-77718342D01*
X54879217Y-77221658D01*
X54688709Y-76760594D01*
X54336261Y-76407531D01*
X53875530Y-76216218D01*
X53376658Y-76215783D01*
X52915594Y-76406291D01*
X52562531Y-76758739D01*
X52371218Y-77219470D01*
X52370783Y-77718342D01*
X52338783Y-77718342D01*
X52339217Y-77221658D01*
X52148709Y-76760594D01*
X51796261Y-76407531D01*
X51335530Y-76216218D01*
X50836658Y-76215783D01*
X50375594Y-76406291D01*
X50022531Y-76758739D01*
X49831218Y-77219470D01*
X49830783Y-77718342D01*
X49798783Y-77718342D01*
X49799217Y-77221658D01*
X49608709Y-76760594D01*
X49256261Y-76407531D01*
X48795530Y-76216218D01*
X48296658Y-76215783D01*
X47835594Y-76406291D01*
X47482531Y-76758739D01*
X47291218Y-77219470D01*
X47290783Y-77718342D01*
X47258783Y-77718342D01*
X47259217Y-77221658D01*
X47068709Y-76760594D01*
X46716261Y-76407531D01*
X46255530Y-76216218D01*
X45756658Y-76215783D01*
X45295594Y-76406291D01*
X44942531Y-76758739D01*
X44751218Y-77219470D01*
X44750783Y-77718342D01*
X44718783Y-77718342D01*
X44719217Y-77221658D01*
X44528709Y-76760594D01*
X44176261Y-76407531D01*
X43715530Y-76216218D01*
X43216658Y-76215783D01*
X42755594Y-76406291D01*
X42402531Y-76758739D01*
X42211218Y-77219470D01*
X42210783Y-77718342D01*
X36381000Y-77718342D01*
X36381000Y-75178342D01*
X72690783Y-75178342D01*
X72881291Y-75639406D01*
X73233739Y-75992469D01*
X73694470Y-76183782D01*
X74193342Y-76184217D01*
X74654406Y-75993709D01*
X75007469Y-75641261D01*
X75198782Y-75180530D01*
X75199217Y-74681658D01*
X75008709Y-74220594D01*
X74656261Y-73867531D01*
X74195530Y-73676218D01*
X73696658Y-73675783D01*
X73235594Y-73866291D01*
X72882531Y-74218739D01*
X72691218Y-74679470D01*
X72690783Y-75178342D01*
X36381000Y-75178342D01*
X36381000Y-72638342D01*
X72690783Y-72638342D01*
X72881291Y-73099406D01*
X73233739Y-73452469D01*
X73694470Y-73643782D01*
X74193342Y-73644217D01*
X74654406Y-73453709D01*
X75007469Y-73101261D01*
X75198782Y-72640530D01*
X75199217Y-72141658D01*
X75008709Y-71680594D01*
X74656261Y-71327531D01*
X74195530Y-71136218D01*
X73696658Y-71135783D01*
X73235594Y-71326291D01*
X72882531Y-71678739D01*
X72691218Y-72139470D01*
X72690783Y-72638342D01*
X36381000Y-72638342D01*
X36381000Y-67558342D01*
X72690783Y-67558342D01*
X72881291Y-68019406D01*
X73233739Y-68372469D01*
X73694470Y-68563782D01*
X74193342Y-68564217D01*
X74654406Y-68373709D01*
X75007469Y-68021261D01*
X75198782Y-67560530D01*
X75199217Y-67061658D01*
X75008709Y-66600594D01*
X74656261Y-66247531D01*
X74195530Y-66056218D01*
X73696658Y-66055783D01*
X73235594Y-66246291D01*
X72882531Y-66598739D01*
X72691218Y-67059470D01*
X72690783Y-67558342D01*
X36381000Y-67558342D01*
X36381000Y-65018342D01*
X42210783Y-65018342D01*
X42401291Y-65479406D01*
X42753739Y-65832469D01*
X43214470Y-66023782D01*
X43713342Y-66024217D01*
X44174406Y-65833709D01*
X44527469Y-65481261D01*
X44718782Y-65020530D01*
X44718783Y-65018342D01*
X47290783Y-65018342D01*
X47481291Y-65479406D01*
X47833739Y-65832469D01*
X48294470Y-66023782D01*
X48793342Y-66024217D01*
X49254406Y-65833709D01*
X49607469Y-65481261D01*
X49798782Y-65020530D01*
X49798783Y-65018342D01*
X49830783Y-65018342D01*
X50021291Y-65479406D01*
X50373739Y-65832469D01*
X50834470Y-66023782D01*
X51333342Y-66024217D01*
X51794406Y-65833709D01*
X52147469Y-65481261D01*
X52338782Y-65020530D01*
X52338783Y-65018342D01*
X52370783Y-65018342D01*
X52561291Y-65479406D01*
X52913739Y-65832469D01*
X53374470Y-66023782D01*
X53873342Y-66024217D01*
X54334406Y-65833709D01*
X54687469Y-65481261D01*
X54878782Y-65020530D01*
X54878783Y-65018342D01*
X72690783Y-65018342D01*
X72881291Y-65479406D01*
X73233739Y-65832469D01*
X73694470Y-66023782D01*
X74193342Y-66024217D01*
X74654406Y-65833709D01*
X75007469Y-65481261D01*
X75198782Y-65020530D01*
X75199217Y-64521658D01*
X75008709Y-64060594D01*
X74656261Y-63707531D01*
X74195530Y-63516218D01*
X73696658Y-63515783D01*
X73235594Y-63706291D01*
X72882531Y-64058739D01*
X72691218Y-64519470D01*
X72690783Y-65018342D01*
X54878783Y-65018342D01*
X54879217Y-64521658D01*
X54688709Y-64060594D01*
X54336261Y-63707531D01*
X53875530Y-63516218D01*
X53376658Y-63515783D01*
X52915594Y-63706291D01*
X52562531Y-64058739D01*
X52371218Y-64519470D01*
X52370783Y-65018342D01*
X52338783Y-65018342D01*
X52339217Y-64521658D01*
X52148709Y-64060594D01*
X51796261Y-63707531D01*
X51335530Y-63516218D01*
X50836658Y-63515783D01*
X50375594Y-63706291D01*
X50022531Y-64058739D01*
X49831218Y-64519470D01*
X49830783Y-65018342D01*
X49798783Y-65018342D01*
X49799217Y-64521658D01*
X49608709Y-64060594D01*
X49256261Y-63707531D01*
X48795530Y-63516218D01*
X48296658Y-63515783D01*
X47835594Y-63706291D01*
X47482531Y-64058739D01*
X47291218Y-64519470D01*
X47290783Y-65018342D01*
X44718783Y-65018342D01*
X44719217Y-64521658D01*
X44528709Y-64060594D01*
X44176261Y-63707531D01*
X43715530Y-63516218D01*
X43216658Y-63515783D01*
X42755594Y-63706291D01*
X42402531Y-64058739D01*
X42211218Y-64519470D01*
X42210783Y-65018342D01*
X36381000Y-65018342D01*
X36381000Y-62478342D01*
X39670783Y-62478342D01*
X39861291Y-62939406D01*
X40213739Y-63292469D01*
X40674470Y-63483782D01*
X41173342Y-63484217D01*
X41634406Y-63293709D01*
X41987469Y-62941261D01*
X42178782Y-62480530D01*
X42178783Y-62478342D01*
X42210783Y-62478342D01*
X42401291Y-62939406D01*
X42753739Y-63292469D01*
X43214470Y-63483782D01*
X43713342Y-63484217D01*
X44174406Y-63293709D01*
X44527469Y-62941261D01*
X44718782Y-62480530D01*
X44718783Y-62478342D01*
X44750783Y-62478342D01*
X44941291Y-62939406D01*
X45293739Y-63292469D01*
X45754470Y-63483782D01*
X46253342Y-63484217D01*
X46714406Y-63293709D01*
X47067469Y-62941261D01*
X47258782Y-62480530D01*
X47258783Y-62478342D01*
X47290783Y-62478342D01*
X47481291Y-62939406D01*
X47833739Y-63292469D01*
X48294470Y-63483782D01*
X48793342Y-63484217D01*
X49254406Y-63293709D01*
X49607469Y-62941261D01*
X49798782Y-62480530D01*
X49798783Y-62478342D01*
X49830783Y-62478342D01*
X50021291Y-62939406D01*
X50373739Y-63292469D01*
X50834470Y-63483782D01*
X51333342Y-63484217D01*
X51794406Y-63293709D01*
X52147469Y-62941261D01*
X52338782Y-62480530D01*
X52338783Y-62478342D01*
X52370783Y-62478342D01*
X52561291Y-62939406D01*
X52913739Y-63292469D01*
X53374470Y-63483782D01*
X53873342Y-63484217D01*
X54334406Y-63293709D01*
X54687469Y-62941261D01*
X54878782Y-62480530D01*
X54878783Y-62478342D01*
X54910783Y-62478342D01*
X55101291Y-62939406D01*
X55453739Y-63292469D01*
X55914470Y-63483782D01*
X56413342Y-63484217D01*
X56874406Y-63293709D01*
X57227469Y-62941261D01*
X57418782Y-62480530D01*
X57418783Y-62478342D01*
X57450783Y-62478342D01*
X57641291Y-62939406D01*
X57993739Y-63292469D01*
X58454470Y-63483782D01*
X58953342Y-63484217D01*
X59414406Y-63293709D01*
X59767469Y-62941261D01*
X59958782Y-62480530D01*
X59958783Y-62478342D01*
X59990783Y-62478342D01*
X60181291Y-62939406D01*
X60533739Y-63292469D01*
X60994470Y-63483782D01*
X61493342Y-63484217D01*
X61954406Y-63293709D01*
X62307469Y-62941261D01*
X62498782Y-62480530D01*
X62498783Y-62478342D01*
X62530783Y-62478342D01*
X62721291Y-62939406D01*
X63073739Y-63292469D01*
X63534470Y-63483782D01*
X64033342Y-63484217D01*
X64494406Y-63293709D01*
X64847469Y-62941261D01*
X65038782Y-62480530D01*
X65038783Y-62478342D01*
X65070783Y-62478342D01*
X65261291Y-62939406D01*
X65613739Y-63292469D01*
X66074470Y-63483782D01*
X66573342Y-63484217D01*
X67034406Y-63293709D01*
X67387469Y-62941261D01*
X67578782Y-62480530D01*
X67578783Y-62478342D01*
X67610783Y-62478342D01*
X67801291Y-62939406D01*
X68153739Y-63292469D01*
X68614470Y-63483782D01*
X69113342Y-63484217D01*
X69574406Y-63293709D01*
X69927469Y-62941261D01*
X70118782Y-62480530D01*
X70118783Y-62478342D01*
X70150783Y-62478342D01*
X70341291Y-62939406D01*
X70693739Y-63292469D01*
X71154470Y-63483782D01*
X71653342Y-63484217D01*
X72114406Y-63293709D01*
X72467469Y-62941261D01*
X72658782Y-62480530D01*
X72658783Y-62478342D01*
X72690783Y-62478342D01*
X72881291Y-62939406D01*
X73233739Y-63292469D01*
X73694470Y-63483782D01*
X74193342Y-63484217D01*
X74654406Y-63293709D01*
X75007469Y-62941261D01*
X75198782Y-62480530D01*
X75199217Y-61981658D01*
X75008709Y-61520594D01*
X74656261Y-61167531D01*
X74195530Y-60976218D01*
X73696658Y-60975783D01*
X73235594Y-61166291D01*
X72882531Y-61518739D01*
X72691218Y-61979470D01*
X72690783Y-62478342D01*
X72658783Y-62478342D01*
X72659217Y-61981658D01*
X72468709Y-61520594D01*
X72116261Y-61167531D01*
X71655530Y-60976218D01*
X71156658Y-60975783D01*
X70695594Y-61166291D01*
X70342531Y-61518739D01*
X70151218Y-61979470D01*
X70150783Y-62478342D01*
X70118783Y-62478342D01*
X70119217Y-61981658D01*
X69928709Y-61520594D01*
X69576261Y-61167531D01*
X69115530Y-60976218D01*
X68616658Y-60975783D01*
X68155594Y-61166291D01*
X67802531Y-61518739D01*
X67611218Y-61979470D01*
X67610783Y-62478342D01*
X67578783Y-62478342D01*
X67579217Y-61981658D01*
X67388709Y-61520594D01*
X67036261Y-61167531D01*
X66575530Y-60976218D01*
X66076658Y-60975783D01*
X65615594Y-61166291D01*
X65262531Y-61518739D01*
X65071218Y-61979470D01*
X65070783Y-62478342D01*
X65038783Y-62478342D01*
X65039217Y-61981658D01*
X64848709Y-61520594D01*
X64496261Y-61167531D01*
X64035530Y-60976218D01*
X63536658Y-60975783D01*
X63075594Y-61166291D01*
X62722531Y-61518739D01*
X62531218Y-61979470D01*
X62530783Y-62478342D01*
X62498783Y-62478342D01*
X62499217Y-61981658D01*
X62308709Y-61520594D01*
X61956261Y-61167531D01*
X61495530Y-60976218D01*
X60996658Y-60975783D01*
X60535594Y-61166291D01*
X60182531Y-61518739D01*
X59991218Y-61979470D01*
X59990783Y-62478342D01*
X59958783Y-62478342D01*
X59959217Y-61981658D01*
X59768709Y-61520594D01*
X59416261Y-61167531D01*
X58955530Y-60976218D01*
X58456658Y-60975783D01*
X57995594Y-61166291D01*
X57642531Y-61518739D01*
X57451218Y-61979470D01*
X57450783Y-62478342D01*
X57418783Y-62478342D01*
X57419217Y-61981658D01*
X57228709Y-61520594D01*
X56876261Y-61167531D01*
X56415530Y-60976218D01*
X55916658Y-60975783D01*
X55455594Y-61166291D01*
X55102531Y-61518739D01*
X54911218Y-61979470D01*
X54910783Y-62478342D01*
X54878783Y-62478342D01*
X54879217Y-61981658D01*
X54688709Y-61520594D01*
X54336261Y-61167531D01*
X53875530Y-60976218D01*
X53376658Y-60975783D01*
X52915594Y-61166291D01*
X52562531Y-61518739D01*
X52371218Y-61979470D01*
X52370783Y-62478342D01*
X52338783Y-62478342D01*
X52339217Y-61981658D01*
X52148709Y-61520594D01*
X51796261Y-61167531D01*
X51335530Y-60976218D01*
X50836658Y-60975783D01*
X50375594Y-61166291D01*
X50022531Y-61518739D01*
X49831218Y-61979470D01*
X49830783Y-62478342D01*
X49798783Y-62478342D01*
X49799217Y-61981658D01*
X49608709Y-61520594D01*
X49256261Y-61167531D01*
X48795530Y-60976218D01*
X48296658Y-60975783D01*
X47835594Y-61166291D01*
X47482531Y-61518739D01*
X47291218Y-61979470D01*
X47290783Y-62478342D01*
X47258783Y-62478342D01*
X47259217Y-61981658D01*
X47068709Y-61520594D01*
X46716261Y-61167531D01*
X46255530Y-60976218D01*
X45756658Y-60975783D01*
X45295594Y-61166291D01*
X44942531Y-61518739D01*
X44751218Y-61979470D01*
X44750783Y-62478342D01*
X44718783Y-62478342D01*
X44719217Y-61981658D01*
X44528709Y-61520594D01*
X44176261Y-61167531D01*
X43715530Y-60976218D01*
X43216658Y-60975783D01*
X42755594Y-61166291D01*
X42402531Y-61518739D01*
X42211218Y-61979470D01*
X42210783Y-62478342D01*
X42178783Y-62478342D01*
X42179217Y-61981658D01*
X41988709Y-61520594D01*
X41636261Y-61167531D01*
X41175530Y-60976218D01*
X40676658Y-60975783D01*
X40215594Y-61166291D01*
X39862531Y-61518739D01*
X39671218Y-61979470D01*
X39670783Y-62478342D01*
X36381000Y-62478342D01*
X36381000Y-55128871D01*
X71085829Y-55128871D01*
X71235319Y-55490663D01*
X71511881Y-55767708D01*
X71873412Y-55917829D01*
X72264871Y-55918171D01*
X72626663Y-55768681D01*
X72903708Y-55492119D01*
X73053829Y-55130588D01*
X73054171Y-54739129D01*
X73015882Y-54646462D01*
X78791772Y-48870572D01*
X78807040Y-48847722D01*
X78908870Y-48695322D01*
X78949990Y-48488600D01*
X78949990Y-45664354D01*
X85275064Y-39339280D01*
X85132169Y-39683409D01*
X85131831Y-40070891D01*
X85255723Y-40370733D01*
X80567828Y-45058628D01*
X80450730Y-45233878D01*
X80409610Y-45440600D01*
X80409610Y-48417246D01*
X74856118Y-53970738D01*
X74806588Y-53950171D01*
X74415129Y-53949829D01*
X74053337Y-54099319D01*
X73776292Y-54375881D01*
X73626171Y-54737412D01*
X73625829Y-55128871D01*
X73775319Y-55490663D01*
X74051881Y-55767708D01*
X74413412Y-55917829D01*
X74804871Y-55918171D01*
X75166663Y-55768681D01*
X75443708Y-55492119D01*
X75593829Y-55130588D01*
X75594152Y-54760592D01*
X81331772Y-49022972D01*
X81433602Y-48870572D01*
X81448870Y-48847722D01*
X81489990Y-48641000D01*
X81489990Y-47825499D01*
X81671881Y-48007708D01*
X82033412Y-48157829D01*
X82424871Y-48158171D01*
X82786663Y-48008681D01*
X83063708Y-47732119D01*
X83213829Y-47370588D01*
X83213830Y-47368871D01*
X83785829Y-47368871D01*
X83935319Y-47730663D01*
X84211881Y-48007708D01*
X84573412Y-48157829D01*
X84964871Y-48158171D01*
X85326663Y-48008681D01*
X85603708Y-47732119D01*
X85753829Y-47370588D01*
X85753830Y-47368871D01*
X86325829Y-47368871D01*
X86475319Y-47730663D01*
X86751881Y-48007708D01*
X87113412Y-48157829D01*
X87504871Y-48158171D01*
X87866663Y-48008681D01*
X88143708Y-47732119D01*
X88293829Y-47370588D01*
X88294171Y-46979129D01*
X88144681Y-46617337D01*
X87868119Y-46340292D01*
X87506588Y-46190171D01*
X87115129Y-46189829D01*
X86753337Y-46339319D01*
X86476292Y-46615881D01*
X86326171Y-46977412D01*
X86325829Y-47368871D01*
X85753830Y-47368871D01*
X85754171Y-46979129D01*
X85604681Y-46617337D01*
X85328119Y-46340292D01*
X84966588Y-46190171D01*
X84575129Y-46189829D01*
X84213337Y-46339319D01*
X83936292Y-46615881D01*
X83786171Y-46977412D01*
X83785829Y-47368871D01*
X83213830Y-47368871D01*
X83214171Y-46979129D01*
X83064681Y-46617337D01*
X82788119Y-46340292D01*
X82426588Y-46190171D01*
X82035129Y-46189829D01*
X81673337Y-46339319D01*
X81489990Y-46522346D01*
X81489990Y-45664354D01*
X85275064Y-41879280D01*
X85132169Y-42223409D01*
X85131831Y-42610891D01*
X85279801Y-42969006D01*
X85553553Y-43243236D01*
X85911409Y-43391831D01*
X86298891Y-43392169D01*
X86657006Y-43244199D01*
X86931236Y-42970447D01*
X87079831Y-42612591D01*
X87080169Y-42225109D01*
X86932199Y-41866994D01*
X86658447Y-41592764D01*
X86300591Y-41444169D01*
X85913109Y-41443831D01*
X85567858Y-41586486D01*
X86304487Y-40849857D01*
X86657006Y-40704199D01*
X86931236Y-40430447D01*
X87079831Y-40072591D01*
X87080169Y-39685109D01*
X86932199Y-39326994D01*
X86658447Y-39052764D01*
X86300591Y-38904169D01*
X85913109Y-38903831D01*
X85567858Y-39046486D01*
X86304487Y-38309857D01*
X86657006Y-38164199D01*
X86931236Y-37890447D01*
X87079831Y-37532591D01*
X87080169Y-37145109D01*
X86932199Y-36786994D01*
X86658447Y-36512764D01*
X86300591Y-36364169D01*
X85913109Y-36363831D01*
X85554994Y-36511801D01*
X85280764Y-36785553D01*
X85132169Y-37143409D01*
X85131831Y-37530891D01*
X85255723Y-37830733D01*
X78027828Y-45058628D01*
X77910730Y-45233878D01*
X77869610Y-45440600D01*
X77869610Y-46502065D01*
X77708119Y-46340292D01*
X77346588Y-46190171D01*
X76955129Y-46189829D01*
X76593337Y-46339319D01*
X76316292Y-46615881D01*
X76166171Y-46977412D01*
X76165829Y-47368871D01*
X76315319Y-47730663D01*
X76591881Y-48007708D01*
X76953412Y-48157829D01*
X77344871Y-48158171D01*
X77706663Y-48008681D01*
X77869610Y-47846018D01*
X77869610Y-48264846D01*
X72184357Y-53950099D01*
X71875129Y-53949829D01*
X71513337Y-54099319D01*
X71236292Y-54375881D01*
X71086171Y-54737412D01*
X71085829Y-55128871D01*
X36381000Y-55128871D01*
X36381000Y-50238812D01*
X49785825Y-50238812D01*
X49939872Y-50611634D01*
X50224865Y-50897126D01*
X50597418Y-51051823D01*
X51000812Y-51052175D01*
X51373634Y-50898128D01*
X51659126Y-50613135D01*
X51813823Y-50240582D01*
X51813824Y-50238812D01*
X52325825Y-50238812D01*
X52479872Y-50611634D01*
X52764865Y-50897126D01*
X53137418Y-51051823D01*
X53540812Y-51052175D01*
X53913634Y-50898128D01*
X54199126Y-50613135D01*
X54353823Y-50240582D01*
X54354175Y-49837188D01*
X54200128Y-49464366D01*
X53915135Y-49178874D01*
X53542582Y-49024177D01*
X53139188Y-49023825D01*
X52766366Y-49177872D01*
X52480874Y-49462865D01*
X52326177Y-49835418D01*
X52325825Y-50238812D01*
X51813824Y-50238812D01*
X51814175Y-49837188D01*
X51660128Y-49464366D01*
X51375135Y-49178874D01*
X51002582Y-49024177D01*
X50599188Y-49023825D01*
X50226366Y-49177872D01*
X49940874Y-49462865D01*
X49786177Y-49835418D01*
X49785825Y-50238812D01*
X36381000Y-50238812D01*
X36381000Y-47153482D01*
X43751357Y-47153482D01*
X43876767Y-47456998D01*
X44108781Y-47689417D01*
X44412077Y-47815357D01*
X44740482Y-47815643D01*
X45043998Y-47690233D01*
X45276417Y-47458219D01*
X45402357Y-47154923D01*
X45402643Y-46826518D01*
X45277233Y-46523002D01*
X45045219Y-46290583D01*
X44741923Y-46164643D01*
X44413518Y-46164357D01*
X44110002Y-46289767D01*
X43877583Y-46521781D01*
X43751643Y-46825077D01*
X43751357Y-47153482D01*
X36381000Y-47153482D01*
X36381000Y-42458836D01*
X37376808Y-42458836D01*
X37544528Y-42864749D01*
X37854818Y-43175580D01*
X38260437Y-43344008D01*
X38699636Y-43344392D01*
X39105549Y-43176672D01*
X39416380Y-42866382D01*
X39584808Y-42460763D01*
X39584809Y-42458836D01*
X39916808Y-42458836D01*
X40084528Y-42864749D01*
X40394818Y-43175580D01*
X40800437Y-43344008D01*
X41239636Y-43344392D01*
X41645549Y-43176672D01*
X41956380Y-42866382D01*
X42124808Y-42460763D01*
X42124809Y-42458836D01*
X42456808Y-42458836D01*
X42624528Y-42864749D01*
X42934818Y-43175580D01*
X43340437Y-43344008D01*
X43779636Y-43344392D01*
X44185549Y-43176672D01*
X44496380Y-42866382D01*
X44664808Y-42460763D01*
X44665192Y-42021564D01*
X44497472Y-41615651D01*
X44187182Y-41304820D01*
X43781563Y-41136392D01*
X43342364Y-41136008D01*
X42936451Y-41303728D01*
X42625620Y-41614018D01*
X42457192Y-42019637D01*
X42456808Y-42458836D01*
X42124809Y-42458836D01*
X42125192Y-42021564D01*
X41957472Y-41615651D01*
X41647182Y-41304820D01*
X41241563Y-41136392D01*
X40802364Y-41136008D01*
X40396451Y-41303728D01*
X40085620Y-41614018D01*
X39917192Y-42019637D01*
X39916808Y-42458836D01*
X39584809Y-42458836D01*
X39585192Y-42021564D01*
X39417472Y-41615651D01*
X39107182Y-41304820D01*
X38701563Y-41136392D01*
X38262364Y-41136008D01*
X37856451Y-41303728D01*
X37545620Y-41614018D01*
X37377192Y-42019637D01*
X37376808Y-42458836D01*
X36381000Y-42458836D01*
X36381000Y-40549482D01*
X66484357Y-40549482D01*
X66609767Y-40852998D01*
X66769810Y-41013320D01*
X66769810Y-42414000D01*
X66810930Y-42620722D01*
X66928028Y-42795972D01*
X71093006Y-46960950D01*
X71086171Y-46977412D01*
X71085829Y-47368871D01*
X71235319Y-47730663D01*
X71511881Y-48007708D01*
X71529810Y-48015153D01*
X71529810Y-48737246D01*
X67940998Y-52326058D01*
X67712772Y-52420360D01*
X67533987Y-52598832D01*
X67437111Y-52832137D01*
X67436890Y-53084755D01*
X67533360Y-53318228D01*
X67711832Y-53497013D01*
X67945137Y-53593889D01*
X68197755Y-53594110D01*
X68431228Y-53497640D01*
X68610013Y-53319168D01*
X68705332Y-53089612D01*
X72451972Y-49342972D01*
X72569070Y-49167722D01*
X72610190Y-48961000D01*
X72610190Y-48015488D01*
X72626663Y-48008681D01*
X72903708Y-47732119D01*
X73053829Y-47370588D01*
X73054000Y-47174000D01*
X73570810Y-47174000D01*
X73611930Y-47380722D01*
X73661184Y-47454436D01*
X73775319Y-47730663D01*
X74051881Y-48007708D01*
X74413412Y-48157829D01*
X74804871Y-48158171D01*
X75166663Y-48008681D01*
X75443708Y-47732119D01*
X75593829Y-47370588D01*
X75594171Y-46979129D01*
X75444681Y-46617337D01*
X75168119Y-46340292D01*
X74806588Y-46190171D01*
X74415129Y-46189829D01*
X74053337Y-46339319D01*
X73776292Y-46615881D01*
X73660666Y-46894340D01*
X73611930Y-46967278D01*
X73570810Y-47174000D01*
X73054000Y-47174000D01*
X73054171Y-46979129D01*
X72904681Y-46617337D01*
X72628119Y-46340292D01*
X72266588Y-46190171D01*
X71875129Y-46189829D01*
X71857187Y-46197243D01*
X69740026Y-44080082D01*
X75094957Y-44080082D01*
X75220367Y-44383598D01*
X75452381Y-44616017D01*
X75755677Y-44741957D01*
X76084082Y-44742243D01*
X76387598Y-44616833D01*
X76620017Y-44384819D01*
X76745957Y-44081523D01*
X76746243Y-43753118D01*
X76620833Y-43449602D01*
X76388819Y-43217183D01*
X76085523Y-43091243D01*
X75757118Y-43090957D01*
X75453602Y-43216367D01*
X75221183Y-43448381D01*
X75095243Y-43751677D01*
X75094957Y-44080082D01*
X69740026Y-44080082D01*
X67850190Y-42190246D01*
X67850190Y-41013169D01*
X68009417Y-40854219D01*
X68135357Y-40550923D01*
X68135643Y-40222518D01*
X68010233Y-39919002D01*
X67778219Y-39686583D01*
X67474923Y-39560643D01*
X67146518Y-39560357D01*
X66843002Y-39685767D01*
X66610583Y-39917781D01*
X66484643Y-40221077D01*
X66484357Y-40549482D01*
X36381000Y-40549482D01*
X36381000Y-38390482D01*
X47434357Y-38390482D01*
X47559767Y-38693998D01*
X47791781Y-38926417D01*
X48095077Y-39052357D01*
X48423482Y-39052643D01*
X48726998Y-38927233D01*
X48959417Y-38695219D01*
X49085357Y-38391923D01*
X49085643Y-38063518D01*
X48960233Y-37760002D01*
X48728219Y-37527583D01*
X48424923Y-37401643D01*
X48096518Y-37401357D01*
X47793002Y-37526767D01*
X47560583Y-37758781D01*
X47434643Y-38062077D01*
X47434357Y-38390482D01*
X36381000Y-38390482D01*
X36381000Y-35829091D01*
X37506831Y-35829091D01*
X37654801Y-36187206D01*
X37928553Y-36461436D01*
X38286409Y-36610031D01*
X38673891Y-36610369D01*
X39032006Y-36462399D01*
X39306236Y-36188647D01*
X39454831Y-35830791D01*
X39454832Y-35829091D01*
X42586831Y-35829091D01*
X42734801Y-36187206D01*
X43008553Y-36461436D01*
X43366409Y-36610031D01*
X43753891Y-36610369D01*
X44112006Y-36462399D01*
X44386236Y-36188647D01*
X44534831Y-35830791D01*
X44535169Y-35443309D01*
X44387199Y-35085194D01*
X44136925Y-34834482D01*
X81546557Y-34834482D01*
X81671967Y-35137998D01*
X81903981Y-35370417D01*
X82207277Y-35496357D01*
X82535682Y-35496643D01*
X82839198Y-35371233D01*
X83071617Y-35139219D01*
X83197557Y-34835923D01*
X83197843Y-34507518D01*
X83072433Y-34204002D01*
X82840419Y-33971583D01*
X82537123Y-33845643D01*
X82208718Y-33845357D01*
X81905202Y-33970767D01*
X81672783Y-34202781D01*
X81546843Y-34506077D01*
X81546557Y-34834482D01*
X44136925Y-34834482D01*
X44113447Y-34810964D01*
X43755591Y-34662369D01*
X43368109Y-34662031D01*
X43009994Y-34810001D01*
X42735764Y-35083753D01*
X42587169Y-35441609D01*
X42586831Y-35829091D01*
X39454832Y-35829091D01*
X39455169Y-35443309D01*
X39307199Y-35085194D01*
X39033447Y-34810964D01*
X38675591Y-34662369D01*
X38288109Y-34662031D01*
X37929994Y-34810001D01*
X37655764Y-35083753D01*
X37507169Y-35441609D01*
X37506831Y-35829091D01*
X36381000Y-35829091D01*
X36381000Y-33564482D01*
X85280357Y-33564482D01*
X85405767Y-33867998D01*
X85637781Y-34100417D01*
X85941077Y-34226357D01*
X86269482Y-34226643D01*
X86572998Y-34101233D01*
X86805417Y-33869219D01*
X86931357Y-33565923D01*
X86931643Y-33237518D01*
X86806233Y-32934002D01*
X86574219Y-32701583D01*
X86270923Y-32575643D01*
X85942518Y-32575357D01*
X85639002Y-32700767D01*
X85406583Y-32932781D01*
X85280643Y-33236077D01*
X85280357Y-33564482D01*
X36381000Y-33564482D01*
X36381000Y-30881000D01*
X129619000Y-30881000D01*
X129619000Y-79119000D01*
X129619000Y-79119000D01*
G37*
X129619000Y-79119000D02*
X36381000Y-79119000D01*
X36381000Y-77718342D01*
X42210783Y-77718342D01*
X42401291Y-78179406D01*
X42753739Y-78532469D01*
X43214470Y-78723782D01*
X43713342Y-78724217D01*
X44174406Y-78533709D01*
X44527469Y-78181261D01*
X44718782Y-77720530D01*
X44718783Y-77718342D01*
X44750783Y-77718342D01*
X44941291Y-78179406D01*
X45293739Y-78532469D01*
X45754470Y-78723782D01*
X46253342Y-78724217D01*
X46714406Y-78533709D01*
X47067469Y-78181261D01*
X47258782Y-77720530D01*
X47258783Y-77718342D01*
X47290783Y-77718342D01*
X47481291Y-78179406D01*
X47833739Y-78532469D01*
X48294470Y-78723782D01*
X48793342Y-78724217D01*
X49254406Y-78533709D01*
X49607469Y-78181261D01*
X49798782Y-77720530D01*
X49798783Y-77718342D01*
X49830783Y-77718342D01*
X50021291Y-78179406D01*
X50373739Y-78532469D01*
X50834470Y-78723782D01*
X51333342Y-78724217D01*
X51794406Y-78533709D01*
X52147469Y-78181261D01*
X52338782Y-77720530D01*
X52338783Y-77718342D01*
X52370783Y-77718342D01*
X52561291Y-78179406D01*
X52913739Y-78532469D01*
X53374470Y-78723782D01*
X53873342Y-78724217D01*
X54334406Y-78533709D01*
X54687469Y-78181261D01*
X54878782Y-77720530D01*
X54878783Y-77718342D01*
X54910783Y-77718342D01*
X55101291Y-78179406D01*
X55453739Y-78532469D01*
X55914470Y-78723782D01*
X56413342Y-78724217D01*
X56874406Y-78533709D01*
X57227469Y-78181261D01*
X57418782Y-77720530D01*
X57418783Y-77718342D01*
X57450783Y-77718342D01*
X57641291Y-78179406D01*
X57993739Y-78532469D01*
X58454470Y-78723782D01*
X58953342Y-78724217D01*
X59414406Y-78533709D01*
X59767469Y-78181261D01*
X59958782Y-77720530D01*
X59958783Y-77718342D01*
X59990783Y-77718342D01*
X60181291Y-78179406D01*
X60533739Y-78532469D01*
X60994470Y-78723782D01*
X61493342Y-78724217D01*
X61954406Y-78533709D01*
X62307469Y-78181261D01*
X62498782Y-77720530D01*
X62498783Y-77718342D01*
X62530783Y-77718342D01*
X62721291Y-78179406D01*
X63073739Y-78532469D01*
X63534470Y-78723782D01*
X64033342Y-78724217D01*
X64494406Y-78533709D01*
X64847469Y-78181261D01*
X65038782Y-77720530D01*
X65038783Y-77718342D01*
X65070783Y-77718342D01*
X65261291Y-78179406D01*
X65613739Y-78532469D01*
X66074470Y-78723782D01*
X66573342Y-78724217D01*
X67034406Y-78533709D01*
X67387469Y-78181261D01*
X67578782Y-77720530D01*
X67578783Y-77718342D01*
X67610783Y-77718342D01*
X67801291Y-78179406D01*
X68153739Y-78532469D01*
X68614470Y-78723782D01*
X69113342Y-78724217D01*
X69574406Y-78533709D01*
X69927469Y-78181261D01*
X70118782Y-77720530D01*
X70118783Y-77718342D01*
X70150783Y-77718342D01*
X70341291Y-78179406D01*
X70693739Y-78532469D01*
X71154470Y-78723782D01*
X71653342Y-78724217D01*
X72114406Y-78533709D01*
X72467469Y-78181261D01*
X72658782Y-77720530D01*
X72658783Y-77718342D01*
X72690783Y-77718342D01*
X72881291Y-78179406D01*
X73233739Y-78532469D01*
X73694470Y-78723782D01*
X74193342Y-78724217D01*
X74654406Y-78533709D01*
X75007469Y-78181261D01*
X75198782Y-77720530D01*
X75199217Y-77221658D01*
X75133241Y-77061982D01*
X75882357Y-77061982D01*
X76007767Y-77365498D01*
X76239781Y-77597917D01*
X76543077Y-77723857D01*
X76871482Y-77724143D01*
X77174998Y-77598733D01*
X77407417Y-77366719D01*
X77533357Y-77063423D01*
X77533643Y-76735018D01*
X77408233Y-76431502D01*
X77248000Y-76270989D01*
X77248000Y-72437812D01*
X119633736Y-72437812D01*
X119865262Y-72998149D01*
X120293596Y-73427231D01*
X120853528Y-73659735D01*
X121459812Y-73660264D01*
X122020149Y-73428738D01*
X122449231Y-73000404D01*
X122681735Y-72440472D01*
X122682264Y-71834188D01*
X122450738Y-71273851D01*
X122022404Y-70844769D01*
X121462472Y-70612265D01*
X120856188Y-70611736D01*
X120295851Y-70843262D01*
X119866769Y-71271596D01*
X119634265Y-71831528D01*
X119633736Y-72437812D01*
X77248000Y-72437812D01*
X77248000Y-65314482D01*
X78549357Y-65314482D01*
X78674767Y-65617998D01*
X78906781Y-65850417D01*
X79210077Y-65976357D01*
X79538482Y-65976643D01*
X79841998Y-65851233D01*
X80074417Y-65619219D01*
X80200357Y-65315923D01*
X80200643Y-64987518D01*
X80075233Y-64684002D01*
X79843219Y-64451583D01*
X79539923Y-64325643D01*
X79211518Y-64325357D01*
X78908002Y-64450767D01*
X78675583Y-64682781D01*
X78549643Y-64986077D01*
X78549357Y-65314482D01*
X77248000Y-65314482D01*
X77248000Y-55918086D01*
X77344871Y-55918171D01*
X77706663Y-55768681D01*
X77983708Y-55492119D01*
X78133829Y-55130588D01*
X78133830Y-55128871D01*
X78705829Y-55128871D01*
X78855319Y-55490663D01*
X79131881Y-55767708D01*
X79493412Y-55917829D01*
X79884871Y-55918171D01*
X80246663Y-55768681D01*
X80523708Y-55492119D01*
X80673829Y-55130588D01*
X80673830Y-55128871D01*
X81245829Y-55128871D01*
X81395319Y-55490663D01*
X81671881Y-55767708D01*
X82033412Y-55917829D01*
X82424871Y-55918171D01*
X82786663Y-55768681D01*
X83063708Y-55492119D01*
X83213829Y-55130588D01*
X83213830Y-55128871D01*
X83785829Y-55128871D01*
X83935319Y-55490663D01*
X84211881Y-55767708D01*
X84573412Y-55917829D01*
X84964871Y-55918171D01*
X85326663Y-55768681D01*
X85603708Y-55492119D01*
X85753829Y-55130588D01*
X85753830Y-55128871D01*
X86325829Y-55128871D01*
X86475319Y-55490663D01*
X86751881Y-55767708D01*
X87113412Y-55917829D01*
X87504871Y-55918171D01*
X87866663Y-55768681D01*
X88143708Y-55492119D01*
X88293829Y-55130588D01*
X88294171Y-54739129D01*
X88144681Y-54377337D01*
X87868119Y-54100292D01*
X87506588Y-53950171D01*
X87115129Y-53949829D01*
X86753337Y-54099319D01*
X86476292Y-54375881D01*
X86326171Y-54737412D01*
X86325829Y-55128871D01*
X85753830Y-55128871D01*
X85754171Y-54739129D01*
X85604681Y-54377337D01*
X85328119Y-54100292D01*
X84966588Y-53950171D01*
X84575129Y-53949829D01*
X84213337Y-54099319D01*
X83936292Y-54375881D01*
X83786171Y-54737412D01*
X83785829Y-55128871D01*
X83213830Y-55128871D01*
X83214171Y-54739129D01*
X83064681Y-54377337D01*
X82788119Y-54100292D01*
X82426588Y-53950171D01*
X82035129Y-53949829D01*
X81673337Y-54099319D01*
X81396292Y-54375881D01*
X81246171Y-54737412D01*
X81245829Y-55128871D01*
X80673830Y-55128871D01*
X80674171Y-54739129D01*
X80524681Y-54377337D01*
X80248119Y-54100292D01*
X79886588Y-53950171D01*
X79495129Y-53949829D01*
X79133337Y-54099319D01*
X78856292Y-54375881D01*
X78706171Y-54737412D01*
X78705829Y-55128871D01*
X78133830Y-55128871D01*
X78134171Y-54739129D01*
X77984681Y-54377337D01*
X77708119Y-54100292D01*
X77346588Y-53950171D01*
X76955129Y-53949829D01*
X76593337Y-54099319D01*
X76316292Y-54375881D01*
X76166171Y-54737412D01*
X76165829Y-55128871D01*
X76200477Y-55212726D01*
X76168000Y-55376000D01*
X76168000Y-76271142D01*
X76008583Y-76430281D01*
X75882643Y-76733577D01*
X75882357Y-77061982D01*
X75133241Y-77061982D01*
X75008709Y-76760594D01*
X74656261Y-76407531D01*
X74195530Y-76216218D01*
X73696658Y-76215783D01*
X73235594Y-76406291D01*
X72882531Y-76758739D01*
X72691218Y-77219470D01*
X72690783Y-77718342D01*
X72658783Y-77718342D01*
X72659217Y-77221658D01*
X72468709Y-76760594D01*
X72116261Y-76407531D01*
X71655530Y-76216218D01*
X71156658Y-76215783D01*
X70695594Y-76406291D01*
X70342531Y-76758739D01*
X70151218Y-77219470D01*
X70150783Y-77718342D01*
X70118783Y-77718342D01*
X70119217Y-77221658D01*
X69928709Y-76760594D01*
X69576261Y-76407531D01*
X69115530Y-76216218D01*
X68616658Y-76215783D01*
X68155594Y-76406291D01*
X67802531Y-76758739D01*
X67611218Y-77219470D01*
X67610783Y-77718342D01*
X67578783Y-77718342D01*
X67579217Y-77221658D01*
X67388709Y-76760594D01*
X67036261Y-76407531D01*
X66575530Y-76216218D01*
X66076658Y-76215783D01*
X65615594Y-76406291D01*
X65262531Y-76758739D01*
X65071218Y-77219470D01*
X65070783Y-77718342D01*
X65038783Y-77718342D01*
X65039217Y-77221658D01*
X64848709Y-76760594D01*
X64496261Y-76407531D01*
X64035530Y-76216218D01*
X63536658Y-76215783D01*
X63075594Y-76406291D01*
X62722531Y-76758739D01*
X62531218Y-77219470D01*
X62530783Y-77718342D01*
X62498783Y-77718342D01*
X62499217Y-77221658D01*
X62308709Y-76760594D01*
X61956261Y-76407531D01*
X61495530Y-76216218D01*
X60996658Y-76215783D01*
X60535594Y-76406291D01*
X60182531Y-76758739D01*
X59991218Y-77219470D01*
X59990783Y-77718342D01*
X59958783Y-77718342D01*
X59959217Y-77221658D01*
X59768709Y-76760594D01*
X59416261Y-76407531D01*
X58955530Y-76216218D01*
X58456658Y-76215783D01*
X57995594Y-76406291D01*
X57642531Y-76758739D01*
X57451218Y-77219470D01*
X57450783Y-77718342D01*
X57418783Y-77718342D01*
X57419217Y-77221658D01*
X57228709Y-76760594D01*
X56876261Y-76407531D01*
X56415530Y-76216218D01*
X55916658Y-76215783D01*
X55455594Y-76406291D01*
X55102531Y-76758739D01*
X54911218Y-77219470D01*
X54910783Y-77718342D01*
X54878783Y-77718342D01*
X54879217Y-77221658D01*
X54688709Y-76760594D01*
X54336261Y-76407531D01*
X53875530Y-76216218D01*
X53376658Y-76215783D01*
X52915594Y-76406291D01*
X52562531Y-76758739D01*
X52371218Y-77219470D01*
X52370783Y-77718342D01*
X52338783Y-77718342D01*
X52339217Y-77221658D01*
X52148709Y-76760594D01*
X51796261Y-76407531D01*
X51335530Y-76216218D01*
X50836658Y-76215783D01*
X50375594Y-76406291D01*
X50022531Y-76758739D01*
X49831218Y-77219470D01*
X49830783Y-77718342D01*
X49798783Y-77718342D01*
X49799217Y-77221658D01*
X49608709Y-76760594D01*
X49256261Y-76407531D01*
X48795530Y-76216218D01*
X48296658Y-76215783D01*
X47835594Y-76406291D01*
X47482531Y-76758739D01*
X47291218Y-77219470D01*
X47290783Y-77718342D01*
X47258783Y-77718342D01*
X47259217Y-77221658D01*
X47068709Y-76760594D01*
X46716261Y-76407531D01*
X46255530Y-76216218D01*
X45756658Y-76215783D01*
X45295594Y-76406291D01*
X44942531Y-76758739D01*
X44751218Y-77219470D01*
X44750783Y-77718342D01*
X44718783Y-77718342D01*
X44719217Y-77221658D01*
X44528709Y-76760594D01*
X44176261Y-76407531D01*
X43715530Y-76216218D01*
X43216658Y-76215783D01*
X42755594Y-76406291D01*
X42402531Y-76758739D01*
X42211218Y-77219470D01*
X42210783Y-77718342D01*
X36381000Y-77718342D01*
X36381000Y-75178342D01*
X72690783Y-75178342D01*
X72881291Y-75639406D01*
X73233739Y-75992469D01*
X73694470Y-76183782D01*
X74193342Y-76184217D01*
X74654406Y-75993709D01*
X75007469Y-75641261D01*
X75198782Y-75180530D01*
X75199217Y-74681658D01*
X75008709Y-74220594D01*
X74656261Y-73867531D01*
X74195530Y-73676218D01*
X73696658Y-73675783D01*
X73235594Y-73866291D01*
X72882531Y-74218739D01*
X72691218Y-74679470D01*
X72690783Y-75178342D01*
X36381000Y-75178342D01*
X36381000Y-72638342D01*
X72690783Y-72638342D01*
X72881291Y-73099406D01*
X73233739Y-73452469D01*
X73694470Y-73643782D01*
X74193342Y-73644217D01*
X74654406Y-73453709D01*
X75007469Y-73101261D01*
X75198782Y-72640530D01*
X75199217Y-72141658D01*
X75008709Y-71680594D01*
X74656261Y-71327531D01*
X74195530Y-71136218D01*
X73696658Y-71135783D01*
X73235594Y-71326291D01*
X72882531Y-71678739D01*
X72691218Y-72139470D01*
X72690783Y-72638342D01*
X36381000Y-72638342D01*
X36381000Y-67558342D01*
X72690783Y-67558342D01*
X72881291Y-68019406D01*
X73233739Y-68372469D01*
X73694470Y-68563782D01*
X74193342Y-68564217D01*
X74654406Y-68373709D01*
X75007469Y-68021261D01*
X75198782Y-67560530D01*
X75199217Y-67061658D01*
X75008709Y-66600594D01*
X74656261Y-66247531D01*
X74195530Y-66056218D01*
X73696658Y-66055783D01*
X73235594Y-66246291D01*
X72882531Y-66598739D01*
X72691218Y-67059470D01*
X72690783Y-67558342D01*
X36381000Y-67558342D01*
X36381000Y-65018342D01*
X42210783Y-65018342D01*
X42401291Y-65479406D01*
X42753739Y-65832469D01*
X43214470Y-66023782D01*
X43713342Y-66024217D01*
X44174406Y-65833709D01*
X44527469Y-65481261D01*
X44718782Y-65020530D01*
X44718783Y-65018342D01*
X47290783Y-65018342D01*
X47481291Y-65479406D01*
X47833739Y-65832469D01*
X48294470Y-66023782D01*
X48793342Y-66024217D01*
X49254406Y-65833709D01*
X49607469Y-65481261D01*
X49798782Y-65020530D01*
X49798783Y-65018342D01*
X49830783Y-65018342D01*
X50021291Y-65479406D01*
X50373739Y-65832469D01*
X50834470Y-66023782D01*
X51333342Y-66024217D01*
X51794406Y-65833709D01*
X52147469Y-65481261D01*
X52338782Y-65020530D01*
X52338783Y-65018342D01*
X52370783Y-65018342D01*
X52561291Y-65479406D01*
X52913739Y-65832469D01*
X53374470Y-66023782D01*
X53873342Y-66024217D01*
X54334406Y-65833709D01*
X54687469Y-65481261D01*
X54878782Y-65020530D01*
X54878783Y-65018342D01*
X72690783Y-65018342D01*
X72881291Y-65479406D01*
X73233739Y-65832469D01*
X73694470Y-66023782D01*
X74193342Y-66024217D01*
X74654406Y-65833709D01*
X75007469Y-65481261D01*
X75198782Y-65020530D01*
X75199217Y-64521658D01*
X75008709Y-64060594D01*
X74656261Y-63707531D01*
X74195530Y-63516218D01*
X73696658Y-63515783D01*
X73235594Y-63706291D01*
X72882531Y-64058739D01*
X72691218Y-64519470D01*
X72690783Y-65018342D01*
X54878783Y-65018342D01*
X54879217Y-64521658D01*
X54688709Y-64060594D01*
X54336261Y-63707531D01*
X53875530Y-63516218D01*
X53376658Y-63515783D01*
X52915594Y-63706291D01*
X52562531Y-64058739D01*
X52371218Y-64519470D01*
X52370783Y-65018342D01*
X52338783Y-65018342D01*
X52339217Y-64521658D01*
X52148709Y-64060594D01*
X51796261Y-63707531D01*
X51335530Y-63516218D01*
X50836658Y-63515783D01*
X50375594Y-63706291D01*
X50022531Y-64058739D01*
X49831218Y-64519470D01*
X49830783Y-65018342D01*
X49798783Y-65018342D01*
X49799217Y-64521658D01*
X49608709Y-64060594D01*
X49256261Y-63707531D01*
X48795530Y-63516218D01*
X48296658Y-63515783D01*
X47835594Y-63706291D01*
X47482531Y-64058739D01*
X47291218Y-64519470D01*
X47290783Y-65018342D01*
X44718783Y-65018342D01*
X44719217Y-64521658D01*
X44528709Y-64060594D01*
X44176261Y-63707531D01*
X43715530Y-63516218D01*
X43216658Y-63515783D01*
X42755594Y-63706291D01*
X42402531Y-64058739D01*
X42211218Y-64519470D01*
X42210783Y-65018342D01*
X36381000Y-65018342D01*
X36381000Y-62478342D01*
X39670783Y-62478342D01*
X39861291Y-62939406D01*
X40213739Y-63292469D01*
X40674470Y-63483782D01*
X41173342Y-63484217D01*
X41634406Y-63293709D01*
X41987469Y-62941261D01*
X42178782Y-62480530D01*
X42178783Y-62478342D01*
X42210783Y-62478342D01*
X42401291Y-62939406D01*
X42753739Y-63292469D01*
X43214470Y-63483782D01*
X43713342Y-63484217D01*
X44174406Y-63293709D01*
X44527469Y-62941261D01*
X44718782Y-62480530D01*
X44718783Y-62478342D01*
X44750783Y-62478342D01*
X44941291Y-62939406D01*
X45293739Y-63292469D01*
X45754470Y-63483782D01*
X46253342Y-63484217D01*
X46714406Y-63293709D01*
X47067469Y-62941261D01*
X47258782Y-62480530D01*
X47258783Y-62478342D01*
X47290783Y-62478342D01*
X47481291Y-62939406D01*
X47833739Y-63292469D01*
X48294470Y-63483782D01*
X48793342Y-63484217D01*
X49254406Y-63293709D01*
X49607469Y-62941261D01*
X49798782Y-62480530D01*
X49798783Y-62478342D01*
X49830783Y-62478342D01*
X50021291Y-62939406D01*
X50373739Y-63292469D01*
X50834470Y-63483782D01*
X51333342Y-63484217D01*
X51794406Y-63293709D01*
X52147469Y-62941261D01*
X52338782Y-62480530D01*
X52338783Y-62478342D01*
X52370783Y-62478342D01*
X52561291Y-62939406D01*
X52913739Y-63292469D01*
X53374470Y-63483782D01*
X53873342Y-63484217D01*
X54334406Y-63293709D01*
X54687469Y-62941261D01*
X54878782Y-62480530D01*
X54878783Y-62478342D01*
X54910783Y-62478342D01*
X55101291Y-62939406D01*
X55453739Y-63292469D01*
X55914470Y-63483782D01*
X56413342Y-63484217D01*
X56874406Y-63293709D01*
X57227469Y-62941261D01*
X57418782Y-62480530D01*
X57418783Y-62478342D01*
X57450783Y-62478342D01*
X57641291Y-62939406D01*
X57993739Y-63292469D01*
X58454470Y-63483782D01*
X58953342Y-63484217D01*
X59414406Y-63293709D01*
X59767469Y-62941261D01*
X59958782Y-62480530D01*
X59958783Y-62478342D01*
X59990783Y-62478342D01*
X60181291Y-62939406D01*
X60533739Y-63292469D01*
X60994470Y-63483782D01*
X61493342Y-63484217D01*
X61954406Y-63293709D01*
X62307469Y-62941261D01*
X62498782Y-62480530D01*
X62498783Y-62478342D01*
X62530783Y-62478342D01*
X62721291Y-62939406D01*
X63073739Y-63292469D01*
X63534470Y-63483782D01*
X64033342Y-63484217D01*
X64494406Y-63293709D01*
X64847469Y-62941261D01*
X65038782Y-62480530D01*
X65038783Y-62478342D01*
X65070783Y-62478342D01*
X65261291Y-62939406D01*
X65613739Y-63292469D01*
X66074470Y-63483782D01*
X66573342Y-63484217D01*
X67034406Y-63293709D01*
X67387469Y-62941261D01*
X67578782Y-62480530D01*
X67578783Y-62478342D01*
X67610783Y-62478342D01*
X67801291Y-62939406D01*
X68153739Y-63292469D01*
X68614470Y-63483782D01*
X69113342Y-63484217D01*
X69574406Y-63293709D01*
X69927469Y-62941261D01*
X70118782Y-62480530D01*
X70118783Y-62478342D01*
X70150783Y-62478342D01*
X70341291Y-62939406D01*
X70693739Y-63292469D01*
X71154470Y-63483782D01*
X71653342Y-63484217D01*
X72114406Y-63293709D01*
X72467469Y-62941261D01*
X72658782Y-62480530D01*
X72658783Y-62478342D01*
X72690783Y-62478342D01*
X72881291Y-62939406D01*
X73233739Y-63292469D01*
X73694470Y-63483782D01*
X74193342Y-63484217D01*
X74654406Y-63293709D01*
X75007469Y-62941261D01*
X75198782Y-62480530D01*
X75199217Y-61981658D01*
X75008709Y-61520594D01*
X74656261Y-61167531D01*
X74195530Y-60976218D01*
X73696658Y-60975783D01*
X73235594Y-61166291D01*
X72882531Y-61518739D01*
X72691218Y-61979470D01*
X72690783Y-62478342D01*
X72658783Y-62478342D01*
X72659217Y-61981658D01*
X72468709Y-61520594D01*
X72116261Y-61167531D01*
X71655530Y-60976218D01*
X71156658Y-60975783D01*
X70695594Y-61166291D01*
X70342531Y-61518739D01*
X70151218Y-61979470D01*
X70150783Y-62478342D01*
X70118783Y-62478342D01*
X70119217Y-61981658D01*
X69928709Y-61520594D01*
X69576261Y-61167531D01*
X69115530Y-60976218D01*
X68616658Y-60975783D01*
X68155594Y-61166291D01*
X67802531Y-61518739D01*
X67611218Y-61979470D01*
X67610783Y-62478342D01*
X67578783Y-62478342D01*
X67579217Y-61981658D01*
X67388709Y-61520594D01*
X67036261Y-61167531D01*
X66575530Y-60976218D01*
X66076658Y-60975783D01*
X65615594Y-61166291D01*
X65262531Y-61518739D01*
X65071218Y-61979470D01*
X65070783Y-62478342D01*
X65038783Y-62478342D01*
X65039217Y-61981658D01*
X64848709Y-61520594D01*
X64496261Y-61167531D01*
X64035530Y-60976218D01*
X63536658Y-60975783D01*
X63075594Y-61166291D01*
X62722531Y-61518739D01*
X62531218Y-61979470D01*
X62530783Y-62478342D01*
X62498783Y-62478342D01*
X62499217Y-61981658D01*
X62308709Y-61520594D01*
X61956261Y-61167531D01*
X61495530Y-60976218D01*
X60996658Y-60975783D01*
X60535594Y-61166291D01*
X60182531Y-61518739D01*
X59991218Y-61979470D01*
X59990783Y-62478342D01*
X59958783Y-62478342D01*
X59959217Y-61981658D01*
X59768709Y-61520594D01*
X59416261Y-61167531D01*
X58955530Y-60976218D01*
X58456658Y-60975783D01*
X57995594Y-61166291D01*
X57642531Y-61518739D01*
X57451218Y-61979470D01*
X57450783Y-62478342D01*
X57418783Y-62478342D01*
X57419217Y-61981658D01*
X57228709Y-61520594D01*
X56876261Y-61167531D01*
X56415530Y-60976218D01*
X55916658Y-60975783D01*
X55455594Y-61166291D01*
X55102531Y-61518739D01*
X54911218Y-61979470D01*
X54910783Y-62478342D01*
X54878783Y-62478342D01*
X54879217Y-61981658D01*
X54688709Y-61520594D01*
X54336261Y-61167531D01*
X53875530Y-60976218D01*
X53376658Y-60975783D01*
X52915594Y-61166291D01*
X52562531Y-61518739D01*
X52371218Y-61979470D01*
X52370783Y-62478342D01*
X52338783Y-62478342D01*
X52339217Y-61981658D01*
X52148709Y-61520594D01*
X51796261Y-61167531D01*
X51335530Y-60976218D01*
X50836658Y-60975783D01*
X50375594Y-61166291D01*
X50022531Y-61518739D01*
X49831218Y-61979470D01*
X49830783Y-62478342D01*
X49798783Y-62478342D01*
X49799217Y-61981658D01*
X49608709Y-61520594D01*
X49256261Y-61167531D01*
X48795530Y-60976218D01*
X48296658Y-60975783D01*
X47835594Y-61166291D01*
X47482531Y-61518739D01*
X47291218Y-61979470D01*
X47290783Y-62478342D01*
X47258783Y-62478342D01*
X47259217Y-61981658D01*
X47068709Y-61520594D01*
X46716261Y-61167531D01*
X46255530Y-60976218D01*
X45756658Y-60975783D01*
X45295594Y-61166291D01*
X44942531Y-61518739D01*
X44751218Y-61979470D01*
X44750783Y-62478342D01*
X44718783Y-62478342D01*
X44719217Y-61981658D01*
X44528709Y-61520594D01*
X44176261Y-61167531D01*
X43715530Y-60976218D01*
X43216658Y-60975783D01*
X42755594Y-61166291D01*
X42402531Y-61518739D01*
X42211218Y-61979470D01*
X42210783Y-62478342D01*
X42178783Y-62478342D01*
X42179217Y-61981658D01*
X41988709Y-61520594D01*
X41636261Y-61167531D01*
X41175530Y-60976218D01*
X40676658Y-60975783D01*
X40215594Y-61166291D01*
X39862531Y-61518739D01*
X39671218Y-61979470D01*
X39670783Y-62478342D01*
X36381000Y-62478342D01*
X36381000Y-55128871D01*
X71085829Y-55128871D01*
X71235319Y-55490663D01*
X71511881Y-55767708D01*
X71873412Y-55917829D01*
X72264871Y-55918171D01*
X72626663Y-55768681D01*
X72903708Y-55492119D01*
X73053829Y-55130588D01*
X73054171Y-54739129D01*
X73015882Y-54646462D01*
X78791772Y-48870572D01*
X78807040Y-48847722D01*
X78908870Y-48695322D01*
X78949990Y-48488600D01*
X78949990Y-45664354D01*
X85275064Y-39339280D01*
X85132169Y-39683409D01*
X85131831Y-40070891D01*
X85255723Y-40370733D01*
X80567828Y-45058628D01*
X80450730Y-45233878D01*
X80409610Y-45440600D01*
X80409610Y-48417246D01*
X74856118Y-53970738D01*
X74806588Y-53950171D01*
X74415129Y-53949829D01*
X74053337Y-54099319D01*
X73776292Y-54375881D01*
X73626171Y-54737412D01*
X73625829Y-55128871D01*
X73775319Y-55490663D01*
X74051881Y-55767708D01*
X74413412Y-55917829D01*
X74804871Y-55918171D01*
X75166663Y-55768681D01*
X75443708Y-55492119D01*
X75593829Y-55130588D01*
X75594152Y-54760592D01*
X81331772Y-49022972D01*
X81433602Y-48870572D01*
X81448870Y-48847722D01*
X81489990Y-48641000D01*
X81489990Y-47825499D01*
X81671881Y-48007708D01*
X82033412Y-48157829D01*
X82424871Y-48158171D01*
X82786663Y-48008681D01*
X83063708Y-47732119D01*
X83213829Y-47370588D01*
X83213830Y-47368871D01*
X83785829Y-47368871D01*
X83935319Y-47730663D01*
X84211881Y-48007708D01*
X84573412Y-48157829D01*
X84964871Y-48158171D01*
X85326663Y-48008681D01*
X85603708Y-47732119D01*
X85753829Y-47370588D01*
X85753830Y-47368871D01*
X86325829Y-47368871D01*
X86475319Y-47730663D01*
X86751881Y-48007708D01*
X87113412Y-48157829D01*
X87504871Y-48158171D01*
X87866663Y-48008681D01*
X88143708Y-47732119D01*
X88293829Y-47370588D01*
X88294171Y-46979129D01*
X88144681Y-46617337D01*
X87868119Y-46340292D01*
X87506588Y-46190171D01*
X87115129Y-46189829D01*
X86753337Y-46339319D01*
X86476292Y-46615881D01*
X86326171Y-46977412D01*
X86325829Y-47368871D01*
X85753830Y-47368871D01*
X85754171Y-46979129D01*
X85604681Y-46617337D01*
X85328119Y-46340292D01*
X84966588Y-46190171D01*
X84575129Y-46189829D01*
X84213337Y-46339319D01*
X83936292Y-46615881D01*
X83786171Y-46977412D01*
X83785829Y-47368871D01*
X83213830Y-47368871D01*
X83214171Y-46979129D01*
X83064681Y-46617337D01*
X82788119Y-46340292D01*
X82426588Y-46190171D01*
X82035129Y-46189829D01*
X81673337Y-46339319D01*
X81489990Y-46522346D01*
X81489990Y-45664354D01*
X85275064Y-41879280D01*
X85132169Y-42223409D01*
X85131831Y-42610891D01*
X85279801Y-42969006D01*
X85553553Y-43243236D01*
X85911409Y-43391831D01*
X86298891Y-43392169D01*
X86657006Y-43244199D01*
X86931236Y-42970447D01*
X87079831Y-42612591D01*
X87080169Y-42225109D01*
X86932199Y-41866994D01*
X86658447Y-41592764D01*
X86300591Y-41444169D01*
X85913109Y-41443831D01*
X85567858Y-41586486D01*
X86304487Y-40849857D01*
X86657006Y-40704199D01*
X86931236Y-40430447D01*
X87079831Y-40072591D01*
X87080169Y-39685109D01*
X86932199Y-39326994D01*
X86658447Y-39052764D01*
X86300591Y-38904169D01*
X85913109Y-38903831D01*
X85567858Y-39046486D01*
X86304487Y-38309857D01*
X86657006Y-38164199D01*
X86931236Y-37890447D01*
X87079831Y-37532591D01*
X87080169Y-37145109D01*
X86932199Y-36786994D01*
X86658447Y-36512764D01*
X86300591Y-36364169D01*
X85913109Y-36363831D01*
X85554994Y-36511801D01*
X85280764Y-36785553D01*
X85132169Y-37143409D01*
X85131831Y-37530891D01*
X85255723Y-37830733D01*
X78027828Y-45058628D01*
X77910730Y-45233878D01*
X77869610Y-45440600D01*
X77869610Y-46502065D01*
X77708119Y-46340292D01*
X77346588Y-46190171D01*
X76955129Y-46189829D01*
X76593337Y-46339319D01*
X76316292Y-46615881D01*
X76166171Y-46977412D01*
X76165829Y-47368871D01*
X76315319Y-47730663D01*
X76591881Y-48007708D01*
X76953412Y-48157829D01*
X77344871Y-48158171D01*
X77706663Y-48008681D01*
X77869610Y-47846018D01*
X77869610Y-48264846D01*
X72184357Y-53950099D01*
X71875129Y-53949829D01*
X71513337Y-54099319D01*
X71236292Y-54375881D01*
X71086171Y-54737412D01*
X71085829Y-55128871D01*
X36381000Y-55128871D01*
X36381000Y-50238812D01*
X49785825Y-50238812D01*
X49939872Y-50611634D01*
X50224865Y-50897126D01*
X50597418Y-51051823D01*
X51000812Y-51052175D01*
X51373634Y-50898128D01*
X51659126Y-50613135D01*
X51813823Y-50240582D01*
X51813824Y-50238812D01*
X52325825Y-50238812D01*
X52479872Y-50611634D01*
X52764865Y-50897126D01*
X53137418Y-51051823D01*
X53540812Y-51052175D01*
X53913634Y-50898128D01*
X54199126Y-50613135D01*
X54353823Y-50240582D01*
X54354175Y-49837188D01*
X54200128Y-49464366D01*
X53915135Y-49178874D01*
X53542582Y-49024177D01*
X53139188Y-49023825D01*
X52766366Y-49177872D01*
X52480874Y-49462865D01*
X52326177Y-49835418D01*
X52325825Y-50238812D01*
X51813824Y-50238812D01*
X51814175Y-49837188D01*
X51660128Y-49464366D01*
X51375135Y-49178874D01*
X51002582Y-49024177D01*
X50599188Y-49023825D01*
X50226366Y-49177872D01*
X49940874Y-49462865D01*
X49786177Y-49835418D01*
X49785825Y-50238812D01*
X36381000Y-50238812D01*
X36381000Y-47153482D01*
X43751357Y-47153482D01*
X43876767Y-47456998D01*
X44108781Y-47689417D01*
X44412077Y-47815357D01*
X44740482Y-47815643D01*
X45043998Y-47690233D01*
X45276417Y-47458219D01*
X45402357Y-47154923D01*
X45402643Y-46826518D01*
X45277233Y-46523002D01*
X45045219Y-46290583D01*
X44741923Y-46164643D01*
X44413518Y-46164357D01*
X44110002Y-46289767D01*
X43877583Y-46521781D01*
X43751643Y-46825077D01*
X43751357Y-47153482D01*
X36381000Y-47153482D01*
X36381000Y-42458836D01*
X37376808Y-42458836D01*
X37544528Y-42864749D01*
X37854818Y-43175580D01*
X38260437Y-43344008D01*
X38699636Y-43344392D01*
X39105549Y-43176672D01*
X39416380Y-42866382D01*
X39584808Y-42460763D01*
X39584809Y-42458836D01*
X39916808Y-42458836D01*
X40084528Y-42864749D01*
X40394818Y-43175580D01*
X40800437Y-43344008D01*
X41239636Y-43344392D01*
X41645549Y-43176672D01*
X41956380Y-42866382D01*
X42124808Y-42460763D01*
X42124809Y-42458836D01*
X42456808Y-42458836D01*
X42624528Y-42864749D01*
X42934818Y-43175580D01*
X43340437Y-43344008D01*
X43779636Y-43344392D01*
X44185549Y-43176672D01*
X44496380Y-42866382D01*
X44664808Y-42460763D01*
X44665192Y-42021564D01*
X44497472Y-41615651D01*
X44187182Y-41304820D01*
X43781563Y-41136392D01*
X43342364Y-41136008D01*
X42936451Y-41303728D01*
X42625620Y-41614018D01*
X42457192Y-42019637D01*
X42456808Y-42458836D01*
X42124809Y-42458836D01*
X42125192Y-42021564D01*
X41957472Y-41615651D01*
X41647182Y-41304820D01*
X41241563Y-41136392D01*
X40802364Y-41136008D01*
X40396451Y-41303728D01*
X40085620Y-41614018D01*
X39917192Y-42019637D01*
X39916808Y-42458836D01*
X39584809Y-42458836D01*
X39585192Y-42021564D01*
X39417472Y-41615651D01*
X39107182Y-41304820D01*
X38701563Y-41136392D01*
X38262364Y-41136008D01*
X37856451Y-41303728D01*
X37545620Y-41614018D01*
X37377192Y-42019637D01*
X37376808Y-42458836D01*
X36381000Y-42458836D01*
X36381000Y-40549482D01*
X66484357Y-40549482D01*
X66609767Y-40852998D01*
X66769810Y-41013320D01*
X66769810Y-42414000D01*
X66810930Y-42620722D01*
X66928028Y-42795972D01*
X71093006Y-46960950D01*
X71086171Y-46977412D01*
X71085829Y-47368871D01*
X71235319Y-47730663D01*
X71511881Y-48007708D01*
X71529810Y-48015153D01*
X71529810Y-48737246D01*
X67940998Y-52326058D01*
X67712772Y-52420360D01*
X67533987Y-52598832D01*
X67437111Y-52832137D01*
X67436890Y-53084755D01*
X67533360Y-53318228D01*
X67711832Y-53497013D01*
X67945137Y-53593889D01*
X68197755Y-53594110D01*
X68431228Y-53497640D01*
X68610013Y-53319168D01*
X68705332Y-53089612D01*
X72451972Y-49342972D01*
X72569070Y-49167722D01*
X72610190Y-48961000D01*
X72610190Y-48015488D01*
X72626663Y-48008681D01*
X72903708Y-47732119D01*
X73053829Y-47370588D01*
X73054000Y-47174000D01*
X73570810Y-47174000D01*
X73611930Y-47380722D01*
X73661184Y-47454436D01*
X73775319Y-47730663D01*
X74051881Y-48007708D01*
X74413412Y-48157829D01*
X74804871Y-48158171D01*
X75166663Y-48008681D01*
X75443708Y-47732119D01*
X75593829Y-47370588D01*
X75594171Y-46979129D01*
X75444681Y-46617337D01*
X75168119Y-46340292D01*
X74806588Y-46190171D01*
X74415129Y-46189829D01*
X74053337Y-46339319D01*
X73776292Y-46615881D01*
X73660666Y-46894340D01*
X73611930Y-46967278D01*
X73570810Y-47174000D01*
X73054000Y-47174000D01*
X73054171Y-46979129D01*
X72904681Y-46617337D01*
X72628119Y-46340292D01*
X72266588Y-46190171D01*
X71875129Y-46189829D01*
X71857187Y-46197243D01*
X69740026Y-44080082D01*
X75094957Y-44080082D01*
X75220367Y-44383598D01*
X75452381Y-44616017D01*
X75755677Y-44741957D01*
X76084082Y-44742243D01*
X76387598Y-44616833D01*
X76620017Y-44384819D01*
X76745957Y-44081523D01*
X76746243Y-43753118D01*
X76620833Y-43449602D01*
X76388819Y-43217183D01*
X76085523Y-43091243D01*
X75757118Y-43090957D01*
X75453602Y-43216367D01*
X75221183Y-43448381D01*
X75095243Y-43751677D01*
X75094957Y-44080082D01*
X69740026Y-44080082D01*
X67850190Y-42190246D01*
X67850190Y-41013169D01*
X68009417Y-40854219D01*
X68135357Y-40550923D01*
X68135643Y-40222518D01*
X68010233Y-39919002D01*
X67778219Y-39686583D01*
X67474923Y-39560643D01*
X67146518Y-39560357D01*
X66843002Y-39685767D01*
X66610583Y-39917781D01*
X66484643Y-40221077D01*
X66484357Y-40549482D01*
X36381000Y-40549482D01*
X36381000Y-38390482D01*
X47434357Y-38390482D01*
X47559767Y-38693998D01*
X47791781Y-38926417D01*
X48095077Y-39052357D01*
X48423482Y-39052643D01*
X48726998Y-38927233D01*
X48959417Y-38695219D01*
X49085357Y-38391923D01*
X49085643Y-38063518D01*
X48960233Y-37760002D01*
X48728219Y-37527583D01*
X48424923Y-37401643D01*
X48096518Y-37401357D01*
X47793002Y-37526767D01*
X47560583Y-37758781D01*
X47434643Y-38062077D01*
X47434357Y-38390482D01*
X36381000Y-38390482D01*
X36381000Y-35829091D01*
X37506831Y-35829091D01*
X37654801Y-36187206D01*
X37928553Y-36461436D01*
X38286409Y-36610031D01*
X38673891Y-36610369D01*
X39032006Y-36462399D01*
X39306236Y-36188647D01*
X39454831Y-35830791D01*
X39454832Y-35829091D01*
X42586831Y-35829091D01*
X42734801Y-36187206D01*
X43008553Y-36461436D01*
X43366409Y-36610031D01*
X43753891Y-36610369D01*
X44112006Y-36462399D01*
X44386236Y-36188647D01*
X44534831Y-35830791D01*
X44535169Y-35443309D01*
X44387199Y-35085194D01*
X44136925Y-34834482D01*
X81546557Y-34834482D01*
X81671967Y-35137998D01*
X81903981Y-35370417D01*
X82207277Y-35496357D01*
X82535682Y-35496643D01*
X82839198Y-35371233D01*
X83071617Y-35139219D01*
X83197557Y-34835923D01*
X83197843Y-34507518D01*
X83072433Y-34204002D01*
X82840419Y-33971583D01*
X82537123Y-33845643D01*
X82208718Y-33845357D01*
X81905202Y-33970767D01*
X81672783Y-34202781D01*
X81546843Y-34506077D01*
X81546557Y-34834482D01*
X44136925Y-34834482D01*
X44113447Y-34810964D01*
X43755591Y-34662369D01*
X43368109Y-34662031D01*
X43009994Y-34810001D01*
X42735764Y-35083753D01*
X42587169Y-35441609D01*
X42586831Y-35829091D01*
X39454832Y-35829091D01*
X39455169Y-35443309D01*
X39307199Y-35085194D01*
X39033447Y-34810964D01*
X38675591Y-34662369D01*
X38288109Y-34662031D01*
X37929994Y-34810001D01*
X37655764Y-35083753D01*
X37507169Y-35441609D01*
X37506831Y-35829091D01*
X36381000Y-35829091D01*
X36381000Y-33564482D01*
X85280357Y-33564482D01*
X85405767Y-33867998D01*
X85637781Y-34100417D01*
X85941077Y-34226357D01*
X86269482Y-34226643D01*
X86572998Y-34101233D01*
X86805417Y-33869219D01*
X86931357Y-33565923D01*
X86931643Y-33237518D01*
X86806233Y-32934002D01*
X86574219Y-32701583D01*
X86270923Y-32575643D01*
X85942518Y-32575357D01*
X85639002Y-32700767D01*
X85406583Y-32932781D01*
X85280643Y-33236077D01*
X85280357Y-33564482D01*
X36381000Y-33564482D01*
X36381000Y-30881000D01*
X129619000Y-30881000D01*
X129619000Y-79119000D01*
M02*
