G04 #@! TF.FileFunction,Legend,Bot*
%FSLAX46Y46*%
G04 Gerber Fmt 4.6, Leading zero omitted, Abs format (unit mm)*
G04 Created by KiCad (PCBNEW 4.0.7) date 02/08/18 20:51:32*
%MOMM*%
%LPD*%
G01*
G04 APERTURE LIST*
%ADD10C,0.100000*%
%ADD11C,0.120000*%
%ADD12C,0.150000*%
G04 APERTURE END LIST*
D10*
D11*
X64490309Y-57074704D02*
G75*
G03X64450000Y-59384000I-40309J-1154296D01*
G01*
X64429879Y-59383052D02*
G75*
G03X65579000Y-57989000I20121J1154052D01*
G01*
X63574000Y-57495000D02*
X65185000Y-59105000D01*
D12*
X68010066Y-61087381D02*
X68343400Y-60611190D01*
X68581495Y-61087381D02*
X68581495Y-60087381D01*
X68200542Y-60087381D01*
X68105304Y-60135000D01*
X68057685Y-60182619D01*
X68010066Y-60277857D01*
X68010066Y-60420714D01*
X68057685Y-60515952D01*
X68105304Y-60563571D01*
X68200542Y-60611190D01*
X68581495Y-60611190D01*
X67676733Y-60087381D02*
X67010066Y-60087381D01*
X67438638Y-61087381D01*
X115556743Y-54097143D02*
X115604362Y-54049524D01*
X115651981Y-53906667D01*
X115651981Y-53811429D01*
X115604362Y-53668571D01*
X115509124Y-53573333D01*
X115413886Y-53525714D01*
X115223410Y-53478095D01*
X115080552Y-53478095D01*
X114890076Y-53525714D01*
X114794838Y-53573333D01*
X114699600Y-53668571D01*
X114651981Y-53811429D01*
X114651981Y-53906667D01*
X114699600Y-54049524D01*
X114747219Y-54097143D01*
X115651981Y-55049524D02*
X115651981Y-54478095D01*
X115651981Y-54763809D02*
X114651981Y-54763809D01*
X114794838Y-54668571D01*
X114890076Y-54573333D01*
X114937695Y-54478095D01*
X114651981Y-55382857D02*
X114651981Y-56001905D01*
X115032933Y-55668571D01*
X115032933Y-55811429D01*
X115080552Y-55906667D01*
X115128171Y-55954286D01*
X115223410Y-56001905D01*
X115461505Y-56001905D01*
X115556743Y-55954286D01*
X115604362Y-55906667D01*
X115651981Y-55811429D01*
X115651981Y-55525714D01*
X115604362Y-55430476D01*
X115556743Y-55382857D01*
X63395857Y-35254143D02*
X63443476Y-35301762D01*
X63586333Y-35349381D01*
X63681571Y-35349381D01*
X63824429Y-35301762D01*
X63919667Y-35206524D01*
X63967286Y-35111286D01*
X64014905Y-34920810D01*
X64014905Y-34777952D01*
X63967286Y-34587476D01*
X63919667Y-34492238D01*
X63824429Y-34397000D01*
X63681571Y-34349381D01*
X63586333Y-34349381D01*
X63443476Y-34397000D01*
X63395857Y-34444619D01*
X62443476Y-35349381D02*
X63014905Y-35349381D01*
X62729191Y-35349381D02*
X62729191Y-34349381D01*
X62824429Y-34492238D01*
X62919667Y-34587476D01*
X63014905Y-34635095D01*
X61586333Y-34682714D02*
X61586333Y-35349381D01*
X61824429Y-34301762D02*
X62062524Y-35016048D01*
X61443476Y-35016048D01*
X67528981Y-51669334D02*
X67052790Y-51336000D01*
X67528981Y-51097905D02*
X66528981Y-51097905D01*
X66528981Y-51478858D01*
X66576600Y-51574096D01*
X66624219Y-51621715D01*
X66719457Y-51669334D01*
X66862314Y-51669334D01*
X66957552Y-51621715D01*
X67005171Y-51574096D01*
X67052790Y-51478858D01*
X67052790Y-51097905D01*
X66957552Y-52240762D02*
X66909933Y-52145524D01*
X66862314Y-52097905D01*
X66767076Y-52050286D01*
X66719457Y-52050286D01*
X66624219Y-52097905D01*
X66576600Y-52145524D01*
X66528981Y-52240762D01*
X66528981Y-52431239D01*
X66576600Y-52526477D01*
X66624219Y-52574096D01*
X66719457Y-52621715D01*
X66767076Y-52621715D01*
X66862314Y-52574096D01*
X66909933Y-52526477D01*
X66957552Y-52431239D01*
X66957552Y-52240762D01*
X67005171Y-52145524D01*
X67052790Y-52097905D01*
X67148029Y-52050286D01*
X67338505Y-52050286D01*
X67433743Y-52097905D01*
X67481362Y-52145524D01*
X67528981Y-52240762D01*
X67528981Y-52431239D01*
X67481362Y-52526477D01*
X67433743Y-52574096D01*
X67338505Y-52621715D01*
X67148029Y-52621715D01*
X67052790Y-52574096D01*
X67005171Y-52526477D01*
X66957552Y-52431239D01*
X64146666Y-37213781D02*
X64480000Y-36737590D01*
X64718095Y-37213781D02*
X64718095Y-36213781D01*
X64337142Y-36213781D01*
X64241904Y-36261400D01*
X64194285Y-36309019D01*
X64146666Y-36404257D01*
X64146666Y-36547114D01*
X64194285Y-36642352D01*
X64241904Y-36689971D01*
X64337142Y-36737590D01*
X64718095Y-36737590D01*
X63670476Y-37213781D02*
X63480000Y-37213781D01*
X63384761Y-37166162D01*
X63337142Y-37118543D01*
X63241904Y-36975686D01*
X63194285Y-36785210D01*
X63194285Y-36404257D01*
X63241904Y-36309019D01*
X63289523Y-36261400D01*
X63384761Y-36213781D01*
X63575238Y-36213781D01*
X63670476Y-36261400D01*
X63718095Y-36309019D01*
X63765714Y-36404257D01*
X63765714Y-36642352D01*
X63718095Y-36737590D01*
X63670476Y-36785210D01*
X63575238Y-36832829D01*
X63384761Y-36832829D01*
X63289523Y-36785210D01*
X63241904Y-36737590D01*
X63194285Y-36642352D01*
X71358857Y-34623381D02*
X71692191Y-34147190D01*
X71930286Y-34623381D02*
X71930286Y-33623381D01*
X71549333Y-33623381D01*
X71454095Y-33671000D01*
X71406476Y-33718619D01*
X71358857Y-33813857D01*
X71358857Y-33956714D01*
X71406476Y-34051952D01*
X71454095Y-34099571D01*
X71549333Y-34147190D01*
X71930286Y-34147190D01*
X70406476Y-34623381D02*
X70977905Y-34623381D01*
X70692191Y-34623381D02*
X70692191Y-33623381D01*
X70787429Y-33766238D01*
X70882667Y-33861476D01*
X70977905Y-33909095D01*
X69787429Y-33623381D02*
X69692190Y-33623381D01*
X69596952Y-33671000D01*
X69549333Y-33718619D01*
X69501714Y-33813857D01*
X69454095Y-34004333D01*
X69454095Y-34242429D01*
X69501714Y-34432905D01*
X69549333Y-34528143D01*
X69596952Y-34575762D01*
X69692190Y-34623381D01*
X69787429Y-34623381D01*
X69882667Y-34575762D01*
X69930286Y-34528143D01*
X69977905Y-34432905D01*
X70025524Y-34242429D01*
X70025524Y-34004333D01*
X69977905Y-33813857D01*
X69930286Y-33718619D01*
X69882667Y-33671000D01*
X69787429Y-33623381D01*
X74322857Y-49342781D02*
X74656191Y-48866590D01*
X74894286Y-49342781D02*
X74894286Y-48342781D01*
X74513333Y-48342781D01*
X74418095Y-48390400D01*
X74370476Y-48438019D01*
X74322857Y-48533257D01*
X74322857Y-48676114D01*
X74370476Y-48771352D01*
X74418095Y-48818971D01*
X74513333Y-48866590D01*
X74894286Y-48866590D01*
X73370476Y-49342781D02*
X73941905Y-49342781D01*
X73656191Y-49342781D02*
X73656191Y-48342781D01*
X73751429Y-48485638D01*
X73846667Y-48580876D01*
X73941905Y-48628495D01*
X72989524Y-48438019D02*
X72941905Y-48390400D01*
X72846667Y-48342781D01*
X72608571Y-48342781D01*
X72513333Y-48390400D01*
X72465714Y-48438019D01*
X72418095Y-48533257D01*
X72418095Y-48628495D01*
X72465714Y-48771352D01*
X73037143Y-49342781D01*
X72418095Y-49342781D01*
M02*
