G04 #@! TF.FileFunction,Legend,Top*
%FSLAX46Y46*%
G04 Gerber Fmt 4.6, Leading zero omitted, Abs format (unit mm)*
G04 Created by KiCad (PCBNEW 4.0.7) date 02/08/18 20:51:32*
%MOMM*%
%LPD*%
G01*
G04 APERTURE LIST*
%ADD10C,0.100000*%
%ADD11C,0.300000*%
%ADD12C,0.120000*%
%ADD13C,0.150000*%
G04 APERTURE END LIST*
D10*
D11*
X38206667Y-33018524D02*
X40492382Y-33018524D01*
X39349525Y-37018524D02*
X39349525Y-33018524D01*
X43349524Y-36828048D02*
X42968572Y-37018524D01*
X42206667Y-37018524D01*
X41825715Y-36828048D01*
X41635239Y-36447095D01*
X41635239Y-34923286D01*
X41825715Y-34542333D01*
X42206667Y-34351857D01*
X42968572Y-34351857D01*
X43349524Y-34542333D01*
X43540001Y-34923286D01*
X43540001Y-35304238D01*
X41635239Y-35685190D01*
X46968572Y-37018524D02*
X46968572Y-34923286D01*
X46778095Y-34542333D01*
X46397143Y-34351857D01*
X45635238Y-34351857D01*
X45254286Y-34542333D01*
X46968572Y-36828048D02*
X46587619Y-37018524D01*
X45635238Y-37018524D01*
X45254286Y-36828048D01*
X45063810Y-36447095D01*
X45063810Y-36066143D01*
X45254286Y-35685190D01*
X45635238Y-35494714D01*
X46587619Y-35494714D01*
X46968572Y-35304238D01*
X48873334Y-37018524D02*
X48873334Y-34351857D01*
X48873334Y-34732810D02*
X49063810Y-34542333D01*
X49444763Y-34351857D01*
X50016191Y-34351857D01*
X50397143Y-34542333D01*
X50587620Y-34923286D01*
X50587620Y-37018524D01*
X50587620Y-34923286D02*
X50778096Y-34542333D01*
X51159048Y-34351857D01*
X51730477Y-34351857D01*
X52111429Y-34542333D01*
X52301905Y-34923286D01*
X52301905Y-37018524D01*
X42016190Y-41223286D02*
X42587619Y-41413762D01*
X42778095Y-41604238D01*
X42968571Y-41985190D01*
X42968571Y-42556619D01*
X42778095Y-42937571D01*
X42587619Y-43128048D01*
X42206666Y-43318524D01*
X40682857Y-43318524D01*
X40682857Y-39318524D01*
X42016190Y-39318524D01*
X42397143Y-39509000D01*
X42587619Y-39699476D01*
X42778095Y-40080429D01*
X42778095Y-40461381D01*
X42587619Y-40842333D01*
X42397143Y-41032810D01*
X42016190Y-41223286D01*
X40682857Y-41223286D01*
X45254286Y-43318524D02*
X44873333Y-43128048D01*
X44682857Y-42747095D01*
X44682857Y-39318524D01*
X46778095Y-43318524D02*
X46778095Y-40651857D01*
X46778095Y-39318524D02*
X46587619Y-39509000D01*
X46778095Y-39699476D01*
X46968571Y-39509000D01*
X46778095Y-39318524D01*
X46778095Y-39699476D01*
X48682857Y-40651857D02*
X48682857Y-44651857D01*
X48682857Y-40842333D02*
X49063809Y-40651857D01*
X49825714Y-40651857D01*
X50206666Y-40842333D01*
X50397143Y-41032810D01*
X50587619Y-41413762D01*
X50587619Y-42556619D01*
X50397143Y-42937571D01*
X50206666Y-43128048D01*
X49825714Y-43318524D01*
X49063809Y-43318524D01*
X48682857Y-43128048D01*
D12*
X51008691Y-48616704D02*
G75*
G02X51049000Y-50926000I40309J-1154296D01*
G01*
X51069121Y-50925052D02*
G75*
G02X49920000Y-49531000I-20121J1154052D01*
G01*
X51925000Y-49037000D02*
X50314000Y-50647000D01*
X55332000Y-48851000D02*
X58932000Y-48851000D01*
X54807816Y-48123795D02*
G75*
G03X55332000Y-48851000I2324184J1122795D01*
G01*
X54775600Y-45902193D02*
G75*
G02X57132000Y-44401000I2356400J-1098807D01*
G01*
X59488400Y-45902193D02*
G75*
G03X57132000Y-44401000I-2356400J-1098807D01*
G01*
X59456184Y-48123795D02*
G75*
G02X58932000Y-48851000I-2324184J1122795D01*
G01*
D13*
X72258981Y-78909905D02*
X73068505Y-78909905D01*
X73163743Y-78862286D01*
X73211362Y-78814667D01*
X73258981Y-78719429D01*
X73258981Y-78528952D01*
X73211362Y-78433714D01*
X73163743Y-78386095D01*
X73068505Y-78338476D01*
X72258981Y-78338476D01*
X72592314Y-77433714D02*
X73258981Y-77433714D01*
X72211362Y-77671810D02*
X72925648Y-77909905D01*
X72925648Y-77290857D01*
X104885334Y-52543181D02*
X104409143Y-52543181D01*
X104409143Y-51543181D01*
X105171048Y-51638419D02*
X105218667Y-51590800D01*
X105313905Y-51543181D01*
X105552001Y-51543181D01*
X105647239Y-51590800D01*
X105694858Y-51638419D01*
X105742477Y-51733657D01*
X105742477Y-51828895D01*
X105694858Y-51971752D01*
X105123429Y-52543181D01*
X105742477Y-52543181D01*
X46102334Y-56115143D02*
X46054715Y-56162762D01*
X45911858Y-56210381D01*
X45816620Y-56210381D01*
X45673762Y-56162762D01*
X45578524Y-56067524D01*
X45530905Y-55972286D01*
X45483286Y-55781810D01*
X45483286Y-55638952D01*
X45530905Y-55448476D01*
X45578524Y-55353238D01*
X45673762Y-55258000D01*
X45816620Y-55210381D01*
X45911858Y-55210381D01*
X46054715Y-55258000D01*
X46102334Y-55305619D01*
X47054715Y-56210381D02*
X46483286Y-56210381D01*
X46769000Y-56210381D02*
X46769000Y-55210381D01*
X46673762Y-55353238D01*
X46578524Y-55448476D01*
X46483286Y-55496095D01*
X36706095Y-55979781D02*
X37277524Y-55979781D01*
X36991809Y-56979781D02*
X36991809Y-55979781D01*
X37610857Y-56979781D02*
X37610857Y-55979781D01*
X37991810Y-55979781D01*
X38087048Y-56027400D01*
X38134667Y-56075019D01*
X38182286Y-56170257D01*
X38182286Y-56313114D01*
X38134667Y-56408352D01*
X38087048Y-56455971D01*
X37991810Y-56503590D01*
X37610857Y-56503590D01*
X39134667Y-56979781D02*
X38563238Y-56979781D01*
X38848952Y-56979781D02*
X38848952Y-55979781D01*
X38753714Y-56122638D01*
X38658476Y-56217876D01*
X38563238Y-56265495D01*
X36538095Y-61140781D02*
X37109524Y-61140781D01*
X36823809Y-62140781D02*
X36823809Y-61140781D01*
X37442857Y-62140781D02*
X37442857Y-61140781D01*
X37823810Y-61140781D01*
X37919048Y-61188400D01*
X37966667Y-61236019D01*
X38014286Y-61331257D01*
X38014286Y-61474114D01*
X37966667Y-61569352D01*
X37919048Y-61616971D01*
X37823810Y-61664590D01*
X37442857Y-61664590D01*
X38347619Y-61140781D02*
X38966667Y-61140781D01*
X38633333Y-61521733D01*
X38776191Y-61521733D01*
X38871429Y-61569352D01*
X38919048Y-61616971D01*
X38966667Y-61712210D01*
X38966667Y-61950305D01*
X38919048Y-62045543D01*
X38871429Y-62093162D01*
X38776191Y-62140781D01*
X38490476Y-62140781D01*
X38395238Y-62093162D01*
X38347619Y-62045543D01*
X45700381Y-62473905D02*
X46509905Y-62473905D01*
X46605143Y-62426286D01*
X46652762Y-62378667D01*
X46700381Y-62283429D01*
X46700381Y-62092952D01*
X46652762Y-61997714D01*
X46605143Y-61950095D01*
X46509905Y-61902476D01*
X45700381Y-61902476D01*
X46700381Y-60902476D02*
X46700381Y-61473905D01*
X46700381Y-61188191D02*
X45700381Y-61188191D01*
X45843238Y-61283429D01*
X45938476Y-61378667D01*
X45986095Y-61473905D01*
X91392334Y-77578543D02*
X91344715Y-77626162D01*
X91201858Y-77673781D01*
X91106620Y-77673781D01*
X90963762Y-77626162D01*
X90868524Y-77530924D01*
X90820905Y-77435686D01*
X90773286Y-77245210D01*
X90773286Y-77102352D01*
X90820905Y-76911876D01*
X90868524Y-76816638D01*
X90963762Y-76721400D01*
X91106620Y-76673781D01*
X91201858Y-76673781D01*
X91344715Y-76721400D01*
X91392334Y-76769019D01*
X91725667Y-76673781D02*
X92392334Y-76673781D01*
X91963762Y-77673781D01*
X55185143Y-61487666D02*
X55232762Y-61535285D01*
X55280381Y-61678142D01*
X55280381Y-61773380D01*
X55232762Y-61916238D01*
X55137524Y-62011476D01*
X55042286Y-62059095D01*
X54851810Y-62106714D01*
X54708952Y-62106714D01*
X54518476Y-62059095D01*
X54423238Y-62011476D01*
X54328000Y-61916238D01*
X54280381Y-61773380D01*
X54280381Y-61678142D01*
X54328000Y-61535285D01*
X54375619Y-61487666D01*
X54375619Y-61106714D02*
X54328000Y-61059095D01*
X54280381Y-60963857D01*
X54280381Y-60725761D01*
X54328000Y-60630523D01*
X54375619Y-60582904D01*
X54470857Y-60535285D01*
X54566095Y-60535285D01*
X54708952Y-60582904D01*
X55280381Y-61154333D01*
X55280381Y-60535285D01*
X113082743Y-38668666D02*
X113130362Y-38716285D01*
X113177981Y-38859142D01*
X113177981Y-38954380D01*
X113130362Y-39097238D01*
X113035124Y-39192476D01*
X112939886Y-39240095D01*
X112749410Y-39287714D01*
X112606552Y-39287714D01*
X112416076Y-39240095D01*
X112320838Y-39192476D01*
X112225600Y-39097238D01*
X112177981Y-38954380D01*
X112177981Y-38859142D01*
X112225600Y-38716285D01*
X112273219Y-38668666D01*
X112177981Y-38335333D02*
X112177981Y-37716285D01*
X112558933Y-38049619D01*
X112558933Y-37906761D01*
X112606552Y-37811523D01*
X112654171Y-37763904D01*
X112749410Y-37716285D01*
X112987505Y-37716285D01*
X113082743Y-37763904D01*
X113130362Y-37811523D01*
X113177981Y-37906761D01*
X113177981Y-38192476D01*
X113130362Y-38287714D01*
X113082743Y-38335333D01*
X106742334Y-33134543D02*
X106694715Y-33182162D01*
X106551858Y-33229781D01*
X106456620Y-33229781D01*
X106313762Y-33182162D01*
X106218524Y-33086924D01*
X106170905Y-32991686D01*
X106123286Y-32801210D01*
X106123286Y-32658352D01*
X106170905Y-32467876D01*
X106218524Y-32372638D01*
X106313762Y-32277400D01*
X106456620Y-32229781D01*
X106551858Y-32229781D01*
X106694715Y-32277400D01*
X106742334Y-32325019D01*
X107599477Y-32563114D02*
X107599477Y-33229781D01*
X107361381Y-32182162D02*
X107123286Y-32896448D01*
X107742334Y-32896448D01*
X100638334Y-49402743D02*
X100590715Y-49450362D01*
X100447858Y-49497981D01*
X100352620Y-49497981D01*
X100209762Y-49450362D01*
X100114524Y-49355124D01*
X100066905Y-49259886D01*
X100019286Y-49069410D01*
X100019286Y-48926552D01*
X100066905Y-48736076D01*
X100114524Y-48640838D01*
X100209762Y-48545600D01*
X100352620Y-48497981D01*
X100447858Y-48497981D01*
X100590715Y-48545600D01*
X100638334Y-48593219D01*
X101543096Y-48497981D02*
X101066905Y-48497981D01*
X101019286Y-48974171D01*
X101066905Y-48926552D01*
X101162143Y-48878933D01*
X101400239Y-48878933D01*
X101495477Y-48926552D01*
X101543096Y-48974171D01*
X101590715Y-49069410D01*
X101590715Y-49307505D01*
X101543096Y-49402743D01*
X101495477Y-49450362D01*
X101400239Y-49497981D01*
X101162143Y-49497981D01*
X101066905Y-49450362D01*
X101019286Y-49402743D01*
X105680334Y-40936143D02*
X105632715Y-40983762D01*
X105489858Y-41031381D01*
X105394620Y-41031381D01*
X105251762Y-40983762D01*
X105156524Y-40888524D01*
X105108905Y-40793286D01*
X105061286Y-40602810D01*
X105061286Y-40459952D01*
X105108905Y-40269476D01*
X105156524Y-40174238D01*
X105251762Y-40079000D01*
X105394620Y-40031381D01*
X105489858Y-40031381D01*
X105632715Y-40079000D01*
X105680334Y-40126619D01*
X106537477Y-40031381D02*
X106347000Y-40031381D01*
X106251762Y-40079000D01*
X106204143Y-40126619D01*
X106108905Y-40269476D01*
X106061286Y-40459952D01*
X106061286Y-40840905D01*
X106108905Y-40936143D01*
X106156524Y-40983762D01*
X106251762Y-41031381D01*
X106442239Y-41031381D01*
X106537477Y-40983762D01*
X106585096Y-40936143D01*
X106632715Y-40840905D01*
X106632715Y-40602810D01*
X106585096Y-40507571D01*
X106537477Y-40459952D01*
X106442239Y-40412333D01*
X106251762Y-40412333D01*
X106156524Y-40459952D01*
X106108905Y-40507571D01*
X106061286Y-40602810D01*
X100694143Y-71321666D02*
X100741762Y-71369285D01*
X100789381Y-71512142D01*
X100789381Y-71607380D01*
X100741762Y-71750238D01*
X100646524Y-71845476D01*
X100551286Y-71893095D01*
X100360810Y-71940714D01*
X100217952Y-71940714D01*
X100027476Y-71893095D01*
X99932238Y-71845476D01*
X99837000Y-71750238D01*
X99789381Y-71607380D01*
X99789381Y-71512142D01*
X99837000Y-71369285D01*
X99884619Y-71321666D01*
X100217952Y-70750238D02*
X100170333Y-70845476D01*
X100122714Y-70893095D01*
X100027476Y-70940714D01*
X99979857Y-70940714D01*
X99884619Y-70893095D01*
X99837000Y-70845476D01*
X99789381Y-70750238D01*
X99789381Y-70559761D01*
X99837000Y-70464523D01*
X99884619Y-70416904D01*
X99979857Y-70369285D01*
X100027476Y-70369285D01*
X100122714Y-70416904D01*
X100170333Y-70464523D01*
X100217952Y-70559761D01*
X100217952Y-70750238D01*
X100265571Y-70845476D01*
X100313190Y-70893095D01*
X100408429Y-70940714D01*
X100598905Y-70940714D01*
X100694143Y-70893095D01*
X100741762Y-70845476D01*
X100789381Y-70750238D01*
X100789381Y-70559761D01*
X100741762Y-70464523D01*
X100694143Y-70416904D01*
X100598905Y-70369285D01*
X100408429Y-70369285D01*
X100313190Y-70416904D01*
X100265571Y-70464523D01*
X100217952Y-70559761D01*
X108423334Y-55465143D02*
X108375715Y-55512762D01*
X108232858Y-55560381D01*
X108137620Y-55560381D01*
X107994762Y-55512762D01*
X107899524Y-55417524D01*
X107851905Y-55322286D01*
X107804286Y-55131810D01*
X107804286Y-54988952D01*
X107851905Y-54798476D01*
X107899524Y-54703238D01*
X107994762Y-54608000D01*
X108137620Y-54560381D01*
X108232858Y-54560381D01*
X108375715Y-54608000D01*
X108423334Y-54655619D01*
X108899524Y-55560381D02*
X109090000Y-55560381D01*
X109185239Y-55512762D01*
X109232858Y-55465143D01*
X109328096Y-55322286D01*
X109375715Y-55131810D01*
X109375715Y-54750857D01*
X109328096Y-54655619D01*
X109280477Y-54608000D01*
X109185239Y-54560381D01*
X108994762Y-54560381D01*
X108899524Y-54608000D01*
X108851905Y-54655619D01*
X108804286Y-54750857D01*
X108804286Y-54988952D01*
X108851905Y-55084190D01*
X108899524Y-55131810D01*
X108994762Y-55179429D01*
X109185239Y-55179429D01*
X109280477Y-55131810D01*
X109328096Y-55084190D01*
X109375715Y-54988952D01*
X104306543Y-48532857D02*
X104354162Y-48580476D01*
X104401781Y-48723333D01*
X104401781Y-48818571D01*
X104354162Y-48961429D01*
X104258924Y-49056667D01*
X104163686Y-49104286D01*
X103973210Y-49151905D01*
X103830352Y-49151905D01*
X103639876Y-49104286D01*
X103544638Y-49056667D01*
X103449400Y-48961429D01*
X103401781Y-48818571D01*
X103401781Y-48723333D01*
X103449400Y-48580476D01*
X103497019Y-48532857D01*
X104401781Y-47580476D02*
X104401781Y-48151905D01*
X104401781Y-47866191D02*
X103401781Y-47866191D01*
X103544638Y-47961429D01*
X103639876Y-48056667D01*
X103687495Y-48151905D01*
X103401781Y-46961429D02*
X103401781Y-46866190D01*
X103449400Y-46770952D01*
X103497019Y-46723333D01*
X103592257Y-46675714D01*
X103782733Y-46628095D01*
X104020829Y-46628095D01*
X104211305Y-46675714D01*
X104306543Y-46723333D01*
X104354162Y-46770952D01*
X104401781Y-46866190D01*
X104401781Y-46961429D01*
X104354162Y-47056667D01*
X104306543Y-47104286D01*
X104211305Y-47151905D01*
X104020829Y-47199524D01*
X103782733Y-47199524D01*
X103592257Y-47151905D01*
X103497019Y-47104286D01*
X103449400Y-47056667D01*
X103401781Y-46961429D01*
X95189143Y-58231743D02*
X95141524Y-58279362D01*
X94998667Y-58326981D01*
X94903429Y-58326981D01*
X94760571Y-58279362D01*
X94665333Y-58184124D01*
X94617714Y-58088886D01*
X94570095Y-57898410D01*
X94570095Y-57755552D01*
X94617714Y-57565076D01*
X94665333Y-57469838D01*
X94760571Y-57374600D01*
X94903429Y-57326981D01*
X94998667Y-57326981D01*
X95141524Y-57374600D01*
X95189143Y-57422219D01*
X96141524Y-58326981D02*
X95570095Y-58326981D01*
X95855809Y-58326981D02*
X95855809Y-57326981D01*
X95760571Y-57469838D01*
X95665333Y-57565076D01*
X95570095Y-57612695D01*
X97093905Y-58326981D02*
X96522476Y-58326981D01*
X96808190Y-58326981D02*
X96808190Y-57326981D01*
X96712952Y-57469838D01*
X96617714Y-57565076D01*
X96522476Y-57612695D01*
X113041743Y-55710857D02*
X113089362Y-55758476D01*
X113136981Y-55901333D01*
X113136981Y-55996571D01*
X113089362Y-56139429D01*
X112994124Y-56234667D01*
X112898886Y-56282286D01*
X112708410Y-56329905D01*
X112565552Y-56329905D01*
X112375076Y-56282286D01*
X112279838Y-56234667D01*
X112184600Y-56139429D01*
X112136981Y-55996571D01*
X112136981Y-55901333D01*
X112184600Y-55758476D01*
X112232219Y-55710857D01*
X113136981Y-54758476D02*
X113136981Y-55329905D01*
X113136981Y-55044191D02*
X112136981Y-55044191D01*
X112279838Y-55139429D01*
X112375076Y-55234667D01*
X112422695Y-55329905D01*
X112232219Y-54377524D02*
X112184600Y-54329905D01*
X112136981Y-54234667D01*
X112136981Y-53996571D01*
X112184600Y-53901333D01*
X112232219Y-53853714D01*
X112327457Y-53806095D01*
X112422695Y-53806095D01*
X112565552Y-53853714D01*
X113136981Y-54425143D01*
X113136981Y-53806095D01*
X87713143Y-38153857D02*
X87760762Y-38201476D01*
X87808381Y-38344333D01*
X87808381Y-38439571D01*
X87760762Y-38582429D01*
X87665524Y-38677667D01*
X87570286Y-38725286D01*
X87379810Y-38772905D01*
X87236952Y-38772905D01*
X87046476Y-38725286D01*
X86951238Y-38677667D01*
X86856000Y-38582429D01*
X86808381Y-38439571D01*
X86808381Y-38344333D01*
X86856000Y-38201476D01*
X86903619Y-38153857D01*
X87808381Y-37201476D02*
X87808381Y-37772905D01*
X87808381Y-37487191D02*
X86808381Y-37487191D01*
X86951238Y-37582429D01*
X87046476Y-37677667D01*
X87094095Y-37772905D01*
X86808381Y-36296714D02*
X86808381Y-36772905D01*
X87284571Y-36820524D01*
X87236952Y-36772905D01*
X87189333Y-36677667D01*
X87189333Y-36439571D01*
X87236952Y-36344333D01*
X87284571Y-36296714D01*
X87379810Y-36249095D01*
X87617905Y-36249095D01*
X87713143Y-36296714D01*
X87760762Y-36344333D01*
X87808381Y-36439571D01*
X87808381Y-36677667D01*
X87760762Y-36772905D01*
X87713143Y-36820524D01*
X81135143Y-34314743D02*
X81087524Y-34362362D01*
X80944667Y-34409981D01*
X80849429Y-34409981D01*
X80706571Y-34362362D01*
X80611333Y-34267124D01*
X80563714Y-34171886D01*
X80516095Y-33981410D01*
X80516095Y-33838552D01*
X80563714Y-33648076D01*
X80611333Y-33552838D01*
X80706571Y-33457600D01*
X80849429Y-33409981D01*
X80944667Y-33409981D01*
X81087524Y-33457600D01*
X81135143Y-33505219D01*
X82087524Y-34409981D02*
X81516095Y-34409981D01*
X81801809Y-34409981D02*
X81801809Y-33409981D01*
X81706571Y-33552838D01*
X81611333Y-33648076D01*
X81516095Y-33695695D01*
X82944667Y-33409981D02*
X82754190Y-33409981D01*
X82658952Y-33457600D01*
X82611333Y-33505219D01*
X82516095Y-33648076D01*
X82468476Y-33838552D01*
X82468476Y-34219505D01*
X82516095Y-34314743D01*
X82563714Y-34362362D01*
X82658952Y-34409981D01*
X82849429Y-34409981D01*
X82944667Y-34362362D01*
X82992286Y-34314743D01*
X83039905Y-34219505D01*
X83039905Y-33981410D01*
X82992286Y-33886171D01*
X82944667Y-33838552D01*
X82849429Y-33790933D01*
X82658952Y-33790933D01*
X82563714Y-33838552D01*
X82516095Y-33886171D01*
X82468476Y-33981410D01*
X106929381Y-38408666D02*
X106929381Y-38884857D01*
X105929381Y-38884857D01*
X106929381Y-37551523D02*
X106929381Y-38122952D01*
X106929381Y-37837238D02*
X105929381Y-37837238D01*
X106072238Y-37932476D01*
X106167476Y-38027714D01*
X106215095Y-38122952D01*
X94324334Y-52236181D02*
X93848143Y-52236181D01*
X93848143Y-51236181D01*
X94562429Y-51236181D02*
X95181477Y-51236181D01*
X94848143Y-51617133D01*
X94991001Y-51617133D01*
X95086239Y-51664752D01*
X95133858Y-51712371D01*
X95181477Y-51807610D01*
X95181477Y-52045705D01*
X95133858Y-52140943D01*
X95086239Y-52188562D01*
X94991001Y-52236181D01*
X94705286Y-52236181D01*
X94610048Y-52188562D01*
X94562429Y-52140943D01*
X47488934Y-52629381D02*
X47155600Y-52153190D01*
X46917505Y-52629381D02*
X46917505Y-51629381D01*
X47298458Y-51629381D01*
X47393696Y-51677000D01*
X47441315Y-51724619D01*
X47488934Y-51819857D01*
X47488934Y-51962714D01*
X47441315Y-52057952D01*
X47393696Y-52105571D01*
X47298458Y-52153190D01*
X46917505Y-52153190D01*
X48441315Y-52629381D02*
X47869886Y-52629381D01*
X48155600Y-52629381D02*
X48155600Y-51629381D01*
X48060362Y-51772238D01*
X47965124Y-51867476D01*
X47869886Y-51915095D01*
X99129334Y-43117781D02*
X98796000Y-42641590D01*
X98557905Y-43117781D02*
X98557905Y-42117781D01*
X98938858Y-42117781D01*
X99034096Y-42165400D01*
X99081715Y-42213019D01*
X99129334Y-42308257D01*
X99129334Y-42451114D01*
X99081715Y-42546352D01*
X99034096Y-42593971D01*
X98938858Y-42641590D01*
X98557905Y-42641590D01*
X99462667Y-42117781D02*
X100081715Y-42117781D01*
X99748381Y-42498733D01*
X99891239Y-42498733D01*
X99986477Y-42546352D01*
X100034096Y-42593971D01*
X100081715Y-42689210D01*
X100081715Y-42927305D01*
X100034096Y-43022543D01*
X99986477Y-43070162D01*
X99891239Y-43117781D01*
X99605524Y-43117781D01*
X99510286Y-43070162D01*
X99462667Y-43022543D01*
X55935781Y-55031666D02*
X55459590Y-55365000D01*
X55935781Y-55603095D02*
X54935781Y-55603095D01*
X54935781Y-55222142D01*
X54983400Y-55126904D01*
X55031019Y-55079285D01*
X55126257Y-55031666D01*
X55269114Y-55031666D01*
X55364352Y-55079285D01*
X55411971Y-55126904D01*
X55459590Y-55222142D01*
X55459590Y-55603095D01*
X55269114Y-54174523D02*
X55935781Y-54174523D01*
X54888162Y-54412619D02*
X55602448Y-54650714D01*
X55602448Y-54031666D01*
X68910381Y-46252666D02*
X68434190Y-46586000D01*
X68910381Y-46824095D02*
X67910381Y-46824095D01*
X67910381Y-46443142D01*
X67958000Y-46347904D01*
X68005619Y-46300285D01*
X68100857Y-46252666D01*
X68243714Y-46252666D01*
X68338952Y-46300285D01*
X68386571Y-46347904D01*
X68434190Y-46443142D01*
X68434190Y-46824095D01*
X67910381Y-45347904D02*
X67910381Y-45824095D01*
X68386571Y-45871714D01*
X68338952Y-45824095D01*
X68291333Y-45728857D01*
X68291333Y-45490761D01*
X68338952Y-45395523D01*
X68386571Y-45347904D01*
X68481810Y-45300285D01*
X68719905Y-45300285D01*
X68815143Y-45347904D01*
X68862762Y-45395523D01*
X68910381Y-45490761D01*
X68910381Y-45728857D01*
X68862762Y-45824095D01*
X68815143Y-45871714D01*
X64562381Y-46292666D02*
X64086190Y-46626000D01*
X64562381Y-46864095D02*
X63562381Y-46864095D01*
X63562381Y-46483142D01*
X63610000Y-46387904D01*
X63657619Y-46340285D01*
X63752857Y-46292666D01*
X63895714Y-46292666D01*
X63990952Y-46340285D01*
X64038571Y-46387904D01*
X64086190Y-46483142D01*
X64086190Y-46864095D01*
X63562381Y-45435523D02*
X63562381Y-45626000D01*
X63610000Y-45721238D01*
X63657619Y-45768857D01*
X63800476Y-45864095D01*
X63990952Y-45911714D01*
X64371905Y-45911714D01*
X64467143Y-45864095D01*
X64514762Y-45816476D01*
X64562381Y-45721238D01*
X64562381Y-45530761D01*
X64514762Y-45435523D01*
X64467143Y-45387904D01*
X64371905Y-45340285D01*
X64133810Y-45340285D01*
X64038571Y-45387904D01*
X63990952Y-45435523D01*
X63943333Y-45530761D01*
X63943333Y-45721238D01*
X63990952Y-45816476D01*
X64038571Y-45864095D01*
X64133810Y-45911714D01*
X73228143Y-41702981D02*
X72894809Y-41226790D01*
X72656714Y-41702981D02*
X72656714Y-40702981D01*
X73037667Y-40702981D01*
X73132905Y-40750600D01*
X73180524Y-40798219D01*
X73228143Y-40893457D01*
X73228143Y-41036314D01*
X73180524Y-41131552D01*
X73132905Y-41179171D01*
X73037667Y-41226790D01*
X72656714Y-41226790D01*
X74180524Y-41702981D02*
X73609095Y-41702981D01*
X73894809Y-41702981D02*
X73894809Y-40702981D01*
X73799571Y-40845838D01*
X73704333Y-40941076D01*
X73609095Y-40988695D01*
X75132905Y-41702981D02*
X74561476Y-41702981D01*
X74847190Y-41702981D02*
X74847190Y-40702981D01*
X74751952Y-40845838D01*
X74656714Y-40941076D01*
X74561476Y-40988695D01*
X76632381Y-37828857D02*
X76156190Y-38162191D01*
X76632381Y-38400286D02*
X75632381Y-38400286D01*
X75632381Y-38019333D01*
X75680000Y-37924095D01*
X75727619Y-37876476D01*
X75822857Y-37828857D01*
X75965714Y-37828857D01*
X76060952Y-37876476D01*
X76108571Y-37924095D01*
X76156190Y-38019333D01*
X76156190Y-38400286D01*
X76632381Y-36876476D02*
X76632381Y-37447905D01*
X76632381Y-37162191D02*
X75632381Y-37162191D01*
X75775238Y-37257429D01*
X75870476Y-37352667D01*
X75918095Y-37447905D01*
X75632381Y-36543143D02*
X75632381Y-35924095D01*
X76013333Y-36257429D01*
X76013333Y-36114571D01*
X76060952Y-36019333D01*
X76108571Y-35971714D01*
X76203810Y-35924095D01*
X76441905Y-35924095D01*
X76537143Y-35971714D01*
X76584762Y-36019333D01*
X76632381Y-36114571D01*
X76632381Y-36400286D01*
X76584762Y-36495524D01*
X76537143Y-36543143D01*
X71389381Y-38010857D02*
X70913190Y-38344191D01*
X71389381Y-38582286D02*
X70389381Y-38582286D01*
X70389381Y-38201333D01*
X70437000Y-38106095D01*
X70484619Y-38058476D01*
X70579857Y-38010857D01*
X70722714Y-38010857D01*
X70817952Y-38058476D01*
X70865571Y-38106095D01*
X70913190Y-38201333D01*
X70913190Y-38582286D01*
X71389381Y-37058476D02*
X71389381Y-37629905D01*
X71389381Y-37344191D02*
X70389381Y-37344191D01*
X70532238Y-37439429D01*
X70627476Y-37534667D01*
X70675095Y-37629905D01*
X70722714Y-36201333D02*
X71389381Y-36201333D01*
X70341762Y-36439429D02*
X71056048Y-36677524D01*
X71056048Y-36058476D01*
X81219143Y-39048981D02*
X80885809Y-38572790D01*
X80647714Y-39048981D02*
X80647714Y-38048981D01*
X81028667Y-38048981D01*
X81123905Y-38096600D01*
X81171524Y-38144219D01*
X81219143Y-38239457D01*
X81219143Y-38382314D01*
X81171524Y-38477552D01*
X81123905Y-38525171D01*
X81028667Y-38572790D01*
X80647714Y-38572790D01*
X82171524Y-39048981D02*
X81600095Y-39048981D01*
X81885809Y-39048981D02*
X81885809Y-38048981D01*
X81790571Y-38191838D01*
X81695333Y-38287076D01*
X81600095Y-38334695D01*
X83076286Y-38048981D02*
X82600095Y-38048981D01*
X82552476Y-38525171D01*
X82600095Y-38477552D01*
X82695333Y-38429933D01*
X82933429Y-38429933D01*
X83028667Y-38477552D01*
X83076286Y-38525171D01*
X83123905Y-38620410D01*
X83123905Y-38858505D01*
X83076286Y-38953743D01*
X83028667Y-39001362D01*
X82933429Y-39048981D01*
X82695333Y-39048981D01*
X82600095Y-39001362D01*
X82552476Y-38953743D01*
X93494981Y-34316857D02*
X93018790Y-34650191D01*
X93494981Y-34888286D02*
X92494981Y-34888286D01*
X92494981Y-34507333D01*
X92542600Y-34412095D01*
X92590219Y-34364476D01*
X92685457Y-34316857D01*
X92828314Y-34316857D01*
X92923552Y-34364476D01*
X92971171Y-34412095D01*
X93018790Y-34507333D01*
X93018790Y-34888286D01*
X93494981Y-33364476D02*
X93494981Y-33935905D01*
X93494981Y-33650191D02*
X92494981Y-33650191D01*
X92637838Y-33745429D01*
X92733076Y-33840667D01*
X92780695Y-33935905D01*
X92494981Y-32507333D02*
X92494981Y-32697810D01*
X92542600Y-32793048D01*
X92590219Y-32840667D01*
X92733076Y-32935905D01*
X92923552Y-32983524D01*
X93304505Y-32983524D01*
X93399743Y-32935905D01*
X93447362Y-32888286D01*
X93494981Y-32793048D01*
X93494981Y-32602571D01*
X93447362Y-32507333D01*
X93399743Y-32459714D01*
X93304505Y-32412095D01*
X93066410Y-32412095D01*
X92971171Y-32459714D01*
X92923552Y-32507333D01*
X92875933Y-32602571D01*
X92875933Y-32793048D01*
X92923552Y-32888286D01*
X92971171Y-32935905D01*
X93066410Y-32983524D01*
X93515143Y-40434381D02*
X93181809Y-39958190D01*
X92943714Y-40434381D02*
X92943714Y-39434381D01*
X93324667Y-39434381D01*
X93419905Y-39482000D01*
X93467524Y-39529619D01*
X93515143Y-39624857D01*
X93515143Y-39767714D01*
X93467524Y-39862952D01*
X93419905Y-39910571D01*
X93324667Y-39958190D01*
X92943714Y-39958190D01*
X94467524Y-40434381D02*
X93896095Y-40434381D01*
X94181809Y-40434381D02*
X94181809Y-39434381D01*
X94086571Y-39577238D01*
X93991333Y-39672476D01*
X93896095Y-39720095D01*
X94800857Y-39434381D02*
X95467524Y-39434381D01*
X95038952Y-40434381D01*
X93703143Y-36195381D02*
X93369809Y-35719190D01*
X93131714Y-36195381D02*
X93131714Y-35195381D01*
X93512667Y-35195381D01*
X93607905Y-35243000D01*
X93655524Y-35290619D01*
X93703143Y-35385857D01*
X93703143Y-35528714D01*
X93655524Y-35623952D01*
X93607905Y-35671571D01*
X93512667Y-35719190D01*
X93131714Y-35719190D01*
X94655524Y-36195381D02*
X94084095Y-36195381D01*
X94369809Y-36195381D02*
X94369809Y-35195381D01*
X94274571Y-35338238D01*
X94179333Y-35433476D01*
X94084095Y-35481095D01*
X95226952Y-35623952D02*
X95131714Y-35576333D01*
X95084095Y-35528714D01*
X95036476Y-35433476D01*
X95036476Y-35385857D01*
X95084095Y-35290619D01*
X95131714Y-35243000D01*
X95226952Y-35195381D01*
X95417429Y-35195381D01*
X95512667Y-35243000D01*
X95560286Y-35290619D01*
X95607905Y-35385857D01*
X95607905Y-35433476D01*
X95560286Y-35528714D01*
X95512667Y-35576333D01*
X95417429Y-35623952D01*
X95226952Y-35623952D01*
X95131714Y-35671571D01*
X95084095Y-35719190D01*
X95036476Y-35814429D01*
X95036476Y-36004905D01*
X95084095Y-36100143D01*
X95131714Y-36147762D01*
X95226952Y-36195381D01*
X95417429Y-36195381D01*
X95512667Y-36147762D01*
X95560286Y-36100143D01*
X95607905Y-36004905D01*
X95607905Y-35814429D01*
X95560286Y-35719190D01*
X95512667Y-35671571D01*
X95417429Y-35623952D01*
X36678095Y-50503781D02*
X37249524Y-50503781D01*
X36963809Y-51503781D02*
X36963809Y-50503781D01*
X37582857Y-51503781D02*
X37582857Y-50503781D01*
X37963810Y-50503781D01*
X38059048Y-50551400D01*
X38106667Y-50599019D01*
X38154286Y-50694257D01*
X38154286Y-50837114D01*
X38106667Y-50932352D01*
X38059048Y-50979971D01*
X37963810Y-51027590D01*
X37582857Y-51027590D01*
X38535238Y-50599019D02*
X38582857Y-50551400D01*
X38678095Y-50503781D01*
X38916191Y-50503781D01*
X39011429Y-50551400D01*
X39059048Y-50599019D01*
X39106667Y-50694257D01*
X39106667Y-50789495D01*
X39059048Y-50932352D01*
X38487619Y-51503781D01*
X39106667Y-51503781D01*
X86805095Y-44268381D02*
X87376524Y-44268381D01*
X87090809Y-45268381D02*
X87090809Y-44268381D01*
X87709857Y-45268381D02*
X87709857Y-44268381D01*
X88090810Y-44268381D01*
X88186048Y-44316000D01*
X88233667Y-44363619D01*
X88281286Y-44458857D01*
X88281286Y-44601714D01*
X88233667Y-44696952D01*
X88186048Y-44744571D01*
X88090810Y-44792190D01*
X87709857Y-44792190D01*
X89138429Y-44601714D02*
X89138429Y-45268381D01*
X88900333Y-44220762D02*
X88662238Y-44935048D01*
X89281286Y-44935048D01*
X98453095Y-39159781D02*
X99024524Y-39159781D01*
X98738809Y-40159781D02*
X98738809Y-39159781D01*
X99357857Y-40159781D02*
X99357857Y-39159781D01*
X99738810Y-39159781D01*
X99834048Y-39207400D01*
X99881667Y-39255019D01*
X99929286Y-39350257D01*
X99929286Y-39493114D01*
X99881667Y-39588352D01*
X99834048Y-39635971D01*
X99738810Y-39683590D01*
X99357857Y-39683590D01*
X100834048Y-39159781D02*
X100357857Y-39159781D01*
X100310238Y-39635971D01*
X100357857Y-39588352D01*
X100453095Y-39540733D01*
X100691191Y-39540733D01*
X100786429Y-39588352D01*
X100834048Y-39635971D01*
X100881667Y-39731210D01*
X100881667Y-39969305D01*
X100834048Y-40064543D01*
X100786429Y-40112162D01*
X100691191Y-40159781D01*
X100453095Y-40159781D01*
X100357857Y-40112162D01*
X100310238Y-40064543D01*
X114670381Y-37886905D02*
X115479905Y-37886905D01*
X115575143Y-37839286D01*
X115622762Y-37791667D01*
X115670381Y-37696429D01*
X115670381Y-37505952D01*
X115622762Y-37410714D01*
X115575143Y-37363095D01*
X115479905Y-37315476D01*
X114670381Y-37315476D01*
X114670381Y-36934524D02*
X114670381Y-36315476D01*
X115051333Y-36648810D01*
X115051333Y-36505952D01*
X115098952Y-36410714D01*
X115146571Y-36363095D01*
X115241810Y-36315476D01*
X115479905Y-36315476D01*
X115575143Y-36363095D01*
X115622762Y-36410714D01*
X115670381Y-36505952D01*
X115670381Y-36791667D01*
X115622762Y-36886905D01*
X115575143Y-36934524D01*
X106975981Y-48405905D02*
X107785505Y-48405905D01*
X107880743Y-48358286D01*
X107928362Y-48310667D01*
X107975981Y-48215429D01*
X107975981Y-48024952D01*
X107928362Y-47929714D01*
X107880743Y-47882095D01*
X107785505Y-47834476D01*
X106975981Y-47834476D01*
X106975981Y-46882095D02*
X106975981Y-47358286D01*
X107452171Y-47405905D01*
X107404552Y-47358286D01*
X107356933Y-47263048D01*
X107356933Y-47024952D01*
X107404552Y-46929714D01*
X107452171Y-46882095D01*
X107547410Y-46834476D01*
X107785505Y-46834476D01*
X107880743Y-46882095D01*
X107928362Y-46929714D01*
X107975981Y-47024952D01*
X107975981Y-47263048D01*
X107928362Y-47358286D01*
X107880743Y-47405905D01*
X95827095Y-79871381D02*
X95827095Y-80680905D01*
X95874714Y-80776143D01*
X95922333Y-80823762D01*
X96017571Y-80871381D01*
X96208048Y-80871381D01*
X96303286Y-80823762D01*
X96350905Y-80776143D01*
X96398524Y-80680905D01*
X96398524Y-79871381D01*
X97303286Y-79871381D02*
X97112809Y-79871381D01*
X97017571Y-79919000D01*
X96969952Y-79966619D01*
X96874714Y-80109476D01*
X96827095Y-80299952D01*
X96827095Y-80680905D01*
X96874714Y-80776143D01*
X96922333Y-80823762D01*
X97017571Y-80871381D01*
X97208048Y-80871381D01*
X97303286Y-80823762D01*
X97350905Y-80776143D01*
X97398524Y-80680905D01*
X97398524Y-80442810D01*
X97350905Y-80347571D01*
X97303286Y-80299952D01*
X97208048Y-80252333D01*
X97017571Y-80252333D01*
X96922333Y-80299952D01*
X96874714Y-80347571D01*
X96827095Y-80442810D01*
X112116095Y-72502381D02*
X112116095Y-73311905D01*
X112163714Y-73407143D01*
X112211333Y-73454762D01*
X112306571Y-73502381D01*
X112497048Y-73502381D01*
X112592286Y-73454762D01*
X112639905Y-73407143D01*
X112687524Y-73311905D01*
X112687524Y-72502381D01*
X113306571Y-72930952D02*
X113211333Y-72883333D01*
X113163714Y-72835714D01*
X113116095Y-72740476D01*
X113116095Y-72692857D01*
X113163714Y-72597619D01*
X113211333Y-72550000D01*
X113306571Y-72502381D01*
X113497048Y-72502381D01*
X113592286Y-72550000D01*
X113639905Y-72597619D01*
X113687524Y-72692857D01*
X113687524Y-72740476D01*
X113639905Y-72835714D01*
X113592286Y-72883333D01*
X113497048Y-72930952D01*
X113306571Y-72930952D01*
X113211333Y-72978571D01*
X113163714Y-73026190D01*
X113116095Y-73121429D01*
X113116095Y-73311905D01*
X113163714Y-73407143D01*
X113211333Y-73454762D01*
X113306571Y-73502381D01*
X113497048Y-73502381D01*
X113592286Y-73454762D01*
X113639905Y-73407143D01*
X113687524Y-73311905D01*
X113687524Y-73121429D01*
X113639905Y-73026190D01*
X113592286Y-72978571D01*
X113497048Y-72930952D01*
X111305095Y-79035581D02*
X111305095Y-79845105D01*
X111352714Y-79940343D01*
X111400333Y-79987962D01*
X111495571Y-80035581D01*
X111686048Y-80035581D01*
X111781286Y-79987962D01*
X111828905Y-79940343D01*
X111876524Y-79845105D01*
X111876524Y-79035581D01*
X112400333Y-80035581D02*
X112590809Y-80035581D01*
X112686048Y-79987962D01*
X112733667Y-79940343D01*
X112828905Y-79797486D01*
X112876524Y-79607010D01*
X112876524Y-79226057D01*
X112828905Y-79130819D01*
X112781286Y-79083200D01*
X112686048Y-79035581D01*
X112495571Y-79035581D01*
X112400333Y-79083200D01*
X112352714Y-79130819D01*
X112305095Y-79226057D01*
X112305095Y-79464152D01*
X112352714Y-79559390D01*
X112400333Y-79607010D01*
X112495571Y-79654629D01*
X112686048Y-79654629D01*
X112781286Y-79607010D01*
X112828905Y-79559390D01*
X112876524Y-79464152D01*
X108583381Y-80029095D02*
X109392905Y-80029095D01*
X109488143Y-79981476D01*
X109535762Y-79933857D01*
X109583381Y-79838619D01*
X109583381Y-79648142D01*
X109535762Y-79552904D01*
X109488143Y-79505285D01*
X109392905Y-79457666D01*
X108583381Y-79457666D01*
X109583381Y-78457666D02*
X109583381Y-79029095D01*
X109583381Y-78743381D02*
X108583381Y-78743381D01*
X108726238Y-78838619D01*
X108821476Y-78933857D01*
X108869095Y-79029095D01*
X108583381Y-77838619D02*
X108583381Y-77743380D01*
X108631000Y-77648142D01*
X108678619Y-77600523D01*
X108773857Y-77552904D01*
X108964333Y-77505285D01*
X109202429Y-77505285D01*
X109392905Y-77552904D01*
X109488143Y-77600523D01*
X109535762Y-77648142D01*
X109583381Y-77743380D01*
X109583381Y-77838619D01*
X109535762Y-77933857D01*
X109488143Y-77981476D01*
X109392905Y-78029095D01*
X109202429Y-78076714D01*
X108964333Y-78076714D01*
X108773857Y-78029095D01*
X108678619Y-77981476D01*
X108631000Y-77933857D01*
X108583381Y-77838619D01*
X114849581Y-80933095D02*
X115659105Y-80933095D01*
X115754343Y-80885476D01*
X115801962Y-80837857D01*
X115849581Y-80742619D01*
X115849581Y-80552142D01*
X115801962Y-80456904D01*
X115754343Y-80409285D01*
X115659105Y-80361666D01*
X114849581Y-80361666D01*
X115849581Y-79361666D02*
X115849581Y-79933095D01*
X115849581Y-79647381D02*
X114849581Y-79647381D01*
X114992438Y-79742619D01*
X115087676Y-79837857D01*
X115135295Y-79933095D01*
X115849581Y-78409285D02*
X115849581Y-78980714D01*
X115849581Y-78695000D02*
X114849581Y-78695000D01*
X114992438Y-78790238D01*
X115087676Y-78885476D01*
X115135295Y-78980714D01*
X58075905Y-49195381D02*
X58075905Y-50004905D01*
X58123524Y-50100143D01*
X58171143Y-50147762D01*
X58266381Y-50195381D01*
X58456858Y-50195381D01*
X58552096Y-50147762D01*
X58599715Y-50100143D01*
X58647334Y-50004905D01*
X58647334Y-49195381D01*
X59647334Y-50195381D02*
X59075905Y-50195381D01*
X59361619Y-50195381D02*
X59361619Y-49195381D01*
X59266381Y-49338238D01*
X59171143Y-49433476D01*
X59075905Y-49481095D01*
X60028286Y-49290619D02*
X60075905Y-49243000D01*
X60171143Y-49195381D01*
X60409239Y-49195381D01*
X60504477Y-49243000D01*
X60552096Y-49290619D01*
X60599715Y-49385857D01*
X60599715Y-49481095D01*
X60552096Y-49623952D01*
X59980667Y-50195381D01*
X60599715Y-50195381D01*
X86510581Y-50514095D02*
X87320105Y-50514095D01*
X87415343Y-50466476D01*
X87462962Y-50418857D01*
X87510581Y-50323619D01*
X87510581Y-50133142D01*
X87462962Y-50037904D01*
X87415343Y-49990285D01*
X87320105Y-49942666D01*
X86510581Y-49942666D01*
X87510581Y-48942666D02*
X87510581Y-49514095D01*
X87510581Y-49228381D02*
X86510581Y-49228381D01*
X86653438Y-49323619D01*
X86748676Y-49418857D01*
X86796295Y-49514095D01*
X86510581Y-48609333D02*
X86510581Y-47990285D01*
X86891533Y-48323619D01*
X86891533Y-48180761D01*
X86939152Y-48085523D01*
X86986771Y-48037904D01*
X87082010Y-47990285D01*
X87320105Y-47990285D01*
X87415343Y-48037904D01*
X87462962Y-48085523D01*
X87510581Y-48180761D01*
X87510581Y-48466476D01*
X87462962Y-48561714D01*
X87415343Y-48609333D01*
X52339381Y-57174666D02*
X51863190Y-57508000D01*
X52339381Y-57746095D02*
X51339381Y-57746095D01*
X51339381Y-57365142D01*
X51387000Y-57269904D01*
X51434619Y-57222285D01*
X51529857Y-57174666D01*
X51672714Y-57174666D01*
X51767952Y-57222285D01*
X51815571Y-57269904D01*
X51863190Y-57365142D01*
X51863190Y-57746095D01*
X51434619Y-56793714D02*
X51387000Y-56746095D01*
X51339381Y-56650857D01*
X51339381Y-56412761D01*
X51387000Y-56317523D01*
X51434619Y-56269904D01*
X51529857Y-56222285D01*
X51625095Y-56222285D01*
X51767952Y-56269904D01*
X52339381Y-56841333D01*
X52339381Y-56222285D01*
X67676381Y-77108905D02*
X68485905Y-77108905D01*
X68581143Y-77061286D01*
X68628762Y-77013667D01*
X68676381Y-76918429D01*
X68676381Y-76727952D01*
X68628762Y-76632714D01*
X68581143Y-76585095D01*
X68485905Y-76537476D01*
X67676381Y-76537476D01*
X67771619Y-76108905D02*
X67724000Y-76061286D01*
X67676381Y-75966048D01*
X67676381Y-75727952D01*
X67724000Y-75632714D01*
X67771619Y-75585095D01*
X67866857Y-75537476D01*
X67962095Y-75537476D01*
X68104952Y-75585095D01*
X68676381Y-76156524D01*
X68676381Y-75537476D01*
X100437095Y-79924381D02*
X100437095Y-80733905D01*
X100484714Y-80829143D01*
X100532333Y-80876762D01*
X100627571Y-80924381D01*
X100818048Y-80924381D01*
X100913286Y-80876762D01*
X100960905Y-80829143D01*
X101008524Y-80733905D01*
X101008524Y-79924381D01*
X101389476Y-79924381D02*
X102056143Y-79924381D01*
X101627571Y-80924381D01*
X113052143Y-63736857D02*
X113099762Y-63784476D01*
X113147381Y-63927333D01*
X113147381Y-64022571D01*
X113099762Y-64165429D01*
X113004524Y-64260667D01*
X112909286Y-64308286D01*
X112718810Y-64355905D01*
X112575952Y-64355905D01*
X112385476Y-64308286D01*
X112290238Y-64260667D01*
X112195000Y-64165429D01*
X112147381Y-64022571D01*
X112147381Y-63927333D01*
X112195000Y-63784476D01*
X112242619Y-63736857D01*
X113147381Y-62784476D02*
X113147381Y-63355905D01*
X113147381Y-63070191D02*
X112147381Y-63070191D01*
X112290238Y-63165429D01*
X112385476Y-63260667D01*
X112433095Y-63355905D01*
X112147381Y-62451143D02*
X112147381Y-61784476D01*
X113147381Y-62213048D01*
X102461143Y-58736143D02*
X102413524Y-58783762D01*
X102270667Y-58831381D01*
X102175429Y-58831381D01*
X102032571Y-58783762D01*
X101937333Y-58688524D01*
X101889714Y-58593286D01*
X101842095Y-58402810D01*
X101842095Y-58259952D01*
X101889714Y-58069476D01*
X101937333Y-57974238D01*
X102032571Y-57879000D01*
X102175429Y-57831381D01*
X102270667Y-57831381D01*
X102413524Y-57879000D01*
X102461143Y-57926619D01*
X103413524Y-58831381D02*
X102842095Y-58831381D01*
X103127809Y-58831381D02*
X103127809Y-57831381D01*
X103032571Y-57974238D01*
X102937333Y-58069476D01*
X102842095Y-58117095D01*
X103984952Y-58259952D02*
X103889714Y-58212333D01*
X103842095Y-58164714D01*
X103794476Y-58069476D01*
X103794476Y-58021857D01*
X103842095Y-57926619D01*
X103889714Y-57879000D01*
X103984952Y-57831381D01*
X104175429Y-57831381D01*
X104270667Y-57879000D01*
X104318286Y-57926619D01*
X104365905Y-58021857D01*
X104365905Y-58069476D01*
X104318286Y-58164714D01*
X104270667Y-58212333D01*
X104175429Y-58259952D01*
X103984952Y-58259952D01*
X103889714Y-58307571D01*
X103842095Y-58355190D01*
X103794476Y-58450429D01*
X103794476Y-58640905D01*
X103842095Y-58736143D01*
X103889714Y-58783762D01*
X103984952Y-58831381D01*
X104175429Y-58831381D01*
X104270667Y-58783762D01*
X104318286Y-58736143D01*
X104365905Y-58640905D01*
X104365905Y-58450429D01*
X104318286Y-58355190D01*
X104270667Y-58307571D01*
X104175429Y-58259952D01*
X74688143Y-62049857D02*
X74735762Y-62097476D01*
X74783381Y-62240333D01*
X74783381Y-62335571D01*
X74735762Y-62478429D01*
X74640524Y-62573667D01*
X74545286Y-62621286D01*
X74354810Y-62668905D01*
X74211952Y-62668905D01*
X74021476Y-62621286D01*
X73926238Y-62573667D01*
X73831000Y-62478429D01*
X73783381Y-62335571D01*
X73783381Y-62240333D01*
X73831000Y-62097476D01*
X73878619Y-62049857D01*
X74783381Y-61097476D02*
X74783381Y-61668905D01*
X74783381Y-61383191D02*
X73783381Y-61383191D01*
X73926238Y-61478429D01*
X74021476Y-61573667D01*
X74069095Y-61668905D01*
X74783381Y-60621286D02*
X74783381Y-60430810D01*
X74735762Y-60335571D01*
X74688143Y-60287952D01*
X74545286Y-60192714D01*
X74354810Y-60145095D01*
X73973857Y-60145095D01*
X73878619Y-60192714D01*
X73831000Y-60240333D01*
X73783381Y-60335571D01*
X73783381Y-60526048D01*
X73831000Y-60621286D01*
X73878619Y-60668905D01*
X73973857Y-60716524D01*
X74211952Y-60716524D01*
X74307190Y-60668905D01*
X74354810Y-60621286D01*
X74402429Y-60526048D01*
X74402429Y-60335571D01*
X74354810Y-60240333D01*
X74307190Y-60192714D01*
X74211952Y-60145095D01*
X87245143Y-70197857D02*
X87292762Y-70245476D01*
X87340381Y-70388333D01*
X87340381Y-70483571D01*
X87292762Y-70626429D01*
X87197524Y-70721667D01*
X87102286Y-70769286D01*
X86911810Y-70816905D01*
X86768952Y-70816905D01*
X86578476Y-70769286D01*
X86483238Y-70721667D01*
X86388000Y-70626429D01*
X86340381Y-70483571D01*
X86340381Y-70388333D01*
X86388000Y-70245476D01*
X86435619Y-70197857D01*
X86435619Y-69816905D02*
X86388000Y-69769286D01*
X86340381Y-69674048D01*
X86340381Y-69435952D01*
X86388000Y-69340714D01*
X86435619Y-69293095D01*
X86530857Y-69245476D01*
X86626095Y-69245476D01*
X86768952Y-69293095D01*
X87340381Y-69864524D01*
X87340381Y-69245476D01*
X86340381Y-68626429D02*
X86340381Y-68531190D01*
X86388000Y-68435952D01*
X86435619Y-68388333D01*
X86530857Y-68340714D01*
X86721333Y-68293095D01*
X86959429Y-68293095D01*
X87149905Y-68340714D01*
X87245143Y-68388333D01*
X87292762Y-68435952D01*
X87340381Y-68531190D01*
X87340381Y-68626429D01*
X87292762Y-68721667D01*
X87245143Y-68769286D01*
X87149905Y-68816905D01*
X86959429Y-68864524D01*
X86721333Y-68864524D01*
X86530857Y-68816905D01*
X86435619Y-68769286D01*
X86388000Y-68721667D01*
X86340381Y-68626429D01*
X99860143Y-59956143D02*
X99812524Y-60003762D01*
X99669667Y-60051381D01*
X99574429Y-60051381D01*
X99431571Y-60003762D01*
X99336333Y-59908524D01*
X99288714Y-59813286D01*
X99241095Y-59622810D01*
X99241095Y-59479952D01*
X99288714Y-59289476D01*
X99336333Y-59194238D01*
X99431571Y-59099000D01*
X99574429Y-59051381D01*
X99669667Y-59051381D01*
X99812524Y-59099000D01*
X99860143Y-59146619D01*
X100241095Y-59146619D02*
X100288714Y-59099000D01*
X100383952Y-59051381D01*
X100622048Y-59051381D01*
X100717286Y-59099000D01*
X100764905Y-59146619D01*
X100812524Y-59241857D01*
X100812524Y-59337095D01*
X100764905Y-59479952D01*
X100193476Y-60051381D01*
X100812524Y-60051381D01*
X101764905Y-60051381D02*
X101193476Y-60051381D01*
X101479190Y-60051381D02*
X101479190Y-59051381D01*
X101383952Y-59194238D01*
X101288714Y-59289476D01*
X101193476Y-59337095D01*
X92890143Y-74707743D02*
X92842524Y-74755362D01*
X92699667Y-74802981D01*
X92604429Y-74802981D01*
X92461571Y-74755362D01*
X92366333Y-74660124D01*
X92318714Y-74564886D01*
X92271095Y-74374410D01*
X92271095Y-74231552D01*
X92318714Y-74041076D01*
X92366333Y-73945838D01*
X92461571Y-73850600D01*
X92604429Y-73802981D01*
X92699667Y-73802981D01*
X92842524Y-73850600D01*
X92890143Y-73898219D01*
X93271095Y-73898219D02*
X93318714Y-73850600D01*
X93413952Y-73802981D01*
X93652048Y-73802981D01*
X93747286Y-73850600D01*
X93794905Y-73898219D01*
X93842524Y-73993457D01*
X93842524Y-74088695D01*
X93794905Y-74231552D01*
X93223476Y-74802981D01*
X93842524Y-74802981D01*
X94223476Y-73898219D02*
X94271095Y-73850600D01*
X94366333Y-73802981D01*
X94604429Y-73802981D01*
X94699667Y-73850600D01*
X94747286Y-73898219D01*
X94794905Y-73993457D01*
X94794905Y-74088695D01*
X94747286Y-74231552D01*
X94175857Y-74802981D01*
X94794905Y-74802981D01*
X87200143Y-65909743D02*
X87152524Y-65957362D01*
X87009667Y-66004981D01*
X86914429Y-66004981D01*
X86771571Y-65957362D01*
X86676333Y-65862124D01*
X86628714Y-65766886D01*
X86581095Y-65576410D01*
X86581095Y-65433552D01*
X86628714Y-65243076D01*
X86676333Y-65147838D01*
X86771571Y-65052600D01*
X86914429Y-65004981D01*
X87009667Y-65004981D01*
X87152524Y-65052600D01*
X87200143Y-65100219D01*
X87581095Y-65100219D02*
X87628714Y-65052600D01*
X87723952Y-65004981D01*
X87962048Y-65004981D01*
X88057286Y-65052600D01*
X88104905Y-65100219D01*
X88152524Y-65195457D01*
X88152524Y-65290695D01*
X88104905Y-65433552D01*
X87533476Y-66004981D01*
X88152524Y-66004981D01*
X88485857Y-65004981D02*
X89104905Y-65004981D01*
X88771571Y-65385933D01*
X88914429Y-65385933D01*
X89009667Y-65433552D01*
X89057286Y-65481171D01*
X89104905Y-65576410D01*
X89104905Y-65814505D01*
X89057286Y-65909743D01*
X89009667Y-65957362D01*
X88914429Y-66004981D01*
X88628714Y-66004981D01*
X88533476Y-65957362D01*
X88485857Y-65909743D01*
X103395143Y-65482543D02*
X103347524Y-65530162D01*
X103204667Y-65577781D01*
X103109429Y-65577781D01*
X102966571Y-65530162D01*
X102871333Y-65434924D01*
X102823714Y-65339686D01*
X102776095Y-65149210D01*
X102776095Y-65006352D01*
X102823714Y-64815876D01*
X102871333Y-64720638D01*
X102966571Y-64625400D01*
X103109429Y-64577781D01*
X103204667Y-64577781D01*
X103347524Y-64625400D01*
X103395143Y-64673019D01*
X103776095Y-64673019D02*
X103823714Y-64625400D01*
X103918952Y-64577781D01*
X104157048Y-64577781D01*
X104252286Y-64625400D01*
X104299905Y-64673019D01*
X104347524Y-64768257D01*
X104347524Y-64863495D01*
X104299905Y-65006352D01*
X103728476Y-65577781D01*
X104347524Y-65577781D01*
X105204667Y-64911114D02*
X105204667Y-65577781D01*
X104966571Y-64530162D02*
X104728476Y-65244448D01*
X105347524Y-65244448D01*
X106705381Y-63178666D02*
X106705381Y-63654857D01*
X105705381Y-63654857D01*
X106038714Y-62416761D02*
X106705381Y-62416761D01*
X105657762Y-62654857D02*
X106372048Y-62892952D01*
X106372048Y-62273904D01*
X97775334Y-63789381D02*
X97299143Y-63789381D01*
X97299143Y-62789381D01*
X98584858Y-62789381D02*
X98108667Y-62789381D01*
X98061048Y-63265571D01*
X98108667Y-63217952D01*
X98203905Y-63170333D01*
X98442001Y-63170333D01*
X98537239Y-63217952D01*
X98584858Y-63265571D01*
X98632477Y-63360810D01*
X98632477Y-63598905D01*
X98584858Y-63694143D01*
X98537239Y-63741762D01*
X98442001Y-63789381D01*
X98203905Y-63789381D01*
X98108667Y-63741762D01*
X98061048Y-63694143D01*
X86467381Y-66958666D02*
X86467381Y-67434857D01*
X85467381Y-67434857D01*
X85467381Y-66196761D02*
X85467381Y-66387238D01*
X85515000Y-66482476D01*
X85562619Y-66530095D01*
X85705476Y-66625333D01*
X85895952Y-66672952D01*
X86276905Y-66672952D01*
X86372143Y-66625333D01*
X86419762Y-66577714D01*
X86467381Y-66482476D01*
X86467381Y-66291999D01*
X86419762Y-66196761D01*
X86372143Y-66149142D01*
X86276905Y-66101523D01*
X86038810Y-66101523D01*
X85943571Y-66149142D01*
X85895952Y-66196761D01*
X85848333Y-66291999D01*
X85848333Y-66482476D01*
X85895952Y-66577714D01*
X85943571Y-66625333D01*
X86038810Y-66672952D01*
X71552381Y-66458857D02*
X71076190Y-66792191D01*
X71552381Y-67030286D02*
X70552381Y-67030286D01*
X70552381Y-66649333D01*
X70600000Y-66554095D01*
X70647619Y-66506476D01*
X70742857Y-66458857D01*
X70885714Y-66458857D01*
X70980952Y-66506476D01*
X71028571Y-66554095D01*
X71076190Y-66649333D01*
X71076190Y-67030286D01*
X71552381Y-65506476D02*
X71552381Y-66077905D01*
X71552381Y-65792191D02*
X70552381Y-65792191D01*
X70695238Y-65887429D01*
X70790476Y-65982667D01*
X70838095Y-66077905D01*
X71552381Y-65030286D02*
X71552381Y-64839810D01*
X71504762Y-64744571D01*
X71457143Y-64696952D01*
X71314286Y-64601714D01*
X71123810Y-64554095D01*
X70742857Y-64554095D01*
X70647619Y-64601714D01*
X70600000Y-64649333D01*
X70552381Y-64744571D01*
X70552381Y-64935048D01*
X70600000Y-65030286D01*
X70647619Y-65077905D01*
X70742857Y-65125524D01*
X70980952Y-65125524D01*
X71076190Y-65077905D01*
X71123810Y-65030286D01*
X71171429Y-64935048D01*
X71171429Y-64744571D01*
X71123810Y-64649333D01*
X71076190Y-64601714D01*
X70980952Y-64554095D01*
X92233905Y-69688781D02*
X92233905Y-70498305D01*
X92281524Y-70593543D01*
X92329143Y-70641162D01*
X92424381Y-70688781D01*
X92614858Y-70688781D01*
X92710096Y-70641162D01*
X92757715Y-70593543D01*
X92805334Y-70498305D01*
X92805334Y-69688781D01*
X93805334Y-70688781D02*
X93233905Y-70688781D01*
X93519619Y-70688781D02*
X93519619Y-69688781D01*
X93424381Y-69831638D01*
X93329143Y-69926876D01*
X93233905Y-69974495D01*
X94662477Y-70022114D02*
X94662477Y-70688781D01*
X94424381Y-69641162D02*
X94186286Y-70355448D01*
X94805334Y-70355448D01*
M02*
