G04 #@! TF.FileFunction,Copper,L1,Top,Signal*
%FSLAX46Y46*%
G04 Gerber Fmt 4.6, Leading zero omitted, Abs format (unit mm)*
G04 Created by KiCad (PCBNEW 4.0.7) date 02/09/18 10:27:51*
%MOMM*%
%LPD*%
G01*
G04 APERTURE LIST*
%ADD10C,0.100000*%
%ADD11C,0.762000*%
%ADD12R,1.520000X1.520000*%
%ADD13C,1.440000*%
%ADD14R,1.500000X1.300000*%
%ADD15R,1.500000X1.250000*%
%ADD16C,2.000000*%
%ADD17C,1.700000*%
%ADD18R,1.250000X1.500000*%
%ADD19R,1.300000X1.500000*%
%ADD20R,4.500000X1.400000*%
%ADD21R,0.360000X0.890000*%
%ADD22R,0.890000X0.360000*%
%ADD23R,2.160000X2.160000*%
%ADD24R,0.711200X1.498600*%
%ADD25R,0.914400X5.334000*%
%ADD26R,0.760000X2.390000*%
%ADD27R,0.760000X1.520000*%
%ADD28R,3.300000X0.870000*%
%ADD29R,4.570000X1.270000*%
%ADD30R,1.550000X0.610000*%
%ADD31R,0.610000X1.550000*%
%ADD32R,1.270000X0.508000*%
%ADD33C,1.520000*%
%ADD34C,1.460000*%
%ADD35R,0.790000X1.680000*%
%ADD36R,0.790000X2.110000*%
%ADD37R,2.060000X1.680000*%
%ADD38R,3.330000X0.760000*%
%ADD39C,0.900000*%
%ADD40C,0.508000*%
%ADD41C,0.254000*%
%ADD42C,0.961000*%
%ADD43C,0.960514*%
%ADD44C,1.371310*%
%ADD45C,1.317000*%
%ADD46C,0.152400*%
G04 APERTURE END LIST*
D10*
D11*
X104140000Y-43180000D03*
X99060000Y-43180000D03*
X58420000Y-43180000D03*
X43180000Y-53340000D03*
X38100000Y-48260000D03*
X88900000Y-73660000D03*
X88900000Y-38100000D03*
X88900000Y-33020000D03*
X93980000Y-38100000D03*
X104140000Y-38100000D03*
X99060000Y-38100000D03*
X58420000Y-38100000D03*
X114300000Y-63500000D03*
X99060000Y-68580000D03*
X109220000Y-68580000D03*
X104140000Y-68580000D03*
X99060000Y-73660000D03*
X104140000Y-73660000D03*
X109220000Y-73660000D03*
X58420000Y-78740000D03*
X53340000Y-78740000D03*
X48260000Y-78740000D03*
X43180000Y-78740000D03*
X38100000Y-78740000D03*
X38100000Y-73660000D03*
X43180000Y-73660000D03*
X48260000Y-73660000D03*
X53340000Y-73660000D03*
X58420000Y-73660000D03*
X63500000Y-73660000D03*
X63500000Y-78740000D03*
X68580000Y-73660000D03*
X68580000Y-78740000D03*
X78740000Y-78740000D03*
X78740000Y-73660000D03*
X83820000Y-73660000D03*
X83820000Y-78740000D03*
X88900000Y-83820000D03*
X93980000Y-83820000D03*
X99060000Y-83820000D03*
X104140000Y-83820000D03*
X109220000Y-83820000D03*
X114300000Y-83820000D03*
X119380000Y-73660000D03*
X119380000Y-68580000D03*
X119380000Y-63500000D03*
X119380000Y-58420000D03*
X119380000Y-53340000D03*
X93980000Y-43180000D03*
X119380000Y-43180000D03*
X119380000Y-48260000D03*
X68580000Y-63500000D03*
X63500000Y-63500000D03*
X58420000Y-63500000D03*
X38100000Y-63500000D03*
X43180000Y-63500000D03*
X53340000Y-63500000D03*
X48260000Y-63500000D03*
D12*
X79689000Y-72048000D03*
X77149000Y-72048000D03*
X82229000Y-72048000D03*
X84769000Y-72048000D03*
X84769000Y-84248000D03*
X82229000Y-84248000D03*
X79689000Y-84248000D03*
X77149000Y-84248000D03*
X86679000Y-73828000D03*
X86679000Y-76368000D03*
X86679000Y-78908000D03*
X86679000Y-81448000D03*
X74479000Y-74718000D03*
X74479000Y-77258000D03*
X74479000Y-79798000D03*
X74479000Y-82338000D03*
D13*
X65405000Y-57079000D03*
X67945000Y-57079000D03*
X70485000Y-57079000D03*
D11*
X38100000Y-38100000D03*
D14*
X104718000Y-55474000D03*
X102018000Y-55474000D03*
D15*
X44041000Y-65659000D03*
X46541000Y-65659000D03*
D16*
X37747000Y-65659000D03*
X37800000Y-59250000D03*
D17*
X44058000Y-59210000D03*
X44058000Y-61750000D03*
X44058000Y-56670000D03*
D15*
X92809000Y-78847000D03*
X90309000Y-78847000D03*
D18*
X52136000Y-59240000D03*
X52136000Y-61740000D03*
X111100000Y-39752000D03*
X111100000Y-37252000D03*
D15*
X108159000Y-34403000D03*
X105659000Y-34403000D03*
X93299000Y-48476000D03*
X95799000Y-48476000D03*
X108595000Y-43531000D03*
X106095000Y-43531000D03*
D18*
X101897000Y-72385000D03*
X101897000Y-69885000D03*
D15*
X99685000Y-57744000D03*
X102185000Y-57744000D03*
D18*
X105643000Y-48336000D03*
X105643000Y-50836000D03*
D15*
X96819000Y-51158000D03*
X99319000Y-51158000D03*
D18*
X111089000Y-57963000D03*
X111089000Y-55463000D03*
X85710000Y-39452000D03*
X85710000Y-36952000D03*
D15*
X80528000Y-32332000D03*
X83028000Y-32332000D03*
D19*
X108158000Y-39776000D03*
X108158000Y-37076000D03*
D14*
X102437000Y-48336000D03*
X99737000Y-48336000D03*
D13*
X50094000Y-48621000D03*
X47554000Y-48621000D03*
X45014000Y-48621000D03*
D14*
X98861000Y-45598000D03*
X96161000Y-45598000D03*
D19*
X57140000Y-51340000D03*
X57140000Y-54040000D03*
X66802000Y-44785000D03*
X66802000Y-47485000D03*
X62499000Y-44841000D03*
X62499000Y-47541000D03*
D14*
X72521000Y-39625000D03*
X75221000Y-39625000D03*
D19*
X77810000Y-36962000D03*
X77810000Y-39662000D03*
X69317000Y-39634000D03*
X69317000Y-36934000D03*
D14*
X80512000Y-36971000D03*
X83212000Y-36971000D03*
D19*
X91460000Y-32320000D03*
X91460000Y-35020000D03*
D14*
X88754000Y-39737000D03*
X91454000Y-39737000D03*
X96956000Y-32329000D03*
X94256000Y-32329000D03*
D16*
X37859000Y-53365000D03*
X89330000Y-42590000D03*
X97008000Y-36190000D03*
D20*
X118547000Y-34431000D03*
X118547000Y-37206000D03*
X118547000Y-39981000D03*
D21*
X111767000Y-47435000D03*
D22*
X112697000Y-50315000D03*
D23*
X110792000Y-49340000D03*
D22*
X108887000Y-48365000D03*
X108887000Y-49015000D03*
X108887000Y-49665000D03*
X108887000Y-50315000D03*
X112697000Y-49665000D03*
X112697000Y-49015000D03*
X112697000Y-48365000D03*
D21*
X111767000Y-51245000D03*
X111117000Y-51245000D03*
X110467000Y-51245000D03*
X109817000Y-51245000D03*
X111117000Y-47435000D03*
X110467000Y-47435000D03*
X109817000Y-47435000D03*
D24*
X98087600Y-78780700D03*
X95090400Y-78780700D03*
D25*
X96589000Y-76863000D03*
D10*
G36*
X97046200Y-78107600D02*
X97046200Y-74196000D01*
X97541500Y-74691300D01*
X97541500Y-77612300D01*
X97046200Y-78107600D01*
X97046200Y-78107600D01*
G37*
G36*
X95636500Y-77612300D02*
X95636500Y-74691300D01*
X96131800Y-74196000D01*
X96131800Y-78107600D01*
X95636500Y-77612300D01*
X95636500Y-77612300D01*
G37*
D26*
X114838000Y-67182000D03*
D27*
X114838000Y-71277000D03*
X113568000Y-71277000D03*
X112298000Y-71277000D03*
X111028000Y-71277000D03*
X113568000Y-66747000D03*
D26*
X112298000Y-67182000D03*
D27*
X111028000Y-66747000D03*
D28*
X112298000Y-70082000D03*
D29*
X112933000Y-69012000D03*
D30*
X113652000Y-76332000D03*
D31*
X112067000Y-77917000D03*
X112067000Y-74747000D03*
D30*
X110482000Y-76332000D03*
D32*
X105448000Y-77851200D03*
X105448000Y-78791000D03*
X105448000Y-79730800D03*
X107734000Y-77851200D03*
X107734000Y-78791000D03*
X107734000Y-79730800D03*
D20*
X118546000Y-82429000D03*
X118546000Y-79654000D03*
X118546000Y-76879000D03*
D33*
X57132000Y-47001000D03*
X59672000Y-47001000D03*
D12*
X54592000Y-47001000D03*
D34*
X69898000Y-45396000D03*
X72438000Y-45396000D03*
X74978000Y-45396000D03*
X77518000Y-45396000D03*
X80058000Y-45396000D03*
X82598000Y-45396000D03*
X85138000Y-45396000D03*
X69898000Y-53156000D03*
X72438000Y-53156000D03*
X74978000Y-53156000D03*
X77518000Y-53156000D03*
X80058000Y-53156000D03*
X82598000Y-53156000D03*
X85138000Y-53156000D03*
D19*
X50160000Y-59202000D03*
X50160000Y-56502000D03*
D16*
X37683000Y-83896000D03*
X40223000Y-83896000D03*
X42763000Y-83896000D03*
X45303000Y-83896000D03*
X47843000Y-83896000D03*
X50383000Y-83896000D03*
X52923000Y-83896000D03*
X55463000Y-83896000D03*
X58003000Y-83896000D03*
X60543000Y-83896000D03*
X63083000Y-83896000D03*
X65623000Y-83896000D03*
X68163000Y-83896000D03*
X70703000Y-83896000D03*
X70703000Y-81356000D03*
X70703000Y-78816000D03*
X70703000Y-76276000D03*
X70703000Y-73736000D03*
X70703000Y-71196000D03*
X70703000Y-68656000D03*
X68163000Y-68656000D03*
X65623000Y-68656000D03*
X63083000Y-68656000D03*
X60543000Y-68656000D03*
X58003000Y-68656000D03*
X55463000Y-68656000D03*
X52923000Y-68656000D03*
X50383000Y-68656000D03*
X47843000Y-68656000D03*
X45303000Y-68656000D03*
X42763000Y-68656000D03*
X40223000Y-68656000D03*
X37683000Y-68656000D03*
X40223000Y-71196000D03*
X45303000Y-71196000D03*
X47843000Y-71196000D03*
X50383000Y-71196000D03*
D11*
X88900000Y-48260000D03*
X83820000Y-48260000D03*
X78740000Y-48260000D03*
X73660000Y-48260000D03*
X114300000Y-43180000D03*
X114300000Y-38100000D03*
X114300000Y-33020000D03*
X109220000Y-33020000D03*
X104140000Y-33020000D03*
X99060000Y-33020000D03*
X63500000Y-33020000D03*
X58420000Y-33020000D03*
X53340000Y-33020000D03*
X48260000Y-33020000D03*
X43180000Y-33020000D03*
X38100000Y-33020000D03*
X38100000Y-43180000D03*
X43180000Y-38100000D03*
X48260000Y-38100000D03*
X53340000Y-38100000D03*
X43180000Y-43180000D03*
X48260000Y-43180000D03*
X53340000Y-43180000D03*
X53340000Y-53340000D03*
X48260000Y-53340000D03*
X73660000Y-33020000D03*
X78740000Y-33020000D03*
X114219000Y-48280000D03*
X63500000Y-53340000D03*
D35*
X99929000Y-75560000D03*
X99929000Y-78780000D03*
D36*
X101199000Y-78565000D03*
D35*
X102469000Y-78780000D03*
D37*
X101834000Y-75560000D03*
D38*
X101199000Y-77170000D03*
D11*
X101199000Y-77170000D03*
X101199000Y-78103000D03*
X101199000Y-79036000D03*
X102309000Y-77170000D03*
X100089000Y-77170000D03*
D18*
X111089000Y-64364000D03*
X111089000Y-61864000D03*
D15*
X108032000Y-59111000D03*
X105532000Y-59111000D03*
X71282000Y-62921000D03*
X73782000Y-62921000D03*
D18*
X88468000Y-67330000D03*
X88468000Y-69830000D03*
D15*
X97881000Y-60965000D03*
X100381000Y-60965000D03*
X92283000Y-72725000D03*
X94783000Y-72725000D03*
X82189000Y-63951000D03*
X84689000Y-63951000D03*
X105288000Y-66751000D03*
X102788000Y-66751000D03*
D19*
X108041000Y-64423000D03*
X108041000Y-61723000D03*
D14*
X102787000Y-63195000D03*
X100087000Y-63195000D03*
D19*
X84323000Y-68939000D03*
X84323000Y-66239000D03*
X73436000Y-68020000D03*
X73436000Y-65320000D03*
D22*
X91567000Y-66061000D03*
D21*
X94447000Y-65131000D03*
D23*
X93472000Y-67036000D03*
D21*
X92497000Y-68941000D03*
X93147000Y-68941000D03*
X93797000Y-68941000D03*
X94447000Y-68941000D03*
X93797000Y-65131000D03*
X93147000Y-65131000D03*
X92497000Y-65131000D03*
D22*
X95377000Y-66061000D03*
X95377000Y-66711000D03*
X95377000Y-67361000D03*
X95377000Y-68011000D03*
X91567000Y-66711000D03*
X91567000Y-67361000D03*
X91567000Y-68011000D03*
D11*
X109877000Y-78776000D03*
X113589000Y-58054000D03*
X62751000Y-40817000D03*
X72520000Y-37826000D03*
D39*
X81971000Y-40660000D03*
X84348000Y-34503000D03*
D11*
X73914000Y-41194000D03*
X104465000Y-64435000D03*
X89692000Y-65674000D03*
X105644000Y-60818000D03*
X88473000Y-65573000D03*
X100995000Y-66721000D03*
X96896000Y-66721000D03*
X75916000Y-68011000D03*
X89957000Y-68031000D03*
D40*
X107734000Y-78791000D02*
X109862000Y-78791000D01*
X109862000Y-78791000D02*
X109877000Y-78776000D01*
X95884150Y-76151800D02*
X94376200Y-76151800D01*
X94376200Y-76151800D02*
X94366000Y-76162000D01*
X97293850Y-76151800D02*
X98454800Y-76151800D01*
X98454800Y-76151800D02*
X98469000Y-76166000D01*
D41*
X94447000Y-65131000D02*
X94447000Y-66061000D01*
X94447000Y-66061000D02*
X93472000Y-67036000D01*
X93797000Y-65131000D02*
X93797000Y-66711000D01*
X93797000Y-66711000D02*
X93472000Y-67036000D01*
X93147000Y-65131000D02*
X93147000Y-66711000D01*
X93147000Y-66711000D02*
X93472000Y-67036000D01*
X92497000Y-65131000D02*
X92497000Y-66061000D01*
X92497000Y-66061000D02*
X93472000Y-67036000D01*
X91567000Y-66061000D02*
X92497000Y-66061000D01*
X92497000Y-66061000D02*
X93472000Y-67036000D01*
X95377000Y-68011000D02*
X94447000Y-68011000D01*
X94447000Y-68011000D02*
X93472000Y-67036000D01*
X95377000Y-67361000D02*
X93797000Y-67361000D01*
X93797000Y-67361000D02*
X93472000Y-67036000D01*
X95377000Y-66061000D02*
X94447000Y-66061000D01*
X94447000Y-66061000D02*
X93472000Y-67036000D01*
X93797000Y-68941000D02*
X93797000Y-67361000D01*
X93797000Y-67361000D02*
X93472000Y-67036000D01*
X93147000Y-68941000D02*
X93147000Y-67361000D01*
X93147000Y-67361000D02*
X93472000Y-67036000D01*
X93797000Y-66711000D02*
X93472000Y-67036000D01*
D40*
X109817000Y-51245000D02*
X109817000Y-52447000D01*
X109939000Y-52427000D02*
X109890000Y-52476000D01*
D41*
X109817000Y-51245000D02*
X109817000Y-50315000D01*
X109817000Y-50315000D02*
X110792000Y-49340000D01*
X111767000Y-51245000D02*
X111767000Y-50315000D01*
X111767000Y-50315000D02*
X110792000Y-49340000D01*
X110467000Y-51245000D02*
X110467000Y-49665000D01*
X110467000Y-49665000D02*
X110792000Y-49340000D01*
X112697000Y-49015000D02*
X111117000Y-49015000D01*
X111117000Y-49015000D02*
X110792000Y-49340000D01*
X112697000Y-50315000D02*
X111767000Y-50315000D01*
X111767000Y-50315000D02*
X110792000Y-49340000D01*
X112697000Y-49665000D02*
X111117000Y-49665000D01*
X111117000Y-49665000D02*
X110792000Y-49340000D01*
X112697000Y-48365000D02*
X111767000Y-48365000D01*
X111767000Y-48365000D02*
X110792000Y-49340000D01*
X111767000Y-47435000D02*
X111767000Y-48365000D01*
X111767000Y-48365000D02*
X110792000Y-49340000D01*
X108887000Y-49665000D02*
X110467000Y-49665000D01*
X110467000Y-49665000D02*
X110792000Y-49340000D01*
X108887000Y-49015000D02*
X110467000Y-49015000D01*
X110467000Y-49015000D02*
X110792000Y-49340000D01*
X111117000Y-47435000D02*
X111117000Y-39769000D01*
X111117000Y-39769000D02*
X111100000Y-39752000D01*
X108158000Y-39776000D02*
X111076000Y-39776000D01*
X111076000Y-39776000D02*
X111100000Y-39752000D01*
X111049000Y-39803000D02*
X111100000Y-39752000D01*
X111147000Y-47405000D02*
X111117000Y-47435000D01*
X111127000Y-47148000D02*
X111096000Y-47117000D01*
X118618000Y-37244000D02*
X111108000Y-37244000D01*
X111108000Y-37244000D02*
X111100000Y-37252000D01*
X111162000Y-37190000D02*
X111100000Y-37252000D01*
X111133000Y-37219000D02*
X111100000Y-37252000D01*
X111105000Y-37247000D02*
X111100000Y-37252000D01*
X108158000Y-37076000D02*
X108128000Y-37076000D01*
X108128000Y-37076000D02*
X106479000Y-38725000D01*
X106479000Y-41415000D02*
X108595000Y-43531000D01*
X106479000Y-38725000D02*
X106479000Y-41415000D01*
X110467000Y-47435000D02*
X110467000Y-45403000D01*
X110467000Y-45403000D02*
X108595000Y-43531000D01*
X108158000Y-37076000D02*
X108158000Y-34404000D01*
X108158000Y-34404000D02*
X108159000Y-34403000D01*
X92809000Y-78847000D02*
X95024100Y-78847000D01*
X95024100Y-78847000D02*
X95090400Y-78780700D01*
X90309000Y-78847000D02*
X86740000Y-78847000D01*
X86740000Y-78847000D02*
X86679000Y-78908000D01*
X101897000Y-72385000D02*
X101897000Y-75497000D01*
X101897000Y-75497000D02*
X101834000Y-75560000D01*
X105643000Y-48336000D02*
X102437000Y-48336000D01*
X105643000Y-48336000D02*
X108858000Y-48336000D01*
X108858000Y-48336000D02*
X108887000Y-48365000D01*
X105643000Y-50836000D02*
X108366000Y-50836000D01*
X108366000Y-50836000D02*
X108887000Y-50315000D01*
X111089000Y-61864000D02*
X111089000Y-57963000D01*
X111059000Y-61834000D02*
X111089000Y-61864000D01*
X104718000Y-55474000D02*
X111078000Y-55474000D01*
X111078000Y-55474000D02*
X111089000Y-55463000D01*
X111089000Y-55463000D02*
X111089000Y-51273000D01*
X111089000Y-51273000D02*
X111117000Y-51245000D01*
X111127000Y-51255000D02*
X111117000Y-51245000D01*
X74978000Y-53156000D02*
X74309000Y-53156000D01*
X74309000Y-53156000D02*
X68638000Y-47485000D01*
X68638000Y-47485000D02*
X66802000Y-47485000D01*
X113568000Y-66747000D02*
X113568000Y-58075000D01*
X113568000Y-58075000D02*
X113589000Y-58054000D01*
D42*
X60907500Y-42659500D02*
X60908500Y-42659500D01*
X60908500Y-42659500D02*
X62751000Y-40817000D01*
X62499000Y-44841000D02*
X62499000Y-44251000D01*
X62499000Y-44251000D02*
X60907500Y-42659500D01*
X60907500Y-42659500D02*
X60879000Y-42631000D01*
X57132000Y-47001000D02*
X57132000Y-51332000D01*
X57132000Y-51332000D02*
X57140000Y-51340000D01*
X57132000Y-47001000D02*
X57132000Y-46378000D01*
X57132000Y-46378000D02*
X60879000Y-42631000D01*
X60879000Y-42631000D02*
X63050000Y-42631000D01*
X72521000Y-39625000D02*
X72521000Y-37827000D01*
X72521000Y-37827000D02*
X72520000Y-37826000D01*
X85800000Y-42631000D02*
X88981000Y-42631000D01*
X88981000Y-42631000D02*
X89170000Y-42820000D01*
D43*
X65470000Y-42631000D02*
X69515000Y-42631000D01*
X69515000Y-42631000D02*
X72521000Y-39625000D01*
X63050000Y-42631000D02*
X65470000Y-42631000D01*
X65470000Y-42631000D02*
X66320000Y-42631000D01*
X66320000Y-42631000D02*
X69317000Y-39634000D01*
X63680000Y-42631000D02*
X64648000Y-42631000D01*
X64648000Y-42631000D02*
X66802000Y-44785000D01*
X80260000Y-42631000D02*
X82531000Y-42631000D01*
X82531000Y-42631000D02*
X85710000Y-39452000D01*
X63050000Y-42631000D02*
X63680000Y-42631000D01*
X63680000Y-42631000D02*
X80260000Y-42631000D01*
X80260000Y-42631000D02*
X85800000Y-42631000D01*
X85800000Y-42631000D02*
X85860000Y-42631000D01*
X85860000Y-42631000D02*
X88754000Y-39737000D01*
X57109000Y-47024000D02*
X57132000Y-47001000D01*
D44*
X57109000Y-47024000D02*
X57054000Y-46969000D01*
D41*
X83212000Y-39419000D02*
X83212000Y-36971000D01*
X81971000Y-40660000D02*
X83212000Y-39419000D01*
X83212000Y-36971000D02*
X85691000Y-36971000D01*
X85691000Y-36971000D02*
X85710000Y-36952000D01*
X80512000Y-36971000D02*
X80512000Y-32348000D01*
X80512000Y-32348000D02*
X80528000Y-32332000D01*
X77810000Y-36962000D02*
X80503000Y-36962000D01*
X80503000Y-36962000D02*
X80512000Y-36971000D01*
X69317000Y-36934000D02*
X77782000Y-36934000D01*
X77782000Y-36934000D02*
X77810000Y-36962000D01*
X83028000Y-32332000D02*
X91448000Y-32332000D01*
X91448000Y-32332000D02*
X91460000Y-32320000D01*
X91460000Y-32320000D02*
X94247000Y-32320000D01*
X94247000Y-32320000D02*
X94256000Y-32329000D01*
X91409000Y-32332000D02*
X91417000Y-32324000D01*
X83028000Y-33183000D02*
X83028000Y-32332000D01*
X84348000Y-34503000D02*
X83028000Y-33183000D01*
X98861000Y-45598000D02*
X107980000Y-45598000D01*
X107980000Y-45598000D02*
X109817000Y-47435000D01*
X62499000Y-47541000D02*
X62984000Y-47541000D01*
X62984000Y-47541000D02*
X66954000Y-51511000D01*
X66954000Y-51511000D02*
X70793000Y-51511000D01*
X70793000Y-51511000D02*
X72438000Y-53156000D01*
X73914000Y-41194000D02*
X75221000Y-39887000D01*
X75221000Y-39887000D02*
X75221000Y-39625000D01*
X77708000Y-39662000D02*
X77810000Y-39662000D01*
X77810000Y-39730000D02*
X77810000Y-39662000D01*
X77810000Y-39662000D02*
X75258000Y-39662000D01*
X75258000Y-39662000D02*
X75221000Y-39625000D01*
X96956000Y-32329000D02*
X96956000Y-36138000D01*
X96956000Y-36138000D02*
X97008000Y-36190000D01*
X74479000Y-77258000D02*
X74332000Y-77258000D01*
X74332000Y-77258000D02*
X72725000Y-75651000D01*
X72725000Y-75651000D02*
X72725000Y-73218000D01*
X72725000Y-73218000D02*
X70703000Y-71196000D01*
X99929000Y-78780000D02*
X98088300Y-78780000D01*
X98088300Y-78780000D02*
X98087600Y-78780700D01*
X105448000Y-78791000D02*
X102480000Y-78791000D01*
X102480000Y-78791000D02*
X102469000Y-78780000D01*
X112067000Y-74747000D02*
X112908000Y-74747000D01*
X114838000Y-72817000D02*
X114838000Y-71277000D01*
X112908000Y-74747000D02*
X114838000Y-72817000D01*
X118648000Y-79685000D02*
X107779800Y-79685000D01*
X107779800Y-79685000D02*
X107734000Y-79730800D01*
X112067000Y-77917000D02*
X107799800Y-77917000D01*
X107799800Y-77917000D02*
X107734000Y-77851200D01*
X44041000Y-65659000D02*
X37747000Y-65659000D01*
X44041000Y-65659000D02*
X44041000Y-61767000D01*
X44041000Y-61767000D02*
X44058000Y-61750000D01*
D42*
X93299000Y-48476000D02*
X93299000Y-48460000D01*
X93299000Y-48460000D02*
X96161000Y-45598000D01*
X96819000Y-51158000D02*
X96915000Y-51158000D01*
X96915000Y-51158000D02*
X99737000Y-48336000D01*
X83932000Y-59182000D02*
X88891000Y-59182000D01*
X88891000Y-59182000D02*
X99737000Y-48336000D01*
X80355000Y-59182000D02*
X82577000Y-59182000D01*
X82577000Y-59182000D02*
X96161000Y-45598000D01*
X99685000Y-57744000D02*
X99748000Y-57744000D01*
X99748000Y-57744000D02*
X102018000Y-55474000D01*
X93492000Y-59182000D02*
X98310000Y-59182000D01*
X98310000Y-59182000D02*
X102018000Y-55474000D01*
X84323000Y-66239000D02*
X84323000Y-66085000D01*
X84323000Y-66085000D02*
X82189000Y-63951000D01*
X75225000Y-59182000D02*
X77266000Y-59182000D01*
X77266000Y-59182000D02*
X84323000Y-66239000D01*
X68214000Y-59182000D02*
X73629000Y-59182000D01*
X82229000Y-67782000D02*
X82229000Y-72048000D01*
X73629000Y-59182000D02*
X82229000Y-67782000D01*
X47945000Y-59210000D02*
X51970000Y-59210000D01*
X51970000Y-59210000D02*
X57140000Y-54040000D01*
D43*
X50180000Y-59182000D02*
X66675000Y-59182000D01*
D42*
X90721000Y-59182000D02*
X91194000Y-59182000D01*
X91194000Y-59182000D02*
X101897000Y-69885000D01*
X93492000Y-59182000D02*
X96074000Y-59182000D01*
X96074000Y-59182000D02*
X97983000Y-61091000D01*
X97983000Y-61091000D02*
X100087000Y-63195000D01*
X92469000Y-59182000D02*
X93492000Y-59182000D01*
X66675000Y-59182000D02*
X67390000Y-59182000D01*
X67390000Y-59182000D02*
X71560000Y-63352000D01*
X71560000Y-63352000D02*
X73381000Y-65173000D01*
D43*
X44058000Y-59210000D02*
X37840000Y-59210000D01*
X71420000Y-59182000D02*
X75225000Y-59182000D01*
X75225000Y-59182000D02*
X80355000Y-59182000D01*
X80355000Y-59182000D02*
X83932000Y-59182000D01*
X83932000Y-59182000D02*
X90721000Y-59182000D01*
X90721000Y-59182000D02*
X92469000Y-59182000D01*
X66675000Y-59182000D02*
X68214000Y-59182000D01*
X68214000Y-59182000D02*
X71420000Y-59182000D01*
X71420000Y-59182000D02*
X71492000Y-59182000D01*
X71492000Y-59182000D02*
X77518000Y-53156000D01*
X44058000Y-59210000D02*
X47945000Y-59210000D01*
X47945000Y-59210000D02*
X50152000Y-59210000D01*
D45*
X50152000Y-59210000D02*
X50180000Y-59182000D01*
D41*
X108041000Y-64423000D02*
X104477000Y-64423000D01*
X104477000Y-64423000D02*
X104465000Y-64435000D01*
X89692000Y-65674000D02*
X90729000Y-66711000D01*
X90729000Y-66711000D02*
X91567000Y-66711000D01*
X111089000Y-64364000D02*
X108100000Y-64364000D01*
X108100000Y-64364000D02*
X108041000Y-64423000D01*
X88468000Y-67330000D02*
X88468000Y-65578000D01*
X106549000Y-61723000D02*
X108041000Y-61723000D01*
X105644000Y-60818000D02*
X106549000Y-61723000D01*
X88468000Y-65578000D02*
X88473000Y-65573000D01*
X108041000Y-61723000D02*
X108041000Y-59120000D01*
X108041000Y-59120000D02*
X108032000Y-59111000D01*
X91567000Y-67361000D02*
X88499000Y-67361000D01*
X88499000Y-67361000D02*
X88468000Y-67330000D01*
X92283000Y-72725000D02*
X88109000Y-72725000D01*
X88109000Y-72725000D02*
X84323000Y-68939000D01*
X92497000Y-68941000D02*
X92497000Y-72511000D01*
X92497000Y-72511000D02*
X92283000Y-72725000D01*
X94447000Y-68941000D02*
X94447000Y-72389000D01*
X94447000Y-72389000D02*
X94783000Y-72725000D01*
X111028000Y-66747000D02*
X105292000Y-66747000D01*
X105292000Y-66747000D02*
X105288000Y-66751000D01*
X111012000Y-66731000D02*
X111028000Y-66747000D01*
X110998000Y-66777000D02*
X111028000Y-66747000D01*
X95377000Y-66711000D02*
X96886000Y-66711000D01*
X101025000Y-66751000D02*
X102788000Y-66751000D01*
X100995000Y-66721000D02*
X101025000Y-66751000D01*
X96886000Y-66711000D02*
X96896000Y-66721000D01*
X102787000Y-63195000D02*
X102787000Y-66750000D01*
X102787000Y-66750000D02*
X102788000Y-66751000D01*
X91567000Y-68011000D02*
X89977000Y-68011000D01*
X75907000Y-68020000D02*
X73436000Y-68020000D01*
X75916000Y-68011000D02*
X75907000Y-68020000D01*
X89977000Y-68011000D02*
X89957000Y-68031000D01*
X44058000Y-56670000D02*
X49992000Y-56670000D01*
X49992000Y-56670000D02*
X50160000Y-56502000D01*
X50094000Y-48621000D02*
X50094000Y-56436000D01*
X50094000Y-56436000D02*
X50160000Y-56502000D01*
X91460000Y-35020000D02*
X91460000Y-39731000D01*
X91460000Y-39731000D02*
X91454000Y-39737000D01*
X91436000Y-35043000D02*
X91417000Y-35024000D01*
X91454000Y-39737000D02*
X91454000Y-44106000D01*
X84282000Y-47080000D02*
X82598000Y-45396000D01*
X88480000Y-47080000D02*
X84282000Y-47080000D01*
X91454000Y-44106000D02*
X88480000Y-47080000D01*
X91436000Y-39719000D02*
X91454000Y-39737000D01*
D46*
G36*
X79182355Y-32957000D02*
X79223091Y-33173492D01*
X79351037Y-33372326D01*
X79546261Y-33505717D01*
X79778000Y-33552645D01*
X79800800Y-33552645D01*
X79800800Y-35725355D01*
X79762000Y-35725355D01*
X79545508Y-35766091D01*
X79346674Y-35894037D01*
X79213283Y-36089261D01*
X79180571Y-36250800D01*
X79055645Y-36250800D01*
X79055645Y-36212000D01*
X79014909Y-35995508D01*
X78886963Y-35796674D01*
X78691739Y-35663283D01*
X78460000Y-35616355D01*
X77160000Y-35616355D01*
X76943508Y-35657091D01*
X76744674Y-35785037D01*
X76611283Y-35980261D01*
X76564355Y-36212000D01*
X76564355Y-36222800D01*
X70562645Y-36222800D01*
X70562645Y-36184000D01*
X70521909Y-35967508D01*
X70393963Y-35768674D01*
X70198739Y-35635283D01*
X69967000Y-35588355D01*
X68667000Y-35588355D01*
X68450508Y-35629091D01*
X68251674Y-35757037D01*
X68118283Y-35952261D01*
X68071355Y-36184000D01*
X68071355Y-37684000D01*
X68112091Y-37900492D01*
X68240037Y-38099326D01*
X68435261Y-38232717D01*
X68667000Y-38279645D01*
X69967000Y-38279645D01*
X70183492Y-38238909D01*
X70382326Y-38110963D01*
X70515717Y-37915739D01*
X70562645Y-37684000D01*
X70562645Y-37645200D01*
X71491263Y-37645200D01*
X71455299Y-37826000D01*
X71456300Y-37831032D01*
X71456300Y-38483286D01*
X71355674Y-38548037D01*
X71222283Y-38743261D01*
X71175355Y-38975000D01*
X71175355Y-39465275D01*
X70562645Y-40077985D01*
X70562645Y-38884000D01*
X70521909Y-38667508D01*
X70393963Y-38468674D01*
X70198739Y-38335283D01*
X69967000Y-38288355D01*
X68667000Y-38288355D01*
X68450508Y-38329091D01*
X68251674Y-38457037D01*
X68118283Y-38652261D01*
X68071355Y-38884000D01*
X68071355Y-39374275D01*
X65879087Y-41566543D01*
X63506070Y-41566543D01*
X63734654Y-41224444D01*
X63815700Y-40817000D01*
X63734654Y-40409557D01*
X63503856Y-40064144D01*
X63158443Y-39833346D01*
X62751000Y-39752300D01*
X62343556Y-39833346D01*
X61998143Y-40064144D01*
X60300936Y-41761350D01*
X60126143Y-41878143D01*
X60126141Y-41878146D01*
X56379143Y-45625143D01*
X56148345Y-45970557D01*
X56120285Y-46111623D01*
X55993108Y-46238578D01*
X55909305Y-46440396D01*
X55880807Y-46483047D01*
X55870887Y-46532917D01*
X55788034Y-46732449D01*
X55787844Y-46950404D01*
X55784145Y-46969000D01*
X55787812Y-46987434D01*
X55787568Y-47267205D01*
X55991779Y-47761433D01*
X56067300Y-47837086D01*
X56067300Y-50173829D01*
X55941283Y-50358261D01*
X55894355Y-50590000D01*
X55894355Y-52090000D01*
X55935091Y-52306492D01*
X56063037Y-52505326D01*
X56258261Y-52638717D01*
X56490000Y-52685645D01*
X57790000Y-52685645D01*
X58006492Y-52644909D01*
X58205326Y-52516963D01*
X58338717Y-52321739D01*
X58385645Y-52090000D01*
X58385645Y-50590000D01*
X58344909Y-50373508D01*
X58216963Y-50174674D01*
X58196700Y-50160829D01*
X58196700Y-47837485D01*
X58270892Y-47763422D01*
X58402070Y-47447513D01*
X58531779Y-47761433D01*
X58909578Y-48139892D01*
X59403449Y-48344966D01*
X59938205Y-48345432D01*
X60432433Y-48141221D01*
X60810892Y-47763422D01*
X61015966Y-47269551D01*
X61016432Y-46734795D01*
X60812221Y-46240567D01*
X60434422Y-45862108D01*
X59940551Y-45657034D01*
X59405795Y-45656568D01*
X59326298Y-45689415D01*
X60879000Y-44136714D01*
X61253355Y-44511069D01*
X61253355Y-45591000D01*
X61294091Y-45807492D01*
X61422037Y-46006326D01*
X61617261Y-46139717D01*
X61849000Y-46186645D01*
X63149000Y-46186645D01*
X63365492Y-46145909D01*
X63564326Y-46017963D01*
X63697717Y-45822739D01*
X63744645Y-45591000D01*
X63744645Y-44091000D01*
X63703909Y-43874508D01*
X63588693Y-43695457D01*
X64207087Y-43695457D01*
X65556355Y-45044725D01*
X65556355Y-45535000D01*
X65597091Y-45751492D01*
X65725037Y-45950326D01*
X65920261Y-46083717D01*
X66152000Y-46130645D01*
X67452000Y-46130645D01*
X67668492Y-46089909D01*
X67867326Y-45961963D01*
X68000717Y-45766739D01*
X68023088Y-45656264D01*
X68583572Y-45656264D01*
X68783226Y-46139462D01*
X69152593Y-46509475D01*
X69635443Y-46709972D01*
X70158264Y-46710428D01*
X70641462Y-46510774D01*
X71011475Y-46141407D01*
X71168138Y-45764121D01*
X71323226Y-46139462D01*
X71692593Y-46509475D01*
X72175443Y-46709972D01*
X72698264Y-46710428D01*
X73181462Y-46510774D01*
X73551475Y-46141407D01*
X73708138Y-45764121D01*
X73863226Y-46139462D01*
X74232593Y-46509475D01*
X74715443Y-46709972D01*
X75238264Y-46710428D01*
X75721462Y-46510774D01*
X76091475Y-46141407D01*
X76291972Y-45658557D01*
X76292428Y-45135736D01*
X76092774Y-44652538D01*
X75723407Y-44282525D01*
X75240557Y-44082028D01*
X74717736Y-44081572D01*
X74234538Y-44281226D01*
X73864525Y-44650593D01*
X73707862Y-45027879D01*
X73552774Y-44652538D01*
X73183407Y-44282525D01*
X72700557Y-44082028D01*
X72177736Y-44081572D01*
X71694538Y-44281226D01*
X71324525Y-44650593D01*
X71167862Y-45027879D01*
X71012774Y-44652538D01*
X70643407Y-44282525D01*
X70160557Y-44082028D01*
X69637736Y-44081572D01*
X69154538Y-44281226D01*
X68784525Y-44650593D01*
X68584028Y-45133443D01*
X68583572Y-45656264D01*
X68023088Y-45656264D01*
X68047645Y-45535000D01*
X68047645Y-44035000D01*
X68006909Y-43818508D01*
X67927728Y-43695457D01*
X85798778Y-43695457D01*
X85800000Y-43695700D01*
X88195328Y-43695700D01*
X88431451Y-43932236D01*
X89013501Y-44173924D01*
X89643734Y-44174474D01*
X90226205Y-43933802D01*
X90672236Y-43488549D01*
X90742800Y-43318612D01*
X90742800Y-43811412D01*
X88185412Y-46368800D01*
X86023684Y-46368800D01*
X86251475Y-46141407D01*
X86451972Y-45658557D01*
X86452428Y-45135736D01*
X86252774Y-44652538D01*
X85883407Y-44282525D01*
X85400557Y-44082028D01*
X84877736Y-44081572D01*
X84394538Y-44281226D01*
X84024525Y-44650593D01*
X83867862Y-45027879D01*
X83712774Y-44652538D01*
X83343407Y-44282525D01*
X82860557Y-44082028D01*
X82337736Y-44081572D01*
X81854538Y-44281226D01*
X81484525Y-44650593D01*
X81327862Y-45027879D01*
X81172774Y-44652538D01*
X80803407Y-44282525D01*
X80320557Y-44082028D01*
X79797736Y-44081572D01*
X79314538Y-44281226D01*
X78944525Y-44650593D01*
X78744028Y-45133443D01*
X78743572Y-45656264D01*
X78943226Y-46139462D01*
X79312593Y-46509475D01*
X79795443Y-46709972D01*
X80318264Y-46710428D01*
X80801462Y-46510774D01*
X81171475Y-46141407D01*
X81328138Y-45764121D01*
X81483226Y-46139462D01*
X81852593Y-46509475D01*
X82335443Y-46709972D01*
X82858264Y-46710428D01*
X82892495Y-46696284D01*
X83779106Y-47582895D01*
X84009836Y-47737063D01*
X84282000Y-47791200D01*
X88480000Y-47791200D01*
X88752165Y-47737063D01*
X88982894Y-47582894D01*
X91956894Y-44608894D01*
X92111063Y-44378165D01*
X92130345Y-44281226D01*
X92165200Y-44106000D01*
X92165200Y-40982645D01*
X92204000Y-40982645D01*
X92420492Y-40941909D01*
X92619326Y-40813963D01*
X92752717Y-40618739D01*
X92799645Y-40387000D01*
X92799645Y-39087000D01*
X92758909Y-38870508D01*
X92630963Y-38671674D01*
X92435739Y-38538283D01*
X92204000Y-38491355D01*
X92171200Y-38491355D01*
X92171200Y-36354129D01*
X92326492Y-36324909D01*
X92525326Y-36196963D01*
X92658717Y-36001739D01*
X92705645Y-35770000D01*
X92705645Y-34270000D01*
X92664909Y-34053508D01*
X92536963Y-33854674D01*
X92341739Y-33721283D01*
X92110000Y-33674355D01*
X90810000Y-33674355D01*
X90593508Y-33715091D01*
X90394674Y-33843037D01*
X90261283Y-34038261D01*
X90214355Y-34270000D01*
X90214355Y-35770000D01*
X90255091Y-35986492D01*
X90383037Y-36185326D01*
X90578261Y-36318717D01*
X90748800Y-36353252D01*
X90748800Y-38491355D01*
X90704000Y-38491355D01*
X90487508Y-38532091D01*
X90288674Y-38660037D01*
X90155283Y-38855261D01*
X90108355Y-39087000D01*
X90108355Y-40387000D01*
X90149091Y-40603492D01*
X90277037Y-40802326D01*
X90472261Y-40935717D01*
X90704000Y-40982645D01*
X90742800Y-40982645D01*
X90742800Y-41860783D01*
X90673802Y-41693795D01*
X90228549Y-41247764D01*
X89646499Y-41006076D01*
X89016266Y-41005526D01*
X88972944Y-41023426D01*
X89013725Y-40982645D01*
X89504000Y-40982645D01*
X89720492Y-40941909D01*
X89919326Y-40813963D01*
X90052717Y-40618739D01*
X90099645Y-40387000D01*
X90099645Y-39087000D01*
X90058909Y-38870508D01*
X89930963Y-38671674D01*
X89735739Y-38538283D01*
X89504000Y-38491355D01*
X88004000Y-38491355D01*
X87787508Y-38532091D01*
X87588674Y-38660037D01*
X87455283Y-38855261D01*
X87408355Y-39087000D01*
X87408355Y-39577275D01*
X86930645Y-40054985D01*
X86930645Y-38702000D01*
X86889909Y-38485508D01*
X86761963Y-38286674D01*
X86637449Y-38201597D01*
X86750326Y-38128963D01*
X86883717Y-37933739D01*
X86930645Y-37702000D01*
X86930645Y-36202000D01*
X86889909Y-35985508D01*
X86761963Y-35786674D01*
X86566739Y-35653283D01*
X86335000Y-35606355D01*
X85085000Y-35606355D01*
X84868508Y-35647091D01*
X84669674Y-35775037D01*
X84536283Y-35970261D01*
X84510967Y-36095274D01*
X84388963Y-35905674D01*
X84193739Y-35772283D01*
X83962000Y-35725355D01*
X82462000Y-35725355D01*
X82245508Y-35766091D01*
X82046674Y-35894037D01*
X81913283Y-36089261D01*
X81866355Y-36321000D01*
X81866355Y-37621000D01*
X81907091Y-37837492D01*
X82035037Y-38036326D01*
X82230261Y-38169717D01*
X82462000Y-38216645D01*
X82500800Y-38216645D01*
X82500800Y-39124412D01*
X81999388Y-39625824D01*
X81766187Y-39625621D01*
X81385938Y-39782737D01*
X81094759Y-40073408D01*
X80936980Y-40453382D01*
X80936621Y-40864813D01*
X81093737Y-41245062D01*
X81384408Y-41536241D01*
X81457383Y-41566543D01*
X74804409Y-41566543D01*
X74879032Y-41386832D01*
X74879165Y-41234623D01*
X75243143Y-40870645D01*
X75971000Y-40870645D01*
X76187492Y-40829909D01*
X76386326Y-40701963D01*
X76519717Y-40506739D01*
X76546759Y-40373200D01*
X76564355Y-40373200D01*
X76564355Y-40412000D01*
X76605091Y-40628492D01*
X76733037Y-40827326D01*
X76928261Y-40960717D01*
X77160000Y-41007645D01*
X78460000Y-41007645D01*
X78676492Y-40966909D01*
X78875326Y-40838963D01*
X79008717Y-40643739D01*
X79055645Y-40412000D01*
X79055645Y-38912000D01*
X79014909Y-38695508D01*
X78886963Y-38496674D01*
X78691739Y-38363283D01*
X78460000Y-38316355D01*
X77160000Y-38316355D01*
X76943508Y-38357091D01*
X76744674Y-38485037D01*
X76611283Y-38680261D01*
X76564355Y-38912000D01*
X76564355Y-38950800D01*
X76562091Y-38950800D01*
X76525909Y-38758508D01*
X76397963Y-38559674D01*
X76202739Y-38426283D01*
X75971000Y-38379355D01*
X74471000Y-38379355D01*
X74254508Y-38420091D01*
X74055674Y-38548037D01*
X73922283Y-38743261D01*
X73875355Y-38975000D01*
X73875355Y-40226857D01*
X73873448Y-40228764D01*
X73866645Y-40228758D01*
X73866645Y-38975000D01*
X73825909Y-38758508D01*
X73697963Y-38559674D01*
X73585700Y-38482968D01*
X73585700Y-37827000D01*
X73556898Y-37682200D01*
X73549538Y-37645200D01*
X76564355Y-37645200D01*
X76564355Y-37712000D01*
X76605091Y-37928492D01*
X76733037Y-38127326D01*
X76928261Y-38260717D01*
X77160000Y-38307645D01*
X78460000Y-38307645D01*
X78676492Y-38266909D01*
X78875326Y-38138963D01*
X79008717Y-37943739D01*
X79055645Y-37712000D01*
X79055645Y-37673200D01*
X79176177Y-37673200D01*
X79207091Y-37837492D01*
X79335037Y-38036326D01*
X79530261Y-38169717D01*
X79762000Y-38216645D01*
X81262000Y-38216645D01*
X81478492Y-38175909D01*
X81677326Y-38047963D01*
X81810717Y-37852739D01*
X81857645Y-37621000D01*
X81857645Y-36321000D01*
X81816909Y-36104508D01*
X81688963Y-35905674D01*
X81493739Y-35772283D01*
X81262000Y-35725355D01*
X81223200Y-35725355D01*
X81223200Y-33552645D01*
X81278000Y-33552645D01*
X81494492Y-33511909D01*
X81693326Y-33383963D01*
X81778403Y-33259449D01*
X81851037Y-33372326D01*
X82046261Y-33505717D01*
X82278000Y-33552645D01*
X82436071Y-33552645D01*
X82525106Y-33685894D01*
X83313824Y-34474612D01*
X83313621Y-34707813D01*
X83470737Y-35088062D01*
X83761408Y-35379241D01*
X84141382Y-35537020D01*
X84552813Y-35537379D01*
X84933062Y-35380263D01*
X85224241Y-35089592D01*
X85382020Y-34709618D01*
X85382379Y-34298187D01*
X85225263Y-33917938D01*
X84934592Y-33626759D01*
X84554618Y-33468980D01*
X84319563Y-33468775D01*
X84210141Y-33359353D01*
X84326717Y-33188739D01*
X84356189Y-33043200D01*
X90214355Y-33043200D01*
X90214355Y-33070000D01*
X90255091Y-33286492D01*
X90383037Y-33485326D01*
X90578261Y-33618717D01*
X90810000Y-33665645D01*
X92110000Y-33665645D01*
X92326492Y-33624909D01*
X92525326Y-33496963D01*
X92658717Y-33301739D01*
X92705645Y-33070000D01*
X92705645Y-33031200D01*
X92920177Y-33031200D01*
X92951091Y-33195492D01*
X93079037Y-33394326D01*
X93274261Y-33527717D01*
X93506000Y-33574645D01*
X95006000Y-33574645D01*
X95222492Y-33533909D01*
X95421326Y-33405963D01*
X95554717Y-33210739D01*
X95601645Y-32979000D01*
X95601645Y-31711200D01*
X95610355Y-31711200D01*
X95610355Y-32979000D01*
X95651091Y-33195492D01*
X95779037Y-33394326D01*
X95974261Y-33527717D01*
X96206000Y-33574645D01*
X96244800Y-33574645D01*
X96244800Y-34791241D01*
X96111795Y-34846198D01*
X95665764Y-35291451D01*
X95424076Y-35873501D01*
X95423526Y-36503734D01*
X95664198Y-37086205D01*
X96109451Y-37532236D01*
X96691501Y-37773924D01*
X97321734Y-37774474D01*
X97904205Y-37533802D01*
X98350236Y-37088549D01*
X98591924Y-36506499D01*
X98592474Y-35876266D01*
X98351802Y-35293795D01*
X97906549Y-34847764D01*
X97667200Y-34748378D01*
X97667200Y-33574645D01*
X97706000Y-33574645D01*
X97922492Y-33533909D01*
X98121326Y-33405963D01*
X98254717Y-33210739D01*
X98301645Y-32979000D01*
X98301645Y-31711200D01*
X120288800Y-31711200D01*
X120288800Y-35910355D01*
X116297000Y-35910355D01*
X116080508Y-35951091D01*
X115881674Y-36079037D01*
X115748283Y-36274261D01*
X115701355Y-36506000D01*
X115701355Y-36532800D01*
X112320645Y-36532800D01*
X112320645Y-36502000D01*
X112279909Y-36285508D01*
X112151963Y-36086674D01*
X111956739Y-35953283D01*
X111725000Y-35906355D01*
X110475000Y-35906355D01*
X110258508Y-35947091D01*
X110059674Y-36075037D01*
X109926283Y-36270261D01*
X109879355Y-36502000D01*
X109879355Y-38002000D01*
X109920091Y-38218492D01*
X110048037Y-38417326D01*
X110172551Y-38502403D01*
X110059674Y-38575037D01*
X109926283Y-38770261D01*
X109879355Y-39002000D01*
X109879355Y-39064800D01*
X109403645Y-39064800D01*
X109403645Y-39026000D01*
X109362909Y-38809508D01*
X109234963Y-38610674D01*
X109039739Y-38477283D01*
X108808000Y-38430355D01*
X107779433Y-38430355D01*
X107788143Y-38421645D01*
X108808000Y-38421645D01*
X109024492Y-38380909D01*
X109223326Y-38252963D01*
X109356717Y-38057739D01*
X109403645Y-37826000D01*
X109403645Y-36326000D01*
X109362909Y-36109508D01*
X109234963Y-35910674D01*
X109039739Y-35777283D01*
X108869200Y-35742748D01*
X108869200Y-35623645D01*
X108909000Y-35623645D01*
X109125492Y-35582909D01*
X109324326Y-35454963D01*
X109457717Y-35259739D01*
X109504645Y-35028000D01*
X109504645Y-33778000D01*
X109463909Y-33561508D01*
X109335963Y-33362674D01*
X109140739Y-33229283D01*
X108909000Y-33182355D01*
X107409000Y-33182355D01*
X107192508Y-33223091D01*
X106993674Y-33351037D01*
X106860283Y-33546261D01*
X106813355Y-33778000D01*
X106813355Y-35028000D01*
X106854091Y-35244492D01*
X106982037Y-35443326D01*
X107177261Y-35576717D01*
X107409000Y-35623645D01*
X107446800Y-35623645D01*
X107446800Y-35741871D01*
X107291508Y-35771091D01*
X107092674Y-35899037D01*
X106959283Y-36094261D01*
X106912355Y-36326000D01*
X106912355Y-37285857D01*
X105976106Y-38222106D01*
X105821937Y-38452835D01*
X105792856Y-38599037D01*
X105767800Y-38725000D01*
X105767800Y-41415000D01*
X105821937Y-41687165D01*
X105976106Y-41917894D01*
X107249355Y-43191143D01*
X107249355Y-44156000D01*
X107290091Y-44372492D01*
X107418037Y-44571326D01*
X107613261Y-44704717D01*
X107845000Y-44751645D01*
X108809857Y-44751645D01*
X109755800Y-45697588D01*
X109755800Y-46368011D01*
X108482894Y-45095106D01*
X108252165Y-44940937D01*
X107980000Y-44886800D01*
X100195129Y-44886800D01*
X100165909Y-44731508D01*
X100037963Y-44532674D01*
X99842739Y-44399283D01*
X99611000Y-44352355D01*
X98111000Y-44352355D01*
X97894508Y-44393091D01*
X97695674Y-44521037D01*
X97562283Y-44716261D01*
X97515355Y-44948000D01*
X97515355Y-46248000D01*
X97556091Y-46464492D01*
X97684037Y-46663326D01*
X97879261Y-46796717D01*
X98111000Y-46843645D01*
X99611000Y-46843645D01*
X99827492Y-46802909D01*
X100026326Y-46674963D01*
X100159717Y-46479739D01*
X100194252Y-46309200D01*
X107685412Y-46309200D01*
X108965566Y-47589355D01*
X108442000Y-47589355D01*
X108253627Y-47624800D01*
X106863645Y-47624800D01*
X106863645Y-47586000D01*
X106822909Y-47369508D01*
X106694963Y-47170674D01*
X106499739Y-47037283D01*
X106268000Y-46990355D01*
X105018000Y-46990355D01*
X104801508Y-47031091D01*
X104602674Y-47159037D01*
X104469283Y-47354261D01*
X104422355Y-47586000D01*
X104422355Y-47624800D01*
X103771129Y-47624800D01*
X103741909Y-47469508D01*
X103613963Y-47270674D01*
X103418739Y-47137283D01*
X103187000Y-47090355D01*
X101687000Y-47090355D01*
X101470508Y-47131091D01*
X101271674Y-47259037D01*
X101138283Y-47454261D01*
X101091355Y-47686000D01*
X101091355Y-48986000D01*
X101132091Y-49202492D01*
X101260037Y-49401326D01*
X101455261Y-49534717D01*
X101687000Y-49581645D01*
X103187000Y-49581645D01*
X103403492Y-49540909D01*
X103602326Y-49412963D01*
X103735717Y-49217739D01*
X103770252Y-49047200D01*
X104422355Y-49047200D01*
X104422355Y-49086000D01*
X104463091Y-49302492D01*
X104591037Y-49501326D01*
X104715551Y-49586403D01*
X104602674Y-49659037D01*
X104469283Y-49854261D01*
X104422355Y-50086000D01*
X104422355Y-51586000D01*
X104463091Y-51802492D01*
X104591037Y-52001326D01*
X104786261Y-52134717D01*
X105018000Y-52181645D01*
X106268000Y-52181645D01*
X106484492Y-52140909D01*
X106683326Y-52012963D01*
X106816717Y-51817739D01*
X106863645Y-51586000D01*
X106863645Y-51547200D01*
X108366000Y-51547200D01*
X108638165Y-51493063D01*
X108868894Y-51338894D01*
X109117143Y-51090645D01*
X109332000Y-51090645D01*
X109548492Y-51049909D01*
X109747326Y-50921963D01*
X109880717Y-50726739D01*
X109927645Y-50495000D01*
X109927645Y-50135000D01*
X109886909Y-49918508D01*
X109758963Y-49719674D01*
X109563739Y-49586283D01*
X109332000Y-49539355D01*
X108442000Y-49539355D01*
X108225508Y-49580091D01*
X108026674Y-49708037D01*
X107893283Y-49903261D01*
X107848421Y-50124800D01*
X106863645Y-50124800D01*
X106863645Y-50086000D01*
X106822909Y-49869508D01*
X106694963Y-49670674D01*
X106570449Y-49585597D01*
X106683326Y-49512963D01*
X106816717Y-49317739D01*
X106863645Y-49086000D01*
X106863645Y-49047200D01*
X108142181Y-49047200D01*
X108210261Y-49093717D01*
X108442000Y-49140645D01*
X109332000Y-49140645D01*
X109548492Y-49099909D01*
X109747326Y-48971963D01*
X109880717Y-48776739D01*
X109927645Y-48545000D01*
X109927645Y-48475645D01*
X109997000Y-48475645D01*
X110147322Y-48447360D01*
X110287000Y-48475645D01*
X110647000Y-48475645D01*
X110797322Y-48447360D01*
X110937000Y-48475645D01*
X111297000Y-48475645D01*
X111513492Y-48434909D01*
X111712326Y-48306963D01*
X111845717Y-48111739D01*
X111892645Y-47880000D01*
X111892645Y-46990000D01*
X111851909Y-46773508D01*
X111828200Y-46736663D01*
X111828200Y-41078226D01*
X111941492Y-41056909D01*
X112140326Y-40928963D01*
X112273717Y-40733739D01*
X112320645Y-40502000D01*
X112320645Y-39002000D01*
X112279909Y-38785508D01*
X112151963Y-38586674D01*
X112027449Y-38501597D01*
X112140326Y-38428963D01*
X112273717Y-38233739D01*
X112320645Y-38002000D01*
X112320645Y-37955200D01*
X115710613Y-37955200D01*
X115742091Y-38122492D01*
X115870037Y-38321326D01*
X116065261Y-38454717D01*
X116297000Y-38501645D01*
X120288800Y-38501645D01*
X120288800Y-78358355D01*
X116296000Y-78358355D01*
X116079508Y-78399091D01*
X115880674Y-78527037D01*
X115747283Y-78722261D01*
X115700355Y-78954000D01*
X115700355Y-78973800D01*
X112886512Y-78973800D01*
X112920717Y-78923739D01*
X112967645Y-78692000D01*
X112967645Y-77142000D01*
X112926909Y-76925508D01*
X112798963Y-76726674D01*
X112603739Y-76593283D01*
X112372000Y-76546355D01*
X111762000Y-76546355D01*
X111545508Y-76587091D01*
X111346674Y-76715037D01*
X111213283Y-76910261D01*
X111166355Y-77142000D01*
X111166355Y-77205800D01*
X108811359Y-77205800D01*
X108795963Y-77181874D01*
X108600739Y-77048483D01*
X108369000Y-77001555D01*
X107099000Y-77001555D01*
X106882508Y-77042291D01*
X106683674Y-77170237D01*
X106550283Y-77365461D01*
X106503355Y-77597200D01*
X106503355Y-78105200D01*
X106505937Y-78118923D01*
X106314739Y-77988283D01*
X106083000Y-77941355D01*
X104813000Y-77941355D01*
X104596508Y-77982091D01*
X104444664Y-78079800D01*
X103459645Y-78079800D01*
X103459645Y-77940000D01*
X103421606Y-77737842D01*
X103459645Y-77550000D01*
X103459645Y-76790000D01*
X103421606Y-76587842D01*
X103459645Y-76400000D01*
X103459645Y-74720000D01*
X103418909Y-74503508D01*
X103290963Y-74304674D01*
X103095739Y-74171283D01*
X102864000Y-74124355D01*
X102608200Y-74124355D01*
X102608200Y-73972000D01*
X111166355Y-73972000D01*
X111166355Y-75522000D01*
X111207091Y-75738492D01*
X111335037Y-75937326D01*
X111530261Y-76070717D01*
X111762000Y-76117645D01*
X112372000Y-76117645D01*
X112588492Y-76076909D01*
X112787326Y-75948963D01*
X112920717Y-75753739D01*
X112967645Y-75522000D01*
X112967645Y-75446336D01*
X113180165Y-75404063D01*
X113410894Y-75249894D01*
X115340894Y-73319894D01*
X115495063Y-73089165D01*
X115513363Y-72997164D01*
X115549200Y-72817000D01*
X115549200Y-72518097D01*
X115633326Y-72463963D01*
X115766717Y-72268739D01*
X115813645Y-72037000D01*
X115813645Y-70517000D01*
X115772909Y-70300508D01*
X115644963Y-70101674D01*
X115449739Y-69968283D01*
X115218000Y-69921355D01*
X114458000Y-69921355D01*
X114241508Y-69962091D01*
X114042674Y-70090037D01*
X113909283Y-70285261D01*
X113862355Y-70517000D01*
X113862355Y-72037000D01*
X113903091Y-72253492D01*
X114031037Y-72452326D01*
X114126800Y-72517758D01*
X114126800Y-72522412D01*
X112913908Y-73735304D01*
X112798963Y-73556674D01*
X112603739Y-73423283D01*
X112372000Y-73376355D01*
X111762000Y-73376355D01*
X111545508Y-73417091D01*
X111346674Y-73545037D01*
X111213283Y-73740261D01*
X111166355Y-73972000D01*
X102608200Y-73972000D01*
X102608200Y-73714425D01*
X102738492Y-73689909D01*
X102937326Y-73561963D01*
X103070717Y-73366739D01*
X103117645Y-73135000D01*
X103117645Y-71635000D01*
X103076909Y-71418508D01*
X102948963Y-71219674D01*
X102824449Y-71134597D01*
X102937326Y-71061963D01*
X103070717Y-70866739D01*
X103117645Y-70635000D01*
X103117645Y-69135000D01*
X103076909Y-68918508D01*
X102948963Y-68719674D01*
X102753739Y-68586283D01*
X102522000Y-68539355D01*
X102057068Y-68539355D01*
X101198837Y-67681124D01*
X101478059Y-67565752D01*
X101483091Y-67592492D01*
X101611037Y-67791326D01*
X101806261Y-67924717D01*
X102038000Y-67971645D01*
X103538000Y-67971645D01*
X103754492Y-67930909D01*
X103953326Y-67802963D01*
X104038403Y-67678449D01*
X104111037Y-67791326D01*
X104306261Y-67924717D01*
X104538000Y-67971645D01*
X106038000Y-67971645D01*
X106254492Y-67930909D01*
X106453326Y-67802963D01*
X106586717Y-67607739D01*
X106616999Y-67458200D01*
X110052355Y-67458200D01*
X110052355Y-67507000D01*
X110093091Y-67723492D01*
X110221037Y-67922326D01*
X110416261Y-68055717D01*
X110648000Y-68102645D01*
X111408000Y-68102645D01*
X111624492Y-68061909D01*
X111823326Y-67933963D01*
X111956717Y-67738739D01*
X112003645Y-67507000D01*
X112003645Y-65987000D01*
X112592355Y-65987000D01*
X112592355Y-67507000D01*
X112633091Y-67723492D01*
X112761037Y-67922326D01*
X112956261Y-68055717D01*
X113188000Y-68102645D01*
X113948000Y-68102645D01*
X114164492Y-68061909D01*
X114363326Y-67933963D01*
X114496717Y-67738739D01*
X114543645Y-67507000D01*
X114543645Y-65987000D01*
X114502909Y-65770508D01*
X114374963Y-65571674D01*
X114279200Y-65506242D01*
X114279200Y-58728812D01*
X114406779Y-58601456D01*
X114554032Y-58246832D01*
X114554367Y-57862852D01*
X114407734Y-57507973D01*
X114136456Y-57236221D01*
X113781832Y-57088968D01*
X113397852Y-57088633D01*
X113042973Y-57235266D01*
X112771221Y-57506544D01*
X112623968Y-57861168D01*
X112623633Y-58245148D01*
X112770266Y-58600027D01*
X112856800Y-58686712D01*
X112856800Y-65505903D01*
X112772674Y-65560037D01*
X112639283Y-65755261D01*
X112592355Y-65987000D01*
X112003645Y-65987000D01*
X111962909Y-65770508D01*
X111901092Y-65674441D01*
X111930492Y-65668909D01*
X112129326Y-65540963D01*
X112262717Y-65345739D01*
X112309645Y-65114000D01*
X112309645Y-63614000D01*
X112268909Y-63397508D01*
X112140963Y-63198674D01*
X112016449Y-63113597D01*
X112129326Y-63040963D01*
X112262717Y-62845739D01*
X112309645Y-62614000D01*
X112309645Y-61114000D01*
X112268909Y-60897508D01*
X112140963Y-60698674D01*
X111945739Y-60565283D01*
X111800200Y-60535811D01*
X111800200Y-59292425D01*
X111930492Y-59267909D01*
X112129326Y-59139963D01*
X112262717Y-58944739D01*
X112309645Y-58713000D01*
X112309645Y-57213000D01*
X112268909Y-56996508D01*
X112140963Y-56797674D01*
X112016449Y-56712597D01*
X112129326Y-56639963D01*
X112262717Y-56444739D01*
X112309645Y-56213000D01*
X112309645Y-54713000D01*
X112268909Y-54496508D01*
X112140963Y-54297674D01*
X111945739Y-54164283D01*
X111800200Y-54134811D01*
X111800200Y-51988355D01*
X111845717Y-51921739D01*
X111892645Y-51690000D01*
X111892645Y-50800000D01*
X111851909Y-50583508D01*
X111723963Y-50384674D01*
X111528739Y-50251283D01*
X111297000Y-50204355D01*
X110937000Y-50204355D01*
X110720508Y-50245091D01*
X110521674Y-50373037D01*
X110388283Y-50568261D01*
X110341355Y-50800000D01*
X110341355Y-51690000D01*
X110377800Y-51883687D01*
X110377800Y-54133575D01*
X110247508Y-54158091D01*
X110048674Y-54286037D01*
X109915283Y-54481261D01*
X109868355Y-54713000D01*
X109868355Y-54762800D01*
X106052129Y-54762800D01*
X106022909Y-54607508D01*
X105894963Y-54408674D01*
X105699739Y-54275283D01*
X105468000Y-54228355D01*
X103968000Y-54228355D01*
X103751508Y-54269091D01*
X103552674Y-54397037D01*
X103419283Y-54592261D01*
X103372355Y-54824000D01*
X103372355Y-56124000D01*
X103413091Y-56340492D01*
X103541037Y-56539326D01*
X103736261Y-56672717D01*
X103968000Y-56719645D01*
X105468000Y-56719645D01*
X105684492Y-56678909D01*
X105883326Y-56550963D01*
X106016717Y-56355739D01*
X106051252Y-56185200D01*
X109868355Y-56185200D01*
X109868355Y-56213000D01*
X109909091Y-56429492D01*
X110037037Y-56628326D01*
X110161551Y-56713403D01*
X110048674Y-56786037D01*
X109915283Y-56981261D01*
X109868355Y-57213000D01*
X109868355Y-58713000D01*
X109909091Y-58929492D01*
X110037037Y-59128326D01*
X110232261Y-59261717D01*
X110377800Y-59291189D01*
X110377800Y-60534575D01*
X110247508Y-60559091D01*
X110048674Y-60687037D01*
X109915283Y-60882261D01*
X109868355Y-61114000D01*
X109868355Y-62614000D01*
X109909091Y-62830492D01*
X110037037Y-63029326D01*
X110161551Y-63114403D01*
X110048674Y-63187037D01*
X109915283Y-63382261D01*
X109868355Y-63614000D01*
X109868355Y-63652800D01*
X109282844Y-63652800D01*
X109245909Y-63456508D01*
X109117963Y-63257674D01*
X108922739Y-63124283D01*
X108691000Y-63077355D01*
X107391000Y-63077355D01*
X107174508Y-63118091D01*
X106975674Y-63246037D01*
X106842283Y-63441261D01*
X106795355Y-63673000D01*
X106795355Y-63711800D01*
X105106870Y-63711800D01*
X105012456Y-63617221D01*
X104657832Y-63469968D01*
X104273852Y-63469633D01*
X104132645Y-63527979D01*
X104132645Y-62545000D01*
X104091909Y-62328508D01*
X103963963Y-62129674D01*
X103768739Y-61996283D01*
X103537000Y-61949355D01*
X102037000Y-61949355D01*
X101820508Y-61990091D01*
X101621674Y-62118037D01*
X101488283Y-62313261D01*
X101441355Y-62545000D01*
X101441355Y-63845000D01*
X101482091Y-64061492D01*
X101610037Y-64260326D01*
X101805261Y-64393717D01*
X102037000Y-64440645D01*
X102075800Y-64440645D01*
X102075800Y-65530355D01*
X102038000Y-65530355D01*
X101821508Y-65571091D01*
X101622674Y-65699037D01*
X101496266Y-65884041D01*
X101187832Y-65755968D01*
X100803852Y-65755633D01*
X100448973Y-65902266D01*
X100177221Y-66173544D01*
X100034637Y-66516924D01*
X93764414Y-60246700D01*
X95632986Y-60246700D01*
X96535355Y-61149068D01*
X96535355Y-61590000D01*
X96576091Y-61806492D01*
X96704037Y-62005326D01*
X96899261Y-62138717D01*
X97131000Y-62185645D01*
X97571931Y-62185645D01*
X98741355Y-63355068D01*
X98741355Y-63845000D01*
X98782091Y-64061492D01*
X98910037Y-64260326D01*
X99105261Y-64393717D01*
X99337000Y-64440645D01*
X100837000Y-64440645D01*
X101053492Y-64399909D01*
X101252326Y-64271963D01*
X101385717Y-64076739D01*
X101432645Y-63845000D01*
X101432645Y-62545000D01*
X101391909Y-62328508D01*
X101263963Y-62129674D01*
X101068739Y-61996283D01*
X100837000Y-61949355D01*
X100347068Y-61949355D01*
X99406862Y-61009148D01*
X104678633Y-61009148D01*
X104825266Y-61364027D01*
X105096544Y-61635779D01*
X105451168Y-61783032D01*
X105603376Y-61783165D01*
X106046105Y-62225894D01*
X106276835Y-62380063D01*
X106321990Y-62389045D01*
X106549000Y-62434200D01*
X106795355Y-62434200D01*
X106795355Y-62473000D01*
X106836091Y-62689492D01*
X106964037Y-62888326D01*
X107159261Y-63021717D01*
X107391000Y-63068645D01*
X108691000Y-63068645D01*
X108907492Y-63027909D01*
X109106326Y-62899963D01*
X109239717Y-62704739D01*
X109286645Y-62473000D01*
X109286645Y-60973000D01*
X109245909Y-60756508D01*
X109117963Y-60557674D01*
X108922739Y-60424283D01*
X108752200Y-60389748D01*
X108752200Y-60331645D01*
X108782000Y-60331645D01*
X108998492Y-60290909D01*
X109197326Y-60162963D01*
X109330717Y-59967739D01*
X109377645Y-59736000D01*
X109377645Y-58486000D01*
X109336909Y-58269508D01*
X109208963Y-58070674D01*
X109013739Y-57937283D01*
X108782000Y-57890355D01*
X107282000Y-57890355D01*
X107065508Y-57931091D01*
X106866674Y-58059037D01*
X106733283Y-58254261D01*
X106686355Y-58486000D01*
X106686355Y-59736000D01*
X106727091Y-59952492D01*
X106855037Y-60151326D01*
X107050261Y-60284717D01*
X107282000Y-60331645D01*
X107329800Y-60331645D01*
X107329800Y-60388871D01*
X107174508Y-60418091D01*
X106975674Y-60546037D01*
X106842283Y-60741261D01*
X106796944Y-60965155D01*
X106609236Y-60777447D01*
X106609367Y-60626852D01*
X106462734Y-60271973D01*
X106191456Y-60000221D01*
X105836832Y-59852968D01*
X105452852Y-59852633D01*
X105097973Y-59999266D01*
X104826221Y-60270544D01*
X104678968Y-60625168D01*
X104678633Y-61009148D01*
X99406862Y-61009148D01*
X99226645Y-60828931D01*
X99226645Y-60340000D01*
X99185909Y-60123508D01*
X99063866Y-59933848D01*
X100033069Y-58964645D01*
X100435000Y-58964645D01*
X100651492Y-58923909D01*
X100850326Y-58795963D01*
X100983717Y-58600739D01*
X101030645Y-58369000D01*
X101030645Y-57967069D01*
X102278069Y-56719645D01*
X102768000Y-56719645D01*
X102984492Y-56678909D01*
X103183326Y-56550963D01*
X103316717Y-56355739D01*
X103363645Y-56124000D01*
X103363645Y-54824000D01*
X103322909Y-54607508D01*
X103194963Y-54408674D01*
X102999739Y-54275283D01*
X102768000Y-54228355D01*
X101268000Y-54228355D01*
X101051508Y-54269091D01*
X100852674Y-54397037D01*
X100719283Y-54592261D01*
X100672355Y-54824000D01*
X100672355Y-55313931D01*
X99462931Y-56523355D01*
X98935000Y-56523355D01*
X98718508Y-56564091D01*
X98519674Y-56692037D01*
X98386283Y-56887261D01*
X98339355Y-57119000D01*
X98339355Y-57646931D01*
X97868986Y-58117300D01*
X96074005Y-58117300D01*
X96074000Y-58117299D01*
X96073995Y-58117300D01*
X92469000Y-58117300D01*
X92467778Y-58117543D01*
X91461171Y-58117543D01*
X97200068Y-52378645D01*
X97569000Y-52378645D01*
X97785492Y-52337909D01*
X97984326Y-52209963D01*
X98117717Y-52014739D01*
X98164645Y-51783000D01*
X98164645Y-51414069D01*
X99997068Y-49581645D01*
X100487000Y-49581645D01*
X100703492Y-49540909D01*
X100902326Y-49412963D01*
X101035717Y-49217739D01*
X101082645Y-48986000D01*
X101082645Y-47686000D01*
X101041909Y-47469508D01*
X100913963Y-47270674D01*
X100718739Y-47137283D01*
X100487000Y-47090355D01*
X98987000Y-47090355D01*
X98770508Y-47131091D01*
X98571674Y-47259037D01*
X98438283Y-47454261D01*
X98391355Y-47686000D01*
X98391355Y-48175932D01*
X96629931Y-49937355D01*
X96069000Y-49937355D01*
X95852508Y-49978091D01*
X95653674Y-50106037D01*
X95520283Y-50301261D01*
X95473355Y-50533000D01*
X95473355Y-51093932D01*
X88449986Y-58117300D01*
X85147414Y-58117300D01*
X93568069Y-49696645D01*
X94049000Y-49696645D01*
X94265492Y-49655909D01*
X94464326Y-49527963D01*
X94597717Y-49332739D01*
X94644645Y-49101000D01*
X94644645Y-48620069D01*
X96421069Y-46843645D01*
X96911000Y-46843645D01*
X97127492Y-46802909D01*
X97326326Y-46674963D01*
X97459717Y-46479739D01*
X97506645Y-46248000D01*
X97506645Y-44948000D01*
X97465909Y-44731508D01*
X97337963Y-44532674D01*
X97142739Y-44399283D01*
X96911000Y-44352355D01*
X95411000Y-44352355D01*
X95194508Y-44393091D01*
X94995674Y-44521037D01*
X94862283Y-44716261D01*
X94815355Y-44948000D01*
X94815355Y-45437931D01*
X92997931Y-47255355D01*
X92549000Y-47255355D01*
X92332508Y-47296091D01*
X92133674Y-47424037D01*
X92000283Y-47619261D01*
X91953355Y-47851000D01*
X91953355Y-48299931D01*
X82135986Y-58117300D01*
X80355000Y-58117300D01*
X80353778Y-58117543D01*
X77267227Y-58117543D01*
X77266000Y-58117299D01*
X77265995Y-58117300D01*
X75225000Y-58117300D01*
X75223778Y-58117543D01*
X74061827Y-58117543D01*
X77709002Y-54470368D01*
X77778264Y-54470428D01*
X78261462Y-54270774D01*
X78631475Y-53901407D01*
X78788138Y-53524121D01*
X78943226Y-53899462D01*
X79312593Y-54269475D01*
X79795443Y-54469972D01*
X80318264Y-54470428D01*
X80801462Y-54270774D01*
X81171475Y-53901407D01*
X81328138Y-53524121D01*
X81483226Y-53899462D01*
X81852593Y-54269475D01*
X82335443Y-54469972D01*
X82858264Y-54470428D01*
X83341462Y-54270774D01*
X83711475Y-53901407D01*
X83868138Y-53524121D01*
X84023226Y-53899462D01*
X84392593Y-54269475D01*
X84875443Y-54469972D01*
X85398264Y-54470428D01*
X85881462Y-54270774D01*
X86251475Y-53901407D01*
X86451972Y-53418557D01*
X86452428Y-52895736D01*
X86252774Y-52412538D01*
X85883407Y-52042525D01*
X85400557Y-51842028D01*
X84877736Y-51841572D01*
X84394538Y-52041226D01*
X84024525Y-52410593D01*
X83867862Y-52787879D01*
X83712774Y-52412538D01*
X83343407Y-52042525D01*
X82860557Y-51842028D01*
X82337736Y-51841572D01*
X81854538Y-52041226D01*
X81484525Y-52410593D01*
X81327862Y-52787879D01*
X81172774Y-52412538D01*
X80803407Y-52042525D01*
X80320557Y-51842028D01*
X79797736Y-51841572D01*
X79314538Y-52041226D01*
X78944525Y-52410593D01*
X78787862Y-52787879D01*
X78632774Y-52412538D01*
X78263407Y-52042525D01*
X77780557Y-51842028D01*
X77257736Y-51841572D01*
X76774538Y-52041226D01*
X76404525Y-52410593D01*
X76247862Y-52787879D01*
X76092774Y-52412538D01*
X75723407Y-52042525D01*
X75240557Y-51842028D01*
X74717736Y-51841572D01*
X74234538Y-52041226D01*
X74217261Y-52058473D01*
X69140894Y-46982106D01*
X68910165Y-46827937D01*
X68638000Y-46773800D01*
X68047645Y-46773800D01*
X68047645Y-46735000D01*
X68006909Y-46518508D01*
X67878963Y-46319674D01*
X67683739Y-46186283D01*
X67452000Y-46139355D01*
X66152000Y-46139355D01*
X65935508Y-46180091D01*
X65736674Y-46308037D01*
X65603283Y-46503261D01*
X65556355Y-46735000D01*
X65556355Y-48235000D01*
X65597091Y-48451492D01*
X65725037Y-48650326D01*
X65920261Y-48783717D01*
X66152000Y-48830645D01*
X67452000Y-48830645D01*
X67668492Y-48789909D01*
X67867326Y-48661963D01*
X68000717Y-48466739D01*
X68047645Y-48235000D01*
X68047645Y-48196200D01*
X68343412Y-48196200D01*
X70985254Y-50838042D01*
X70793000Y-50799800D01*
X67248588Y-50799800D01*
X63744645Y-47295857D01*
X63744645Y-46791000D01*
X63703909Y-46574508D01*
X63575963Y-46375674D01*
X63380739Y-46242283D01*
X63149000Y-46195355D01*
X61849000Y-46195355D01*
X61632508Y-46236091D01*
X61433674Y-46364037D01*
X61300283Y-46559261D01*
X61253355Y-46791000D01*
X61253355Y-48291000D01*
X61294091Y-48507492D01*
X61422037Y-48706326D01*
X61617261Y-48839717D01*
X61849000Y-48886645D01*
X63149000Y-48886645D01*
X63296166Y-48858954D01*
X66451106Y-52013894D01*
X66681835Y-52168063D01*
X66954000Y-52222200D01*
X68973247Y-52222200D01*
X68784525Y-52410593D01*
X68584028Y-52893443D01*
X68583572Y-53416264D01*
X68783226Y-53899462D01*
X69152593Y-54269475D01*
X69635443Y-54469972D01*
X70158264Y-54470428D01*
X70641462Y-54270774D01*
X71011475Y-53901407D01*
X71168138Y-53524121D01*
X71323226Y-53899462D01*
X71692593Y-54269475D01*
X72175443Y-54469972D01*
X72698264Y-54470428D01*
X73181462Y-54270774D01*
X73551475Y-53901407D01*
X73697339Y-53550127D01*
X73734053Y-53586841D01*
X73863226Y-53899462D01*
X74232593Y-54269475D01*
X74703583Y-54465047D01*
X71760500Y-57408130D01*
X71788973Y-57339560D01*
X71789426Y-56820717D01*
X71591292Y-56341195D01*
X71224735Y-55973998D01*
X70745560Y-55775027D01*
X70226717Y-55774574D01*
X69747195Y-55972708D01*
X69379998Y-56339265D01*
X69214839Y-56737011D01*
X69051292Y-56341195D01*
X68684735Y-55973998D01*
X68205560Y-55775027D01*
X67686717Y-55774574D01*
X67207195Y-55972708D01*
X66839998Y-56339265D01*
X66674839Y-56737011D01*
X66511292Y-56341195D01*
X66144735Y-55973998D01*
X65665560Y-55775027D01*
X65146717Y-55774574D01*
X64667195Y-55972708D01*
X64299998Y-56339265D01*
X64101027Y-56818440D01*
X64100574Y-57337283D01*
X64298708Y-57816805D01*
X64598922Y-58117543D01*
X54568171Y-58117543D01*
X57300069Y-55385645D01*
X57790000Y-55385645D01*
X58006492Y-55344909D01*
X58205326Y-55216963D01*
X58338717Y-55021739D01*
X58385645Y-54790000D01*
X58385645Y-53290000D01*
X58344909Y-53073508D01*
X58216963Y-52874674D01*
X58021739Y-52741283D01*
X57790000Y-52694355D01*
X56490000Y-52694355D01*
X56273508Y-52735091D01*
X56074674Y-52863037D01*
X55941283Y-53058261D01*
X55894355Y-53290000D01*
X55894355Y-53779931D01*
X51779931Y-57894355D01*
X51511000Y-57894355D01*
X51294508Y-57935091D01*
X51188307Y-58003429D01*
X51041739Y-57903283D01*
X50810000Y-57856355D01*
X49510000Y-57856355D01*
X49293508Y-57897091D01*
X49094674Y-58025037D01*
X49012502Y-58145300D01*
X47945000Y-58145300D01*
X47943778Y-58145543D01*
X45021897Y-58145543D01*
X44871470Y-57994853D01*
X44739697Y-57940136D01*
X44869348Y-57886565D01*
X45273147Y-57483470D01*
X45315613Y-57381200D01*
X48938666Y-57381200D01*
X48955091Y-57468492D01*
X49083037Y-57667326D01*
X49278261Y-57800717D01*
X49510000Y-57847645D01*
X50810000Y-57847645D01*
X51026492Y-57806909D01*
X51225326Y-57678963D01*
X51358717Y-57483739D01*
X51405645Y-57252000D01*
X51405645Y-55752000D01*
X51364909Y-55535508D01*
X51236963Y-55336674D01*
X51041739Y-55203283D01*
X50810000Y-55156355D01*
X50805200Y-55156355D01*
X50805200Y-49738285D01*
X50831805Y-49727292D01*
X51199002Y-49360735D01*
X51397973Y-48881560D01*
X51398426Y-48362717D01*
X51200292Y-47883195D01*
X50833735Y-47515998D01*
X50354560Y-47317027D01*
X49835717Y-47316574D01*
X49356195Y-47514708D01*
X48988998Y-47881265D01*
X48790027Y-48360440D01*
X48789574Y-48879283D01*
X48987708Y-49358805D01*
X49354265Y-49726002D01*
X49382800Y-49737851D01*
X49382800Y-55180289D01*
X49293508Y-55197091D01*
X49094674Y-55325037D01*
X48961283Y-55520261D01*
X48914355Y-55752000D01*
X48914355Y-55958800D01*
X45315945Y-55958800D01*
X45274565Y-55858652D01*
X44871470Y-55454853D01*
X44344532Y-55236049D01*
X43773971Y-55235551D01*
X43246652Y-55453435D01*
X42842853Y-55856530D01*
X42624049Y-56383468D01*
X42623551Y-56954029D01*
X42841435Y-57481348D01*
X43244530Y-57885147D01*
X43376303Y-57939864D01*
X43246652Y-57993435D01*
X43094278Y-58145543D01*
X38935913Y-58145543D01*
X38698549Y-57907764D01*
X38116499Y-57666076D01*
X37486266Y-57665526D01*
X36903795Y-57906198D01*
X36457764Y-58351451D01*
X36216076Y-58933501D01*
X36215526Y-59563734D01*
X36456198Y-60146205D01*
X36901451Y-60592236D01*
X37483501Y-60833924D01*
X38113734Y-60834474D01*
X38696205Y-60593802D01*
X39016108Y-60274457D01*
X43094103Y-60274457D01*
X43244530Y-60425147D01*
X43376303Y-60479864D01*
X43246652Y-60533435D01*
X42842853Y-60936530D01*
X42624049Y-61463468D01*
X42623551Y-62034029D01*
X42841435Y-62561348D01*
X43244530Y-62965147D01*
X43329800Y-63000554D01*
X43329800Y-64438355D01*
X43291000Y-64438355D01*
X43074508Y-64479091D01*
X42875674Y-64607037D01*
X42742283Y-64802261D01*
X42712811Y-64947800D01*
X39167244Y-64947800D01*
X39090802Y-64762795D01*
X38645549Y-64316764D01*
X38063499Y-64075076D01*
X37433266Y-64074526D01*
X36850795Y-64315198D01*
X36404764Y-64760451D01*
X36163076Y-65342501D01*
X36162526Y-65972734D01*
X36403198Y-66555205D01*
X36848451Y-67001236D01*
X37193063Y-67144331D01*
X36786795Y-67312198D01*
X36340764Y-67757451D01*
X36099076Y-68339501D01*
X36098526Y-68969734D01*
X36339198Y-69552205D01*
X36784451Y-69998236D01*
X37366501Y-70239924D01*
X37996734Y-70240474D01*
X38579205Y-69999802D01*
X38953262Y-69626398D01*
X39252602Y-69926262D01*
X38880764Y-70297451D01*
X38639076Y-70879501D01*
X38638526Y-71509734D01*
X38879198Y-72092205D01*
X39324451Y-72538236D01*
X39906501Y-72779924D01*
X40536734Y-72780474D01*
X41119205Y-72539802D01*
X41565236Y-72094549D01*
X41806924Y-71512499D01*
X41807474Y-70882266D01*
X41566802Y-70299795D01*
X41193398Y-69925738D01*
X41493262Y-69626398D01*
X41864451Y-69998236D01*
X42446501Y-70239924D01*
X43076734Y-70240474D01*
X43659205Y-69999802D01*
X44033262Y-69626398D01*
X44332602Y-69926262D01*
X43960764Y-70297451D01*
X43719076Y-70879501D01*
X43718526Y-71509734D01*
X43959198Y-72092205D01*
X44404451Y-72538236D01*
X44986501Y-72779924D01*
X45616734Y-72780474D01*
X46199205Y-72539802D01*
X46573262Y-72166398D01*
X46944451Y-72538236D01*
X47526501Y-72779924D01*
X48156734Y-72780474D01*
X48739205Y-72539802D01*
X49113262Y-72166398D01*
X49484451Y-72538236D01*
X50066501Y-72779924D01*
X50696734Y-72780474D01*
X51279205Y-72539802D01*
X51725236Y-72094549D01*
X51966924Y-71512499D01*
X51967474Y-70882266D01*
X51726802Y-70299795D01*
X51353398Y-69925738D01*
X51653262Y-69626398D01*
X52024451Y-69998236D01*
X52606501Y-70239924D01*
X53236734Y-70240474D01*
X53819205Y-69999802D01*
X54193262Y-69626398D01*
X54564451Y-69998236D01*
X55146501Y-70239924D01*
X55776734Y-70240474D01*
X56359205Y-69999802D01*
X56733262Y-69626398D01*
X57104451Y-69998236D01*
X57686501Y-70239924D01*
X58316734Y-70240474D01*
X58899205Y-69999802D01*
X59273262Y-69626398D01*
X59644451Y-69998236D01*
X60226501Y-70239924D01*
X60856734Y-70240474D01*
X61439205Y-69999802D01*
X61813262Y-69626398D01*
X62184451Y-69998236D01*
X62766501Y-70239924D01*
X63396734Y-70240474D01*
X63979205Y-69999802D01*
X64353262Y-69626398D01*
X64724451Y-69998236D01*
X65306501Y-70239924D01*
X65936734Y-70240474D01*
X66519205Y-69999802D01*
X66893262Y-69626398D01*
X67264451Y-69998236D01*
X67846501Y-70239924D01*
X68476734Y-70240474D01*
X69059205Y-69999802D01*
X69433262Y-69626398D01*
X69732602Y-69926262D01*
X69360764Y-70297451D01*
X69119076Y-70879501D01*
X69118526Y-71509734D01*
X69359198Y-72092205D01*
X69732602Y-72466262D01*
X69360764Y-72837451D01*
X69119076Y-73419501D01*
X69118526Y-74049734D01*
X69359198Y-74632205D01*
X69804451Y-75078236D01*
X70386501Y-75319924D01*
X71016734Y-75320474D01*
X71599205Y-75079802D01*
X72013800Y-74665930D01*
X72013800Y-75651000D01*
X72067937Y-75923165D01*
X72222106Y-76153894D01*
X73123355Y-77055143D01*
X73123355Y-78018000D01*
X73164091Y-78234492D01*
X73292037Y-78433326D01*
X73487261Y-78566717D01*
X73719000Y-78613645D01*
X75239000Y-78613645D01*
X75455492Y-78572909D01*
X75654326Y-78444963D01*
X75787717Y-78249739D01*
X75808319Y-78148000D01*
X85323355Y-78148000D01*
X85323355Y-79668000D01*
X85364091Y-79884492D01*
X85492037Y-80083326D01*
X85687261Y-80216717D01*
X85919000Y-80263645D01*
X87439000Y-80263645D01*
X87655492Y-80222909D01*
X87854326Y-80094963D01*
X87987717Y-79899739D01*
X88034645Y-79668000D01*
X88034645Y-79558200D01*
X88979575Y-79558200D01*
X89004091Y-79688492D01*
X89132037Y-79887326D01*
X89327261Y-80020717D01*
X89559000Y-80067645D01*
X91059000Y-80067645D01*
X91275492Y-80026909D01*
X91474326Y-79898963D01*
X91559403Y-79774449D01*
X91632037Y-79887326D01*
X91827261Y-80020717D01*
X92059000Y-80067645D01*
X93559000Y-80067645D01*
X93775492Y-80026909D01*
X93974326Y-79898963D01*
X94107717Y-79703739D01*
X94137189Y-79558200D01*
X94144461Y-79558200D01*
X94179891Y-79746492D01*
X94307837Y-79945326D01*
X94503061Y-80078717D01*
X94734800Y-80125645D01*
X95446000Y-80125645D01*
X95662492Y-80084909D01*
X95861326Y-79956963D01*
X95994717Y-79761739D01*
X96041645Y-79530000D01*
X96041645Y-78031400D01*
X96000909Y-77814908D01*
X95872963Y-77616074D01*
X95677739Y-77482683D01*
X95446000Y-77435755D01*
X94734800Y-77435755D01*
X94518308Y-77476491D01*
X94319474Y-77604437D01*
X94186083Y-77799661D01*
X94139155Y-78031400D01*
X94139155Y-78135800D01*
X94138425Y-78135800D01*
X94113909Y-78005508D01*
X93985963Y-77806674D01*
X93790739Y-77673283D01*
X93559000Y-77626355D01*
X92059000Y-77626355D01*
X91842508Y-77667091D01*
X91643674Y-77795037D01*
X91558597Y-77919551D01*
X91485963Y-77806674D01*
X91290739Y-77673283D01*
X91059000Y-77626355D01*
X89559000Y-77626355D01*
X89342508Y-77667091D01*
X89143674Y-77795037D01*
X89010283Y-77990261D01*
X88980811Y-78135800D01*
X88032349Y-78135800D01*
X87993909Y-77931508D01*
X87865963Y-77732674D01*
X87670739Y-77599283D01*
X87439000Y-77552355D01*
X85919000Y-77552355D01*
X85702508Y-77593091D01*
X85503674Y-77721037D01*
X85370283Y-77916261D01*
X85323355Y-78148000D01*
X75808319Y-78148000D01*
X75834645Y-78018000D01*
X75834645Y-76498000D01*
X75793909Y-76281508D01*
X75665963Y-76082674D01*
X75470739Y-75949283D01*
X75239000Y-75902355D01*
X73982143Y-75902355D01*
X73436200Y-75356412D01*
X73436200Y-73218000D01*
X73419690Y-73135000D01*
X73382063Y-72945835D01*
X73227894Y-72715106D01*
X72210159Y-71697371D01*
X72286924Y-71512499D01*
X72287474Y-70882266D01*
X72046802Y-70299795D01*
X71673398Y-69925738D01*
X72045236Y-69554549D01*
X72261494Y-69033740D01*
X72359037Y-69185326D01*
X72554261Y-69318717D01*
X72786000Y-69365645D01*
X74086000Y-69365645D01*
X74302492Y-69324909D01*
X74501326Y-69196963D01*
X74634717Y-69001739D01*
X74681645Y-68770000D01*
X74681645Y-68731200D01*
X75271135Y-68731200D01*
X75368544Y-68828779D01*
X75723168Y-68976032D01*
X76107148Y-68976367D01*
X76462027Y-68829734D01*
X76733779Y-68558456D01*
X76881032Y-68203832D01*
X76881367Y-67819852D01*
X76734734Y-67464973D01*
X76463456Y-67193221D01*
X76108832Y-67045968D01*
X75724852Y-67045633D01*
X75369973Y-67192266D01*
X75253235Y-67308800D01*
X74681645Y-67308800D01*
X74681645Y-67270000D01*
X74640909Y-67053508D01*
X74512963Y-66854674D01*
X74317739Y-66721283D01*
X74086000Y-66674355D01*
X72786000Y-66674355D01*
X72569508Y-66715091D01*
X72370674Y-66843037D01*
X72237283Y-67038261D01*
X72190355Y-67270000D01*
X72190355Y-68107220D01*
X72046802Y-67759795D01*
X71601549Y-67313764D01*
X71019499Y-67072076D01*
X70389266Y-67071526D01*
X69806795Y-67312198D01*
X69432738Y-67685602D01*
X69061549Y-67313764D01*
X68479499Y-67072076D01*
X67849266Y-67071526D01*
X67266795Y-67312198D01*
X66892738Y-67685602D01*
X66521549Y-67313764D01*
X65939499Y-67072076D01*
X65309266Y-67071526D01*
X64726795Y-67312198D01*
X64352738Y-67685602D01*
X63981549Y-67313764D01*
X63399499Y-67072076D01*
X62769266Y-67071526D01*
X62186795Y-67312198D01*
X61812738Y-67685602D01*
X61441549Y-67313764D01*
X60859499Y-67072076D01*
X60229266Y-67071526D01*
X59646795Y-67312198D01*
X59272738Y-67685602D01*
X58901549Y-67313764D01*
X58319499Y-67072076D01*
X57689266Y-67071526D01*
X57106795Y-67312198D01*
X56732738Y-67685602D01*
X56361549Y-67313764D01*
X55779499Y-67072076D01*
X55149266Y-67071526D01*
X54566795Y-67312198D01*
X54192738Y-67685602D01*
X53821549Y-67313764D01*
X53239499Y-67072076D01*
X52609266Y-67071526D01*
X52026795Y-67312198D01*
X51652738Y-67685602D01*
X51281549Y-67313764D01*
X50699499Y-67072076D01*
X50069266Y-67071526D01*
X49486795Y-67312198D01*
X49112738Y-67685602D01*
X48741549Y-67313764D01*
X48159499Y-67072076D01*
X47529266Y-67071526D01*
X46946795Y-67312198D01*
X46572738Y-67685602D01*
X46201549Y-67313764D01*
X45619499Y-67072076D01*
X44989266Y-67071526D01*
X44406795Y-67312198D01*
X44032738Y-67685602D01*
X43661549Y-67313764D01*
X43079499Y-67072076D01*
X42449266Y-67071526D01*
X41866795Y-67312198D01*
X41492738Y-67685602D01*
X41121549Y-67313764D01*
X40539499Y-67072076D01*
X39909266Y-67071526D01*
X39326795Y-67312198D01*
X38952738Y-67685602D01*
X38581549Y-67313764D01*
X38236937Y-67170669D01*
X38643205Y-67002802D01*
X39089236Y-66557549D01*
X39167030Y-66370200D01*
X42711575Y-66370200D01*
X42736091Y-66500492D01*
X42864037Y-66699326D01*
X43059261Y-66832717D01*
X43291000Y-66879645D01*
X44791000Y-66879645D01*
X45007492Y-66838909D01*
X45206326Y-66710963D01*
X45339717Y-66515739D01*
X45386645Y-66284000D01*
X45386645Y-65034000D01*
X45345909Y-64817508D01*
X45217963Y-64618674D01*
X45022739Y-64485283D01*
X44791000Y-64438355D01*
X44752200Y-64438355D01*
X44752200Y-63014970D01*
X44869348Y-62966565D01*
X45273147Y-62563470D01*
X45491951Y-62036532D01*
X45492449Y-61465971D01*
X45274565Y-60938652D01*
X44871470Y-60534853D01*
X44739697Y-60480136D01*
X44869348Y-60426565D01*
X45021722Y-60274457D01*
X47943778Y-60274457D01*
X47945000Y-60274700D01*
X49023434Y-60274700D01*
X49083037Y-60367326D01*
X49278261Y-60500717D01*
X49510000Y-60547645D01*
X50810000Y-60547645D01*
X51026492Y-60506909D01*
X51132693Y-60438571D01*
X51279261Y-60538717D01*
X51511000Y-60585645D01*
X52761000Y-60585645D01*
X52977492Y-60544909D01*
X53176326Y-60416963D01*
X53292828Y-60246457D01*
X66673778Y-60246457D01*
X66675000Y-60246700D01*
X66948986Y-60246700D01*
X69936355Y-63234068D01*
X69936355Y-63546000D01*
X69977091Y-63762492D01*
X70105037Y-63961326D01*
X70300261Y-64094717D01*
X70532000Y-64141645D01*
X70843931Y-64141645D01*
X72190355Y-65488069D01*
X72190355Y-66070000D01*
X72231091Y-66286492D01*
X72359037Y-66485326D01*
X72554261Y-66618717D01*
X72786000Y-66665645D01*
X74086000Y-66665645D01*
X74302492Y-66624909D01*
X74501326Y-66496963D01*
X74634717Y-66301739D01*
X74681645Y-66070000D01*
X74681645Y-64570000D01*
X74640909Y-64353508D01*
X74512963Y-64154674D01*
X74317739Y-64021283D01*
X74086000Y-63974355D01*
X73688069Y-63974355D01*
X72627645Y-62913931D01*
X72627645Y-62296000D01*
X72586909Y-62079508D01*
X72458963Y-61880674D01*
X72263739Y-61747283D01*
X72032000Y-61700355D01*
X71414068Y-61700355D01*
X69960414Y-60246700D01*
X73187986Y-60246700D01*
X81164300Y-68223013D01*
X81164300Y-70789851D01*
X81053674Y-70861037D01*
X80920283Y-71056261D01*
X80873355Y-71288000D01*
X80873355Y-72808000D01*
X80914091Y-73024492D01*
X81042037Y-73223326D01*
X81237261Y-73356717D01*
X81469000Y-73403645D01*
X82989000Y-73403645D01*
X83205492Y-73362909D01*
X83404326Y-73234963D01*
X83537717Y-73039739D01*
X83584645Y-72808000D01*
X83584645Y-71288000D01*
X83543909Y-71071508D01*
X83415963Y-70872674D01*
X83293700Y-70789135D01*
X83293700Y-70136893D01*
X83441261Y-70237717D01*
X83673000Y-70284645D01*
X84662857Y-70284645D01*
X87606106Y-73227895D01*
X87788850Y-73350000D01*
X87836836Y-73382063D01*
X88109000Y-73436200D01*
X90953575Y-73436200D01*
X90978091Y-73566492D01*
X91106037Y-73765326D01*
X91301261Y-73898717D01*
X91533000Y-73945645D01*
X93033000Y-73945645D01*
X93249492Y-73904909D01*
X93448326Y-73776963D01*
X93533403Y-73652449D01*
X93606037Y-73765326D01*
X93801261Y-73898717D01*
X94033000Y-73945645D01*
X95533000Y-73945645D01*
X95749492Y-73904909D01*
X95948326Y-73776963D01*
X96081717Y-73581739D01*
X96128645Y-73350000D01*
X96128645Y-72100000D01*
X96087909Y-71883508D01*
X95959963Y-71684674D01*
X95764739Y-71551283D01*
X95533000Y-71504355D01*
X95158200Y-71504355D01*
X95158200Y-69643376D01*
X95175717Y-69617739D01*
X95222645Y-69386000D01*
X95222645Y-68496000D01*
X95181909Y-68279508D01*
X95053963Y-68080674D01*
X94858739Y-67947283D01*
X94627000Y-67900355D01*
X94267000Y-67900355D01*
X94050508Y-67941091D01*
X93851674Y-68069037D01*
X93718283Y-68264261D01*
X93671355Y-68496000D01*
X93671355Y-69386000D01*
X93712091Y-69602492D01*
X93735800Y-69639337D01*
X93735800Y-71597025D01*
X93617674Y-71673037D01*
X93532597Y-71797551D01*
X93459963Y-71684674D01*
X93264739Y-71551283D01*
X93208200Y-71539834D01*
X93208200Y-69643376D01*
X93225717Y-69617739D01*
X93272645Y-69386000D01*
X93272645Y-68496000D01*
X93231909Y-68279508D01*
X93103963Y-68080674D01*
X92908739Y-67947283D01*
X92677000Y-67900355D01*
X92607645Y-67900355D01*
X92607645Y-67831000D01*
X92579360Y-67680678D01*
X92607645Y-67541000D01*
X92607645Y-67181000D01*
X92579360Y-67030678D01*
X92607645Y-66891000D01*
X92607645Y-66531000D01*
X92566909Y-66314508D01*
X92438963Y-66115674D01*
X92243739Y-65982283D01*
X92012000Y-65935355D01*
X91122000Y-65935355D01*
X90984935Y-65961146D01*
X90657236Y-65633447D01*
X90657367Y-65482852D01*
X90510734Y-65127973D01*
X90239456Y-64856221D01*
X89884832Y-64708968D01*
X89500852Y-64708633D01*
X89145973Y-64855266D01*
X89133127Y-64868089D01*
X89020456Y-64755221D01*
X88665832Y-64607968D01*
X88281852Y-64607633D01*
X87926973Y-64754266D01*
X87655221Y-65025544D01*
X87507968Y-65380168D01*
X87507633Y-65764148D01*
X87617775Y-66030711D01*
X87427674Y-66153037D01*
X87294283Y-66348261D01*
X87247355Y-66580000D01*
X87247355Y-68080000D01*
X87288091Y-68296492D01*
X87416037Y-68495326D01*
X87611261Y-68628717D01*
X87843000Y-68675645D01*
X89093000Y-68675645D01*
X89213986Y-68652880D01*
X89409544Y-68848779D01*
X89764168Y-68996032D01*
X90148148Y-68996367D01*
X90503027Y-68849734D01*
X90630784Y-68722200D01*
X90864624Y-68722200D01*
X90890261Y-68739717D01*
X91122000Y-68786645D01*
X91721355Y-68786645D01*
X91721355Y-69386000D01*
X91762091Y-69602492D01*
X91785800Y-69639337D01*
X91785800Y-71504355D01*
X91533000Y-71504355D01*
X91316508Y-71545091D01*
X91117674Y-71673037D01*
X90984283Y-71868261D01*
X90954811Y-72013800D01*
X88403589Y-72013800D01*
X85568645Y-69178857D01*
X85568645Y-68189000D01*
X85527909Y-67972508D01*
X85399963Y-67773674D01*
X85204739Y-67640283D01*
X84973000Y-67593355D01*
X83673000Y-67593355D01*
X83456508Y-67634091D01*
X83286093Y-67743750D01*
X83212655Y-67374557D01*
X83204891Y-67362937D01*
X82981857Y-67029143D01*
X82981854Y-67029141D01*
X76199414Y-60246700D01*
X76824986Y-60246700D01*
X80843355Y-64265069D01*
X80843355Y-64576000D01*
X80884091Y-64792492D01*
X81012037Y-64991326D01*
X81207261Y-65124717D01*
X81439000Y-65171645D01*
X81749931Y-65171645D01*
X83077355Y-66499069D01*
X83077355Y-66989000D01*
X83118091Y-67205492D01*
X83246037Y-67404326D01*
X83441261Y-67537717D01*
X83673000Y-67584645D01*
X84973000Y-67584645D01*
X85189492Y-67543909D01*
X85388326Y-67415963D01*
X85521717Y-67220739D01*
X85568645Y-66989000D01*
X85568645Y-65489000D01*
X85527909Y-65272508D01*
X85399963Y-65073674D01*
X85204739Y-64940283D01*
X84973000Y-64893355D01*
X84637068Y-64893355D01*
X83534645Y-63790931D01*
X83534645Y-63326000D01*
X83493909Y-63109508D01*
X83365963Y-62910674D01*
X83170739Y-62777283D01*
X82939000Y-62730355D01*
X82320069Y-62730355D01*
X79836171Y-60246457D01*
X80353778Y-60246457D01*
X80355000Y-60246700D01*
X82576995Y-60246700D01*
X82577000Y-60246701D01*
X82578227Y-60246457D01*
X83930778Y-60246457D01*
X83932000Y-60246700D01*
X88890995Y-60246700D01*
X88891000Y-60246701D01*
X88892227Y-60246457D01*
X90719778Y-60246457D01*
X90721000Y-60246700D01*
X90752986Y-60246700D01*
X96391425Y-65885138D01*
X96349973Y-65902266D01*
X96252269Y-65999800D01*
X96079376Y-65999800D01*
X96053739Y-65982283D01*
X95822000Y-65935355D01*
X94932000Y-65935355D01*
X94715508Y-65976091D01*
X94516674Y-66104037D01*
X94383283Y-66299261D01*
X94336355Y-66531000D01*
X94336355Y-66891000D01*
X94377091Y-67107492D01*
X94505037Y-67306326D01*
X94700261Y-67439717D01*
X94932000Y-67486645D01*
X95822000Y-67486645D01*
X96038492Y-67445909D01*
X96075337Y-67422200D01*
X96232168Y-67422200D01*
X96348544Y-67538779D01*
X96703168Y-67686032D01*
X97087148Y-67686367D01*
X97442027Y-67539734D01*
X97713779Y-67268456D01*
X97731666Y-67225379D01*
X100676355Y-70170068D01*
X100676355Y-70635000D01*
X100717091Y-70851492D01*
X100845037Y-71050326D01*
X100969551Y-71135403D01*
X100856674Y-71208037D01*
X100723283Y-71403261D01*
X100676355Y-71635000D01*
X100676355Y-73135000D01*
X100717091Y-73351492D01*
X100845037Y-73550326D01*
X101040261Y-73683717D01*
X101185800Y-73713189D01*
X101185800Y-74124355D01*
X100804000Y-74124355D01*
X100587508Y-74165091D01*
X100566480Y-74178622D01*
X100555739Y-74171283D01*
X100324000Y-74124355D01*
X99534000Y-74124355D01*
X99317508Y-74165091D01*
X99118674Y-74293037D01*
X98985283Y-74488261D01*
X98938355Y-74720000D01*
X98938355Y-76400000D01*
X98976394Y-76602158D01*
X98938355Y-76790000D01*
X98938355Y-77550000D01*
X98976394Y-77752158D01*
X98971926Y-77774219D01*
X98870163Y-77616074D01*
X98674939Y-77482683D01*
X98443200Y-77435755D01*
X97732000Y-77435755D01*
X97515508Y-77476491D01*
X97316674Y-77604437D01*
X97183283Y-77799661D01*
X97136355Y-78031400D01*
X97136355Y-79530000D01*
X97177091Y-79746492D01*
X97305037Y-79945326D01*
X97500261Y-80078717D01*
X97732000Y-80125645D01*
X98443200Y-80125645D01*
X98659692Y-80084909D01*
X98858526Y-79956963D01*
X98970832Y-79792598D01*
X98979091Y-79836492D01*
X99107037Y-80035326D01*
X99302261Y-80168717D01*
X99534000Y-80215645D01*
X100324000Y-80215645D01*
X100540492Y-80174909D01*
X100561520Y-80161378D01*
X100572261Y-80168717D01*
X100804000Y-80215645D01*
X101594000Y-80215645D01*
X101810492Y-80174909D01*
X101831520Y-80161378D01*
X101842261Y-80168717D01*
X102074000Y-80215645D01*
X102864000Y-80215645D01*
X103080492Y-80174909D01*
X103279326Y-80046963D01*
X103412717Y-79851739D01*
X103459645Y-79620000D01*
X103459645Y-79502200D01*
X104447322Y-79502200D01*
X104581261Y-79593717D01*
X104813000Y-79640645D01*
X106083000Y-79640645D01*
X106299492Y-79599909D01*
X106498326Y-79471963D01*
X106506865Y-79459465D01*
X106503355Y-79476800D01*
X106503355Y-79984800D01*
X106544091Y-80201292D01*
X106672037Y-80400126D01*
X106867261Y-80533517D01*
X107099000Y-80580445D01*
X108369000Y-80580445D01*
X108585492Y-80539709D01*
X108784326Y-80411763D01*
X108794960Y-80396200D01*
X115708296Y-80396200D01*
X115741091Y-80570492D01*
X115869037Y-80769326D01*
X116064261Y-80902717D01*
X116296000Y-80949645D01*
X120288800Y-80949645D01*
X120288800Y-85288800D01*
X71480621Y-85288800D01*
X71599205Y-85239802D01*
X72045236Y-84794549D01*
X72286924Y-84212499D01*
X72287474Y-83582266D01*
X72046802Y-82999795D01*
X71673398Y-82625738D01*
X72045236Y-82254549D01*
X72286924Y-81672499D01*
X72287474Y-81042266D01*
X72046802Y-80459795D01*
X71673398Y-80085738D01*
X72045236Y-79714549D01*
X72286924Y-79132499D01*
X72287474Y-78502266D01*
X72046802Y-77919795D01*
X71601549Y-77473764D01*
X71019499Y-77232076D01*
X70389266Y-77231526D01*
X69806795Y-77472198D01*
X69360764Y-77917451D01*
X69119076Y-78499501D01*
X69118526Y-79129734D01*
X69359198Y-79712205D01*
X69732602Y-80086262D01*
X69360764Y-80457451D01*
X69119076Y-81039501D01*
X69118526Y-81669734D01*
X69359198Y-82252205D01*
X69732602Y-82626262D01*
X69432738Y-82925602D01*
X69061549Y-82553764D01*
X68479499Y-82312076D01*
X67849266Y-82311526D01*
X67266795Y-82552198D01*
X66892738Y-82925602D01*
X66521549Y-82553764D01*
X65939499Y-82312076D01*
X65309266Y-82311526D01*
X64726795Y-82552198D01*
X64352738Y-82925602D01*
X63981549Y-82553764D01*
X63399499Y-82312076D01*
X62769266Y-82311526D01*
X62186795Y-82552198D01*
X61812738Y-82925602D01*
X61441549Y-82553764D01*
X60859499Y-82312076D01*
X60229266Y-82311526D01*
X59646795Y-82552198D01*
X59272738Y-82925602D01*
X58901549Y-82553764D01*
X58319499Y-82312076D01*
X57689266Y-82311526D01*
X57106795Y-82552198D01*
X56732738Y-82925602D01*
X56361549Y-82553764D01*
X55779499Y-82312076D01*
X55149266Y-82311526D01*
X54566795Y-82552198D01*
X54192738Y-82925602D01*
X53821549Y-82553764D01*
X53239499Y-82312076D01*
X52609266Y-82311526D01*
X52026795Y-82552198D01*
X51652738Y-82925602D01*
X51281549Y-82553764D01*
X50699499Y-82312076D01*
X50069266Y-82311526D01*
X49486795Y-82552198D01*
X49112738Y-82925602D01*
X48741549Y-82553764D01*
X48159499Y-82312076D01*
X47529266Y-82311526D01*
X46946795Y-82552198D01*
X46572738Y-82925602D01*
X46201549Y-82553764D01*
X45619499Y-82312076D01*
X44989266Y-82311526D01*
X44406795Y-82552198D01*
X44032738Y-82925602D01*
X43661549Y-82553764D01*
X43079499Y-82312076D01*
X42449266Y-82311526D01*
X41866795Y-82552198D01*
X41492738Y-82925602D01*
X41121549Y-82553764D01*
X40539499Y-82312076D01*
X39909266Y-82311526D01*
X39326795Y-82552198D01*
X38880764Y-82997451D01*
X38639076Y-83579501D01*
X38638526Y-84209734D01*
X38879198Y-84792205D01*
X39324451Y-85238236D01*
X39446223Y-85288800D01*
X35711200Y-85288800D01*
X35711200Y-48879283D01*
X43709574Y-48879283D01*
X43907708Y-49358805D01*
X44274265Y-49726002D01*
X44753440Y-49924973D01*
X45272283Y-49925426D01*
X45751805Y-49727292D01*
X46119002Y-49360735D01*
X46317973Y-48881560D01*
X46318426Y-48362717D01*
X46120292Y-47883195D01*
X45753735Y-47515998D01*
X45274560Y-47317027D01*
X44755717Y-47316574D01*
X44276195Y-47514708D01*
X43908998Y-47881265D01*
X43710027Y-48360440D01*
X43709574Y-48879283D01*
X35711200Y-48879283D01*
X35711200Y-31711200D01*
X79182355Y-31711200D01*
X79182355Y-32957000D01*
X79182355Y-32957000D01*
G37*
X79182355Y-32957000D02*
X79223091Y-33173492D01*
X79351037Y-33372326D01*
X79546261Y-33505717D01*
X79778000Y-33552645D01*
X79800800Y-33552645D01*
X79800800Y-35725355D01*
X79762000Y-35725355D01*
X79545508Y-35766091D01*
X79346674Y-35894037D01*
X79213283Y-36089261D01*
X79180571Y-36250800D01*
X79055645Y-36250800D01*
X79055645Y-36212000D01*
X79014909Y-35995508D01*
X78886963Y-35796674D01*
X78691739Y-35663283D01*
X78460000Y-35616355D01*
X77160000Y-35616355D01*
X76943508Y-35657091D01*
X76744674Y-35785037D01*
X76611283Y-35980261D01*
X76564355Y-36212000D01*
X76564355Y-36222800D01*
X70562645Y-36222800D01*
X70562645Y-36184000D01*
X70521909Y-35967508D01*
X70393963Y-35768674D01*
X70198739Y-35635283D01*
X69967000Y-35588355D01*
X68667000Y-35588355D01*
X68450508Y-35629091D01*
X68251674Y-35757037D01*
X68118283Y-35952261D01*
X68071355Y-36184000D01*
X68071355Y-37684000D01*
X68112091Y-37900492D01*
X68240037Y-38099326D01*
X68435261Y-38232717D01*
X68667000Y-38279645D01*
X69967000Y-38279645D01*
X70183492Y-38238909D01*
X70382326Y-38110963D01*
X70515717Y-37915739D01*
X70562645Y-37684000D01*
X70562645Y-37645200D01*
X71491263Y-37645200D01*
X71455299Y-37826000D01*
X71456300Y-37831032D01*
X71456300Y-38483286D01*
X71355674Y-38548037D01*
X71222283Y-38743261D01*
X71175355Y-38975000D01*
X71175355Y-39465275D01*
X70562645Y-40077985D01*
X70562645Y-38884000D01*
X70521909Y-38667508D01*
X70393963Y-38468674D01*
X70198739Y-38335283D01*
X69967000Y-38288355D01*
X68667000Y-38288355D01*
X68450508Y-38329091D01*
X68251674Y-38457037D01*
X68118283Y-38652261D01*
X68071355Y-38884000D01*
X68071355Y-39374275D01*
X65879087Y-41566543D01*
X63506070Y-41566543D01*
X63734654Y-41224444D01*
X63815700Y-40817000D01*
X63734654Y-40409557D01*
X63503856Y-40064144D01*
X63158443Y-39833346D01*
X62751000Y-39752300D01*
X62343556Y-39833346D01*
X61998143Y-40064144D01*
X60300936Y-41761350D01*
X60126143Y-41878143D01*
X60126141Y-41878146D01*
X56379143Y-45625143D01*
X56148345Y-45970557D01*
X56120285Y-46111623D01*
X55993108Y-46238578D01*
X55909305Y-46440396D01*
X55880807Y-46483047D01*
X55870887Y-46532917D01*
X55788034Y-46732449D01*
X55787844Y-46950404D01*
X55784145Y-46969000D01*
X55787812Y-46987434D01*
X55787568Y-47267205D01*
X55991779Y-47761433D01*
X56067300Y-47837086D01*
X56067300Y-50173829D01*
X55941283Y-50358261D01*
X55894355Y-50590000D01*
X55894355Y-52090000D01*
X55935091Y-52306492D01*
X56063037Y-52505326D01*
X56258261Y-52638717D01*
X56490000Y-52685645D01*
X57790000Y-52685645D01*
X58006492Y-52644909D01*
X58205326Y-52516963D01*
X58338717Y-52321739D01*
X58385645Y-52090000D01*
X58385645Y-50590000D01*
X58344909Y-50373508D01*
X58216963Y-50174674D01*
X58196700Y-50160829D01*
X58196700Y-47837485D01*
X58270892Y-47763422D01*
X58402070Y-47447513D01*
X58531779Y-47761433D01*
X58909578Y-48139892D01*
X59403449Y-48344966D01*
X59938205Y-48345432D01*
X60432433Y-48141221D01*
X60810892Y-47763422D01*
X61015966Y-47269551D01*
X61016432Y-46734795D01*
X60812221Y-46240567D01*
X60434422Y-45862108D01*
X59940551Y-45657034D01*
X59405795Y-45656568D01*
X59326298Y-45689415D01*
X60879000Y-44136714D01*
X61253355Y-44511069D01*
X61253355Y-45591000D01*
X61294091Y-45807492D01*
X61422037Y-46006326D01*
X61617261Y-46139717D01*
X61849000Y-46186645D01*
X63149000Y-46186645D01*
X63365492Y-46145909D01*
X63564326Y-46017963D01*
X63697717Y-45822739D01*
X63744645Y-45591000D01*
X63744645Y-44091000D01*
X63703909Y-43874508D01*
X63588693Y-43695457D01*
X64207087Y-43695457D01*
X65556355Y-45044725D01*
X65556355Y-45535000D01*
X65597091Y-45751492D01*
X65725037Y-45950326D01*
X65920261Y-46083717D01*
X66152000Y-46130645D01*
X67452000Y-46130645D01*
X67668492Y-46089909D01*
X67867326Y-45961963D01*
X68000717Y-45766739D01*
X68023088Y-45656264D01*
X68583572Y-45656264D01*
X68783226Y-46139462D01*
X69152593Y-46509475D01*
X69635443Y-46709972D01*
X70158264Y-46710428D01*
X70641462Y-46510774D01*
X71011475Y-46141407D01*
X71168138Y-45764121D01*
X71323226Y-46139462D01*
X71692593Y-46509475D01*
X72175443Y-46709972D01*
X72698264Y-46710428D01*
X73181462Y-46510774D01*
X73551475Y-46141407D01*
X73708138Y-45764121D01*
X73863226Y-46139462D01*
X74232593Y-46509475D01*
X74715443Y-46709972D01*
X75238264Y-46710428D01*
X75721462Y-46510774D01*
X76091475Y-46141407D01*
X76291972Y-45658557D01*
X76292428Y-45135736D01*
X76092774Y-44652538D01*
X75723407Y-44282525D01*
X75240557Y-44082028D01*
X74717736Y-44081572D01*
X74234538Y-44281226D01*
X73864525Y-44650593D01*
X73707862Y-45027879D01*
X73552774Y-44652538D01*
X73183407Y-44282525D01*
X72700557Y-44082028D01*
X72177736Y-44081572D01*
X71694538Y-44281226D01*
X71324525Y-44650593D01*
X71167862Y-45027879D01*
X71012774Y-44652538D01*
X70643407Y-44282525D01*
X70160557Y-44082028D01*
X69637736Y-44081572D01*
X69154538Y-44281226D01*
X68784525Y-44650593D01*
X68584028Y-45133443D01*
X68583572Y-45656264D01*
X68023088Y-45656264D01*
X68047645Y-45535000D01*
X68047645Y-44035000D01*
X68006909Y-43818508D01*
X67927728Y-43695457D01*
X85798778Y-43695457D01*
X85800000Y-43695700D01*
X88195328Y-43695700D01*
X88431451Y-43932236D01*
X89013501Y-44173924D01*
X89643734Y-44174474D01*
X90226205Y-43933802D01*
X90672236Y-43488549D01*
X90742800Y-43318612D01*
X90742800Y-43811412D01*
X88185412Y-46368800D01*
X86023684Y-46368800D01*
X86251475Y-46141407D01*
X86451972Y-45658557D01*
X86452428Y-45135736D01*
X86252774Y-44652538D01*
X85883407Y-44282525D01*
X85400557Y-44082028D01*
X84877736Y-44081572D01*
X84394538Y-44281226D01*
X84024525Y-44650593D01*
X83867862Y-45027879D01*
X83712774Y-44652538D01*
X83343407Y-44282525D01*
X82860557Y-44082028D01*
X82337736Y-44081572D01*
X81854538Y-44281226D01*
X81484525Y-44650593D01*
X81327862Y-45027879D01*
X81172774Y-44652538D01*
X80803407Y-44282525D01*
X80320557Y-44082028D01*
X79797736Y-44081572D01*
X79314538Y-44281226D01*
X78944525Y-44650593D01*
X78744028Y-45133443D01*
X78743572Y-45656264D01*
X78943226Y-46139462D01*
X79312593Y-46509475D01*
X79795443Y-46709972D01*
X80318264Y-46710428D01*
X80801462Y-46510774D01*
X81171475Y-46141407D01*
X81328138Y-45764121D01*
X81483226Y-46139462D01*
X81852593Y-46509475D01*
X82335443Y-46709972D01*
X82858264Y-46710428D01*
X82892495Y-46696284D01*
X83779106Y-47582895D01*
X84009836Y-47737063D01*
X84282000Y-47791200D01*
X88480000Y-47791200D01*
X88752165Y-47737063D01*
X88982894Y-47582894D01*
X91956894Y-44608894D01*
X92111063Y-44378165D01*
X92130345Y-44281226D01*
X92165200Y-44106000D01*
X92165200Y-40982645D01*
X92204000Y-40982645D01*
X92420492Y-40941909D01*
X92619326Y-40813963D01*
X92752717Y-40618739D01*
X92799645Y-40387000D01*
X92799645Y-39087000D01*
X92758909Y-38870508D01*
X92630963Y-38671674D01*
X92435739Y-38538283D01*
X92204000Y-38491355D01*
X92171200Y-38491355D01*
X92171200Y-36354129D01*
X92326492Y-36324909D01*
X92525326Y-36196963D01*
X92658717Y-36001739D01*
X92705645Y-35770000D01*
X92705645Y-34270000D01*
X92664909Y-34053508D01*
X92536963Y-33854674D01*
X92341739Y-33721283D01*
X92110000Y-33674355D01*
X90810000Y-33674355D01*
X90593508Y-33715091D01*
X90394674Y-33843037D01*
X90261283Y-34038261D01*
X90214355Y-34270000D01*
X90214355Y-35770000D01*
X90255091Y-35986492D01*
X90383037Y-36185326D01*
X90578261Y-36318717D01*
X90748800Y-36353252D01*
X90748800Y-38491355D01*
X90704000Y-38491355D01*
X90487508Y-38532091D01*
X90288674Y-38660037D01*
X90155283Y-38855261D01*
X90108355Y-39087000D01*
X90108355Y-40387000D01*
X90149091Y-40603492D01*
X90277037Y-40802326D01*
X90472261Y-40935717D01*
X90704000Y-40982645D01*
X90742800Y-40982645D01*
X90742800Y-41860783D01*
X90673802Y-41693795D01*
X90228549Y-41247764D01*
X89646499Y-41006076D01*
X89016266Y-41005526D01*
X88972944Y-41023426D01*
X89013725Y-40982645D01*
X89504000Y-40982645D01*
X89720492Y-40941909D01*
X89919326Y-40813963D01*
X90052717Y-40618739D01*
X90099645Y-40387000D01*
X90099645Y-39087000D01*
X90058909Y-38870508D01*
X89930963Y-38671674D01*
X89735739Y-38538283D01*
X89504000Y-38491355D01*
X88004000Y-38491355D01*
X87787508Y-38532091D01*
X87588674Y-38660037D01*
X87455283Y-38855261D01*
X87408355Y-39087000D01*
X87408355Y-39577275D01*
X86930645Y-40054985D01*
X86930645Y-38702000D01*
X86889909Y-38485508D01*
X86761963Y-38286674D01*
X86637449Y-38201597D01*
X86750326Y-38128963D01*
X86883717Y-37933739D01*
X86930645Y-37702000D01*
X86930645Y-36202000D01*
X86889909Y-35985508D01*
X86761963Y-35786674D01*
X86566739Y-35653283D01*
X86335000Y-35606355D01*
X85085000Y-35606355D01*
X84868508Y-35647091D01*
X84669674Y-35775037D01*
X84536283Y-35970261D01*
X84510967Y-36095274D01*
X84388963Y-35905674D01*
X84193739Y-35772283D01*
X83962000Y-35725355D01*
X82462000Y-35725355D01*
X82245508Y-35766091D01*
X82046674Y-35894037D01*
X81913283Y-36089261D01*
X81866355Y-36321000D01*
X81866355Y-37621000D01*
X81907091Y-37837492D01*
X82035037Y-38036326D01*
X82230261Y-38169717D01*
X82462000Y-38216645D01*
X82500800Y-38216645D01*
X82500800Y-39124412D01*
X81999388Y-39625824D01*
X81766187Y-39625621D01*
X81385938Y-39782737D01*
X81094759Y-40073408D01*
X80936980Y-40453382D01*
X80936621Y-40864813D01*
X81093737Y-41245062D01*
X81384408Y-41536241D01*
X81457383Y-41566543D01*
X74804409Y-41566543D01*
X74879032Y-41386832D01*
X74879165Y-41234623D01*
X75243143Y-40870645D01*
X75971000Y-40870645D01*
X76187492Y-40829909D01*
X76386326Y-40701963D01*
X76519717Y-40506739D01*
X76546759Y-40373200D01*
X76564355Y-40373200D01*
X76564355Y-40412000D01*
X76605091Y-40628492D01*
X76733037Y-40827326D01*
X76928261Y-40960717D01*
X77160000Y-41007645D01*
X78460000Y-41007645D01*
X78676492Y-40966909D01*
X78875326Y-40838963D01*
X79008717Y-40643739D01*
X79055645Y-40412000D01*
X79055645Y-38912000D01*
X79014909Y-38695508D01*
X78886963Y-38496674D01*
X78691739Y-38363283D01*
X78460000Y-38316355D01*
X77160000Y-38316355D01*
X76943508Y-38357091D01*
X76744674Y-38485037D01*
X76611283Y-38680261D01*
X76564355Y-38912000D01*
X76564355Y-38950800D01*
X76562091Y-38950800D01*
X76525909Y-38758508D01*
X76397963Y-38559674D01*
X76202739Y-38426283D01*
X75971000Y-38379355D01*
X74471000Y-38379355D01*
X74254508Y-38420091D01*
X74055674Y-38548037D01*
X73922283Y-38743261D01*
X73875355Y-38975000D01*
X73875355Y-40226857D01*
X73873448Y-40228764D01*
X73866645Y-40228758D01*
X73866645Y-38975000D01*
X73825909Y-38758508D01*
X73697963Y-38559674D01*
X73585700Y-38482968D01*
X73585700Y-37827000D01*
X73556898Y-37682200D01*
X73549538Y-37645200D01*
X76564355Y-37645200D01*
X76564355Y-37712000D01*
X76605091Y-37928492D01*
X76733037Y-38127326D01*
X76928261Y-38260717D01*
X77160000Y-38307645D01*
X78460000Y-38307645D01*
X78676492Y-38266909D01*
X78875326Y-38138963D01*
X79008717Y-37943739D01*
X79055645Y-37712000D01*
X79055645Y-37673200D01*
X79176177Y-37673200D01*
X79207091Y-37837492D01*
X79335037Y-38036326D01*
X79530261Y-38169717D01*
X79762000Y-38216645D01*
X81262000Y-38216645D01*
X81478492Y-38175909D01*
X81677326Y-38047963D01*
X81810717Y-37852739D01*
X81857645Y-37621000D01*
X81857645Y-36321000D01*
X81816909Y-36104508D01*
X81688963Y-35905674D01*
X81493739Y-35772283D01*
X81262000Y-35725355D01*
X81223200Y-35725355D01*
X81223200Y-33552645D01*
X81278000Y-33552645D01*
X81494492Y-33511909D01*
X81693326Y-33383963D01*
X81778403Y-33259449D01*
X81851037Y-33372326D01*
X82046261Y-33505717D01*
X82278000Y-33552645D01*
X82436071Y-33552645D01*
X82525106Y-33685894D01*
X83313824Y-34474612D01*
X83313621Y-34707813D01*
X83470737Y-35088062D01*
X83761408Y-35379241D01*
X84141382Y-35537020D01*
X84552813Y-35537379D01*
X84933062Y-35380263D01*
X85224241Y-35089592D01*
X85382020Y-34709618D01*
X85382379Y-34298187D01*
X85225263Y-33917938D01*
X84934592Y-33626759D01*
X84554618Y-33468980D01*
X84319563Y-33468775D01*
X84210141Y-33359353D01*
X84326717Y-33188739D01*
X84356189Y-33043200D01*
X90214355Y-33043200D01*
X90214355Y-33070000D01*
X90255091Y-33286492D01*
X90383037Y-33485326D01*
X90578261Y-33618717D01*
X90810000Y-33665645D01*
X92110000Y-33665645D01*
X92326492Y-33624909D01*
X92525326Y-33496963D01*
X92658717Y-33301739D01*
X92705645Y-33070000D01*
X92705645Y-33031200D01*
X92920177Y-33031200D01*
X92951091Y-33195492D01*
X93079037Y-33394326D01*
X93274261Y-33527717D01*
X93506000Y-33574645D01*
X95006000Y-33574645D01*
X95222492Y-33533909D01*
X95421326Y-33405963D01*
X95554717Y-33210739D01*
X95601645Y-32979000D01*
X95601645Y-31711200D01*
X95610355Y-31711200D01*
X95610355Y-32979000D01*
X95651091Y-33195492D01*
X95779037Y-33394326D01*
X95974261Y-33527717D01*
X96206000Y-33574645D01*
X96244800Y-33574645D01*
X96244800Y-34791241D01*
X96111795Y-34846198D01*
X95665764Y-35291451D01*
X95424076Y-35873501D01*
X95423526Y-36503734D01*
X95664198Y-37086205D01*
X96109451Y-37532236D01*
X96691501Y-37773924D01*
X97321734Y-37774474D01*
X97904205Y-37533802D01*
X98350236Y-37088549D01*
X98591924Y-36506499D01*
X98592474Y-35876266D01*
X98351802Y-35293795D01*
X97906549Y-34847764D01*
X97667200Y-34748378D01*
X97667200Y-33574645D01*
X97706000Y-33574645D01*
X97922492Y-33533909D01*
X98121326Y-33405963D01*
X98254717Y-33210739D01*
X98301645Y-32979000D01*
X98301645Y-31711200D01*
X120288800Y-31711200D01*
X120288800Y-35910355D01*
X116297000Y-35910355D01*
X116080508Y-35951091D01*
X115881674Y-36079037D01*
X115748283Y-36274261D01*
X115701355Y-36506000D01*
X115701355Y-36532800D01*
X112320645Y-36532800D01*
X112320645Y-36502000D01*
X112279909Y-36285508D01*
X112151963Y-36086674D01*
X111956739Y-35953283D01*
X111725000Y-35906355D01*
X110475000Y-35906355D01*
X110258508Y-35947091D01*
X110059674Y-36075037D01*
X109926283Y-36270261D01*
X109879355Y-36502000D01*
X109879355Y-38002000D01*
X109920091Y-38218492D01*
X110048037Y-38417326D01*
X110172551Y-38502403D01*
X110059674Y-38575037D01*
X109926283Y-38770261D01*
X109879355Y-39002000D01*
X109879355Y-39064800D01*
X109403645Y-39064800D01*
X109403645Y-39026000D01*
X109362909Y-38809508D01*
X109234963Y-38610674D01*
X109039739Y-38477283D01*
X108808000Y-38430355D01*
X107779433Y-38430355D01*
X107788143Y-38421645D01*
X108808000Y-38421645D01*
X109024492Y-38380909D01*
X109223326Y-38252963D01*
X109356717Y-38057739D01*
X109403645Y-37826000D01*
X109403645Y-36326000D01*
X109362909Y-36109508D01*
X109234963Y-35910674D01*
X109039739Y-35777283D01*
X108869200Y-35742748D01*
X108869200Y-35623645D01*
X108909000Y-35623645D01*
X109125492Y-35582909D01*
X109324326Y-35454963D01*
X109457717Y-35259739D01*
X109504645Y-35028000D01*
X109504645Y-33778000D01*
X109463909Y-33561508D01*
X109335963Y-33362674D01*
X109140739Y-33229283D01*
X108909000Y-33182355D01*
X107409000Y-33182355D01*
X107192508Y-33223091D01*
X106993674Y-33351037D01*
X106860283Y-33546261D01*
X106813355Y-33778000D01*
X106813355Y-35028000D01*
X106854091Y-35244492D01*
X106982037Y-35443326D01*
X107177261Y-35576717D01*
X107409000Y-35623645D01*
X107446800Y-35623645D01*
X107446800Y-35741871D01*
X107291508Y-35771091D01*
X107092674Y-35899037D01*
X106959283Y-36094261D01*
X106912355Y-36326000D01*
X106912355Y-37285857D01*
X105976106Y-38222106D01*
X105821937Y-38452835D01*
X105792856Y-38599037D01*
X105767800Y-38725000D01*
X105767800Y-41415000D01*
X105821937Y-41687165D01*
X105976106Y-41917894D01*
X107249355Y-43191143D01*
X107249355Y-44156000D01*
X107290091Y-44372492D01*
X107418037Y-44571326D01*
X107613261Y-44704717D01*
X107845000Y-44751645D01*
X108809857Y-44751645D01*
X109755800Y-45697588D01*
X109755800Y-46368011D01*
X108482894Y-45095106D01*
X108252165Y-44940937D01*
X107980000Y-44886800D01*
X100195129Y-44886800D01*
X100165909Y-44731508D01*
X100037963Y-44532674D01*
X99842739Y-44399283D01*
X99611000Y-44352355D01*
X98111000Y-44352355D01*
X97894508Y-44393091D01*
X97695674Y-44521037D01*
X97562283Y-44716261D01*
X97515355Y-44948000D01*
X97515355Y-46248000D01*
X97556091Y-46464492D01*
X97684037Y-46663326D01*
X97879261Y-46796717D01*
X98111000Y-46843645D01*
X99611000Y-46843645D01*
X99827492Y-46802909D01*
X100026326Y-46674963D01*
X100159717Y-46479739D01*
X100194252Y-46309200D01*
X107685412Y-46309200D01*
X108965566Y-47589355D01*
X108442000Y-47589355D01*
X108253627Y-47624800D01*
X106863645Y-47624800D01*
X106863645Y-47586000D01*
X106822909Y-47369508D01*
X106694963Y-47170674D01*
X106499739Y-47037283D01*
X106268000Y-46990355D01*
X105018000Y-46990355D01*
X104801508Y-47031091D01*
X104602674Y-47159037D01*
X104469283Y-47354261D01*
X104422355Y-47586000D01*
X104422355Y-47624800D01*
X103771129Y-47624800D01*
X103741909Y-47469508D01*
X103613963Y-47270674D01*
X103418739Y-47137283D01*
X103187000Y-47090355D01*
X101687000Y-47090355D01*
X101470508Y-47131091D01*
X101271674Y-47259037D01*
X101138283Y-47454261D01*
X101091355Y-47686000D01*
X101091355Y-48986000D01*
X101132091Y-49202492D01*
X101260037Y-49401326D01*
X101455261Y-49534717D01*
X101687000Y-49581645D01*
X103187000Y-49581645D01*
X103403492Y-49540909D01*
X103602326Y-49412963D01*
X103735717Y-49217739D01*
X103770252Y-49047200D01*
X104422355Y-49047200D01*
X104422355Y-49086000D01*
X104463091Y-49302492D01*
X104591037Y-49501326D01*
X104715551Y-49586403D01*
X104602674Y-49659037D01*
X104469283Y-49854261D01*
X104422355Y-50086000D01*
X104422355Y-51586000D01*
X104463091Y-51802492D01*
X104591037Y-52001326D01*
X104786261Y-52134717D01*
X105018000Y-52181645D01*
X106268000Y-52181645D01*
X106484492Y-52140909D01*
X106683326Y-52012963D01*
X106816717Y-51817739D01*
X106863645Y-51586000D01*
X106863645Y-51547200D01*
X108366000Y-51547200D01*
X108638165Y-51493063D01*
X108868894Y-51338894D01*
X109117143Y-51090645D01*
X109332000Y-51090645D01*
X109548492Y-51049909D01*
X109747326Y-50921963D01*
X109880717Y-50726739D01*
X109927645Y-50495000D01*
X109927645Y-50135000D01*
X109886909Y-49918508D01*
X109758963Y-49719674D01*
X109563739Y-49586283D01*
X109332000Y-49539355D01*
X108442000Y-49539355D01*
X108225508Y-49580091D01*
X108026674Y-49708037D01*
X107893283Y-49903261D01*
X107848421Y-50124800D01*
X106863645Y-50124800D01*
X106863645Y-50086000D01*
X106822909Y-49869508D01*
X106694963Y-49670674D01*
X106570449Y-49585597D01*
X106683326Y-49512963D01*
X106816717Y-49317739D01*
X106863645Y-49086000D01*
X106863645Y-49047200D01*
X108142181Y-49047200D01*
X108210261Y-49093717D01*
X108442000Y-49140645D01*
X109332000Y-49140645D01*
X109548492Y-49099909D01*
X109747326Y-48971963D01*
X109880717Y-48776739D01*
X109927645Y-48545000D01*
X109927645Y-48475645D01*
X109997000Y-48475645D01*
X110147322Y-48447360D01*
X110287000Y-48475645D01*
X110647000Y-48475645D01*
X110797322Y-48447360D01*
X110937000Y-48475645D01*
X111297000Y-48475645D01*
X111513492Y-48434909D01*
X111712326Y-48306963D01*
X111845717Y-48111739D01*
X111892645Y-47880000D01*
X111892645Y-46990000D01*
X111851909Y-46773508D01*
X111828200Y-46736663D01*
X111828200Y-41078226D01*
X111941492Y-41056909D01*
X112140326Y-40928963D01*
X112273717Y-40733739D01*
X112320645Y-40502000D01*
X112320645Y-39002000D01*
X112279909Y-38785508D01*
X112151963Y-38586674D01*
X112027449Y-38501597D01*
X112140326Y-38428963D01*
X112273717Y-38233739D01*
X112320645Y-38002000D01*
X112320645Y-37955200D01*
X115710613Y-37955200D01*
X115742091Y-38122492D01*
X115870037Y-38321326D01*
X116065261Y-38454717D01*
X116297000Y-38501645D01*
X120288800Y-38501645D01*
X120288800Y-78358355D01*
X116296000Y-78358355D01*
X116079508Y-78399091D01*
X115880674Y-78527037D01*
X115747283Y-78722261D01*
X115700355Y-78954000D01*
X115700355Y-78973800D01*
X112886512Y-78973800D01*
X112920717Y-78923739D01*
X112967645Y-78692000D01*
X112967645Y-77142000D01*
X112926909Y-76925508D01*
X112798963Y-76726674D01*
X112603739Y-76593283D01*
X112372000Y-76546355D01*
X111762000Y-76546355D01*
X111545508Y-76587091D01*
X111346674Y-76715037D01*
X111213283Y-76910261D01*
X111166355Y-77142000D01*
X111166355Y-77205800D01*
X108811359Y-77205800D01*
X108795963Y-77181874D01*
X108600739Y-77048483D01*
X108369000Y-77001555D01*
X107099000Y-77001555D01*
X106882508Y-77042291D01*
X106683674Y-77170237D01*
X106550283Y-77365461D01*
X106503355Y-77597200D01*
X106503355Y-78105200D01*
X106505937Y-78118923D01*
X106314739Y-77988283D01*
X106083000Y-77941355D01*
X104813000Y-77941355D01*
X104596508Y-77982091D01*
X104444664Y-78079800D01*
X103459645Y-78079800D01*
X103459645Y-77940000D01*
X103421606Y-77737842D01*
X103459645Y-77550000D01*
X103459645Y-76790000D01*
X103421606Y-76587842D01*
X103459645Y-76400000D01*
X103459645Y-74720000D01*
X103418909Y-74503508D01*
X103290963Y-74304674D01*
X103095739Y-74171283D01*
X102864000Y-74124355D01*
X102608200Y-74124355D01*
X102608200Y-73972000D01*
X111166355Y-73972000D01*
X111166355Y-75522000D01*
X111207091Y-75738492D01*
X111335037Y-75937326D01*
X111530261Y-76070717D01*
X111762000Y-76117645D01*
X112372000Y-76117645D01*
X112588492Y-76076909D01*
X112787326Y-75948963D01*
X112920717Y-75753739D01*
X112967645Y-75522000D01*
X112967645Y-75446336D01*
X113180165Y-75404063D01*
X113410894Y-75249894D01*
X115340894Y-73319894D01*
X115495063Y-73089165D01*
X115513363Y-72997164D01*
X115549200Y-72817000D01*
X115549200Y-72518097D01*
X115633326Y-72463963D01*
X115766717Y-72268739D01*
X115813645Y-72037000D01*
X115813645Y-70517000D01*
X115772909Y-70300508D01*
X115644963Y-70101674D01*
X115449739Y-69968283D01*
X115218000Y-69921355D01*
X114458000Y-69921355D01*
X114241508Y-69962091D01*
X114042674Y-70090037D01*
X113909283Y-70285261D01*
X113862355Y-70517000D01*
X113862355Y-72037000D01*
X113903091Y-72253492D01*
X114031037Y-72452326D01*
X114126800Y-72517758D01*
X114126800Y-72522412D01*
X112913908Y-73735304D01*
X112798963Y-73556674D01*
X112603739Y-73423283D01*
X112372000Y-73376355D01*
X111762000Y-73376355D01*
X111545508Y-73417091D01*
X111346674Y-73545037D01*
X111213283Y-73740261D01*
X111166355Y-73972000D01*
X102608200Y-73972000D01*
X102608200Y-73714425D01*
X102738492Y-73689909D01*
X102937326Y-73561963D01*
X103070717Y-73366739D01*
X103117645Y-73135000D01*
X103117645Y-71635000D01*
X103076909Y-71418508D01*
X102948963Y-71219674D01*
X102824449Y-71134597D01*
X102937326Y-71061963D01*
X103070717Y-70866739D01*
X103117645Y-70635000D01*
X103117645Y-69135000D01*
X103076909Y-68918508D01*
X102948963Y-68719674D01*
X102753739Y-68586283D01*
X102522000Y-68539355D01*
X102057068Y-68539355D01*
X101198837Y-67681124D01*
X101478059Y-67565752D01*
X101483091Y-67592492D01*
X101611037Y-67791326D01*
X101806261Y-67924717D01*
X102038000Y-67971645D01*
X103538000Y-67971645D01*
X103754492Y-67930909D01*
X103953326Y-67802963D01*
X104038403Y-67678449D01*
X104111037Y-67791326D01*
X104306261Y-67924717D01*
X104538000Y-67971645D01*
X106038000Y-67971645D01*
X106254492Y-67930909D01*
X106453326Y-67802963D01*
X106586717Y-67607739D01*
X106616999Y-67458200D01*
X110052355Y-67458200D01*
X110052355Y-67507000D01*
X110093091Y-67723492D01*
X110221037Y-67922326D01*
X110416261Y-68055717D01*
X110648000Y-68102645D01*
X111408000Y-68102645D01*
X111624492Y-68061909D01*
X111823326Y-67933963D01*
X111956717Y-67738739D01*
X112003645Y-67507000D01*
X112003645Y-65987000D01*
X112592355Y-65987000D01*
X112592355Y-67507000D01*
X112633091Y-67723492D01*
X112761037Y-67922326D01*
X112956261Y-68055717D01*
X113188000Y-68102645D01*
X113948000Y-68102645D01*
X114164492Y-68061909D01*
X114363326Y-67933963D01*
X114496717Y-67738739D01*
X114543645Y-67507000D01*
X114543645Y-65987000D01*
X114502909Y-65770508D01*
X114374963Y-65571674D01*
X114279200Y-65506242D01*
X114279200Y-58728812D01*
X114406779Y-58601456D01*
X114554032Y-58246832D01*
X114554367Y-57862852D01*
X114407734Y-57507973D01*
X114136456Y-57236221D01*
X113781832Y-57088968D01*
X113397852Y-57088633D01*
X113042973Y-57235266D01*
X112771221Y-57506544D01*
X112623968Y-57861168D01*
X112623633Y-58245148D01*
X112770266Y-58600027D01*
X112856800Y-58686712D01*
X112856800Y-65505903D01*
X112772674Y-65560037D01*
X112639283Y-65755261D01*
X112592355Y-65987000D01*
X112003645Y-65987000D01*
X111962909Y-65770508D01*
X111901092Y-65674441D01*
X111930492Y-65668909D01*
X112129326Y-65540963D01*
X112262717Y-65345739D01*
X112309645Y-65114000D01*
X112309645Y-63614000D01*
X112268909Y-63397508D01*
X112140963Y-63198674D01*
X112016449Y-63113597D01*
X112129326Y-63040963D01*
X112262717Y-62845739D01*
X112309645Y-62614000D01*
X112309645Y-61114000D01*
X112268909Y-60897508D01*
X112140963Y-60698674D01*
X111945739Y-60565283D01*
X111800200Y-60535811D01*
X111800200Y-59292425D01*
X111930492Y-59267909D01*
X112129326Y-59139963D01*
X112262717Y-58944739D01*
X112309645Y-58713000D01*
X112309645Y-57213000D01*
X112268909Y-56996508D01*
X112140963Y-56797674D01*
X112016449Y-56712597D01*
X112129326Y-56639963D01*
X112262717Y-56444739D01*
X112309645Y-56213000D01*
X112309645Y-54713000D01*
X112268909Y-54496508D01*
X112140963Y-54297674D01*
X111945739Y-54164283D01*
X111800200Y-54134811D01*
X111800200Y-51988355D01*
X111845717Y-51921739D01*
X111892645Y-51690000D01*
X111892645Y-50800000D01*
X111851909Y-50583508D01*
X111723963Y-50384674D01*
X111528739Y-50251283D01*
X111297000Y-50204355D01*
X110937000Y-50204355D01*
X110720508Y-50245091D01*
X110521674Y-50373037D01*
X110388283Y-50568261D01*
X110341355Y-50800000D01*
X110341355Y-51690000D01*
X110377800Y-51883687D01*
X110377800Y-54133575D01*
X110247508Y-54158091D01*
X110048674Y-54286037D01*
X109915283Y-54481261D01*
X109868355Y-54713000D01*
X109868355Y-54762800D01*
X106052129Y-54762800D01*
X106022909Y-54607508D01*
X105894963Y-54408674D01*
X105699739Y-54275283D01*
X105468000Y-54228355D01*
X103968000Y-54228355D01*
X103751508Y-54269091D01*
X103552674Y-54397037D01*
X103419283Y-54592261D01*
X103372355Y-54824000D01*
X103372355Y-56124000D01*
X103413091Y-56340492D01*
X103541037Y-56539326D01*
X103736261Y-56672717D01*
X103968000Y-56719645D01*
X105468000Y-56719645D01*
X105684492Y-56678909D01*
X105883326Y-56550963D01*
X106016717Y-56355739D01*
X106051252Y-56185200D01*
X109868355Y-56185200D01*
X109868355Y-56213000D01*
X109909091Y-56429492D01*
X110037037Y-56628326D01*
X110161551Y-56713403D01*
X110048674Y-56786037D01*
X109915283Y-56981261D01*
X109868355Y-57213000D01*
X109868355Y-58713000D01*
X109909091Y-58929492D01*
X110037037Y-59128326D01*
X110232261Y-59261717D01*
X110377800Y-59291189D01*
X110377800Y-60534575D01*
X110247508Y-60559091D01*
X110048674Y-60687037D01*
X109915283Y-60882261D01*
X109868355Y-61114000D01*
X109868355Y-62614000D01*
X109909091Y-62830492D01*
X110037037Y-63029326D01*
X110161551Y-63114403D01*
X110048674Y-63187037D01*
X109915283Y-63382261D01*
X109868355Y-63614000D01*
X109868355Y-63652800D01*
X109282844Y-63652800D01*
X109245909Y-63456508D01*
X109117963Y-63257674D01*
X108922739Y-63124283D01*
X108691000Y-63077355D01*
X107391000Y-63077355D01*
X107174508Y-63118091D01*
X106975674Y-63246037D01*
X106842283Y-63441261D01*
X106795355Y-63673000D01*
X106795355Y-63711800D01*
X105106870Y-63711800D01*
X105012456Y-63617221D01*
X104657832Y-63469968D01*
X104273852Y-63469633D01*
X104132645Y-63527979D01*
X104132645Y-62545000D01*
X104091909Y-62328508D01*
X103963963Y-62129674D01*
X103768739Y-61996283D01*
X103537000Y-61949355D01*
X102037000Y-61949355D01*
X101820508Y-61990091D01*
X101621674Y-62118037D01*
X101488283Y-62313261D01*
X101441355Y-62545000D01*
X101441355Y-63845000D01*
X101482091Y-64061492D01*
X101610037Y-64260326D01*
X101805261Y-64393717D01*
X102037000Y-64440645D01*
X102075800Y-64440645D01*
X102075800Y-65530355D01*
X102038000Y-65530355D01*
X101821508Y-65571091D01*
X101622674Y-65699037D01*
X101496266Y-65884041D01*
X101187832Y-65755968D01*
X100803852Y-65755633D01*
X100448973Y-65902266D01*
X100177221Y-66173544D01*
X100034637Y-66516924D01*
X93764414Y-60246700D01*
X95632986Y-60246700D01*
X96535355Y-61149068D01*
X96535355Y-61590000D01*
X96576091Y-61806492D01*
X96704037Y-62005326D01*
X96899261Y-62138717D01*
X97131000Y-62185645D01*
X97571931Y-62185645D01*
X98741355Y-63355068D01*
X98741355Y-63845000D01*
X98782091Y-64061492D01*
X98910037Y-64260326D01*
X99105261Y-64393717D01*
X99337000Y-64440645D01*
X100837000Y-64440645D01*
X101053492Y-64399909D01*
X101252326Y-64271963D01*
X101385717Y-64076739D01*
X101432645Y-63845000D01*
X101432645Y-62545000D01*
X101391909Y-62328508D01*
X101263963Y-62129674D01*
X101068739Y-61996283D01*
X100837000Y-61949355D01*
X100347068Y-61949355D01*
X99406862Y-61009148D01*
X104678633Y-61009148D01*
X104825266Y-61364027D01*
X105096544Y-61635779D01*
X105451168Y-61783032D01*
X105603376Y-61783165D01*
X106046105Y-62225894D01*
X106276835Y-62380063D01*
X106321990Y-62389045D01*
X106549000Y-62434200D01*
X106795355Y-62434200D01*
X106795355Y-62473000D01*
X106836091Y-62689492D01*
X106964037Y-62888326D01*
X107159261Y-63021717D01*
X107391000Y-63068645D01*
X108691000Y-63068645D01*
X108907492Y-63027909D01*
X109106326Y-62899963D01*
X109239717Y-62704739D01*
X109286645Y-62473000D01*
X109286645Y-60973000D01*
X109245909Y-60756508D01*
X109117963Y-60557674D01*
X108922739Y-60424283D01*
X108752200Y-60389748D01*
X108752200Y-60331645D01*
X108782000Y-60331645D01*
X108998492Y-60290909D01*
X109197326Y-60162963D01*
X109330717Y-59967739D01*
X109377645Y-59736000D01*
X109377645Y-58486000D01*
X109336909Y-58269508D01*
X109208963Y-58070674D01*
X109013739Y-57937283D01*
X108782000Y-57890355D01*
X107282000Y-57890355D01*
X107065508Y-57931091D01*
X106866674Y-58059037D01*
X106733283Y-58254261D01*
X106686355Y-58486000D01*
X106686355Y-59736000D01*
X106727091Y-59952492D01*
X106855037Y-60151326D01*
X107050261Y-60284717D01*
X107282000Y-60331645D01*
X107329800Y-60331645D01*
X107329800Y-60388871D01*
X107174508Y-60418091D01*
X106975674Y-60546037D01*
X106842283Y-60741261D01*
X106796944Y-60965155D01*
X106609236Y-60777447D01*
X106609367Y-60626852D01*
X106462734Y-60271973D01*
X106191456Y-60000221D01*
X105836832Y-59852968D01*
X105452852Y-59852633D01*
X105097973Y-59999266D01*
X104826221Y-60270544D01*
X104678968Y-60625168D01*
X104678633Y-61009148D01*
X99406862Y-61009148D01*
X99226645Y-60828931D01*
X99226645Y-60340000D01*
X99185909Y-60123508D01*
X99063866Y-59933848D01*
X100033069Y-58964645D01*
X100435000Y-58964645D01*
X100651492Y-58923909D01*
X100850326Y-58795963D01*
X100983717Y-58600739D01*
X101030645Y-58369000D01*
X101030645Y-57967069D01*
X102278069Y-56719645D01*
X102768000Y-56719645D01*
X102984492Y-56678909D01*
X103183326Y-56550963D01*
X103316717Y-56355739D01*
X103363645Y-56124000D01*
X103363645Y-54824000D01*
X103322909Y-54607508D01*
X103194963Y-54408674D01*
X102999739Y-54275283D01*
X102768000Y-54228355D01*
X101268000Y-54228355D01*
X101051508Y-54269091D01*
X100852674Y-54397037D01*
X100719283Y-54592261D01*
X100672355Y-54824000D01*
X100672355Y-55313931D01*
X99462931Y-56523355D01*
X98935000Y-56523355D01*
X98718508Y-56564091D01*
X98519674Y-56692037D01*
X98386283Y-56887261D01*
X98339355Y-57119000D01*
X98339355Y-57646931D01*
X97868986Y-58117300D01*
X96074005Y-58117300D01*
X96074000Y-58117299D01*
X96073995Y-58117300D01*
X92469000Y-58117300D01*
X92467778Y-58117543D01*
X91461171Y-58117543D01*
X97200068Y-52378645D01*
X97569000Y-52378645D01*
X97785492Y-52337909D01*
X97984326Y-52209963D01*
X98117717Y-52014739D01*
X98164645Y-51783000D01*
X98164645Y-51414069D01*
X99997068Y-49581645D01*
X100487000Y-49581645D01*
X100703492Y-49540909D01*
X100902326Y-49412963D01*
X101035717Y-49217739D01*
X101082645Y-48986000D01*
X101082645Y-47686000D01*
X101041909Y-47469508D01*
X100913963Y-47270674D01*
X100718739Y-47137283D01*
X100487000Y-47090355D01*
X98987000Y-47090355D01*
X98770508Y-47131091D01*
X98571674Y-47259037D01*
X98438283Y-47454261D01*
X98391355Y-47686000D01*
X98391355Y-48175932D01*
X96629931Y-49937355D01*
X96069000Y-49937355D01*
X95852508Y-49978091D01*
X95653674Y-50106037D01*
X95520283Y-50301261D01*
X95473355Y-50533000D01*
X95473355Y-51093932D01*
X88449986Y-58117300D01*
X85147414Y-58117300D01*
X93568069Y-49696645D01*
X94049000Y-49696645D01*
X94265492Y-49655909D01*
X94464326Y-49527963D01*
X94597717Y-49332739D01*
X94644645Y-49101000D01*
X94644645Y-48620069D01*
X96421069Y-46843645D01*
X96911000Y-46843645D01*
X97127492Y-46802909D01*
X97326326Y-46674963D01*
X97459717Y-46479739D01*
X97506645Y-46248000D01*
X97506645Y-44948000D01*
X97465909Y-44731508D01*
X97337963Y-44532674D01*
X97142739Y-44399283D01*
X96911000Y-44352355D01*
X95411000Y-44352355D01*
X95194508Y-44393091D01*
X94995674Y-44521037D01*
X94862283Y-44716261D01*
X94815355Y-44948000D01*
X94815355Y-45437931D01*
X92997931Y-47255355D01*
X92549000Y-47255355D01*
X92332508Y-47296091D01*
X92133674Y-47424037D01*
X92000283Y-47619261D01*
X91953355Y-47851000D01*
X91953355Y-48299931D01*
X82135986Y-58117300D01*
X80355000Y-58117300D01*
X80353778Y-58117543D01*
X77267227Y-58117543D01*
X77266000Y-58117299D01*
X77265995Y-58117300D01*
X75225000Y-58117300D01*
X75223778Y-58117543D01*
X74061827Y-58117543D01*
X77709002Y-54470368D01*
X77778264Y-54470428D01*
X78261462Y-54270774D01*
X78631475Y-53901407D01*
X78788138Y-53524121D01*
X78943226Y-53899462D01*
X79312593Y-54269475D01*
X79795443Y-54469972D01*
X80318264Y-54470428D01*
X80801462Y-54270774D01*
X81171475Y-53901407D01*
X81328138Y-53524121D01*
X81483226Y-53899462D01*
X81852593Y-54269475D01*
X82335443Y-54469972D01*
X82858264Y-54470428D01*
X83341462Y-54270774D01*
X83711475Y-53901407D01*
X83868138Y-53524121D01*
X84023226Y-53899462D01*
X84392593Y-54269475D01*
X84875443Y-54469972D01*
X85398264Y-54470428D01*
X85881462Y-54270774D01*
X86251475Y-53901407D01*
X86451972Y-53418557D01*
X86452428Y-52895736D01*
X86252774Y-52412538D01*
X85883407Y-52042525D01*
X85400557Y-51842028D01*
X84877736Y-51841572D01*
X84394538Y-52041226D01*
X84024525Y-52410593D01*
X83867862Y-52787879D01*
X83712774Y-52412538D01*
X83343407Y-52042525D01*
X82860557Y-51842028D01*
X82337736Y-51841572D01*
X81854538Y-52041226D01*
X81484525Y-52410593D01*
X81327862Y-52787879D01*
X81172774Y-52412538D01*
X80803407Y-52042525D01*
X80320557Y-51842028D01*
X79797736Y-51841572D01*
X79314538Y-52041226D01*
X78944525Y-52410593D01*
X78787862Y-52787879D01*
X78632774Y-52412538D01*
X78263407Y-52042525D01*
X77780557Y-51842028D01*
X77257736Y-51841572D01*
X76774538Y-52041226D01*
X76404525Y-52410593D01*
X76247862Y-52787879D01*
X76092774Y-52412538D01*
X75723407Y-52042525D01*
X75240557Y-51842028D01*
X74717736Y-51841572D01*
X74234538Y-52041226D01*
X74217261Y-52058473D01*
X69140894Y-46982106D01*
X68910165Y-46827937D01*
X68638000Y-46773800D01*
X68047645Y-46773800D01*
X68047645Y-46735000D01*
X68006909Y-46518508D01*
X67878963Y-46319674D01*
X67683739Y-46186283D01*
X67452000Y-46139355D01*
X66152000Y-46139355D01*
X65935508Y-46180091D01*
X65736674Y-46308037D01*
X65603283Y-46503261D01*
X65556355Y-46735000D01*
X65556355Y-48235000D01*
X65597091Y-48451492D01*
X65725037Y-48650326D01*
X65920261Y-48783717D01*
X66152000Y-48830645D01*
X67452000Y-48830645D01*
X67668492Y-48789909D01*
X67867326Y-48661963D01*
X68000717Y-48466739D01*
X68047645Y-48235000D01*
X68047645Y-48196200D01*
X68343412Y-48196200D01*
X70985254Y-50838042D01*
X70793000Y-50799800D01*
X67248588Y-50799800D01*
X63744645Y-47295857D01*
X63744645Y-46791000D01*
X63703909Y-46574508D01*
X63575963Y-46375674D01*
X63380739Y-46242283D01*
X63149000Y-46195355D01*
X61849000Y-46195355D01*
X61632508Y-46236091D01*
X61433674Y-46364037D01*
X61300283Y-46559261D01*
X61253355Y-46791000D01*
X61253355Y-48291000D01*
X61294091Y-48507492D01*
X61422037Y-48706326D01*
X61617261Y-48839717D01*
X61849000Y-48886645D01*
X63149000Y-48886645D01*
X63296166Y-48858954D01*
X66451106Y-52013894D01*
X66681835Y-52168063D01*
X66954000Y-52222200D01*
X68973247Y-52222200D01*
X68784525Y-52410593D01*
X68584028Y-52893443D01*
X68583572Y-53416264D01*
X68783226Y-53899462D01*
X69152593Y-54269475D01*
X69635443Y-54469972D01*
X70158264Y-54470428D01*
X70641462Y-54270774D01*
X71011475Y-53901407D01*
X71168138Y-53524121D01*
X71323226Y-53899462D01*
X71692593Y-54269475D01*
X72175443Y-54469972D01*
X72698264Y-54470428D01*
X73181462Y-54270774D01*
X73551475Y-53901407D01*
X73697339Y-53550127D01*
X73734053Y-53586841D01*
X73863226Y-53899462D01*
X74232593Y-54269475D01*
X74703583Y-54465047D01*
X71760500Y-57408130D01*
X71788973Y-57339560D01*
X71789426Y-56820717D01*
X71591292Y-56341195D01*
X71224735Y-55973998D01*
X70745560Y-55775027D01*
X70226717Y-55774574D01*
X69747195Y-55972708D01*
X69379998Y-56339265D01*
X69214839Y-56737011D01*
X69051292Y-56341195D01*
X68684735Y-55973998D01*
X68205560Y-55775027D01*
X67686717Y-55774574D01*
X67207195Y-55972708D01*
X66839998Y-56339265D01*
X66674839Y-56737011D01*
X66511292Y-56341195D01*
X66144735Y-55973998D01*
X65665560Y-55775027D01*
X65146717Y-55774574D01*
X64667195Y-55972708D01*
X64299998Y-56339265D01*
X64101027Y-56818440D01*
X64100574Y-57337283D01*
X64298708Y-57816805D01*
X64598922Y-58117543D01*
X54568171Y-58117543D01*
X57300069Y-55385645D01*
X57790000Y-55385645D01*
X58006492Y-55344909D01*
X58205326Y-55216963D01*
X58338717Y-55021739D01*
X58385645Y-54790000D01*
X58385645Y-53290000D01*
X58344909Y-53073508D01*
X58216963Y-52874674D01*
X58021739Y-52741283D01*
X57790000Y-52694355D01*
X56490000Y-52694355D01*
X56273508Y-52735091D01*
X56074674Y-52863037D01*
X55941283Y-53058261D01*
X55894355Y-53290000D01*
X55894355Y-53779931D01*
X51779931Y-57894355D01*
X51511000Y-57894355D01*
X51294508Y-57935091D01*
X51188307Y-58003429D01*
X51041739Y-57903283D01*
X50810000Y-57856355D01*
X49510000Y-57856355D01*
X49293508Y-57897091D01*
X49094674Y-58025037D01*
X49012502Y-58145300D01*
X47945000Y-58145300D01*
X47943778Y-58145543D01*
X45021897Y-58145543D01*
X44871470Y-57994853D01*
X44739697Y-57940136D01*
X44869348Y-57886565D01*
X45273147Y-57483470D01*
X45315613Y-57381200D01*
X48938666Y-57381200D01*
X48955091Y-57468492D01*
X49083037Y-57667326D01*
X49278261Y-57800717D01*
X49510000Y-57847645D01*
X50810000Y-57847645D01*
X51026492Y-57806909D01*
X51225326Y-57678963D01*
X51358717Y-57483739D01*
X51405645Y-57252000D01*
X51405645Y-55752000D01*
X51364909Y-55535508D01*
X51236963Y-55336674D01*
X51041739Y-55203283D01*
X50810000Y-55156355D01*
X50805200Y-55156355D01*
X50805200Y-49738285D01*
X50831805Y-49727292D01*
X51199002Y-49360735D01*
X51397973Y-48881560D01*
X51398426Y-48362717D01*
X51200292Y-47883195D01*
X50833735Y-47515998D01*
X50354560Y-47317027D01*
X49835717Y-47316574D01*
X49356195Y-47514708D01*
X48988998Y-47881265D01*
X48790027Y-48360440D01*
X48789574Y-48879283D01*
X48987708Y-49358805D01*
X49354265Y-49726002D01*
X49382800Y-49737851D01*
X49382800Y-55180289D01*
X49293508Y-55197091D01*
X49094674Y-55325037D01*
X48961283Y-55520261D01*
X48914355Y-55752000D01*
X48914355Y-55958800D01*
X45315945Y-55958800D01*
X45274565Y-55858652D01*
X44871470Y-55454853D01*
X44344532Y-55236049D01*
X43773971Y-55235551D01*
X43246652Y-55453435D01*
X42842853Y-55856530D01*
X42624049Y-56383468D01*
X42623551Y-56954029D01*
X42841435Y-57481348D01*
X43244530Y-57885147D01*
X43376303Y-57939864D01*
X43246652Y-57993435D01*
X43094278Y-58145543D01*
X38935913Y-58145543D01*
X38698549Y-57907764D01*
X38116499Y-57666076D01*
X37486266Y-57665526D01*
X36903795Y-57906198D01*
X36457764Y-58351451D01*
X36216076Y-58933501D01*
X36215526Y-59563734D01*
X36456198Y-60146205D01*
X36901451Y-60592236D01*
X37483501Y-60833924D01*
X38113734Y-60834474D01*
X38696205Y-60593802D01*
X39016108Y-60274457D01*
X43094103Y-60274457D01*
X43244530Y-60425147D01*
X43376303Y-60479864D01*
X43246652Y-60533435D01*
X42842853Y-60936530D01*
X42624049Y-61463468D01*
X42623551Y-62034029D01*
X42841435Y-62561348D01*
X43244530Y-62965147D01*
X43329800Y-63000554D01*
X43329800Y-64438355D01*
X43291000Y-64438355D01*
X43074508Y-64479091D01*
X42875674Y-64607037D01*
X42742283Y-64802261D01*
X42712811Y-64947800D01*
X39167244Y-64947800D01*
X39090802Y-64762795D01*
X38645549Y-64316764D01*
X38063499Y-64075076D01*
X37433266Y-64074526D01*
X36850795Y-64315198D01*
X36404764Y-64760451D01*
X36163076Y-65342501D01*
X36162526Y-65972734D01*
X36403198Y-66555205D01*
X36848451Y-67001236D01*
X37193063Y-67144331D01*
X36786795Y-67312198D01*
X36340764Y-67757451D01*
X36099076Y-68339501D01*
X36098526Y-68969734D01*
X36339198Y-69552205D01*
X36784451Y-69998236D01*
X37366501Y-70239924D01*
X37996734Y-70240474D01*
X38579205Y-69999802D01*
X38953262Y-69626398D01*
X39252602Y-69926262D01*
X38880764Y-70297451D01*
X38639076Y-70879501D01*
X38638526Y-71509734D01*
X38879198Y-72092205D01*
X39324451Y-72538236D01*
X39906501Y-72779924D01*
X40536734Y-72780474D01*
X41119205Y-72539802D01*
X41565236Y-72094549D01*
X41806924Y-71512499D01*
X41807474Y-70882266D01*
X41566802Y-70299795D01*
X41193398Y-69925738D01*
X41493262Y-69626398D01*
X41864451Y-69998236D01*
X42446501Y-70239924D01*
X43076734Y-70240474D01*
X43659205Y-69999802D01*
X44033262Y-69626398D01*
X44332602Y-69926262D01*
X43960764Y-70297451D01*
X43719076Y-70879501D01*
X43718526Y-71509734D01*
X43959198Y-72092205D01*
X44404451Y-72538236D01*
X44986501Y-72779924D01*
X45616734Y-72780474D01*
X46199205Y-72539802D01*
X46573262Y-72166398D01*
X46944451Y-72538236D01*
X47526501Y-72779924D01*
X48156734Y-72780474D01*
X48739205Y-72539802D01*
X49113262Y-72166398D01*
X49484451Y-72538236D01*
X50066501Y-72779924D01*
X50696734Y-72780474D01*
X51279205Y-72539802D01*
X51725236Y-72094549D01*
X51966924Y-71512499D01*
X51967474Y-70882266D01*
X51726802Y-70299795D01*
X51353398Y-69925738D01*
X51653262Y-69626398D01*
X52024451Y-69998236D01*
X52606501Y-70239924D01*
X53236734Y-70240474D01*
X53819205Y-69999802D01*
X54193262Y-69626398D01*
X54564451Y-69998236D01*
X55146501Y-70239924D01*
X55776734Y-70240474D01*
X56359205Y-69999802D01*
X56733262Y-69626398D01*
X57104451Y-69998236D01*
X57686501Y-70239924D01*
X58316734Y-70240474D01*
X58899205Y-69999802D01*
X59273262Y-69626398D01*
X59644451Y-69998236D01*
X60226501Y-70239924D01*
X60856734Y-70240474D01*
X61439205Y-69999802D01*
X61813262Y-69626398D01*
X62184451Y-69998236D01*
X62766501Y-70239924D01*
X63396734Y-70240474D01*
X63979205Y-69999802D01*
X64353262Y-69626398D01*
X64724451Y-69998236D01*
X65306501Y-70239924D01*
X65936734Y-70240474D01*
X66519205Y-69999802D01*
X66893262Y-69626398D01*
X67264451Y-69998236D01*
X67846501Y-70239924D01*
X68476734Y-70240474D01*
X69059205Y-69999802D01*
X69433262Y-69626398D01*
X69732602Y-69926262D01*
X69360764Y-70297451D01*
X69119076Y-70879501D01*
X69118526Y-71509734D01*
X69359198Y-72092205D01*
X69732602Y-72466262D01*
X69360764Y-72837451D01*
X69119076Y-73419501D01*
X69118526Y-74049734D01*
X69359198Y-74632205D01*
X69804451Y-75078236D01*
X70386501Y-75319924D01*
X71016734Y-75320474D01*
X71599205Y-75079802D01*
X72013800Y-74665930D01*
X72013800Y-75651000D01*
X72067937Y-75923165D01*
X72222106Y-76153894D01*
X73123355Y-77055143D01*
X73123355Y-78018000D01*
X73164091Y-78234492D01*
X73292037Y-78433326D01*
X73487261Y-78566717D01*
X73719000Y-78613645D01*
X75239000Y-78613645D01*
X75455492Y-78572909D01*
X75654326Y-78444963D01*
X75787717Y-78249739D01*
X75808319Y-78148000D01*
X85323355Y-78148000D01*
X85323355Y-79668000D01*
X85364091Y-79884492D01*
X85492037Y-80083326D01*
X85687261Y-80216717D01*
X85919000Y-80263645D01*
X87439000Y-80263645D01*
X87655492Y-80222909D01*
X87854326Y-80094963D01*
X87987717Y-79899739D01*
X88034645Y-79668000D01*
X88034645Y-79558200D01*
X88979575Y-79558200D01*
X89004091Y-79688492D01*
X89132037Y-79887326D01*
X89327261Y-80020717D01*
X89559000Y-80067645D01*
X91059000Y-80067645D01*
X91275492Y-80026909D01*
X91474326Y-79898963D01*
X91559403Y-79774449D01*
X91632037Y-79887326D01*
X91827261Y-80020717D01*
X92059000Y-80067645D01*
X93559000Y-80067645D01*
X93775492Y-80026909D01*
X93974326Y-79898963D01*
X94107717Y-79703739D01*
X94137189Y-79558200D01*
X94144461Y-79558200D01*
X94179891Y-79746492D01*
X94307837Y-79945326D01*
X94503061Y-80078717D01*
X94734800Y-80125645D01*
X95446000Y-80125645D01*
X95662492Y-80084909D01*
X95861326Y-79956963D01*
X95994717Y-79761739D01*
X96041645Y-79530000D01*
X96041645Y-78031400D01*
X96000909Y-77814908D01*
X95872963Y-77616074D01*
X95677739Y-77482683D01*
X95446000Y-77435755D01*
X94734800Y-77435755D01*
X94518308Y-77476491D01*
X94319474Y-77604437D01*
X94186083Y-77799661D01*
X94139155Y-78031400D01*
X94139155Y-78135800D01*
X94138425Y-78135800D01*
X94113909Y-78005508D01*
X93985963Y-77806674D01*
X93790739Y-77673283D01*
X93559000Y-77626355D01*
X92059000Y-77626355D01*
X91842508Y-77667091D01*
X91643674Y-77795037D01*
X91558597Y-77919551D01*
X91485963Y-77806674D01*
X91290739Y-77673283D01*
X91059000Y-77626355D01*
X89559000Y-77626355D01*
X89342508Y-77667091D01*
X89143674Y-77795037D01*
X89010283Y-77990261D01*
X88980811Y-78135800D01*
X88032349Y-78135800D01*
X87993909Y-77931508D01*
X87865963Y-77732674D01*
X87670739Y-77599283D01*
X87439000Y-77552355D01*
X85919000Y-77552355D01*
X85702508Y-77593091D01*
X85503674Y-77721037D01*
X85370283Y-77916261D01*
X85323355Y-78148000D01*
X75808319Y-78148000D01*
X75834645Y-78018000D01*
X75834645Y-76498000D01*
X75793909Y-76281508D01*
X75665963Y-76082674D01*
X75470739Y-75949283D01*
X75239000Y-75902355D01*
X73982143Y-75902355D01*
X73436200Y-75356412D01*
X73436200Y-73218000D01*
X73419690Y-73135000D01*
X73382063Y-72945835D01*
X73227894Y-72715106D01*
X72210159Y-71697371D01*
X72286924Y-71512499D01*
X72287474Y-70882266D01*
X72046802Y-70299795D01*
X71673398Y-69925738D01*
X72045236Y-69554549D01*
X72261494Y-69033740D01*
X72359037Y-69185326D01*
X72554261Y-69318717D01*
X72786000Y-69365645D01*
X74086000Y-69365645D01*
X74302492Y-69324909D01*
X74501326Y-69196963D01*
X74634717Y-69001739D01*
X74681645Y-68770000D01*
X74681645Y-68731200D01*
X75271135Y-68731200D01*
X75368544Y-68828779D01*
X75723168Y-68976032D01*
X76107148Y-68976367D01*
X76462027Y-68829734D01*
X76733779Y-68558456D01*
X76881032Y-68203832D01*
X76881367Y-67819852D01*
X76734734Y-67464973D01*
X76463456Y-67193221D01*
X76108832Y-67045968D01*
X75724852Y-67045633D01*
X75369973Y-67192266D01*
X75253235Y-67308800D01*
X74681645Y-67308800D01*
X74681645Y-67270000D01*
X74640909Y-67053508D01*
X74512963Y-66854674D01*
X74317739Y-66721283D01*
X74086000Y-66674355D01*
X72786000Y-66674355D01*
X72569508Y-66715091D01*
X72370674Y-66843037D01*
X72237283Y-67038261D01*
X72190355Y-67270000D01*
X72190355Y-68107220D01*
X72046802Y-67759795D01*
X71601549Y-67313764D01*
X71019499Y-67072076D01*
X70389266Y-67071526D01*
X69806795Y-67312198D01*
X69432738Y-67685602D01*
X69061549Y-67313764D01*
X68479499Y-67072076D01*
X67849266Y-67071526D01*
X67266795Y-67312198D01*
X66892738Y-67685602D01*
X66521549Y-67313764D01*
X65939499Y-67072076D01*
X65309266Y-67071526D01*
X64726795Y-67312198D01*
X64352738Y-67685602D01*
X63981549Y-67313764D01*
X63399499Y-67072076D01*
X62769266Y-67071526D01*
X62186795Y-67312198D01*
X61812738Y-67685602D01*
X61441549Y-67313764D01*
X60859499Y-67072076D01*
X60229266Y-67071526D01*
X59646795Y-67312198D01*
X59272738Y-67685602D01*
X58901549Y-67313764D01*
X58319499Y-67072076D01*
X57689266Y-67071526D01*
X57106795Y-67312198D01*
X56732738Y-67685602D01*
X56361549Y-67313764D01*
X55779499Y-67072076D01*
X55149266Y-67071526D01*
X54566795Y-67312198D01*
X54192738Y-67685602D01*
X53821549Y-67313764D01*
X53239499Y-67072076D01*
X52609266Y-67071526D01*
X52026795Y-67312198D01*
X51652738Y-67685602D01*
X51281549Y-67313764D01*
X50699499Y-67072076D01*
X50069266Y-67071526D01*
X49486795Y-67312198D01*
X49112738Y-67685602D01*
X48741549Y-67313764D01*
X48159499Y-67072076D01*
X47529266Y-67071526D01*
X46946795Y-67312198D01*
X46572738Y-67685602D01*
X46201549Y-67313764D01*
X45619499Y-67072076D01*
X44989266Y-67071526D01*
X44406795Y-67312198D01*
X44032738Y-67685602D01*
X43661549Y-67313764D01*
X43079499Y-67072076D01*
X42449266Y-67071526D01*
X41866795Y-67312198D01*
X41492738Y-67685602D01*
X41121549Y-67313764D01*
X40539499Y-67072076D01*
X39909266Y-67071526D01*
X39326795Y-67312198D01*
X38952738Y-67685602D01*
X38581549Y-67313764D01*
X38236937Y-67170669D01*
X38643205Y-67002802D01*
X39089236Y-66557549D01*
X39167030Y-66370200D01*
X42711575Y-66370200D01*
X42736091Y-66500492D01*
X42864037Y-66699326D01*
X43059261Y-66832717D01*
X43291000Y-66879645D01*
X44791000Y-66879645D01*
X45007492Y-66838909D01*
X45206326Y-66710963D01*
X45339717Y-66515739D01*
X45386645Y-66284000D01*
X45386645Y-65034000D01*
X45345909Y-64817508D01*
X45217963Y-64618674D01*
X45022739Y-64485283D01*
X44791000Y-64438355D01*
X44752200Y-64438355D01*
X44752200Y-63014970D01*
X44869348Y-62966565D01*
X45273147Y-62563470D01*
X45491951Y-62036532D01*
X45492449Y-61465971D01*
X45274565Y-60938652D01*
X44871470Y-60534853D01*
X44739697Y-60480136D01*
X44869348Y-60426565D01*
X45021722Y-60274457D01*
X47943778Y-60274457D01*
X47945000Y-60274700D01*
X49023434Y-60274700D01*
X49083037Y-60367326D01*
X49278261Y-60500717D01*
X49510000Y-60547645D01*
X50810000Y-60547645D01*
X51026492Y-60506909D01*
X51132693Y-60438571D01*
X51279261Y-60538717D01*
X51511000Y-60585645D01*
X52761000Y-60585645D01*
X52977492Y-60544909D01*
X53176326Y-60416963D01*
X53292828Y-60246457D01*
X66673778Y-60246457D01*
X66675000Y-60246700D01*
X66948986Y-60246700D01*
X69936355Y-63234068D01*
X69936355Y-63546000D01*
X69977091Y-63762492D01*
X70105037Y-63961326D01*
X70300261Y-64094717D01*
X70532000Y-64141645D01*
X70843931Y-64141645D01*
X72190355Y-65488069D01*
X72190355Y-66070000D01*
X72231091Y-66286492D01*
X72359037Y-66485326D01*
X72554261Y-66618717D01*
X72786000Y-66665645D01*
X74086000Y-66665645D01*
X74302492Y-66624909D01*
X74501326Y-66496963D01*
X74634717Y-66301739D01*
X74681645Y-66070000D01*
X74681645Y-64570000D01*
X74640909Y-64353508D01*
X74512963Y-64154674D01*
X74317739Y-64021283D01*
X74086000Y-63974355D01*
X73688069Y-63974355D01*
X72627645Y-62913931D01*
X72627645Y-62296000D01*
X72586909Y-62079508D01*
X72458963Y-61880674D01*
X72263739Y-61747283D01*
X72032000Y-61700355D01*
X71414068Y-61700355D01*
X69960414Y-60246700D01*
X73187986Y-60246700D01*
X81164300Y-68223013D01*
X81164300Y-70789851D01*
X81053674Y-70861037D01*
X80920283Y-71056261D01*
X80873355Y-71288000D01*
X80873355Y-72808000D01*
X80914091Y-73024492D01*
X81042037Y-73223326D01*
X81237261Y-73356717D01*
X81469000Y-73403645D01*
X82989000Y-73403645D01*
X83205492Y-73362909D01*
X83404326Y-73234963D01*
X83537717Y-73039739D01*
X83584645Y-72808000D01*
X83584645Y-71288000D01*
X83543909Y-71071508D01*
X83415963Y-70872674D01*
X83293700Y-70789135D01*
X83293700Y-70136893D01*
X83441261Y-70237717D01*
X83673000Y-70284645D01*
X84662857Y-70284645D01*
X87606106Y-73227895D01*
X87788850Y-73350000D01*
X87836836Y-73382063D01*
X88109000Y-73436200D01*
X90953575Y-73436200D01*
X90978091Y-73566492D01*
X91106037Y-73765326D01*
X91301261Y-73898717D01*
X91533000Y-73945645D01*
X93033000Y-73945645D01*
X93249492Y-73904909D01*
X93448326Y-73776963D01*
X93533403Y-73652449D01*
X93606037Y-73765326D01*
X93801261Y-73898717D01*
X94033000Y-73945645D01*
X95533000Y-73945645D01*
X95749492Y-73904909D01*
X95948326Y-73776963D01*
X96081717Y-73581739D01*
X96128645Y-73350000D01*
X96128645Y-72100000D01*
X96087909Y-71883508D01*
X95959963Y-71684674D01*
X95764739Y-71551283D01*
X95533000Y-71504355D01*
X95158200Y-71504355D01*
X95158200Y-69643376D01*
X95175717Y-69617739D01*
X95222645Y-69386000D01*
X95222645Y-68496000D01*
X95181909Y-68279508D01*
X95053963Y-68080674D01*
X94858739Y-67947283D01*
X94627000Y-67900355D01*
X94267000Y-67900355D01*
X94050508Y-67941091D01*
X93851674Y-68069037D01*
X93718283Y-68264261D01*
X93671355Y-68496000D01*
X93671355Y-69386000D01*
X93712091Y-69602492D01*
X93735800Y-69639337D01*
X93735800Y-71597025D01*
X93617674Y-71673037D01*
X93532597Y-71797551D01*
X93459963Y-71684674D01*
X93264739Y-71551283D01*
X93208200Y-71539834D01*
X93208200Y-69643376D01*
X93225717Y-69617739D01*
X93272645Y-69386000D01*
X93272645Y-68496000D01*
X93231909Y-68279508D01*
X93103963Y-68080674D01*
X92908739Y-67947283D01*
X92677000Y-67900355D01*
X92607645Y-67900355D01*
X92607645Y-67831000D01*
X92579360Y-67680678D01*
X92607645Y-67541000D01*
X92607645Y-67181000D01*
X92579360Y-67030678D01*
X92607645Y-66891000D01*
X92607645Y-66531000D01*
X92566909Y-66314508D01*
X92438963Y-66115674D01*
X92243739Y-65982283D01*
X92012000Y-65935355D01*
X91122000Y-65935355D01*
X90984935Y-65961146D01*
X90657236Y-65633447D01*
X90657367Y-65482852D01*
X90510734Y-65127973D01*
X90239456Y-64856221D01*
X89884832Y-64708968D01*
X89500852Y-64708633D01*
X89145973Y-64855266D01*
X89133127Y-64868089D01*
X89020456Y-64755221D01*
X88665832Y-64607968D01*
X88281852Y-64607633D01*
X87926973Y-64754266D01*
X87655221Y-65025544D01*
X87507968Y-65380168D01*
X87507633Y-65764148D01*
X87617775Y-66030711D01*
X87427674Y-66153037D01*
X87294283Y-66348261D01*
X87247355Y-66580000D01*
X87247355Y-68080000D01*
X87288091Y-68296492D01*
X87416037Y-68495326D01*
X87611261Y-68628717D01*
X87843000Y-68675645D01*
X89093000Y-68675645D01*
X89213986Y-68652880D01*
X89409544Y-68848779D01*
X89764168Y-68996032D01*
X90148148Y-68996367D01*
X90503027Y-68849734D01*
X90630784Y-68722200D01*
X90864624Y-68722200D01*
X90890261Y-68739717D01*
X91122000Y-68786645D01*
X91721355Y-68786645D01*
X91721355Y-69386000D01*
X91762091Y-69602492D01*
X91785800Y-69639337D01*
X91785800Y-71504355D01*
X91533000Y-71504355D01*
X91316508Y-71545091D01*
X91117674Y-71673037D01*
X90984283Y-71868261D01*
X90954811Y-72013800D01*
X88403589Y-72013800D01*
X85568645Y-69178857D01*
X85568645Y-68189000D01*
X85527909Y-67972508D01*
X85399963Y-67773674D01*
X85204739Y-67640283D01*
X84973000Y-67593355D01*
X83673000Y-67593355D01*
X83456508Y-67634091D01*
X83286093Y-67743750D01*
X83212655Y-67374557D01*
X83204891Y-67362937D01*
X82981857Y-67029143D01*
X82981854Y-67029141D01*
X76199414Y-60246700D01*
X76824986Y-60246700D01*
X80843355Y-64265069D01*
X80843355Y-64576000D01*
X80884091Y-64792492D01*
X81012037Y-64991326D01*
X81207261Y-65124717D01*
X81439000Y-65171645D01*
X81749931Y-65171645D01*
X83077355Y-66499069D01*
X83077355Y-66989000D01*
X83118091Y-67205492D01*
X83246037Y-67404326D01*
X83441261Y-67537717D01*
X83673000Y-67584645D01*
X84973000Y-67584645D01*
X85189492Y-67543909D01*
X85388326Y-67415963D01*
X85521717Y-67220739D01*
X85568645Y-66989000D01*
X85568645Y-65489000D01*
X85527909Y-65272508D01*
X85399963Y-65073674D01*
X85204739Y-64940283D01*
X84973000Y-64893355D01*
X84637068Y-64893355D01*
X83534645Y-63790931D01*
X83534645Y-63326000D01*
X83493909Y-63109508D01*
X83365963Y-62910674D01*
X83170739Y-62777283D01*
X82939000Y-62730355D01*
X82320069Y-62730355D01*
X79836171Y-60246457D01*
X80353778Y-60246457D01*
X80355000Y-60246700D01*
X82576995Y-60246700D01*
X82577000Y-60246701D01*
X82578227Y-60246457D01*
X83930778Y-60246457D01*
X83932000Y-60246700D01*
X88890995Y-60246700D01*
X88891000Y-60246701D01*
X88892227Y-60246457D01*
X90719778Y-60246457D01*
X90721000Y-60246700D01*
X90752986Y-60246700D01*
X96391425Y-65885138D01*
X96349973Y-65902266D01*
X96252269Y-65999800D01*
X96079376Y-65999800D01*
X96053739Y-65982283D01*
X95822000Y-65935355D01*
X94932000Y-65935355D01*
X94715508Y-65976091D01*
X94516674Y-66104037D01*
X94383283Y-66299261D01*
X94336355Y-66531000D01*
X94336355Y-66891000D01*
X94377091Y-67107492D01*
X94505037Y-67306326D01*
X94700261Y-67439717D01*
X94932000Y-67486645D01*
X95822000Y-67486645D01*
X96038492Y-67445909D01*
X96075337Y-67422200D01*
X96232168Y-67422200D01*
X96348544Y-67538779D01*
X96703168Y-67686032D01*
X97087148Y-67686367D01*
X97442027Y-67539734D01*
X97713779Y-67268456D01*
X97731666Y-67225379D01*
X100676355Y-70170068D01*
X100676355Y-70635000D01*
X100717091Y-70851492D01*
X100845037Y-71050326D01*
X100969551Y-71135403D01*
X100856674Y-71208037D01*
X100723283Y-71403261D01*
X100676355Y-71635000D01*
X100676355Y-73135000D01*
X100717091Y-73351492D01*
X100845037Y-73550326D01*
X101040261Y-73683717D01*
X101185800Y-73713189D01*
X101185800Y-74124355D01*
X100804000Y-74124355D01*
X100587508Y-74165091D01*
X100566480Y-74178622D01*
X100555739Y-74171283D01*
X100324000Y-74124355D01*
X99534000Y-74124355D01*
X99317508Y-74165091D01*
X99118674Y-74293037D01*
X98985283Y-74488261D01*
X98938355Y-74720000D01*
X98938355Y-76400000D01*
X98976394Y-76602158D01*
X98938355Y-76790000D01*
X98938355Y-77550000D01*
X98976394Y-77752158D01*
X98971926Y-77774219D01*
X98870163Y-77616074D01*
X98674939Y-77482683D01*
X98443200Y-77435755D01*
X97732000Y-77435755D01*
X97515508Y-77476491D01*
X97316674Y-77604437D01*
X97183283Y-77799661D01*
X97136355Y-78031400D01*
X97136355Y-79530000D01*
X97177091Y-79746492D01*
X97305037Y-79945326D01*
X97500261Y-80078717D01*
X97732000Y-80125645D01*
X98443200Y-80125645D01*
X98659692Y-80084909D01*
X98858526Y-79956963D01*
X98970832Y-79792598D01*
X98979091Y-79836492D01*
X99107037Y-80035326D01*
X99302261Y-80168717D01*
X99534000Y-80215645D01*
X100324000Y-80215645D01*
X100540492Y-80174909D01*
X100561520Y-80161378D01*
X100572261Y-80168717D01*
X100804000Y-80215645D01*
X101594000Y-80215645D01*
X101810492Y-80174909D01*
X101831520Y-80161378D01*
X101842261Y-80168717D01*
X102074000Y-80215645D01*
X102864000Y-80215645D01*
X103080492Y-80174909D01*
X103279326Y-80046963D01*
X103412717Y-79851739D01*
X103459645Y-79620000D01*
X103459645Y-79502200D01*
X104447322Y-79502200D01*
X104581261Y-79593717D01*
X104813000Y-79640645D01*
X106083000Y-79640645D01*
X106299492Y-79599909D01*
X106498326Y-79471963D01*
X106506865Y-79459465D01*
X106503355Y-79476800D01*
X106503355Y-79984800D01*
X106544091Y-80201292D01*
X106672037Y-80400126D01*
X106867261Y-80533517D01*
X107099000Y-80580445D01*
X108369000Y-80580445D01*
X108585492Y-80539709D01*
X108784326Y-80411763D01*
X108794960Y-80396200D01*
X115708296Y-80396200D01*
X115741091Y-80570492D01*
X115869037Y-80769326D01*
X116064261Y-80902717D01*
X116296000Y-80949645D01*
X120288800Y-80949645D01*
X120288800Y-85288800D01*
X71480621Y-85288800D01*
X71599205Y-85239802D01*
X72045236Y-84794549D01*
X72286924Y-84212499D01*
X72287474Y-83582266D01*
X72046802Y-82999795D01*
X71673398Y-82625738D01*
X72045236Y-82254549D01*
X72286924Y-81672499D01*
X72287474Y-81042266D01*
X72046802Y-80459795D01*
X71673398Y-80085738D01*
X72045236Y-79714549D01*
X72286924Y-79132499D01*
X72287474Y-78502266D01*
X72046802Y-77919795D01*
X71601549Y-77473764D01*
X71019499Y-77232076D01*
X70389266Y-77231526D01*
X69806795Y-77472198D01*
X69360764Y-77917451D01*
X69119076Y-78499501D01*
X69118526Y-79129734D01*
X69359198Y-79712205D01*
X69732602Y-80086262D01*
X69360764Y-80457451D01*
X69119076Y-81039501D01*
X69118526Y-81669734D01*
X69359198Y-82252205D01*
X69732602Y-82626262D01*
X69432738Y-82925602D01*
X69061549Y-82553764D01*
X68479499Y-82312076D01*
X67849266Y-82311526D01*
X67266795Y-82552198D01*
X66892738Y-82925602D01*
X66521549Y-82553764D01*
X65939499Y-82312076D01*
X65309266Y-82311526D01*
X64726795Y-82552198D01*
X64352738Y-82925602D01*
X63981549Y-82553764D01*
X63399499Y-82312076D01*
X62769266Y-82311526D01*
X62186795Y-82552198D01*
X61812738Y-82925602D01*
X61441549Y-82553764D01*
X60859499Y-82312076D01*
X60229266Y-82311526D01*
X59646795Y-82552198D01*
X59272738Y-82925602D01*
X58901549Y-82553764D01*
X58319499Y-82312076D01*
X57689266Y-82311526D01*
X57106795Y-82552198D01*
X56732738Y-82925602D01*
X56361549Y-82553764D01*
X55779499Y-82312076D01*
X55149266Y-82311526D01*
X54566795Y-82552198D01*
X54192738Y-82925602D01*
X53821549Y-82553764D01*
X53239499Y-82312076D01*
X52609266Y-82311526D01*
X52026795Y-82552198D01*
X51652738Y-82925602D01*
X51281549Y-82553764D01*
X50699499Y-82312076D01*
X50069266Y-82311526D01*
X49486795Y-82552198D01*
X49112738Y-82925602D01*
X48741549Y-82553764D01*
X48159499Y-82312076D01*
X47529266Y-82311526D01*
X46946795Y-82552198D01*
X46572738Y-82925602D01*
X46201549Y-82553764D01*
X45619499Y-82312076D01*
X44989266Y-82311526D01*
X44406795Y-82552198D01*
X44032738Y-82925602D01*
X43661549Y-82553764D01*
X43079499Y-82312076D01*
X42449266Y-82311526D01*
X41866795Y-82552198D01*
X41492738Y-82925602D01*
X41121549Y-82553764D01*
X40539499Y-82312076D01*
X39909266Y-82311526D01*
X39326795Y-82552198D01*
X38880764Y-82997451D01*
X38639076Y-83579501D01*
X38638526Y-84209734D01*
X38879198Y-84792205D01*
X39324451Y-85238236D01*
X39446223Y-85288800D01*
X35711200Y-85288800D01*
X35711200Y-48879283D01*
X43709574Y-48879283D01*
X43907708Y-49358805D01*
X44274265Y-49726002D01*
X44753440Y-49924973D01*
X45272283Y-49925426D01*
X45751805Y-49727292D01*
X46119002Y-49360735D01*
X46317973Y-48881560D01*
X46318426Y-48362717D01*
X46120292Y-47883195D01*
X45753735Y-47515998D01*
X45274560Y-47317027D01*
X44755717Y-47316574D01*
X44276195Y-47514708D01*
X43908998Y-47881265D01*
X43710027Y-48360440D01*
X43709574Y-48879283D01*
X35711200Y-48879283D01*
X35711200Y-31711200D01*
X79182355Y-31711200D01*
X79182355Y-32957000D01*
G36*
X106867261Y-78653917D02*
X107099000Y-78700845D01*
X108369000Y-78700845D01*
X108585492Y-78660109D01*
X108635080Y-78628200D01*
X111166355Y-78628200D01*
X111166355Y-78692000D01*
X111207091Y-78908492D01*
X111249115Y-78973800D01*
X108667648Y-78973800D01*
X108600739Y-78928083D01*
X108369000Y-78881155D01*
X107099000Y-78881155D01*
X106882508Y-78921891D01*
X106683674Y-79049837D01*
X106675135Y-79062335D01*
X106678645Y-79045000D01*
X106678645Y-78537000D01*
X106676063Y-78523277D01*
X106867261Y-78653917D01*
X106867261Y-78653917D01*
G37*
X106867261Y-78653917D02*
X107099000Y-78700845D01*
X108369000Y-78700845D01*
X108585492Y-78660109D01*
X108635080Y-78628200D01*
X111166355Y-78628200D01*
X111166355Y-78692000D01*
X111207091Y-78908492D01*
X111249115Y-78973800D01*
X108667648Y-78973800D01*
X108600739Y-78928083D01*
X108369000Y-78881155D01*
X107099000Y-78881155D01*
X106882508Y-78921891D01*
X106683674Y-79049837D01*
X106675135Y-79062335D01*
X106678645Y-79045000D01*
X106678645Y-78537000D01*
X106676063Y-78523277D01*
X106867261Y-78653917D01*
M02*
