G04 #@! TF.FileFunction,Copper,L1,Top,Signal*
%FSLAX46Y46*%
G04 Gerber Fmt 4.6, Leading zero omitted, Abs format (unit mm)*
G04 Created by KiCad (PCBNEW 4.0.7) date 02/08/18 14:37:26*
%MOMM*%
%LPD*%
G01*
G04 APERTURE LIST*
%ADD10C,0.100000*%
%ADD11C,1.440000*%
%ADD12C,0.762000*%
%ADD13R,1.500000X1.300000*%
%ADD14R,1.500000X1.250000*%
%ADD15R,1.520000X1.520000*%
%ADD16C,2.000000*%
%ADD17C,1.700000*%
%ADD18R,1.250000X1.500000*%
%ADD19R,1.300000X1.500000*%
%ADD20R,4.500000X1.400000*%
%ADD21R,0.360000X0.890000*%
%ADD22R,0.890000X0.360000*%
%ADD23R,2.160000X2.160000*%
%ADD24R,0.711200X1.498600*%
%ADD25R,0.914400X5.334000*%
%ADD26R,0.760000X2.390000*%
%ADD27R,0.760000X1.520000*%
%ADD28R,3.300000X0.870000*%
%ADD29R,4.570000X1.270000*%
%ADD30R,1.550000X0.610000*%
%ADD31R,0.610000X1.550000*%
%ADD32R,1.270000X0.508000*%
%ADD33C,1.520000*%
%ADD34C,1.460000*%
%ADD35R,0.790000X1.680000*%
%ADD36R,0.790000X2.110000*%
%ADD37R,2.060000X1.680000*%
%ADD38R,3.330000X0.760000*%
%ADD39C,0.900000*%
%ADD40C,0.508000*%
%ADD41C,0.254000*%
%ADD42C,0.960514*%
%ADD43C,1.371310*%
%ADD44C,1.317000*%
%ADD45C,1.371000*%
%ADD46C,0.152400*%
G04 APERTURE END LIST*
D10*
D11*
X65405000Y-57079000D03*
X67945000Y-57079000D03*
X70485000Y-57079000D03*
D12*
X38100000Y-38100000D03*
D13*
X106402000Y-53818000D03*
X103702000Y-53818000D03*
D14*
X44043000Y-54077000D03*
X46543000Y-54077000D03*
D15*
X79692000Y-63294000D03*
X77152000Y-63294000D03*
X82232000Y-63294000D03*
X84772000Y-63294000D03*
X84772000Y-75494000D03*
X82232000Y-75494000D03*
X79692000Y-75494000D03*
X77152000Y-75494000D03*
X86682000Y-65074000D03*
X86682000Y-67614000D03*
X86682000Y-70154000D03*
X86682000Y-72694000D03*
X74482000Y-65964000D03*
X74482000Y-68504000D03*
X74482000Y-71044000D03*
X74482000Y-73584000D03*
D16*
X37968000Y-54089000D03*
X37800000Y-59250000D03*
D17*
X44058000Y-59210000D03*
X44058000Y-56670000D03*
X44058000Y-61750000D03*
D14*
X92477000Y-70105000D03*
X89977000Y-70105000D03*
D18*
X53045000Y-59182000D03*
X53045000Y-61682000D03*
X111100000Y-39752000D03*
X111100000Y-37252000D03*
D14*
X108159000Y-34403000D03*
X105659000Y-34403000D03*
X99555000Y-47420000D03*
X102055000Y-47420000D03*
X108082000Y-42144000D03*
X105582000Y-42144000D03*
D18*
X102260000Y-64060000D03*
X102260000Y-61560000D03*
D14*
X104975000Y-56640000D03*
X107475000Y-56640000D03*
D18*
X105575000Y-46640000D03*
X105575000Y-49140000D03*
D14*
X94582000Y-56249000D03*
X97082000Y-56249000D03*
D18*
X111059000Y-56318000D03*
X111059000Y-53818000D03*
X85710000Y-39452000D03*
X85710000Y-36952000D03*
D14*
X80528000Y-32332000D03*
X83028000Y-32332000D03*
D19*
X108158000Y-39776000D03*
X108158000Y-37076000D03*
D13*
X95841000Y-53511000D03*
X93141000Y-53511000D03*
D11*
X50094000Y-48621000D03*
X47554000Y-48621000D03*
X45014000Y-48621000D03*
D13*
X100646000Y-44291000D03*
X97946000Y-44291000D03*
D19*
X57109000Y-53515000D03*
X57109000Y-56215000D03*
X66802000Y-44785000D03*
X66802000Y-47485000D03*
X62499000Y-44841000D03*
X62499000Y-47541000D03*
D13*
X72521000Y-39625000D03*
X75221000Y-39625000D03*
D19*
X77810000Y-36962000D03*
X77810000Y-39662000D03*
X69317000Y-39634000D03*
X69317000Y-36934000D03*
D13*
X80512000Y-36971000D03*
X83212000Y-36971000D03*
D19*
X91417000Y-35024000D03*
X91417000Y-32324000D03*
D13*
X88754000Y-39737000D03*
X91454000Y-39737000D03*
X94136000Y-37278000D03*
X91436000Y-37278000D03*
D16*
X37940000Y-48613000D03*
X57054000Y-38114000D03*
X99715000Y-37269000D03*
D20*
X120650000Y-34465000D03*
X120650000Y-37240000D03*
X120650000Y-40015000D03*
D21*
X111699000Y-45739000D03*
D22*
X112629000Y-48619000D03*
D23*
X110724000Y-47644000D03*
D22*
X108819000Y-46669000D03*
X108819000Y-47319000D03*
X108819000Y-47969000D03*
X108819000Y-48619000D03*
X112629000Y-47969000D03*
X112629000Y-47319000D03*
X112629000Y-46669000D03*
D21*
X111699000Y-49549000D03*
X111049000Y-49549000D03*
X110399000Y-49549000D03*
X109749000Y-49549000D03*
X111049000Y-45739000D03*
X110399000Y-45739000D03*
X109749000Y-45739000D03*
D24*
X98008600Y-70071700D03*
X95011400Y-70071700D03*
D25*
X96510000Y-68154000D03*
D10*
G36*
X96967200Y-69398600D02*
X96967200Y-65487000D01*
X97462500Y-65982300D01*
X97462500Y-68903300D01*
X96967200Y-69398600D01*
X96967200Y-69398600D01*
G37*
G36*
X95557500Y-68903300D02*
X95557500Y-65982300D01*
X96052800Y-65487000D01*
X96052800Y-69398600D01*
X95557500Y-68903300D01*
X95557500Y-68903300D01*
G37*
D26*
X114874000Y-59395000D03*
D27*
X114874000Y-63490000D03*
X113604000Y-63490000D03*
X112334000Y-63490000D03*
X111064000Y-63490000D03*
X113604000Y-58960000D03*
D26*
X112334000Y-59395000D03*
D27*
X111064000Y-58960000D03*
D28*
X112334000Y-62295000D03*
D29*
X112969000Y-61225000D03*
D30*
X116525000Y-67524000D03*
D31*
X114940000Y-69109000D03*
X114940000Y-65939000D03*
D30*
X113355000Y-67524000D03*
D32*
X105466000Y-69104200D03*
X105466000Y-70044000D03*
X105466000Y-70983800D03*
X107752000Y-69104200D03*
X107752000Y-70044000D03*
X107752000Y-70983800D03*
D20*
X120650000Y-73665000D03*
X120650000Y-70890000D03*
X120650000Y-68115000D03*
D33*
X57132000Y-47001000D03*
X59672000Y-47001000D03*
D15*
X54592000Y-47001000D03*
D34*
X69898000Y-45396000D03*
X72438000Y-45396000D03*
X74978000Y-45396000D03*
X77518000Y-45396000D03*
X80058000Y-45396000D03*
X82598000Y-45396000D03*
X85138000Y-45396000D03*
X69898000Y-53156000D03*
X72438000Y-53156000D03*
X74978000Y-53156000D03*
X77518000Y-53156000D03*
X80058000Y-53156000D03*
X82598000Y-53156000D03*
X85138000Y-53156000D03*
D19*
X50160000Y-59202000D03*
X50160000Y-56502000D03*
D16*
X37379000Y-81280000D03*
X39919000Y-81280000D03*
X42459000Y-81280000D03*
X44999000Y-81280000D03*
X47539000Y-81280000D03*
X50079000Y-81280000D03*
X52619000Y-81280000D03*
X55159000Y-81280000D03*
X57699000Y-81280000D03*
X60239000Y-81280000D03*
X62779000Y-81280000D03*
X65319000Y-81280000D03*
X67859000Y-81280000D03*
X70399000Y-81280000D03*
X70399000Y-78740000D03*
X70399000Y-76200000D03*
X70399000Y-73660000D03*
X70399000Y-71120000D03*
X70399000Y-68580000D03*
X70399000Y-66040000D03*
X67859000Y-66040000D03*
X65319000Y-66040000D03*
X62779000Y-66040000D03*
X60239000Y-66040000D03*
X57699000Y-66040000D03*
X55159000Y-66040000D03*
X52619000Y-66040000D03*
X50079000Y-66040000D03*
X47539000Y-66040000D03*
X44999000Y-66040000D03*
X42459000Y-66040000D03*
X39919000Y-66040000D03*
X37379000Y-66040000D03*
X39919000Y-68580000D03*
X44999000Y-68580000D03*
X47539000Y-68580000D03*
X50079000Y-68580000D03*
D12*
X99060000Y-78740000D03*
X104140000Y-78740000D03*
X93980000Y-78740000D03*
X88900000Y-78740000D03*
X83820000Y-78740000D03*
X78740000Y-78740000D03*
X109220000Y-78740000D03*
X93980000Y-73660000D03*
X99060000Y-73660000D03*
X104140000Y-73660000D03*
X109220000Y-73660000D03*
X114300000Y-73660000D03*
X114300000Y-78740000D03*
X119380000Y-78740000D03*
X119380000Y-63500000D03*
X119380000Y-58420000D03*
X119380000Y-53340000D03*
X119380000Y-48260000D03*
X119380000Y-43180000D03*
X109220000Y-63500000D03*
X109220000Y-58420000D03*
X104140000Y-63500000D03*
X104140000Y-58420000D03*
X99060000Y-63500000D03*
X93980000Y-63500000D03*
X88900000Y-63500000D03*
X88900000Y-73660000D03*
X83820000Y-73660000D03*
X83820000Y-68580000D03*
X78740000Y-68580000D03*
X78740000Y-73660000D03*
X73660000Y-78740000D03*
X68580000Y-78740000D03*
X68580000Y-73660000D03*
X68580000Y-68580000D03*
X63500000Y-68580000D03*
X58420000Y-68580000D03*
X53340000Y-68580000D03*
X53340000Y-73660000D03*
X58420000Y-73660000D03*
X63500000Y-73660000D03*
X63500000Y-78740000D03*
X58420000Y-78740000D03*
X53340000Y-78740000D03*
X48260000Y-73660000D03*
X48260000Y-78740000D03*
X43180000Y-78740000D03*
X43180000Y-73660000D03*
X38100000Y-73660000D03*
X38100000Y-78740000D03*
X38100000Y-68580000D03*
X38100000Y-63500000D03*
X43180000Y-63500000D03*
X48260000Y-63500000D03*
X53340000Y-63500000D03*
X58420000Y-63500000D03*
X63500000Y-63500000D03*
X68580000Y-63500000D03*
X73660000Y-63500000D03*
X88900000Y-48260000D03*
X83820000Y-48260000D03*
X78740000Y-48260000D03*
X73660000Y-48260000D03*
X114300000Y-43180000D03*
X114300000Y-38100000D03*
X114300000Y-33020000D03*
X109220000Y-33020000D03*
X104140000Y-33020000D03*
X99060000Y-33020000D03*
X93980000Y-33020000D03*
X63500000Y-33020000D03*
X58420000Y-33020000D03*
X53340000Y-33020000D03*
X48260000Y-33020000D03*
X43180000Y-33020000D03*
X38100000Y-33020000D03*
X38100000Y-43180000D03*
X43180000Y-38100000D03*
X48260000Y-38100000D03*
X53340000Y-38100000D03*
X43180000Y-43180000D03*
X48260000Y-43180000D03*
X53340000Y-43180000D03*
X53340000Y-53340000D03*
X48260000Y-53340000D03*
X73660000Y-33020000D03*
X78740000Y-33020000D03*
X114300000Y-48260000D03*
X63500000Y-53340000D03*
D35*
X100350000Y-66860000D03*
X100350000Y-70080000D03*
D36*
X101620000Y-69865000D03*
D35*
X102890000Y-70080000D03*
D37*
X102255000Y-66860000D03*
D38*
X101620000Y-68470000D03*
D12*
X101620000Y-68470000D03*
X101620000Y-69403000D03*
X101620000Y-70336000D03*
X102730000Y-68470000D03*
X100510000Y-68470000D03*
X110880000Y-70040000D03*
D39*
X113619000Y-57506000D03*
D12*
X59558000Y-42631000D03*
D39*
X81971000Y-40660000D03*
X84348000Y-34503000D03*
D12*
X46800000Y-56690000D03*
D39*
X76440000Y-40930000D03*
D40*
X107752000Y-70044000D02*
X110876000Y-70044000D01*
X110876000Y-70044000D02*
X110880000Y-70040000D01*
X109749000Y-49549000D02*
X109749000Y-50751000D01*
X109749000Y-50751000D02*
X109700000Y-50800000D01*
X105466000Y-70983800D02*
X104163800Y-70983800D01*
X104163800Y-70983800D02*
X104160000Y-70980000D01*
X112969000Y-61225000D02*
X109825000Y-61225000D01*
X109825000Y-61225000D02*
X109810000Y-61240000D01*
X112969000Y-61225000D02*
X116395000Y-61225000D01*
X116395000Y-61225000D02*
X116430000Y-61260000D01*
X97214850Y-67442800D02*
X98447200Y-67442800D01*
X98447200Y-67442800D02*
X98450000Y-67440000D01*
X95805150Y-67442800D02*
X94777200Y-67442800D01*
X94777200Y-67442800D02*
X94760000Y-67460000D01*
D41*
X86853200Y-67442800D02*
X86682000Y-67614000D01*
X96510000Y-68154000D02*
X96510000Y-68147650D01*
X96510000Y-68147650D02*
X97214850Y-67442800D01*
X95805150Y-67442800D02*
X97214850Y-67442800D01*
X112334000Y-59395000D02*
X112334000Y-60590000D01*
X112334000Y-60590000D02*
X112969000Y-61225000D01*
X112969000Y-61225000D02*
X112969000Y-61660000D01*
X112969000Y-61660000D02*
X112334000Y-62295000D01*
X109749000Y-49549000D02*
X109749000Y-48619000D01*
X109749000Y-48619000D02*
X110724000Y-47644000D01*
X111699000Y-49549000D02*
X111699000Y-48619000D01*
X111699000Y-48619000D02*
X110724000Y-47644000D01*
X110399000Y-49549000D02*
X110399000Y-47969000D01*
X110399000Y-47969000D02*
X110724000Y-47644000D01*
X112629000Y-47319000D02*
X111049000Y-47319000D01*
X111049000Y-47319000D02*
X110724000Y-47644000D01*
X112629000Y-48619000D02*
X111699000Y-48619000D01*
X111699000Y-48619000D02*
X110724000Y-47644000D01*
X112629000Y-47969000D02*
X111049000Y-47969000D01*
X111049000Y-47969000D02*
X110724000Y-47644000D01*
X112629000Y-46669000D02*
X111699000Y-46669000D01*
X111699000Y-46669000D02*
X110724000Y-47644000D01*
X111699000Y-45739000D02*
X111699000Y-46669000D01*
X111699000Y-46669000D02*
X110724000Y-47644000D01*
X108819000Y-47969000D02*
X110399000Y-47969000D01*
X110399000Y-47969000D02*
X110724000Y-47644000D01*
X108819000Y-47319000D02*
X110399000Y-47319000D01*
X110399000Y-47319000D02*
X110724000Y-47644000D01*
X108158000Y-39776000D02*
X111076000Y-39776000D01*
X111076000Y-39776000D02*
X111100000Y-39752000D01*
X111049000Y-45739000D02*
X111049000Y-39803000D01*
X111049000Y-39803000D02*
X111100000Y-39752000D01*
X111079000Y-45709000D02*
X111049000Y-45739000D01*
X111059000Y-45452000D02*
X111028000Y-45421000D01*
X120690000Y-37190000D02*
X111162000Y-37190000D01*
X111162000Y-37190000D02*
X111100000Y-37252000D01*
X111133000Y-37219000D02*
X111100000Y-37252000D01*
X111105000Y-37247000D02*
X111100000Y-37252000D01*
X108158000Y-37076000D02*
X108158000Y-34404000D01*
X108158000Y-34404000D02*
X108159000Y-34403000D01*
X110399000Y-45739000D02*
X110399000Y-44461000D01*
X110399000Y-44461000D02*
X108082000Y-42144000D01*
X92477000Y-70105000D02*
X94978100Y-70105000D01*
X94978100Y-70105000D02*
X95011400Y-70071700D01*
X86682000Y-70154000D02*
X89928000Y-70154000D01*
X89928000Y-70154000D02*
X89977000Y-70105000D01*
X102245000Y-64075000D02*
X102260000Y-64060000D01*
X102245000Y-66869000D02*
X102245000Y-64075000D01*
X105575000Y-46640000D02*
X108790000Y-46640000D01*
X108790000Y-46640000D02*
X108819000Y-46669000D01*
X95841000Y-53511000D02*
X98704000Y-53511000D01*
X98704000Y-53511000D02*
X105575000Y-46640000D01*
X105575000Y-49140000D02*
X108298000Y-49140000D01*
X108298000Y-49140000D02*
X108819000Y-48619000D01*
X111064000Y-58960000D02*
X111064000Y-56323000D01*
X111064000Y-56323000D02*
X111059000Y-56318000D01*
X111059000Y-53818000D02*
X106402000Y-53818000D01*
X111059000Y-53818000D02*
X111059000Y-49559000D01*
X111059000Y-49559000D02*
X111049000Y-49549000D01*
X74978000Y-53156000D02*
X74309000Y-53156000D01*
X74309000Y-53156000D02*
X68638000Y-47485000D01*
X68638000Y-47485000D02*
X66802000Y-47485000D01*
X113604000Y-58960000D02*
X113604000Y-57521000D01*
X113604000Y-57521000D02*
X113619000Y-57506000D01*
D42*
X65470000Y-42631000D02*
X69515000Y-42631000D01*
X69515000Y-42631000D02*
X72521000Y-39625000D01*
X63050000Y-42631000D02*
X65470000Y-42631000D01*
X65470000Y-42631000D02*
X66320000Y-42631000D01*
X66320000Y-42631000D02*
X69317000Y-39634000D01*
X63680000Y-42631000D02*
X64648000Y-42631000D01*
X64648000Y-42631000D02*
X66802000Y-44785000D01*
X80260000Y-42631000D02*
X82531000Y-42631000D01*
X82531000Y-42631000D02*
X85710000Y-39452000D01*
X59558000Y-42631000D02*
X63050000Y-42631000D01*
X63050000Y-42631000D02*
X63680000Y-42631000D01*
X63680000Y-42631000D02*
X80260000Y-42631000D01*
X80260000Y-42631000D02*
X85860000Y-42631000D01*
X85860000Y-42631000D02*
X88754000Y-39737000D01*
X59558000Y-42631000D02*
X60289000Y-42631000D01*
X60289000Y-42631000D02*
X62499000Y-44841000D01*
X59558000Y-42632000D02*
X58674000Y-42632000D01*
X59558000Y-42631000D02*
X59558000Y-42632000D01*
X57054000Y-44237000D02*
X57069000Y-44237000D01*
X57069000Y-44237000D02*
X58674000Y-42632000D01*
X57054000Y-46969000D02*
X57054000Y-44237000D01*
X57132000Y-47001000D02*
X57132000Y-38192000D01*
X57132000Y-38192000D02*
X57054000Y-38114000D01*
X57109000Y-53515000D02*
X57109000Y-47024000D01*
X57109000Y-47024000D02*
X57132000Y-47001000D01*
D43*
X57109000Y-47024000D02*
X57054000Y-46969000D01*
X57130000Y-38190000D02*
X57054000Y-38114000D01*
D41*
X83212000Y-39419000D02*
X83212000Y-36971000D01*
X81971000Y-40660000D02*
X83212000Y-39419000D01*
X83212000Y-36971000D02*
X85691000Y-36971000D01*
X85691000Y-36971000D02*
X85710000Y-36952000D01*
X80512000Y-36971000D02*
X80512000Y-32348000D01*
X80512000Y-32348000D02*
X80528000Y-32332000D01*
X77810000Y-36962000D02*
X80503000Y-36962000D01*
X80503000Y-36962000D02*
X80512000Y-36971000D01*
X69317000Y-36934000D02*
X77782000Y-36934000D01*
X77782000Y-36934000D02*
X77810000Y-36962000D01*
X83028000Y-33183000D02*
X83028000Y-32332000D01*
X84348000Y-34503000D02*
X83028000Y-33183000D01*
X83028000Y-32332000D02*
X91409000Y-32332000D01*
X91409000Y-32332000D02*
X91417000Y-32324000D01*
X50160000Y-56502000D02*
X46988000Y-56502000D01*
X46988000Y-56502000D02*
X46800000Y-56690000D01*
X50094000Y-48621000D02*
X50094000Y-56436000D01*
X50094000Y-56436000D02*
X50160000Y-56502000D01*
X100646000Y-44291000D02*
X108301000Y-44291000D01*
X108301000Y-44291000D02*
X109749000Y-45739000D01*
X62499000Y-47541000D02*
X62984000Y-47541000D01*
X62984000Y-47541000D02*
X66954000Y-51511000D01*
X66954000Y-51511000D02*
X70793000Y-51511000D01*
X70793000Y-51511000D02*
X72438000Y-53156000D01*
X76440000Y-40930000D02*
X77708000Y-39662000D01*
X77708000Y-39662000D02*
X77810000Y-39662000D01*
X77810000Y-39730000D02*
X77810000Y-39662000D01*
X77810000Y-39662000D02*
X75258000Y-39662000D01*
X75258000Y-39662000D02*
X75221000Y-39625000D01*
X91454000Y-39737000D02*
X91454000Y-42089000D01*
X84568000Y-47366000D02*
X82598000Y-45396000D01*
X86177000Y-47366000D02*
X84568000Y-47366000D01*
X91454000Y-42089000D02*
X86177000Y-47366000D01*
X91436000Y-37278000D02*
X91436000Y-39719000D01*
X91436000Y-39719000D02*
X91454000Y-39737000D01*
X91436000Y-37278000D02*
X91436000Y-35043000D01*
X91436000Y-35043000D02*
X91417000Y-35024000D01*
X94136000Y-37278000D02*
X99706000Y-37278000D01*
X99706000Y-37278000D02*
X99715000Y-37269000D01*
X74482000Y-68504000D02*
X70475000Y-68504000D01*
X70475000Y-68504000D02*
X70399000Y-68580000D01*
X74442000Y-68464000D02*
X74482000Y-68504000D01*
D43*
X74442000Y-68464000D02*
X74482000Y-68504000D01*
D41*
X98008600Y-70071700D02*
X100322700Y-70071700D01*
X100322700Y-70071700D02*
X100340000Y-70089000D01*
X102880000Y-70089000D02*
X105421000Y-70089000D01*
X105421000Y-70089000D02*
X105466000Y-70044000D01*
X114940000Y-65939000D02*
X114940000Y-63556000D01*
X114940000Y-63556000D02*
X114874000Y-63490000D01*
X120680000Y-70900000D02*
X107835800Y-70900000D01*
X107835800Y-70900000D02*
X107752000Y-70983800D01*
X107783800Y-70952000D02*
X107752000Y-70983800D01*
X120298200Y-70931800D02*
X120324000Y-70906000D01*
X107752000Y-69104200D02*
X114935200Y-69104200D01*
X114935200Y-69104200D02*
X114940000Y-69109000D01*
X44043000Y-54077000D02*
X37980000Y-54077000D01*
X37980000Y-54077000D02*
X37968000Y-54089000D01*
X43980000Y-54014000D02*
X44058000Y-54092000D01*
X44058000Y-54092000D02*
X44058000Y-56670000D01*
D42*
X44058000Y-59210000D02*
X37840000Y-59210000D01*
X104975000Y-56640000D02*
X100930000Y-56640000D01*
X100930000Y-56640000D02*
X100905000Y-56615000D01*
X96500000Y-59182000D02*
X98338000Y-59182000D01*
X98338000Y-59182000D02*
X100905000Y-56615000D01*
X100905000Y-56615000D02*
X103702000Y-53818000D01*
X94582000Y-56249000D02*
X90403000Y-56249000D01*
X90440000Y-56220000D02*
X90440000Y-56212000D01*
X90432000Y-56220000D02*
X90440000Y-56220000D01*
X90403000Y-56249000D02*
X90432000Y-56220000D01*
X86220000Y-59182000D02*
X87470000Y-59182000D01*
X87470000Y-59182000D02*
X90440000Y-56212000D01*
X90440000Y-56212000D02*
X93141000Y-53511000D01*
X99555000Y-47420000D02*
X94870000Y-47420000D01*
X94870000Y-47420000D02*
X94843500Y-47393500D01*
X83090000Y-59182000D02*
X83090000Y-59147000D01*
X83090000Y-59147000D02*
X94843500Y-47393500D01*
X94843500Y-47393500D02*
X97946000Y-44291000D01*
X78120000Y-59182000D02*
X83090000Y-59182000D01*
X83090000Y-59182000D02*
X86220000Y-59182000D01*
X86220000Y-59182000D02*
X96500000Y-59182000D01*
X96500000Y-59182000D02*
X99882000Y-59182000D01*
X99882000Y-59182000D02*
X102260000Y-61560000D01*
X71420000Y-59182000D02*
X78120000Y-59182000D01*
X78120000Y-59182000D02*
X82232000Y-63294000D01*
X53045000Y-59182000D02*
X71420000Y-59182000D01*
X71420000Y-59182000D02*
X71492000Y-59182000D01*
X71492000Y-59182000D02*
X77518000Y-53156000D01*
X53045000Y-59182000D02*
X54142000Y-59182000D01*
X54142000Y-59182000D02*
X57109000Y-56215000D01*
X44058000Y-59210000D02*
X50152000Y-59210000D01*
D44*
X50152000Y-59210000D02*
X50180000Y-59182000D01*
D42*
X50180000Y-59182000D02*
X53045000Y-59182000D01*
D45*
X53025000Y-59202000D02*
X53045000Y-59182000D01*
D46*
G36*
X79182355Y-32957000D02*
X79223091Y-33173492D01*
X79351037Y-33372326D01*
X79546261Y-33505717D01*
X79778000Y-33552645D01*
X79800800Y-33552645D01*
X79800800Y-35725355D01*
X79762000Y-35725355D01*
X79545508Y-35766091D01*
X79346674Y-35894037D01*
X79213283Y-36089261D01*
X79180571Y-36250800D01*
X79055645Y-36250800D01*
X79055645Y-36212000D01*
X79014909Y-35995508D01*
X78886963Y-35796674D01*
X78691739Y-35663283D01*
X78460000Y-35616355D01*
X77160000Y-35616355D01*
X76943508Y-35657091D01*
X76744674Y-35785037D01*
X76611283Y-35980261D01*
X76564355Y-36212000D01*
X76564355Y-36222800D01*
X70562645Y-36222800D01*
X70562645Y-36184000D01*
X70521909Y-35967508D01*
X70393963Y-35768674D01*
X70198739Y-35635283D01*
X69967000Y-35588355D01*
X68667000Y-35588355D01*
X68450508Y-35629091D01*
X68251674Y-35757037D01*
X68118283Y-35952261D01*
X68071355Y-36184000D01*
X68071355Y-37684000D01*
X68112091Y-37900492D01*
X68240037Y-38099326D01*
X68435261Y-38232717D01*
X68667000Y-38279645D01*
X69967000Y-38279645D01*
X70183492Y-38238909D01*
X70382326Y-38110963D01*
X70515717Y-37915739D01*
X70562645Y-37684000D01*
X70562645Y-37645200D01*
X76564355Y-37645200D01*
X76564355Y-37712000D01*
X76605091Y-37928492D01*
X76733037Y-38127326D01*
X76928261Y-38260717D01*
X77160000Y-38307645D01*
X78460000Y-38307645D01*
X78676492Y-38266909D01*
X78875326Y-38138963D01*
X79008717Y-37943739D01*
X79055645Y-37712000D01*
X79055645Y-37673200D01*
X79176177Y-37673200D01*
X79207091Y-37837492D01*
X79335037Y-38036326D01*
X79530261Y-38169717D01*
X79762000Y-38216645D01*
X81262000Y-38216645D01*
X81478492Y-38175909D01*
X81677326Y-38047963D01*
X81810717Y-37852739D01*
X81857645Y-37621000D01*
X81857645Y-36321000D01*
X81816909Y-36104508D01*
X81688963Y-35905674D01*
X81493739Y-35772283D01*
X81262000Y-35725355D01*
X81223200Y-35725355D01*
X81223200Y-33552645D01*
X81278000Y-33552645D01*
X81494492Y-33511909D01*
X81693326Y-33383963D01*
X81778403Y-33259449D01*
X81851037Y-33372326D01*
X82046261Y-33505717D01*
X82278000Y-33552645D01*
X82436071Y-33552645D01*
X82525106Y-33685894D01*
X83313824Y-34474612D01*
X83313621Y-34707813D01*
X83470737Y-35088062D01*
X83761408Y-35379241D01*
X84141382Y-35537020D01*
X84552813Y-35537379D01*
X84933062Y-35380263D01*
X85224241Y-35089592D01*
X85382020Y-34709618D01*
X85382379Y-34298187D01*
X85225263Y-33917938D01*
X84934592Y-33626759D01*
X84554618Y-33468980D01*
X84319563Y-33468775D01*
X84210141Y-33359353D01*
X84326717Y-33188739D01*
X84356189Y-33043200D01*
X90171355Y-33043200D01*
X90171355Y-33074000D01*
X90212091Y-33290492D01*
X90340037Y-33489326D01*
X90535261Y-33622717D01*
X90767000Y-33669645D01*
X92067000Y-33669645D01*
X92283492Y-33628909D01*
X92482326Y-33500963D01*
X92615717Y-33305739D01*
X92662645Y-33074000D01*
X92662645Y-31911200D01*
X122328800Y-31911200D01*
X122328800Y-35944355D01*
X118400000Y-35944355D01*
X118183508Y-35985091D01*
X117984674Y-36113037D01*
X117851283Y-36308261D01*
X117816748Y-36478800D01*
X112316280Y-36478800D01*
X112279909Y-36285508D01*
X112151963Y-36086674D01*
X111956739Y-35953283D01*
X111725000Y-35906355D01*
X110475000Y-35906355D01*
X110258508Y-35947091D01*
X110059674Y-36075037D01*
X109926283Y-36270261D01*
X109879355Y-36502000D01*
X109879355Y-38002000D01*
X109920091Y-38218492D01*
X110048037Y-38417326D01*
X110172551Y-38502403D01*
X110059674Y-38575037D01*
X109926283Y-38770261D01*
X109879355Y-39002000D01*
X109879355Y-39064800D01*
X109403645Y-39064800D01*
X109403645Y-39026000D01*
X109362909Y-38809508D01*
X109234963Y-38610674D01*
X109039739Y-38477283D01*
X108808000Y-38430355D01*
X107508000Y-38430355D01*
X107291508Y-38471091D01*
X107092674Y-38599037D01*
X106959283Y-38794261D01*
X106912355Y-39026000D01*
X106912355Y-40526000D01*
X106953091Y-40742492D01*
X107081037Y-40941326D01*
X107114914Y-40964473D01*
X106916674Y-41092037D01*
X106783283Y-41287261D01*
X106736355Y-41519000D01*
X106736355Y-42769000D01*
X106777091Y-42985492D01*
X106905037Y-43184326D01*
X107100261Y-43317717D01*
X107332000Y-43364645D01*
X108296857Y-43364645D01*
X108564407Y-43632195D01*
X108301000Y-43579800D01*
X101980129Y-43579800D01*
X101950909Y-43424508D01*
X101822963Y-43225674D01*
X101627739Y-43092283D01*
X101396000Y-43045355D01*
X99896000Y-43045355D01*
X99679508Y-43086091D01*
X99480674Y-43214037D01*
X99347283Y-43409261D01*
X99300355Y-43641000D01*
X99300355Y-44941000D01*
X99341091Y-45157492D01*
X99469037Y-45356326D01*
X99664261Y-45489717D01*
X99896000Y-45536645D01*
X101396000Y-45536645D01*
X101612492Y-45495909D01*
X101811326Y-45367963D01*
X101944717Y-45172739D01*
X101979252Y-45002200D01*
X108006412Y-45002200D01*
X108897566Y-45893355D01*
X108374000Y-45893355D01*
X108185627Y-45928800D01*
X106795645Y-45928800D01*
X106795645Y-45890000D01*
X106754909Y-45673508D01*
X106626963Y-45474674D01*
X106431739Y-45341283D01*
X106200000Y-45294355D01*
X104950000Y-45294355D01*
X104733508Y-45335091D01*
X104534674Y-45463037D01*
X104401283Y-45658261D01*
X104354355Y-45890000D01*
X104354355Y-46854856D01*
X98409412Y-52799800D01*
X97175129Y-52799800D01*
X97145909Y-52644508D01*
X97017963Y-52445674D01*
X96822739Y-52312283D01*
X96591000Y-52265355D01*
X95091000Y-52265355D01*
X94874508Y-52306091D01*
X94675674Y-52434037D01*
X94542283Y-52629261D01*
X94495355Y-52861000D01*
X94495355Y-54161000D01*
X94536091Y-54377492D01*
X94664037Y-54576326D01*
X94859261Y-54709717D01*
X95091000Y-54756645D01*
X96591000Y-54756645D01*
X96807492Y-54715909D01*
X97006326Y-54587963D01*
X97139717Y-54392739D01*
X97174252Y-54222200D01*
X98704000Y-54222200D01*
X98976165Y-54168063D01*
X99206894Y-54013894D01*
X104354355Y-48866434D01*
X104354355Y-49890000D01*
X104395091Y-50106492D01*
X104523037Y-50305326D01*
X104718261Y-50438717D01*
X104950000Y-50485645D01*
X106200000Y-50485645D01*
X106416492Y-50444909D01*
X106615326Y-50316963D01*
X106748717Y-50121739D01*
X106795645Y-49890000D01*
X106795645Y-49851200D01*
X108298000Y-49851200D01*
X108570165Y-49797063D01*
X108800894Y-49642894D01*
X109049143Y-49394645D01*
X109264000Y-49394645D01*
X109480492Y-49353909D01*
X109679326Y-49225963D01*
X109812717Y-49030739D01*
X109859645Y-48799000D01*
X109859645Y-48439000D01*
X109818909Y-48222508D01*
X109690963Y-48023674D01*
X109495739Y-47890283D01*
X109264000Y-47843355D01*
X108374000Y-47843355D01*
X108157508Y-47884091D01*
X107958674Y-48012037D01*
X107825283Y-48207261D01*
X107780421Y-48428800D01*
X106795645Y-48428800D01*
X106795645Y-48390000D01*
X106754909Y-48173508D01*
X106626963Y-47974674D01*
X106502449Y-47889597D01*
X106615326Y-47816963D01*
X106748717Y-47621739D01*
X106795645Y-47390000D01*
X106795645Y-47351200D01*
X108074181Y-47351200D01*
X108142261Y-47397717D01*
X108374000Y-47444645D01*
X109264000Y-47444645D01*
X109480492Y-47403909D01*
X109679326Y-47275963D01*
X109812717Y-47080739D01*
X109859645Y-46849000D01*
X109859645Y-46779645D01*
X109929000Y-46779645D01*
X110079322Y-46751360D01*
X110219000Y-46779645D01*
X110579000Y-46779645D01*
X110729322Y-46751360D01*
X110869000Y-46779645D01*
X111229000Y-46779645D01*
X111445492Y-46738909D01*
X111644326Y-46610963D01*
X111777717Y-46415739D01*
X111824645Y-46184000D01*
X111824645Y-45294000D01*
X111783909Y-45077508D01*
X111760200Y-45040663D01*
X111760200Y-41091022D01*
X111941492Y-41056909D01*
X112140326Y-40928963D01*
X112273717Y-40733739D01*
X112320645Y-40502000D01*
X112320645Y-39002000D01*
X112279909Y-38785508D01*
X112151963Y-38586674D01*
X112027449Y-38501597D01*
X112140326Y-38428963D01*
X112273717Y-38233739D01*
X112320645Y-38002000D01*
X112320645Y-37901200D01*
X117804355Y-37901200D01*
X117804355Y-37940000D01*
X117845091Y-38156492D01*
X117973037Y-38355326D01*
X118168261Y-38488717D01*
X118400000Y-38535645D01*
X122328800Y-38535645D01*
X122328800Y-69594355D01*
X118400000Y-69594355D01*
X118183508Y-69635091D01*
X117984674Y-69763037D01*
X117851283Y-69958261D01*
X117804598Y-70188800D01*
X115743796Y-70188800D01*
X115793717Y-70115739D01*
X115840645Y-69884000D01*
X115840645Y-68334000D01*
X115799909Y-68117508D01*
X115671963Y-67918674D01*
X115476739Y-67785283D01*
X115245000Y-67738355D01*
X114635000Y-67738355D01*
X114418508Y-67779091D01*
X114219674Y-67907037D01*
X114086283Y-68102261D01*
X114039355Y-68334000D01*
X114039355Y-68393000D01*
X108752678Y-68393000D01*
X108618739Y-68301483D01*
X108387000Y-68254555D01*
X107117000Y-68254555D01*
X106900508Y-68295291D01*
X106701674Y-68423237D01*
X106568283Y-68618461D01*
X106521355Y-68850200D01*
X106521355Y-69358200D01*
X106523937Y-69371923D01*
X106332739Y-69241283D01*
X106101000Y-69194355D01*
X104831000Y-69194355D01*
X104614508Y-69235091D01*
X104415674Y-69363037D01*
X104405587Y-69377800D01*
X103880645Y-69377800D01*
X103880645Y-69240000D01*
X103842606Y-69037842D01*
X103880645Y-68850000D01*
X103880645Y-68090000D01*
X103842606Y-67887842D01*
X103880645Y-67700000D01*
X103880645Y-66020000D01*
X103839909Y-65803508D01*
X103711963Y-65604674D01*
X103516739Y-65471283D01*
X103285000Y-65424355D01*
X102956200Y-65424355D01*
X102956200Y-65392248D01*
X103101492Y-65364909D01*
X103300326Y-65236963D01*
X103433717Y-65041739D01*
X103480645Y-64810000D01*
X103480645Y-63310000D01*
X103439909Y-63093508D01*
X103311963Y-62894674D01*
X103187449Y-62809597D01*
X103300326Y-62736963D01*
X103305083Y-62730000D01*
X113898355Y-62730000D01*
X113898355Y-64250000D01*
X113939091Y-64466492D01*
X114067037Y-64665326D01*
X114204497Y-64759249D01*
X114086283Y-64932261D01*
X114039355Y-65164000D01*
X114039355Y-66714000D01*
X114080091Y-66930492D01*
X114208037Y-67129326D01*
X114403261Y-67262717D01*
X114635000Y-67309645D01*
X115245000Y-67309645D01*
X115461492Y-67268909D01*
X115660326Y-67140963D01*
X115793717Y-66945739D01*
X115840645Y-66714000D01*
X115840645Y-65164000D01*
X115799909Y-64947508D01*
X115671963Y-64748674D01*
X115651200Y-64734487D01*
X115651200Y-64688627D01*
X115669326Y-64676963D01*
X115802717Y-64481739D01*
X115849645Y-64250000D01*
X115849645Y-62730000D01*
X115808909Y-62513508D01*
X115680963Y-62314674D01*
X115485739Y-62181283D01*
X115254000Y-62134355D01*
X114494000Y-62134355D01*
X114277508Y-62175091D01*
X114078674Y-62303037D01*
X113945283Y-62498261D01*
X113898355Y-62730000D01*
X103305083Y-62730000D01*
X103433717Y-62541739D01*
X103480645Y-62310000D01*
X103480645Y-60810000D01*
X103439909Y-60593508D01*
X103311963Y-60394674D01*
X103116739Y-60261283D01*
X102885000Y-60214355D01*
X102419725Y-60214355D01*
X100634685Y-58429315D01*
X100611528Y-58413842D01*
X101320913Y-57704457D01*
X103833354Y-57704457D01*
X103993261Y-57813717D01*
X104225000Y-57860645D01*
X105725000Y-57860645D01*
X105941492Y-57819909D01*
X106140326Y-57691963D01*
X106273717Y-57496739D01*
X106320645Y-57265000D01*
X106320645Y-56015000D01*
X106279909Y-55798508D01*
X106151963Y-55599674D01*
X105956739Y-55466283D01*
X105725000Y-55419355D01*
X104225000Y-55419355D01*
X104008508Y-55460091D01*
X103829090Y-55575543D01*
X103449827Y-55575543D01*
X103961725Y-55063645D01*
X104452000Y-55063645D01*
X104668492Y-55022909D01*
X104867326Y-54894963D01*
X105000717Y-54699739D01*
X105047645Y-54468000D01*
X105047645Y-53168000D01*
X105056355Y-53168000D01*
X105056355Y-54468000D01*
X105097091Y-54684492D01*
X105225037Y-54883326D01*
X105420261Y-55016717D01*
X105652000Y-55063645D01*
X107152000Y-55063645D01*
X107368492Y-55022909D01*
X107567326Y-54894963D01*
X107700717Y-54699739D01*
X107735252Y-54529200D01*
X109838355Y-54529200D01*
X109838355Y-54568000D01*
X109879091Y-54784492D01*
X110007037Y-54983326D01*
X110131551Y-55068403D01*
X110018674Y-55141037D01*
X109885283Y-55336261D01*
X109838355Y-55568000D01*
X109838355Y-57068000D01*
X109879091Y-57284492D01*
X110007037Y-57483326D01*
X110202261Y-57616717D01*
X110352800Y-57647202D01*
X110352800Y-57718903D01*
X110268674Y-57773037D01*
X110135283Y-57968261D01*
X110088355Y-58200000D01*
X110088355Y-59720000D01*
X110129091Y-59936492D01*
X110257037Y-60135326D01*
X110452261Y-60268717D01*
X110684000Y-60315645D01*
X111444000Y-60315645D01*
X111660492Y-60274909D01*
X111859326Y-60146963D01*
X111992717Y-59951739D01*
X112039645Y-59720000D01*
X112039645Y-58200000D01*
X111998909Y-57983508D01*
X111870963Y-57784674D01*
X111775200Y-57719242D01*
X111775200Y-57710813D01*
X112584621Y-57710813D01*
X112685075Y-57953930D01*
X112675283Y-57968261D01*
X112628355Y-58200000D01*
X112628355Y-59720000D01*
X112669091Y-59936492D01*
X112797037Y-60135326D01*
X112992261Y-60268717D01*
X113224000Y-60315645D01*
X113984000Y-60315645D01*
X114200492Y-60274909D01*
X114399326Y-60146963D01*
X114532717Y-59951739D01*
X114579645Y-59720000D01*
X114579645Y-58200000D01*
X114539417Y-57986205D01*
X114653020Y-57712618D01*
X114653379Y-57301187D01*
X114496263Y-56920938D01*
X114205592Y-56629759D01*
X113825618Y-56471980D01*
X113414187Y-56471621D01*
X113033938Y-56628737D01*
X112742759Y-56919408D01*
X112584980Y-57299382D01*
X112584621Y-57710813D01*
X111775200Y-57710813D01*
X111775200Y-57646484D01*
X111900492Y-57622909D01*
X112099326Y-57494963D01*
X112232717Y-57299739D01*
X112279645Y-57068000D01*
X112279645Y-55568000D01*
X112238909Y-55351508D01*
X112110963Y-55152674D01*
X111986449Y-55067597D01*
X112099326Y-54994963D01*
X112232717Y-54799739D01*
X112279645Y-54568000D01*
X112279645Y-53068000D01*
X112238909Y-52851508D01*
X112110963Y-52652674D01*
X111915739Y-52519283D01*
X111770200Y-52489811D01*
X111770200Y-50236740D01*
X111777717Y-50225739D01*
X111824645Y-49994000D01*
X111824645Y-49104000D01*
X111783909Y-48887508D01*
X111655963Y-48688674D01*
X111460739Y-48555283D01*
X111229000Y-48508355D01*
X110869000Y-48508355D01*
X110652508Y-48549091D01*
X110453674Y-48677037D01*
X110320283Y-48872261D01*
X110273355Y-49104000D01*
X110273355Y-49994000D01*
X110314091Y-50210492D01*
X110347800Y-50262877D01*
X110347800Y-52488575D01*
X110217508Y-52513091D01*
X110018674Y-52641037D01*
X109885283Y-52836261D01*
X109838355Y-53068000D01*
X109838355Y-53106800D01*
X107736129Y-53106800D01*
X107706909Y-52951508D01*
X107578963Y-52752674D01*
X107383739Y-52619283D01*
X107152000Y-52572355D01*
X105652000Y-52572355D01*
X105435508Y-52613091D01*
X105236674Y-52741037D01*
X105103283Y-52936261D01*
X105056355Y-53168000D01*
X105047645Y-53168000D01*
X105006909Y-52951508D01*
X104878963Y-52752674D01*
X104683739Y-52619283D01*
X104452000Y-52572355D01*
X102952000Y-52572355D01*
X102735508Y-52613091D01*
X102536674Y-52741037D01*
X102403283Y-52936261D01*
X102356355Y-53168000D01*
X102356355Y-53658275D01*
X97897087Y-58117543D01*
X90039827Y-58117543D01*
X90843913Y-57313457D01*
X93440354Y-57313457D01*
X93600261Y-57422717D01*
X93832000Y-57469645D01*
X95332000Y-57469645D01*
X95548492Y-57428909D01*
X95747326Y-57300963D01*
X95880717Y-57105739D01*
X95927645Y-56874000D01*
X95927645Y-55624000D01*
X95886909Y-55407508D01*
X95758963Y-55208674D01*
X95563739Y-55075283D01*
X95332000Y-55028355D01*
X93832000Y-55028355D01*
X93615508Y-55069091D01*
X93436090Y-55184543D01*
X92972827Y-55184543D01*
X93400725Y-54756645D01*
X93891000Y-54756645D01*
X94107492Y-54715909D01*
X94306326Y-54587963D01*
X94439717Y-54392739D01*
X94486645Y-54161000D01*
X94486645Y-52861000D01*
X94445909Y-52644508D01*
X94317963Y-52445674D01*
X94122739Y-52312283D01*
X93891000Y-52265355D01*
X92391000Y-52265355D01*
X92174508Y-52306091D01*
X91975674Y-52434037D01*
X91842283Y-52629261D01*
X91795355Y-52861000D01*
X91795355Y-53351275D01*
X87029087Y-58117543D01*
X85624827Y-58117543D01*
X95257913Y-48484457D01*
X98413354Y-48484457D01*
X98573261Y-48593717D01*
X98805000Y-48640645D01*
X100305000Y-48640645D01*
X100521492Y-48599909D01*
X100720326Y-48471963D01*
X100853717Y-48276739D01*
X100900645Y-48045000D01*
X100900645Y-46795000D01*
X100859909Y-46578508D01*
X100731963Y-46379674D01*
X100536739Y-46246283D01*
X100305000Y-46199355D01*
X98805000Y-46199355D01*
X98588508Y-46240091D01*
X98409090Y-46355543D01*
X97386826Y-46355543D01*
X98205724Y-45536645D01*
X98696000Y-45536645D01*
X98912492Y-45495909D01*
X99111326Y-45367963D01*
X99244717Y-45172739D01*
X99291645Y-44941000D01*
X99291645Y-43641000D01*
X99250909Y-43424508D01*
X99122963Y-43225674D01*
X98927739Y-43092283D01*
X98696000Y-43045355D01*
X97196000Y-43045355D01*
X96979508Y-43086091D01*
X96780674Y-43214037D01*
X96647283Y-43409261D01*
X96600355Y-43641000D01*
X96600355Y-44131276D01*
X94090815Y-46640815D01*
X82614087Y-58117543D01*
X74061827Y-58117543D01*
X77709002Y-54470368D01*
X77778264Y-54470428D01*
X78261462Y-54270774D01*
X78631475Y-53901407D01*
X78788138Y-53524121D01*
X78943226Y-53899462D01*
X79312593Y-54269475D01*
X79795443Y-54469972D01*
X80318264Y-54470428D01*
X80801462Y-54270774D01*
X81171475Y-53901407D01*
X81328138Y-53524121D01*
X81483226Y-53899462D01*
X81852593Y-54269475D01*
X82335443Y-54469972D01*
X82858264Y-54470428D01*
X83341462Y-54270774D01*
X83711475Y-53901407D01*
X83868138Y-53524121D01*
X84023226Y-53899462D01*
X84392593Y-54269475D01*
X84875443Y-54469972D01*
X85398264Y-54470428D01*
X85881462Y-54270774D01*
X86251475Y-53901407D01*
X86451972Y-53418557D01*
X86452428Y-52895736D01*
X86252774Y-52412538D01*
X85883407Y-52042525D01*
X85400557Y-51842028D01*
X84877736Y-51841572D01*
X84394538Y-52041226D01*
X84024525Y-52410593D01*
X83867862Y-52787879D01*
X83712774Y-52412538D01*
X83343407Y-52042525D01*
X82860557Y-51842028D01*
X82337736Y-51841572D01*
X81854538Y-52041226D01*
X81484525Y-52410593D01*
X81327862Y-52787879D01*
X81172774Y-52412538D01*
X80803407Y-52042525D01*
X80320557Y-51842028D01*
X79797736Y-51841572D01*
X79314538Y-52041226D01*
X78944525Y-52410593D01*
X78787862Y-52787879D01*
X78632774Y-52412538D01*
X78263407Y-52042525D01*
X77780557Y-51842028D01*
X77257736Y-51841572D01*
X76774538Y-52041226D01*
X76404525Y-52410593D01*
X76247862Y-52787879D01*
X76092774Y-52412538D01*
X75723407Y-52042525D01*
X75240557Y-51842028D01*
X74717736Y-51841572D01*
X74234538Y-52041226D01*
X74217261Y-52058473D01*
X69140894Y-46982106D01*
X68910165Y-46827937D01*
X68638000Y-46773800D01*
X68047645Y-46773800D01*
X68047645Y-46735000D01*
X68006909Y-46518508D01*
X67878963Y-46319674D01*
X67683739Y-46186283D01*
X67452000Y-46139355D01*
X66152000Y-46139355D01*
X65935508Y-46180091D01*
X65736674Y-46308037D01*
X65603283Y-46503261D01*
X65556355Y-46735000D01*
X65556355Y-48235000D01*
X65597091Y-48451492D01*
X65725037Y-48650326D01*
X65920261Y-48783717D01*
X66152000Y-48830645D01*
X67452000Y-48830645D01*
X67668492Y-48789909D01*
X67867326Y-48661963D01*
X68000717Y-48466739D01*
X68047645Y-48235000D01*
X68047645Y-48196200D01*
X68343412Y-48196200D01*
X70985254Y-50838042D01*
X70793000Y-50799800D01*
X67248588Y-50799800D01*
X63744645Y-47295857D01*
X63744645Y-46791000D01*
X63703909Y-46574508D01*
X63575963Y-46375674D01*
X63380739Y-46242283D01*
X63149000Y-46195355D01*
X61849000Y-46195355D01*
X61632508Y-46236091D01*
X61433674Y-46364037D01*
X61300283Y-46559261D01*
X61253355Y-46791000D01*
X61253355Y-48291000D01*
X61294091Y-48507492D01*
X61422037Y-48706326D01*
X61617261Y-48839717D01*
X61849000Y-48886645D01*
X63149000Y-48886645D01*
X63296166Y-48858954D01*
X66451106Y-52013894D01*
X66681835Y-52168063D01*
X66954000Y-52222200D01*
X68973247Y-52222200D01*
X68784525Y-52410593D01*
X68584028Y-52893443D01*
X68583572Y-53416264D01*
X68783226Y-53899462D01*
X69152593Y-54269475D01*
X69635443Y-54469972D01*
X70158264Y-54470428D01*
X70641462Y-54270774D01*
X71011475Y-53901407D01*
X71168138Y-53524121D01*
X71323226Y-53899462D01*
X71692593Y-54269475D01*
X72175443Y-54469972D01*
X72698264Y-54470428D01*
X73181462Y-54270774D01*
X73551475Y-53901407D01*
X73697339Y-53550127D01*
X73734053Y-53586841D01*
X73863226Y-53899462D01*
X74232593Y-54269475D01*
X74703583Y-54465047D01*
X71760500Y-57408130D01*
X71788973Y-57339560D01*
X71789426Y-56820717D01*
X71591292Y-56341195D01*
X71224735Y-55973998D01*
X70745560Y-55775027D01*
X70226717Y-55774574D01*
X69747195Y-55972708D01*
X69379998Y-56339265D01*
X69214839Y-56737011D01*
X69051292Y-56341195D01*
X68684735Y-55973998D01*
X68205560Y-55775027D01*
X67686717Y-55774574D01*
X67207195Y-55972708D01*
X66839998Y-56339265D01*
X66674839Y-56737011D01*
X66511292Y-56341195D01*
X66144735Y-55973998D01*
X65665560Y-55775027D01*
X65146717Y-55774574D01*
X64667195Y-55972708D01*
X64299998Y-56339265D01*
X64101027Y-56818440D01*
X64100574Y-57337283D01*
X64298708Y-57816805D01*
X64598922Y-58117543D01*
X56711827Y-58117543D01*
X57268725Y-57560645D01*
X57759000Y-57560645D01*
X57975492Y-57519909D01*
X58174326Y-57391963D01*
X58307717Y-57196739D01*
X58354645Y-56965000D01*
X58354645Y-55465000D01*
X58313909Y-55248508D01*
X58185963Y-55049674D01*
X57990739Y-54916283D01*
X57759000Y-54869355D01*
X56459000Y-54869355D01*
X56242508Y-54910091D01*
X56043674Y-55038037D01*
X55910283Y-55233261D01*
X55863355Y-55465000D01*
X55863355Y-55955275D01*
X53921705Y-57896925D01*
X53901739Y-57883283D01*
X53670000Y-57836355D01*
X52420000Y-57836355D01*
X52203508Y-57877091D01*
X52004674Y-58005037D01*
X51927802Y-58117543D01*
X51289001Y-58117543D01*
X51236963Y-58036674D01*
X51041739Y-57903283D01*
X50810000Y-57856355D01*
X49510000Y-57856355D01*
X49293508Y-57897091D01*
X49094674Y-58025037D01*
X49012336Y-58145543D01*
X45021897Y-58145543D01*
X44871470Y-57994853D01*
X44739697Y-57940136D01*
X44869348Y-57886565D01*
X45273147Y-57483470D01*
X45491951Y-56956532D01*
X45492016Y-56881148D01*
X45834633Y-56881148D01*
X45981266Y-57236027D01*
X46252544Y-57507779D01*
X46607168Y-57655032D01*
X46991148Y-57655367D01*
X47346027Y-57508734D01*
X47617779Y-57237456D01*
X47627851Y-57213200D01*
X48914355Y-57213200D01*
X48914355Y-57252000D01*
X48955091Y-57468492D01*
X49083037Y-57667326D01*
X49278261Y-57800717D01*
X49510000Y-57847645D01*
X50810000Y-57847645D01*
X51026492Y-57806909D01*
X51225326Y-57678963D01*
X51358717Y-57483739D01*
X51405645Y-57252000D01*
X51405645Y-55752000D01*
X51364909Y-55535508D01*
X51236963Y-55336674D01*
X51041739Y-55203283D01*
X50810000Y-55156355D01*
X50805200Y-55156355D01*
X50805200Y-49738285D01*
X50831805Y-49727292D01*
X51199002Y-49360735D01*
X51397973Y-48881560D01*
X51398426Y-48362717D01*
X51200292Y-47883195D01*
X50833735Y-47515998D01*
X50354560Y-47317027D01*
X49835717Y-47316574D01*
X49356195Y-47514708D01*
X48988998Y-47881265D01*
X48790027Y-48360440D01*
X48789574Y-48879283D01*
X48987708Y-49358805D01*
X49354265Y-49726002D01*
X49382800Y-49737851D01*
X49382800Y-55180289D01*
X49293508Y-55197091D01*
X49094674Y-55325037D01*
X48961283Y-55520261D01*
X48914355Y-55752000D01*
X48914355Y-55790800D01*
X47151373Y-55790800D01*
X46992832Y-55724968D01*
X46608852Y-55724633D01*
X46253973Y-55871266D01*
X45982221Y-56142544D01*
X45834968Y-56497168D01*
X45834633Y-56881148D01*
X45492016Y-56881148D01*
X45492449Y-56385971D01*
X45274565Y-55858652D01*
X44871470Y-55454853D01*
X44769200Y-55412387D01*
X44769200Y-55297645D01*
X44793000Y-55297645D01*
X45009492Y-55256909D01*
X45208326Y-55128963D01*
X45341717Y-54933739D01*
X45388645Y-54702000D01*
X45388645Y-53452000D01*
X45347909Y-53235508D01*
X45219963Y-53036674D01*
X45024739Y-52903283D01*
X44793000Y-52856355D01*
X43293000Y-52856355D01*
X43076508Y-52897091D01*
X42877674Y-53025037D01*
X42744283Y-53220261D01*
X42714811Y-53365800D01*
X39383286Y-53365800D01*
X39311802Y-53192795D01*
X38866549Y-52746764D01*
X38284499Y-52505076D01*
X37654266Y-52504526D01*
X37071795Y-52745198D01*
X36625764Y-53190451D01*
X36384076Y-53772501D01*
X36383526Y-54402734D01*
X36624198Y-54985205D01*
X37069451Y-55431236D01*
X37651501Y-55672924D01*
X38281734Y-55673474D01*
X38864205Y-55432802D01*
X39310236Y-54987549D01*
X39393013Y-54788200D01*
X42713575Y-54788200D01*
X42738091Y-54918492D01*
X42866037Y-55117326D01*
X43061261Y-55250717D01*
X43293000Y-55297645D01*
X43346800Y-55297645D01*
X43346800Y-55412055D01*
X43246652Y-55453435D01*
X42842853Y-55856530D01*
X42624049Y-56383468D01*
X42623551Y-56954029D01*
X42841435Y-57481348D01*
X43244530Y-57885147D01*
X43376303Y-57939864D01*
X43246652Y-57993435D01*
X43094278Y-58145543D01*
X38935913Y-58145543D01*
X38698549Y-57907764D01*
X38116499Y-57666076D01*
X37486266Y-57665526D01*
X36903795Y-57906198D01*
X36457764Y-58351451D01*
X36216076Y-58933501D01*
X36215526Y-59563734D01*
X36456198Y-60146205D01*
X36901451Y-60592236D01*
X37483501Y-60833924D01*
X38113734Y-60834474D01*
X38696205Y-60593802D01*
X39016108Y-60274457D01*
X43094103Y-60274457D01*
X43244530Y-60425147D01*
X43376303Y-60479864D01*
X43246652Y-60533435D01*
X42842853Y-60936530D01*
X42624049Y-61463468D01*
X42623551Y-62034029D01*
X42841435Y-62561348D01*
X43244530Y-62965147D01*
X43771468Y-63183951D01*
X44342029Y-63184449D01*
X44869348Y-62966565D01*
X45273147Y-62563470D01*
X45491951Y-62036532D01*
X45492449Y-61465971D01*
X45274565Y-60938652D01*
X44871470Y-60534853D01*
X44739697Y-60480136D01*
X44869348Y-60426565D01*
X45021722Y-60274457D01*
X49023278Y-60274457D01*
X49083037Y-60367326D01*
X49278261Y-60500717D01*
X49510000Y-60547645D01*
X50810000Y-60547645D01*
X51026492Y-60506909D01*
X51225326Y-60378963D01*
X51315864Y-60246457D01*
X51928130Y-60246457D01*
X51993037Y-60347326D01*
X52188261Y-60480717D01*
X52420000Y-60527645D01*
X53670000Y-60527645D01*
X53886492Y-60486909D01*
X54085326Y-60358963D01*
X54162198Y-60246457D01*
X77679087Y-60246457D01*
X80876355Y-63443725D01*
X80876355Y-64054000D01*
X80917091Y-64270492D01*
X81045037Y-64469326D01*
X81240261Y-64602717D01*
X81472000Y-64649645D01*
X82992000Y-64649645D01*
X83208492Y-64608909D01*
X83407326Y-64480963D01*
X83540717Y-64285739D01*
X83587645Y-64054000D01*
X83587645Y-62534000D01*
X83546909Y-62317508D01*
X83418963Y-62118674D01*
X83223739Y-61985283D01*
X82992000Y-61938355D01*
X82381725Y-61938355D01*
X80689827Y-60246457D01*
X99441087Y-60246457D01*
X101039355Y-61844725D01*
X101039355Y-62310000D01*
X101080091Y-62526492D01*
X101208037Y-62725326D01*
X101332551Y-62810403D01*
X101219674Y-62883037D01*
X101086283Y-63078261D01*
X101039355Y-63310000D01*
X101039355Y-64810000D01*
X101080091Y-65026492D01*
X101208037Y-65225326D01*
X101403261Y-65358717D01*
X101533800Y-65385152D01*
X101533800Y-65424355D01*
X101225000Y-65424355D01*
X101008508Y-65465091D01*
X100987480Y-65478622D01*
X100976739Y-65471283D01*
X100745000Y-65424355D01*
X99955000Y-65424355D01*
X99738508Y-65465091D01*
X99539674Y-65593037D01*
X99406283Y-65788261D01*
X99359355Y-66020000D01*
X99359355Y-67700000D01*
X99397394Y-67902158D01*
X99359355Y-68090000D01*
X99359355Y-68850000D01*
X99397394Y-69052158D01*
X99359355Y-69240000D01*
X99359355Y-69360500D01*
X98959845Y-69360500D01*
X98959845Y-69322400D01*
X98919109Y-69105908D01*
X98791163Y-68907074D01*
X98595939Y-68773683D01*
X98364200Y-68726755D01*
X97653000Y-68726755D01*
X97436508Y-68767491D01*
X97237674Y-68895437D01*
X97104283Y-69090661D01*
X97057355Y-69322400D01*
X97057355Y-70821000D01*
X97098091Y-71037492D01*
X97226037Y-71236326D01*
X97421261Y-71369717D01*
X97653000Y-71416645D01*
X98364200Y-71416645D01*
X98580692Y-71375909D01*
X98779526Y-71247963D01*
X98912917Y-71052739D01*
X98959845Y-70821000D01*
X98959845Y-70782900D01*
X99359355Y-70782900D01*
X99359355Y-70920000D01*
X99400091Y-71136492D01*
X99528037Y-71335326D01*
X99723261Y-71468717D01*
X99955000Y-71515645D01*
X100745000Y-71515645D01*
X100961492Y-71474909D01*
X100982520Y-71461378D01*
X100993261Y-71468717D01*
X101225000Y-71515645D01*
X102015000Y-71515645D01*
X102231492Y-71474909D01*
X102252520Y-71461378D01*
X102263261Y-71468717D01*
X102495000Y-71515645D01*
X103285000Y-71515645D01*
X103501492Y-71474909D01*
X103700326Y-71346963D01*
X103833717Y-71151739D01*
X103880645Y-70920000D01*
X103880645Y-70800200D01*
X104531181Y-70800200D01*
X104599261Y-70846717D01*
X104831000Y-70893645D01*
X106101000Y-70893645D01*
X106317492Y-70852909D01*
X106516326Y-70724963D01*
X106524865Y-70712465D01*
X106521355Y-70729800D01*
X106521355Y-71237800D01*
X106562091Y-71454292D01*
X106690037Y-71653126D01*
X106885261Y-71786517D01*
X107117000Y-71833445D01*
X108387000Y-71833445D01*
X108603492Y-71792709D01*
X108802326Y-71664763D01*
X108838924Y-71611200D01*
X117808344Y-71611200D01*
X117845091Y-71806492D01*
X117973037Y-72005326D01*
X118168261Y-72138717D01*
X118400000Y-72185645D01*
X122328800Y-72185645D01*
X122328800Y-82112800D01*
X71768537Y-82112800D01*
X71982924Y-81596499D01*
X71983474Y-80966266D01*
X71742802Y-80383795D01*
X71369398Y-80009738D01*
X71741236Y-79638549D01*
X71982924Y-79056499D01*
X71983474Y-78426266D01*
X71742802Y-77843795D01*
X71369398Y-77469738D01*
X71741236Y-77098549D01*
X71982924Y-76516499D01*
X71983474Y-75886266D01*
X71742802Y-75303795D01*
X71297549Y-74857764D01*
X70715499Y-74616076D01*
X70085266Y-74615526D01*
X69502795Y-74856198D01*
X69056764Y-75301451D01*
X68815076Y-75883501D01*
X68814526Y-76513734D01*
X69055198Y-77096205D01*
X69428602Y-77470262D01*
X69056764Y-77841451D01*
X68815076Y-78423501D01*
X68814526Y-79053734D01*
X69055198Y-79636205D01*
X69428602Y-80010262D01*
X69128738Y-80309602D01*
X68757549Y-79937764D01*
X68175499Y-79696076D01*
X67545266Y-79695526D01*
X66962795Y-79936198D01*
X66588738Y-80309602D01*
X66217549Y-79937764D01*
X65635499Y-79696076D01*
X65005266Y-79695526D01*
X64422795Y-79936198D01*
X64048738Y-80309602D01*
X63677549Y-79937764D01*
X63095499Y-79696076D01*
X62465266Y-79695526D01*
X61882795Y-79936198D01*
X61508738Y-80309602D01*
X61137549Y-79937764D01*
X60555499Y-79696076D01*
X59925266Y-79695526D01*
X59342795Y-79936198D01*
X58968738Y-80309602D01*
X58597549Y-79937764D01*
X58015499Y-79696076D01*
X57385266Y-79695526D01*
X56802795Y-79936198D01*
X56428738Y-80309602D01*
X56057549Y-79937764D01*
X55475499Y-79696076D01*
X54845266Y-79695526D01*
X54262795Y-79936198D01*
X53888738Y-80309602D01*
X53517549Y-79937764D01*
X52935499Y-79696076D01*
X52305266Y-79695526D01*
X51722795Y-79936198D01*
X51348738Y-80309602D01*
X50977549Y-79937764D01*
X50395499Y-79696076D01*
X49765266Y-79695526D01*
X49182795Y-79936198D01*
X48808738Y-80309602D01*
X48437549Y-79937764D01*
X47855499Y-79696076D01*
X47225266Y-79695526D01*
X46642795Y-79936198D01*
X46268738Y-80309602D01*
X45897549Y-79937764D01*
X45315499Y-79696076D01*
X44685266Y-79695526D01*
X44102795Y-79936198D01*
X43728738Y-80309602D01*
X43357549Y-79937764D01*
X42775499Y-79696076D01*
X42145266Y-79695526D01*
X41562795Y-79936198D01*
X41188738Y-80309602D01*
X40817549Y-79937764D01*
X40235499Y-79696076D01*
X39605266Y-79695526D01*
X39022795Y-79936198D01*
X38576764Y-80381451D01*
X38335076Y-80963501D01*
X38334526Y-81593734D01*
X38549000Y-82112800D01*
X36051200Y-82112800D01*
X36051200Y-66952235D01*
X36480451Y-67382236D01*
X37062501Y-67623924D01*
X37692734Y-67624474D01*
X38275205Y-67383802D01*
X38649262Y-67010398D01*
X38948602Y-67310262D01*
X38576764Y-67681451D01*
X38335076Y-68263501D01*
X38334526Y-68893734D01*
X38575198Y-69476205D01*
X39020451Y-69922236D01*
X39602501Y-70163924D01*
X40232734Y-70164474D01*
X40815205Y-69923802D01*
X41261236Y-69478549D01*
X41502924Y-68896499D01*
X41503474Y-68266266D01*
X41262802Y-67683795D01*
X40889398Y-67309738D01*
X41189262Y-67010398D01*
X41560451Y-67382236D01*
X42142501Y-67623924D01*
X42772734Y-67624474D01*
X43355205Y-67383802D01*
X43729262Y-67010398D01*
X44028602Y-67310262D01*
X43656764Y-67681451D01*
X43415076Y-68263501D01*
X43414526Y-68893734D01*
X43655198Y-69476205D01*
X44100451Y-69922236D01*
X44682501Y-70163924D01*
X45312734Y-70164474D01*
X45895205Y-69923802D01*
X46269262Y-69550398D01*
X46640451Y-69922236D01*
X47222501Y-70163924D01*
X47852734Y-70164474D01*
X48435205Y-69923802D01*
X48809262Y-69550398D01*
X49180451Y-69922236D01*
X49762501Y-70163924D01*
X50392734Y-70164474D01*
X50975205Y-69923802D01*
X51421236Y-69478549D01*
X51662924Y-68896499D01*
X51663474Y-68266266D01*
X51422802Y-67683795D01*
X51049398Y-67309738D01*
X51349262Y-67010398D01*
X51720451Y-67382236D01*
X52302501Y-67623924D01*
X52932734Y-67624474D01*
X53515205Y-67383802D01*
X53889262Y-67010398D01*
X54260451Y-67382236D01*
X54842501Y-67623924D01*
X55472734Y-67624474D01*
X56055205Y-67383802D01*
X56429262Y-67010398D01*
X56800451Y-67382236D01*
X57382501Y-67623924D01*
X58012734Y-67624474D01*
X58595205Y-67383802D01*
X58969262Y-67010398D01*
X59340451Y-67382236D01*
X59922501Y-67623924D01*
X60552734Y-67624474D01*
X61135205Y-67383802D01*
X61509262Y-67010398D01*
X61880451Y-67382236D01*
X62462501Y-67623924D01*
X63092734Y-67624474D01*
X63675205Y-67383802D01*
X64049262Y-67010398D01*
X64420451Y-67382236D01*
X65002501Y-67623924D01*
X65632734Y-67624474D01*
X66215205Y-67383802D01*
X66589262Y-67010398D01*
X66960451Y-67382236D01*
X67542501Y-67623924D01*
X68172734Y-67624474D01*
X68755205Y-67383802D01*
X69129262Y-67010398D01*
X69428602Y-67310262D01*
X69056764Y-67681451D01*
X68815076Y-68263501D01*
X68814526Y-68893734D01*
X69055198Y-69476205D01*
X69428602Y-69850262D01*
X69056764Y-70221451D01*
X68815076Y-70803501D01*
X68814526Y-71433734D01*
X69055198Y-72016205D01*
X69500451Y-72462236D01*
X70082501Y-72703924D01*
X70712734Y-72704474D01*
X71295205Y-72463802D01*
X71741236Y-72018549D01*
X71982924Y-71436499D01*
X71983474Y-70806266D01*
X71742802Y-70223795D01*
X71369398Y-69849738D01*
X71741236Y-69478549D01*
X71850588Y-69215200D01*
X73126355Y-69215200D01*
X73126355Y-69264000D01*
X73167091Y-69480492D01*
X73295037Y-69679326D01*
X73490261Y-69812717D01*
X73722000Y-69859645D01*
X75242000Y-69859645D01*
X75458492Y-69818909D01*
X75657326Y-69690963D01*
X75790717Y-69495739D01*
X75811319Y-69394000D01*
X85326355Y-69394000D01*
X85326355Y-70914000D01*
X85367091Y-71130492D01*
X85495037Y-71329326D01*
X85690261Y-71462717D01*
X85922000Y-71509645D01*
X87442000Y-71509645D01*
X87658492Y-71468909D01*
X87857326Y-71340963D01*
X87990717Y-71145739D01*
X88037645Y-70914000D01*
X88037645Y-70865200D01*
X88656795Y-70865200D01*
X88672091Y-70946492D01*
X88800037Y-71145326D01*
X88995261Y-71278717D01*
X89227000Y-71325645D01*
X90727000Y-71325645D01*
X90943492Y-71284909D01*
X91142326Y-71156963D01*
X91227403Y-71032449D01*
X91300037Y-71145326D01*
X91495261Y-71278717D01*
X91727000Y-71325645D01*
X93227000Y-71325645D01*
X93443492Y-71284909D01*
X93642326Y-71156963D01*
X93775717Y-70961739D01*
X93805189Y-70816200D01*
X94060155Y-70816200D01*
X94060155Y-70821000D01*
X94100891Y-71037492D01*
X94228837Y-71236326D01*
X94424061Y-71369717D01*
X94655800Y-71416645D01*
X95367000Y-71416645D01*
X95583492Y-71375909D01*
X95782326Y-71247963D01*
X95915717Y-71052739D01*
X95962645Y-70821000D01*
X95962645Y-69322400D01*
X95921909Y-69105908D01*
X95793963Y-68907074D01*
X95598739Y-68773683D01*
X95367000Y-68726755D01*
X94655800Y-68726755D01*
X94439308Y-68767491D01*
X94240474Y-68895437D01*
X94107083Y-69090661D01*
X94060155Y-69322400D01*
X94060155Y-69393800D01*
X93806425Y-69393800D01*
X93781909Y-69263508D01*
X93653963Y-69064674D01*
X93458739Y-68931283D01*
X93227000Y-68884355D01*
X91727000Y-68884355D01*
X91510508Y-68925091D01*
X91311674Y-69053037D01*
X91226597Y-69177551D01*
X91153963Y-69064674D01*
X90958739Y-68931283D01*
X90727000Y-68884355D01*
X89227000Y-68884355D01*
X89010508Y-68925091D01*
X88811674Y-69053037D01*
X88678283Y-69248261D01*
X88638888Y-69442800D01*
X88037645Y-69442800D01*
X88037645Y-69394000D01*
X87996909Y-69177508D01*
X87868963Y-68978674D01*
X87673739Y-68845283D01*
X87442000Y-68798355D01*
X85922000Y-68798355D01*
X85705508Y-68839091D01*
X85506674Y-68967037D01*
X85373283Y-69162261D01*
X85326355Y-69394000D01*
X75811319Y-69394000D01*
X75837645Y-69264000D01*
X75837645Y-67744000D01*
X75796909Y-67527508D01*
X75668963Y-67328674D01*
X75473739Y-67195283D01*
X75242000Y-67148355D01*
X73722000Y-67148355D01*
X73505508Y-67189091D01*
X73306674Y-67317037D01*
X73173283Y-67512261D01*
X73126355Y-67744000D01*
X73126355Y-67792800D01*
X71787842Y-67792800D01*
X71742802Y-67683795D01*
X71369398Y-67309738D01*
X71741236Y-66938549D01*
X71982924Y-66356499D01*
X71983474Y-65726266D01*
X71742802Y-65143795D01*
X71297549Y-64697764D01*
X70715499Y-64456076D01*
X70085266Y-64455526D01*
X69502795Y-64696198D01*
X69128738Y-65069602D01*
X68757549Y-64697764D01*
X68175499Y-64456076D01*
X67545266Y-64455526D01*
X66962795Y-64696198D01*
X66588738Y-65069602D01*
X66217549Y-64697764D01*
X65635499Y-64456076D01*
X65005266Y-64455526D01*
X64422795Y-64696198D01*
X64048738Y-65069602D01*
X63677549Y-64697764D01*
X63095499Y-64456076D01*
X62465266Y-64455526D01*
X61882795Y-64696198D01*
X61508738Y-65069602D01*
X61137549Y-64697764D01*
X60555499Y-64456076D01*
X59925266Y-64455526D01*
X59342795Y-64696198D01*
X58968738Y-65069602D01*
X58597549Y-64697764D01*
X58015499Y-64456076D01*
X57385266Y-64455526D01*
X56802795Y-64696198D01*
X56428738Y-65069602D01*
X56057549Y-64697764D01*
X55475499Y-64456076D01*
X54845266Y-64455526D01*
X54262795Y-64696198D01*
X53888738Y-65069602D01*
X53517549Y-64697764D01*
X52935499Y-64456076D01*
X52305266Y-64455526D01*
X51722795Y-64696198D01*
X51348738Y-65069602D01*
X50977549Y-64697764D01*
X50395499Y-64456076D01*
X49765266Y-64455526D01*
X49182795Y-64696198D01*
X48808738Y-65069602D01*
X48437549Y-64697764D01*
X47855499Y-64456076D01*
X47225266Y-64455526D01*
X46642795Y-64696198D01*
X46268738Y-65069602D01*
X45897549Y-64697764D01*
X45315499Y-64456076D01*
X44685266Y-64455526D01*
X44102795Y-64696198D01*
X43728738Y-65069602D01*
X43357549Y-64697764D01*
X42775499Y-64456076D01*
X42145266Y-64455526D01*
X41562795Y-64696198D01*
X41188738Y-65069602D01*
X40817549Y-64697764D01*
X40235499Y-64456076D01*
X39605266Y-64455526D01*
X39022795Y-64696198D01*
X38648738Y-65069602D01*
X38277549Y-64697764D01*
X37695499Y-64456076D01*
X37065266Y-64455526D01*
X36482795Y-64696198D01*
X36051200Y-65127040D01*
X36051200Y-48879283D01*
X43709574Y-48879283D01*
X43907708Y-49358805D01*
X44274265Y-49726002D01*
X44753440Y-49924973D01*
X45272283Y-49925426D01*
X45751805Y-49727292D01*
X46119002Y-49360735D01*
X46317973Y-48881560D01*
X46318426Y-48362717D01*
X46120292Y-47883195D01*
X45753735Y-47515998D01*
X45274560Y-47317027D01*
X44755717Y-47316574D01*
X44276195Y-47514708D01*
X43908998Y-47881265D01*
X43710027Y-48360440D01*
X43709574Y-48879283D01*
X36051200Y-48879283D01*
X36051200Y-46241000D01*
X53236355Y-46241000D01*
X53236355Y-47761000D01*
X53277091Y-47977492D01*
X53405037Y-48176326D01*
X53600261Y-48309717D01*
X53832000Y-48356645D01*
X55352000Y-48356645D01*
X55568492Y-48315909D01*
X55767326Y-48187963D01*
X55900717Y-47992739D01*
X55947645Y-47761000D01*
X55947645Y-47654621D01*
X55991779Y-47761433D01*
X56044543Y-47814289D01*
X56044543Y-52337478D01*
X56043674Y-52338037D01*
X55910283Y-52533261D01*
X55863355Y-52765000D01*
X55863355Y-54265000D01*
X55904091Y-54481492D01*
X56032037Y-54680326D01*
X56227261Y-54813717D01*
X56459000Y-54860645D01*
X57759000Y-54860645D01*
X57975492Y-54819909D01*
X58174326Y-54691963D01*
X58307717Y-54496739D01*
X58354645Y-54265000D01*
X58354645Y-52765000D01*
X58313909Y-52548508D01*
X58185963Y-52349674D01*
X58173457Y-52341129D01*
X58173457Y-47860687D01*
X58270892Y-47763422D01*
X58475966Y-47269551D01*
X58476432Y-46734795D01*
X58272221Y-46240567D01*
X58196457Y-46164671D01*
X58196457Y-44614913D01*
X59114913Y-43696457D01*
X59558000Y-43696457D01*
X59563027Y-43695457D01*
X59848087Y-43695457D01*
X61253355Y-45100725D01*
X61253355Y-45591000D01*
X61294091Y-45807492D01*
X61422037Y-46006326D01*
X61617261Y-46139717D01*
X61849000Y-46186645D01*
X63149000Y-46186645D01*
X63365492Y-46145909D01*
X63564326Y-46017963D01*
X63697717Y-45822739D01*
X63744645Y-45591000D01*
X63744645Y-44091000D01*
X63703909Y-43874508D01*
X63588693Y-43695457D01*
X64207087Y-43695457D01*
X65556355Y-45044725D01*
X65556355Y-45535000D01*
X65597091Y-45751492D01*
X65725037Y-45950326D01*
X65920261Y-46083717D01*
X66152000Y-46130645D01*
X67452000Y-46130645D01*
X67668492Y-46089909D01*
X67867326Y-45961963D01*
X68000717Y-45766739D01*
X68023088Y-45656264D01*
X68583572Y-45656264D01*
X68783226Y-46139462D01*
X69152593Y-46509475D01*
X69635443Y-46709972D01*
X70158264Y-46710428D01*
X70641462Y-46510774D01*
X71011475Y-46141407D01*
X71168138Y-45764121D01*
X71323226Y-46139462D01*
X71692593Y-46509475D01*
X72175443Y-46709972D01*
X72698264Y-46710428D01*
X73181462Y-46510774D01*
X73551475Y-46141407D01*
X73708138Y-45764121D01*
X73863226Y-46139462D01*
X74232593Y-46509475D01*
X74715443Y-46709972D01*
X75238264Y-46710428D01*
X75721462Y-46510774D01*
X76091475Y-46141407D01*
X76291972Y-45658557D01*
X76291973Y-45656264D01*
X78743572Y-45656264D01*
X78943226Y-46139462D01*
X79312593Y-46509475D01*
X79795443Y-46709972D01*
X80318264Y-46710428D01*
X80801462Y-46510774D01*
X81171475Y-46141407D01*
X81328138Y-45764121D01*
X81483226Y-46139462D01*
X81852593Y-46509475D01*
X82335443Y-46709972D01*
X82858264Y-46710428D01*
X82892495Y-46696284D01*
X84065106Y-47868895D01*
X84295836Y-48023063D01*
X84568000Y-48077200D01*
X86177000Y-48077200D01*
X86449165Y-48023063D01*
X86679894Y-47868894D01*
X91956894Y-42591894D01*
X92111063Y-42361165D01*
X92165200Y-42089000D01*
X92165200Y-40982645D01*
X92204000Y-40982645D01*
X92420492Y-40941909D01*
X92619326Y-40813963D01*
X92752717Y-40618739D01*
X92799645Y-40387000D01*
X92799645Y-39087000D01*
X92758909Y-38870508D01*
X92630963Y-38671674D01*
X92435739Y-38538283D01*
X92277984Y-38506337D01*
X92402492Y-38482909D01*
X92601326Y-38354963D01*
X92734717Y-38159739D01*
X92781645Y-37928000D01*
X92781645Y-36628000D01*
X92790355Y-36628000D01*
X92790355Y-37928000D01*
X92831091Y-38144492D01*
X92959037Y-38343326D01*
X93154261Y-38476717D01*
X93386000Y-38523645D01*
X94886000Y-38523645D01*
X95102492Y-38482909D01*
X95301326Y-38354963D01*
X95434717Y-38159739D01*
X95469252Y-37989200D01*
X98298474Y-37989200D01*
X98371198Y-38165205D01*
X98816451Y-38611236D01*
X99398501Y-38852924D01*
X100028734Y-38853474D01*
X100611205Y-38612802D01*
X101057236Y-38167549D01*
X101298924Y-37585499D01*
X101299474Y-36955266D01*
X101058802Y-36372795D01*
X100613549Y-35926764D01*
X100031499Y-35685076D01*
X99401266Y-35684526D01*
X98818795Y-35925198D01*
X98372764Y-36370451D01*
X98291233Y-36566800D01*
X95470129Y-36566800D01*
X95440909Y-36411508D01*
X95312963Y-36212674D01*
X95117739Y-36079283D01*
X94886000Y-36032355D01*
X93386000Y-36032355D01*
X93169508Y-36073091D01*
X92970674Y-36201037D01*
X92837283Y-36396261D01*
X92790355Y-36628000D01*
X92781645Y-36628000D01*
X92740909Y-36411508D01*
X92612963Y-36212674D01*
X92518449Y-36148095D01*
X92615717Y-36005739D01*
X92662645Y-35774000D01*
X92662645Y-34274000D01*
X92621909Y-34057508D01*
X92493963Y-33858674D01*
X92375893Y-33778000D01*
X106813355Y-33778000D01*
X106813355Y-35028000D01*
X106854091Y-35244492D01*
X106982037Y-35443326D01*
X107177261Y-35576717D01*
X107409000Y-35623645D01*
X107446800Y-35623645D01*
X107446800Y-35741871D01*
X107291508Y-35771091D01*
X107092674Y-35899037D01*
X106959283Y-36094261D01*
X106912355Y-36326000D01*
X106912355Y-37826000D01*
X106953091Y-38042492D01*
X107081037Y-38241326D01*
X107276261Y-38374717D01*
X107508000Y-38421645D01*
X108808000Y-38421645D01*
X109024492Y-38380909D01*
X109223326Y-38252963D01*
X109356717Y-38057739D01*
X109403645Y-37826000D01*
X109403645Y-36326000D01*
X109362909Y-36109508D01*
X109234963Y-35910674D01*
X109039739Y-35777283D01*
X108869200Y-35742748D01*
X108869200Y-35623645D01*
X108909000Y-35623645D01*
X109125492Y-35582909D01*
X109324326Y-35454963D01*
X109457717Y-35259739D01*
X109504645Y-35028000D01*
X109504645Y-33778000D01*
X109463909Y-33561508D01*
X109335963Y-33362674D01*
X109140739Y-33229283D01*
X108909000Y-33182355D01*
X107409000Y-33182355D01*
X107192508Y-33223091D01*
X106993674Y-33351037D01*
X106860283Y-33546261D01*
X106813355Y-33778000D01*
X92375893Y-33778000D01*
X92298739Y-33725283D01*
X92067000Y-33678355D01*
X90767000Y-33678355D01*
X90550508Y-33719091D01*
X90351674Y-33847037D01*
X90218283Y-34042261D01*
X90171355Y-34274000D01*
X90171355Y-35774000D01*
X90212091Y-35990492D01*
X90325055Y-36166044D01*
X90270674Y-36201037D01*
X90137283Y-36396261D01*
X90090355Y-36628000D01*
X90090355Y-37928000D01*
X90131091Y-38144492D01*
X90259037Y-38343326D01*
X90454261Y-38476717D01*
X90612016Y-38508663D01*
X90487508Y-38532091D01*
X90288674Y-38660037D01*
X90155283Y-38855261D01*
X90108355Y-39087000D01*
X90108355Y-40387000D01*
X90149091Y-40603492D01*
X90277037Y-40802326D01*
X90472261Y-40935717D01*
X90704000Y-40982645D01*
X90742800Y-40982645D01*
X90742800Y-41794412D01*
X85882412Y-46654800D01*
X85532894Y-46654800D01*
X85881462Y-46510774D01*
X86251475Y-46141407D01*
X86451972Y-45658557D01*
X86452428Y-45135736D01*
X86252774Y-44652538D01*
X85883407Y-44282525D01*
X85400557Y-44082028D01*
X84877736Y-44081572D01*
X84394538Y-44281226D01*
X84024525Y-44650593D01*
X83867862Y-45027879D01*
X83712774Y-44652538D01*
X83343407Y-44282525D01*
X82860557Y-44082028D01*
X82337736Y-44081572D01*
X81854538Y-44281226D01*
X81484525Y-44650593D01*
X81327862Y-45027879D01*
X81172774Y-44652538D01*
X80803407Y-44282525D01*
X80320557Y-44082028D01*
X79797736Y-44081572D01*
X79314538Y-44281226D01*
X78944525Y-44650593D01*
X78744028Y-45133443D01*
X78743572Y-45656264D01*
X76291973Y-45656264D01*
X76292428Y-45135736D01*
X76092774Y-44652538D01*
X75723407Y-44282525D01*
X75240557Y-44082028D01*
X74717736Y-44081572D01*
X74234538Y-44281226D01*
X73864525Y-44650593D01*
X73707862Y-45027879D01*
X73552774Y-44652538D01*
X73183407Y-44282525D01*
X72700557Y-44082028D01*
X72177736Y-44081572D01*
X71694538Y-44281226D01*
X71324525Y-44650593D01*
X71167862Y-45027879D01*
X71012774Y-44652538D01*
X70643407Y-44282525D01*
X70160557Y-44082028D01*
X69637736Y-44081572D01*
X69154538Y-44281226D01*
X68784525Y-44650593D01*
X68584028Y-45133443D01*
X68583572Y-45656264D01*
X68023088Y-45656264D01*
X68047645Y-45535000D01*
X68047645Y-44035000D01*
X68006909Y-43818508D01*
X67927728Y-43695457D01*
X85860000Y-43695457D01*
X86267350Y-43614430D01*
X86612685Y-43383685D01*
X89013725Y-40982645D01*
X89504000Y-40982645D01*
X89720492Y-40941909D01*
X89919326Y-40813963D01*
X90052717Y-40618739D01*
X90099645Y-40387000D01*
X90099645Y-39087000D01*
X90058909Y-38870508D01*
X89930963Y-38671674D01*
X89735739Y-38538283D01*
X89504000Y-38491355D01*
X88004000Y-38491355D01*
X87787508Y-38532091D01*
X87588674Y-38660037D01*
X87455283Y-38855261D01*
X87408355Y-39087000D01*
X87408355Y-39577275D01*
X86930645Y-40054985D01*
X86930645Y-38702000D01*
X86889909Y-38485508D01*
X86761963Y-38286674D01*
X86637449Y-38201597D01*
X86750326Y-38128963D01*
X86883717Y-37933739D01*
X86930645Y-37702000D01*
X86930645Y-36202000D01*
X86889909Y-35985508D01*
X86761963Y-35786674D01*
X86566739Y-35653283D01*
X86335000Y-35606355D01*
X85085000Y-35606355D01*
X84868508Y-35647091D01*
X84669674Y-35775037D01*
X84536283Y-35970261D01*
X84510967Y-36095274D01*
X84388963Y-35905674D01*
X84193739Y-35772283D01*
X83962000Y-35725355D01*
X82462000Y-35725355D01*
X82245508Y-35766091D01*
X82046674Y-35894037D01*
X81913283Y-36089261D01*
X81866355Y-36321000D01*
X81866355Y-37621000D01*
X81907091Y-37837492D01*
X82035037Y-38036326D01*
X82230261Y-38169717D01*
X82462000Y-38216645D01*
X82500800Y-38216645D01*
X82500800Y-39124412D01*
X81999388Y-39625824D01*
X81766187Y-39625621D01*
X81385938Y-39782737D01*
X81094759Y-40073408D01*
X80936980Y-40453382D01*
X80936621Y-40864813D01*
X81093737Y-41245062D01*
X81384408Y-41536241D01*
X81457383Y-41566543D01*
X77266203Y-41566543D01*
X77316241Y-41516592D01*
X77474020Y-41136618D01*
X77474133Y-41007645D01*
X78460000Y-41007645D01*
X78676492Y-40966909D01*
X78875326Y-40838963D01*
X79008717Y-40643739D01*
X79055645Y-40412000D01*
X79055645Y-38912000D01*
X79014909Y-38695508D01*
X78886963Y-38496674D01*
X78691739Y-38363283D01*
X78460000Y-38316355D01*
X77160000Y-38316355D01*
X76943508Y-38357091D01*
X76744674Y-38485037D01*
X76611283Y-38680261D01*
X76564355Y-38912000D01*
X76564355Y-38950800D01*
X76562091Y-38950800D01*
X76525909Y-38758508D01*
X76397963Y-38559674D01*
X76202739Y-38426283D01*
X75971000Y-38379355D01*
X74471000Y-38379355D01*
X74254508Y-38420091D01*
X74055674Y-38548037D01*
X73922283Y-38743261D01*
X73875355Y-38975000D01*
X73875355Y-40275000D01*
X73916091Y-40491492D01*
X74044037Y-40690326D01*
X74239261Y-40823717D01*
X74471000Y-40870645D01*
X75405852Y-40870645D01*
X75405621Y-41134813D01*
X75562737Y-41515062D01*
X75614128Y-41566543D01*
X72084827Y-41566543D01*
X72780725Y-40870645D01*
X73271000Y-40870645D01*
X73487492Y-40829909D01*
X73686326Y-40701963D01*
X73819717Y-40506739D01*
X73866645Y-40275000D01*
X73866645Y-38975000D01*
X73825909Y-38758508D01*
X73697963Y-38559674D01*
X73502739Y-38426283D01*
X73271000Y-38379355D01*
X71771000Y-38379355D01*
X71554508Y-38420091D01*
X71355674Y-38548037D01*
X71222283Y-38743261D01*
X71175355Y-38975000D01*
X71175355Y-39465275D01*
X70562645Y-40077985D01*
X70562645Y-38884000D01*
X70521909Y-38667508D01*
X70393963Y-38468674D01*
X70198739Y-38335283D01*
X69967000Y-38288355D01*
X68667000Y-38288355D01*
X68450508Y-38329091D01*
X68251674Y-38457037D01*
X68118283Y-38652261D01*
X68071355Y-38884000D01*
X68071355Y-39374275D01*
X65879087Y-41566543D01*
X59558000Y-41566543D01*
X59552973Y-41567543D01*
X58674000Y-41567543D01*
X58266650Y-41648570D01*
X58196457Y-41695471D01*
X58196457Y-39211980D01*
X58396236Y-39012549D01*
X58637924Y-38430499D01*
X58638474Y-37800266D01*
X58397802Y-37217795D01*
X57952549Y-36771764D01*
X57370499Y-36530076D01*
X56740266Y-36529526D01*
X56157795Y-36770198D01*
X55711764Y-37215451D01*
X55470076Y-37797501D01*
X55469526Y-38427734D01*
X55710198Y-39010205D01*
X56067543Y-39368174D01*
X56067543Y-43844868D01*
X55989543Y-44237000D01*
X55989543Y-46247163D01*
X55947645Y-46348065D01*
X55947645Y-46241000D01*
X55906909Y-46024508D01*
X55778963Y-45825674D01*
X55583739Y-45692283D01*
X55352000Y-45645355D01*
X53832000Y-45645355D01*
X53615508Y-45686091D01*
X53416674Y-45814037D01*
X53283283Y-46009261D01*
X53236355Y-46241000D01*
X36051200Y-46241000D01*
X36051200Y-31911200D01*
X79182355Y-31911200D01*
X79182355Y-32957000D01*
X79182355Y-32957000D01*
G37*
X79182355Y-32957000D02*
X79223091Y-33173492D01*
X79351037Y-33372326D01*
X79546261Y-33505717D01*
X79778000Y-33552645D01*
X79800800Y-33552645D01*
X79800800Y-35725355D01*
X79762000Y-35725355D01*
X79545508Y-35766091D01*
X79346674Y-35894037D01*
X79213283Y-36089261D01*
X79180571Y-36250800D01*
X79055645Y-36250800D01*
X79055645Y-36212000D01*
X79014909Y-35995508D01*
X78886963Y-35796674D01*
X78691739Y-35663283D01*
X78460000Y-35616355D01*
X77160000Y-35616355D01*
X76943508Y-35657091D01*
X76744674Y-35785037D01*
X76611283Y-35980261D01*
X76564355Y-36212000D01*
X76564355Y-36222800D01*
X70562645Y-36222800D01*
X70562645Y-36184000D01*
X70521909Y-35967508D01*
X70393963Y-35768674D01*
X70198739Y-35635283D01*
X69967000Y-35588355D01*
X68667000Y-35588355D01*
X68450508Y-35629091D01*
X68251674Y-35757037D01*
X68118283Y-35952261D01*
X68071355Y-36184000D01*
X68071355Y-37684000D01*
X68112091Y-37900492D01*
X68240037Y-38099326D01*
X68435261Y-38232717D01*
X68667000Y-38279645D01*
X69967000Y-38279645D01*
X70183492Y-38238909D01*
X70382326Y-38110963D01*
X70515717Y-37915739D01*
X70562645Y-37684000D01*
X70562645Y-37645200D01*
X76564355Y-37645200D01*
X76564355Y-37712000D01*
X76605091Y-37928492D01*
X76733037Y-38127326D01*
X76928261Y-38260717D01*
X77160000Y-38307645D01*
X78460000Y-38307645D01*
X78676492Y-38266909D01*
X78875326Y-38138963D01*
X79008717Y-37943739D01*
X79055645Y-37712000D01*
X79055645Y-37673200D01*
X79176177Y-37673200D01*
X79207091Y-37837492D01*
X79335037Y-38036326D01*
X79530261Y-38169717D01*
X79762000Y-38216645D01*
X81262000Y-38216645D01*
X81478492Y-38175909D01*
X81677326Y-38047963D01*
X81810717Y-37852739D01*
X81857645Y-37621000D01*
X81857645Y-36321000D01*
X81816909Y-36104508D01*
X81688963Y-35905674D01*
X81493739Y-35772283D01*
X81262000Y-35725355D01*
X81223200Y-35725355D01*
X81223200Y-33552645D01*
X81278000Y-33552645D01*
X81494492Y-33511909D01*
X81693326Y-33383963D01*
X81778403Y-33259449D01*
X81851037Y-33372326D01*
X82046261Y-33505717D01*
X82278000Y-33552645D01*
X82436071Y-33552645D01*
X82525106Y-33685894D01*
X83313824Y-34474612D01*
X83313621Y-34707813D01*
X83470737Y-35088062D01*
X83761408Y-35379241D01*
X84141382Y-35537020D01*
X84552813Y-35537379D01*
X84933062Y-35380263D01*
X85224241Y-35089592D01*
X85382020Y-34709618D01*
X85382379Y-34298187D01*
X85225263Y-33917938D01*
X84934592Y-33626759D01*
X84554618Y-33468980D01*
X84319563Y-33468775D01*
X84210141Y-33359353D01*
X84326717Y-33188739D01*
X84356189Y-33043200D01*
X90171355Y-33043200D01*
X90171355Y-33074000D01*
X90212091Y-33290492D01*
X90340037Y-33489326D01*
X90535261Y-33622717D01*
X90767000Y-33669645D01*
X92067000Y-33669645D01*
X92283492Y-33628909D01*
X92482326Y-33500963D01*
X92615717Y-33305739D01*
X92662645Y-33074000D01*
X92662645Y-31911200D01*
X122328800Y-31911200D01*
X122328800Y-35944355D01*
X118400000Y-35944355D01*
X118183508Y-35985091D01*
X117984674Y-36113037D01*
X117851283Y-36308261D01*
X117816748Y-36478800D01*
X112316280Y-36478800D01*
X112279909Y-36285508D01*
X112151963Y-36086674D01*
X111956739Y-35953283D01*
X111725000Y-35906355D01*
X110475000Y-35906355D01*
X110258508Y-35947091D01*
X110059674Y-36075037D01*
X109926283Y-36270261D01*
X109879355Y-36502000D01*
X109879355Y-38002000D01*
X109920091Y-38218492D01*
X110048037Y-38417326D01*
X110172551Y-38502403D01*
X110059674Y-38575037D01*
X109926283Y-38770261D01*
X109879355Y-39002000D01*
X109879355Y-39064800D01*
X109403645Y-39064800D01*
X109403645Y-39026000D01*
X109362909Y-38809508D01*
X109234963Y-38610674D01*
X109039739Y-38477283D01*
X108808000Y-38430355D01*
X107508000Y-38430355D01*
X107291508Y-38471091D01*
X107092674Y-38599037D01*
X106959283Y-38794261D01*
X106912355Y-39026000D01*
X106912355Y-40526000D01*
X106953091Y-40742492D01*
X107081037Y-40941326D01*
X107114914Y-40964473D01*
X106916674Y-41092037D01*
X106783283Y-41287261D01*
X106736355Y-41519000D01*
X106736355Y-42769000D01*
X106777091Y-42985492D01*
X106905037Y-43184326D01*
X107100261Y-43317717D01*
X107332000Y-43364645D01*
X108296857Y-43364645D01*
X108564407Y-43632195D01*
X108301000Y-43579800D01*
X101980129Y-43579800D01*
X101950909Y-43424508D01*
X101822963Y-43225674D01*
X101627739Y-43092283D01*
X101396000Y-43045355D01*
X99896000Y-43045355D01*
X99679508Y-43086091D01*
X99480674Y-43214037D01*
X99347283Y-43409261D01*
X99300355Y-43641000D01*
X99300355Y-44941000D01*
X99341091Y-45157492D01*
X99469037Y-45356326D01*
X99664261Y-45489717D01*
X99896000Y-45536645D01*
X101396000Y-45536645D01*
X101612492Y-45495909D01*
X101811326Y-45367963D01*
X101944717Y-45172739D01*
X101979252Y-45002200D01*
X108006412Y-45002200D01*
X108897566Y-45893355D01*
X108374000Y-45893355D01*
X108185627Y-45928800D01*
X106795645Y-45928800D01*
X106795645Y-45890000D01*
X106754909Y-45673508D01*
X106626963Y-45474674D01*
X106431739Y-45341283D01*
X106200000Y-45294355D01*
X104950000Y-45294355D01*
X104733508Y-45335091D01*
X104534674Y-45463037D01*
X104401283Y-45658261D01*
X104354355Y-45890000D01*
X104354355Y-46854856D01*
X98409412Y-52799800D01*
X97175129Y-52799800D01*
X97145909Y-52644508D01*
X97017963Y-52445674D01*
X96822739Y-52312283D01*
X96591000Y-52265355D01*
X95091000Y-52265355D01*
X94874508Y-52306091D01*
X94675674Y-52434037D01*
X94542283Y-52629261D01*
X94495355Y-52861000D01*
X94495355Y-54161000D01*
X94536091Y-54377492D01*
X94664037Y-54576326D01*
X94859261Y-54709717D01*
X95091000Y-54756645D01*
X96591000Y-54756645D01*
X96807492Y-54715909D01*
X97006326Y-54587963D01*
X97139717Y-54392739D01*
X97174252Y-54222200D01*
X98704000Y-54222200D01*
X98976165Y-54168063D01*
X99206894Y-54013894D01*
X104354355Y-48866434D01*
X104354355Y-49890000D01*
X104395091Y-50106492D01*
X104523037Y-50305326D01*
X104718261Y-50438717D01*
X104950000Y-50485645D01*
X106200000Y-50485645D01*
X106416492Y-50444909D01*
X106615326Y-50316963D01*
X106748717Y-50121739D01*
X106795645Y-49890000D01*
X106795645Y-49851200D01*
X108298000Y-49851200D01*
X108570165Y-49797063D01*
X108800894Y-49642894D01*
X109049143Y-49394645D01*
X109264000Y-49394645D01*
X109480492Y-49353909D01*
X109679326Y-49225963D01*
X109812717Y-49030739D01*
X109859645Y-48799000D01*
X109859645Y-48439000D01*
X109818909Y-48222508D01*
X109690963Y-48023674D01*
X109495739Y-47890283D01*
X109264000Y-47843355D01*
X108374000Y-47843355D01*
X108157508Y-47884091D01*
X107958674Y-48012037D01*
X107825283Y-48207261D01*
X107780421Y-48428800D01*
X106795645Y-48428800D01*
X106795645Y-48390000D01*
X106754909Y-48173508D01*
X106626963Y-47974674D01*
X106502449Y-47889597D01*
X106615326Y-47816963D01*
X106748717Y-47621739D01*
X106795645Y-47390000D01*
X106795645Y-47351200D01*
X108074181Y-47351200D01*
X108142261Y-47397717D01*
X108374000Y-47444645D01*
X109264000Y-47444645D01*
X109480492Y-47403909D01*
X109679326Y-47275963D01*
X109812717Y-47080739D01*
X109859645Y-46849000D01*
X109859645Y-46779645D01*
X109929000Y-46779645D01*
X110079322Y-46751360D01*
X110219000Y-46779645D01*
X110579000Y-46779645D01*
X110729322Y-46751360D01*
X110869000Y-46779645D01*
X111229000Y-46779645D01*
X111445492Y-46738909D01*
X111644326Y-46610963D01*
X111777717Y-46415739D01*
X111824645Y-46184000D01*
X111824645Y-45294000D01*
X111783909Y-45077508D01*
X111760200Y-45040663D01*
X111760200Y-41091022D01*
X111941492Y-41056909D01*
X112140326Y-40928963D01*
X112273717Y-40733739D01*
X112320645Y-40502000D01*
X112320645Y-39002000D01*
X112279909Y-38785508D01*
X112151963Y-38586674D01*
X112027449Y-38501597D01*
X112140326Y-38428963D01*
X112273717Y-38233739D01*
X112320645Y-38002000D01*
X112320645Y-37901200D01*
X117804355Y-37901200D01*
X117804355Y-37940000D01*
X117845091Y-38156492D01*
X117973037Y-38355326D01*
X118168261Y-38488717D01*
X118400000Y-38535645D01*
X122328800Y-38535645D01*
X122328800Y-69594355D01*
X118400000Y-69594355D01*
X118183508Y-69635091D01*
X117984674Y-69763037D01*
X117851283Y-69958261D01*
X117804598Y-70188800D01*
X115743796Y-70188800D01*
X115793717Y-70115739D01*
X115840645Y-69884000D01*
X115840645Y-68334000D01*
X115799909Y-68117508D01*
X115671963Y-67918674D01*
X115476739Y-67785283D01*
X115245000Y-67738355D01*
X114635000Y-67738355D01*
X114418508Y-67779091D01*
X114219674Y-67907037D01*
X114086283Y-68102261D01*
X114039355Y-68334000D01*
X114039355Y-68393000D01*
X108752678Y-68393000D01*
X108618739Y-68301483D01*
X108387000Y-68254555D01*
X107117000Y-68254555D01*
X106900508Y-68295291D01*
X106701674Y-68423237D01*
X106568283Y-68618461D01*
X106521355Y-68850200D01*
X106521355Y-69358200D01*
X106523937Y-69371923D01*
X106332739Y-69241283D01*
X106101000Y-69194355D01*
X104831000Y-69194355D01*
X104614508Y-69235091D01*
X104415674Y-69363037D01*
X104405587Y-69377800D01*
X103880645Y-69377800D01*
X103880645Y-69240000D01*
X103842606Y-69037842D01*
X103880645Y-68850000D01*
X103880645Y-68090000D01*
X103842606Y-67887842D01*
X103880645Y-67700000D01*
X103880645Y-66020000D01*
X103839909Y-65803508D01*
X103711963Y-65604674D01*
X103516739Y-65471283D01*
X103285000Y-65424355D01*
X102956200Y-65424355D01*
X102956200Y-65392248D01*
X103101492Y-65364909D01*
X103300326Y-65236963D01*
X103433717Y-65041739D01*
X103480645Y-64810000D01*
X103480645Y-63310000D01*
X103439909Y-63093508D01*
X103311963Y-62894674D01*
X103187449Y-62809597D01*
X103300326Y-62736963D01*
X103305083Y-62730000D01*
X113898355Y-62730000D01*
X113898355Y-64250000D01*
X113939091Y-64466492D01*
X114067037Y-64665326D01*
X114204497Y-64759249D01*
X114086283Y-64932261D01*
X114039355Y-65164000D01*
X114039355Y-66714000D01*
X114080091Y-66930492D01*
X114208037Y-67129326D01*
X114403261Y-67262717D01*
X114635000Y-67309645D01*
X115245000Y-67309645D01*
X115461492Y-67268909D01*
X115660326Y-67140963D01*
X115793717Y-66945739D01*
X115840645Y-66714000D01*
X115840645Y-65164000D01*
X115799909Y-64947508D01*
X115671963Y-64748674D01*
X115651200Y-64734487D01*
X115651200Y-64688627D01*
X115669326Y-64676963D01*
X115802717Y-64481739D01*
X115849645Y-64250000D01*
X115849645Y-62730000D01*
X115808909Y-62513508D01*
X115680963Y-62314674D01*
X115485739Y-62181283D01*
X115254000Y-62134355D01*
X114494000Y-62134355D01*
X114277508Y-62175091D01*
X114078674Y-62303037D01*
X113945283Y-62498261D01*
X113898355Y-62730000D01*
X103305083Y-62730000D01*
X103433717Y-62541739D01*
X103480645Y-62310000D01*
X103480645Y-60810000D01*
X103439909Y-60593508D01*
X103311963Y-60394674D01*
X103116739Y-60261283D01*
X102885000Y-60214355D01*
X102419725Y-60214355D01*
X100634685Y-58429315D01*
X100611528Y-58413842D01*
X101320913Y-57704457D01*
X103833354Y-57704457D01*
X103993261Y-57813717D01*
X104225000Y-57860645D01*
X105725000Y-57860645D01*
X105941492Y-57819909D01*
X106140326Y-57691963D01*
X106273717Y-57496739D01*
X106320645Y-57265000D01*
X106320645Y-56015000D01*
X106279909Y-55798508D01*
X106151963Y-55599674D01*
X105956739Y-55466283D01*
X105725000Y-55419355D01*
X104225000Y-55419355D01*
X104008508Y-55460091D01*
X103829090Y-55575543D01*
X103449827Y-55575543D01*
X103961725Y-55063645D01*
X104452000Y-55063645D01*
X104668492Y-55022909D01*
X104867326Y-54894963D01*
X105000717Y-54699739D01*
X105047645Y-54468000D01*
X105047645Y-53168000D01*
X105056355Y-53168000D01*
X105056355Y-54468000D01*
X105097091Y-54684492D01*
X105225037Y-54883326D01*
X105420261Y-55016717D01*
X105652000Y-55063645D01*
X107152000Y-55063645D01*
X107368492Y-55022909D01*
X107567326Y-54894963D01*
X107700717Y-54699739D01*
X107735252Y-54529200D01*
X109838355Y-54529200D01*
X109838355Y-54568000D01*
X109879091Y-54784492D01*
X110007037Y-54983326D01*
X110131551Y-55068403D01*
X110018674Y-55141037D01*
X109885283Y-55336261D01*
X109838355Y-55568000D01*
X109838355Y-57068000D01*
X109879091Y-57284492D01*
X110007037Y-57483326D01*
X110202261Y-57616717D01*
X110352800Y-57647202D01*
X110352800Y-57718903D01*
X110268674Y-57773037D01*
X110135283Y-57968261D01*
X110088355Y-58200000D01*
X110088355Y-59720000D01*
X110129091Y-59936492D01*
X110257037Y-60135326D01*
X110452261Y-60268717D01*
X110684000Y-60315645D01*
X111444000Y-60315645D01*
X111660492Y-60274909D01*
X111859326Y-60146963D01*
X111992717Y-59951739D01*
X112039645Y-59720000D01*
X112039645Y-58200000D01*
X111998909Y-57983508D01*
X111870963Y-57784674D01*
X111775200Y-57719242D01*
X111775200Y-57710813D01*
X112584621Y-57710813D01*
X112685075Y-57953930D01*
X112675283Y-57968261D01*
X112628355Y-58200000D01*
X112628355Y-59720000D01*
X112669091Y-59936492D01*
X112797037Y-60135326D01*
X112992261Y-60268717D01*
X113224000Y-60315645D01*
X113984000Y-60315645D01*
X114200492Y-60274909D01*
X114399326Y-60146963D01*
X114532717Y-59951739D01*
X114579645Y-59720000D01*
X114579645Y-58200000D01*
X114539417Y-57986205D01*
X114653020Y-57712618D01*
X114653379Y-57301187D01*
X114496263Y-56920938D01*
X114205592Y-56629759D01*
X113825618Y-56471980D01*
X113414187Y-56471621D01*
X113033938Y-56628737D01*
X112742759Y-56919408D01*
X112584980Y-57299382D01*
X112584621Y-57710813D01*
X111775200Y-57710813D01*
X111775200Y-57646484D01*
X111900492Y-57622909D01*
X112099326Y-57494963D01*
X112232717Y-57299739D01*
X112279645Y-57068000D01*
X112279645Y-55568000D01*
X112238909Y-55351508D01*
X112110963Y-55152674D01*
X111986449Y-55067597D01*
X112099326Y-54994963D01*
X112232717Y-54799739D01*
X112279645Y-54568000D01*
X112279645Y-53068000D01*
X112238909Y-52851508D01*
X112110963Y-52652674D01*
X111915739Y-52519283D01*
X111770200Y-52489811D01*
X111770200Y-50236740D01*
X111777717Y-50225739D01*
X111824645Y-49994000D01*
X111824645Y-49104000D01*
X111783909Y-48887508D01*
X111655963Y-48688674D01*
X111460739Y-48555283D01*
X111229000Y-48508355D01*
X110869000Y-48508355D01*
X110652508Y-48549091D01*
X110453674Y-48677037D01*
X110320283Y-48872261D01*
X110273355Y-49104000D01*
X110273355Y-49994000D01*
X110314091Y-50210492D01*
X110347800Y-50262877D01*
X110347800Y-52488575D01*
X110217508Y-52513091D01*
X110018674Y-52641037D01*
X109885283Y-52836261D01*
X109838355Y-53068000D01*
X109838355Y-53106800D01*
X107736129Y-53106800D01*
X107706909Y-52951508D01*
X107578963Y-52752674D01*
X107383739Y-52619283D01*
X107152000Y-52572355D01*
X105652000Y-52572355D01*
X105435508Y-52613091D01*
X105236674Y-52741037D01*
X105103283Y-52936261D01*
X105056355Y-53168000D01*
X105047645Y-53168000D01*
X105006909Y-52951508D01*
X104878963Y-52752674D01*
X104683739Y-52619283D01*
X104452000Y-52572355D01*
X102952000Y-52572355D01*
X102735508Y-52613091D01*
X102536674Y-52741037D01*
X102403283Y-52936261D01*
X102356355Y-53168000D01*
X102356355Y-53658275D01*
X97897087Y-58117543D01*
X90039827Y-58117543D01*
X90843913Y-57313457D01*
X93440354Y-57313457D01*
X93600261Y-57422717D01*
X93832000Y-57469645D01*
X95332000Y-57469645D01*
X95548492Y-57428909D01*
X95747326Y-57300963D01*
X95880717Y-57105739D01*
X95927645Y-56874000D01*
X95927645Y-55624000D01*
X95886909Y-55407508D01*
X95758963Y-55208674D01*
X95563739Y-55075283D01*
X95332000Y-55028355D01*
X93832000Y-55028355D01*
X93615508Y-55069091D01*
X93436090Y-55184543D01*
X92972827Y-55184543D01*
X93400725Y-54756645D01*
X93891000Y-54756645D01*
X94107492Y-54715909D01*
X94306326Y-54587963D01*
X94439717Y-54392739D01*
X94486645Y-54161000D01*
X94486645Y-52861000D01*
X94445909Y-52644508D01*
X94317963Y-52445674D01*
X94122739Y-52312283D01*
X93891000Y-52265355D01*
X92391000Y-52265355D01*
X92174508Y-52306091D01*
X91975674Y-52434037D01*
X91842283Y-52629261D01*
X91795355Y-52861000D01*
X91795355Y-53351275D01*
X87029087Y-58117543D01*
X85624827Y-58117543D01*
X95257913Y-48484457D01*
X98413354Y-48484457D01*
X98573261Y-48593717D01*
X98805000Y-48640645D01*
X100305000Y-48640645D01*
X100521492Y-48599909D01*
X100720326Y-48471963D01*
X100853717Y-48276739D01*
X100900645Y-48045000D01*
X100900645Y-46795000D01*
X100859909Y-46578508D01*
X100731963Y-46379674D01*
X100536739Y-46246283D01*
X100305000Y-46199355D01*
X98805000Y-46199355D01*
X98588508Y-46240091D01*
X98409090Y-46355543D01*
X97386826Y-46355543D01*
X98205724Y-45536645D01*
X98696000Y-45536645D01*
X98912492Y-45495909D01*
X99111326Y-45367963D01*
X99244717Y-45172739D01*
X99291645Y-44941000D01*
X99291645Y-43641000D01*
X99250909Y-43424508D01*
X99122963Y-43225674D01*
X98927739Y-43092283D01*
X98696000Y-43045355D01*
X97196000Y-43045355D01*
X96979508Y-43086091D01*
X96780674Y-43214037D01*
X96647283Y-43409261D01*
X96600355Y-43641000D01*
X96600355Y-44131276D01*
X94090815Y-46640815D01*
X82614087Y-58117543D01*
X74061827Y-58117543D01*
X77709002Y-54470368D01*
X77778264Y-54470428D01*
X78261462Y-54270774D01*
X78631475Y-53901407D01*
X78788138Y-53524121D01*
X78943226Y-53899462D01*
X79312593Y-54269475D01*
X79795443Y-54469972D01*
X80318264Y-54470428D01*
X80801462Y-54270774D01*
X81171475Y-53901407D01*
X81328138Y-53524121D01*
X81483226Y-53899462D01*
X81852593Y-54269475D01*
X82335443Y-54469972D01*
X82858264Y-54470428D01*
X83341462Y-54270774D01*
X83711475Y-53901407D01*
X83868138Y-53524121D01*
X84023226Y-53899462D01*
X84392593Y-54269475D01*
X84875443Y-54469972D01*
X85398264Y-54470428D01*
X85881462Y-54270774D01*
X86251475Y-53901407D01*
X86451972Y-53418557D01*
X86452428Y-52895736D01*
X86252774Y-52412538D01*
X85883407Y-52042525D01*
X85400557Y-51842028D01*
X84877736Y-51841572D01*
X84394538Y-52041226D01*
X84024525Y-52410593D01*
X83867862Y-52787879D01*
X83712774Y-52412538D01*
X83343407Y-52042525D01*
X82860557Y-51842028D01*
X82337736Y-51841572D01*
X81854538Y-52041226D01*
X81484525Y-52410593D01*
X81327862Y-52787879D01*
X81172774Y-52412538D01*
X80803407Y-52042525D01*
X80320557Y-51842028D01*
X79797736Y-51841572D01*
X79314538Y-52041226D01*
X78944525Y-52410593D01*
X78787862Y-52787879D01*
X78632774Y-52412538D01*
X78263407Y-52042525D01*
X77780557Y-51842028D01*
X77257736Y-51841572D01*
X76774538Y-52041226D01*
X76404525Y-52410593D01*
X76247862Y-52787879D01*
X76092774Y-52412538D01*
X75723407Y-52042525D01*
X75240557Y-51842028D01*
X74717736Y-51841572D01*
X74234538Y-52041226D01*
X74217261Y-52058473D01*
X69140894Y-46982106D01*
X68910165Y-46827937D01*
X68638000Y-46773800D01*
X68047645Y-46773800D01*
X68047645Y-46735000D01*
X68006909Y-46518508D01*
X67878963Y-46319674D01*
X67683739Y-46186283D01*
X67452000Y-46139355D01*
X66152000Y-46139355D01*
X65935508Y-46180091D01*
X65736674Y-46308037D01*
X65603283Y-46503261D01*
X65556355Y-46735000D01*
X65556355Y-48235000D01*
X65597091Y-48451492D01*
X65725037Y-48650326D01*
X65920261Y-48783717D01*
X66152000Y-48830645D01*
X67452000Y-48830645D01*
X67668492Y-48789909D01*
X67867326Y-48661963D01*
X68000717Y-48466739D01*
X68047645Y-48235000D01*
X68047645Y-48196200D01*
X68343412Y-48196200D01*
X70985254Y-50838042D01*
X70793000Y-50799800D01*
X67248588Y-50799800D01*
X63744645Y-47295857D01*
X63744645Y-46791000D01*
X63703909Y-46574508D01*
X63575963Y-46375674D01*
X63380739Y-46242283D01*
X63149000Y-46195355D01*
X61849000Y-46195355D01*
X61632508Y-46236091D01*
X61433674Y-46364037D01*
X61300283Y-46559261D01*
X61253355Y-46791000D01*
X61253355Y-48291000D01*
X61294091Y-48507492D01*
X61422037Y-48706326D01*
X61617261Y-48839717D01*
X61849000Y-48886645D01*
X63149000Y-48886645D01*
X63296166Y-48858954D01*
X66451106Y-52013894D01*
X66681835Y-52168063D01*
X66954000Y-52222200D01*
X68973247Y-52222200D01*
X68784525Y-52410593D01*
X68584028Y-52893443D01*
X68583572Y-53416264D01*
X68783226Y-53899462D01*
X69152593Y-54269475D01*
X69635443Y-54469972D01*
X70158264Y-54470428D01*
X70641462Y-54270774D01*
X71011475Y-53901407D01*
X71168138Y-53524121D01*
X71323226Y-53899462D01*
X71692593Y-54269475D01*
X72175443Y-54469972D01*
X72698264Y-54470428D01*
X73181462Y-54270774D01*
X73551475Y-53901407D01*
X73697339Y-53550127D01*
X73734053Y-53586841D01*
X73863226Y-53899462D01*
X74232593Y-54269475D01*
X74703583Y-54465047D01*
X71760500Y-57408130D01*
X71788973Y-57339560D01*
X71789426Y-56820717D01*
X71591292Y-56341195D01*
X71224735Y-55973998D01*
X70745560Y-55775027D01*
X70226717Y-55774574D01*
X69747195Y-55972708D01*
X69379998Y-56339265D01*
X69214839Y-56737011D01*
X69051292Y-56341195D01*
X68684735Y-55973998D01*
X68205560Y-55775027D01*
X67686717Y-55774574D01*
X67207195Y-55972708D01*
X66839998Y-56339265D01*
X66674839Y-56737011D01*
X66511292Y-56341195D01*
X66144735Y-55973998D01*
X65665560Y-55775027D01*
X65146717Y-55774574D01*
X64667195Y-55972708D01*
X64299998Y-56339265D01*
X64101027Y-56818440D01*
X64100574Y-57337283D01*
X64298708Y-57816805D01*
X64598922Y-58117543D01*
X56711827Y-58117543D01*
X57268725Y-57560645D01*
X57759000Y-57560645D01*
X57975492Y-57519909D01*
X58174326Y-57391963D01*
X58307717Y-57196739D01*
X58354645Y-56965000D01*
X58354645Y-55465000D01*
X58313909Y-55248508D01*
X58185963Y-55049674D01*
X57990739Y-54916283D01*
X57759000Y-54869355D01*
X56459000Y-54869355D01*
X56242508Y-54910091D01*
X56043674Y-55038037D01*
X55910283Y-55233261D01*
X55863355Y-55465000D01*
X55863355Y-55955275D01*
X53921705Y-57896925D01*
X53901739Y-57883283D01*
X53670000Y-57836355D01*
X52420000Y-57836355D01*
X52203508Y-57877091D01*
X52004674Y-58005037D01*
X51927802Y-58117543D01*
X51289001Y-58117543D01*
X51236963Y-58036674D01*
X51041739Y-57903283D01*
X50810000Y-57856355D01*
X49510000Y-57856355D01*
X49293508Y-57897091D01*
X49094674Y-58025037D01*
X49012336Y-58145543D01*
X45021897Y-58145543D01*
X44871470Y-57994853D01*
X44739697Y-57940136D01*
X44869348Y-57886565D01*
X45273147Y-57483470D01*
X45491951Y-56956532D01*
X45492016Y-56881148D01*
X45834633Y-56881148D01*
X45981266Y-57236027D01*
X46252544Y-57507779D01*
X46607168Y-57655032D01*
X46991148Y-57655367D01*
X47346027Y-57508734D01*
X47617779Y-57237456D01*
X47627851Y-57213200D01*
X48914355Y-57213200D01*
X48914355Y-57252000D01*
X48955091Y-57468492D01*
X49083037Y-57667326D01*
X49278261Y-57800717D01*
X49510000Y-57847645D01*
X50810000Y-57847645D01*
X51026492Y-57806909D01*
X51225326Y-57678963D01*
X51358717Y-57483739D01*
X51405645Y-57252000D01*
X51405645Y-55752000D01*
X51364909Y-55535508D01*
X51236963Y-55336674D01*
X51041739Y-55203283D01*
X50810000Y-55156355D01*
X50805200Y-55156355D01*
X50805200Y-49738285D01*
X50831805Y-49727292D01*
X51199002Y-49360735D01*
X51397973Y-48881560D01*
X51398426Y-48362717D01*
X51200292Y-47883195D01*
X50833735Y-47515998D01*
X50354560Y-47317027D01*
X49835717Y-47316574D01*
X49356195Y-47514708D01*
X48988998Y-47881265D01*
X48790027Y-48360440D01*
X48789574Y-48879283D01*
X48987708Y-49358805D01*
X49354265Y-49726002D01*
X49382800Y-49737851D01*
X49382800Y-55180289D01*
X49293508Y-55197091D01*
X49094674Y-55325037D01*
X48961283Y-55520261D01*
X48914355Y-55752000D01*
X48914355Y-55790800D01*
X47151373Y-55790800D01*
X46992832Y-55724968D01*
X46608852Y-55724633D01*
X46253973Y-55871266D01*
X45982221Y-56142544D01*
X45834968Y-56497168D01*
X45834633Y-56881148D01*
X45492016Y-56881148D01*
X45492449Y-56385971D01*
X45274565Y-55858652D01*
X44871470Y-55454853D01*
X44769200Y-55412387D01*
X44769200Y-55297645D01*
X44793000Y-55297645D01*
X45009492Y-55256909D01*
X45208326Y-55128963D01*
X45341717Y-54933739D01*
X45388645Y-54702000D01*
X45388645Y-53452000D01*
X45347909Y-53235508D01*
X45219963Y-53036674D01*
X45024739Y-52903283D01*
X44793000Y-52856355D01*
X43293000Y-52856355D01*
X43076508Y-52897091D01*
X42877674Y-53025037D01*
X42744283Y-53220261D01*
X42714811Y-53365800D01*
X39383286Y-53365800D01*
X39311802Y-53192795D01*
X38866549Y-52746764D01*
X38284499Y-52505076D01*
X37654266Y-52504526D01*
X37071795Y-52745198D01*
X36625764Y-53190451D01*
X36384076Y-53772501D01*
X36383526Y-54402734D01*
X36624198Y-54985205D01*
X37069451Y-55431236D01*
X37651501Y-55672924D01*
X38281734Y-55673474D01*
X38864205Y-55432802D01*
X39310236Y-54987549D01*
X39393013Y-54788200D01*
X42713575Y-54788200D01*
X42738091Y-54918492D01*
X42866037Y-55117326D01*
X43061261Y-55250717D01*
X43293000Y-55297645D01*
X43346800Y-55297645D01*
X43346800Y-55412055D01*
X43246652Y-55453435D01*
X42842853Y-55856530D01*
X42624049Y-56383468D01*
X42623551Y-56954029D01*
X42841435Y-57481348D01*
X43244530Y-57885147D01*
X43376303Y-57939864D01*
X43246652Y-57993435D01*
X43094278Y-58145543D01*
X38935913Y-58145543D01*
X38698549Y-57907764D01*
X38116499Y-57666076D01*
X37486266Y-57665526D01*
X36903795Y-57906198D01*
X36457764Y-58351451D01*
X36216076Y-58933501D01*
X36215526Y-59563734D01*
X36456198Y-60146205D01*
X36901451Y-60592236D01*
X37483501Y-60833924D01*
X38113734Y-60834474D01*
X38696205Y-60593802D01*
X39016108Y-60274457D01*
X43094103Y-60274457D01*
X43244530Y-60425147D01*
X43376303Y-60479864D01*
X43246652Y-60533435D01*
X42842853Y-60936530D01*
X42624049Y-61463468D01*
X42623551Y-62034029D01*
X42841435Y-62561348D01*
X43244530Y-62965147D01*
X43771468Y-63183951D01*
X44342029Y-63184449D01*
X44869348Y-62966565D01*
X45273147Y-62563470D01*
X45491951Y-62036532D01*
X45492449Y-61465971D01*
X45274565Y-60938652D01*
X44871470Y-60534853D01*
X44739697Y-60480136D01*
X44869348Y-60426565D01*
X45021722Y-60274457D01*
X49023278Y-60274457D01*
X49083037Y-60367326D01*
X49278261Y-60500717D01*
X49510000Y-60547645D01*
X50810000Y-60547645D01*
X51026492Y-60506909D01*
X51225326Y-60378963D01*
X51315864Y-60246457D01*
X51928130Y-60246457D01*
X51993037Y-60347326D01*
X52188261Y-60480717D01*
X52420000Y-60527645D01*
X53670000Y-60527645D01*
X53886492Y-60486909D01*
X54085326Y-60358963D01*
X54162198Y-60246457D01*
X77679087Y-60246457D01*
X80876355Y-63443725D01*
X80876355Y-64054000D01*
X80917091Y-64270492D01*
X81045037Y-64469326D01*
X81240261Y-64602717D01*
X81472000Y-64649645D01*
X82992000Y-64649645D01*
X83208492Y-64608909D01*
X83407326Y-64480963D01*
X83540717Y-64285739D01*
X83587645Y-64054000D01*
X83587645Y-62534000D01*
X83546909Y-62317508D01*
X83418963Y-62118674D01*
X83223739Y-61985283D01*
X82992000Y-61938355D01*
X82381725Y-61938355D01*
X80689827Y-60246457D01*
X99441087Y-60246457D01*
X101039355Y-61844725D01*
X101039355Y-62310000D01*
X101080091Y-62526492D01*
X101208037Y-62725326D01*
X101332551Y-62810403D01*
X101219674Y-62883037D01*
X101086283Y-63078261D01*
X101039355Y-63310000D01*
X101039355Y-64810000D01*
X101080091Y-65026492D01*
X101208037Y-65225326D01*
X101403261Y-65358717D01*
X101533800Y-65385152D01*
X101533800Y-65424355D01*
X101225000Y-65424355D01*
X101008508Y-65465091D01*
X100987480Y-65478622D01*
X100976739Y-65471283D01*
X100745000Y-65424355D01*
X99955000Y-65424355D01*
X99738508Y-65465091D01*
X99539674Y-65593037D01*
X99406283Y-65788261D01*
X99359355Y-66020000D01*
X99359355Y-67700000D01*
X99397394Y-67902158D01*
X99359355Y-68090000D01*
X99359355Y-68850000D01*
X99397394Y-69052158D01*
X99359355Y-69240000D01*
X99359355Y-69360500D01*
X98959845Y-69360500D01*
X98959845Y-69322400D01*
X98919109Y-69105908D01*
X98791163Y-68907074D01*
X98595939Y-68773683D01*
X98364200Y-68726755D01*
X97653000Y-68726755D01*
X97436508Y-68767491D01*
X97237674Y-68895437D01*
X97104283Y-69090661D01*
X97057355Y-69322400D01*
X97057355Y-70821000D01*
X97098091Y-71037492D01*
X97226037Y-71236326D01*
X97421261Y-71369717D01*
X97653000Y-71416645D01*
X98364200Y-71416645D01*
X98580692Y-71375909D01*
X98779526Y-71247963D01*
X98912917Y-71052739D01*
X98959845Y-70821000D01*
X98959845Y-70782900D01*
X99359355Y-70782900D01*
X99359355Y-70920000D01*
X99400091Y-71136492D01*
X99528037Y-71335326D01*
X99723261Y-71468717D01*
X99955000Y-71515645D01*
X100745000Y-71515645D01*
X100961492Y-71474909D01*
X100982520Y-71461378D01*
X100993261Y-71468717D01*
X101225000Y-71515645D01*
X102015000Y-71515645D01*
X102231492Y-71474909D01*
X102252520Y-71461378D01*
X102263261Y-71468717D01*
X102495000Y-71515645D01*
X103285000Y-71515645D01*
X103501492Y-71474909D01*
X103700326Y-71346963D01*
X103833717Y-71151739D01*
X103880645Y-70920000D01*
X103880645Y-70800200D01*
X104531181Y-70800200D01*
X104599261Y-70846717D01*
X104831000Y-70893645D01*
X106101000Y-70893645D01*
X106317492Y-70852909D01*
X106516326Y-70724963D01*
X106524865Y-70712465D01*
X106521355Y-70729800D01*
X106521355Y-71237800D01*
X106562091Y-71454292D01*
X106690037Y-71653126D01*
X106885261Y-71786517D01*
X107117000Y-71833445D01*
X108387000Y-71833445D01*
X108603492Y-71792709D01*
X108802326Y-71664763D01*
X108838924Y-71611200D01*
X117808344Y-71611200D01*
X117845091Y-71806492D01*
X117973037Y-72005326D01*
X118168261Y-72138717D01*
X118400000Y-72185645D01*
X122328800Y-72185645D01*
X122328800Y-82112800D01*
X71768537Y-82112800D01*
X71982924Y-81596499D01*
X71983474Y-80966266D01*
X71742802Y-80383795D01*
X71369398Y-80009738D01*
X71741236Y-79638549D01*
X71982924Y-79056499D01*
X71983474Y-78426266D01*
X71742802Y-77843795D01*
X71369398Y-77469738D01*
X71741236Y-77098549D01*
X71982924Y-76516499D01*
X71983474Y-75886266D01*
X71742802Y-75303795D01*
X71297549Y-74857764D01*
X70715499Y-74616076D01*
X70085266Y-74615526D01*
X69502795Y-74856198D01*
X69056764Y-75301451D01*
X68815076Y-75883501D01*
X68814526Y-76513734D01*
X69055198Y-77096205D01*
X69428602Y-77470262D01*
X69056764Y-77841451D01*
X68815076Y-78423501D01*
X68814526Y-79053734D01*
X69055198Y-79636205D01*
X69428602Y-80010262D01*
X69128738Y-80309602D01*
X68757549Y-79937764D01*
X68175499Y-79696076D01*
X67545266Y-79695526D01*
X66962795Y-79936198D01*
X66588738Y-80309602D01*
X66217549Y-79937764D01*
X65635499Y-79696076D01*
X65005266Y-79695526D01*
X64422795Y-79936198D01*
X64048738Y-80309602D01*
X63677549Y-79937764D01*
X63095499Y-79696076D01*
X62465266Y-79695526D01*
X61882795Y-79936198D01*
X61508738Y-80309602D01*
X61137549Y-79937764D01*
X60555499Y-79696076D01*
X59925266Y-79695526D01*
X59342795Y-79936198D01*
X58968738Y-80309602D01*
X58597549Y-79937764D01*
X58015499Y-79696076D01*
X57385266Y-79695526D01*
X56802795Y-79936198D01*
X56428738Y-80309602D01*
X56057549Y-79937764D01*
X55475499Y-79696076D01*
X54845266Y-79695526D01*
X54262795Y-79936198D01*
X53888738Y-80309602D01*
X53517549Y-79937764D01*
X52935499Y-79696076D01*
X52305266Y-79695526D01*
X51722795Y-79936198D01*
X51348738Y-80309602D01*
X50977549Y-79937764D01*
X50395499Y-79696076D01*
X49765266Y-79695526D01*
X49182795Y-79936198D01*
X48808738Y-80309602D01*
X48437549Y-79937764D01*
X47855499Y-79696076D01*
X47225266Y-79695526D01*
X46642795Y-79936198D01*
X46268738Y-80309602D01*
X45897549Y-79937764D01*
X45315499Y-79696076D01*
X44685266Y-79695526D01*
X44102795Y-79936198D01*
X43728738Y-80309602D01*
X43357549Y-79937764D01*
X42775499Y-79696076D01*
X42145266Y-79695526D01*
X41562795Y-79936198D01*
X41188738Y-80309602D01*
X40817549Y-79937764D01*
X40235499Y-79696076D01*
X39605266Y-79695526D01*
X39022795Y-79936198D01*
X38576764Y-80381451D01*
X38335076Y-80963501D01*
X38334526Y-81593734D01*
X38549000Y-82112800D01*
X36051200Y-82112800D01*
X36051200Y-66952235D01*
X36480451Y-67382236D01*
X37062501Y-67623924D01*
X37692734Y-67624474D01*
X38275205Y-67383802D01*
X38649262Y-67010398D01*
X38948602Y-67310262D01*
X38576764Y-67681451D01*
X38335076Y-68263501D01*
X38334526Y-68893734D01*
X38575198Y-69476205D01*
X39020451Y-69922236D01*
X39602501Y-70163924D01*
X40232734Y-70164474D01*
X40815205Y-69923802D01*
X41261236Y-69478549D01*
X41502924Y-68896499D01*
X41503474Y-68266266D01*
X41262802Y-67683795D01*
X40889398Y-67309738D01*
X41189262Y-67010398D01*
X41560451Y-67382236D01*
X42142501Y-67623924D01*
X42772734Y-67624474D01*
X43355205Y-67383802D01*
X43729262Y-67010398D01*
X44028602Y-67310262D01*
X43656764Y-67681451D01*
X43415076Y-68263501D01*
X43414526Y-68893734D01*
X43655198Y-69476205D01*
X44100451Y-69922236D01*
X44682501Y-70163924D01*
X45312734Y-70164474D01*
X45895205Y-69923802D01*
X46269262Y-69550398D01*
X46640451Y-69922236D01*
X47222501Y-70163924D01*
X47852734Y-70164474D01*
X48435205Y-69923802D01*
X48809262Y-69550398D01*
X49180451Y-69922236D01*
X49762501Y-70163924D01*
X50392734Y-70164474D01*
X50975205Y-69923802D01*
X51421236Y-69478549D01*
X51662924Y-68896499D01*
X51663474Y-68266266D01*
X51422802Y-67683795D01*
X51049398Y-67309738D01*
X51349262Y-67010398D01*
X51720451Y-67382236D01*
X52302501Y-67623924D01*
X52932734Y-67624474D01*
X53515205Y-67383802D01*
X53889262Y-67010398D01*
X54260451Y-67382236D01*
X54842501Y-67623924D01*
X55472734Y-67624474D01*
X56055205Y-67383802D01*
X56429262Y-67010398D01*
X56800451Y-67382236D01*
X57382501Y-67623924D01*
X58012734Y-67624474D01*
X58595205Y-67383802D01*
X58969262Y-67010398D01*
X59340451Y-67382236D01*
X59922501Y-67623924D01*
X60552734Y-67624474D01*
X61135205Y-67383802D01*
X61509262Y-67010398D01*
X61880451Y-67382236D01*
X62462501Y-67623924D01*
X63092734Y-67624474D01*
X63675205Y-67383802D01*
X64049262Y-67010398D01*
X64420451Y-67382236D01*
X65002501Y-67623924D01*
X65632734Y-67624474D01*
X66215205Y-67383802D01*
X66589262Y-67010398D01*
X66960451Y-67382236D01*
X67542501Y-67623924D01*
X68172734Y-67624474D01*
X68755205Y-67383802D01*
X69129262Y-67010398D01*
X69428602Y-67310262D01*
X69056764Y-67681451D01*
X68815076Y-68263501D01*
X68814526Y-68893734D01*
X69055198Y-69476205D01*
X69428602Y-69850262D01*
X69056764Y-70221451D01*
X68815076Y-70803501D01*
X68814526Y-71433734D01*
X69055198Y-72016205D01*
X69500451Y-72462236D01*
X70082501Y-72703924D01*
X70712734Y-72704474D01*
X71295205Y-72463802D01*
X71741236Y-72018549D01*
X71982924Y-71436499D01*
X71983474Y-70806266D01*
X71742802Y-70223795D01*
X71369398Y-69849738D01*
X71741236Y-69478549D01*
X71850588Y-69215200D01*
X73126355Y-69215200D01*
X73126355Y-69264000D01*
X73167091Y-69480492D01*
X73295037Y-69679326D01*
X73490261Y-69812717D01*
X73722000Y-69859645D01*
X75242000Y-69859645D01*
X75458492Y-69818909D01*
X75657326Y-69690963D01*
X75790717Y-69495739D01*
X75811319Y-69394000D01*
X85326355Y-69394000D01*
X85326355Y-70914000D01*
X85367091Y-71130492D01*
X85495037Y-71329326D01*
X85690261Y-71462717D01*
X85922000Y-71509645D01*
X87442000Y-71509645D01*
X87658492Y-71468909D01*
X87857326Y-71340963D01*
X87990717Y-71145739D01*
X88037645Y-70914000D01*
X88037645Y-70865200D01*
X88656795Y-70865200D01*
X88672091Y-70946492D01*
X88800037Y-71145326D01*
X88995261Y-71278717D01*
X89227000Y-71325645D01*
X90727000Y-71325645D01*
X90943492Y-71284909D01*
X91142326Y-71156963D01*
X91227403Y-71032449D01*
X91300037Y-71145326D01*
X91495261Y-71278717D01*
X91727000Y-71325645D01*
X93227000Y-71325645D01*
X93443492Y-71284909D01*
X93642326Y-71156963D01*
X93775717Y-70961739D01*
X93805189Y-70816200D01*
X94060155Y-70816200D01*
X94060155Y-70821000D01*
X94100891Y-71037492D01*
X94228837Y-71236326D01*
X94424061Y-71369717D01*
X94655800Y-71416645D01*
X95367000Y-71416645D01*
X95583492Y-71375909D01*
X95782326Y-71247963D01*
X95915717Y-71052739D01*
X95962645Y-70821000D01*
X95962645Y-69322400D01*
X95921909Y-69105908D01*
X95793963Y-68907074D01*
X95598739Y-68773683D01*
X95367000Y-68726755D01*
X94655800Y-68726755D01*
X94439308Y-68767491D01*
X94240474Y-68895437D01*
X94107083Y-69090661D01*
X94060155Y-69322400D01*
X94060155Y-69393800D01*
X93806425Y-69393800D01*
X93781909Y-69263508D01*
X93653963Y-69064674D01*
X93458739Y-68931283D01*
X93227000Y-68884355D01*
X91727000Y-68884355D01*
X91510508Y-68925091D01*
X91311674Y-69053037D01*
X91226597Y-69177551D01*
X91153963Y-69064674D01*
X90958739Y-68931283D01*
X90727000Y-68884355D01*
X89227000Y-68884355D01*
X89010508Y-68925091D01*
X88811674Y-69053037D01*
X88678283Y-69248261D01*
X88638888Y-69442800D01*
X88037645Y-69442800D01*
X88037645Y-69394000D01*
X87996909Y-69177508D01*
X87868963Y-68978674D01*
X87673739Y-68845283D01*
X87442000Y-68798355D01*
X85922000Y-68798355D01*
X85705508Y-68839091D01*
X85506674Y-68967037D01*
X85373283Y-69162261D01*
X85326355Y-69394000D01*
X75811319Y-69394000D01*
X75837645Y-69264000D01*
X75837645Y-67744000D01*
X75796909Y-67527508D01*
X75668963Y-67328674D01*
X75473739Y-67195283D01*
X75242000Y-67148355D01*
X73722000Y-67148355D01*
X73505508Y-67189091D01*
X73306674Y-67317037D01*
X73173283Y-67512261D01*
X73126355Y-67744000D01*
X73126355Y-67792800D01*
X71787842Y-67792800D01*
X71742802Y-67683795D01*
X71369398Y-67309738D01*
X71741236Y-66938549D01*
X71982924Y-66356499D01*
X71983474Y-65726266D01*
X71742802Y-65143795D01*
X71297549Y-64697764D01*
X70715499Y-64456076D01*
X70085266Y-64455526D01*
X69502795Y-64696198D01*
X69128738Y-65069602D01*
X68757549Y-64697764D01*
X68175499Y-64456076D01*
X67545266Y-64455526D01*
X66962795Y-64696198D01*
X66588738Y-65069602D01*
X66217549Y-64697764D01*
X65635499Y-64456076D01*
X65005266Y-64455526D01*
X64422795Y-64696198D01*
X64048738Y-65069602D01*
X63677549Y-64697764D01*
X63095499Y-64456076D01*
X62465266Y-64455526D01*
X61882795Y-64696198D01*
X61508738Y-65069602D01*
X61137549Y-64697764D01*
X60555499Y-64456076D01*
X59925266Y-64455526D01*
X59342795Y-64696198D01*
X58968738Y-65069602D01*
X58597549Y-64697764D01*
X58015499Y-64456076D01*
X57385266Y-64455526D01*
X56802795Y-64696198D01*
X56428738Y-65069602D01*
X56057549Y-64697764D01*
X55475499Y-64456076D01*
X54845266Y-64455526D01*
X54262795Y-64696198D01*
X53888738Y-65069602D01*
X53517549Y-64697764D01*
X52935499Y-64456076D01*
X52305266Y-64455526D01*
X51722795Y-64696198D01*
X51348738Y-65069602D01*
X50977549Y-64697764D01*
X50395499Y-64456076D01*
X49765266Y-64455526D01*
X49182795Y-64696198D01*
X48808738Y-65069602D01*
X48437549Y-64697764D01*
X47855499Y-64456076D01*
X47225266Y-64455526D01*
X46642795Y-64696198D01*
X46268738Y-65069602D01*
X45897549Y-64697764D01*
X45315499Y-64456076D01*
X44685266Y-64455526D01*
X44102795Y-64696198D01*
X43728738Y-65069602D01*
X43357549Y-64697764D01*
X42775499Y-64456076D01*
X42145266Y-64455526D01*
X41562795Y-64696198D01*
X41188738Y-65069602D01*
X40817549Y-64697764D01*
X40235499Y-64456076D01*
X39605266Y-64455526D01*
X39022795Y-64696198D01*
X38648738Y-65069602D01*
X38277549Y-64697764D01*
X37695499Y-64456076D01*
X37065266Y-64455526D01*
X36482795Y-64696198D01*
X36051200Y-65127040D01*
X36051200Y-48879283D01*
X43709574Y-48879283D01*
X43907708Y-49358805D01*
X44274265Y-49726002D01*
X44753440Y-49924973D01*
X45272283Y-49925426D01*
X45751805Y-49727292D01*
X46119002Y-49360735D01*
X46317973Y-48881560D01*
X46318426Y-48362717D01*
X46120292Y-47883195D01*
X45753735Y-47515998D01*
X45274560Y-47317027D01*
X44755717Y-47316574D01*
X44276195Y-47514708D01*
X43908998Y-47881265D01*
X43710027Y-48360440D01*
X43709574Y-48879283D01*
X36051200Y-48879283D01*
X36051200Y-46241000D01*
X53236355Y-46241000D01*
X53236355Y-47761000D01*
X53277091Y-47977492D01*
X53405037Y-48176326D01*
X53600261Y-48309717D01*
X53832000Y-48356645D01*
X55352000Y-48356645D01*
X55568492Y-48315909D01*
X55767326Y-48187963D01*
X55900717Y-47992739D01*
X55947645Y-47761000D01*
X55947645Y-47654621D01*
X55991779Y-47761433D01*
X56044543Y-47814289D01*
X56044543Y-52337478D01*
X56043674Y-52338037D01*
X55910283Y-52533261D01*
X55863355Y-52765000D01*
X55863355Y-54265000D01*
X55904091Y-54481492D01*
X56032037Y-54680326D01*
X56227261Y-54813717D01*
X56459000Y-54860645D01*
X57759000Y-54860645D01*
X57975492Y-54819909D01*
X58174326Y-54691963D01*
X58307717Y-54496739D01*
X58354645Y-54265000D01*
X58354645Y-52765000D01*
X58313909Y-52548508D01*
X58185963Y-52349674D01*
X58173457Y-52341129D01*
X58173457Y-47860687D01*
X58270892Y-47763422D01*
X58475966Y-47269551D01*
X58476432Y-46734795D01*
X58272221Y-46240567D01*
X58196457Y-46164671D01*
X58196457Y-44614913D01*
X59114913Y-43696457D01*
X59558000Y-43696457D01*
X59563027Y-43695457D01*
X59848087Y-43695457D01*
X61253355Y-45100725D01*
X61253355Y-45591000D01*
X61294091Y-45807492D01*
X61422037Y-46006326D01*
X61617261Y-46139717D01*
X61849000Y-46186645D01*
X63149000Y-46186645D01*
X63365492Y-46145909D01*
X63564326Y-46017963D01*
X63697717Y-45822739D01*
X63744645Y-45591000D01*
X63744645Y-44091000D01*
X63703909Y-43874508D01*
X63588693Y-43695457D01*
X64207087Y-43695457D01*
X65556355Y-45044725D01*
X65556355Y-45535000D01*
X65597091Y-45751492D01*
X65725037Y-45950326D01*
X65920261Y-46083717D01*
X66152000Y-46130645D01*
X67452000Y-46130645D01*
X67668492Y-46089909D01*
X67867326Y-45961963D01*
X68000717Y-45766739D01*
X68023088Y-45656264D01*
X68583572Y-45656264D01*
X68783226Y-46139462D01*
X69152593Y-46509475D01*
X69635443Y-46709972D01*
X70158264Y-46710428D01*
X70641462Y-46510774D01*
X71011475Y-46141407D01*
X71168138Y-45764121D01*
X71323226Y-46139462D01*
X71692593Y-46509475D01*
X72175443Y-46709972D01*
X72698264Y-46710428D01*
X73181462Y-46510774D01*
X73551475Y-46141407D01*
X73708138Y-45764121D01*
X73863226Y-46139462D01*
X74232593Y-46509475D01*
X74715443Y-46709972D01*
X75238264Y-46710428D01*
X75721462Y-46510774D01*
X76091475Y-46141407D01*
X76291972Y-45658557D01*
X76291973Y-45656264D01*
X78743572Y-45656264D01*
X78943226Y-46139462D01*
X79312593Y-46509475D01*
X79795443Y-46709972D01*
X80318264Y-46710428D01*
X80801462Y-46510774D01*
X81171475Y-46141407D01*
X81328138Y-45764121D01*
X81483226Y-46139462D01*
X81852593Y-46509475D01*
X82335443Y-46709972D01*
X82858264Y-46710428D01*
X82892495Y-46696284D01*
X84065106Y-47868895D01*
X84295836Y-48023063D01*
X84568000Y-48077200D01*
X86177000Y-48077200D01*
X86449165Y-48023063D01*
X86679894Y-47868894D01*
X91956894Y-42591894D01*
X92111063Y-42361165D01*
X92165200Y-42089000D01*
X92165200Y-40982645D01*
X92204000Y-40982645D01*
X92420492Y-40941909D01*
X92619326Y-40813963D01*
X92752717Y-40618739D01*
X92799645Y-40387000D01*
X92799645Y-39087000D01*
X92758909Y-38870508D01*
X92630963Y-38671674D01*
X92435739Y-38538283D01*
X92277984Y-38506337D01*
X92402492Y-38482909D01*
X92601326Y-38354963D01*
X92734717Y-38159739D01*
X92781645Y-37928000D01*
X92781645Y-36628000D01*
X92790355Y-36628000D01*
X92790355Y-37928000D01*
X92831091Y-38144492D01*
X92959037Y-38343326D01*
X93154261Y-38476717D01*
X93386000Y-38523645D01*
X94886000Y-38523645D01*
X95102492Y-38482909D01*
X95301326Y-38354963D01*
X95434717Y-38159739D01*
X95469252Y-37989200D01*
X98298474Y-37989200D01*
X98371198Y-38165205D01*
X98816451Y-38611236D01*
X99398501Y-38852924D01*
X100028734Y-38853474D01*
X100611205Y-38612802D01*
X101057236Y-38167549D01*
X101298924Y-37585499D01*
X101299474Y-36955266D01*
X101058802Y-36372795D01*
X100613549Y-35926764D01*
X100031499Y-35685076D01*
X99401266Y-35684526D01*
X98818795Y-35925198D01*
X98372764Y-36370451D01*
X98291233Y-36566800D01*
X95470129Y-36566800D01*
X95440909Y-36411508D01*
X95312963Y-36212674D01*
X95117739Y-36079283D01*
X94886000Y-36032355D01*
X93386000Y-36032355D01*
X93169508Y-36073091D01*
X92970674Y-36201037D01*
X92837283Y-36396261D01*
X92790355Y-36628000D01*
X92781645Y-36628000D01*
X92740909Y-36411508D01*
X92612963Y-36212674D01*
X92518449Y-36148095D01*
X92615717Y-36005739D01*
X92662645Y-35774000D01*
X92662645Y-34274000D01*
X92621909Y-34057508D01*
X92493963Y-33858674D01*
X92375893Y-33778000D01*
X106813355Y-33778000D01*
X106813355Y-35028000D01*
X106854091Y-35244492D01*
X106982037Y-35443326D01*
X107177261Y-35576717D01*
X107409000Y-35623645D01*
X107446800Y-35623645D01*
X107446800Y-35741871D01*
X107291508Y-35771091D01*
X107092674Y-35899037D01*
X106959283Y-36094261D01*
X106912355Y-36326000D01*
X106912355Y-37826000D01*
X106953091Y-38042492D01*
X107081037Y-38241326D01*
X107276261Y-38374717D01*
X107508000Y-38421645D01*
X108808000Y-38421645D01*
X109024492Y-38380909D01*
X109223326Y-38252963D01*
X109356717Y-38057739D01*
X109403645Y-37826000D01*
X109403645Y-36326000D01*
X109362909Y-36109508D01*
X109234963Y-35910674D01*
X109039739Y-35777283D01*
X108869200Y-35742748D01*
X108869200Y-35623645D01*
X108909000Y-35623645D01*
X109125492Y-35582909D01*
X109324326Y-35454963D01*
X109457717Y-35259739D01*
X109504645Y-35028000D01*
X109504645Y-33778000D01*
X109463909Y-33561508D01*
X109335963Y-33362674D01*
X109140739Y-33229283D01*
X108909000Y-33182355D01*
X107409000Y-33182355D01*
X107192508Y-33223091D01*
X106993674Y-33351037D01*
X106860283Y-33546261D01*
X106813355Y-33778000D01*
X92375893Y-33778000D01*
X92298739Y-33725283D01*
X92067000Y-33678355D01*
X90767000Y-33678355D01*
X90550508Y-33719091D01*
X90351674Y-33847037D01*
X90218283Y-34042261D01*
X90171355Y-34274000D01*
X90171355Y-35774000D01*
X90212091Y-35990492D01*
X90325055Y-36166044D01*
X90270674Y-36201037D01*
X90137283Y-36396261D01*
X90090355Y-36628000D01*
X90090355Y-37928000D01*
X90131091Y-38144492D01*
X90259037Y-38343326D01*
X90454261Y-38476717D01*
X90612016Y-38508663D01*
X90487508Y-38532091D01*
X90288674Y-38660037D01*
X90155283Y-38855261D01*
X90108355Y-39087000D01*
X90108355Y-40387000D01*
X90149091Y-40603492D01*
X90277037Y-40802326D01*
X90472261Y-40935717D01*
X90704000Y-40982645D01*
X90742800Y-40982645D01*
X90742800Y-41794412D01*
X85882412Y-46654800D01*
X85532894Y-46654800D01*
X85881462Y-46510774D01*
X86251475Y-46141407D01*
X86451972Y-45658557D01*
X86452428Y-45135736D01*
X86252774Y-44652538D01*
X85883407Y-44282525D01*
X85400557Y-44082028D01*
X84877736Y-44081572D01*
X84394538Y-44281226D01*
X84024525Y-44650593D01*
X83867862Y-45027879D01*
X83712774Y-44652538D01*
X83343407Y-44282525D01*
X82860557Y-44082028D01*
X82337736Y-44081572D01*
X81854538Y-44281226D01*
X81484525Y-44650593D01*
X81327862Y-45027879D01*
X81172774Y-44652538D01*
X80803407Y-44282525D01*
X80320557Y-44082028D01*
X79797736Y-44081572D01*
X79314538Y-44281226D01*
X78944525Y-44650593D01*
X78744028Y-45133443D01*
X78743572Y-45656264D01*
X76291973Y-45656264D01*
X76292428Y-45135736D01*
X76092774Y-44652538D01*
X75723407Y-44282525D01*
X75240557Y-44082028D01*
X74717736Y-44081572D01*
X74234538Y-44281226D01*
X73864525Y-44650593D01*
X73707862Y-45027879D01*
X73552774Y-44652538D01*
X73183407Y-44282525D01*
X72700557Y-44082028D01*
X72177736Y-44081572D01*
X71694538Y-44281226D01*
X71324525Y-44650593D01*
X71167862Y-45027879D01*
X71012774Y-44652538D01*
X70643407Y-44282525D01*
X70160557Y-44082028D01*
X69637736Y-44081572D01*
X69154538Y-44281226D01*
X68784525Y-44650593D01*
X68584028Y-45133443D01*
X68583572Y-45656264D01*
X68023088Y-45656264D01*
X68047645Y-45535000D01*
X68047645Y-44035000D01*
X68006909Y-43818508D01*
X67927728Y-43695457D01*
X85860000Y-43695457D01*
X86267350Y-43614430D01*
X86612685Y-43383685D01*
X89013725Y-40982645D01*
X89504000Y-40982645D01*
X89720492Y-40941909D01*
X89919326Y-40813963D01*
X90052717Y-40618739D01*
X90099645Y-40387000D01*
X90099645Y-39087000D01*
X90058909Y-38870508D01*
X89930963Y-38671674D01*
X89735739Y-38538283D01*
X89504000Y-38491355D01*
X88004000Y-38491355D01*
X87787508Y-38532091D01*
X87588674Y-38660037D01*
X87455283Y-38855261D01*
X87408355Y-39087000D01*
X87408355Y-39577275D01*
X86930645Y-40054985D01*
X86930645Y-38702000D01*
X86889909Y-38485508D01*
X86761963Y-38286674D01*
X86637449Y-38201597D01*
X86750326Y-38128963D01*
X86883717Y-37933739D01*
X86930645Y-37702000D01*
X86930645Y-36202000D01*
X86889909Y-35985508D01*
X86761963Y-35786674D01*
X86566739Y-35653283D01*
X86335000Y-35606355D01*
X85085000Y-35606355D01*
X84868508Y-35647091D01*
X84669674Y-35775037D01*
X84536283Y-35970261D01*
X84510967Y-36095274D01*
X84388963Y-35905674D01*
X84193739Y-35772283D01*
X83962000Y-35725355D01*
X82462000Y-35725355D01*
X82245508Y-35766091D01*
X82046674Y-35894037D01*
X81913283Y-36089261D01*
X81866355Y-36321000D01*
X81866355Y-37621000D01*
X81907091Y-37837492D01*
X82035037Y-38036326D01*
X82230261Y-38169717D01*
X82462000Y-38216645D01*
X82500800Y-38216645D01*
X82500800Y-39124412D01*
X81999388Y-39625824D01*
X81766187Y-39625621D01*
X81385938Y-39782737D01*
X81094759Y-40073408D01*
X80936980Y-40453382D01*
X80936621Y-40864813D01*
X81093737Y-41245062D01*
X81384408Y-41536241D01*
X81457383Y-41566543D01*
X77266203Y-41566543D01*
X77316241Y-41516592D01*
X77474020Y-41136618D01*
X77474133Y-41007645D01*
X78460000Y-41007645D01*
X78676492Y-40966909D01*
X78875326Y-40838963D01*
X79008717Y-40643739D01*
X79055645Y-40412000D01*
X79055645Y-38912000D01*
X79014909Y-38695508D01*
X78886963Y-38496674D01*
X78691739Y-38363283D01*
X78460000Y-38316355D01*
X77160000Y-38316355D01*
X76943508Y-38357091D01*
X76744674Y-38485037D01*
X76611283Y-38680261D01*
X76564355Y-38912000D01*
X76564355Y-38950800D01*
X76562091Y-38950800D01*
X76525909Y-38758508D01*
X76397963Y-38559674D01*
X76202739Y-38426283D01*
X75971000Y-38379355D01*
X74471000Y-38379355D01*
X74254508Y-38420091D01*
X74055674Y-38548037D01*
X73922283Y-38743261D01*
X73875355Y-38975000D01*
X73875355Y-40275000D01*
X73916091Y-40491492D01*
X74044037Y-40690326D01*
X74239261Y-40823717D01*
X74471000Y-40870645D01*
X75405852Y-40870645D01*
X75405621Y-41134813D01*
X75562737Y-41515062D01*
X75614128Y-41566543D01*
X72084827Y-41566543D01*
X72780725Y-40870645D01*
X73271000Y-40870645D01*
X73487492Y-40829909D01*
X73686326Y-40701963D01*
X73819717Y-40506739D01*
X73866645Y-40275000D01*
X73866645Y-38975000D01*
X73825909Y-38758508D01*
X73697963Y-38559674D01*
X73502739Y-38426283D01*
X73271000Y-38379355D01*
X71771000Y-38379355D01*
X71554508Y-38420091D01*
X71355674Y-38548037D01*
X71222283Y-38743261D01*
X71175355Y-38975000D01*
X71175355Y-39465275D01*
X70562645Y-40077985D01*
X70562645Y-38884000D01*
X70521909Y-38667508D01*
X70393963Y-38468674D01*
X70198739Y-38335283D01*
X69967000Y-38288355D01*
X68667000Y-38288355D01*
X68450508Y-38329091D01*
X68251674Y-38457037D01*
X68118283Y-38652261D01*
X68071355Y-38884000D01*
X68071355Y-39374275D01*
X65879087Y-41566543D01*
X59558000Y-41566543D01*
X59552973Y-41567543D01*
X58674000Y-41567543D01*
X58266650Y-41648570D01*
X58196457Y-41695471D01*
X58196457Y-39211980D01*
X58396236Y-39012549D01*
X58637924Y-38430499D01*
X58638474Y-37800266D01*
X58397802Y-37217795D01*
X57952549Y-36771764D01*
X57370499Y-36530076D01*
X56740266Y-36529526D01*
X56157795Y-36770198D01*
X55711764Y-37215451D01*
X55470076Y-37797501D01*
X55469526Y-38427734D01*
X55710198Y-39010205D01*
X56067543Y-39368174D01*
X56067543Y-43844868D01*
X55989543Y-44237000D01*
X55989543Y-46247163D01*
X55947645Y-46348065D01*
X55947645Y-46241000D01*
X55906909Y-46024508D01*
X55778963Y-45825674D01*
X55583739Y-45692283D01*
X55352000Y-45645355D01*
X53832000Y-45645355D01*
X53615508Y-45686091D01*
X53416674Y-45814037D01*
X53283283Y-46009261D01*
X53236355Y-46241000D01*
X36051200Y-46241000D01*
X36051200Y-31911200D01*
X79182355Y-31911200D01*
X79182355Y-32957000D01*
G36*
X106885261Y-69906917D02*
X107117000Y-69953845D01*
X108387000Y-69953845D01*
X108603492Y-69913109D01*
X108755336Y-69815400D01*
X114039355Y-69815400D01*
X114039355Y-69884000D01*
X114080091Y-70100492D01*
X114136916Y-70188800D01*
X108630033Y-70188800D01*
X108618739Y-70181083D01*
X108387000Y-70134155D01*
X107117000Y-70134155D01*
X106900508Y-70174891D01*
X106701674Y-70302837D01*
X106693135Y-70315335D01*
X106696645Y-70298000D01*
X106696645Y-69790000D01*
X106694063Y-69776277D01*
X106885261Y-69906917D01*
X106885261Y-69906917D01*
G37*
X106885261Y-69906917D02*
X107117000Y-69953845D01*
X108387000Y-69953845D01*
X108603492Y-69913109D01*
X108755336Y-69815400D01*
X114039355Y-69815400D01*
X114039355Y-69884000D01*
X114080091Y-70100492D01*
X114136916Y-70188800D01*
X108630033Y-70188800D01*
X108618739Y-70181083D01*
X108387000Y-70134155D01*
X107117000Y-70134155D01*
X106900508Y-70174891D01*
X106701674Y-70302837D01*
X106693135Y-70315335D01*
X106696645Y-70298000D01*
X106696645Y-69790000D01*
X106694063Y-69776277D01*
X106885261Y-69906917D01*
M02*
