G04 #@! TF.FileFunction,Legend,Top*
%FSLAX46Y46*%
G04 Gerber Fmt 4.6, Leading zero omitted, Abs format (unit mm)*
G04 Created by KiCad (PCBNEW 4.0.7) date 02/11/18 18:53:05*
%MOMM*%
%LPD*%
G01*
G04 APERTURE LIST*
%ADD10C,0.100000*%
%ADD11C,0.200000*%
%ADD12C,0.300000*%
%ADD13C,0.120000*%
%ADD14C,0.150000*%
G04 APERTURE END LIST*
D10*
D11*
X68812531Y-52959000D02*
G75*
G03X68812531Y-52959000I-740531J0D01*
G01*
D12*
X101776000Y-31974857D02*
X103490286Y-31974857D01*
X102633143Y-35274857D02*
X102633143Y-31974857D01*
X105633143Y-35117714D02*
X105347429Y-35274857D01*
X104776000Y-35274857D01*
X104490286Y-35117714D01*
X104347429Y-34803429D01*
X104347429Y-33546286D01*
X104490286Y-33232000D01*
X104776000Y-33074857D01*
X105347429Y-33074857D01*
X105633143Y-33232000D01*
X105776000Y-33546286D01*
X105776000Y-33860571D01*
X104347429Y-34174857D01*
X108347429Y-35274857D02*
X108347429Y-33546286D01*
X108204572Y-33232000D01*
X107918858Y-33074857D01*
X107347429Y-33074857D01*
X107061715Y-33232000D01*
X108347429Y-35117714D02*
X108061715Y-35274857D01*
X107347429Y-35274857D01*
X107061715Y-35117714D01*
X106918858Y-34803429D01*
X106918858Y-34489143D01*
X107061715Y-34174857D01*
X107347429Y-34017714D01*
X108061715Y-34017714D01*
X108347429Y-33860571D01*
X109776001Y-35274857D02*
X109776001Y-33074857D01*
X109776001Y-33389143D02*
X109918858Y-33232000D01*
X110204572Y-33074857D01*
X110633144Y-33074857D01*
X110918858Y-33232000D01*
X111061715Y-33546286D01*
X111061715Y-35274857D01*
X111061715Y-33546286D02*
X111204572Y-33232000D01*
X111490286Y-33074857D01*
X111918858Y-33074857D01*
X112204572Y-33232000D01*
X112347429Y-33546286D01*
X112347429Y-35274857D01*
X117061715Y-33546286D02*
X117490286Y-33703429D01*
X117633143Y-33860571D01*
X117776000Y-34174857D01*
X117776000Y-34646286D01*
X117633143Y-34960571D01*
X117490286Y-35117714D01*
X117204572Y-35274857D01*
X116061715Y-35274857D01*
X116061715Y-31974857D01*
X117061715Y-31974857D01*
X117347429Y-32132000D01*
X117490286Y-32289143D01*
X117633143Y-32603429D01*
X117633143Y-32917714D01*
X117490286Y-33232000D01*
X117347429Y-33389143D01*
X117061715Y-33546286D01*
X116061715Y-33546286D01*
X119490286Y-35274857D02*
X119204572Y-35117714D01*
X119061715Y-34803429D01*
X119061715Y-31974857D01*
X120633144Y-35274857D02*
X120633144Y-33074857D01*
X120633144Y-31974857D02*
X120490287Y-32132000D01*
X120633144Y-32289143D01*
X120776001Y-32132000D01*
X120633144Y-31974857D01*
X120633144Y-32289143D01*
X122061715Y-33074857D02*
X122061715Y-36374857D01*
X122061715Y-33232000D02*
X122347429Y-33074857D01*
X122918858Y-33074857D01*
X123204572Y-33232000D01*
X123347429Y-33389143D01*
X123490286Y-33703429D01*
X123490286Y-34646286D01*
X123347429Y-34960571D01*
X123204572Y-35117714D01*
X122918858Y-35274857D01*
X122347429Y-35274857D01*
X122061715Y-35117714D01*
D13*
X86101704Y-36423309D02*
G75*
G02X88411000Y-36383000I1154296J40309D01*
G01*
X88410052Y-36362879D02*
G75*
G02X87016000Y-37512000I-1154052J-20121D01*
G01*
X86522000Y-35507000D02*
X88132000Y-37118000D01*
X37566309Y-35640496D02*
G75*
G02X37526000Y-33331200I-40309J1154296D01*
G01*
X37505879Y-33332148D02*
G75*
G02X38655000Y-34726200I20121J-1154052D01*
G01*
X36650000Y-35220200D02*
X38261000Y-33610200D01*
X49000000Y-51888000D02*
X52600000Y-51888000D01*
X48475816Y-51160795D02*
G75*
G03X49000000Y-51888000I2324184J1122795D01*
G01*
X48443600Y-48939193D02*
G75*
G02X50800000Y-47438000I2356400J-1098807D01*
G01*
X53156400Y-48939193D02*
G75*
G03X50800000Y-47438000I-2356400J-1098807D01*
G01*
X53124184Y-51160795D02*
G75*
G02X52600000Y-51888000I-2324184J1122795D01*
G01*
D14*
X70918381Y-70682905D02*
X71727905Y-70682905D01*
X71823143Y-70635286D01*
X71870762Y-70587667D01*
X71918381Y-70492429D01*
X71918381Y-70301952D01*
X71870762Y-70206714D01*
X71823143Y-70159095D01*
X71727905Y-70111476D01*
X70918381Y-70111476D01*
X71013619Y-69682905D02*
X70966000Y-69635286D01*
X70918381Y-69540048D01*
X70918381Y-69301952D01*
X70966000Y-69206714D01*
X71013619Y-69159095D01*
X71108857Y-69111476D01*
X71204095Y-69111476D01*
X71346952Y-69159095D01*
X71918381Y-69730524D01*
X71918381Y-69111476D01*
X69810381Y-52165095D02*
X70619905Y-52165095D01*
X70715143Y-52117476D01*
X70762762Y-52069857D01*
X70810381Y-51974619D01*
X70810381Y-51784142D01*
X70762762Y-51688904D01*
X70715143Y-51641285D01*
X70619905Y-51593666D01*
X69810381Y-51593666D01*
X70810381Y-50593666D02*
X70810381Y-51165095D01*
X70810381Y-50879381D02*
X69810381Y-50879381D01*
X69953238Y-50974619D01*
X70048476Y-51069857D01*
X70096095Y-51165095D01*
X69810381Y-50260333D02*
X69810381Y-49641285D01*
X70191333Y-49974619D01*
X70191333Y-49831761D01*
X70238952Y-49736523D01*
X70286571Y-49688904D01*
X70381810Y-49641285D01*
X70619905Y-49641285D01*
X70715143Y-49688904D01*
X70762762Y-49736523D01*
X70810381Y-49831761D01*
X70810381Y-50117476D01*
X70762762Y-50212714D01*
X70715143Y-50260333D01*
X58872381Y-40393857D02*
X58396190Y-40727191D01*
X58872381Y-40965286D02*
X57872381Y-40965286D01*
X57872381Y-40584333D01*
X57920000Y-40489095D01*
X57967619Y-40441476D01*
X58062857Y-40393857D01*
X58205714Y-40393857D01*
X58300952Y-40441476D01*
X58348571Y-40489095D01*
X58396190Y-40584333D01*
X58396190Y-40965286D01*
X58872381Y-39441476D02*
X58872381Y-40012905D01*
X58872381Y-39727191D02*
X57872381Y-39727191D01*
X58015238Y-39822429D01*
X58110476Y-39917667D01*
X58158095Y-40012905D01*
X57872381Y-39108143D02*
X57872381Y-38489095D01*
X58253333Y-38822429D01*
X58253333Y-38679571D01*
X58300952Y-38584333D01*
X58348571Y-38536714D01*
X58443810Y-38489095D01*
X58681905Y-38489095D01*
X58777143Y-38536714D01*
X58824762Y-38584333D01*
X58872381Y-38679571D01*
X58872381Y-38965286D01*
X58824762Y-39060524D01*
X58777143Y-39108143D01*
X82383381Y-68579905D02*
X83192905Y-68579905D01*
X83288143Y-68532286D01*
X83335762Y-68484667D01*
X83383381Y-68389429D01*
X83383381Y-68198952D01*
X83335762Y-68103714D01*
X83288143Y-68056095D01*
X83192905Y-68008476D01*
X82383381Y-68008476D01*
X82716714Y-67103714D02*
X83383381Y-67103714D01*
X82335762Y-67341810D02*
X83050048Y-67579905D01*
X83050048Y-66960857D01*
X83383381Y-40044666D02*
X82907190Y-40378000D01*
X83383381Y-40616095D02*
X82383381Y-40616095D01*
X82383381Y-40235142D01*
X82431000Y-40139904D01*
X82478619Y-40092285D01*
X82573857Y-40044666D01*
X82716714Y-40044666D01*
X82811952Y-40092285D01*
X82859571Y-40139904D01*
X82907190Y-40235142D01*
X82907190Y-40616095D01*
X82383381Y-39711333D02*
X82383381Y-39044666D01*
X83383381Y-39473238D01*
X102611181Y-42711666D02*
X102611181Y-43187857D01*
X101611181Y-43187857D01*
X101706419Y-42425952D02*
X101658800Y-42378333D01*
X101611181Y-42283095D01*
X101611181Y-42044999D01*
X101658800Y-41949761D01*
X101706419Y-41902142D01*
X101801657Y-41854523D01*
X101896895Y-41854523D01*
X102039752Y-41902142D01*
X102611181Y-42473571D01*
X102611181Y-41854523D01*
X50238143Y-43755666D02*
X50285762Y-43803285D01*
X50333381Y-43946142D01*
X50333381Y-44041380D01*
X50285762Y-44184238D01*
X50190524Y-44279476D01*
X50095286Y-44327095D01*
X49904810Y-44374714D01*
X49761952Y-44374714D01*
X49571476Y-44327095D01*
X49476238Y-44279476D01*
X49381000Y-44184238D01*
X49333381Y-44041380D01*
X49333381Y-43946142D01*
X49381000Y-43803285D01*
X49428619Y-43755666D01*
X50333381Y-42803285D02*
X50333381Y-43374714D01*
X50333381Y-43089000D02*
X49333381Y-43089000D01*
X49476238Y-43184238D01*
X49571476Y-43279476D01*
X49619095Y-43374714D01*
X98909143Y-70016666D02*
X98956762Y-70064285D01*
X99004381Y-70207142D01*
X99004381Y-70302380D01*
X98956762Y-70445238D01*
X98861524Y-70540476D01*
X98766286Y-70588095D01*
X98575810Y-70635714D01*
X98432952Y-70635714D01*
X98242476Y-70588095D01*
X98147238Y-70540476D01*
X98052000Y-70445238D01*
X98004381Y-70302380D01*
X98004381Y-70207142D01*
X98052000Y-70064285D01*
X98099619Y-70016666D01*
X98004381Y-69683333D02*
X98004381Y-69016666D01*
X99004381Y-69445238D01*
X41997334Y-48998143D02*
X41949715Y-49045762D01*
X41806858Y-49093381D01*
X41711620Y-49093381D01*
X41568762Y-49045762D01*
X41473524Y-48950524D01*
X41425905Y-48855286D01*
X41378286Y-48664810D01*
X41378286Y-48521952D01*
X41425905Y-48331476D01*
X41473524Y-48236238D01*
X41568762Y-48141000D01*
X41711620Y-48093381D01*
X41806858Y-48093381D01*
X41949715Y-48141000D01*
X41997334Y-48188619D01*
X42378286Y-48188619D02*
X42425905Y-48141000D01*
X42521143Y-48093381D01*
X42759239Y-48093381D01*
X42854477Y-48141000D01*
X42902096Y-48188619D01*
X42949715Y-48283857D01*
X42949715Y-48379095D01*
X42902096Y-48521952D01*
X42330667Y-49093381D01*
X42949715Y-49093381D01*
X92289334Y-36552143D02*
X92241715Y-36599762D01*
X92098858Y-36647381D01*
X92003620Y-36647381D01*
X91860762Y-36599762D01*
X91765524Y-36504524D01*
X91717905Y-36409286D01*
X91670286Y-36218810D01*
X91670286Y-36075952D01*
X91717905Y-35885476D01*
X91765524Y-35790238D01*
X91860762Y-35695000D01*
X92003620Y-35647381D01*
X92098858Y-35647381D01*
X92241715Y-35695000D01*
X92289334Y-35742619D01*
X92622667Y-35647381D02*
X93241715Y-35647381D01*
X92908381Y-36028333D01*
X93051239Y-36028333D01*
X93146477Y-36075952D01*
X93194096Y-36123571D01*
X93241715Y-36218810D01*
X93241715Y-36456905D01*
X93194096Y-36552143D01*
X93146477Y-36599762D01*
X93051239Y-36647381D01*
X92765524Y-36647381D01*
X92670286Y-36599762D01*
X92622667Y-36552143D01*
X90019143Y-48553666D02*
X90066762Y-48601285D01*
X90114381Y-48744142D01*
X90114381Y-48839380D01*
X90066762Y-48982238D01*
X89971524Y-49077476D01*
X89876286Y-49125095D01*
X89685810Y-49172714D01*
X89542952Y-49172714D01*
X89352476Y-49125095D01*
X89257238Y-49077476D01*
X89162000Y-48982238D01*
X89114381Y-48839380D01*
X89114381Y-48744142D01*
X89162000Y-48601285D01*
X89209619Y-48553666D01*
X89447714Y-47696523D02*
X90114381Y-47696523D01*
X89066762Y-47934619D02*
X89781048Y-48172714D01*
X89781048Y-47553666D01*
X90765334Y-54840143D02*
X90717715Y-54887762D01*
X90574858Y-54935381D01*
X90479620Y-54935381D01*
X90336762Y-54887762D01*
X90241524Y-54792524D01*
X90193905Y-54697286D01*
X90146286Y-54506810D01*
X90146286Y-54363952D01*
X90193905Y-54173476D01*
X90241524Y-54078238D01*
X90336762Y-53983000D01*
X90479620Y-53935381D01*
X90574858Y-53935381D01*
X90717715Y-53983000D01*
X90765334Y-54030619D01*
X91670096Y-53935381D02*
X91193905Y-53935381D01*
X91146286Y-54411571D01*
X91193905Y-54363952D01*
X91289143Y-54316333D01*
X91527239Y-54316333D01*
X91622477Y-54363952D01*
X91670096Y-54411571D01*
X91717715Y-54506810D01*
X91717715Y-54744905D01*
X91670096Y-54840143D01*
X91622477Y-54887762D01*
X91527239Y-54935381D01*
X91289143Y-54935381D01*
X91193905Y-54887762D01*
X91146286Y-54840143D01*
X93194143Y-45378666D02*
X93241762Y-45426285D01*
X93289381Y-45569142D01*
X93289381Y-45664380D01*
X93241762Y-45807238D01*
X93146524Y-45902476D01*
X93051286Y-45950095D01*
X92860810Y-45997714D01*
X92717952Y-45997714D01*
X92527476Y-45950095D01*
X92432238Y-45902476D01*
X92337000Y-45807238D01*
X92289381Y-45664380D01*
X92289381Y-45569142D01*
X92337000Y-45426285D01*
X92384619Y-45378666D01*
X92289381Y-44521523D02*
X92289381Y-44712000D01*
X92337000Y-44807238D01*
X92384619Y-44854857D01*
X92527476Y-44950095D01*
X92717952Y-44997714D01*
X93098905Y-44997714D01*
X93194143Y-44950095D01*
X93241762Y-44902476D01*
X93289381Y-44807238D01*
X93289381Y-44616761D01*
X93241762Y-44521523D01*
X93194143Y-44473904D01*
X93098905Y-44426285D01*
X92860810Y-44426285D01*
X92765571Y-44473904D01*
X92717952Y-44521523D01*
X92670333Y-44616761D01*
X92670333Y-44807238D01*
X92717952Y-44902476D01*
X92765571Y-44950095D01*
X92860810Y-44997714D01*
X107529334Y-62269643D02*
X107481715Y-62317262D01*
X107338858Y-62364881D01*
X107243620Y-62364881D01*
X107100762Y-62317262D01*
X107005524Y-62222024D01*
X106957905Y-62126786D01*
X106910286Y-61936310D01*
X106910286Y-61793452D01*
X106957905Y-61602976D01*
X107005524Y-61507738D01*
X107100762Y-61412500D01*
X107243620Y-61364881D01*
X107338858Y-61364881D01*
X107481715Y-61412500D01*
X107529334Y-61460119D01*
X108100762Y-61793452D02*
X108005524Y-61745833D01*
X107957905Y-61698214D01*
X107910286Y-61602976D01*
X107910286Y-61555357D01*
X107957905Y-61460119D01*
X108005524Y-61412500D01*
X108100762Y-61364881D01*
X108291239Y-61364881D01*
X108386477Y-61412500D01*
X108434096Y-61460119D01*
X108481715Y-61555357D01*
X108481715Y-61602976D01*
X108434096Y-61698214D01*
X108386477Y-61745833D01*
X108291239Y-61793452D01*
X108100762Y-61793452D01*
X108005524Y-61841071D01*
X107957905Y-61888690D01*
X107910286Y-61983929D01*
X107910286Y-62174405D01*
X107957905Y-62269643D01*
X108005524Y-62317262D01*
X108100762Y-62364881D01*
X108291239Y-62364881D01*
X108386477Y-62317262D01*
X108434096Y-62269643D01*
X108481715Y-62174405D01*
X108481715Y-61983929D01*
X108434096Y-61888690D01*
X108386477Y-61841071D01*
X108291239Y-61793452D01*
X102484834Y-54800143D02*
X102437215Y-54847762D01*
X102294358Y-54895381D01*
X102199120Y-54895381D01*
X102056262Y-54847762D01*
X101961024Y-54752524D01*
X101913405Y-54657286D01*
X101865786Y-54466810D01*
X101865786Y-54323952D01*
X101913405Y-54133476D01*
X101961024Y-54038238D01*
X102056262Y-53943000D01*
X102199120Y-53895381D01*
X102294358Y-53895381D01*
X102437215Y-53943000D01*
X102484834Y-53990619D01*
X102961024Y-54895381D02*
X103151500Y-54895381D01*
X103246739Y-54847762D01*
X103294358Y-54800143D01*
X103389596Y-54657286D01*
X103437215Y-54466810D01*
X103437215Y-54085857D01*
X103389596Y-53990619D01*
X103341977Y-53943000D01*
X103246739Y-53895381D01*
X103056262Y-53895381D01*
X102961024Y-53943000D01*
X102913405Y-53990619D01*
X102865786Y-54085857D01*
X102865786Y-54323952D01*
X102913405Y-54419190D01*
X102961024Y-54466810D01*
X103056262Y-54514429D01*
X103246739Y-54514429D01*
X103341977Y-54466810D01*
X103389596Y-54419190D01*
X103437215Y-54323952D01*
X98671143Y-45442143D02*
X98623524Y-45489762D01*
X98480667Y-45537381D01*
X98385429Y-45537381D01*
X98242571Y-45489762D01*
X98147333Y-45394524D01*
X98099714Y-45299286D01*
X98052095Y-45108810D01*
X98052095Y-44965952D01*
X98099714Y-44775476D01*
X98147333Y-44680238D01*
X98242571Y-44585000D01*
X98385429Y-44537381D01*
X98480667Y-44537381D01*
X98623524Y-44585000D01*
X98671143Y-44632619D01*
X99623524Y-45537381D02*
X99052095Y-45537381D01*
X99337809Y-45537381D02*
X99337809Y-44537381D01*
X99242571Y-44680238D01*
X99147333Y-44775476D01*
X99052095Y-44823095D01*
X100242571Y-44537381D02*
X100337810Y-44537381D01*
X100433048Y-44585000D01*
X100480667Y-44632619D01*
X100528286Y-44727857D01*
X100575905Y-44918333D01*
X100575905Y-45156429D01*
X100528286Y-45346905D01*
X100480667Y-45442143D01*
X100433048Y-45489762D01*
X100337810Y-45537381D01*
X100242571Y-45537381D01*
X100147333Y-45489762D01*
X100099714Y-45442143D01*
X100052095Y-45346905D01*
X100004476Y-45156429D01*
X100004476Y-44918333D01*
X100052095Y-44727857D01*
X100099714Y-44632619D01*
X100147333Y-44585000D01*
X100242571Y-44537381D01*
X96131143Y-54738543D02*
X96083524Y-54786162D01*
X95940667Y-54833781D01*
X95845429Y-54833781D01*
X95702571Y-54786162D01*
X95607333Y-54690924D01*
X95559714Y-54595686D01*
X95512095Y-54405210D01*
X95512095Y-54262352D01*
X95559714Y-54071876D01*
X95607333Y-53976638D01*
X95702571Y-53881400D01*
X95845429Y-53833781D01*
X95940667Y-53833781D01*
X96083524Y-53881400D01*
X96131143Y-53929019D01*
X97083524Y-54833781D02*
X96512095Y-54833781D01*
X96797809Y-54833781D02*
X96797809Y-53833781D01*
X96702571Y-53976638D01*
X96607333Y-54071876D01*
X96512095Y-54119495D01*
X98035905Y-54833781D02*
X97464476Y-54833781D01*
X97750190Y-54833781D02*
X97750190Y-53833781D01*
X97654952Y-53976638D01*
X97559714Y-54071876D01*
X97464476Y-54119495D01*
X104513143Y-37441143D02*
X104465524Y-37488762D01*
X104322667Y-37536381D01*
X104227429Y-37536381D01*
X104084571Y-37488762D01*
X103989333Y-37393524D01*
X103941714Y-37298286D01*
X103894095Y-37107810D01*
X103894095Y-36964952D01*
X103941714Y-36774476D01*
X103989333Y-36679238D01*
X104084571Y-36584000D01*
X104227429Y-36536381D01*
X104322667Y-36536381D01*
X104465524Y-36584000D01*
X104513143Y-36631619D01*
X105465524Y-37536381D02*
X104894095Y-37536381D01*
X105179809Y-37536381D02*
X105179809Y-36536381D01*
X105084571Y-36679238D01*
X104989333Y-36774476D01*
X104894095Y-36822095D01*
X105846476Y-36631619D02*
X105894095Y-36584000D01*
X105989333Y-36536381D01*
X106227429Y-36536381D01*
X106322667Y-36584000D01*
X106370286Y-36631619D01*
X106417905Y-36726857D01*
X106417905Y-36822095D01*
X106370286Y-36964952D01*
X105798857Y-37536381D01*
X106417905Y-37536381D01*
X127547643Y-65666857D02*
X127595262Y-65714476D01*
X127642881Y-65857333D01*
X127642881Y-65952571D01*
X127595262Y-66095429D01*
X127500024Y-66190667D01*
X127404786Y-66238286D01*
X127214310Y-66285905D01*
X127071452Y-66285905D01*
X126880976Y-66238286D01*
X126785738Y-66190667D01*
X126690500Y-66095429D01*
X126642881Y-65952571D01*
X126642881Y-65857333D01*
X126690500Y-65714476D01*
X126738119Y-65666857D01*
X127642881Y-64714476D02*
X127642881Y-65285905D01*
X127642881Y-65000191D02*
X126642881Y-65000191D01*
X126785738Y-65095429D01*
X126880976Y-65190667D01*
X126928595Y-65285905D01*
X126642881Y-64381143D02*
X126642881Y-63762095D01*
X127023833Y-64095429D01*
X127023833Y-63952571D01*
X127071452Y-63857333D01*
X127119071Y-63809714D01*
X127214310Y-63762095D01*
X127452405Y-63762095D01*
X127547643Y-63809714D01*
X127595262Y-63857333D01*
X127642881Y-63952571D01*
X127642881Y-64238286D01*
X127595262Y-64333524D01*
X127547643Y-64381143D01*
X64000143Y-53951143D02*
X63952524Y-53998762D01*
X63809667Y-54046381D01*
X63714429Y-54046381D01*
X63571571Y-53998762D01*
X63476333Y-53903524D01*
X63428714Y-53808286D01*
X63381095Y-53617810D01*
X63381095Y-53474952D01*
X63428714Y-53284476D01*
X63476333Y-53189238D01*
X63571571Y-53094000D01*
X63714429Y-53046381D01*
X63809667Y-53046381D01*
X63952524Y-53094000D01*
X64000143Y-53141619D01*
X64952524Y-54046381D02*
X64381095Y-54046381D01*
X64666809Y-54046381D02*
X64666809Y-53046381D01*
X64571571Y-53189238D01*
X64476333Y-53284476D01*
X64381095Y-53332095D01*
X65809667Y-53379714D02*
X65809667Y-54046381D01*
X65571571Y-52998762D02*
X65333476Y-53713048D01*
X65952524Y-53713048D01*
X70969143Y-40266857D02*
X71016762Y-40314476D01*
X71064381Y-40457333D01*
X71064381Y-40552571D01*
X71016762Y-40695429D01*
X70921524Y-40790667D01*
X70826286Y-40838286D01*
X70635810Y-40885905D01*
X70492952Y-40885905D01*
X70302476Y-40838286D01*
X70207238Y-40790667D01*
X70112000Y-40695429D01*
X70064381Y-40552571D01*
X70064381Y-40457333D01*
X70112000Y-40314476D01*
X70159619Y-40266857D01*
X71064381Y-39314476D02*
X71064381Y-39885905D01*
X71064381Y-39600191D02*
X70064381Y-39600191D01*
X70207238Y-39695429D01*
X70302476Y-39790667D01*
X70350095Y-39885905D01*
X70064381Y-38409714D02*
X70064381Y-38885905D01*
X70540571Y-38933524D01*
X70492952Y-38885905D01*
X70445333Y-38790667D01*
X70445333Y-38552571D01*
X70492952Y-38457333D01*
X70540571Y-38409714D01*
X70635810Y-38362095D01*
X70873905Y-38362095D01*
X70969143Y-38409714D01*
X71016762Y-38457333D01*
X71064381Y-38552571D01*
X71064381Y-38790667D01*
X71016762Y-38885905D01*
X70969143Y-38933524D01*
X57396143Y-34012143D02*
X57348524Y-34059762D01*
X57205667Y-34107381D01*
X57110429Y-34107381D01*
X56967571Y-34059762D01*
X56872333Y-33964524D01*
X56824714Y-33869286D01*
X56777095Y-33678810D01*
X56777095Y-33535952D01*
X56824714Y-33345476D01*
X56872333Y-33250238D01*
X56967571Y-33155000D01*
X57110429Y-33107381D01*
X57205667Y-33107381D01*
X57348524Y-33155000D01*
X57396143Y-33202619D01*
X58348524Y-34107381D02*
X57777095Y-34107381D01*
X58062809Y-34107381D02*
X58062809Y-33107381D01*
X57967571Y-33250238D01*
X57872333Y-33345476D01*
X57777095Y-33393095D01*
X59205667Y-33107381D02*
X59015190Y-33107381D01*
X58919952Y-33155000D01*
X58872333Y-33202619D01*
X58777095Y-33345476D01*
X58729476Y-33535952D01*
X58729476Y-33916905D01*
X58777095Y-34012143D01*
X58824714Y-34059762D01*
X58919952Y-34107381D01*
X59110429Y-34107381D01*
X59205667Y-34059762D01*
X59253286Y-34012143D01*
X59300905Y-33916905D01*
X59300905Y-33678810D01*
X59253286Y-33583571D01*
X59205667Y-33535952D01*
X59110429Y-33488333D01*
X58919952Y-33488333D01*
X58824714Y-33535952D01*
X58777095Y-33583571D01*
X58729476Y-33678810D01*
X90050881Y-42711666D02*
X90050881Y-43187857D01*
X89050881Y-43187857D01*
X90050881Y-41854523D02*
X90050881Y-42425952D01*
X90050881Y-42140238D02*
X89050881Y-42140238D01*
X89193738Y-42235476D01*
X89288976Y-42330714D01*
X89336595Y-42425952D01*
X96908881Y-51474666D02*
X96908881Y-51950857D01*
X95908881Y-51950857D01*
X95908881Y-51236571D02*
X95908881Y-50617523D01*
X96289833Y-50950857D01*
X96289833Y-50807999D01*
X96337452Y-50712761D01*
X96385071Y-50665142D01*
X96480310Y-50617523D01*
X96718405Y-50617523D01*
X96813643Y-50665142D01*
X96861262Y-50712761D01*
X96908881Y-50807999D01*
X96908881Y-51093714D01*
X96861262Y-51188952D01*
X96813643Y-51236571D01*
X40854334Y-32786581D02*
X40521000Y-32310390D01*
X40282905Y-32786581D02*
X40282905Y-31786581D01*
X40663858Y-31786581D01*
X40759096Y-31834200D01*
X40806715Y-31881819D01*
X40854334Y-31977057D01*
X40854334Y-32119914D01*
X40806715Y-32215152D01*
X40759096Y-32262771D01*
X40663858Y-32310390D01*
X40282905Y-32310390D01*
X41806715Y-32786581D02*
X41235286Y-32786581D01*
X41521000Y-32786581D02*
X41521000Y-31786581D01*
X41425762Y-31929438D01*
X41330524Y-32024676D01*
X41235286Y-32072295D01*
X93305334Y-51760381D02*
X92972000Y-51284190D01*
X92733905Y-51760381D02*
X92733905Y-50760381D01*
X93114858Y-50760381D01*
X93210096Y-50808000D01*
X93257715Y-50855619D01*
X93305334Y-50950857D01*
X93305334Y-51093714D01*
X93257715Y-51188952D01*
X93210096Y-51236571D01*
X93114858Y-51284190D01*
X92733905Y-51284190D01*
X93638667Y-50760381D02*
X94257715Y-50760381D01*
X93924381Y-51141333D01*
X94067239Y-51141333D01*
X94162477Y-51188952D01*
X94210096Y-51236571D01*
X94257715Y-51331810D01*
X94257715Y-51569905D01*
X94210096Y-51665143D01*
X94162477Y-51712762D01*
X94067239Y-51760381D01*
X93781524Y-51760381D01*
X93686286Y-51712762D01*
X93638667Y-51665143D01*
X49761381Y-55284666D02*
X49285190Y-55618000D01*
X49761381Y-55856095D02*
X48761381Y-55856095D01*
X48761381Y-55475142D01*
X48809000Y-55379904D01*
X48856619Y-55332285D01*
X48951857Y-55284666D01*
X49094714Y-55284666D01*
X49189952Y-55332285D01*
X49237571Y-55379904D01*
X49285190Y-55475142D01*
X49285190Y-55856095D01*
X49094714Y-54427523D02*
X49761381Y-54427523D01*
X48713762Y-54665619D02*
X49428048Y-54903714D01*
X49428048Y-54284666D01*
X65222381Y-48172666D02*
X64746190Y-48506000D01*
X65222381Y-48744095D02*
X64222381Y-48744095D01*
X64222381Y-48363142D01*
X64270000Y-48267904D01*
X64317619Y-48220285D01*
X64412857Y-48172666D01*
X64555714Y-48172666D01*
X64650952Y-48220285D01*
X64698571Y-48267904D01*
X64746190Y-48363142D01*
X64746190Y-48744095D01*
X64222381Y-47267904D02*
X64222381Y-47744095D01*
X64698571Y-47791714D01*
X64650952Y-47744095D01*
X64603333Y-47648857D01*
X64603333Y-47410761D01*
X64650952Y-47315523D01*
X64698571Y-47267904D01*
X64793810Y-47220285D01*
X65031905Y-47220285D01*
X65127143Y-47267904D01*
X65174762Y-47315523D01*
X65222381Y-47410761D01*
X65222381Y-47648857D01*
X65174762Y-47744095D01*
X65127143Y-47791714D01*
X55697381Y-48045666D02*
X55221190Y-48379000D01*
X55697381Y-48617095D02*
X54697381Y-48617095D01*
X54697381Y-48236142D01*
X54745000Y-48140904D01*
X54792619Y-48093285D01*
X54887857Y-48045666D01*
X55030714Y-48045666D01*
X55125952Y-48093285D01*
X55173571Y-48140904D01*
X55221190Y-48236142D01*
X55221190Y-48617095D01*
X54697381Y-47188523D02*
X54697381Y-47379000D01*
X54745000Y-47474238D01*
X54792619Y-47521857D01*
X54935476Y-47617095D01*
X55125952Y-47664714D01*
X55506905Y-47664714D01*
X55602143Y-47617095D01*
X55649762Y-47569476D01*
X55697381Y-47474238D01*
X55697381Y-47283761D01*
X55649762Y-47188523D01*
X55602143Y-47140904D01*
X55506905Y-47093285D01*
X55268810Y-47093285D01*
X55173571Y-47140904D01*
X55125952Y-47188523D01*
X55078333Y-47283761D01*
X55078333Y-47474238D01*
X55125952Y-47569476D01*
X55173571Y-47617095D01*
X55268810Y-47664714D01*
X58872381Y-53760666D02*
X58396190Y-54094000D01*
X58872381Y-54332095D02*
X57872381Y-54332095D01*
X57872381Y-53951142D01*
X57920000Y-53855904D01*
X57967619Y-53808285D01*
X58062857Y-53760666D01*
X58205714Y-53760666D01*
X58300952Y-53808285D01*
X58348571Y-53855904D01*
X58396190Y-53951142D01*
X58396190Y-54332095D01*
X58300952Y-53189238D02*
X58253333Y-53284476D01*
X58205714Y-53332095D01*
X58110476Y-53379714D01*
X58062857Y-53379714D01*
X57967619Y-53332095D01*
X57920000Y-53284476D01*
X57872381Y-53189238D01*
X57872381Y-52998761D01*
X57920000Y-52903523D01*
X57967619Y-52855904D01*
X58062857Y-52808285D01*
X58110476Y-52808285D01*
X58205714Y-52855904D01*
X58253333Y-52903523D01*
X58300952Y-52998761D01*
X58300952Y-53189238D01*
X58348571Y-53284476D01*
X58396190Y-53332095D01*
X58491429Y-53379714D01*
X58681905Y-53379714D01*
X58777143Y-53332095D01*
X58824762Y-53284476D01*
X58872381Y-53189238D01*
X58872381Y-52998761D01*
X58824762Y-52903523D01*
X58777143Y-52855904D01*
X58681905Y-52808285D01*
X58491429Y-52808285D01*
X58396190Y-52855904D01*
X58348571Y-52903523D01*
X58300952Y-52998761D01*
X58872381Y-48045666D02*
X58396190Y-48379000D01*
X58872381Y-48617095D02*
X57872381Y-48617095D01*
X57872381Y-48236142D01*
X57920000Y-48140904D01*
X57967619Y-48093285D01*
X58062857Y-48045666D01*
X58205714Y-48045666D01*
X58300952Y-48093285D01*
X58348571Y-48140904D01*
X58396190Y-48236142D01*
X58396190Y-48617095D01*
X58872381Y-47569476D02*
X58872381Y-47379000D01*
X58824762Y-47283761D01*
X58777143Y-47236142D01*
X58634286Y-47140904D01*
X58443810Y-47093285D01*
X58062857Y-47093285D01*
X57967619Y-47140904D01*
X57920000Y-47188523D01*
X57872381Y-47283761D01*
X57872381Y-47474238D01*
X57920000Y-47569476D01*
X57967619Y-47617095D01*
X58062857Y-47664714D01*
X58300952Y-47664714D01*
X58396190Y-47617095D01*
X58443810Y-47569476D01*
X58491429Y-47474238D01*
X58491429Y-47283761D01*
X58443810Y-47188523D01*
X58396190Y-47140904D01*
X58300952Y-47093285D01*
X63873143Y-34107381D02*
X63539809Y-33631190D01*
X63301714Y-34107381D02*
X63301714Y-33107381D01*
X63682667Y-33107381D01*
X63777905Y-33155000D01*
X63825524Y-33202619D01*
X63873143Y-33297857D01*
X63873143Y-33440714D01*
X63825524Y-33535952D01*
X63777905Y-33583571D01*
X63682667Y-33631190D01*
X63301714Y-33631190D01*
X64825524Y-34107381D02*
X64254095Y-34107381D01*
X64539809Y-34107381D02*
X64539809Y-33107381D01*
X64444571Y-33250238D01*
X64349333Y-33345476D01*
X64254095Y-33393095D01*
X65444571Y-33107381D02*
X65539810Y-33107381D01*
X65635048Y-33155000D01*
X65682667Y-33202619D01*
X65730286Y-33297857D01*
X65777905Y-33488333D01*
X65777905Y-33726429D01*
X65730286Y-33916905D01*
X65682667Y-34012143D01*
X65635048Y-34059762D01*
X65539810Y-34107381D01*
X65444571Y-34107381D01*
X65349333Y-34059762D01*
X65301714Y-34012143D01*
X65254095Y-33916905D01*
X65206476Y-33726429D01*
X65206476Y-33488333D01*
X65254095Y-33297857D01*
X65301714Y-33202619D01*
X65349333Y-33155000D01*
X65444571Y-33107381D01*
X62047381Y-40393857D02*
X61571190Y-40727191D01*
X62047381Y-40965286D02*
X61047381Y-40965286D01*
X61047381Y-40584333D01*
X61095000Y-40489095D01*
X61142619Y-40441476D01*
X61237857Y-40393857D01*
X61380714Y-40393857D01*
X61475952Y-40441476D01*
X61523571Y-40489095D01*
X61571190Y-40584333D01*
X61571190Y-40965286D01*
X62047381Y-39441476D02*
X62047381Y-40012905D01*
X62047381Y-39727191D02*
X61047381Y-39727191D01*
X61190238Y-39822429D01*
X61285476Y-39917667D01*
X61333095Y-40012905D01*
X62047381Y-38489095D02*
X62047381Y-39060524D01*
X62047381Y-38774810D02*
X61047381Y-38774810D01*
X61190238Y-38870048D01*
X61285476Y-38965286D01*
X61333095Y-39060524D01*
X64000143Y-51379381D02*
X63666809Y-50903190D01*
X63428714Y-51379381D02*
X63428714Y-50379381D01*
X63809667Y-50379381D01*
X63904905Y-50427000D01*
X63952524Y-50474619D01*
X64000143Y-50569857D01*
X64000143Y-50712714D01*
X63952524Y-50807952D01*
X63904905Y-50855571D01*
X63809667Y-50903190D01*
X63428714Y-50903190D01*
X64952524Y-51379381D02*
X64381095Y-51379381D01*
X64666809Y-51379381D02*
X64666809Y-50379381D01*
X64571571Y-50522238D01*
X64476333Y-50617476D01*
X64381095Y-50665095D01*
X65333476Y-50474619D02*
X65381095Y-50427000D01*
X65476333Y-50379381D01*
X65714429Y-50379381D01*
X65809667Y-50427000D01*
X65857286Y-50474619D01*
X65904905Y-50569857D01*
X65904905Y-50665095D01*
X65857286Y-50807952D01*
X65285857Y-51379381D01*
X65904905Y-51379381D01*
X55697381Y-40393857D02*
X55221190Y-40727191D01*
X55697381Y-40965286D02*
X54697381Y-40965286D01*
X54697381Y-40584333D01*
X54745000Y-40489095D01*
X54792619Y-40441476D01*
X54887857Y-40393857D01*
X55030714Y-40393857D01*
X55125952Y-40441476D01*
X55173571Y-40489095D01*
X55221190Y-40584333D01*
X55221190Y-40965286D01*
X55697381Y-39441476D02*
X55697381Y-40012905D01*
X55697381Y-39727191D02*
X54697381Y-39727191D01*
X54840238Y-39822429D01*
X54935476Y-39917667D01*
X54983095Y-40012905D01*
X55030714Y-38584333D02*
X55697381Y-38584333D01*
X54649762Y-38822429D02*
X55364048Y-39060524D01*
X55364048Y-38441476D01*
X66667143Y-37155381D02*
X66333809Y-36679190D01*
X66095714Y-37155381D02*
X66095714Y-36155381D01*
X66476667Y-36155381D01*
X66571905Y-36203000D01*
X66619524Y-36250619D01*
X66667143Y-36345857D01*
X66667143Y-36488714D01*
X66619524Y-36583952D01*
X66571905Y-36631571D01*
X66476667Y-36679190D01*
X66095714Y-36679190D01*
X67619524Y-37155381D02*
X67048095Y-37155381D01*
X67333809Y-37155381D02*
X67333809Y-36155381D01*
X67238571Y-36298238D01*
X67143333Y-36393476D01*
X67048095Y-36441095D01*
X68524286Y-36155381D02*
X68048095Y-36155381D01*
X68000476Y-36631571D01*
X68048095Y-36583952D01*
X68143333Y-36536333D01*
X68381429Y-36536333D01*
X68476667Y-36583952D01*
X68524286Y-36631571D01*
X68571905Y-36726810D01*
X68571905Y-36964905D01*
X68524286Y-37060143D01*
X68476667Y-37107762D01*
X68381429Y-37155381D01*
X68143333Y-37155381D01*
X68048095Y-37107762D01*
X68000476Y-37060143D01*
X70096143Y-34107381D02*
X69762809Y-33631190D01*
X69524714Y-34107381D02*
X69524714Y-33107381D01*
X69905667Y-33107381D01*
X70000905Y-33155000D01*
X70048524Y-33202619D01*
X70096143Y-33297857D01*
X70096143Y-33440714D01*
X70048524Y-33535952D01*
X70000905Y-33583571D01*
X69905667Y-33631190D01*
X69524714Y-33631190D01*
X71048524Y-34107381D02*
X70477095Y-34107381D01*
X70762809Y-34107381D02*
X70762809Y-33107381D01*
X70667571Y-33250238D01*
X70572333Y-33345476D01*
X70477095Y-33393095D01*
X71905667Y-33107381D02*
X71715190Y-33107381D01*
X71619952Y-33155000D01*
X71572333Y-33202619D01*
X71477095Y-33345476D01*
X71429476Y-33535952D01*
X71429476Y-33916905D01*
X71477095Y-34012143D01*
X71524714Y-34059762D01*
X71619952Y-34107381D01*
X71810429Y-34107381D01*
X71905667Y-34059762D01*
X71953286Y-34012143D01*
X72000905Y-33916905D01*
X72000905Y-33678810D01*
X71953286Y-33583571D01*
X71905667Y-33535952D01*
X71810429Y-33488333D01*
X71619952Y-33488333D01*
X71524714Y-33535952D01*
X71477095Y-33583571D01*
X71429476Y-33678810D01*
X74239381Y-40266857D02*
X73763190Y-40600191D01*
X74239381Y-40838286D02*
X73239381Y-40838286D01*
X73239381Y-40457333D01*
X73287000Y-40362095D01*
X73334619Y-40314476D01*
X73429857Y-40266857D01*
X73572714Y-40266857D01*
X73667952Y-40314476D01*
X73715571Y-40362095D01*
X73763190Y-40457333D01*
X73763190Y-40838286D01*
X74239381Y-39314476D02*
X74239381Y-39885905D01*
X74239381Y-39600191D02*
X73239381Y-39600191D01*
X73382238Y-39695429D01*
X73477476Y-39790667D01*
X73525095Y-39885905D01*
X73239381Y-38981143D02*
X73239381Y-38314476D01*
X74239381Y-38743048D01*
X78148143Y-33591381D02*
X77814809Y-33115190D01*
X77576714Y-33591381D02*
X77576714Y-32591381D01*
X77957667Y-32591381D01*
X78052905Y-32639000D01*
X78100524Y-32686619D01*
X78148143Y-32781857D01*
X78148143Y-32924714D01*
X78100524Y-33019952D01*
X78052905Y-33067571D01*
X77957667Y-33115190D01*
X77576714Y-33115190D01*
X79100524Y-33591381D02*
X78529095Y-33591381D01*
X78814809Y-33591381D02*
X78814809Y-32591381D01*
X78719571Y-32734238D01*
X78624333Y-32829476D01*
X78529095Y-32877095D01*
X79671952Y-33019952D02*
X79576714Y-32972333D01*
X79529095Y-32924714D01*
X79481476Y-32829476D01*
X79481476Y-32781857D01*
X79529095Y-32686619D01*
X79576714Y-32639000D01*
X79671952Y-32591381D01*
X79862429Y-32591381D01*
X79957667Y-32639000D01*
X80005286Y-32686619D01*
X80052905Y-32781857D01*
X80052905Y-32829476D01*
X80005286Y-32924714D01*
X79957667Y-32972333D01*
X79862429Y-33019952D01*
X79671952Y-33019952D01*
X79576714Y-33067571D01*
X79529095Y-33115190D01*
X79481476Y-33210429D01*
X79481476Y-33400905D01*
X79529095Y-33496143D01*
X79576714Y-33543762D01*
X79671952Y-33591381D01*
X79862429Y-33591381D01*
X79957667Y-33543762D01*
X80005286Y-33496143D01*
X80052905Y-33400905D01*
X80052905Y-33210429D01*
X80005286Y-33115190D01*
X79957667Y-33067571D01*
X79862429Y-33019952D01*
X102997095Y-65111381D02*
X102997095Y-65920905D01*
X103044714Y-66016143D01*
X103092333Y-66063762D01*
X103187571Y-66111381D01*
X103378048Y-66111381D01*
X103473286Y-66063762D01*
X103520905Y-66016143D01*
X103568524Y-65920905D01*
X103568524Y-65111381D01*
X104473286Y-65111381D02*
X104282809Y-65111381D01*
X104187571Y-65159000D01*
X104139952Y-65206619D01*
X104044714Y-65349476D01*
X103997095Y-65539952D01*
X103997095Y-65920905D01*
X104044714Y-66016143D01*
X104092333Y-66063762D01*
X104187571Y-66111381D01*
X104378048Y-66111381D01*
X104473286Y-66063762D01*
X104520905Y-66016143D01*
X104568524Y-65920905D01*
X104568524Y-65682810D01*
X104520905Y-65587571D01*
X104473286Y-65539952D01*
X104378048Y-65492333D01*
X104187571Y-65492333D01*
X104092333Y-65539952D01*
X104044714Y-65587571D01*
X103997095Y-65682810D01*
X118705381Y-63880905D02*
X119514905Y-63880905D01*
X119610143Y-63833286D01*
X119657762Y-63785667D01*
X119705381Y-63690429D01*
X119705381Y-63499952D01*
X119657762Y-63404714D01*
X119610143Y-63357095D01*
X119514905Y-63309476D01*
X118705381Y-63309476D01*
X119133952Y-62690429D02*
X119086333Y-62785667D01*
X119038714Y-62833286D01*
X118943476Y-62880905D01*
X118895857Y-62880905D01*
X118800619Y-62833286D01*
X118753000Y-62785667D01*
X118705381Y-62690429D01*
X118705381Y-62499952D01*
X118753000Y-62404714D01*
X118800619Y-62357095D01*
X118895857Y-62309476D01*
X118943476Y-62309476D01*
X119038714Y-62357095D01*
X119086333Y-62404714D01*
X119133952Y-62499952D01*
X119133952Y-62690429D01*
X119181571Y-62785667D01*
X119229190Y-62833286D01*
X119324429Y-62880905D01*
X119514905Y-62880905D01*
X119610143Y-62833286D01*
X119657762Y-62785667D01*
X119705381Y-62690429D01*
X119705381Y-62499952D01*
X119657762Y-62404714D01*
X119610143Y-62357095D01*
X119514905Y-62309476D01*
X119324429Y-62309476D01*
X119229190Y-62357095D01*
X119181571Y-62404714D01*
X119133952Y-62499952D01*
X49597905Y-46109381D02*
X49597905Y-46918905D01*
X49645524Y-47014143D01*
X49693143Y-47061762D01*
X49788381Y-47109381D01*
X49978858Y-47109381D01*
X50074096Y-47061762D01*
X50121715Y-47014143D01*
X50169334Y-46918905D01*
X50169334Y-46109381D01*
X51169334Y-47109381D02*
X50597905Y-47109381D01*
X50883619Y-47109381D02*
X50883619Y-46109381D01*
X50788381Y-46252238D01*
X50693143Y-46347476D01*
X50597905Y-46395095D01*
X51550286Y-46204619D02*
X51597905Y-46157000D01*
X51693143Y-46109381D01*
X51931239Y-46109381D01*
X52026477Y-46157000D01*
X52074096Y-46204619D01*
X52121715Y-46299857D01*
X52121715Y-46395095D01*
X52074096Y-46537952D01*
X51502667Y-47109381D01*
X52121715Y-47109381D01*
X39482734Y-45892981D02*
X39149400Y-45416790D01*
X38911305Y-45892981D02*
X38911305Y-44892981D01*
X39292258Y-44892981D01*
X39387496Y-44940600D01*
X39435115Y-44988219D01*
X39482734Y-45083457D01*
X39482734Y-45226314D01*
X39435115Y-45321552D01*
X39387496Y-45369171D01*
X39292258Y-45416790D01*
X38911305Y-45416790D01*
X39863686Y-44988219D02*
X39911305Y-44940600D01*
X40006543Y-44892981D01*
X40244639Y-44892981D01*
X40339877Y-44940600D01*
X40387496Y-44988219D01*
X40435115Y-45083457D01*
X40435115Y-45178695D01*
X40387496Y-45321552D01*
X39816067Y-45892981D01*
X40435115Y-45892981D01*
X111228143Y-40520857D02*
X111275762Y-40568476D01*
X111323381Y-40711333D01*
X111323381Y-40806571D01*
X111275762Y-40949429D01*
X111180524Y-41044667D01*
X111085286Y-41092286D01*
X110894810Y-41139905D01*
X110751952Y-41139905D01*
X110561476Y-41092286D01*
X110466238Y-41044667D01*
X110371000Y-40949429D01*
X110323381Y-40806571D01*
X110323381Y-40711333D01*
X110371000Y-40568476D01*
X110418619Y-40520857D01*
X111323381Y-39568476D02*
X111323381Y-40139905D01*
X111323381Y-39854191D02*
X110323381Y-39854191D01*
X110466238Y-39949429D01*
X110561476Y-40044667D01*
X110609095Y-40139905D01*
X110323381Y-39235143D02*
X110323381Y-38568476D01*
X111323381Y-38997048D01*
X107926143Y-49029857D02*
X107973762Y-49077476D01*
X108021381Y-49220333D01*
X108021381Y-49315571D01*
X107973762Y-49458429D01*
X107878524Y-49553667D01*
X107783286Y-49601286D01*
X107592810Y-49648905D01*
X107449952Y-49648905D01*
X107259476Y-49601286D01*
X107164238Y-49553667D01*
X107069000Y-49458429D01*
X107021381Y-49315571D01*
X107021381Y-49220333D01*
X107069000Y-49077476D01*
X107116619Y-49029857D01*
X108021381Y-48077476D02*
X108021381Y-48648905D01*
X108021381Y-48363191D02*
X107021381Y-48363191D01*
X107164238Y-48458429D01*
X107259476Y-48553667D01*
X107307095Y-48648905D01*
X107449952Y-47506048D02*
X107402333Y-47601286D01*
X107354714Y-47648905D01*
X107259476Y-47696524D01*
X107211857Y-47696524D01*
X107116619Y-47648905D01*
X107069000Y-47601286D01*
X107021381Y-47506048D01*
X107021381Y-47315571D01*
X107069000Y-47220333D01*
X107116619Y-47172714D01*
X107211857Y-47125095D01*
X107259476Y-47125095D01*
X107354714Y-47172714D01*
X107402333Y-47220333D01*
X107449952Y-47315571D01*
X107449952Y-47506048D01*
X107497571Y-47601286D01*
X107545190Y-47648905D01*
X107640429Y-47696524D01*
X107830905Y-47696524D01*
X107926143Y-47648905D01*
X107973762Y-47601286D01*
X108021381Y-47506048D01*
X108021381Y-47315571D01*
X107973762Y-47220333D01*
X107926143Y-47172714D01*
X107830905Y-47125095D01*
X107640429Y-47125095D01*
X107545190Y-47172714D01*
X107497571Y-47220333D01*
X107449952Y-47315571D01*
X108069143Y-54840143D02*
X108021524Y-54887762D01*
X107878667Y-54935381D01*
X107783429Y-54935381D01*
X107640571Y-54887762D01*
X107545333Y-54792524D01*
X107497714Y-54697286D01*
X107450095Y-54506810D01*
X107450095Y-54363952D01*
X107497714Y-54173476D01*
X107545333Y-54078238D01*
X107640571Y-53983000D01*
X107783429Y-53935381D01*
X107878667Y-53935381D01*
X108021524Y-53983000D01*
X108069143Y-54030619D01*
X109021524Y-54935381D02*
X108450095Y-54935381D01*
X108735809Y-54935381D02*
X108735809Y-53935381D01*
X108640571Y-54078238D01*
X108545333Y-54173476D01*
X108450095Y-54221095D01*
X109497714Y-54935381D02*
X109688190Y-54935381D01*
X109783429Y-54887762D01*
X109831048Y-54840143D01*
X109926286Y-54697286D01*
X109973905Y-54506810D01*
X109973905Y-54125857D01*
X109926286Y-54030619D01*
X109878667Y-53983000D01*
X109783429Y-53935381D01*
X109592952Y-53935381D01*
X109497714Y-53983000D01*
X109450095Y-54030619D01*
X109402476Y-54125857D01*
X109402476Y-54363952D01*
X109450095Y-54459190D01*
X109497714Y-54506810D01*
X109592952Y-54554429D01*
X109783429Y-54554429D01*
X109878667Y-54506810D01*
X109926286Y-54459190D01*
X109973905Y-54363952D01*
X111228143Y-45854857D02*
X111275762Y-45902476D01*
X111323381Y-46045333D01*
X111323381Y-46140571D01*
X111275762Y-46283429D01*
X111180524Y-46378667D01*
X111085286Y-46426286D01*
X110894810Y-46473905D01*
X110751952Y-46473905D01*
X110561476Y-46426286D01*
X110466238Y-46378667D01*
X110371000Y-46283429D01*
X110323381Y-46140571D01*
X110323381Y-46045333D01*
X110371000Y-45902476D01*
X110418619Y-45854857D01*
X110418619Y-45473905D02*
X110371000Y-45426286D01*
X110323381Y-45331048D01*
X110323381Y-45092952D01*
X110371000Y-44997714D01*
X110418619Y-44950095D01*
X110513857Y-44902476D01*
X110609095Y-44902476D01*
X110751952Y-44950095D01*
X111323381Y-45521524D01*
X111323381Y-44902476D01*
X110323381Y-44283429D02*
X110323381Y-44188190D01*
X110371000Y-44092952D01*
X110418619Y-44045333D01*
X110513857Y-43997714D01*
X110704333Y-43950095D01*
X110942429Y-43950095D01*
X111132905Y-43997714D01*
X111228143Y-44045333D01*
X111275762Y-44092952D01*
X111323381Y-44188190D01*
X111323381Y-44283429D01*
X111275762Y-44378667D01*
X111228143Y-44426286D01*
X111132905Y-44473905D01*
X110942429Y-44521524D01*
X110704333Y-44521524D01*
X110513857Y-44473905D01*
X110418619Y-44426286D01*
X110371000Y-44378667D01*
X110323381Y-44283429D01*
X119816643Y-54840143D02*
X119769024Y-54887762D01*
X119626167Y-54935381D01*
X119530929Y-54935381D01*
X119388071Y-54887762D01*
X119292833Y-54792524D01*
X119245214Y-54697286D01*
X119197595Y-54506810D01*
X119197595Y-54363952D01*
X119245214Y-54173476D01*
X119292833Y-54078238D01*
X119388071Y-53983000D01*
X119530929Y-53935381D01*
X119626167Y-53935381D01*
X119769024Y-53983000D01*
X119816643Y-54030619D01*
X120197595Y-54030619D02*
X120245214Y-53983000D01*
X120340452Y-53935381D01*
X120578548Y-53935381D01*
X120673786Y-53983000D01*
X120721405Y-54030619D01*
X120769024Y-54125857D01*
X120769024Y-54221095D01*
X120721405Y-54363952D01*
X120149976Y-54935381D01*
X120769024Y-54935381D01*
X121721405Y-54935381D02*
X121149976Y-54935381D01*
X121435690Y-54935381D02*
X121435690Y-53935381D01*
X121340452Y-54078238D01*
X121245214Y-54173476D01*
X121149976Y-54221095D01*
X116451143Y-45442143D02*
X116403524Y-45489762D01*
X116260667Y-45537381D01*
X116165429Y-45537381D01*
X116022571Y-45489762D01*
X115927333Y-45394524D01*
X115879714Y-45299286D01*
X115832095Y-45108810D01*
X115832095Y-44965952D01*
X115879714Y-44775476D01*
X115927333Y-44680238D01*
X116022571Y-44585000D01*
X116165429Y-44537381D01*
X116260667Y-44537381D01*
X116403524Y-44585000D01*
X116451143Y-44632619D01*
X116832095Y-44632619D02*
X116879714Y-44585000D01*
X116974952Y-44537381D01*
X117213048Y-44537381D01*
X117308286Y-44585000D01*
X117355905Y-44632619D01*
X117403524Y-44727857D01*
X117403524Y-44823095D01*
X117355905Y-44965952D01*
X116784476Y-45537381D01*
X117403524Y-45537381D01*
X117784476Y-44632619D02*
X117832095Y-44585000D01*
X117927333Y-44537381D01*
X118165429Y-44537381D01*
X118260667Y-44585000D01*
X118308286Y-44632619D01*
X118355905Y-44727857D01*
X118355905Y-44823095D01*
X118308286Y-44965952D01*
X117736857Y-45537381D01*
X118355905Y-45537381D01*
X113911143Y-54840143D02*
X113863524Y-54887762D01*
X113720667Y-54935381D01*
X113625429Y-54935381D01*
X113482571Y-54887762D01*
X113387333Y-54792524D01*
X113339714Y-54697286D01*
X113292095Y-54506810D01*
X113292095Y-54363952D01*
X113339714Y-54173476D01*
X113387333Y-54078238D01*
X113482571Y-53983000D01*
X113625429Y-53935381D01*
X113720667Y-53935381D01*
X113863524Y-53983000D01*
X113911143Y-54030619D01*
X114292095Y-54030619D02*
X114339714Y-53983000D01*
X114434952Y-53935381D01*
X114673048Y-53935381D01*
X114768286Y-53983000D01*
X114815905Y-54030619D01*
X114863524Y-54125857D01*
X114863524Y-54221095D01*
X114815905Y-54363952D01*
X114244476Y-54935381D01*
X114863524Y-54935381D01*
X115196857Y-53935381D02*
X115815905Y-53935381D01*
X115482571Y-54316333D01*
X115625429Y-54316333D01*
X115720667Y-54363952D01*
X115768286Y-54411571D01*
X115815905Y-54506810D01*
X115815905Y-54744905D01*
X115768286Y-54840143D01*
X115720667Y-54887762D01*
X115625429Y-54935381D01*
X115339714Y-54935381D01*
X115244476Y-54887762D01*
X115196857Y-54840143D01*
X123928143Y-43187857D02*
X123975762Y-43235476D01*
X124023381Y-43378333D01*
X124023381Y-43473571D01*
X123975762Y-43616429D01*
X123880524Y-43711667D01*
X123785286Y-43759286D01*
X123594810Y-43806905D01*
X123451952Y-43806905D01*
X123261476Y-43759286D01*
X123166238Y-43711667D01*
X123071000Y-43616429D01*
X123023381Y-43473571D01*
X123023381Y-43378333D01*
X123071000Y-43235476D01*
X123118619Y-43187857D01*
X123118619Y-42806905D02*
X123071000Y-42759286D01*
X123023381Y-42664048D01*
X123023381Y-42425952D01*
X123071000Y-42330714D01*
X123118619Y-42283095D01*
X123213857Y-42235476D01*
X123309095Y-42235476D01*
X123451952Y-42283095D01*
X124023381Y-42854524D01*
X124023381Y-42235476D01*
X123356714Y-41378333D02*
X124023381Y-41378333D01*
X122975762Y-41616429D02*
X123690048Y-41854524D01*
X123690048Y-41235476D01*
X108021381Y-42711666D02*
X108021381Y-43187857D01*
X107021381Y-43187857D01*
X107354714Y-41949761D02*
X108021381Y-41949761D01*
X106973762Y-42187857D02*
X107688048Y-42425952D01*
X107688048Y-41806904D01*
X120467381Y-42711666D02*
X120467381Y-43187857D01*
X119467381Y-43187857D01*
X119467381Y-41902142D02*
X119467381Y-42378333D01*
X119943571Y-42425952D01*
X119895952Y-42378333D01*
X119848333Y-42283095D01*
X119848333Y-42044999D01*
X119895952Y-41949761D01*
X119943571Y-41902142D01*
X120038810Y-41854523D01*
X120276905Y-41854523D01*
X120372143Y-41902142D01*
X120419762Y-41949761D01*
X120467381Y-42044999D01*
X120467381Y-42283095D01*
X120419762Y-42378333D01*
X120372143Y-42425952D01*
X114752381Y-51474666D02*
X114752381Y-51950857D01*
X113752381Y-51950857D01*
X113752381Y-50712761D02*
X113752381Y-50903238D01*
X113800000Y-50998476D01*
X113847619Y-51046095D01*
X113990476Y-51141333D01*
X114180952Y-51188952D01*
X114561905Y-51188952D01*
X114657143Y-51141333D01*
X114704762Y-51093714D01*
X114752381Y-50998476D01*
X114752381Y-50807999D01*
X114704762Y-50712761D01*
X114657143Y-50665142D01*
X114561905Y-50617523D01*
X114323810Y-50617523D01*
X114228571Y-50665142D01*
X114180952Y-50712761D01*
X114133333Y-50807999D01*
X114133333Y-50998476D01*
X114180952Y-51093714D01*
X114228571Y-51141333D01*
X114323810Y-51188952D01*
X110736143Y-51760381D02*
X110402809Y-51284190D01*
X110164714Y-51760381D02*
X110164714Y-50760381D01*
X110545667Y-50760381D01*
X110640905Y-50808000D01*
X110688524Y-50855619D01*
X110736143Y-50950857D01*
X110736143Y-51093714D01*
X110688524Y-51188952D01*
X110640905Y-51236571D01*
X110545667Y-51284190D01*
X110164714Y-51284190D01*
X111688524Y-51760381D02*
X111117095Y-51760381D01*
X111402809Y-51760381D02*
X111402809Y-50760381D01*
X111307571Y-50903238D01*
X111212333Y-50998476D01*
X111117095Y-51046095D01*
X112164714Y-51760381D02*
X112355190Y-51760381D01*
X112450429Y-51712762D01*
X112498048Y-51665143D01*
X112593286Y-51522286D01*
X112640905Y-51331810D01*
X112640905Y-50950857D01*
X112593286Y-50855619D01*
X112545667Y-50808000D01*
X112450429Y-50760381D01*
X112259952Y-50760381D01*
X112164714Y-50808000D01*
X112117095Y-50855619D01*
X112069476Y-50950857D01*
X112069476Y-51188952D01*
X112117095Y-51284190D01*
X112164714Y-51331810D01*
X112259952Y-51379429D01*
X112450429Y-51379429D01*
X112545667Y-51331810D01*
X112593286Y-51284190D01*
X112640905Y-51188952D01*
X115601905Y-37806381D02*
X115601905Y-38615905D01*
X115649524Y-38711143D01*
X115697143Y-38758762D01*
X115792381Y-38806381D01*
X115982858Y-38806381D01*
X116078096Y-38758762D01*
X116125715Y-38711143D01*
X116173334Y-38615905D01*
X116173334Y-37806381D01*
X117173334Y-38806381D02*
X116601905Y-38806381D01*
X116887619Y-38806381D02*
X116887619Y-37806381D01*
X116792381Y-37949238D01*
X116697143Y-38044476D01*
X116601905Y-38092095D01*
X118030477Y-38139714D02*
X118030477Y-38806381D01*
X117792381Y-37758762D02*
X117554286Y-38473048D01*
X118173334Y-38473048D01*
X61952143Y-48521857D02*
X61999762Y-48569476D01*
X62047381Y-48712333D01*
X62047381Y-48807571D01*
X61999762Y-48950429D01*
X61904524Y-49045667D01*
X61809286Y-49093286D01*
X61618810Y-49140905D01*
X61475952Y-49140905D01*
X61285476Y-49093286D01*
X61190238Y-49045667D01*
X61095000Y-48950429D01*
X61047381Y-48807571D01*
X61047381Y-48712333D01*
X61095000Y-48569476D01*
X61142619Y-48521857D01*
X61142619Y-48140905D02*
X61095000Y-48093286D01*
X61047381Y-47998048D01*
X61047381Y-47759952D01*
X61095000Y-47664714D01*
X61142619Y-47617095D01*
X61237857Y-47569476D01*
X61333095Y-47569476D01*
X61475952Y-47617095D01*
X62047381Y-48188524D01*
X62047381Y-47569476D01*
X61047381Y-46664714D02*
X61047381Y-47140905D01*
X61523571Y-47188524D01*
X61475952Y-47140905D01*
X61428333Y-47045667D01*
X61428333Y-46807571D01*
X61475952Y-46712333D01*
X61523571Y-46664714D01*
X61618810Y-46617095D01*
X61856905Y-46617095D01*
X61952143Y-46664714D01*
X61999762Y-46712333D01*
X62047381Y-46807571D01*
X62047381Y-47045667D01*
X61999762Y-47140905D01*
X61952143Y-47188524D01*
X84844095Y-31085381D02*
X85415524Y-31085381D01*
X85129809Y-32085381D02*
X85129809Y-31085381D01*
X85748857Y-32085381D02*
X85748857Y-31085381D01*
X86129810Y-31085381D01*
X86225048Y-31133000D01*
X86272667Y-31180619D01*
X86320286Y-31275857D01*
X86320286Y-31418714D01*
X86272667Y-31513952D01*
X86225048Y-31561571D01*
X86129810Y-31609190D01*
X85748857Y-31609190D01*
X87177429Y-31085381D02*
X86986952Y-31085381D01*
X86891714Y-31133000D01*
X86844095Y-31180619D01*
X86748857Y-31323476D01*
X86701238Y-31513952D01*
X86701238Y-31894905D01*
X86748857Y-31990143D01*
X86796476Y-32037762D01*
X86891714Y-32085381D01*
X87082191Y-32085381D01*
X87177429Y-32037762D01*
X87225048Y-31990143D01*
X87272667Y-31894905D01*
X87272667Y-31656810D01*
X87225048Y-31561571D01*
X87177429Y-31513952D01*
X87082191Y-31466333D01*
X86891714Y-31466333D01*
X86796476Y-31513952D01*
X86748857Y-31561571D01*
X86701238Y-31656810D01*
X46998095Y-36028381D02*
X47569524Y-36028381D01*
X47283809Y-37028381D02*
X47283809Y-36028381D01*
X47902857Y-37028381D02*
X47902857Y-36028381D01*
X48283810Y-36028381D01*
X48379048Y-36076000D01*
X48426667Y-36123619D01*
X48474286Y-36218857D01*
X48474286Y-36361714D01*
X48426667Y-36456952D01*
X48379048Y-36504571D01*
X48283810Y-36552190D01*
X47902857Y-36552190D01*
X49426667Y-37028381D02*
X48855238Y-37028381D01*
X49140952Y-37028381D02*
X49140952Y-36028381D01*
X49045714Y-36171238D01*
X48950476Y-36266476D01*
X48855238Y-36314095D01*
X50935095Y-36028381D02*
X51506524Y-36028381D01*
X51220809Y-37028381D02*
X51220809Y-36028381D01*
X51839857Y-37028381D02*
X51839857Y-36028381D01*
X52220810Y-36028381D01*
X52316048Y-36076000D01*
X52363667Y-36123619D01*
X52411286Y-36218857D01*
X52411286Y-36361714D01*
X52363667Y-36456952D01*
X52316048Y-36504571D01*
X52220810Y-36552190D01*
X51839857Y-36552190D01*
X52792238Y-36123619D02*
X52839857Y-36076000D01*
X52935095Y-36028381D01*
X53173191Y-36028381D01*
X53268429Y-36076000D01*
X53316048Y-36123619D01*
X53363667Y-36218857D01*
X53363667Y-36314095D01*
X53316048Y-36456952D01*
X52744619Y-37028381D01*
X53363667Y-37028381D01*
X43315095Y-44791381D02*
X43886524Y-44791381D01*
X43600809Y-45791381D02*
X43600809Y-44791381D01*
X44219857Y-45791381D02*
X44219857Y-44791381D01*
X44600810Y-44791381D01*
X44696048Y-44839000D01*
X44743667Y-44886619D01*
X44791286Y-44981857D01*
X44791286Y-45124714D01*
X44743667Y-45219952D01*
X44696048Y-45267571D01*
X44600810Y-45315190D01*
X44219857Y-45315190D01*
X45124619Y-44791381D02*
X45743667Y-44791381D01*
X45410333Y-45172333D01*
X45553191Y-45172333D01*
X45648429Y-45219952D01*
X45696048Y-45267571D01*
X45743667Y-45362810D01*
X45743667Y-45600905D01*
X45696048Y-45696143D01*
X45648429Y-45743762D01*
X45553191Y-45791381D01*
X45267476Y-45791381D01*
X45172238Y-45743762D01*
X45124619Y-45696143D01*
X74698095Y-45202381D02*
X75269524Y-45202381D01*
X74983809Y-46202381D02*
X74983809Y-45202381D01*
X75602857Y-46202381D02*
X75602857Y-45202381D01*
X75983810Y-45202381D01*
X76079048Y-45250000D01*
X76126667Y-45297619D01*
X76174286Y-45392857D01*
X76174286Y-45535714D01*
X76126667Y-45630952D01*
X76079048Y-45678571D01*
X75983810Y-45726190D01*
X75602857Y-45726190D01*
X77031429Y-45535714D02*
X77031429Y-46202381D01*
X76793333Y-45154762D02*
X76555238Y-45869048D01*
X77174286Y-45869048D01*
X80983295Y-32345381D02*
X81554724Y-32345381D01*
X81269009Y-33345381D02*
X81269009Y-32345381D01*
X81888057Y-33345381D02*
X81888057Y-32345381D01*
X82269010Y-32345381D01*
X82364248Y-32393000D01*
X82411867Y-32440619D01*
X82459486Y-32535857D01*
X82459486Y-32678714D01*
X82411867Y-32773952D01*
X82364248Y-32821571D01*
X82269010Y-32869190D01*
X81888057Y-32869190D01*
X83364248Y-32345381D02*
X82888057Y-32345381D01*
X82840438Y-32821571D01*
X82888057Y-32773952D01*
X82983295Y-32726333D01*
X83221391Y-32726333D01*
X83316629Y-32773952D01*
X83364248Y-32821571D01*
X83411867Y-32916810D01*
X83411867Y-33154905D01*
X83364248Y-33250143D01*
X83316629Y-33297762D01*
X83221391Y-33345381D01*
X82983295Y-33345381D01*
X82888057Y-33297762D01*
X82840438Y-33250143D01*
X75446095Y-74572881D02*
X76017524Y-74572881D01*
X75731809Y-75572881D02*
X75731809Y-74572881D01*
X76350857Y-75572881D02*
X76350857Y-74572881D01*
X76731810Y-74572881D01*
X76827048Y-74620500D01*
X76874667Y-74668119D01*
X76922286Y-74763357D01*
X76922286Y-74906214D01*
X76874667Y-75001452D01*
X76827048Y-75049071D01*
X76731810Y-75096690D01*
X76350857Y-75096690D01*
X77255619Y-74572881D02*
X77922286Y-74572881D01*
X77493714Y-75572881D01*
X66048095Y-41616381D02*
X66619524Y-41616381D01*
X66333809Y-42616381D02*
X66333809Y-41616381D01*
X66952857Y-42616381D02*
X66952857Y-41616381D01*
X67333810Y-41616381D01*
X67429048Y-41664000D01*
X67476667Y-41711619D01*
X67524286Y-41806857D01*
X67524286Y-41949714D01*
X67476667Y-42044952D01*
X67429048Y-42092571D01*
X67333810Y-42140190D01*
X66952857Y-42140190D01*
X68095714Y-42044952D02*
X68000476Y-41997333D01*
X67952857Y-41949714D01*
X67905238Y-41854476D01*
X67905238Y-41806857D01*
X67952857Y-41711619D01*
X68000476Y-41664000D01*
X68095714Y-41616381D01*
X68286191Y-41616381D01*
X68381429Y-41664000D01*
X68429048Y-41711619D01*
X68476667Y-41806857D01*
X68476667Y-41854476D01*
X68429048Y-41949714D01*
X68381429Y-41997333D01*
X68286191Y-42044952D01*
X68095714Y-42044952D01*
X68000476Y-42092571D01*
X67952857Y-42140190D01*
X67905238Y-42235429D01*
X67905238Y-42425905D01*
X67952857Y-42521143D01*
X68000476Y-42568762D01*
X68095714Y-42616381D01*
X68286191Y-42616381D01*
X68381429Y-42568762D01*
X68429048Y-42521143D01*
X68476667Y-42425905D01*
X68476667Y-42235429D01*
X68429048Y-42140190D01*
X68381429Y-42092571D01*
X68286191Y-42044952D01*
X40259095Y-38644581D02*
X40259095Y-39454105D01*
X40306714Y-39549343D01*
X40354333Y-39596962D01*
X40449571Y-39644581D01*
X40640048Y-39644581D01*
X40735286Y-39596962D01*
X40782905Y-39549343D01*
X40830524Y-39454105D01*
X40830524Y-38644581D01*
X41830524Y-39644581D02*
X41259095Y-39644581D01*
X41544809Y-39644581D02*
X41544809Y-38644581D01*
X41449571Y-38787438D01*
X41354333Y-38882676D01*
X41259095Y-38930295D01*
X107696095Y-65746381D02*
X107696095Y-66555905D01*
X107743714Y-66651143D01*
X107791333Y-66698762D01*
X107886571Y-66746381D01*
X108077048Y-66746381D01*
X108172286Y-66698762D01*
X108219905Y-66651143D01*
X108267524Y-66555905D01*
X108267524Y-65746381D01*
X108648476Y-65746381D02*
X109315143Y-65746381D01*
X108886571Y-66746381D01*
X112328381Y-65785905D02*
X113137905Y-65785905D01*
X113233143Y-65738286D01*
X113280762Y-65690667D01*
X113328381Y-65595429D01*
X113328381Y-65404952D01*
X113280762Y-65309714D01*
X113233143Y-65262095D01*
X113137905Y-65214476D01*
X112328381Y-65214476D01*
X113328381Y-64690667D02*
X113328381Y-64500191D01*
X113280762Y-64404952D01*
X113233143Y-64357333D01*
X113090286Y-64262095D01*
X112899810Y-64214476D01*
X112518857Y-64214476D01*
X112423619Y-64262095D01*
X112376000Y-64309714D01*
X112328381Y-64404952D01*
X112328381Y-64595429D01*
X112376000Y-64690667D01*
X112423619Y-64738286D01*
X112518857Y-64785905D01*
X112756952Y-64785905D01*
X112852190Y-64738286D01*
X112899810Y-64690667D01*
X112947429Y-64595429D01*
X112947429Y-64404952D01*
X112899810Y-64309714D01*
X112852190Y-64262095D01*
X112756952Y-64214476D01*
X110196381Y-72485095D02*
X111005905Y-72485095D01*
X111101143Y-72437476D01*
X111148762Y-72389857D01*
X111196381Y-72294619D01*
X111196381Y-72104142D01*
X111148762Y-72008904D01*
X111101143Y-71961285D01*
X111005905Y-71913666D01*
X110196381Y-71913666D01*
X111196381Y-70913666D02*
X111196381Y-71485095D01*
X111196381Y-71199381D02*
X110196381Y-71199381D01*
X110339238Y-71294619D01*
X110434476Y-71389857D01*
X110482095Y-71485095D01*
X110196381Y-70294619D02*
X110196381Y-70199380D01*
X110244000Y-70104142D01*
X110291619Y-70056523D01*
X110386857Y-70008904D01*
X110577333Y-69961285D01*
X110815429Y-69961285D01*
X111005905Y-70008904D01*
X111101143Y-70056523D01*
X111148762Y-70104142D01*
X111196381Y-70199380D01*
X111196381Y-70294619D01*
X111148762Y-70389857D01*
X111101143Y-70437476D01*
X111005905Y-70485095D01*
X110815429Y-70532714D01*
X110577333Y-70532714D01*
X110386857Y-70485095D01*
X110291619Y-70437476D01*
X110244000Y-70389857D01*
X110196381Y-70294619D01*
X98298095Y-37806381D02*
X98298095Y-38615905D01*
X98345714Y-38711143D01*
X98393333Y-38758762D01*
X98488571Y-38806381D01*
X98679048Y-38806381D01*
X98774286Y-38758762D01*
X98821905Y-38711143D01*
X98869524Y-38615905D01*
X98869524Y-37806381D01*
X99821905Y-37806381D02*
X99345714Y-37806381D01*
X99298095Y-38282571D01*
X99345714Y-38234952D01*
X99440952Y-38187333D01*
X99679048Y-38187333D01*
X99774286Y-38234952D01*
X99821905Y-38282571D01*
X99869524Y-38377810D01*
X99869524Y-38615905D01*
X99821905Y-38711143D01*
X99774286Y-38758762D01*
X99679048Y-38806381D01*
X99440952Y-38806381D01*
X99345714Y-38758762D01*
X99298095Y-38711143D01*
X94742095Y-35774381D02*
X94742095Y-36583905D01*
X94789714Y-36679143D01*
X94837333Y-36726762D01*
X94932571Y-36774381D01*
X95123048Y-36774381D01*
X95218286Y-36726762D01*
X95265905Y-36679143D01*
X95313524Y-36583905D01*
X95313524Y-35774381D01*
X95694476Y-35774381D02*
X96313524Y-35774381D01*
X95980190Y-36155333D01*
X96123048Y-36155333D01*
X96218286Y-36202952D01*
X96265905Y-36250571D01*
X96313524Y-36345810D01*
X96313524Y-36583905D01*
X96265905Y-36679143D01*
X96218286Y-36726762D01*
X96123048Y-36774381D01*
X95837333Y-36774381D01*
X95742095Y-36726762D01*
X95694476Y-36679143D01*
X78113095Y-62825381D02*
X78684524Y-62825381D01*
X78398809Y-63825381D02*
X78398809Y-62825381D01*
X79017857Y-63825381D02*
X79017857Y-62825381D01*
X79398810Y-62825381D01*
X79494048Y-62873000D01*
X79541667Y-62920619D01*
X79589286Y-63015857D01*
X79589286Y-63158714D01*
X79541667Y-63253952D01*
X79494048Y-63301571D01*
X79398810Y-63349190D01*
X79017857Y-63349190D01*
X80065476Y-63825381D02*
X80255952Y-63825381D01*
X80351191Y-63777762D01*
X80398810Y-63730143D01*
X80494048Y-63587286D01*
X80541667Y-63396810D01*
X80541667Y-63015857D01*
X80494048Y-62920619D01*
X80446429Y-62873000D01*
X80351191Y-62825381D01*
X80160714Y-62825381D01*
X80065476Y-62873000D01*
X80017857Y-62920619D01*
X79970238Y-63015857D01*
X79970238Y-63253952D01*
X80017857Y-63349190D01*
X80065476Y-63396810D01*
X80160714Y-63444429D01*
X80351191Y-63444429D01*
X80446429Y-63396810D01*
X80494048Y-63349190D01*
X80541667Y-63253952D01*
X119919905Y-66965581D02*
X119919905Y-67775105D01*
X119967524Y-67870343D01*
X120015143Y-67917962D01*
X120110381Y-67965581D01*
X120300858Y-67965581D01*
X120396096Y-67917962D01*
X120443715Y-67870343D01*
X120491334Y-67775105D01*
X120491334Y-66965581D01*
X121491334Y-67965581D02*
X120919905Y-67965581D01*
X121205619Y-67965581D02*
X121205619Y-66965581D01*
X121110381Y-67108438D01*
X121015143Y-67203676D01*
X120919905Y-67251295D01*
X122443715Y-67965581D02*
X121872286Y-67965581D01*
X122158000Y-67965581D02*
X122158000Y-66965581D01*
X122062762Y-67108438D01*
X121967524Y-67203676D01*
X121872286Y-67251295D01*
X119872286Y-77214362D02*
X120015143Y-77261981D01*
X120253239Y-77261981D01*
X120348477Y-77214362D01*
X120396096Y-77166743D01*
X120443715Y-77071505D01*
X120443715Y-76976267D01*
X120396096Y-76881029D01*
X120348477Y-76833410D01*
X120253239Y-76785790D01*
X120062762Y-76738171D01*
X119967524Y-76690552D01*
X119919905Y-76642933D01*
X119872286Y-76547695D01*
X119872286Y-76452457D01*
X119919905Y-76357219D01*
X119967524Y-76309600D01*
X120062762Y-76261981D01*
X120300858Y-76261981D01*
X120443715Y-76309600D01*
X120872286Y-77261981D02*
X120872286Y-76261981D01*
X121205620Y-76976267D01*
X121538953Y-76261981D01*
X121538953Y-77261981D01*
X121967524Y-76976267D02*
X122443715Y-76976267D01*
X121872286Y-77261981D02*
X122205619Y-76261981D01*
X122538953Y-77261981D01*
M02*
