G04 #@! TF.FileFunction,Legend,Top*
%FSLAX46Y46*%
G04 Gerber Fmt 4.6, Leading zero omitted, Abs format (unit mm)*
G04 Created by KiCad (PCBNEW 4.0.7) date 02/08/18 14:37:26*
%MOMM*%
%LPD*%
G01*
G04 APERTURE LIST*
%ADD10C,0.100000*%
%ADD11C,0.300000*%
%ADD12C,0.120000*%
%ADD13C,0.150000*%
G04 APERTURE END LIST*
D10*
D11*
X38206667Y-33018524D02*
X40492382Y-33018524D01*
X39349525Y-37018524D02*
X39349525Y-33018524D01*
X43349524Y-36828048D02*
X42968572Y-37018524D01*
X42206667Y-37018524D01*
X41825715Y-36828048D01*
X41635239Y-36447095D01*
X41635239Y-34923286D01*
X41825715Y-34542333D01*
X42206667Y-34351857D01*
X42968572Y-34351857D01*
X43349524Y-34542333D01*
X43540001Y-34923286D01*
X43540001Y-35304238D01*
X41635239Y-35685190D01*
X46968572Y-37018524D02*
X46968572Y-34923286D01*
X46778095Y-34542333D01*
X46397143Y-34351857D01*
X45635238Y-34351857D01*
X45254286Y-34542333D01*
X46968572Y-36828048D02*
X46587619Y-37018524D01*
X45635238Y-37018524D01*
X45254286Y-36828048D01*
X45063810Y-36447095D01*
X45063810Y-36066143D01*
X45254286Y-35685190D01*
X45635238Y-35494714D01*
X46587619Y-35494714D01*
X46968572Y-35304238D01*
X48873334Y-37018524D02*
X48873334Y-34351857D01*
X48873334Y-34732810D02*
X49063810Y-34542333D01*
X49444763Y-34351857D01*
X50016191Y-34351857D01*
X50397143Y-34542333D01*
X50587620Y-34923286D01*
X50587620Y-37018524D01*
X50587620Y-34923286D02*
X50778096Y-34542333D01*
X51159048Y-34351857D01*
X51730477Y-34351857D01*
X52111429Y-34542333D01*
X52301905Y-34923286D01*
X52301905Y-37018524D01*
X42016190Y-41223286D02*
X42587619Y-41413762D01*
X42778095Y-41604238D01*
X42968571Y-41985190D01*
X42968571Y-42556619D01*
X42778095Y-42937571D01*
X42587619Y-43128048D01*
X42206666Y-43318524D01*
X40682857Y-43318524D01*
X40682857Y-39318524D01*
X42016190Y-39318524D01*
X42397143Y-39509000D01*
X42587619Y-39699476D01*
X42778095Y-40080429D01*
X42778095Y-40461381D01*
X42587619Y-40842333D01*
X42397143Y-41032810D01*
X42016190Y-41223286D01*
X40682857Y-41223286D01*
X45254286Y-43318524D02*
X44873333Y-43128048D01*
X44682857Y-42747095D01*
X44682857Y-39318524D01*
X46778095Y-43318524D02*
X46778095Y-40651857D01*
X46778095Y-39318524D02*
X46587619Y-39509000D01*
X46778095Y-39699476D01*
X46968571Y-39509000D01*
X46778095Y-39318524D01*
X46778095Y-39699476D01*
X48682857Y-40651857D02*
X48682857Y-44651857D01*
X48682857Y-40842333D02*
X49063809Y-40651857D01*
X49825714Y-40651857D01*
X50206666Y-40842333D01*
X50397143Y-41032810D01*
X50587619Y-41413762D01*
X50587619Y-42556619D01*
X50397143Y-42937571D01*
X50206666Y-43128048D01*
X49825714Y-43318524D01*
X49063809Y-43318524D01*
X48682857Y-43128048D01*
D12*
X51008691Y-48616704D02*
G75*
G02X51049000Y-50926000I40309J-1154296D01*
G01*
X51069121Y-50925052D02*
G75*
G02X49920000Y-49531000I-20121J1154052D01*
G01*
X51925000Y-49037000D02*
X50314000Y-50647000D01*
X55332000Y-48851000D02*
X58932000Y-48851000D01*
X54807816Y-48123795D02*
G75*
G03X55332000Y-48851000I2324184J1122795D01*
G01*
X54775600Y-45902193D02*
G75*
G02X57132000Y-44401000I2356400J-1098807D01*
G01*
X59488400Y-45902193D02*
G75*
G03X57132000Y-44401000I-2356400J-1098807D01*
G01*
X59456184Y-48123795D02*
G75*
G02X58932000Y-48851000I-2324184J1122795D01*
G01*
D13*
X104885334Y-52543181D02*
X104409143Y-52543181D01*
X104409143Y-51543181D01*
X105171048Y-51638419D02*
X105218667Y-51590800D01*
X105313905Y-51543181D01*
X105552001Y-51543181D01*
X105647239Y-51590800D01*
X105694858Y-51638419D01*
X105742477Y-51733657D01*
X105742477Y-51828895D01*
X105694858Y-51971752D01*
X105123429Y-52543181D01*
X105742477Y-52543181D01*
X46102334Y-56115143D02*
X46054715Y-56162762D01*
X45911858Y-56210381D01*
X45816620Y-56210381D01*
X45673762Y-56162762D01*
X45578524Y-56067524D01*
X45530905Y-55972286D01*
X45483286Y-55781810D01*
X45483286Y-55638952D01*
X45530905Y-55448476D01*
X45578524Y-55353238D01*
X45673762Y-55258000D01*
X45816620Y-55210381D01*
X45911858Y-55210381D01*
X46054715Y-55258000D01*
X46102334Y-55305619D01*
X47054715Y-56210381D02*
X46483286Y-56210381D01*
X46769000Y-56210381D02*
X46769000Y-55210381D01*
X46673762Y-55353238D01*
X46578524Y-55448476D01*
X46483286Y-55496095D01*
X72261981Y-70155905D02*
X73071505Y-70155905D01*
X73166743Y-70108286D01*
X73214362Y-70060667D01*
X73261981Y-69965429D01*
X73261981Y-69774952D01*
X73214362Y-69679714D01*
X73166743Y-69632095D01*
X73071505Y-69584476D01*
X72261981Y-69584476D01*
X72595314Y-68679714D02*
X73261981Y-68679714D01*
X72214362Y-68917810D02*
X72928648Y-69155905D01*
X72928648Y-68536857D01*
X36706095Y-55979781D02*
X37277524Y-55979781D01*
X36991809Y-56979781D02*
X36991809Y-55979781D01*
X37610857Y-56979781D02*
X37610857Y-55979781D01*
X37991810Y-55979781D01*
X38087048Y-56027400D01*
X38134667Y-56075019D01*
X38182286Y-56170257D01*
X38182286Y-56313114D01*
X38134667Y-56408352D01*
X38087048Y-56455971D01*
X37991810Y-56503590D01*
X37610857Y-56503590D01*
X39134667Y-56979781D02*
X38563238Y-56979781D01*
X38848952Y-56979781D02*
X38848952Y-55979781D01*
X38753714Y-56122638D01*
X38658476Y-56217876D01*
X38563238Y-56265495D01*
X36538095Y-61140781D02*
X37109524Y-61140781D01*
X36823809Y-62140781D02*
X36823809Y-61140781D01*
X37442857Y-62140781D02*
X37442857Y-61140781D01*
X37823810Y-61140781D01*
X37919048Y-61188400D01*
X37966667Y-61236019D01*
X38014286Y-61331257D01*
X38014286Y-61474114D01*
X37966667Y-61569352D01*
X37919048Y-61616971D01*
X37823810Y-61664590D01*
X37442857Y-61664590D01*
X38347619Y-61140781D02*
X38966667Y-61140781D01*
X38633333Y-61521733D01*
X38776191Y-61521733D01*
X38871429Y-61569352D01*
X38919048Y-61616971D01*
X38966667Y-61712210D01*
X38966667Y-61950305D01*
X38919048Y-62045543D01*
X38871429Y-62093162D01*
X38776191Y-62140781D01*
X38490476Y-62140781D01*
X38395238Y-62093162D01*
X38347619Y-62045543D01*
X45700381Y-62473905D02*
X46509905Y-62473905D01*
X46605143Y-62426286D01*
X46652762Y-62378667D01*
X46700381Y-62283429D01*
X46700381Y-62092952D01*
X46652762Y-61997714D01*
X46605143Y-61950095D01*
X46509905Y-61902476D01*
X45700381Y-61902476D01*
X46700381Y-60902476D02*
X46700381Y-61473905D01*
X46700381Y-61188191D02*
X45700381Y-61188191D01*
X45843238Y-61283429D01*
X45938476Y-61378667D01*
X45986095Y-61473905D01*
X91060334Y-68836543D02*
X91012715Y-68884162D01*
X90869858Y-68931781D01*
X90774620Y-68931781D01*
X90631762Y-68884162D01*
X90536524Y-68788924D01*
X90488905Y-68693686D01*
X90441286Y-68503210D01*
X90441286Y-68360352D01*
X90488905Y-68169876D01*
X90536524Y-68074638D01*
X90631762Y-67979400D01*
X90774620Y-67931781D01*
X90869858Y-67931781D01*
X91012715Y-67979400D01*
X91060334Y-68027019D01*
X91393667Y-67931781D02*
X92060334Y-67931781D01*
X91631762Y-68931781D01*
X55185143Y-61487666D02*
X55232762Y-61535285D01*
X55280381Y-61678142D01*
X55280381Y-61773380D01*
X55232762Y-61916238D01*
X55137524Y-62011476D01*
X55042286Y-62059095D01*
X54851810Y-62106714D01*
X54708952Y-62106714D01*
X54518476Y-62059095D01*
X54423238Y-62011476D01*
X54328000Y-61916238D01*
X54280381Y-61773380D01*
X54280381Y-61678142D01*
X54328000Y-61535285D01*
X54375619Y-61487666D01*
X54375619Y-61106714D02*
X54328000Y-61059095D01*
X54280381Y-60963857D01*
X54280381Y-60725761D01*
X54328000Y-60630523D01*
X54375619Y-60582904D01*
X54470857Y-60535285D01*
X54566095Y-60535285D01*
X54708952Y-60582904D01*
X55280381Y-61154333D01*
X55280381Y-60535285D01*
X113082743Y-38668666D02*
X113130362Y-38716285D01*
X113177981Y-38859142D01*
X113177981Y-38954380D01*
X113130362Y-39097238D01*
X113035124Y-39192476D01*
X112939886Y-39240095D01*
X112749410Y-39287714D01*
X112606552Y-39287714D01*
X112416076Y-39240095D01*
X112320838Y-39192476D01*
X112225600Y-39097238D01*
X112177981Y-38954380D01*
X112177981Y-38859142D01*
X112225600Y-38716285D01*
X112273219Y-38668666D01*
X112177981Y-38335333D02*
X112177981Y-37716285D01*
X112558933Y-38049619D01*
X112558933Y-37906761D01*
X112606552Y-37811523D01*
X112654171Y-37763904D01*
X112749410Y-37716285D01*
X112987505Y-37716285D01*
X113082743Y-37763904D01*
X113130362Y-37811523D01*
X113177981Y-37906761D01*
X113177981Y-38192476D01*
X113130362Y-38287714D01*
X113082743Y-38335333D01*
X106742334Y-33134543D02*
X106694715Y-33182162D01*
X106551858Y-33229781D01*
X106456620Y-33229781D01*
X106313762Y-33182162D01*
X106218524Y-33086924D01*
X106170905Y-32991686D01*
X106123286Y-32801210D01*
X106123286Y-32658352D01*
X106170905Y-32467876D01*
X106218524Y-32372638D01*
X106313762Y-32277400D01*
X106456620Y-32229781D01*
X106551858Y-32229781D01*
X106694715Y-32277400D01*
X106742334Y-32325019D01*
X107599477Y-32563114D02*
X107599477Y-33229781D01*
X107361381Y-32182162D02*
X107123286Y-32896448D01*
X107742334Y-32896448D01*
X100638334Y-49402743D02*
X100590715Y-49450362D01*
X100447858Y-49497981D01*
X100352620Y-49497981D01*
X100209762Y-49450362D01*
X100114524Y-49355124D01*
X100066905Y-49259886D01*
X100019286Y-49069410D01*
X100019286Y-48926552D01*
X100066905Y-48736076D01*
X100114524Y-48640838D01*
X100209762Y-48545600D01*
X100352620Y-48497981D01*
X100447858Y-48497981D01*
X100590715Y-48545600D01*
X100638334Y-48593219D01*
X101543096Y-48497981D02*
X101066905Y-48497981D01*
X101019286Y-48974171D01*
X101066905Y-48926552D01*
X101162143Y-48878933D01*
X101400239Y-48878933D01*
X101495477Y-48926552D01*
X101543096Y-48974171D01*
X101590715Y-49069410D01*
X101590715Y-49307505D01*
X101543096Y-49402743D01*
X101495477Y-49450362D01*
X101400239Y-49497981D01*
X101162143Y-49497981D01*
X101066905Y-49450362D01*
X101019286Y-49402743D01*
X105680334Y-40936143D02*
X105632715Y-40983762D01*
X105489858Y-41031381D01*
X105394620Y-41031381D01*
X105251762Y-40983762D01*
X105156524Y-40888524D01*
X105108905Y-40793286D01*
X105061286Y-40602810D01*
X105061286Y-40459952D01*
X105108905Y-40269476D01*
X105156524Y-40174238D01*
X105251762Y-40079000D01*
X105394620Y-40031381D01*
X105489858Y-40031381D01*
X105632715Y-40079000D01*
X105680334Y-40126619D01*
X106537477Y-40031381D02*
X106347000Y-40031381D01*
X106251762Y-40079000D01*
X106204143Y-40126619D01*
X106108905Y-40269476D01*
X106061286Y-40459952D01*
X106061286Y-40840905D01*
X106108905Y-40936143D01*
X106156524Y-40983762D01*
X106251762Y-41031381D01*
X106442239Y-41031381D01*
X106537477Y-40983762D01*
X106585096Y-40936143D01*
X106632715Y-40840905D01*
X106632715Y-40602810D01*
X106585096Y-40507571D01*
X106537477Y-40459952D01*
X106442239Y-40412333D01*
X106251762Y-40412333D01*
X106156524Y-40459952D01*
X106108905Y-40507571D01*
X106061286Y-40602810D01*
X101057143Y-62996666D02*
X101104762Y-63044285D01*
X101152381Y-63187142D01*
X101152381Y-63282380D01*
X101104762Y-63425238D01*
X101009524Y-63520476D01*
X100914286Y-63568095D01*
X100723810Y-63615714D01*
X100580952Y-63615714D01*
X100390476Y-63568095D01*
X100295238Y-63520476D01*
X100200000Y-63425238D01*
X100152381Y-63282380D01*
X100152381Y-63187142D01*
X100200000Y-63044285D01*
X100247619Y-62996666D01*
X100580952Y-62425238D02*
X100533333Y-62520476D01*
X100485714Y-62568095D01*
X100390476Y-62615714D01*
X100342857Y-62615714D01*
X100247619Y-62568095D01*
X100200000Y-62520476D01*
X100152381Y-62425238D01*
X100152381Y-62234761D01*
X100200000Y-62139523D01*
X100247619Y-62091904D01*
X100342857Y-62044285D01*
X100390476Y-62044285D01*
X100485714Y-62091904D01*
X100533333Y-62139523D01*
X100580952Y-62234761D01*
X100580952Y-62425238D01*
X100628571Y-62520476D01*
X100676190Y-62568095D01*
X100771429Y-62615714D01*
X100961905Y-62615714D01*
X101057143Y-62568095D01*
X101104762Y-62520476D01*
X101152381Y-62425238D01*
X101152381Y-62234761D01*
X101104762Y-62139523D01*
X101057143Y-62091904D01*
X100961905Y-62044285D01*
X100771429Y-62044285D01*
X100676190Y-62091904D01*
X100628571Y-62139523D01*
X100580952Y-62234761D01*
X106058334Y-58622743D02*
X106010715Y-58670362D01*
X105867858Y-58717981D01*
X105772620Y-58717981D01*
X105629762Y-58670362D01*
X105534524Y-58575124D01*
X105486905Y-58479886D01*
X105439286Y-58289410D01*
X105439286Y-58146552D01*
X105486905Y-57956076D01*
X105534524Y-57860838D01*
X105629762Y-57765600D01*
X105772620Y-57717981D01*
X105867858Y-57717981D01*
X106010715Y-57765600D01*
X106058334Y-57813219D01*
X106534524Y-58717981D02*
X106725000Y-58717981D01*
X106820239Y-58670362D01*
X106867858Y-58622743D01*
X106963096Y-58479886D01*
X107010715Y-58289410D01*
X107010715Y-57908457D01*
X106963096Y-57813219D01*
X106915477Y-57765600D01*
X106820239Y-57717981D01*
X106629762Y-57717981D01*
X106534524Y-57765600D01*
X106486905Y-57813219D01*
X106439286Y-57908457D01*
X106439286Y-58146552D01*
X106486905Y-58241790D01*
X106534524Y-58289410D01*
X106629762Y-58337029D01*
X106820239Y-58337029D01*
X106915477Y-58289410D01*
X106963096Y-58241790D01*
X107010715Y-58146552D01*
X104306543Y-48532857D02*
X104354162Y-48580476D01*
X104401781Y-48723333D01*
X104401781Y-48818571D01*
X104354162Y-48961429D01*
X104258924Y-49056667D01*
X104163686Y-49104286D01*
X103973210Y-49151905D01*
X103830352Y-49151905D01*
X103639876Y-49104286D01*
X103544638Y-49056667D01*
X103449400Y-48961429D01*
X103401781Y-48818571D01*
X103401781Y-48723333D01*
X103449400Y-48580476D01*
X103497019Y-48532857D01*
X104401781Y-47580476D02*
X104401781Y-48151905D01*
X104401781Y-47866191D02*
X103401781Y-47866191D01*
X103544638Y-47961429D01*
X103639876Y-48056667D01*
X103687495Y-48151905D01*
X103401781Y-46961429D02*
X103401781Y-46866190D01*
X103449400Y-46770952D01*
X103497019Y-46723333D01*
X103592257Y-46675714D01*
X103782733Y-46628095D01*
X104020829Y-46628095D01*
X104211305Y-46675714D01*
X104306543Y-46723333D01*
X104354162Y-46770952D01*
X104401781Y-46866190D01*
X104401781Y-46961429D01*
X104354162Y-47056667D01*
X104306543Y-47104286D01*
X104211305Y-47151905D01*
X104020829Y-47199524D01*
X103782733Y-47199524D01*
X103592257Y-47151905D01*
X103497019Y-47104286D01*
X103449400Y-47056667D01*
X103401781Y-46961429D01*
X95189143Y-58231743D02*
X95141524Y-58279362D01*
X94998667Y-58326981D01*
X94903429Y-58326981D01*
X94760571Y-58279362D01*
X94665333Y-58184124D01*
X94617714Y-58088886D01*
X94570095Y-57898410D01*
X94570095Y-57755552D01*
X94617714Y-57565076D01*
X94665333Y-57469838D01*
X94760571Y-57374600D01*
X94903429Y-57326981D01*
X94998667Y-57326981D01*
X95141524Y-57374600D01*
X95189143Y-57422219D01*
X96141524Y-58326981D02*
X95570095Y-58326981D01*
X95855809Y-58326981D02*
X95855809Y-57326981D01*
X95760571Y-57469838D01*
X95665333Y-57565076D01*
X95570095Y-57612695D01*
X97093905Y-58326981D02*
X96522476Y-58326981D01*
X96808190Y-58326981D02*
X96808190Y-57326981D01*
X96712952Y-57469838D01*
X96617714Y-57565076D01*
X96522476Y-57612695D01*
X113041743Y-55710857D02*
X113089362Y-55758476D01*
X113136981Y-55901333D01*
X113136981Y-55996571D01*
X113089362Y-56139429D01*
X112994124Y-56234667D01*
X112898886Y-56282286D01*
X112708410Y-56329905D01*
X112565552Y-56329905D01*
X112375076Y-56282286D01*
X112279838Y-56234667D01*
X112184600Y-56139429D01*
X112136981Y-55996571D01*
X112136981Y-55901333D01*
X112184600Y-55758476D01*
X112232219Y-55710857D01*
X113136981Y-54758476D02*
X113136981Y-55329905D01*
X113136981Y-55044191D02*
X112136981Y-55044191D01*
X112279838Y-55139429D01*
X112375076Y-55234667D01*
X112422695Y-55329905D01*
X112232219Y-54377524D02*
X112184600Y-54329905D01*
X112136981Y-54234667D01*
X112136981Y-53996571D01*
X112184600Y-53901333D01*
X112232219Y-53853714D01*
X112327457Y-53806095D01*
X112422695Y-53806095D01*
X112565552Y-53853714D01*
X113136981Y-54425143D01*
X113136981Y-53806095D01*
X87713143Y-38153857D02*
X87760762Y-38201476D01*
X87808381Y-38344333D01*
X87808381Y-38439571D01*
X87760762Y-38582429D01*
X87665524Y-38677667D01*
X87570286Y-38725286D01*
X87379810Y-38772905D01*
X87236952Y-38772905D01*
X87046476Y-38725286D01*
X86951238Y-38677667D01*
X86856000Y-38582429D01*
X86808381Y-38439571D01*
X86808381Y-38344333D01*
X86856000Y-38201476D01*
X86903619Y-38153857D01*
X87808381Y-37201476D02*
X87808381Y-37772905D01*
X87808381Y-37487191D02*
X86808381Y-37487191D01*
X86951238Y-37582429D01*
X87046476Y-37677667D01*
X87094095Y-37772905D01*
X86808381Y-36296714D02*
X86808381Y-36772905D01*
X87284571Y-36820524D01*
X87236952Y-36772905D01*
X87189333Y-36677667D01*
X87189333Y-36439571D01*
X87236952Y-36344333D01*
X87284571Y-36296714D01*
X87379810Y-36249095D01*
X87617905Y-36249095D01*
X87713143Y-36296714D01*
X87760762Y-36344333D01*
X87808381Y-36439571D01*
X87808381Y-36677667D01*
X87760762Y-36772905D01*
X87713143Y-36820524D01*
X81135143Y-34314743D02*
X81087524Y-34362362D01*
X80944667Y-34409981D01*
X80849429Y-34409981D01*
X80706571Y-34362362D01*
X80611333Y-34267124D01*
X80563714Y-34171886D01*
X80516095Y-33981410D01*
X80516095Y-33838552D01*
X80563714Y-33648076D01*
X80611333Y-33552838D01*
X80706571Y-33457600D01*
X80849429Y-33409981D01*
X80944667Y-33409981D01*
X81087524Y-33457600D01*
X81135143Y-33505219D01*
X82087524Y-34409981D02*
X81516095Y-34409981D01*
X81801809Y-34409981D02*
X81801809Y-33409981D01*
X81706571Y-33552838D01*
X81611333Y-33648076D01*
X81516095Y-33695695D01*
X82944667Y-33409981D02*
X82754190Y-33409981D01*
X82658952Y-33457600D01*
X82611333Y-33505219D01*
X82516095Y-33648076D01*
X82468476Y-33838552D01*
X82468476Y-34219505D01*
X82516095Y-34314743D01*
X82563714Y-34362362D01*
X82658952Y-34409981D01*
X82849429Y-34409981D01*
X82944667Y-34362362D01*
X82992286Y-34314743D01*
X83039905Y-34219505D01*
X83039905Y-33981410D01*
X82992286Y-33886171D01*
X82944667Y-33838552D01*
X82849429Y-33790933D01*
X82658952Y-33790933D01*
X82563714Y-33838552D01*
X82516095Y-33886171D01*
X82468476Y-33981410D01*
X106929381Y-38408666D02*
X106929381Y-38884857D01*
X105929381Y-38884857D01*
X106929381Y-37551523D02*
X106929381Y-38122952D01*
X106929381Y-37837238D02*
X105929381Y-37837238D01*
X106072238Y-37932476D01*
X106167476Y-38027714D01*
X106215095Y-38122952D01*
X94324334Y-52236181D02*
X93848143Y-52236181D01*
X93848143Y-51236181D01*
X94562429Y-51236181D02*
X95181477Y-51236181D01*
X94848143Y-51617133D01*
X94991001Y-51617133D01*
X95086239Y-51664752D01*
X95133858Y-51712371D01*
X95181477Y-51807610D01*
X95181477Y-52045705D01*
X95133858Y-52140943D01*
X95086239Y-52188562D01*
X94991001Y-52236181D01*
X94705286Y-52236181D01*
X94610048Y-52188562D01*
X94562429Y-52140943D01*
X47488934Y-52629381D02*
X47155600Y-52153190D01*
X46917505Y-52629381D02*
X46917505Y-51629381D01*
X47298458Y-51629381D01*
X47393696Y-51677000D01*
X47441315Y-51724619D01*
X47488934Y-51819857D01*
X47488934Y-51962714D01*
X47441315Y-52057952D01*
X47393696Y-52105571D01*
X47298458Y-52153190D01*
X46917505Y-52153190D01*
X48441315Y-52629381D02*
X47869886Y-52629381D01*
X48155600Y-52629381D02*
X48155600Y-51629381D01*
X48060362Y-51772238D01*
X47965124Y-51867476D01*
X47869886Y-51915095D01*
X99129334Y-43117781D02*
X98796000Y-42641590D01*
X98557905Y-43117781D02*
X98557905Y-42117781D01*
X98938858Y-42117781D01*
X99034096Y-42165400D01*
X99081715Y-42213019D01*
X99129334Y-42308257D01*
X99129334Y-42451114D01*
X99081715Y-42546352D01*
X99034096Y-42593971D01*
X98938858Y-42641590D01*
X98557905Y-42641590D01*
X99462667Y-42117781D02*
X100081715Y-42117781D01*
X99748381Y-42498733D01*
X99891239Y-42498733D01*
X99986477Y-42546352D01*
X100034096Y-42593971D01*
X100081715Y-42689210D01*
X100081715Y-42927305D01*
X100034096Y-43022543D01*
X99986477Y-43070162D01*
X99891239Y-43117781D01*
X99605524Y-43117781D01*
X99510286Y-43070162D01*
X99462667Y-43022543D01*
X55935781Y-55031666D02*
X55459590Y-55365000D01*
X55935781Y-55603095D02*
X54935781Y-55603095D01*
X54935781Y-55222142D01*
X54983400Y-55126904D01*
X55031019Y-55079285D01*
X55126257Y-55031666D01*
X55269114Y-55031666D01*
X55364352Y-55079285D01*
X55411971Y-55126904D01*
X55459590Y-55222142D01*
X55459590Y-55603095D01*
X55269114Y-54174523D02*
X55935781Y-54174523D01*
X54888162Y-54412619D02*
X55602448Y-54650714D01*
X55602448Y-54031666D01*
X68910381Y-46252666D02*
X68434190Y-46586000D01*
X68910381Y-46824095D02*
X67910381Y-46824095D01*
X67910381Y-46443142D01*
X67958000Y-46347904D01*
X68005619Y-46300285D01*
X68100857Y-46252666D01*
X68243714Y-46252666D01*
X68338952Y-46300285D01*
X68386571Y-46347904D01*
X68434190Y-46443142D01*
X68434190Y-46824095D01*
X67910381Y-45347904D02*
X67910381Y-45824095D01*
X68386571Y-45871714D01*
X68338952Y-45824095D01*
X68291333Y-45728857D01*
X68291333Y-45490761D01*
X68338952Y-45395523D01*
X68386571Y-45347904D01*
X68481810Y-45300285D01*
X68719905Y-45300285D01*
X68815143Y-45347904D01*
X68862762Y-45395523D01*
X68910381Y-45490761D01*
X68910381Y-45728857D01*
X68862762Y-45824095D01*
X68815143Y-45871714D01*
X64562381Y-46292666D02*
X64086190Y-46626000D01*
X64562381Y-46864095D02*
X63562381Y-46864095D01*
X63562381Y-46483142D01*
X63610000Y-46387904D01*
X63657619Y-46340285D01*
X63752857Y-46292666D01*
X63895714Y-46292666D01*
X63990952Y-46340285D01*
X64038571Y-46387904D01*
X64086190Y-46483142D01*
X64086190Y-46864095D01*
X63562381Y-45435523D02*
X63562381Y-45626000D01*
X63610000Y-45721238D01*
X63657619Y-45768857D01*
X63800476Y-45864095D01*
X63990952Y-45911714D01*
X64371905Y-45911714D01*
X64467143Y-45864095D01*
X64514762Y-45816476D01*
X64562381Y-45721238D01*
X64562381Y-45530761D01*
X64514762Y-45435523D01*
X64467143Y-45387904D01*
X64371905Y-45340285D01*
X64133810Y-45340285D01*
X64038571Y-45387904D01*
X63990952Y-45435523D01*
X63943333Y-45530761D01*
X63943333Y-45721238D01*
X63990952Y-45816476D01*
X64038571Y-45864095D01*
X64133810Y-45911714D01*
X73228143Y-41702981D02*
X72894809Y-41226790D01*
X72656714Y-41702981D02*
X72656714Y-40702981D01*
X73037667Y-40702981D01*
X73132905Y-40750600D01*
X73180524Y-40798219D01*
X73228143Y-40893457D01*
X73228143Y-41036314D01*
X73180524Y-41131552D01*
X73132905Y-41179171D01*
X73037667Y-41226790D01*
X72656714Y-41226790D01*
X74180524Y-41702981D02*
X73609095Y-41702981D01*
X73894809Y-41702981D02*
X73894809Y-40702981D01*
X73799571Y-40845838D01*
X73704333Y-40941076D01*
X73609095Y-40988695D01*
X75132905Y-41702981D02*
X74561476Y-41702981D01*
X74847190Y-41702981D02*
X74847190Y-40702981D01*
X74751952Y-40845838D01*
X74656714Y-40941076D01*
X74561476Y-40988695D01*
X76632381Y-37828857D02*
X76156190Y-38162191D01*
X76632381Y-38400286D02*
X75632381Y-38400286D01*
X75632381Y-38019333D01*
X75680000Y-37924095D01*
X75727619Y-37876476D01*
X75822857Y-37828857D01*
X75965714Y-37828857D01*
X76060952Y-37876476D01*
X76108571Y-37924095D01*
X76156190Y-38019333D01*
X76156190Y-38400286D01*
X76632381Y-36876476D02*
X76632381Y-37447905D01*
X76632381Y-37162191D02*
X75632381Y-37162191D01*
X75775238Y-37257429D01*
X75870476Y-37352667D01*
X75918095Y-37447905D01*
X75632381Y-36543143D02*
X75632381Y-35924095D01*
X76013333Y-36257429D01*
X76013333Y-36114571D01*
X76060952Y-36019333D01*
X76108571Y-35971714D01*
X76203810Y-35924095D01*
X76441905Y-35924095D01*
X76537143Y-35971714D01*
X76584762Y-36019333D01*
X76632381Y-36114571D01*
X76632381Y-36400286D01*
X76584762Y-36495524D01*
X76537143Y-36543143D01*
X71389381Y-38010857D02*
X70913190Y-38344191D01*
X71389381Y-38582286D02*
X70389381Y-38582286D01*
X70389381Y-38201333D01*
X70437000Y-38106095D01*
X70484619Y-38058476D01*
X70579857Y-38010857D01*
X70722714Y-38010857D01*
X70817952Y-38058476D01*
X70865571Y-38106095D01*
X70913190Y-38201333D01*
X70913190Y-38582286D01*
X71389381Y-37058476D02*
X71389381Y-37629905D01*
X71389381Y-37344191D02*
X70389381Y-37344191D01*
X70532238Y-37439429D01*
X70627476Y-37534667D01*
X70675095Y-37629905D01*
X70722714Y-36201333D02*
X71389381Y-36201333D01*
X70341762Y-36439429D02*
X71056048Y-36677524D01*
X71056048Y-36058476D01*
X81219143Y-39048981D02*
X80885809Y-38572790D01*
X80647714Y-39048981D02*
X80647714Y-38048981D01*
X81028667Y-38048981D01*
X81123905Y-38096600D01*
X81171524Y-38144219D01*
X81219143Y-38239457D01*
X81219143Y-38382314D01*
X81171524Y-38477552D01*
X81123905Y-38525171D01*
X81028667Y-38572790D01*
X80647714Y-38572790D01*
X82171524Y-39048981D02*
X81600095Y-39048981D01*
X81885809Y-39048981D02*
X81885809Y-38048981D01*
X81790571Y-38191838D01*
X81695333Y-38287076D01*
X81600095Y-38334695D01*
X83076286Y-38048981D02*
X82600095Y-38048981D01*
X82552476Y-38525171D01*
X82600095Y-38477552D01*
X82695333Y-38429933D01*
X82933429Y-38429933D01*
X83028667Y-38477552D01*
X83076286Y-38525171D01*
X83123905Y-38620410D01*
X83123905Y-38858505D01*
X83076286Y-38953743D01*
X83028667Y-39001362D01*
X82933429Y-39048981D01*
X82695333Y-39048981D01*
X82600095Y-39001362D01*
X82552476Y-38953743D01*
X93494981Y-34316857D02*
X93018790Y-34650191D01*
X93494981Y-34888286D02*
X92494981Y-34888286D01*
X92494981Y-34507333D01*
X92542600Y-34412095D01*
X92590219Y-34364476D01*
X92685457Y-34316857D01*
X92828314Y-34316857D01*
X92923552Y-34364476D01*
X92971171Y-34412095D01*
X93018790Y-34507333D01*
X93018790Y-34888286D01*
X93494981Y-33364476D02*
X93494981Y-33935905D01*
X93494981Y-33650191D02*
X92494981Y-33650191D01*
X92637838Y-33745429D01*
X92733076Y-33840667D01*
X92780695Y-33935905D01*
X92494981Y-32507333D02*
X92494981Y-32697810D01*
X92542600Y-32793048D01*
X92590219Y-32840667D01*
X92733076Y-32935905D01*
X92923552Y-32983524D01*
X93304505Y-32983524D01*
X93399743Y-32935905D01*
X93447362Y-32888286D01*
X93494981Y-32793048D01*
X93494981Y-32602571D01*
X93447362Y-32507333D01*
X93399743Y-32459714D01*
X93304505Y-32412095D01*
X93066410Y-32412095D01*
X92971171Y-32459714D01*
X92923552Y-32507333D01*
X92875933Y-32602571D01*
X92875933Y-32793048D01*
X92923552Y-32888286D01*
X92971171Y-32935905D01*
X93066410Y-32983524D01*
X89461143Y-41814981D02*
X89127809Y-41338790D01*
X88889714Y-41814981D02*
X88889714Y-40814981D01*
X89270667Y-40814981D01*
X89365905Y-40862600D01*
X89413524Y-40910219D01*
X89461143Y-41005457D01*
X89461143Y-41148314D01*
X89413524Y-41243552D01*
X89365905Y-41291171D01*
X89270667Y-41338790D01*
X88889714Y-41338790D01*
X90413524Y-41814981D02*
X89842095Y-41814981D01*
X90127809Y-41814981D02*
X90127809Y-40814981D01*
X90032571Y-40957838D01*
X89937333Y-41053076D01*
X89842095Y-41100695D01*
X90746857Y-40814981D02*
X91413524Y-40814981D01*
X90984952Y-41814981D01*
X93703143Y-36195381D02*
X93369809Y-35719190D01*
X93131714Y-36195381D02*
X93131714Y-35195381D01*
X93512667Y-35195381D01*
X93607905Y-35243000D01*
X93655524Y-35290619D01*
X93703143Y-35385857D01*
X93703143Y-35528714D01*
X93655524Y-35623952D01*
X93607905Y-35671571D01*
X93512667Y-35719190D01*
X93131714Y-35719190D01*
X94655524Y-36195381D02*
X94084095Y-36195381D01*
X94369809Y-36195381D02*
X94369809Y-35195381D01*
X94274571Y-35338238D01*
X94179333Y-35433476D01*
X94084095Y-35481095D01*
X95226952Y-35623952D02*
X95131714Y-35576333D01*
X95084095Y-35528714D01*
X95036476Y-35433476D01*
X95036476Y-35385857D01*
X95084095Y-35290619D01*
X95131714Y-35243000D01*
X95226952Y-35195381D01*
X95417429Y-35195381D01*
X95512667Y-35243000D01*
X95560286Y-35290619D01*
X95607905Y-35385857D01*
X95607905Y-35433476D01*
X95560286Y-35528714D01*
X95512667Y-35576333D01*
X95417429Y-35623952D01*
X95226952Y-35623952D01*
X95131714Y-35671571D01*
X95084095Y-35719190D01*
X95036476Y-35814429D01*
X95036476Y-36004905D01*
X95084095Y-36100143D01*
X95131714Y-36147762D01*
X95226952Y-36195381D01*
X95417429Y-36195381D01*
X95512667Y-36147762D01*
X95560286Y-36100143D01*
X95607905Y-36004905D01*
X95607905Y-35814429D01*
X95560286Y-35719190D01*
X95512667Y-35671571D01*
X95417429Y-35623952D01*
X36678095Y-50503781D02*
X37249524Y-50503781D01*
X36963809Y-51503781D02*
X36963809Y-50503781D01*
X37582857Y-51503781D02*
X37582857Y-50503781D01*
X37963810Y-50503781D01*
X38059048Y-50551400D01*
X38106667Y-50599019D01*
X38154286Y-50694257D01*
X38154286Y-50837114D01*
X38106667Y-50932352D01*
X38059048Y-50979971D01*
X37963810Y-51027590D01*
X37582857Y-51027590D01*
X38535238Y-50599019D02*
X38582857Y-50551400D01*
X38678095Y-50503781D01*
X38916191Y-50503781D01*
X39011429Y-50551400D01*
X39059048Y-50599019D01*
X39106667Y-50694257D01*
X39106667Y-50789495D01*
X39059048Y-50932352D01*
X38487619Y-51503781D01*
X39106667Y-51503781D01*
X55789095Y-35213381D02*
X56360524Y-35213381D01*
X56074809Y-36213381D02*
X56074809Y-35213381D01*
X56693857Y-36213381D02*
X56693857Y-35213381D01*
X57074810Y-35213381D01*
X57170048Y-35261000D01*
X57217667Y-35308619D01*
X57265286Y-35403857D01*
X57265286Y-35546714D01*
X57217667Y-35641952D01*
X57170048Y-35689571D01*
X57074810Y-35737190D01*
X56693857Y-35737190D01*
X58122429Y-35546714D02*
X58122429Y-36213381D01*
X57884333Y-35165762D02*
X57646238Y-35880048D01*
X58265286Y-35880048D01*
X98453095Y-39159781D02*
X99024524Y-39159781D01*
X98738809Y-40159781D02*
X98738809Y-39159781D01*
X99357857Y-40159781D02*
X99357857Y-39159781D01*
X99738810Y-39159781D01*
X99834048Y-39207400D01*
X99881667Y-39255019D01*
X99929286Y-39350257D01*
X99929286Y-39493114D01*
X99881667Y-39588352D01*
X99834048Y-39635971D01*
X99738810Y-39683590D01*
X99357857Y-39683590D01*
X100834048Y-39159781D02*
X100357857Y-39159781D01*
X100310238Y-39635971D01*
X100357857Y-39588352D01*
X100453095Y-39540733D01*
X100691191Y-39540733D01*
X100786429Y-39588352D01*
X100834048Y-39635971D01*
X100881667Y-39731210D01*
X100881667Y-39969305D01*
X100834048Y-40064543D01*
X100786429Y-40112162D01*
X100691191Y-40159781D01*
X100453095Y-40159781D01*
X100357857Y-40112162D01*
X100310238Y-40064543D01*
X116869381Y-37940905D02*
X117678905Y-37940905D01*
X117774143Y-37893286D01*
X117821762Y-37845667D01*
X117869381Y-37750429D01*
X117869381Y-37559952D01*
X117821762Y-37464714D01*
X117774143Y-37417095D01*
X117678905Y-37369476D01*
X116869381Y-37369476D01*
X116869381Y-36988524D02*
X116869381Y-36369476D01*
X117250333Y-36702810D01*
X117250333Y-36559952D01*
X117297952Y-36464714D01*
X117345571Y-36417095D01*
X117440810Y-36369476D01*
X117678905Y-36369476D01*
X117774143Y-36417095D01*
X117821762Y-36464714D01*
X117869381Y-36559952D01*
X117869381Y-36845667D01*
X117821762Y-36940905D01*
X117774143Y-36988524D01*
X106975981Y-48405905D02*
X107785505Y-48405905D01*
X107880743Y-48358286D01*
X107928362Y-48310667D01*
X107975981Y-48215429D01*
X107975981Y-48024952D01*
X107928362Y-47929714D01*
X107880743Y-47882095D01*
X107785505Y-47834476D01*
X106975981Y-47834476D01*
X106975981Y-46882095D02*
X106975981Y-47358286D01*
X107452171Y-47405905D01*
X107404552Y-47358286D01*
X107356933Y-47263048D01*
X107356933Y-47024952D01*
X107404552Y-46929714D01*
X107452171Y-46882095D01*
X107547410Y-46834476D01*
X107785505Y-46834476D01*
X107880743Y-46882095D01*
X107928362Y-46929714D01*
X107975981Y-47024952D01*
X107975981Y-47263048D01*
X107928362Y-47358286D01*
X107880743Y-47405905D01*
X95748095Y-71162381D02*
X95748095Y-71971905D01*
X95795714Y-72067143D01*
X95843333Y-72114762D01*
X95938571Y-72162381D01*
X96129048Y-72162381D01*
X96224286Y-72114762D01*
X96271905Y-72067143D01*
X96319524Y-71971905D01*
X96319524Y-71162381D01*
X97224286Y-71162381D02*
X97033809Y-71162381D01*
X96938571Y-71210000D01*
X96890952Y-71257619D01*
X96795714Y-71400476D01*
X96748095Y-71590952D01*
X96748095Y-71971905D01*
X96795714Y-72067143D01*
X96843333Y-72114762D01*
X96938571Y-72162381D01*
X97129048Y-72162381D01*
X97224286Y-72114762D01*
X97271905Y-72067143D01*
X97319524Y-71971905D01*
X97319524Y-71733810D01*
X97271905Y-71638571D01*
X97224286Y-71590952D01*
X97129048Y-71543333D01*
X96938571Y-71543333D01*
X96843333Y-71590952D01*
X96795714Y-71638571D01*
X96748095Y-71733810D01*
X112207095Y-56816581D02*
X112207095Y-57626105D01*
X112254714Y-57721343D01*
X112302333Y-57768962D01*
X112397571Y-57816581D01*
X112588048Y-57816581D01*
X112683286Y-57768962D01*
X112730905Y-57721343D01*
X112778524Y-57626105D01*
X112778524Y-56816581D01*
X113397571Y-57245152D02*
X113302333Y-57197533D01*
X113254714Y-57149914D01*
X113207095Y-57054676D01*
X113207095Y-57007057D01*
X113254714Y-56911819D01*
X113302333Y-56864200D01*
X113397571Y-56816581D01*
X113588048Y-56816581D01*
X113683286Y-56864200D01*
X113730905Y-56911819D01*
X113778524Y-57007057D01*
X113778524Y-57054676D01*
X113730905Y-57149914D01*
X113683286Y-57197533D01*
X113588048Y-57245152D01*
X113397571Y-57245152D01*
X113302333Y-57292771D01*
X113254714Y-57340390D01*
X113207095Y-57435629D01*
X113207095Y-57626105D01*
X113254714Y-57721343D01*
X113302333Y-57768962D01*
X113397571Y-57816581D01*
X113588048Y-57816581D01*
X113683286Y-57768962D01*
X113730905Y-57721343D01*
X113778524Y-57626105D01*
X113778524Y-57435629D01*
X113730905Y-57340390D01*
X113683286Y-57292771D01*
X113588048Y-57245152D01*
X114178095Y-70227581D02*
X114178095Y-71037105D01*
X114225714Y-71132343D01*
X114273333Y-71179962D01*
X114368571Y-71227581D01*
X114559048Y-71227581D01*
X114654286Y-71179962D01*
X114701905Y-71132343D01*
X114749524Y-71037105D01*
X114749524Y-70227581D01*
X115273333Y-71227581D02*
X115463809Y-71227581D01*
X115559048Y-71179962D01*
X115606667Y-71132343D01*
X115701905Y-70989486D01*
X115749524Y-70799010D01*
X115749524Y-70418057D01*
X115701905Y-70322819D01*
X115654286Y-70275200D01*
X115559048Y-70227581D01*
X115368571Y-70227581D01*
X115273333Y-70275200D01*
X115225714Y-70322819D01*
X115178095Y-70418057D01*
X115178095Y-70656152D01*
X115225714Y-70751390D01*
X115273333Y-70799010D01*
X115368571Y-70846629D01*
X115559048Y-70846629D01*
X115654286Y-70799010D01*
X115701905Y-70751390D01*
X115749524Y-70656152D01*
X108601381Y-71282095D02*
X109410905Y-71282095D01*
X109506143Y-71234476D01*
X109553762Y-71186857D01*
X109601381Y-71091619D01*
X109601381Y-70901142D01*
X109553762Y-70805904D01*
X109506143Y-70758285D01*
X109410905Y-70710666D01*
X108601381Y-70710666D01*
X109601381Y-69710666D02*
X109601381Y-70282095D01*
X109601381Y-69996381D02*
X108601381Y-69996381D01*
X108744238Y-70091619D01*
X108839476Y-70186857D01*
X108887095Y-70282095D01*
X108601381Y-69091619D02*
X108601381Y-68996380D01*
X108649000Y-68901142D01*
X108696619Y-68853523D01*
X108791857Y-68805904D01*
X108982333Y-68758285D01*
X109220429Y-68758285D01*
X109410905Y-68805904D01*
X109506143Y-68853523D01*
X109553762Y-68901142D01*
X109601381Y-68996380D01*
X109601381Y-69091619D01*
X109553762Y-69186857D01*
X109506143Y-69234476D01*
X109410905Y-69282095D01*
X109220429Y-69329714D01*
X108982333Y-69329714D01*
X108791857Y-69282095D01*
X108696619Y-69234476D01*
X108649000Y-69186857D01*
X108601381Y-69091619D01*
X117039581Y-72128095D02*
X117849105Y-72128095D01*
X117944343Y-72080476D01*
X117991962Y-72032857D01*
X118039581Y-71937619D01*
X118039581Y-71747142D01*
X117991962Y-71651904D01*
X117944343Y-71604285D01*
X117849105Y-71556666D01*
X117039581Y-71556666D01*
X118039581Y-70556666D02*
X118039581Y-71128095D01*
X118039581Y-70842381D02*
X117039581Y-70842381D01*
X117182438Y-70937619D01*
X117277676Y-71032857D01*
X117325295Y-71128095D01*
X118039581Y-69604285D02*
X118039581Y-70175714D01*
X118039581Y-69890000D02*
X117039581Y-69890000D01*
X117182438Y-69985238D01*
X117277676Y-70080476D01*
X117325295Y-70175714D01*
X58075905Y-49195381D02*
X58075905Y-50004905D01*
X58123524Y-50100143D01*
X58171143Y-50147762D01*
X58266381Y-50195381D01*
X58456858Y-50195381D01*
X58552096Y-50147762D01*
X58599715Y-50100143D01*
X58647334Y-50004905D01*
X58647334Y-49195381D01*
X59647334Y-50195381D02*
X59075905Y-50195381D01*
X59361619Y-50195381D02*
X59361619Y-49195381D01*
X59266381Y-49338238D01*
X59171143Y-49433476D01*
X59075905Y-49481095D01*
X60028286Y-49290619D02*
X60075905Y-49243000D01*
X60171143Y-49195381D01*
X60409239Y-49195381D01*
X60504477Y-49243000D01*
X60552096Y-49290619D01*
X60599715Y-49385857D01*
X60599715Y-49481095D01*
X60552096Y-49623952D01*
X59980667Y-50195381D01*
X60599715Y-50195381D01*
X86510581Y-50514095D02*
X87320105Y-50514095D01*
X87415343Y-50466476D01*
X87462962Y-50418857D01*
X87510581Y-50323619D01*
X87510581Y-50133142D01*
X87462962Y-50037904D01*
X87415343Y-49990285D01*
X87320105Y-49942666D01*
X86510581Y-49942666D01*
X87510581Y-48942666D02*
X87510581Y-49514095D01*
X87510581Y-49228381D02*
X86510581Y-49228381D01*
X86653438Y-49323619D01*
X86748676Y-49418857D01*
X86796295Y-49514095D01*
X86510581Y-48609333D02*
X86510581Y-47990285D01*
X86891533Y-48323619D01*
X86891533Y-48180761D01*
X86939152Y-48085523D01*
X86986771Y-48037904D01*
X87082010Y-47990285D01*
X87320105Y-47990285D01*
X87415343Y-48037904D01*
X87462962Y-48085523D01*
X87510581Y-48180761D01*
X87510581Y-48466476D01*
X87462962Y-48561714D01*
X87415343Y-48609333D01*
X52339381Y-57174666D02*
X51863190Y-57508000D01*
X52339381Y-57746095D02*
X51339381Y-57746095D01*
X51339381Y-57365142D01*
X51387000Y-57269904D01*
X51434619Y-57222285D01*
X51529857Y-57174666D01*
X51672714Y-57174666D01*
X51767952Y-57222285D01*
X51815571Y-57269904D01*
X51863190Y-57365142D01*
X51863190Y-57746095D01*
X51434619Y-56793714D02*
X51387000Y-56746095D01*
X51339381Y-56650857D01*
X51339381Y-56412761D01*
X51387000Y-56317523D01*
X51434619Y-56269904D01*
X51529857Y-56222285D01*
X51625095Y-56222285D01*
X51767952Y-56269904D01*
X52339381Y-56841333D01*
X52339381Y-56222285D01*
X67372381Y-74492905D02*
X68181905Y-74492905D01*
X68277143Y-74445286D01*
X68324762Y-74397667D01*
X68372381Y-74302429D01*
X68372381Y-74111952D01*
X68324762Y-74016714D01*
X68277143Y-73969095D01*
X68181905Y-73921476D01*
X67372381Y-73921476D01*
X67467619Y-73492905D02*
X67420000Y-73445286D01*
X67372381Y-73350048D01*
X67372381Y-73111952D01*
X67420000Y-73016714D01*
X67467619Y-72969095D01*
X67562857Y-72921476D01*
X67658095Y-72921476D01*
X67800952Y-72969095D01*
X68372381Y-73540524D01*
X68372381Y-72921476D01*
X100858095Y-71224381D02*
X100858095Y-72033905D01*
X100905714Y-72129143D01*
X100953333Y-72176762D01*
X101048571Y-72224381D01*
X101239048Y-72224381D01*
X101334286Y-72176762D01*
X101381905Y-72129143D01*
X101429524Y-72033905D01*
X101429524Y-71224381D01*
X101810476Y-71224381D02*
X102477143Y-71224381D01*
X102048571Y-72224381D01*
M02*
