G04 #@! TF.FileFunction,Legend,Top*
%FSLAX46Y46*%
G04 Gerber Fmt 4.6, Leading zero omitted, Abs format (unit mm)*
G04 Created by KiCad (PCBNEW 4.0.7) date 02/09/18 12:45:16*
%MOMM*%
%LPD*%
G01*
G04 APERTURE LIST*
%ADD10C,0.100000*%
%ADD11C,0.300000*%
%ADD12C,0.120000*%
%ADD13C,0.150000*%
G04 APERTURE END LIST*
D10*
D11*
X38206667Y-33018524D02*
X40492382Y-33018524D01*
X39349525Y-37018524D02*
X39349525Y-33018524D01*
X43349524Y-36828048D02*
X42968572Y-37018524D01*
X42206667Y-37018524D01*
X41825715Y-36828048D01*
X41635239Y-36447095D01*
X41635239Y-34923286D01*
X41825715Y-34542333D01*
X42206667Y-34351857D01*
X42968572Y-34351857D01*
X43349524Y-34542333D01*
X43540001Y-34923286D01*
X43540001Y-35304238D01*
X41635239Y-35685190D01*
X46968572Y-37018524D02*
X46968572Y-34923286D01*
X46778095Y-34542333D01*
X46397143Y-34351857D01*
X45635238Y-34351857D01*
X45254286Y-34542333D01*
X46968572Y-36828048D02*
X46587619Y-37018524D01*
X45635238Y-37018524D01*
X45254286Y-36828048D01*
X45063810Y-36447095D01*
X45063810Y-36066143D01*
X45254286Y-35685190D01*
X45635238Y-35494714D01*
X46587619Y-35494714D01*
X46968572Y-35304238D01*
X48873334Y-37018524D02*
X48873334Y-34351857D01*
X48873334Y-34732810D02*
X49063810Y-34542333D01*
X49444763Y-34351857D01*
X50016191Y-34351857D01*
X50397143Y-34542333D01*
X50587620Y-34923286D01*
X50587620Y-37018524D01*
X50587620Y-34923286D02*
X50778096Y-34542333D01*
X51159048Y-34351857D01*
X51730477Y-34351857D01*
X52111429Y-34542333D01*
X52301905Y-34923286D01*
X52301905Y-37018524D01*
X42016190Y-41223286D02*
X42587619Y-41413762D01*
X42778095Y-41604238D01*
X42968571Y-41985190D01*
X42968571Y-42556619D01*
X42778095Y-42937571D01*
X42587619Y-43128048D01*
X42206666Y-43318524D01*
X40682857Y-43318524D01*
X40682857Y-39318524D01*
X42016190Y-39318524D01*
X42397143Y-39509000D01*
X42587619Y-39699476D01*
X42778095Y-40080429D01*
X42778095Y-40461381D01*
X42587619Y-40842333D01*
X42397143Y-41032810D01*
X42016190Y-41223286D01*
X40682857Y-41223286D01*
X45254286Y-43318524D02*
X44873333Y-43128048D01*
X44682857Y-42747095D01*
X44682857Y-39318524D01*
X46778095Y-43318524D02*
X46778095Y-40651857D01*
X46778095Y-39318524D02*
X46587619Y-39509000D01*
X46778095Y-39699476D01*
X46968571Y-39509000D01*
X46778095Y-39318524D01*
X46778095Y-39699476D01*
X48682857Y-40651857D02*
X48682857Y-44651857D01*
X48682857Y-40842333D02*
X49063809Y-40651857D01*
X49825714Y-40651857D01*
X50206666Y-40842333D01*
X50397143Y-41032810D01*
X50587619Y-41413762D01*
X50587619Y-42556619D01*
X50397143Y-42937571D01*
X50206666Y-43128048D01*
X49825714Y-43318524D01*
X49063809Y-43318524D01*
X48682857Y-43128048D01*
D12*
X51008691Y-48616704D02*
G75*
G02X51049000Y-50926000I40309J-1154296D01*
G01*
X51069121Y-50925052D02*
G75*
G02X49920000Y-49531000I-20121J1154052D01*
G01*
X51925000Y-49037000D02*
X50314000Y-50647000D01*
X55332000Y-48851000D02*
X58932000Y-48851000D01*
X54807816Y-48123795D02*
G75*
G03X55332000Y-48851000I2324184J1122795D01*
G01*
X54775600Y-45902193D02*
G75*
G02X57132000Y-44401000I2356400J-1098807D01*
G01*
X59488400Y-45902193D02*
G75*
G03X57132000Y-44401000I-2356400J-1098807D01*
G01*
X59456184Y-48123795D02*
G75*
G02X58932000Y-48851000I-2324184J1122795D01*
G01*
D13*
X87920381Y-78866905D02*
X88729905Y-78866905D01*
X88825143Y-78819286D01*
X88872762Y-78771667D01*
X88920381Y-78676429D01*
X88920381Y-78485952D01*
X88872762Y-78390714D01*
X88825143Y-78343095D01*
X88729905Y-78295476D01*
X87920381Y-78295476D01*
X88253714Y-77390714D02*
X88920381Y-77390714D01*
X87872762Y-77628810D02*
X88587048Y-77866905D01*
X88587048Y-77247857D01*
X103201334Y-54199181D02*
X102725143Y-54199181D01*
X102725143Y-53199181D01*
X103487048Y-53294419D02*
X103534667Y-53246800D01*
X103629905Y-53199181D01*
X103868001Y-53199181D01*
X103963239Y-53246800D01*
X104010858Y-53294419D01*
X104058477Y-53389657D01*
X104058477Y-53484895D01*
X104010858Y-53627752D01*
X103439429Y-54199181D01*
X104058477Y-54199181D01*
X45152334Y-64395143D02*
X45104715Y-64442762D01*
X44961858Y-64490381D01*
X44866620Y-64490381D01*
X44723762Y-64442762D01*
X44628524Y-64347524D01*
X44580905Y-64252286D01*
X44533286Y-64061810D01*
X44533286Y-63918952D01*
X44580905Y-63728476D01*
X44628524Y-63633238D01*
X44723762Y-63538000D01*
X44866620Y-63490381D01*
X44961858Y-63490381D01*
X45104715Y-63538000D01*
X45152334Y-63585619D01*
X46104715Y-64490381D02*
X45533286Y-64490381D01*
X45819000Y-64490381D02*
X45819000Y-63490381D01*
X45723762Y-63633238D01*
X45628524Y-63728476D01*
X45533286Y-63776095D01*
X41320381Y-57469905D02*
X42129905Y-57469905D01*
X42225143Y-57422286D01*
X42272762Y-57374667D01*
X42320381Y-57279429D01*
X42320381Y-57088952D01*
X42272762Y-56993714D01*
X42225143Y-56946095D01*
X42129905Y-56898476D01*
X41320381Y-56898476D01*
X42320381Y-55898476D02*
X42320381Y-56469905D01*
X42320381Y-56184191D02*
X41320381Y-56184191D01*
X41463238Y-56279429D01*
X41558476Y-56374667D01*
X41606095Y-56469905D01*
X91392334Y-77578543D02*
X91344715Y-77626162D01*
X91201858Y-77673781D01*
X91106620Y-77673781D01*
X90963762Y-77626162D01*
X90868524Y-77530924D01*
X90820905Y-77435686D01*
X90773286Y-77245210D01*
X90773286Y-77102352D01*
X90820905Y-76911876D01*
X90868524Y-76816638D01*
X90963762Y-76721400D01*
X91106620Y-76673781D01*
X91201858Y-76673781D01*
X91344715Y-76721400D01*
X91392334Y-76769019D01*
X91725667Y-76673781D02*
X92392334Y-76673781D01*
X91963762Y-77673781D01*
X54276143Y-61545666D02*
X54323762Y-61593285D01*
X54371381Y-61736142D01*
X54371381Y-61831380D01*
X54323762Y-61974238D01*
X54228524Y-62069476D01*
X54133286Y-62117095D01*
X53942810Y-62164714D01*
X53799952Y-62164714D01*
X53609476Y-62117095D01*
X53514238Y-62069476D01*
X53419000Y-61974238D01*
X53371381Y-61831380D01*
X53371381Y-61736142D01*
X53419000Y-61593285D01*
X53466619Y-61545666D01*
X53466619Y-61164714D02*
X53419000Y-61117095D01*
X53371381Y-61021857D01*
X53371381Y-60783761D01*
X53419000Y-60688523D01*
X53466619Y-60640904D01*
X53561857Y-60593285D01*
X53657095Y-60593285D01*
X53799952Y-60640904D01*
X54371381Y-61212333D01*
X54371381Y-60593285D01*
X113082743Y-38668666D02*
X113130362Y-38716285D01*
X113177981Y-38859142D01*
X113177981Y-38954380D01*
X113130362Y-39097238D01*
X113035124Y-39192476D01*
X112939886Y-39240095D01*
X112749410Y-39287714D01*
X112606552Y-39287714D01*
X112416076Y-39240095D01*
X112320838Y-39192476D01*
X112225600Y-39097238D01*
X112177981Y-38954380D01*
X112177981Y-38859142D01*
X112225600Y-38716285D01*
X112273219Y-38668666D01*
X112177981Y-38335333D02*
X112177981Y-37716285D01*
X112558933Y-38049619D01*
X112558933Y-37906761D01*
X112606552Y-37811523D01*
X112654171Y-37763904D01*
X112749410Y-37716285D01*
X112987505Y-37716285D01*
X113082743Y-37763904D01*
X113130362Y-37811523D01*
X113177981Y-37906761D01*
X113177981Y-38192476D01*
X113130362Y-38287714D01*
X113082743Y-38335333D01*
X106742334Y-33134543D02*
X106694715Y-33182162D01*
X106551858Y-33229781D01*
X106456620Y-33229781D01*
X106313762Y-33182162D01*
X106218524Y-33086924D01*
X106170905Y-32991686D01*
X106123286Y-32801210D01*
X106123286Y-32658352D01*
X106170905Y-32467876D01*
X106218524Y-32372638D01*
X106313762Y-32277400D01*
X106456620Y-32229781D01*
X106551858Y-32229781D01*
X106694715Y-32277400D01*
X106742334Y-32325019D01*
X107599477Y-32563114D02*
X107599477Y-33229781D01*
X107361381Y-32182162D02*
X107123286Y-32896448D01*
X107742334Y-32896448D01*
X94382334Y-50458743D02*
X94334715Y-50506362D01*
X94191858Y-50553981D01*
X94096620Y-50553981D01*
X93953762Y-50506362D01*
X93858524Y-50411124D01*
X93810905Y-50315886D01*
X93763286Y-50125410D01*
X93763286Y-49982552D01*
X93810905Y-49792076D01*
X93858524Y-49696838D01*
X93953762Y-49601600D01*
X94096620Y-49553981D01*
X94191858Y-49553981D01*
X94334715Y-49601600D01*
X94382334Y-49649219D01*
X95287096Y-49553981D02*
X94810905Y-49553981D01*
X94763286Y-50030171D01*
X94810905Y-49982552D01*
X94906143Y-49934933D01*
X95144239Y-49934933D01*
X95239477Y-49982552D01*
X95287096Y-50030171D01*
X95334715Y-50125410D01*
X95334715Y-50363505D01*
X95287096Y-50458743D01*
X95239477Y-50506362D01*
X95144239Y-50553981D01*
X94906143Y-50553981D01*
X94810905Y-50506362D01*
X94763286Y-50458743D01*
X106193334Y-42323143D02*
X106145715Y-42370762D01*
X106002858Y-42418381D01*
X105907620Y-42418381D01*
X105764762Y-42370762D01*
X105669524Y-42275524D01*
X105621905Y-42180286D01*
X105574286Y-41989810D01*
X105574286Y-41846952D01*
X105621905Y-41656476D01*
X105669524Y-41561238D01*
X105764762Y-41466000D01*
X105907620Y-41418381D01*
X106002858Y-41418381D01*
X106145715Y-41466000D01*
X106193334Y-41513619D01*
X107050477Y-41418381D02*
X106860000Y-41418381D01*
X106764762Y-41466000D01*
X106717143Y-41513619D01*
X106621905Y-41656476D01*
X106574286Y-41846952D01*
X106574286Y-42227905D01*
X106621905Y-42323143D01*
X106669524Y-42370762D01*
X106764762Y-42418381D01*
X106955239Y-42418381D01*
X107050477Y-42370762D01*
X107098096Y-42323143D01*
X107145715Y-42227905D01*
X107145715Y-41989810D01*
X107098096Y-41894571D01*
X107050477Y-41846952D01*
X106955239Y-41799333D01*
X106764762Y-41799333D01*
X106669524Y-41846952D01*
X106621905Y-41894571D01*
X106574286Y-41989810D01*
X100694143Y-71321666D02*
X100741762Y-71369285D01*
X100789381Y-71512142D01*
X100789381Y-71607380D01*
X100741762Y-71750238D01*
X100646524Y-71845476D01*
X100551286Y-71893095D01*
X100360810Y-71940714D01*
X100217952Y-71940714D01*
X100027476Y-71893095D01*
X99932238Y-71845476D01*
X99837000Y-71750238D01*
X99789381Y-71607380D01*
X99789381Y-71512142D01*
X99837000Y-71369285D01*
X99884619Y-71321666D01*
X100217952Y-70750238D02*
X100170333Y-70845476D01*
X100122714Y-70893095D01*
X100027476Y-70940714D01*
X99979857Y-70940714D01*
X99884619Y-70893095D01*
X99837000Y-70845476D01*
X99789381Y-70750238D01*
X99789381Y-70559761D01*
X99837000Y-70464523D01*
X99884619Y-70416904D01*
X99979857Y-70369285D01*
X100027476Y-70369285D01*
X100122714Y-70416904D01*
X100170333Y-70464523D01*
X100217952Y-70559761D01*
X100217952Y-70750238D01*
X100265571Y-70845476D01*
X100313190Y-70893095D01*
X100408429Y-70940714D01*
X100598905Y-70940714D01*
X100694143Y-70893095D01*
X100741762Y-70845476D01*
X100789381Y-70750238D01*
X100789381Y-70559761D01*
X100741762Y-70464523D01*
X100694143Y-70416904D01*
X100598905Y-70369285D01*
X100408429Y-70369285D01*
X100313190Y-70416904D01*
X100265571Y-70464523D01*
X100217952Y-70559761D01*
X100796334Y-59665143D02*
X100748715Y-59712762D01*
X100605858Y-59760381D01*
X100510620Y-59760381D01*
X100367762Y-59712762D01*
X100272524Y-59617524D01*
X100224905Y-59522286D01*
X100177286Y-59331810D01*
X100177286Y-59188952D01*
X100224905Y-58998476D01*
X100272524Y-58903238D01*
X100367762Y-58808000D01*
X100510620Y-58760381D01*
X100605858Y-58760381D01*
X100748715Y-58808000D01*
X100796334Y-58855619D01*
X101272524Y-59760381D02*
X101463000Y-59760381D01*
X101558239Y-59712762D01*
X101605858Y-59665143D01*
X101701096Y-59522286D01*
X101748715Y-59331810D01*
X101748715Y-58950857D01*
X101701096Y-58855619D01*
X101653477Y-58808000D01*
X101558239Y-58760381D01*
X101367762Y-58760381D01*
X101272524Y-58808000D01*
X101224905Y-58855619D01*
X101177286Y-58950857D01*
X101177286Y-59188952D01*
X101224905Y-59284190D01*
X101272524Y-59331810D01*
X101367762Y-59379429D01*
X101558239Y-59379429D01*
X101653477Y-59331810D01*
X101701096Y-59284190D01*
X101748715Y-59188952D01*
X104374543Y-50228857D02*
X104422162Y-50276476D01*
X104469781Y-50419333D01*
X104469781Y-50514571D01*
X104422162Y-50657429D01*
X104326924Y-50752667D01*
X104231686Y-50800286D01*
X104041210Y-50847905D01*
X103898352Y-50847905D01*
X103707876Y-50800286D01*
X103612638Y-50752667D01*
X103517400Y-50657429D01*
X103469781Y-50514571D01*
X103469781Y-50419333D01*
X103517400Y-50276476D01*
X103565019Y-50228857D01*
X104469781Y-49276476D02*
X104469781Y-49847905D01*
X104469781Y-49562191D02*
X103469781Y-49562191D01*
X103612638Y-49657429D01*
X103707876Y-49752667D01*
X103755495Y-49847905D01*
X103469781Y-48657429D02*
X103469781Y-48562190D01*
X103517400Y-48466952D01*
X103565019Y-48419333D01*
X103660257Y-48371714D01*
X103850733Y-48324095D01*
X104088829Y-48324095D01*
X104279305Y-48371714D01*
X104374543Y-48419333D01*
X104422162Y-48466952D01*
X104469781Y-48562190D01*
X104469781Y-48657429D01*
X104422162Y-48752667D01*
X104374543Y-48800286D01*
X104279305Y-48847905D01*
X104088829Y-48895524D01*
X103850733Y-48895524D01*
X103660257Y-48847905D01*
X103565019Y-48800286D01*
X103517400Y-48752667D01*
X103469781Y-48657429D01*
X97426143Y-53140743D02*
X97378524Y-53188362D01*
X97235667Y-53235981D01*
X97140429Y-53235981D01*
X96997571Y-53188362D01*
X96902333Y-53093124D01*
X96854714Y-52997886D01*
X96807095Y-52807410D01*
X96807095Y-52664552D01*
X96854714Y-52474076D01*
X96902333Y-52378838D01*
X96997571Y-52283600D01*
X97140429Y-52235981D01*
X97235667Y-52235981D01*
X97378524Y-52283600D01*
X97426143Y-52331219D01*
X98378524Y-53235981D02*
X97807095Y-53235981D01*
X98092809Y-53235981D02*
X98092809Y-52235981D01*
X97997571Y-52378838D01*
X97902333Y-52474076D01*
X97807095Y-52521695D01*
X99330905Y-53235981D02*
X98759476Y-53235981D01*
X99045190Y-53235981D02*
X99045190Y-52235981D01*
X98949952Y-52378838D01*
X98854714Y-52474076D01*
X98759476Y-52521695D01*
X113071743Y-57355857D02*
X113119362Y-57403476D01*
X113166981Y-57546333D01*
X113166981Y-57641571D01*
X113119362Y-57784429D01*
X113024124Y-57879667D01*
X112928886Y-57927286D01*
X112738410Y-57974905D01*
X112595552Y-57974905D01*
X112405076Y-57927286D01*
X112309838Y-57879667D01*
X112214600Y-57784429D01*
X112166981Y-57641571D01*
X112166981Y-57546333D01*
X112214600Y-57403476D01*
X112262219Y-57355857D01*
X113166981Y-56403476D02*
X113166981Y-56974905D01*
X113166981Y-56689191D02*
X112166981Y-56689191D01*
X112309838Y-56784429D01*
X112405076Y-56879667D01*
X112452695Y-56974905D01*
X112262219Y-56022524D02*
X112214600Y-55974905D01*
X112166981Y-55879667D01*
X112166981Y-55641571D01*
X112214600Y-55546333D01*
X112262219Y-55498714D01*
X112357457Y-55451095D01*
X112452695Y-55451095D01*
X112595552Y-55498714D01*
X113166981Y-56070143D01*
X113166981Y-55451095D01*
X87713143Y-38153857D02*
X87760762Y-38201476D01*
X87808381Y-38344333D01*
X87808381Y-38439571D01*
X87760762Y-38582429D01*
X87665524Y-38677667D01*
X87570286Y-38725286D01*
X87379810Y-38772905D01*
X87236952Y-38772905D01*
X87046476Y-38725286D01*
X86951238Y-38677667D01*
X86856000Y-38582429D01*
X86808381Y-38439571D01*
X86808381Y-38344333D01*
X86856000Y-38201476D01*
X86903619Y-38153857D01*
X87808381Y-37201476D02*
X87808381Y-37772905D01*
X87808381Y-37487191D02*
X86808381Y-37487191D01*
X86951238Y-37582429D01*
X87046476Y-37677667D01*
X87094095Y-37772905D01*
X86808381Y-36296714D02*
X86808381Y-36772905D01*
X87284571Y-36820524D01*
X87236952Y-36772905D01*
X87189333Y-36677667D01*
X87189333Y-36439571D01*
X87236952Y-36344333D01*
X87284571Y-36296714D01*
X87379810Y-36249095D01*
X87617905Y-36249095D01*
X87713143Y-36296714D01*
X87760762Y-36344333D01*
X87808381Y-36439571D01*
X87808381Y-36677667D01*
X87760762Y-36772905D01*
X87713143Y-36820524D01*
X81135143Y-34314743D02*
X81087524Y-34362362D01*
X80944667Y-34409981D01*
X80849429Y-34409981D01*
X80706571Y-34362362D01*
X80611333Y-34267124D01*
X80563714Y-34171886D01*
X80516095Y-33981410D01*
X80516095Y-33838552D01*
X80563714Y-33648076D01*
X80611333Y-33552838D01*
X80706571Y-33457600D01*
X80849429Y-33409981D01*
X80944667Y-33409981D01*
X81087524Y-33457600D01*
X81135143Y-33505219D01*
X82087524Y-34409981D02*
X81516095Y-34409981D01*
X81801809Y-34409981D02*
X81801809Y-33409981D01*
X81706571Y-33552838D01*
X81611333Y-33648076D01*
X81516095Y-33695695D01*
X82944667Y-33409981D02*
X82754190Y-33409981D01*
X82658952Y-33457600D01*
X82611333Y-33505219D01*
X82516095Y-33648076D01*
X82468476Y-33838552D01*
X82468476Y-34219505D01*
X82516095Y-34314743D01*
X82563714Y-34362362D01*
X82658952Y-34409981D01*
X82849429Y-34409981D01*
X82944667Y-34362362D01*
X82992286Y-34314743D01*
X83039905Y-34219505D01*
X83039905Y-33981410D01*
X82992286Y-33886171D01*
X82944667Y-33838552D01*
X82849429Y-33790933D01*
X82658952Y-33790933D01*
X82563714Y-33838552D01*
X82516095Y-33886171D01*
X82468476Y-33981410D01*
X106929381Y-38408666D02*
X106929381Y-38884857D01*
X105929381Y-38884857D01*
X106929381Y-37551523D02*
X106929381Y-38122952D01*
X106929381Y-37837238D02*
X105929381Y-37837238D01*
X106072238Y-37932476D01*
X106167476Y-38027714D01*
X106215095Y-38122952D01*
X100920334Y-47061181D02*
X100444143Y-47061181D01*
X100444143Y-46061181D01*
X101158429Y-46061181D02*
X101777477Y-46061181D01*
X101444143Y-46442133D01*
X101587001Y-46442133D01*
X101682239Y-46489752D01*
X101729858Y-46537371D01*
X101777477Y-46632610D01*
X101777477Y-46870705D01*
X101729858Y-46965943D01*
X101682239Y-47013562D01*
X101587001Y-47061181D01*
X101301286Y-47061181D01*
X101206048Y-47013562D01*
X101158429Y-46965943D01*
X47488934Y-52629381D02*
X47155600Y-52153190D01*
X46917505Y-52629381D02*
X46917505Y-51629381D01*
X47298458Y-51629381D01*
X47393696Y-51677000D01*
X47441315Y-51724619D01*
X47488934Y-51819857D01*
X47488934Y-51962714D01*
X47441315Y-52057952D01*
X47393696Y-52105571D01*
X47298458Y-52153190D01*
X46917505Y-52153190D01*
X48441315Y-52629381D02*
X47869886Y-52629381D01*
X48155600Y-52629381D02*
X48155600Y-51629381D01*
X48060362Y-51772238D01*
X47965124Y-51867476D01*
X47869886Y-51915095D01*
X97344334Y-44424781D02*
X97011000Y-43948590D01*
X96772905Y-44424781D02*
X96772905Y-43424781D01*
X97153858Y-43424781D01*
X97249096Y-43472400D01*
X97296715Y-43520019D01*
X97344334Y-43615257D01*
X97344334Y-43758114D01*
X97296715Y-43853352D01*
X97249096Y-43900971D01*
X97153858Y-43948590D01*
X96772905Y-43948590D01*
X97677667Y-43424781D02*
X98296715Y-43424781D01*
X97963381Y-43805733D01*
X98106239Y-43805733D01*
X98201477Y-43853352D01*
X98249096Y-43900971D01*
X98296715Y-43996210D01*
X98296715Y-44234305D01*
X98249096Y-44329543D01*
X98201477Y-44377162D01*
X98106239Y-44424781D01*
X97820524Y-44424781D01*
X97725286Y-44377162D01*
X97677667Y-44329543D01*
X55966781Y-52856666D02*
X55490590Y-53190000D01*
X55966781Y-53428095D02*
X54966781Y-53428095D01*
X54966781Y-53047142D01*
X55014400Y-52951904D01*
X55062019Y-52904285D01*
X55157257Y-52856666D01*
X55300114Y-52856666D01*
X55395352Y-52904285D01*
X55442971Y-52951904D01*
X55490590Y-53047142D01*
X55490590Y-53428095D01*
X55300114Y-51999523D02*
X55966781Y-51999523D01*
X54919162Y-52237619D02*
X55633448Y-52475714D01*
X55633448Y-51856666D01*
X68910381Y-46252666D02*
X68434190Y-46586000D01*
X68910381Y-46824095D02*
X67910381Y-46824095D01*
X67910381Y-46443142D01*
X67958000Y-46347904D01*
X68005619Y-46300285D01*
X68100857Y-46252666D01*
X68243714Y-46252666D01*
X68338952Y-46300285D01*
X68386571Y-46347904D01*
X68434190Y-46443142D01*
X68434190Y-46824095D01*
X67910381Y-45347904D02*
X67910381Y-45824095D01*
X68386571Y-45871714D01*
X68338952Y-45824095D01*
X68291333Y-45728857D01*
X68291333Y-45490761D01*
X68338952Y-45395523D01*
X68386571Y-45347904D01*
X68481810Y-45300285D01*
X68719905Y-45300285D01*
X68815143Y-45347904D01*
X68862762Y-45395523D01*
X68910381Y-45490761D01*
X68910381Y-45728857D01*
X68862762Y-45824095D01*
X68815143Y-45871714D01*
X64562381Y-46292666D02*
X64086190Y-46626000D01*
X64562381Y-46864095D02*
X63562381Y-46864095D01*
X63562381Y-46483142D01*
X63610000Y-46387904D01*
X63657619Y-46340285D01*
X63752857Y-46292666D01*
X63895714Y-46292666D01*
X63990952Y-46340285D01*
X64038571Y-46387904D01*
X64086190Y-46483142D01*
X64086190Y-46864095D01*
X63562381Y-45435523D02*
X63562381Y-45626000D01*
X63610000Y-45721238D01*
X63657619Y-45768857D01*
X63800476Y-45864095D01*
X63990952Y-45911714D01*
X64371905Y-45911714D01*
X64467143Y-45864095D01*
X64514762Y-45816476D01*
X64562381Y-45721238D01*
X64562381Y-45530761D01*
X64514762Y-45435523D01*
X64467143Y-45387904D01*
X64371905Y-45340285D01*
X64133810Y-45340285D01*
X64038571Y-45387904D01*
X63990952Y-45435523D01*
X63943333Y-45530761D01*
X63943333Y-45721238D01*
X63990952Y-45816476D01*
X64038571Y-45864095D01*
X64133810Y-45911714D01*
X75008143Y-41844381D02*
X74674809Y-41368190D01*
X74436714Y-41844381D02*
X74436714Y-40844381D01*
X74817667Y-40844381D01*
X74912905Y-40892000D01*
X74960524Y-40939619D01*
X75008143Y-41034857D01*
X75008143Y-41177714D01*
X74960524Y-41272952D01*
X74912905Y-41320571D01*
X74817667Y-41368190D01*
X74436714Y-41368190D01*
X75960524Y-41844381D02*
X75389095Y-41844381D01*
X75674809Y-41844381D02*
X75674809Y-40844381D01*
X75579571Y-40987238D01*
X75484333Y-41082476D01*
X75389095Y-41130095D01*
X76912905Y-41844381D02*
X76341476Y-41844381D01*
X76627190Y-41844381D02*
X76627190Y-40844381D01*
X76531952Y-40987238D01*
X76436714Y-41082476D01*
X76341476Y-41130095D01*
X76632381Y-37828857D02*
X76156190Y-38162191D01*
X76632381Y-38400286D02*
X75632381Y-38400286D01*
X75632381Y-38019333D01*
X75680000Y-37924095D01*
X75727619Y-37876476D01*
X75822857Y-37828857D01*
X75965714Y-37828857D01*
X76060952Y-37876476D01*
X76108571Y-37924095D01*
X76156190Y-38019333D01*
X76156190Y-38400286D01*
X76632381Y-36876476D02*
X76632381Y-37447905D01*
X76632381Y-37162191D02*
X75632381Y-37162191D01*
X75775238Y-37257429D01*
X75870476Y-37352667D01*
X75918095Y-37447905D01*
X75632381Y-36543143D02*
X75632381Y-35924095D01*
X76013333Y-36257429D01*
X76013333Y-36114571D01*
X76060952Y-36019333D01*
X76108571Y-35971714D01*
X76203810Y-35924095D01*
X76441905Y-35924095D01*
X76537143Y-35971714D01*
X76584762Y-36019333D01*
X76632381Y-36114571D01*
X76632381Y-36400286D01*
X76584762Y-36495524D01*
X76537143Y-36543143D01*
X71389381Y-38010857D02*
X70913190Y-38344191D01*
X71389381Y-38582286D02*
X70389381Y-38582286D01*
X70389381Y-38201333D01*
X70437000Y-38106095D01*
X70484619Y-38058476D01*
X70579857Y-38010857D01*
X70722714Y-38010857D01*
X70817952Y-38058476D01*
X70865571Y-38106095D01*
X70913190Y-38201333D01*
X70913190Y-38582286D01*
X71389381Y-37058476D02*
X71389381Y-37629905D01*
X71389381Y-37344191D02*
X70389381Y-37344191D01*
X70532238Y-37439429D01*
X70627476Y-37534667D01*
X70675095Y-37629905D01*
X70722714Y-36201333D02*
X71389381Y-36201333D01*
X70341762Y-36439429D02*
X71056048Y-36677524D01*
X71056048Y-36058476D01*
X81219143Y-39048981D02*
X80885809Y-38572790D01*
X80647714Y-39048981D02*
X80647714Y-38048981D01*
X81028667Y-38048981D01*
X81123905Y-38096600D01*
X81171524Y-38144219D01*
X81219143Y-38239457D01*
X81219143Y-38382314D01*
X81171524Y-38477552D01*
X81123905Y-38525171D01*
X81028667Y-38572790D01*
X80647714Y-38572790D01*
X82171524Y-39048981D02*
X81600095Y-39048981D01*
X81885809Y-39048981D02*
X81885809Y-38048981D01*
X81790571Y-38191838D01*
X81695333Y-38287076D01*
X81600095Y-38334695D01*
X83076286Y-38048981D02*
X82600095Y-38048981D01*
X82552476Y-38525171D01*
X82600095Y-38477552D01*
X82695333Y-38429933D01*
X82933429Y-38429933D01*
X83028667Y-38477552D01*
X83076286Y-38525171D01*
X83123905Y-38620410D01*
X83123905Y-38858505D01*
X83076286Y-38953743D01*
X83028667Y-39001362D01*
X82933429Y-39048981D01*
X82695333Y-39048981D01*
X82600095Y-39001362D01*
X82552476Y-38953743D01*
X90286781Y-34312857D02*
X89810590Y-34646191D01*
X90286781Y-34884286D02*
X89286781Y-34884286D01*
X89286781Y-34503333D01*
X89334400Y-34408095D01*
X89382019Y-34360476D01*
X89477257Y-34312857D01*
X89620114Y-34312857D01*
X89715352Y-34360476D01*
X89762971Y-34408095D01*
X89810590Y-34503333D01*
X89810590Y-34884286D01*
X90286781Y-33360476D02*
X90286781Y-33931905D01*
X90286781Y-33646191D02*
X89286781Y-33646191D01*
X89429638Y-33741429D01*
X89524876Y-33836667D01*
X89572495Y-33931905D01*
X89286781Y-32503333D02*
X89286781Y-32693810D01*
X89334400Y-32789048D01*
X89382019Y-32836667D01*
X89524876Y-32931905D01*
X89715352Y-32979524D01*
X90096305Y-32979524D01*
X90191543Y-32931905D01*
X90239162Y-32884286D01*
X90286781Y-32789048D01*
X90286781Y-32598571D01*
X90239162Y-32503333D01*
X90191543Y-32455714D01*
X90096305Y-32408095D01*
X89858210Y-32408095D01*
X89762971Y-32455714D01*
X89715352Y-32503333D01*
X89667733Y-32598571D01*
X89667733Y-32789048D01*
X89715352Y-32884286D01*
X89762971Y-32931905D01*
X89858210Y-32979524D01*
X93515143Y-40434381D02*
X93181809Y-39958190D01*
X92943714Y-40434381D02*
X92943714Y-39434381D01*
X93324667Y-39434381D01*
X93419905Y-39482000D01*
X93467524Y-39529619D01*
X93515143Y-39624857D01*
X93515143Y-39767714D01*
X93467524Y-39862952D01*
X93419905Y-39910571D01*
X93324667Y-39958190D01*
X92943714Y-39958190D01*
X94467524Y-40434381D02*
X93896095Y-40434381D01*
X94181809Y-40434381D02*
X94181809Y-39434381D01*
X94086571Y-39577238D01*
X93991333Y-39672476D01*
X93896095Y-39720095D01*
X94800857Y-39434381D02*
X95467524Y-39434381D01*
X95038952Y-40434381D01*
X95918143Y-34386381D02*
X95584809Y-33910190D01*
X95346714Y-34386381D02*
X95346714Y-33386381D01*
X95727667Y-33386381D01*
X95822905Y-33434000D01*
X95870524Y-33481619D01*
X95918143Y-33576857D01*
X95918143Y-33719714D01*
X95870524Y-33814952D01*
X95822905Y-33862571D01*
X95727667Y-33910190D01*
X95346714Y-33910190D01*
X96870524Y-34386381D02*
X96299095Y-34386381D01*
X96584809Y-34386381D02*
X96584809Y-33386381D01*
X96489571Y-33529238D01*
X96394333Y-33624476D01*
X96299095Y-33672095D01*
X97441952Y-33814952D02*
X97346714Y-33767333D01*
X97299095Y-33719714D01*
X97251476Y-33624476D01*
X97251476Y-33576857D01*
X97299095Y-33481619D01*
X97346714Y-33434000D01*
X97441952Y-33386381D01*
X97632429Y-33386381D01*
X97727667Y-33434000D01*
X97775286Y-33481619D01*
X97822905Y-33576857D01*
X97822905Y-33624476D01*
X97775286Y-33719714D01*
X97727667Y-33767333D01*
X97632429Y-33814952D01*
X97441952Y-33814952D01*
X97346714Y-33862571D01*
X97299095Y-33910190D01*
X97251476Y-34005429D01*
X97251476Y-34195905D01*
X97299095Y-34291143D01*
X97346714Y-34338762D01*
X97441952Y-34386381D01*
X97632429Y-34386381D01*
X97727667Y-34338762D01*
X97775286Y-34291143D01*
X97822905Y-34195905D01*
X97822905Y-34005429D01*
X97775286Y-33910190D01*
X97727667Y-33862571D01*
X97632429Y-33814952D01*
X114766381Y-37906905D02*
X115575905Y-37906905D01*
X115671143Y-37859286D01*
X115718762Y-37811667D01*
X115766381Y-37716429D01*
X115766381Y-37525952D01*
X115718762Y-37430714D01*
X115671143Y-37383095D01*
X115575905Y-37335476D01*
X114766381Y-37335476D01*
X114766381Y-36954524D02*
X114766381Y-36335476D01*
X115147333Y-36668810D01*
X115147333Y-36525952D01*
X115194952Y-36430714D01*
X115242571Y-36383095D01*
X115337810Y-36335476D01*
X115575905Y-36335476D01*
X115671143Y-36383095D01*
X115718762Y-36430714D01*
X115766381Y-36525952D01*
X115766381Y-36811667D01*
X115718762Y-36906905D01*
X115671143Y-36954524D01*
X107043981Y-50101905D02*
X107853505Y-50101905D01*
X107948743Y-50054286D01*
X107996362Y-50006667D01*
X108043981Y-49911429D01*
X108043981Y-49720952D01*
X107996362Y-49625714D01*
X107948743Y-49578095D01*
X107853505Y-49530476D01*
X107043981Y-49530476D01*
X107043981Y-48578095D02*
X107043981Y-49054286D01*
X107520171Y-49101905D01*
X107472552Y-49054286D01*
X107424933Y-48959048D01*
X107424933Y-48720952D01*
X107472552Y-48625714D01*
X107520171Y-48578095D01*
X107615410Y-48530476D01*
X107853505Y-48530476D01*
X107948743Y-48578095D01*
X107996362Y-48625714D01*
X108043981Y-48720952D01*
X108043981Y-48959048D01*
X107996362Y-49054286D01*
X107948743Y-49101905D01*
X95827095Y-79871381D02*
X95827095Y-80680905D01*
X95874714Y-80776143D01*
X95922333Y-80823762D01*
X96017571Y-80871381D01*
X96208048Y-80871381D01*
X96303286Y-80823762D01*
X96350905Y-80776143D01*
X96398524Y-80680905D01*
X96398524Y-79871381D01*
X97303286Y-79871381D02*
X97112809Y-79871381D01*
X97017571Y-79919000D01*
X96969952Y-79966619D01*
X96874714Y-80109476D01*
X96827095Y-80299952D01*
X96827095Y-80680905D01*
X96874714Y-80776143D01*
X96922333Y-80823762D01*
X97017571Y-80871381D01*
X97208048Y-80871381D01*
X97303286Y-80823762D01*
X97350905Y-80776143D01*
X97398524Y-80680905D01*
X97398524Y-80442810D01*
X97350905Y-80347571D01*
X97303286Y-80299952D01*
X97208048Y-80252333D01*
X97017571Y-80252333D01*
X96922333Y-80299952D01*
X96874714Y-80347571D01*
X96827095Y-80442810D01*
X112116095Y-72502381D02*
X112116095Y-73311905D01*
X112163714Y-73407143D01*
X112211333Y-73454762D01*
X112306571Y-73502381D01*
X112497048Y-73502381D01*
X112592286Y-73454762D01*
X112639905Y-73407143D01*
X112687524Y-73311905D01*
X112687524Y-72502381D01*
X113306571Y-72930952D02*
X113211333Y-72883333D01*
X113163714Y-72835714D01*
X113116095Y-72740476D01*
X113116095Y-72692857D01*
X113163714Y-72597619D01*
X113211333Y-72550000D01*
X113306571Y-72502381D01*
X113497048Y-72502381D01*
X113592286Y-72550000D01*
X113639905Y-72597619D01*
X113687524Y-72692857D01*
X113687524Y-72740476D01*
X113639905Y-72835714D01*
X113592286Y-72883333D01*
X113497048Y-72930952D01*
X113306571Y-72930952D01*
X113211333Y-72978571D01*
X113163714Y-73026190D01*
X113116095Y-73121429D01*
X113116095Y-73311905D01*
X113163714Y-73407143D01*
X113211333Y-73454762D01*
X113306571Y-73502381D01*
X113497048Y-73502381D01*
X113592286Y-73454762D01*
X113639905Y-73407143D01*
X113687524Y-73311905D01*
X113687524Y-73121429D01*
X113639905Y-73026190D01*
X113592286Y-72978571D01*
X113497048Y-72930952D01*
X111305095Y-79035581D02*
X111305095Y-79845105D01*
X111352714Y-79940343D01*
X111400333Y-79987962D01*
X111495571Y-80035581D01*
X111686048Y-80035581D01*
X111781286Y-79987962D01*
X111828905Y-79940343D01*
X111876524Y-79845105D01*
X111876524Y-79035581D01*
X112400333Y-80035581D02*
X112590809Y-80035581D01*
X112686048Y-79987962D01*
X112733667Y-79940343D01*
X112828905Y-79797486D01*
X112876524Y-79607010D01*
X112876524Y-79226057D01*
X112828905Y-79130819D01*
X112781286Y-79083200D01*
X112686048Y-79035581D01*
X112495571Y-79035581D01*
X112400333Y-79083200D01*
X112352714Y-79130819D01*
X112305095Y-79226057D01*
X112305095Y-79464152D01*
X112352714Y-79559390D01*
X112400333Y-79607010D01*
X112495571Y-79654629D01*
X112686048Y-79654629D01*
X112781286Y-79607010D01*
X112828905Y-79559390D01*
X112876524Y-79464152D01*
X108583381Y-80029095D02*
X109392905Y-80029095D01*
X109488143Y-79981476D01*
X109535762Y-79933857D01*
X109583381Y-79838619D01*
X109583381Y-79648142D01*
X109535762Y-79552904D01*
X109488143Y-79505285D01*
X109392905Y-79457666D01*
X108583381Y-79457666D01*
X109583381Y-78457666D02*
X109583381Y-79029095D01*
X109583381Y-78743381D02*
X108583381Y-78743381D01*
X108726238Y-78838619D01*
X108821476Y-78933857D01*
X108869095Y-79029095D01*
X108583381Y-77838619D02*
X108583381Y-77743380D01*
X108631000Y-77648142D01*
X108678619Y-77600523D01*
X108773857Y-77552904D01*
X108964333Y-77505285D01*
X109202429Y-77505285D01*
X109392905Y-77552904D01*
X109488143Y-77600523D01*
X109535762Y-77648142D01*
X109583381Y-77743380D01*
X109583381Y-77838619D01*
X109535762Y-77933857D01*
X109488143Y-77981476D01*
X109392905Y-78029095D01*
X109202429Y-78076714D01*
X108964333Y-78076714D01*
X108773857Y-78029095D01*
X108678619Y-77981476D01*
X108631000Y-77933857D01*
X108583381Y-77838619D01*
X114935581Y-80892095D02*
X115745105Y-80892095D01*
X115840343Y-80844476D01*
X115887962Y-80796857D01*
X115935581Y-80701619D01*
X115935581Y-80511142D01*
X115887962Y-80415904D01*
X115840343Y-80368285D01*
X115745105Y-80320666D01*
X114935581Y-80320666D01*
X115935581Y-79320666D02*
X115935581Y-79892095D01*
X115935581Y-79606381D02*
X114935581Y-79606381D01*
X115078438Y-79701619D01*
X115173676Y-79796857D01*
X115221295Y-79892095D01*
X115935581Y-78368285D02*
X115935581Y-78939714D01*
X115935581Y-78654000D02*
X114935581Y-78654000D01*
X115078438Y-78749238D01*
X115173676Y-78844476D01*
X115221295Y-78939714D01*
X58075905Y-49195381D02*
X58075905Y-50004905D01*
X58123524Y-50100143D01*
X58171143Y-50147762D01*
X58266381Y-50195381D01*
X58456858Y-50195381D01*
X58552096Y-50147762D01*
X58599715Y-50100143D01*
X58647334Y-50004905D01*
X58647334Y-49195381D01*
X59647334Y-50195381D02*
X59075905Y-50195381D01*
X59361619Y-50195381D02*
X59361619Y-49195381D01*
X59266381Y-49338238D01*
X59171143Y-49433476D01*
X59075905Y-49481095D01*
X60028286Y-49290619D02*
X60075905Y-49243000D01*
X60171143Y-49195381D01*
X60409239Y-49195381D01*
X60504477Y-49243000D01*
X60552096Y-49290619D01*
X60599715Y-49385857D01*
X60599715Y-49481095D01*
X60552096Y-49623952D01*
X59980667Y-50195381D01*
X60599715Y-50195381D01*
X86510581Y-50514095D02*
X87320105Y-50514095D01*
X87415343Y-50466476D01*
X87462962Y-50418857D01*
X87510581Y-50323619D01*
X87510581Y-50133142D01*
X87462962Y-50037904D01*
X87415343Y-49990285D01*
X87320105Y-49942666D01*
X86510581Y-49942666D01*
X87510581Y-48942666D02*
X87510581Y-49514095D01*
X87510581Y-49228381D02*
X86510581Y-49228381D01*
X86653438Y-49323619D01*
X86748676Y-49418857D01*
X86796295Y-49514095D01*
X86510581Y-48609333D02*
X86510581Y-47990285D01*
X86891533Y-48323619D01*
X86891533Y-48180761D01*
X86939152Y-48085523D01*
X86986771Y-48037904D01*
X87082010Y-47990285D01*
X87320105Y-47990285D01*
X87415343Y-48037904D01*
X87462962Y-48085523D01*
X87510581Y-48180761D01*
X87510581Y-48466476D01*
X87462962Y-48561714D01*
X87415343Y-48609333D01*
X52339381Y-57174666D02*
X51863190Y-57508000D01*
X52339381Y-57746095D02*
X51339381Y-57746095D01*
X51339381Y-57365142D01*
X51387000Y-57269904D01*
X51434619Y-57222285D01*
X51529857Y-57174666D01*
X51672714Y-57174666D01*
X51767952Y-57222285D01*
X51815571Y-57269904D01*
X51863190Y-57365142D01*
X51863190Y-57746095D01*
X51434619Y-56793714D02*
X51387000Y-56746095D01*
X51339381Y-56650857D01*
X51339381Y-56412761D01*
X51387000Y-56317523D01*
X51434619Y-56269904D01*
X51529857Y-56222285D01*
X51625095Y-56222285D01*
X51767952Y-56269904D01*
X52339381Y-56841333D01*
X52339381Y-56222285D01*
X39663381Y-76814905D02*
X40472905Y-76814905D01*
X40568143Y-76767286D01*
X40615762Y-76719667D01*
X40663381Y-76624429D01*
X40663381Y-76433952D01*
X40615762Y-76338714D01*
X40568143Y-76291095D01*
X40472905Y-76243476D01*
X39663381Y-76243476D01*
X39758619Y-75814905D02*
X39711000Y-75767286D01*
X39663381Y-75672048D01*
X39663381Y-75433952D01*
X39711000Y-75338714D01*
X39758619Y-75291095D01*
X39853857Y-75243476D01*
X39949095Y-75243476D01*
X40091952Y-75291095D01*
X40663381Y-75862524D01*
X40663381Y-75243476D01*
X113052143Y-63736857D02*
X113099762Y-63784476D01*
X113147381Y-63927333D01*
X113147381Y-64022571D01*
X113099762Y-64165429D01*
X113004524Y-64260667D01*
X112909286Y-64308286D01*
X112718810Y-64355905D01*
X112575952Y-64355905D01*
X112385476Y-64308286D01*
X112290238Y-64260667D01*
X112195000Y-64165429D01*
X112147381Y-64022571D01*
X112147381Y-63927333D01*
X112195000Y-63784476D01*
X112242619Y-63736857D01*
X113147381Y-62784476D02*
X113147381Y-63355905D01*
X113147381Y-63070191D02*
X112147381Y-63070191D01*
X112290238Y-63165429D01*
X112385476Y-63260667D01*
X112433095Y-63355905D01*
X112147381Y-62451143D02*
X112147381Y-61784476D01*
X113147381Y-62213048D01*
X106032143Y-57858143D02*
X105984524Y-57905762D01*
X105841667Y-57953381D01*
X105746429Y-57953381D01*
X105603571Y-57905762D01*
X105508333Y-57810524D01*
X105460714Y-57715286D01*
X105413095Y-57524810D01*
X105413095Y-57381952D01*
X105460714Y-57191476D01*
X105508333Y-57096238D01*
X105603571Y-57001000D01*
X105746429Y-56953381D01*
X105841667Y-56953381D01*
X105984524Y-57001000D01*
X106032143Y-57048619D01*
X106984524Y-57953381D02*
X106413095Y-57953381D01*
X106698809Y-57953381D02*
X106698809Y-56953381D01*
X106603571Y-57096238D01*
X106508333Y-57191476D01*
X106413095Y-57239095D01*
X107555952Y-57381952D02*
X107460714Y-57334333D01*
X107413095Y-57286714D01*
X107365476Y-57191476D01*
X107365476Y-57143857D01*
X107413095Y-57048619D01*
X107460714Y-57001000D01*
X107555952Y-56953381D01*
X107746429Y-56953381D01*
X107841667Y-57001000D01*
X107889286Y-57048619D01*
X107936905Y-57143857D01*
X107936905Y-57191476D01*
X107889286Y-57286714D01*
X107841667Y-57334333D01*
X107746429Y-57381952D01*
X107555952Y-57381952D01*
X107460714Y-57429571D01*
X107413095Y-57477190D01*
X107365476Y-57572429D01*
X107365476Y-57762905D01*
X107413095Y-57858143D01*
X107460714Y-57905762D01*
X107555952Y-57953381D01*
X107746429Y-57953381D01*
X107841667Y-57905762D01*
X107889286Y-57858143D01*
X107936905Y-57762905D01*
X107936905Y-57572429D01*
X107889286Y-57477190D01*
X107841667Y-57429571D01*
X107746429Y-57381952D01*
X71722143Y-61378143D02*
X71674524Y-61425762D01*
X71531667Y-61473381D01*
X71436429Y-61473381D01*
X71293571Y-61425762D01*
X71198333Y-61330524D01*
X71150714Y-61235286D01*
X71103095Y-61044810D01*
X71103095Y-60901952D01*
X71150714Y-60711476D01*
X71198333Y-60616238D01*
X71293571Y-60521000D01*
X71436429Y-60473381D01*
X71531667Y-60473381D01*
X71674524Y-60521000D01*
X71722143Y-60568619D01*
X72674524Y-61473381D02*
X72103095Y-61473381D01*
X72388809Y-61473381D02*
X72388809Y-60473381D01*
X72293571Y-60616238D01*
X72198333Y-60711476D01*
X72103095Y-60759095D01*
X73150714Y-61473381D02*
X73341190Y-61473381D01*
X73436429Y-61425762D01*
X73484048Y-61378143D01*
X73579286Y-61235286D01*
X73626905Y-61044810D01*
X73626905Y-60663857D01*
X73579286Y-60568619D01*
X73531667Y-60521000D01*
X73436429Y-60473381D01*
X73245952Y-60473381D01*
X73150714Y-60521000D01*
X73103095Y-60568619D01*
X73055476Y-60663857D01*
X73055476Y-60901952D01*
X73103095Y-60997190D01*
X73150714Y-61044810D01*
X73245952Y-61092429D01*
X73436429Y-61092429D01*
X73531667Y-61044810D01*
X73579286Y-60997190D01*
X73626905Y-60901952D01*
X87245143Y-70197857D02*
X87292762Y-70245476D01*
X87340381Y-70388333D01*
X87340381Y-70483571D01*
X87292762Y-70626429D01*
X87197524Y-70721667D01*
X87102286Y-70769286D01*
X86911810Y-70816905D01*
X86768952Y-70816905D01*
X86578476Y-70769286D01*
X86483238Y-70721667D01*
X86388000Y-70626429D01*
X86340381Y-70483571D01*
X86340381Y-70388333D01*
X86388000Y-70245476D01*
X86435619Y-70197857D01*
X86435619Y-69816905D02*
X86388000Y-69769286D01*
X86340381Y-69674048D01*
X86340381Y-69435952D01*
X86388000Y-69340714D01*
X86435619Y-69293095D01*
X86530857Y-69245476D01*
X86626095Y-69245476D01*
X86768952Y-69293095D01*
X87340381Y-69864524D01*
X87340381Y-69245476D01*
X86340381Y-68626429D02*
X86340381Y-68531190D01*
X86388000Y-68435952D01*
X86435619Y-68388333D01*
X86530857Y-68340714D01*
X86721333Y-68293095D01*
X86959429Y-68293095D01*
X87149905Y-68340714D01*
X87245143Y-68388333D01*
X87292762Y-68435952D01*
X87340381Y-68531190D01*
X87340381Y-68626429D01*
X87292762Y-68721667D01*
X87245143Y-68769286D01*
X87149905Y-68816905D01*
X86959429Y-68864524D01*
X86721333Y-68864524D01*
X86530857Y-68816905D01*
X86435619Y-68769286D01*
X86388000Y-68721667D01*
X86340381Y-68626429D01*
X96375143Y-59758143D02*
X96327524Y-59805762D01*
X96184667Y-59853381D01*
X96089429Y-59853381D01*
X95946571Y-59805762D01*
X95851333Y-59710524D01*
X95803714Y-59615286D01*
X95756095Y-59424810D01*
X95756095Y-59281952D01*
X95803714Y-59091476D01*
X95851333Y-58996238D01*
X95946571Y-58901000D01*
X96089429Y-58853381D01*
X96184667Y-58853381D01*
X96327524Y-58901000D01*
X96375143Y-58948619D01*
X96756095Y-58948619D02*
X96803714Y-58901000D01*
X96898952Y-58853381D01*
X97137048Y-58853381D01*
X97232286Y-58901000D01*
X97279905Y-58948619D01*
X97327524Y-59043857D01*
X97327524Y-59139095D01*
X97279905Y-59281952D01*
X96708476Y-59853381D01*
X97327524Y-59853381D01*
X98279905Y-59853381D02*
X97708476Y-59853381D01*
X97994190Y-59853381D02*
X97994190Y-58853381D01*
X97898952Y-58996238D01*
X97803714Y-59091476D01*
X97708476Y-59139095D01*
X92890143Y-74707743D02*
X92842524Y-74755362D01*
X92699667Y-74802981D01*
X92604429Y-74802981D01*
X92461571Y-74755362D01*
X92366333Y-74660124D01*
X92318714Y-74564886D01*
X92271095Y-74374410D01*
X92271095Y-74231552D01*
X92318714Y-74041076D01*
X92366333Y-73945838D01*
X92461571Y-73850600D01*
X92604429Y-73802981D01*
X92699667Y-73802981D01*
X92842524Y-73850600D01*
X92890143Y-73898219D01*
X93271095Y-73898219D02*
X93318714Y-73850600D01*
X93413952Y-73802981D01*
X93652048Y-73802981D01*
X93747286Y-73850600D01*
X93794905Y-73898219D01*
X93842524Y-73993457D01*
X93842524Y-74088695D01*
X93794905Y-74231552D01*
X93223476Y-74802981D01*
X93842524Y-74802981D01*
X94223476Y-73898219D02*
X94271095Y-73850600D01*
X94366333Y-73802981D01*
X94604429Y-73802981D01*
X94699667Y-73850600D01*
X94747286Y-73898219D01*
X94794905Y-73993457D01*
X94794905Y-74088695D01*
X94747286Y-74231552D01*
X94175857Y-74802981D01*
X94794905Y-74802981D01*
X82758143Y-62468143D02*
X82710524Y-62515762D01*
X82567667Y-62563381D01*
X82472429Y-62563381D01*
X82329571Y-62515762D01*
X82234333Y-62420524D01*
X82186714Y-62325286D01*
X82139095Y-62134810D01*
X82139095Y-61991952D01*
X82186714Y-61801476D01*
X82234333Y-61706238D01*
X82329571Y-61611000D01*
X82472429Y-61563381D01*
X82567667Y-61563381D01*
X82710524Y-61611000D01*
X82758143Y-61658619D01*
X83139095Y-61658619D02*
X83186714Y-61611000D01*
X83281952Y-61563381D01*
X83520048Y-61563381D01*
X83615286Y-61611000D01*
X83662905Y-61658619D01*
X83710524Y-61753857D01*
X83710524Y-61849095D01*
X83662905Y-61991952D01*
X83091476Y-62563381D01*
X83710524Y-62563381D01*
X84043857Y-61563381D02*
X84662905Y-61563381D01*
X84329571Y-61944333D01*
X84472429Y-61944333D01*
X84567667Y-61991952D01*
X84615286Y-62039571D01*
X84662905Y-62134810D01*
X84662905Y-62372905D01*
X84615286Y-62468143D01*
X84567667Y-62515762D01*
X84472429Y-62563381D01*
X84186714Y-62563381D01*
X84091476Y-62515762D01*
X84043857Y-62468143D01*
X103395143Y-65482543D02*
X103347524Y-65530162D01*
X103204667Y-65577781D01*
X103109429Y-65577781D01*
X102966571Y-65530162D01*
X102871333Y-65434924D01*
X102823714Y-65339686D01*
X102776095Y-65149210D01*
X102776095Y-65006352D01*
X102823714Y-64815876D01*
X102871333Y-64720638D01*
X102966571Y-64625400D01*
X103109429Y-64577781D01*
X103204667Y-64577781D01*
X103347524Y-64625400D01*
X103395143Y-64673019D01*
X103776095Y-64673019D02*
X103823714Y-64625400D01*
X103918952Y-64577781D01*
X104157048Y-64577781D01*
X104252286Y-64625400D01*
X104299905Y-64673019D01*
X104347524Y-64768257D01*
X104347524Y-64863495D01*
X104299905Y-65006352D01*
X103728476Y-65577781D01*
X104347524Y-65577781D01*
X105204667Y-64911114D02*
X105204667Y-65577781D01*
X104966571Y-64530162D02*
X104728476Y-65244448D01*
X105347524Y-65244448D01*
X106705381Y-63178666D02*
X106705381Y-63654857D01*
X105705381Y-63654857D01*
X106038714Y-62416761D02*
X106705381Y-62416761D01*
X105657762Y-62654857D02*
X106372048Y-62892952D01*
X106372048Y-62273904D01*
X97775334Y-63789381D02*
X97299143Y-63789381D01*
X97299143Y-62789381D01*
X98584858Y-62789381D02*
X98108667Y-62789381D01*
X98061048Y-63265571D01*
X98108667Y-63217952D01*
X98203905Y-63170333D01*
X98442001Y-63170333D01*
X98537239Y-63217952D01*
X98584858Y-63265571D01*
X98632477Y-63360810D01*
X98632477Y-63598905D01*
X98584858Y-63694143D01*
X98537239Y-63741762D01*
X98442001Y-63789381D01*
X98203905Y-63789381D01*
X98108667Y-63741762D01*
X98061048Y-63694143D01*
X86467381Y-66958666D02*
X86467381Y-67434857D01*
X85467381Y-67434857D01*
X85467381Y-66196761D02*
X85467381Y-66387238D01*
X85515000Y-66482476D01*
X85562619Y-66530095D01*
X85705476Y-66625333D01*
X85895952Y-66672952D01*
X86276905Y-66672952D01*
X86372143Y-66625333D01*
X86419762Y-66577714D01*
X86467381Y-66482476D01*
X86467381Y-66291999D01*
X86419762Y-66196761D01*
X86372143Y-66149142D01*
X86276905Y-66101523D01*
X86038810Y-66101523D01*
X85943571Y-66149142D01*
X85895952Y-66196761D01*
X85848333Y-66291999D01*
X85848333Y-66482476D01*
X85895952Y-66577714D01*
X85943571Y-66625333D01*
X86038810Y-66672952D01*
X71552381Y-66458857D02*
X71076190Y-66792191D01*
X71552381Y-67030286D02*
X70552381Y-67030286D01*
X70552381Y-66649333D01*
X70600000Y-66554095D01*
X70647619Y-66506476D01*
X70742857Y-66458857D01*
X70885714Y-66458857D01*
X70980952Y-66506476D01*
X71028571Y-66554095D01*
X71076190Y-66649333D01*
X71076190Y-67030286D01*
X71552381Y-65506476D02*
X71552381Y-66077905D01*
X71552381Y-65792191D02*
X70552381Y-65792191D01*
X70695238Y-65887429D01*
X70790476Y-65982667D01*
X70838095Y-66077905D01*
X71552381Y-65030286D02*
X71552381Y-64839810D01*
X71504762Y-64744571D01*
X71457143Y-64696952D01*
X71314286Y-64601714D01*
X71123810Y-64554095D01*
X70742857Y-64554095D01*
X70647619Y-64601714D01*
X70600000Y-64649333D01*
X70552381Y-64744571D01*
X70552381Y-64935048D01*
X70600000Y-65030286D01*
X70647619Y-65077905D01*
X70742857Y-65125524D01*
X70980952Y-65125524D01*
X71076190Y-65077905D01*
X71123810Y-65030286D01*
X71171429Y-64935048D01*
X71171429Y-64744571D01*
X71123810Y-64649333D01*
X71076190Y-64601714D01*
X70980952Y-64554095D01*
X92233905Y-69688781D02*
X92233905Y-70498305D01*
X92281524Y-70593543D01*
X92329143Y-70641162D01*
X92424381Y-70688781D01*
X92614858Y-70688781D01*
X92710096Y-70641162D01*
X92757715Y-70593543D01*
X92805334Y-70498305D01*
X92805334Y-69688781D01*
X93805334Y-70688781D02*
X93233905Y-70688781D01*
X93519619Y-70688781D02*
X93519619Y-69688781D01*
X93424381Y-69831638D01*
X93329143Y-69926876D01*
X93233905Y-69974495D01*
X94662477Y-70022114D02*
X94662477Y-70688781D01*
X94424381Y-69641162D02*
X94186286Y-70355448D01*
X94805334Y-70355448D01*
X100561095Y-79929381D02*
X100561095Y-80738905D01*
X100608714Y-80834143D01*
X100656333Y-80881762D01*
X100751571Y-80929381D01*
X100942048Y-80929381D01*
X101037286Y-80881762D01*
X101084905Y-80834143D01*
X101132524Y-80738905D01*
X101132524Y-79929381D01*
X101513476Y-79929381D02*
X102180143Y-79929381D01*
X101751571Y-80929381D01*
X63016905Y-33788181D02*
X63588334Y-33788181D01*
X63302619Y-34788181D02*
X63302619Y-33788181D01*
X63921667Y-34788181D02*
X63921667Y-33788181D01*
X64302620Y-33788181D01*
X64397858Y-33835800D01*
X64445477Y-33883419D01*
X64493096Y-33978657D01*
X64493096Y-34121514D01*
X64445477Y-34216752D01*
X64397858Y-34264371D01*
X64302620Y-34311990D01*
X63921667Y-34311990D01*
X65445477Y-34788181D02*
X64874048Y-34788181D01*
X65159762Y-34788181D02*
X65159762Y-33788181D01*
X65064524Y-33931038D01*
X64969286Y-34026276D01*
X64874048Y-34073895D01*
X66302620Y-34121514D02*
X66302620Y-34788181D01*
X66064524Y-33740562D02*
X65826429Y-34454848D01*
X66445477Y-34454848D01*
X59591095Y-54773381D02*
X60162524Y-54773381D01*
X59876809Y-55773381D02*
X59876809Y-54773381D01*
X60495857Y-55773381D02*
X60495857Y-54773381D01*
X60876810Y-54773381D01*
X60972048Y-54821000D01*
X61019667Y-54868619D01*
X61067286Y-54963857D01*
X61067286Y-55106714D01*
X61019667Y-55201952D01*
X60972048Y-55249571D01*
X60876810Y-55297190D01*
X60495857Y-55297190D01*
X61924429Y-54773381D02*
X61733952Y-54773381D01*
X61638714Y-54821000D01*
X61591095Y-54868619D01*
X61495857Y-55011476D01*
X61448238Y-55201952D01*
X61448238Y-55582905D01*
X61495857Y-55678143D01*
X61543476Y-55725762D01*
X61638714Y-55773381D01*
X61829191Y-55773381D01*
X61924429Y-55725762D01*
X61972048Y-55678143D01*
X62019667Y-55582905D01*
X62019667Y-55344810D01*
X61972048Y-55249571D01*
X61924429Y-55201952D01*
X61829191Y-55154333D01*
X61638714Y-55154333D01*
X61543476Y-55201952D01*
X61495857Y-55249571D01*
X61448238Y-55344810D01*
X38636095Y-66005381D02*
X39207524Y-66005381D01*
X38921809Y-67005381D02*
X38921809Y-66005381D01*
X39540857Y-67005381D02*
X39540857Y-66005381D01*
X39921810Y-66005381D01*
X40017048Y-66053000D01*
X40064667Y-66100619D01*
X40112286Y-66195857D01*
X40112286Y-66338714D01*
X40064667Y-66433952D01*
X40017048Y-66481571D01*
X39921810Y-66529190D01*
X39540857Y-66529190D01*
X41064667Y-67005381D02*
X40493238Y-67005381D01*
X40778952Y-67005381D02*
X40778952Y-66005381D01*
X40683714Y-66148238D01*
X40588476Y-66243476D01*
X40493238Y-66291095D01*
X36675095Y-55759181D02*
X37246524Y-55759181D01*
X36960809Y-56759181D02*
X36960809Y-55759181D01*
X37579857Y-56759181D02*
X37579857Y-55759181D01*
X37960810Y-55759181D01*
X38056048Y-55806800D01*
X38103667Y-55854419D01*
X38151286Y-55949657D01*
X38151286Y-56092514D01*
X38103667Y-56187752D01*
X38056048Y-56235371D01*
X37960810Y-56282990D01*
X37579857Y-56282990D01*
X38532238Y-55854419D02*
X38579857Y-55806800D01*
X38675095Y-55759181D01*
X38913191Y-55759181D01*
X39008429Y-55806800D01*
X39056048Y-55854419D01*
X39103667Y-55949657D01*
X39103667Y-56044895D01*
X39056048Y-56187752D01*
X38484619Y-56759181D01*
X39103667Y-56759181D01*
X36655095Y-60534181D02*
X37226524Y-60534181D01*
X36940809Y-61534181D02*
X36940809Y-60534181D01*
X37559857Y-61534181D02*
X37559857Y-60534181D01*
X37940810Y-60534181D01*
X38036048Y-60581800D01*
X38083667Y-60629419D01*
X38131286Y-60724657D01*
X38131286Y-60867514D01*
X38083667Y-60962752D01*
X38036048Y-61010371D01*
X37940810Y-61057990D01*
X37559857Y-61057990D01*
X38464619Y-60534181D02*
X39083667Y-60534181D01*
X38750333Y-60915133D01*
X38893191Y-60915133D01*
X38988429Y-60962752D01*
X39036048Y-61010371D01*
X39083667Y-61105610D01*
X39083667Y-61343705D01*
X39036048Y-61438943D01*
X38988429Y-61486562D01*
X38893191Y-61534181D01*
X38607476Y-61534181D01*
X38512238Y-61486562D01*
X38464619Y-61438943D01*
X87926095Y-43892381D02*
X88497524Y-43892381D01*
X88211809Y-44892381D02*
X88211809Y-43892381D01*
X88830857Y-44892381D02*
X88830857Y-43892381D01*
X89211810Y-43892381D01*
X89307048Y-43940000D01*
X89354667Y-43987619D01*
X89402286Y-44082857D01*
X89402286Y-44225714D01*
X89354667Y-44320952D01*
X89307048Y-44368571D01*
X89211810Y-44416190D01*
X88830857Y-44416190D01*
X90259429Y-44225714D02*
X90259429Y-44892381D01*
X90021333Y-43844762D02*
X89783238Y-44559048D01*
X90402286Y-44559048D01*
X95699095Y-37045181D02*
X96270524Y-37045181D01*
X95984809Y-38045181D02*
X95984809Y-37045181D01*
X96603857Y-38045181D02*
X96603857Y-37045181D01*
X96984810Y-37045181D01*
X97080048Y-37092800D01*
X97127667Y-37140419D01*
X97175286Y-37235657D01*
X97175286Y-37378514D01*
X97127667Y-37473752D01*
X97080048Y-37521371D01*
X96984810Y-37568990D01*
X96603857Y-37568990D01*
X98080048Y-37045181D02*
X97603857Y-37045181D01*
X97556238Y-37521371D01*
X97603857Y-37473752D01*
X97699095Y-37426133D01*
X97937191Y-37426133D01*
X98032429Y-37473752D01*
X98080048Y-37521371D01*
X98127667Y-37616610D01*
X98127667Y-37854705D01*
X98080048Y-37949943D01*
X98032429Y-37997562D01*
X97937191Y-38045181D01*
X97699095Y-38045181D01*
X97603857Y-37997562D01*
X97556238Y-37949943D01*
X89782095Y-82998381D02*
X90353524Y-82998381D01*
X90067809Y-83998381D02*
X90067809Y-82998381D01*
X90686857Y-83998381D02*
X90686857Y-82998381D01*
X91067810Y-82998381D01*
X91163048Y-83046000D01*
X91210667Y-83093619D01*
X91258286Y-83188857D01*
X91258286Y-83331714D01*
X91210667Y-83426952D01*
X91163048Y-83474571D01*
X91067810Y-83522190D01*
X90686857Y-83522190D01*
X91591619Y-82998381D02*
X92258286Y-82998381D01*
X91829714Y-83998381D01*
X114811095Y-59239181D02*
X115382524Y-59239181D01*
X115096809Y-60239181D02*
X115096809Y-59239181D01*
X115715857Y-60239181D02*
X115715857Y-59239181D01*
X116096810Y-59239181D01*
X116192048Y-59286800D01*
X116239667Y-59334419D01*
X116287286Y-59429657D01*
X116287286Y-59572514D01*
X116239667Y-59667752D01*
X116192048Y-59715371D01*
X116096810Y-59762990D01*
X115715857Y-59762990D01*
X116858714Y-59667752D02*
X116763476Y-59620133D01*
X116715857Y-59572514D01*
X116668238Y-59477276D01*
X116668238Y-59429657D01*
X116715857Y-59334419D01*
X116763476Y-59286800D01*
X116858714Y-59239181D01*
X117049191Y-59239181D01*
X117144429Y-59286800D01*
X117192048Y-59334419D01*
X117239667Y-59429657D01*
X117239667Y-59477276D01*
X117192048Y-59572514D01*
X117144429Y-59620133D01*
X117049191Y-59667752D01*
X116858714Y-59667752D01*
X116763476Y-59715371D01*
X116715857Y-59762990D01*
X116668238Y-59858229D01*
X116668238Y-60048705D01*
X116715857Y-60143943D01*
X116763476Y-60191562D01*
X116858714Y-60239181D01*
X117049191Y-60239181D01*
X117144429Y-60191562D01*
X117192048Y-60143943D01*
X117239667Y-60048705D01*
X117239667Y-59858229D01*
X117192048Y-59762990D01*
X117144429Y-59715371D01*
X117049191Y-59667752D01*
X105300095Y-70227181D02*
X105871524Y-70227181D01*
X105585809Y-71227181D02*
X105585809Y-70227181D01*
X106204857Y-71227181D02*
X106204857Y-70227181D01*
X106585810Y-70227181D01*
X106681048Y-70274800D01*
X106728667Y-70322419D01*
X106776286Y-70417657D01*
X106776286Y-70560514D01*
X106728667Y-70655752D01*
X106681048Y-70703371D01*
X106585810Y-70750990D01*
X106204857Y-70750990D01*
X107252476Y-71227181D02*
X107442952Y-71227181D01*
X107538191Y-71179562D01*
X107585810Y-71131943D01*
X107681048Y-70989086D01*
X107728667Y-70798610D01*
X107728667Y-70417657D01*
X107681048Y-70322419D01*
X107633429Y-70274800D01*
X107538191Y-70227181D01*
X107347714Y-70227181D01*
X107252476Y-70274800D01*
X107204857Y-70322419D01*
X107157238Y-70417657D01*
X107157238Y-70655752D01*
X107204857Y-70750990D01*
X107252476Y-70798610D01*
X107347714Y-70846229D01*
X107538191Y-70846229D01*
X107633429Y-70798610D01*
X107681048Y-70750990D01*
X107728667Y-70655752D01*
X99991905Y-82948381D02*
X100563334Y-82948381D01*
X100277619Y-83948381D02*
X100277619Y-82948381D01*
X100896667Y-83948381D02*
X100896667Y-82948381D01*
X101277620Y-82948381D01*
X101372858Y-82996000D01*
X101420477Y-83043619D01*
X101468096Y-83138857D01*
X101468096Y-83281714D01*
X101420477Y-83376952D01*
X101372858Y-83424571D01*
X101277620Y-83472190D01*
X100896667Y-83472190D01*
X102420477Y-83948381D02*
X101849048Y-83948381D01*
X102134762Y-83948381D02*
X102134762Y-82948381D01*
X102039524Y-83091238D01*
X101944286Y-83186476D01*
X101849048Y-83234095D01*
X103039524Y-82948381D02*
X103134763Y-82948381D01*
X103230001Y-82996000D01*
X103277620Y-83043619D01*
X103325239Y-83138857D01*
X103372858Y-83329333D01*
X103372858Y-83567429D01*
X103325239Y-83757905D01*
X103277620Y-83853143D01*
X103230001Y-83900762D01*
X103134763Y-83948381D01*
X103039524Y-83948381D01*
X102944286Y-83900762D01*
X102896667Y-83853143D01*
X102849048Y-83757905D01*
X102801429Y-83567429D01*
X102801429Y-83329333D01*
X102849048Y-83138857D01*
X102896667Y-83043619D01*
X102944286Y-82996000D01*
X103039524Y-82948381D01*
X115304905Y-72547181D02*
X115876334Y-72547181D01*
X115590619Y-73547181D02*
X115590619Y-72547181D01*
X116209667Y-73547181D02*
X116209667Y-72547181D01*
X116590620Y-72547181D01*
X116685858Y-72594800D01*
X116733477Y-72642419D01*
X116781096Y-72737657D01*
X116781096Y-72880514D01*
X116733477Y-72975752D01*
X116685858Y-73023371D01*
X116590620Y-73070990D01*
X116209667Y-73070990D01*
X117733477Y-73547181D02*
X117162048Y-73547181D01*
X117447762Y-73547181D02*
X117447762Y-72547181D01*
X117352524Y-72690038D01*
X117257286Y-72785276D01*
X117162048Y-72832895D01*
X118685858Y-73547181D02*
X118114429Y-73547181D01*
X118400143Y-73547181D02*
X118400143Y-72547181D01*
X118304905Y-72690038D01*
X118209667Y-72785276D01*
X118114429Y-72832895D01*
X115868905Y-65532381D02*
X116440334Y-65532381D01*
X116154619Y-66532381D02*
X116154619Y-65532381D01*
X116773667Y-66532381D02*
X116773667Y-65532381D01*
X117154620Y-65532381D01*
X117249858Y-65580000D01*
X117297477Y-65627619D01*
X117345096Y-65722857D01*
X117345096Y-65865714D01*
X117297477Y-65960952D01*
X117249858Y-66008571D01*
X117154620Y-66056190D01*
X116773667Y-66056190D01*
X118297477Y-66532381D02*
X117726048Y-66532381D01*
X118011762Y-66532381D02*
X118011762Y-65532381D01*
X117916524Y-65675238D01*
X117821286Y-65770476D01*
X117726048Y-65818095D01*
X118678429Y-65627619D02*
X118726048Y-65580000D01*
X118821286Y-65532381D01*
X119059382Y-65532381D01*
X119154620Y-65580000D01*
X119202239Y-65627619D01*
X119249858Y-65722857D01*
X119249858Y-65818095D01*
X119202239Y-65960952D01*
X118630810Y-66532381D01*
X119249858Y-66532381D01*
X105097905Y-73713381D02*
X105669334Y-73713381D01*
X105383619Y-74713381D02*
X105383619Y-73713381D01*
X106002667Y-74713381D02*
X106002667Y-73713381D01*
X106383620Y-73713381D01*
X106478858Y-73761000D01*
X106526477Y-73808619D01*
X106574096Y-73903857D01*
X106574096Y-74046714D01*
X106526477Y-74141952D01*
X106478858Y-74189571D01*
X106383620Y-74237190D01*
X106002667Y-74237190D01*
X107526477Y-74713381D02*
X106955048Y-74713381D01*
X107240762Y-74713381D02*
X107240762Y-73713381D01*
X107145524Y-73856238D01*
X107050286Y-73951476D01*
X106955048Y-73999095D01*
X107859810Y-73713381D02*
X108478858Y-73713381D01*
X108145524Y-74094333D01*
X108288382Y-74094333D01*
X108383620Y-74141952D01*
X108431239Y-74189571D01*
X108478858Y-74284810D01*
X108478858Y-74522905D01*
X108431239Y-74618143D01*
X108383620Y-74665762D01*
X108288382Y-74713381D01*
X108002667Y-74713381D01*
X107907429Y-74665762D01*
X107859810Y-74618143D01*
M02*
