M48
;DRILL file {KiCad 4.0.7} date 02/10/18 23:58:04
;FORMAT={-:-/ absolute / metric / decimal}
FMAT,2
METRIC,TZ
T1C0.250
T2C0.381
T3C0.635
T4C0.800
T5C1.000
T6C1.100
%
G90
G05
M71
T2
X37.687Y-31.766
X37.687Y-33.966
X37.687Y-49.366
X37.687Y-51.566
X37.687Y-53.766
X37.687Y-55.966
X37.687Y-58.166
X37.687Y-60.325
X37.687Y-62.525
X37.687Y-64.725
X37.687Y-66.925
X37.687Y-69.125
X37.687Y-71.325
X37.687Y-73.525
X37.687Y-75.725
X37.687Y-77.925
X39.687Y-31.766
X39.687Y-33.966
X39.687Y-38.366
X39.687Y-40.566
X39.687Y-44.966
X39.687Y-51.566
X39.687Y-53.766
X39.687Y-55.966
X39.687Y-58.166
X39.687Y-60.325
X39.687Y-62.525
X39.687Y-64.725
X39.687Y-66.925
X39.687Y-69.125
X39.687Y-71.325
X39.687Y-73.525
X39.687Y-75.725
X39.687Y-77.925
X41.687Y-31.766
X41.687Y-33.966
X41.687Y-38.366
X41.687Y-40.566
X41.687Y-58.166
X41.687Y-60.325
X41.687Y-62.525
X41.687Y-64.725
X41.687Y-66.925
X41.687Y-69.125
X41.687Y-71.325
X41.687Y-73.525
X41.687Y-75.725
X41.687Y-77.925
X43.687Y-31.766
X43.687Y-33.966
X43.687Y-38.366
X43.687Y-40.566
X43.687Y-44.966
X43.687Y-49.366
X43.687Y-51.566
X43.687Y-53.766
X43.687Y-55.966
X43.687Y-60.325
X43.687Y-62.525
X43.687Y-64.725
X43.687Y-66.925
X43.687Y-69.125
X43.687Y-71.325
X43.687Y-73.525
X43.687Y-75.725
X43.687Y-77.925
X45.687Y-31.766
X45.687Y-33.966
X45.687Y-36.166
X45.687Y-38.366
X45.687Y-40.566
X45.687Y-44.966
X45.687Y-49.366
X45.687Y-51.566
X45.687Y-53.766
X45.687Y-55.966
X45.687Y-58.039
X45.687Y-62.525
X45.687Y-64.725
X45.687Y-66.925
X45.687Y-69.125
X45.687Y-71.325
X45.687Y-73.525
X45.687Y-75.725
X45.687Y-77.925
X47.687Y-31.766
X47.687Y-33.966
X47.687Y-36.166
X47.687Y-44.966
X47.687Y-47.166
X47.687Y-51.566
X47.687Y-53.766
X47.687Y-55.966
X47.687Y-58.039
X47.687Y-60.325
X47.687Y-64.725
X47.687Y-66.925
X47.687Y-69.125
X47.687Y-71.325
X47.687Y-73.525
X47.687Y-75.725
X49.687Y-31.766
X49.687Y-33.966
X49.687Y-36.166
X49.687Y-40.566
X49.687Y-42.766
X49.687Y-44.966
X49.687Y-47.166
X49.687Y-60.325
X49.687Y-66.925
X49.687Y-69.125
X49.687Y-71.325
X49.687Y-73.525
X49.687Y-75.725
X51.687Y-31.766
X51.687Y-33.966
X51.687Y-36.166
X51.687Y-40.566
X51.687Y-42.766
X51.687Y-58.039
X51.687Y-60.325
X51.687Y-66.925
X51.687Y-69.125
X51.687Y-71.325
X51.687Y-73.525
X51.687Y-75.725
X53.687Y-31.766
X53.687Y-33.966
X53.687Y-36.166
X53.687Y-40.566
X53.687Y-51.566
X53.687Y-53.766
X53.687Y-55.966
X53.687Y-58.039
X53.687Y-60.325
X53.687Y-66.925
X53.687Y-69.125
X53.687Y-71.325
X53.687Y-73.525
X53.687Y-75.725
X55.687Y-31.766
X55.687Y-33.966
X55.687Y-51.566
X55.687Y-53.766
X55.687Y-55.966
X55.687Y-58.039
X55.687Y-60.325
X55.687Y-66.925
X55.687Y-69.125
X55.687Y-71.325
X55.687Y-73.525
X55.687Y-75.725
X57.687Y-31.766
X57.687Y-33.966
X57.687Y-42.766
X57.687Y-51.566
X57.687Y-53.766
X57.687Y-58.039
X57.687Y-60.325
X57.687Y-66.925
X57.687Y-69.125
X57.687Y-71.325
X57.687Y-73.525
X57.687Y-75.725
X59.687Y-31.766
X59.687Y-42.766
X59.687Y-58.102
X59.687Y-60.325
X59.687Y-66.925
X59.687Y-69.125
X59.687Y-71.325
X59.687Y-73.525
X59.687Y-75.725
X61.687Y-31.766
X61.687Y-58.102
X61.687Y-60.325
X61.687Y-66.925
X61.687Y-69.125
X61.687Y-71.325
X61.687Y-73.525
X61.687Y-75.725
X63.687Y-31.766
X63.687Y-42.766
X63.687Y-58.102
X63.687Y-60.325
X63.687Y-64.725
X63.687Y-66.925
X63.687Y-69.125
X63.687Y-71.325
X63.687Y-73.525
X63.687Y-75.725
X65.687Y-31.766
X65.687Y-42.766
X65.687Y-58.102
X65.687Y-60.325
X65.687Y-64.725
X65.687Y-66.925
X65.687Y-69.125
X65.687Y-71.325
X65.687Y-73.525
X65.687Y-75.725
X67.673Y-45.072
X67.687Y-31.766
X67.687Y-51.566
X67.687Y-58.102
X67.687Y-60.325
X67.687Y-64.725
X67.687Y-66.925
X67.687Y-69.125
X67.687Y-71.325
X67.687Y-73.525
X67.687Y-75.725
X68.072Y-52.959
X69.687Y-31.766
X69.687Y-53.766
X69.687Y-58.102
X69.687Y-60.325
X69.687Y-64.725
X69.687Y-66.925
X69.687Y-69.125
X69.687Y-71.325
X69.687Y-73.525
X69.687Y-75.725
X71.687Y-31.766
X71.687Y-51.566
X71.687Y-58.102
X71.687Y-60.325
X71.687Y-64.725
X71.687Y-66.925
X71.687Y-69.125
X71.687Y-71.325
X71.687Y-73.525
X71.687Y-75.725
X71.704Y-45.011
X73.687Y-31.766
X73.687Y-49.366
X73.687Y-58.102
X73.687Y-60.325
X73.687Y-64.725
X73.687Y-66.925
X73.687Y-69.125
X73.687Y-71.325
X73.687Y-73.525
X73.687Y-75.725
X73.731Y-45.004
X75.687Y-31.766
X75.687Y-49.366
X75.687Y-55.966
X75.687Y-60.325
X75.687Y-64.725
X75.687Y-66.925
X75.687Y-69.125
X75.687Y-71.325
X75.687Y-73.525
X75.687Y-75.725
X77.687Y-31.766
X77.687Y-60.325
X77.687Y-64.725
X77.687Y-66.925
X77.687Y-69.125
X77.687Y-71.325
X77.687Y-73.525
X77.687Y-75.725
X79.687Y-31.766
X79.687Y-51.566
X79.687Y-58.039
X79.687Y-60.325
X81.687Y-31.766
X81.687Y-36.166
X81.687Y-49.366
X81.687Y-51.566
X81.687Y-58.039
X81.687Y-60.325
X83.687Y-31.766
X83.687Y-36.166
X83.687Y-38.366
X83.687Y-49.366
X83.687Y-51.566
X83.687Y-58.039
X83.687Y-60.325
X83.687Y-62.525
X83.687Y-64.725
X83.687Y-69.125
X83.687Y-71.325
X83.687Y-73.525
X83.687Y-75.725
X83.687Y-77.925
X85.687Y-31.766
X85.687Y-49.366
X85.687Y-51.566
X85.687Y-58.039
X85.687Y-60.325
X85.687Y-62.525
X85.687Y-64.725
X85.687Y-69.125
X85.687Y-71.325
X85.687Y-73.525
X85.687Y-75.725
X85.687Y-77.925
X87.687Y-31.766
X87.687Y-33.966
X87.687Y-36.166
X87.687Y-38.366
X87.687Y-40.566
X87.687Y-42.766
X87.687Y-44.966
X87.687Y-49.366
X87.687Y-51.566
X87.687Y-58.039
X87.687Y-60.325
X87.687Y-62.525
X87.687Y-64.725
X87.687Y-66.925
X87.687Y-69.125
X87.687Y-71.325
X87.687Y-73.525
X87.687Y-75.725
X87.687Y-77.925
X89.687Y-31.766
X89.687Y-33.966
X89.687Y-36.166
X89.687Y-38.366
X89.687Y-40.566
X89.687Y-42.766
X89.687Y-44.966
X89.687Y-47.166
X89.687Y-49.366
X89.687Y-51.566
X89.687Y-53.766
X89.687Y-55.966
X89.687Y-62.525
X89.687Y-64.725
X89.687Y-66.925
X89.687Y-69.125
X89.687Y-71.325
X89.687Y-73.525
X89.687Y-75.725
X89.687Y-77.925
X91.687Y-31.766
X91.687Y-51.566
X91.687Y-64.725
X91.687Y-66.925
X91.687Y-69.125
X91.687Y-71.325
X91.687Y-73.525
X91.687Y-75.725
X91.687Y-77.925
X92.786Y-45.491
X92.939Y-42.342
X93.687Y-31.766
X93.687Y-33.966
X93.687Y-36.166
X93.687Y-38.366
X93.687Y-40.093
X93.687Y-47.166
X93.687Y-49.366
X93.687Y-51.566
X93.687Y-58.039
X93.687Y-60.325
X93.687Y-64.725
X93.687Y-66.925
X93.687Y-69.125
X93.687Y-71.325
X93.687Y-73.525
X93.687Y-75.725
X93.687Y-77.925
X94.463Y-42.342
X95.687Y-31.766
X95.687Y-33.966
X95.687Y-36.166
X95.687Y-38.366
X95.687Y-55.966
X95.687Y-60.325
X95.687Y-62.525
X95.687Y-64.725
X95.687Y-66.925
X95.687Y-71.325
X95.687Y-73.525
X95.687Y-75.725
X95.687Y-77.925
X95.77Y-40.093
X97.687Y-31.766
X97.687Y-33.966
X97.687Y-36.166
X97.687Y-38.366
X97.687Y-60.325
X97.687Y-62.525
X97.687Y-64.725
X97.687Y-66.925
X97.687Y-71.325
X97.687Y-73.525
X97.687Y-75.725
X97.687Y-77.925
X98.503Y-69.993
X99.043Y-43.411
X99.286Y-48.131
X99.337Y-44.829
X99.687Y-31.766
X99.687Y-33.966
X99.687Y-36.166
X99.687Y-38.366
X99.687Y-40.566
X99.687Y-60.325
X99.687Y-62.525
X99.687Y-64.725
X99.687Y-66.925
X99.687Y-73.525
X99.687Y-75.725
X99.687Y-77.925
X99.695Y-58.039
X100.771Y-42.192
X101.687Y-31.766
X101.687Y-33.966
X101.687Y-36.166
X101.687Y-38.366
X101.687Y-49.366
X101.687Y-51.566
X101.687Y-53.766
X101.687Y-55.966
X101.687Y-60.325
X101.687Y-62.525
X101.687Y-64.725
X101.687Y-66.925
X101.687Y-69.125
X101.687Y-73.525
X101.687Y-75.725
X101.687Y-77.925
X101.826Y-44.728
X102.537Y-47.166
X103.632Y-58.039
X103.687Y-31.766
X103.687Y-33.966
X103.687Y-36.166
X103.687Y-60.325
X103.687Y-62.525
X103.687Y-64.725
X103.687Y-66.925
X103.687Y-69.125
X103.687Y-71.325
X103.687Y-73.525
X103.687Y-75.725
X103.687Y-77.925
X105.664Y-58.039
X105.687Y-31.766
X105.687Y-33.966
X105.687Y-36.166
X105.687Y-40.566
X105.687Y-42.766
X105.687Y-44.966
X105.687Y-47.166
X105.687Y-49.366
X105.687Y-51.566
X105.687Y-53.766
X105.687Y-66.925
X105.687Y-69.125
X105.687Y-73.525
X105.687Y-75.725
X105.687Y-77.925
X107.348Y-69.596
X107.687Y-31.766
X107.687Y-33.966
X107.687Y-36.166
X107.687Y-40.566
X107.687Y-42.766
X107.687Y-44.966
X107.687Y-47.166
X107.687Y-49.366
X107.687Y-51.566
X107.687Y-53.766
X107.687Y-55.966
X107.687Y-60.325
X107.687Y-73.525
X107.687Y-75.725
X107.687Y-77.925
X108.458Y-69.596
X108.458Y-70.529
X108.458Y-71.462
X108.483Y-37.465
X109.568Y-69.596
X109.687Y-31.766
X109.687Y-33.966
X109.687Y-36.166
X109.687Y-49.366
X109.687Y-58.039
X109.687Y-60.325
X109.687Y-73.525
X109.687Y-75.725
X109.687Y-77.925
X110.363Y-37.465
X110.769Y-39.853
X110.769Y-45.39
X110.82Y-42.596
X111.687Y-31.766
X111.687Y-33.966
X111.687Y-36.166
X111.687Y-49.366
X111.687Y-51.566
X111.687Y-55.966
X111.687Y-58.039
X111.687Y-60.325
X111.687Y-62.525
X111.687Y-64.725
X111.687Y-66.925
X111.687Y-69.125
X111.687Y-73.525
X111.687Y-75.725
X111.687Y-77.925
X113.286Y-66.894
X113.309Y-68.859
X113.411Y-70.942
X113.687Y-31.766
X113.687Y-33.966
X113.687Y-36.166
X113.687Y-55.966
X113.687Y-60.325
X113.687Y-62.525
X113.687Y-73.525
X113.687Y-75.725
X113.687Y-77.925
X115.687Y-31.766
X115.687Y-33.966
X115.687Y-36.166
X115.687Y-38.366
X115.687Y-58.039
X115.687Y-60.325
X115.687Y-62.525
X115.687Y-69.125
X115.687Y-69.125
X115.687Y-73.525
X115.687Y-75.725
X115.687Y-77.925
X115.698Y-70.991
X116.053Y-65.049
X116.874Y-43.36
X117.096Y-45.017
X117.096Y-48.166
X117.687Y-31.766
X117.687Y-33.966
X117.687Y-36.166
X117.687Y-38.366
X117.687Y-40.566
X117.687Y-49.366
X117.687Y-51.566
X117.687Y-53.766
X117.687Y-55.966
X117.687Y-58.039
X117.687Y-60.325
X117.687Y-62.525
X117.687Y-66.925
X117.687Y-69.125
X117.687Y-69.125
X117.687Y-73.525
X117.687Y-75.725
X117.687Y-77.925
X117.698Y-70.991
X118.652Y-42.192
X119.687Y-31.766
X119.687Y-33.966
X119.687Y-36.166
X119.687Y-38.366
X119.687Y-42.766
X119.687Y-44.966
X119.687Y-49.366
X119.687Y-51.566
X119.687Y-53.766
X119.687Y-55.966
X119.687Y-60.325
X119.687Y-62.525
X119.687Y-66.925
X119.687Y-69.125
X119.687Y-69.125
X119.687Y-73.525
X119.687Y-75.725
X119.687Y-77.925
X119.698Y-70.991
X119.738Y-63.795
X119.941Y-39.972
X121.687Y-31.766
X121.687Y-33.966
X121.687Y-36.166
X121.687Y-38.366
X121.687Y-58.166
X121.687Y-60.325
X121.687Y-62.525
X121.687Y-66.925
X121.687Y-69.125
X121.687Y-69.125
X121.687Y-73.525
X121.687Y-75.725
X121.687Y-77.925
X121.698Y-70.991
X121.706Y-63.795
X123.599Y-40.023
X123.687Y-31.766
X123.687Y-33.966
X123.687Y-36.166
X123.687Y-38.366
X123.687Y-42.766
X123.687Y-44.966
X123.687Y-47.166
X123.687Y-49.366
X123.687Y-51.566
X123.687Y-53.766
X123.687Y-55.966
X123.687Y-58.166
X123.687Y-60.325
X123.687Y-62.525
X123.687Y-66.925
X123.687Y-69.125
X123.687Y-73.525
X123.687Y-75.725
X123.687Y-77.925
X123.698Y-70.991
X123.738Y-65.065
X125.687Y-31.766
X125.687Y-38.366
X125.687Y-66.925
X125.687Y-69.125
X125.687Y-75.725
X125.687Y-77.925
X127.687Y-31.766
X127.687Y-38.366
X127.687Y-40.566
X127.687Y-42.766
X127.687Y-44.966
X127.687Y-47.166
X127.687Y-49.366
X127.687Y-51.566
X127.687Y-53.766
X127.687Y-55.966
X127.687Y-66.925
X127.687Y-69.125
X127.687Y-75.725
X127.687Y-77.925
T3
X44.577Y-46.99
X48.26Y-38.227
X52.197Y-38.227
X67.31Y-40.386
X75.921Y-43.917
X82.372Y-34.671
X86.182Y-33.401
X128.397Y-57.15
T4
X38.481Y-35.636
X41.021Y-35.636
X43.561Y-35.636
X48.26Y-50.038
X50.8Y-50.038
X53.34Y-50.038
X86.233Y-37.313
X86.233Y-39.853
X86.233Y-42.393
T5
X47.625Y-62.23
X47.625Y-77.47
X50.165Y-62.23
X50.165Y-64.77
X50.165Y-77.47
X52.705Y-62.23
X52.705Y-77.47
X55.245Y-62.23
X55.245Y-64.77
X55.245Y-77.47
X57.785Y-62.23
X57.785Y-64.77
X57.785Y-77.47
X60.325Y-62.23
X60.325Y-64.77
X60.325Y-77.47
X62.865Y-62.23
X62.865Y-77.47
X65.405Y-62.23
X65.405Y-77.47
X67.945Y-62.23
X67.945Y-77.47
X70.485Y-62.23
X70.485Y-77.47
X73.025Y-62.23
X73.025Y-77.47
X75.565Y-62.23
X75.565Y-77.47
X78.105Y-62.23
X78.105Y-77.47
X80.645Y-62.23
X80.645Y-64.77
X80.645Y-67.31
X80.645Y-69.85
X80.645Y-72.39
X80.645Y-74.93
X80.645Y-77.47
T6
X38.481Y-42.24
X41.021Y-42.24
X43.561Y-42.24
T1
X71.968Y-47.174G85X72.172Y-47.174
G05
X71.968Y-54.934G85X72.172Y-54.934
G05
X74.507Y-47.174G85X74.712Y-47.174
G05
X74.507Y-54.934G85X74.712Y-54.934
G05
X77.047Y-47.174G85X77.252Y-47.174
G05
X77.047Y-54.934G85X77.252Y-54.934
G05
X79.587Y-47.174G85X79.792Y-47.174
G05
X79.587Y-54.934G85X79.792Y-54.934
G05
X82.127Y-47.174G85X82.332Y-47.174
G05
X82.127Y-54.934G85X82.332Y-54.934
G05
X84.667Y-47.174G85X84.873Y-47.174
G05
X84.667Y-54.934G85X84.873Y-54.934
G05
X87.207Y-47.174G85X87.412Y-47.174
G05
X87.207Y-54.934G85X87.412Y-54.934
G05
T0
M30
