M48
;DRILL file {KiCad 4.0.7} date 02/08/18 14:37:27
;FORMAT={-:-/ absolute / metric / decimal}
FMAT,2
METRIC,TZ
T1C0.250
T2C0.381
T3C0.400
T4C0.800
T5C1.000
T6C1.100
%
G90
G05
M71
T2
X38.1Y-33.02
X38.1Y-38.1
X38.1Y-43.18
X38.1Y-63.5
X38.1Y-68.58
X38.1Y-73.66
X38.1Y-78.74
X43.18Y-33.02
X43.18Y-38.1
X43.18Y-43.18
X43.18Y-63.5
X43.18Y-73.66
X43.18Y-78.74
X46.8Y-56.69
X48.26Y-33.02
X48.26Y-38.1
X48.26Y-43.18
X48.26Y-53.34
X48.26Y-63.5
X48.26Y-73.66
X48.26Y-78.74
X53.34Y-33.02
X53.34Y-38.1
X53.34Y-43.18
X53.34Y-53.34
X53.34Y-63.5
X53.34Y-68.58
X53.34Y-73.66
X53.34Y-78.74
X58.42Y-33.02
X58.42Y-63.5
X58.42Y-68.58
X58.42Y-73.66
X58.42Y-78.74
X59.558Y-42.631
X63.5Y-33.02
X63.5Y-53.34
X63.5Y-63.5
X63.5Y-68.58
X63.5Y-73.66
X63.5Y-78.74
X68.58Y-63.5
X68.58Y-68.58
X68.58Y-73.66
X68.58Y-78.74
X73.66Y-33.02
X73.66Y-48.26
X73.66Y-63.5
X73.66Y-78.74
X78.74Y-33.02
X78.74Y-48.26
X78.74Y-68.58
X78.74Y-73.66
X78.74Y-78.74
X83.82Y-48.26
X83.82Y-68.58
X83.82Y-73.66
X83.82Y-78.74
X88.9Y-48.26
X88.9Y-63.5
X88.9Y-73.66
X88.9Y-78.74
X93.98Y-33.02
X93.98Y-63.5
X93.98Y-73.66
X93.98Y-78.74
X99.06Y-33.02
X99.06Y-63.5
X99.06Y-73.66
X99.06Y-78.74
X100.51Y-68.47
X101.62Y-68.47
X101.62Y-69.403
X101.62Y-70.336
X102.73Y-68.47
X104.14Y-33.02
X104.14Y-58.42
X104.14Y-63.5
X104.14Y-73.66
X104.14Y-78.74
X109.22Y-33.02
X109.22Y-58.42
X109.22Y-63.5
X109.22Y-73.66
X109.22Y-78.74
X110.88Y-70.04
X114.3Y-33.02
X114.3Y-38.1
X114.3Y-43.18
X114.3Y-48.26
X114.3Y-73.66
X114.3Y-78.74
X119.38Y-43.18
X119.38Y-48.26
X119.38Y-53.34
X119.38Y-58.42
X119.38Y-63.5
X119.38Y-78.74
T3
X76.44Y-40.93
X81.971Y-40.66
X84.348Y-34.503
X113.619Y-57.506
T4
X45.014Y-48.621
X47.554Y-48.621
X50.094Y-48.621
X54.592Y-47.001
X57.132Y-47.001
X59.672Y-47.001
X65.405Y-57.079
X67.945Y-57.079
X70.485Y-57.079
T5
X37.379Y-66.04
X37.379Y-81.28
X37.8Y-59.25
X37.94Y-48.613
X37.968Y-54.089
X39.919Y-66.04
X39.919Y-68.58
X39.919Y-81.28
X42.459Y-66.04
X42.459Y-81.28
X44.999Y-66.04
X44.999Y-68.58
X44.999Y-81.28
X47.539Y-66.04
X47.539Y-68.58
X47.539Y-81.28
X50.079Y-66.04
X50.079Y-68.58
X50.079Y-81.28
X52.619Y-66.04
X52.619Y-81.28
X55.159Y-66.04
X55.159Y-81.28
X57.054Y-38.114
X57.699Y-66.04
X57.699Y-81.28
X60.239Y-66.04
X60.239Y-81.28
X62.779Y-66.04
X62.779Y-81.28
X65.319Y-66.04
X65.319Y-81.28
X67.859Y-66.04
X67.859Y-81.28
X70.399Y-66.04
X70.399Y-68.58
X70.399Y-71.12
X70.399Y-73.66
X70.399Y-76.2
X70.399Y-78.74
X70.399Y-81.28
X99.715Y-37.269
T6
X44.058Y-56.67
X44.058Y-59.21
X44.058Y-61.75
T1
X69.795Y-45.396G85X70.001Y-45.396
G05
X69.795Y-53.156G85X70.001Y-53.156
G05
X72.335Y-45.396G85X72.54Y-45.396
G05
X72.335Y-53.156G85X72.54Y-53.156
G05
X74.876Y-45.396G85X75.081Y-45.396
G05
X74.876Y-53.156G85X75.081Y-53.156
G05
X77.415Y-45.396G85X77.62Y-45.396
G05
X77.415Y-53.156G85X77.62Y-53.156
G05
X79.956Y-45.396G85X80.16Y-45.396
G05
X79.956Y-53.156G85X80.16Y-53.156
G05
X82.495Y-45.396G85X82.7Y-45.396
G05
X82.495Y-53.156G85X82.7Y-53.156
G05
X85.035Y-45.396G85X85.24Y-45.396
G05
X85.035Y-53.156G85X85.24Y-53.156
G05
T0
M30
